%TF.GenerationSoftware,KiCad,Pcbnew,10.0.1*%
%TF.CreationDate,2026-05-12T08:46:46-07:00*%
%TF.ProjectId,DarkMagic,4461726b-4d61-4676-9963-2e6b69636164,rev?*%
%TF.SameCoordinates,Original*%
%TF.FileFunction,Soldermask,Top*%
%TF.FilePolarity,Negative*%
%FSLAX46Y46*%
G04 Gerber Fmt 4.6, Leading zero omitted, Abs format (unit mm)*
G04 Created by KiCad (PCBNEW 10.0.1) date 2026-05-12 08:46:46*
%MOMM*%
%LPD*%
G01*
G04 APERTURE LIST*
G04 Aperture macros list*
%AMRoundRect*
0 Rectangle with rounded corners*
0 $1 Rounding radius*
0 $2 $3 $4 $5 $6 $7 $8 $9 X,Y pos of 4 corners*
0 Add a 4 corners polygon primitive as box body*
4,1,4,$2,$3,$4,$5,$6,$7,$8,$9,$2,$3,0*
0 Add four circle primitives for the rounded corners*
1,1,$1+$1,$2,$3*
1,1,$1+$1,$4,$5*
1,1,$1+$1,$6,$7*
1,1,$1+$1,$8,$9*
0 Add four rect primitives between the rounded corners*
20,1,$1+$1,$2,$3,$4,$5,0*
20,1,$1+$1,$4,$5,$6,$7,0*
20,1,$1+$1,$6,$7,$8,$9,0*
20,1,$1+$1,$8,$9,$2,$3,0*%
G04 Aperture macros list end*
%ADD10C,0.150000*%
%ADD11C,0.300000*%
%ADD12C,0.400000*%
%ADD13RoundRect,0.250000X-0.337500X-0.475000X0.337500X-0.475000X0.337500X0.475000X-0.337500X0.475000X0*%
%ADD14RoundRect,0.250000X0.450000X-0.350000X0.450000X0.350000X-0.450000X0.350000X-0.450000X-0.350000X0*%
%ADD15RoundRect,0.250000X0.350000X0.450000X-0.350000X0.450000X-0.350000X-0.450000X0.350000X-0.450000X0*%
%ADD16RoundRect,0.250000X-0.475000X0.337500X-0.475000X-0.337500X0.475000X-0.337500X0.475000X0.337500X0*%
%ADD17C,3.800000*%
%ADD18C,0.650000*%
%ADD19RoundRect,0.150000X0.150000X0.425000X-0.150000X0.425000X-0.150000X-0.425000X0.150000X-0.425000X0*%
%ADD20RoundRect,0.075000X0.075000X0.500000X-0.075000X0.500000X-0.075000X-0.500000X0.075000X-0.500000X0*%
%ADD21O,1.000000X2.100000*%
%ADD22O,1.000000X1.800000*%
%ADD23R,1.400000X0.950000*%
%ADD24RoundRect,0.200000X1.150000X-0.200000X1.150000X0.200000X-1.150000X0.200000X-1.150000X-0.200000X0*%
%ADD25R,3.300000X6.600000*%
%ADD26O,3.300000X6.600000*%
%ADD27R,2.350000X1.550000*%
%ADD28RoundRect,0.250000X-0.350000X-0.450000X0.350000X-0.450000X0.350000X0.450000X-0.350000X0.450000X0*%
%ADD29RoundRect,0.250000X-0.450000X0.350000X-0.450000X-0.350000X0.450000X-0.350000X0.450000X0.350000X0*%
%ADD30C,3.000000*%
%ADD31R,1.300000X1.100000*%
%ADD32R,1.700000X0.800000*%
%ADD33RoundRect,0.250001X-2.049999X-0.799999X2.049999X-0.799999X2.049999X0.799999X-2.049999X0.799999X0*%
%ADD34R,1.800000X1.800000*%
%ADD35C,1.800000*%
%ADD36R,0.700000X1.000000*%
%ADD37RoundRect,0.250000X0.475000X-0.337500X0.475000X0.337500X-0.475000X0.337500X-0.475000X-0.337500X0*%
%ADD38R,1.200000X0.600000*%
%ADD39RoundRect,0.250000X-0.650000X1.000000X-0.650000X-1.000000X0.650000X-1.000000X0.650000X1.000000X0*%
%ADD40R,1.150000X1.450000*%
%ADD41C,1.560000*%
%ADD42C,4.890000*%
%ADD43R,1.550000X2.350000*%
%ADD44RoundRect,0.250000X0.337500X0.475000X-0.337500X0.475000X-0.337500X-0.475000X0.337500X-0.475000X0*%
%ADD45RoundRect,0.225000X-0.375000X0.225000X-0.375000X-0.225000X0.375000X-0.225000X0.375000X0.225000X0*%
%ADD46R,1.528000X0.650000*%
%ADD47R,1.300000X0.600000*%
%ADD48R,0.600000X1.200000*%
%ADD49R,1.160000X1.810000*%
%ADD50R,1.409700X0.355600*%
%ADD51R,0.900000X0.800000*%
%ADD52R,1.450000X1.150000*%
%ADD53RoundRect,0.250001X0.799999X-2.049999X0.799999X2.049999X-0.799999X2.049999X-0.799999X-2.049999X0*%
%ADD54R,1.475000X0.300000*%
%ADD55R,0.300000X1.475000*%
%ADD56R,0.850000X0.300000*%
%ADD57R,0.300000X0.850000*%
%ADD58R,2.550000X2.550000*%
%ADD59R,3.430000X0.890000*%
%ADD60R,0.558800X2.184400*%
%ADD61C,3.250000*%
%ADD62C,1.500000*%
%ADD63RoundRect,0.250500X0.499500X0.499500X-0.499500X0.499500X-0.499500X-0.499500X0.499500X-0.499500X0*%
%ADD64C,2.500000*%
%ADD65R,1.750000X0.950000*%
%ADD66R,1.750000X3.200000*%
%ADD67R,1.500000X0.900000*%
%ADD68R,0.900000X1.500000*%
%ADD69R,0.900000X0.900000*%
%ADD70RoundRect,0.150000X0.587500X0.150000X-0.587500X0.150000X-0.587500X-0.150000X0.587500X-0.150000X0*%
%ADD71R,1.475000X0.450000*%
%ADD72R,1.000000X0.700000*%
%TA.AperFunction,Profile*%
%ADD73C,0.100000*%
%TD*%
G04 APERTURE END LIST*
D10*
X90007200Y-104005800D02*
X198007200Y-104005800D01*
X198007200Y-136005800D01*
X90007200Y-136005800D01*
X90007200Y-104005800D01*
X10000000Y-10000000D02*
X200007200Y-10000000D01*
X200007200Y-138005800D01*
X10000000Y-138005800D01*
X10000000Y-10000000D01*
X12000000Y-12000000D02*
X198007200Y-12000000D01*
X198007200Y-136005800D01*
X12000000Y-136005800D01*
X12000000Y-12000000D01*
X60000000Y-12000000D02*
X60000000Y-10000000D01*
X110000000Y-12000000D02*
X110000000Y-10000000D01*
X160000000Y-12000000D02*
X160000000Y-10000000D01*
X36089160Y-11593604D02*
X35346303Y-11593604D01*
X35717731Y-11593604D02*
X35717731Y-10293604D01*
X35717731Y-10293604D02*
X35593922Y-10479319D01*
X35593922Y-10479319D02*
X35470112Y-10603128D01*
X35470112Y-10603128D02*
X35346303Y-10665033D01*
X85346303Y-10417414D02*
X85408207Y-10355509D01*
X85408207Y-10355509D02*
X85532017Y-10293604D01*
X85532017Y-10293604D02*
X85841541Y-10293604D01*
X85841541Y-10293604D02*
X85965350Y-10355509D01*
X85965350Y-10355509D02*
X86027255Y-10417414D01*
X86027255Y-10417414D02*
X86089160Y-10541223D01*
X86089160Y-10541223D02*
X86089160Y-10665033D01*
X86089160Y-10665033D02*
X86027255Y-10850747D01*
X86027255Y-10850747D02*
X85284398Y-11593604D01*
X85284398Y-11593604D02*
X86089160Y-11593604D01*
X135284398Y-10293604D02*
X136089160Y-10293604D01*
X136089160Y-10293604D02*
X135655826Y-10788842D01*
X135655826Y-10788842D02*
X135841541Y-10788842D01*
X135841541Y-10788842D02*
X135965350Y-10850747D01*
X135965350Y-10850747D02*
X136027255Y-10912652D01*
X136027255Y-10912652D02*
X136089160Y-11036461D01*
X136089160Y-11036461D02*
X136089160Y-11345985D01*
X136089160Y-11345985D02*
X136027255Y-11469795D01*
X136027255Y-11469795D02*
X135965350Y-11531700D01*
X135965350Y-11531700D02*
X135841541Y-11593604D01*
X135841541Y-11593604D02*
X135470112Y-11593604D01*
X135470112Y-11593604D02*
X135346303Y-11531700D01*
X135346303Y-11531700D02*
X135284398Y-11469795D01*
X185965350Y-10726938D02*
X185965350Y-11593604D01*
X185655826Y-10231700D02*
X185346303Y-11160271D01*
X185346303Y-11160271D02*
X186151064Y-11160271D01*
X60000000Y-136005800D02*
X60000000Y-138005800D01*
X110000000Y-136005800D02*
X110000000Y-138005800D01*
X160000000Y-136005800D02*
X160000000Y-138005800D01*
X36089160Y-137599404D02*
X35346303Y-137599404D01*
X35717731Y-137599404D02*
X35717731Y-136299404D01*
X35717731Y-136299404D02*
X35593922Y-136485119D01*
X35593922Y-136485119D02*
X35470112Y-136608928D01*
X35470112Y-136608928D02*
X35346303Y-136670833D01*
X85346303Y-136423214D02*
X85408207Y-136361309D01*
X85408207Y-136361309D02*
X85532017Y-136299404D01*
X85532017Y-136299404D02*
X85841541Y-136299404D01*
X85841541Y-136299404D02*
X85965350Y-136361309D01*
X85965350Y-136361309D02*
X86027255Y-136423214D01*
X86027255Y-136423214D02*
X86089160Y-136547023D01*
X86089160Y-136547023D02*
X86089160Y-136670833D01*
X86089160Y-136670833D02*
X86027255Y-136856547D01*
X86027255Y-136856547D02*
X85284398Y-137599404D01*
X85284398Y-137599404D02*
X86089160Y-137599404D01*
X135284398Y-136299404D02*
X136089160Y-136299404D01*
X136089160Y-136299404D02*
X135655826Y-136794642D01*
X135655826Y-136794642D02*
X135841541Y-136794642D01*
X135841541Y-136794642D02*
X135965350Y-136856547D01*
X135965350Y-136856547D02*
X136027255Y-136918452D01*
X136027255Y-136918452D02*
X136089160Y-137042261D01*
X136089160Y-137042261D02*
X136089160Y-137351785D01*
X136089160Y-137351785D02*
X136027255Y-137475595D01*
X136027255Y-137475595D02*
X135965350Y-137537500D01*
X135965350Y-137537500D02*
X135841541Y-137599404D01*
X135841541Y-137599404D02*
X135470112Y-137599404D01*
X135470112Y-137599404D02*
X135346303Y-137537500D01*
X135346303Y-137537500D02*
X135284398Y-137475595D01*
X185965350Y-136732738D02*
X185965350Y-137599404D01*
X185655826Y-136237500D02*
X185346303Y-137166071D01*
X185346303Y-137166071D02*
X186151064Y-137166071D01*
X10000000Y-60000000D02*
X12000000Y-60000000D01*
X10000000Y-110000000D02*
X12000000Y-110000000D01*
X10690476Y-35222176D02*
X11309523Y-35222176D01*
X10566666Y-35593604D02*
X10999999Y-34293604D01*
X10999999Y-34293604D02*
X11433333Y-35593604D01*
X11092857Y-84912652D02*
X11278571Y-84974557D01*
X11278571Y-84974557D02*
X11340476Y-85036461D01*
X11340476Y-85036461D02*
X11402380Y-85160271D01*
X11402380Y-85160271D02*
X11402380Y-85345985D01*
X11402380Y-85345985D02*
X11340476Y-85469795D01*
X11340476Y-85469795D02*
X11278571Y-85531700D01*
X11278571Y-85531700D02*
X11154761Y-85593604D01*
X11154761Y-85593604D02*
X10659523Y-85593604D01*
X10659523Y-85593604D02*
X10659523Y-84293604D01*
X10659523Y-84293604D02*
X11092857Y-84293604D01*
X11092857Y-84293604D02*
X11216666Y-84355509D01*
X11216666Y-84355509D02*
X11278571Y-84417414D01*
X11278571Y-84417414D02*
X11340476Y-84541223D01*
X11340476Y-84541223D02*
X11340476Y-84665033D01*
X11340476Y-84665033D02*
X11278571Y-84788842D01*
X11278571Y-84788842D02*
X11216666Y-84850747D01*
X11216666Y-84850747D02*
X11092857Y-84912652D01*
X11092857Y-84912652D02*
X10659523Y-84912652D01*
X11402380Y-135469795D02*
X11340476Y-135531700D01*
X11340476Y-135531700D02*
X11154761Y-135593604D01*
X11154761Y-135593604D02*
X11030952Y-135593604D01*
X11030952Y-135593604D02*
X10845238Y-135531700D01*
X10845238Y-135531700D02*
X10721428Y-135407890D01*
X10721428Y-135407890D02*
X10659523Y-135284080D01*
X10659523Y-135284080D02*
X10597619Y-135036461D01*
X10597619Y-135036461D02*
X10597619Y-134850747D01*
X10597619Y-134850747D02*
X10659523Y-134603128D01*
X10659523Y-134603128D02*
X10721428Y-134479319D01*
X10721428Y-134479319D02*
X10845238Y-134355509D01*
X10845238Y-134355509D02*
X11030952Y-134293604D01*
X11030952Y-134293604D02*
X11154761Y-134293604D01*
X11154761Y-134293604D02*
X11340476Y-134355509D01*
X11340476Y-134355509D02*
X11402380Y-134417414D01*
X200007200Y-60000000D02*
X198007200Y-60000000D01*
X200007200Y-110000000D02*
X198007200Y-110000000D01*
X198697676Y-35222176D02*
X199316723Y-35222176D01*
X198573866Y-35593604D02*
X199007199Y-34293604D01*
X199007199Y-34293604D02*
X199440533Y-35593604D01*
X199100057Y-84912652D02*
X199285771Y-84974557D01*
X199285771Y-84974557D02*
X199347676Y-85036461D01*
X199347676Y-85036461D02*
X199409580Y-85160271D01*
X199409580Y-85160271D02*
X199409580Y-85345985D01*
X199409580Y-85345985D02*
X199347676Y-85469795D01*
X199347676Y-85469795D02*
X199285771Y-85531700D01*
X199285771Y-85531700D02*
X199161961Y-85593604D01*
X199161961Y-85593604D02*
X198666723Y-85593604D01*
X198666723Y-85593604D02*
X198666723Y-84293604D01*
X198666723Y-84293604D02*
X199100057Y-84293604D01*
X199100057Y-84293604D02*
X199223866Y-84355509D01*
X199223866Y-84355509D02*
X199285771Y-84417414D01*
X199285771Y-84417414D02*
X199347676Y-84541223D01*
X199347676Y-84541223D02*
X199347676Y-84665033D01*
X199347676Y-84665033D02*
X199285771Y-84788842D01*
X199285771Y-84788842D02*
X199223866Y-84850747D01*
X199223866Y-84850747D02*
X199100057Y-84912652D01*
X199100057Y-84912652D02*
X198666723Y-84912652D01*
X199409580Y-135469795D02*
X199347676Y-135531700D01*
X199347676Y-135531700D02*
X199161961Y-135593604D01*
X199161961Y-135593604D02*
X199038152Y-135593604D01*
X199038152Y-135593604D02*
X198852438Y-135531700D01*
X198852438Y-135531700D02*
X198728628Y-135407890D01*
X198728628Y-135407890D02*
X198666723Y-135284080D01*
X198666723Y-135284080D02*
X198604819Y-135036461D01*
X198604819Y-135036461D02*
X198604819Y-134850747D01*
X198604819Y-134850747D02*
X198666723Y-134603128D01*
X198666723Y-134603128D02*
X198728628Y-134479319D01*
X198728628Y-134479319D02*
X198852438Y-134355509D01*
X198852438Y-134355509D02*
X199038152Y-134293604D01*
X199038152Y-134293604D02*
X199161961Y-134293604D01*
X199161961Y-134293604D02*
X199347676Y-134355509D01*
X199347676Y-134355509D02*
X199409580Y-134417414D01*
X113463026Y-131791928D02*
X113463026Y-130291928D01*
X113463026Y-130291928D02*
X113820169Y-130291928D01*
X113820169Y-130291928D02*
X114034455Y-130363357D01*
X114034455Y-130363357D02*
X114177312Y-130506214D01*
X114177312Y-130506214D02*
X114248741Y-130649071D01*
X114248741Y-130649071D02*
X114320169Y-130934785D01*
X114320169Y-130934785D02*
X114320169Y-131149071D01*
X114320169Y-131149071D02*
X114248741Y-131434785D01*
X114248741Y-131434785D02*
X114177312Y-131577642D01*
X114177312Y-131577642D02*
X114034455Y-131720500D01*
X114034455Y-131720500D02*
X113820169Y-131791928D01*
X113820169Y-131791928D02*
X113463026Y-131791928D01*
X115605884Y-131791928D02*
X115605884Y-131006214D01*
X115605884Y-131006214D02*
X115534455Y-130863357D01*
X115534455Y-130863357D02*
X115391598Y-130791928D01*
X115391598Y-130791928D02*
X115105884Y-130791928D01*
X115105884Y-130791928D02*
X114963026Y-130863357D01*
X115605884Y-131720500D02*
X115463026Y-131791928D01*
X115463026Y-131791928D02*
X115105884Y-131791928D01*
X115105884Y-131791928D02*
X114963026Y-131720500D01*
X114963026Y-131720500D02*
X114891598Y-131577642D01*
X114891598Y-131577642D02*
X114891598Y-131434785D01*
X114891598Y-131434785D02*
X114963026Y-131291928D01*
X114963026Y-131291928D02*
X115105884Y-131220500D01*
X115105884Y-131220500D02*
X115463026Y-131220500D01*
X115463026Y-131220500D02*
X115605884Y-131149071D01*
X116105884Y-130791928D02*
X116677312Y-130791928D01*
X116320169Y-130291928D02*
X116320169Y-131577642D01*
X116320169Y-131577642D02*
X116391598Y-131720500D01*
X116391598Y-131720500D02*
X116534455Y-131791928D01*
X116534455Y-131791928D02*
X116677312Y-131791928D01*
X117748741Y-131720500D02*
X117605884Y-131791928D01*
X117605884Y-131791928D02*
X117320170Y-131791928D01*
X117320170Y-131791928D02*
X117177312Y-131720500D01*
X117177312Y-131720500D02*
X117105884Y-131577642D01*
X117105884Y-131577642D02*
X117105884Y-131006214D01*
X117105884Y-131006214D02*
X117177312Y-130863357D01*
X117177312Y-130863357D02*
X117320170Y-130791928D01*
X117320170Y-130791928D02*
X117605884Y-130791928D01*
X117605884Y-130791928D02*
X117748741Y-130863357D01*
X117748741Y-130863357D02*
X117820170Y-131006214D01*
X117820170Y-131006214D02*
X117820170Y-131149071D01*
X117820170Y-131149071D02*
X117105884Y-131291928D01*
X118463026Y-131649071D02*
X118534455Y-131720500D01*
X118534455Y-131720500D02*
X118463026Y-131791928D01*
X118463026Y-131791928D02*
X118391598Y-131720500D01*
X118391598Y-131720500D02*
X118463026Y-131649071D01*
X118463026Y-131649071D02*
X118463026Y-131791928D01*
X118463026Y-130863357D02*
X118534455Y-130934785D01*
X118534455Y-130934785D02*
X118463026Y-131006214D01*
X118463026Y-131006214D02*
X118391598Y-130934785D01*
X118391598Y-130934785D02*
X118463026Y-130863357D01*
X118463026Y-130863357D02*
X118463026Y-131006214D01*
X90007200Y-132505800D02*
X198007200Y-132505800D01*
X91463026Y-134591928D02*
X91463026Y-133091928D01*
X92320169Y-134591928D02*
X91677312Y-133734785D01*
X92320169Y-133091928D02*
X91463026Y-133949071D01*
X92963026Y-134591928D02*
X92963026Y-133591928D01*
X92963026Y-133091928D02*
X92891598Y-133163357D01*
X92891598Y-133163357D02*
X92963026Y-133234785D01*
X92963026Y-133234785D02*
X93034455Y-133163357D01*
X93034455Y-133163357D02*
X92963026Y-133091928D01*
X92963026Y-133091928D02*
X92963026Y-133234785D01*
X94534455Y-134449071D02*
X94463027Y-134520500D01*
X94463027Y-134520500D02*
X94248741Y-134591928D01*
X94248741Y-134591928D02*
X94105884Y-134591928D01*
X94105884Y-134591928D02*
X93891598Y-134520500D01*
X93891598Y-134520500D02*
X93748741Y-134377642D01*
X93748741Y-134377642D02*
X93677312Y-134234785D01*
X93677312Y-134234785D02*
X93605884Y-133949071D01*
X93605884Y-133949071D02*
X93605884Y-133734785D01*
X93605884Y-133734785D02*
X93677312Y-133449071D01*
X93677312Y-133449071D02*
X93748741Y-133306214D01*
X93748741Y-133306214D02*
X93891598Y-133163357D01*
X93891598Y-133163357D02*
X94105884Y-133091928D01*
X94105884Y-133091928D02*
X94248741Y-133091928D01*
X94248741Y-133091928D02*
X94463027Y-133163357D01*
X94463027Y-133163357D02*
X94534455Y-133234785D01*
X95820170Y-134591928D02*
X95820170Y-133806214D01*
X95820170Y-133806214D02*
X95748741Y-133663357D01*
X95748741Y-133663357D02*
X95605884Y-133591928D01*
X95605884Y-133591928D02*
X95320170Y-133591928D01*
X95320170Y-133591928D02*
X95177312Y-133663357D01*
X95820170Y-134520500D02*
X95677312Y-134591928D01*
X95677312Y-134591928D02*
X95320170Y-134591928D01*
X95320170Y-134591928D02*
X95177312Y-134520500D01*
X95177312Y-134520500D02*
X95105884Y-134377642D01*
X95105884Y-134377642D02*
X95105884Y-134234785D01*
X95105884Y-134234785D02*
X95177312Y-134091928D01*
X95177312Y-134091928D02*
X95320170Y-134020500D01*
X95320170Y-134020500D02*
X95677312Y-134020500D01*
X95677312Y-134020500D02*
X95820170Y-133949071D01*
X97177313Y-134591928D02*
X97177313Y-133091928D01*
X97177313Y-134520500D02*
X97034455Y-134591928D01*
X97034455Y-134591928D02*
X96748741Y-134591928D01*
X96748741Y-134591928D02*
X96605884Y-134520500D01*
X96605884Y-134520500D02*
X96534455Y-134449071D01*
X96534455Y-134449071D02*
X96463027Y-134306214D01*
X96463027Y-134306214D02*
X96463027Y-133877642D01*
X96463027Y-133877642D02*
X96534455Y-133734785D01*
X96534455Y-133734785D02*
X96605884Y-133663357D01*
X96605884Y-133663357D02*
X96748741Y-133591928D01*
X96748741Y-133591928D02*
X97034455Y-133591928D01*
X97034455Y-133591928D02*
X97177313Y-133663357D01*
X99034455Y-133806214D02*
X99534455Y-133806214D01*
X99748741Y-134591928D02*
X99034455Y-134591928D01*
X99034455Y-134591928D02*
X99034455Y-133091928D01*
X99034455Y-133091928D02*
X99748741Y-133091928D01*
X100391598Y-134449071D02*
X100463027Y-134520500D01*
X100463027Y-134520500D02*
X100391598Y-134591928D01*
X100391598Y-134591928D02*
X100320170Y-134520500D01*
X100320170Y-134520500D02*
X100391598Y-134449071D01*
X100391598Y-134449071D02*
X100391598Y-134591928D01*
X101105884Y-134591928D02*
X101105884Y-133091928D01*
X101105884Y-133091928D02*
X101463027Y-133091928D01*
X101463027Y-133091928D02*
X101677313Y-133163357D01*
X101677313Y-133163357D02*
X101820170Y-133306214D01*
X101820170Y-133306214D02*
X101891599Y-133449071D01*
X101891599Y-133449071D02*
X101963027Y-133734785D01*
X101963027Y-133734785D02*
X101963027Y-133949071D01*
X101963027Y-133949071D02*
X101891599Y-134234785D01*
X101891599Y-134234785D02*
X101820170Y-134377642D01*
X101820170Y-134377642D02*
X101677313Y-134520500D01*
X101677313Y-134520500D02*
X101463027Y-134591928D01*
X101463027Y-134591928D02*
X101105884Y-134591928D01*
X102605884Y-134449071D02*
X102677313Y-134520500D01*
X102677313Y-134520500D02*
X102605884Y-134591928D01*
X102605884Y-134591928D02*
X102534456Y-134520500D01*
X102534456Y-134520500D02*
X102605884Y-134449071D01*
X102605884Y-134449071D02*
X102605884Y-134591928D01*
X103248742Y-134163357D02*
X103963028Y-134163357D01*
X103105885Y-134591928D02*
X103605885Y-133091928D01*
X103605885Y-133091928D02*
X104105885Y-134591928D01*
X104605884Y-134449071D02*
X104677313Y-134520500D01*
X104677313Y-134520500D02*
X104605884Y-134591928D01*
X104605884Y-134591928D02*
X104534456Y-134520500D01*
X104534456Y-134520500D02*
X104605884Y-134449071D01*
X104605884Y-134449071D02*
X104605884Y-134591928D01*
X107248742Y-134591928D02*
X106391599Y-134591928D01*
X106820170Y-134591928D02*
X106820170Y-133091928D01*
X106820170Y-133091928D02*
X106677313Y-133306214D01*
X106677313Y-133306214D02*
X106534456Y-133449071D01*
X106534456Y-133449071D02*
X106391599Y-133520500D01*
X108177313Y-133091928D02*
X108320170Y-133091928D01*
X108320170Y-133091928D02*
X108463027Y-133163357D01*
X108463027Y-133163357D02*
X108534456Y-133234785D01*
X108534456Y-133234785D02*
X108605884Y-133377642D01*
X108605884Y-133377642D02*
X108677313Y-133663357D01*
X108677313Y-133663357D02*
X108677313Y-134020500D01*
X108677313Y-134020500D02*
X108605884Y-134306214D01*
X108605884Y-134306214D02*
X108534456Y-134449071D01*
X108534456Y-134449071D02*
X108463027Y-134520500D01*
X108463027Y-134520500D02*
X108320170Y-134591928D01*
X108320170Y-134591928D02*
X108177313Y-134591928D01*
X108177313Y-134591928D02*
X108034456Y-134520500D01*
X108034456Y-134520500D02*
X107963027Y-134449071D01*
X107963027Y-134449071D02*
X107891598Y-134306214D01*
X107891598Y-134306214D02*
X107820170Y-134020500D01*
X107820170Y-134020500D02*
X107820170Y-133663357D01*
X107820170Y-133663357D02*
X107891598Y-133377642D01*
X107891598Y-133377642D02*
X107963027Y-133234785D01*
X107963027Y-133234785D02*
X108034456Y-133163357D01*
X108034456Y-133163357D02*
X108177313Y-133091928D01*
X109320169Y-134449071D02*
X109391598Y-134520500D01*
X109391598Y-134520500D02*
X109320169Y-134591928D01*
X109320169Y-134591928D02*
X109248741Y-134520500D01*
X109248741Y-134520500D02*
X109320169Y-134449071D01*
X109320169Y-134449071D02*
X109320169Y-134591928D01*
X110320170Y-133091928D02*
X110463027Y-133091928D01*
X110463027Y-133091928D02*
X110605884Y-133163357D01*
X110605884Y-133163357D02*
X110677313Y-133234785D01*
X110677313Y-133234785D02*
X110748741Y-133377642D01*
X110748741Y-133377642D02*
X110820170Y-133663357D01*
X110820170Y-133663357D02*
X110820170Y-134020500D01*
X110820170Y-134020500D02*
X110748741Y-134306214D01*
X110748741Y-134306214D02*
X110677313Y-134449071D01*
X110677313Y-134449071D02*
X110605884Y-134520500D01*
X110605884Y-134520500D02*
X110463027Y-134591928D01*
X110463027Y-134591928D02*
X110320170Y-134591928D01*
X110320170Y-134591928D02*
X110177313Y-134520500D01*
X110177313Y-134520500D02*
X110105884Y-134449071D01*
X110105884Y-134449071D02*
X110034455Y-134306214D01*
X110034455Y-134306214D02*
X109963027Y-134020500D01*
X109963027Y-134020500D02*
X109963027Y-133663357D01*
X109963027Y-133663357D02*
X110034455Y-133377642D01*
X110034455Y-133377642D02*
X110105884Y-133234785D01*
X110105884Y-133234785D02*
X110177313Y-133163357D01*
X110177313Y-133163357D02*
X110320170Y-133091928D01*
X111463026Y-134449071D02*
X111534455Y-134520500D01*
X111534455Y-134520500D02*
X111463026Y-134591928D01*
X111463026Y-134591928D02*
X111391598Y-134520500D01*
X111391598Y-134520500D02*
X111463026Y-134449071D01*
X111463026Y-134449071D02*
X111463026Y-134591928D01*
X112963027Y-134591928D02*
X112105884Y-134591928D01*
X112534455Y-134591928D02*
X112534455Y-133091928D01*
X112534455Y-133091928D02*
X112391598Y-133306214D01*
X112391598Y-133306214D02*
X112248741Y-133449071D01*
X112248741Y-133449071D02*
X112105884Y-133520500D01*
X90007200Y-129505800D02*
X198007200Y-129505800D01*
D11*
X177418853Y-131784128D02*
X176918853Y-131069842D01*
X176561710Y-131784128D02*
X176561710Y-130284128D01*
X176561710Y-130284128D02*
X177133139Y-130284128D01*
X177133139Y-130284128D02*
X177275996Y-130355557D01*
X177275996Y-130355557D02*
X177347425Y-130426985D01*
X177347425Y-130426985D02*
X177418853Y-130569842D01*
X177418853Y-130569842D02*
X177418853Y-130784128D01*
X177418853Y-130784128D02*
X177347425Y-130926985D01*
X177347425Y-130926985D02*
X177275996Y-130998414D01*
X177275996Y-130998414D02*
X177133139Y-131069842D01*
X177133139Y-131069842D02*
X176561710Y-131069842D01*
X178633139Y-131712700D02*
X178490282Y-131784128D01*
X178490282Y-131784128D02*
X178204568Y-131784128D01*
X178204568Y-131784128D02*
X178061710Y-131712700D01*
X178061710Y-131712700D02*
X177990282Y-131569842D01*
X177990282Y-131569842D02*
X177990282Y-130998414D01*
X177990282Y-130998414D02*
X178061710Y-130855557D01*
X178061710Y-130855557D02*
X178204568Y-130784128D01*
X178204568Y-130784128D02*
X178490282Y-130784128D01*
X178490282Y-130784128D02*
X178633139Y-130855557D01*
X178633139Y-130855557D02*
X178704568Y-130998414D01*
X178704568Y-130998414D02*
X178704568Y-131141271D01*
X178704568Y-131141271D02*
X177990282Y-131284128D01*
X179204567Y-130784128D02*
X179561710Y-131784128D01*
X179561710Y-131784128D02*
X179918853Y-130784128D01*
X180490281Y-131641271D02*
X180561710Y-131712700D01*
X180561710Y-131712700D02*
X180490281Y-131784128D01*
X180490281Y-131784128D02*
X180418853Y-131712700D01*
X180418853Y-131712700D02*
X180490281Y-131641271D01*
X180490281Y-131641271D02*
X180490281Y-131784128D01*
X180490281Y-130855557D02*
X180561710Y-130926985D01*
X180561710Y-130926985D02*
X180490281Y-130998414D01*
X180490281Y-130998414D02*
X180418853Y-130926985D01*
X180418853Y-130926985D02*
X180490281Y-130855557D01*
X180490281Y-130855557D02*
X180490281Y-130998414D01*
D10*
X91391598Y-131720500D02*
X91605884Y-131791928D01*
X91605884Y-131791928D02*
X91963026Y-131791928D01*
X91963026Y-131791928D02*
X92105884Y-131720500D01*
X92105884Y-131720500D02*
X92177312Y-131649071D01*
X92177312Y-131649071D02*
X92248741Y-131506214D01*
X92248741Y-131506214D02*
X92248741Y-131363357D01*
X92248741Y-131363357D02*
X92177312Y-131220500D01*
X92177312Y-131220500D02*
X92105884Y-131149071D01*
X92105884Y-131149071D02*
X91963026Y-131077642D01*
X91963026Y-131077642D02*
X91677312Y-131006214D01*
X91677312Y-131006214D02*
X91534455Y-130934785D01*
X91534455Y-130934785D02*
X91463026Y-130863357D01*
X91463026Y-130863357D02*
X91391598Y-130720500D01*
X91391598Y-130720500D02*
X91391598Y-130577642D01*
X91391598Y-130577642D02*
X91463026Y-130434785D01*
X91463026Y-130434785D02*
X91534455Y-130363357D01*
X91534455Y-130363357D02*
X91677312Y-130291928D01*
X91677312Y-130291928D02*
X92034455Y-130291928D01*
X92034455Y-130291928D02*
X92248741Y-130363357D01*
X92891597Y-131791928D02*
X92891597Y-130791928D01*
X92891597Y-130291928D02*
X92820169Y-130363357D01*
X92820169Y-130363357D02*
X92891597Y-130434785D01*
X92891597Y-130434785D02*
X92963026Y-130363357D01*
X92963026Y-130363357D02*
X92891597Y-130291928D01*
X92891597Y-130291928D02*
X92891597Y-130434785D01*
X93463026Y-130791928D02*
X94248741Y-130791928D01*
X94248741Y-130791928D02*
X93463026Y-131791928D01*
X93463026Y-131791928D02*
X94248741Y-131791928D01*
X95391598Y-131720500D02*
X95248741Y-131791928D01*
X95248741Y-131791928D02*
X94963027Y-131791928D01*
X94963027Y-131791928D02*
X94820169Y-131720500D01*
X94820169Y-131720500D02*
X94748741Y-131577642D01*
X94748741Y-131577642D02*
X94748741Y-131006214D01*
X94748741Y-131006214D02*
X94820169Y-130863357D01*
X94820169Y-130863357D02*
X94963027Y-130791928D01*
X94963027Y-130791928D02*
X95248741Y-130791928D01*
X95248741Y-130791928D02*
X95391598Y-130863357D01*
X95391598Y-130863357D02*
X95463027Y-131006214D01*
X95463027Y-131006214D02*
X95463027Y-131149071D01*
X95463027Y-131149071D02*
X94748741Y-131291928D01*
X96105883Y-131649071D02*
X96177312Y-131720500D01*
X96177312Y-131720500D02*
X96105883Y-131791928D01*
X96105883Y-131791928D02*
X96034455Y-131720500D01*
X96034455Y-131720500D02*
X96105883Y-131649071D01*
X96105883Y-131649071D02*
X96105883Y-131791928D01*
X96105883Y-130863357D02*
X96177312Y-130934785D01*
X96177312Y-130934785D02*
X96105883Y-131006214D01*
X96105883Y-131006214D02*
X96034455Y-130934785D01*
X96034455Y-130934785D02*
X96105883Y-130863357D01*
X96105883Y-130863357D02*
X96105883Y-131006214D01*
X97891598Y-131363357D02*
X98605884Y-131363357D01*
X97748741Y-131791928D02*
X98248741Y-130291928D01*
X98248741Y-130291928D02*
X98748741Y-131791928D01*
X99963026Y-130291928D02*
X99248740Y-130291928D01*
X99248740Y-130291928D02*
X99177312Y-131006214D01*
X99177312Y-131006214D02*
X99248740Y-130934785D01*
X99248740Y-130934785D02*
X99391598Y-130863357D01*
X99391598Y-130863357D02*
X99748740Y-130863357D01*
X99748740Y-130863357D02*
X99891598Y-130934785D01*
X99891598Y-130934785D02*
X99963026Y-131006214D01*
X99963026Y-131006214D02*
X100034455Y-131149071D01*
X100034455Y-131149071D02*
X100034455Y-131506214D01*
X100034455Y-131506214D02*
X99963026Y-131649071D01*
X99963026Y-131649071D02*
X99891598Y-131720500D01*
X99891598Y-131720500D02*
X99748740Y-131791928D01*
X99748740Y-131791928D02*
X99391598Y-131791928D01*
X99391598Y-131791928D02*
X99248740Y-131720500D01*
X99248740Y-131720500D02*
X99177312Y-131649071D01*
X176463026Y-134591928D02*
X176463026Y-133091928D01*
X177820170Y-134591928D02*
X177820170Y-133091928D01*
X177820170Y-134520500D02*
X177677312Y-134591928D01*
X177677312Y-134591928D02*
X177391598Y-134591928D01*
X177391598Y-134591928D02*
X177248741Y-134520500D01*
X177248741Y-134520500D02*
X177177312Y-134449071D01*
X177177312Y-134449071D02*
X177105884Y-134306214D01*
X177105884Y-134306214D02*
X177105884Y-133877642D01*
X177105884Y-133877642D02*
X177177312Y-133734785D01*
X177177312Y-133734785D02*
X177248741Y-133663357D01*
X177248741Y-133663357D02*
X177391598Y-133591928D01*
X177391598Y-133591928D02*
X177677312Y-133591928D01*
X177677312Y-133591928D02*
X177820170Y-133663357D01*
X178534455Y-134449071D02*
X178605884Y-134520500D01*
X178605884Y-134520500D02*
X178534455Y-134591928D01*
X178534455Y-134591928D02*
X178463027Y-134520500D01*
X178463027Y-134520500D02*
X178534455Y-134449071D01*
X178534455Y-134449071D02*
X178534455Y-134591928D01*
X178534455Y-133663357D02*
X178605884Y-133734785D01*
X178605884Y-133734785D02*
X178534455Y-133806214D01*
X178534455Y-133806214D02*
X178463027Y-133734785D01*
X178463027Y-133734785D02*
X178534455Y-133663357D01*
X178534455Y-133663357D02*
X178534455Y-133806214D01*
X180248741Y-133091928D02*
X181248741Y-133091928D01*
X181248741Y-133091928D02*
X180605884Y-134591928D01*
X182891598Y-133020500D02*
X181605884Y-134949071D01*
X183605884Y-133734785D02*
X183463027Y-133663357D01*
X183463027Y-133663357D02*
X183391598Y-133591928D01*
X183391598Y-133591928D02*
X183320170Y-133449071D01*
X183320170Y-133449071D02*
X183320170Y-133377642D01*
X183320170Y-133377642D02*
X183391598Y-133234785D01*
X183391598Y-133234785D02*
X183463027Y-133163357D01*
X183463027Y-133163357D02*
X183605884Y-133091928D01*
X183605884Y-133091928D02*
X183891598Y-133091928D01*
X183891598Y-133091928D02*
X184034456Y-133163357D01*
X184034456Y-133163357D02*
X184105884Y-133234785D01*
X184105884Y-133234785D02*
X184177313Y-133377642D01*
X184177313Y-133377642D02*
X184177313Y-133449071D01*
X184177313Y-133449071D02*
X184105884Y-133591928D01*
X184105884Y-133591928D02*
X184034456Y-133663357D01*
X184034456Y-133663357D02*
X183891598Y-133734785D01*
X183891598Y-133734785D02*
X183605884Y-133734785D01*
X183605884Y-133734785D02*
X183463027Y-133806214D01*
X183463027Y-133806214D02*
X183391598Y-133877642D01*
X183391598Y-133877642D02*
X183320170Y-134020500D01*
X183320170Y-134020500D02*
X183320170Y-134306214D01*
X183320170Y-134306214D02*
X183391598Y-134449071D01*
X183391598Y-134449071D02*
X183463027Y-134520500D01*
X183463027Y-134520500D02*
X183605884Y-134591928D01*
X183605884Y-134591928D02*
X183891598Y-134591928D01*
X183891598Y-134591928D02*
X184034456Y-134520500D01*
X184034456Y-134520500D02*
X184105884Y-134449071D01*
X184105884Y-134449071D02*
X184177313Y-134306214D01*
X184177313Y-134306214D02*
X184177313Y-134020500D01*
X184177313Y-134020500D02*
X184105884Y-133877642D01*
X184105884Y-133877642D02*
X184034456Y-133806214D01*
X184034456Y-133806214D02*
X183891598Y-133734785D01*
X90007200Y-125505800D02*
X198007200Y-125505800D01*
D12*
X91698928Y-126210238D02*
X92841785Y-126210238D01*
X92020357Y-128210238D02*
X92270357Y-126210238D01*
X93258452Y-128210238D02*
X93425119Y-126876904D01*
X93508452Y-126210238D02*
X93401309Y-126305476D01*
X93401309Y-126305476D02*
X93484643Y-126400714D01*
X93484643Y-126400714D02*
X93591786Y-126305476D01*
X93591786Y-126305476D02*
X93508452Y-126210238D01*
X93508452Y-126210238D02*
X93484643Y-126400714D01*
X94091786Y-126876904D02*
X94853690Y-126876904D01*
X94460833Y-126210238D02*
X94246548Y-127924523D01*
X94246548Y-127924523D02*
X94317976Y-128115000D01*
X94317976Y-128115000D02*
X94496548Y-128210238D01*
X94496548Y-128210238D02*
X94687024Y-128210238D01*
X95639405Y-128210238D02*
X95460833Y-128115000D01*
X95460833Y-128115000D02*
X95389405Y-127924523D01*
X95389405Y-127924523D02*
X95603690Y-126210238D01*
X97175119Y-128115000D02*
X96972738Y-128210238D01*
X96972738Y-128210238D02*
X96591785Y-128210238D01*
X96591785Y-128210238D02*
X96413214Y-128115000D01*
X96413214Y-128115000D02*
X96341785Y-127924523D01*
X96341785Y-127924523D02*
X96437024Y-127162619D01*
X96437024Y-127162619D02*
X96556071Y-126972142D01*
X96556071Y-126972142D02*
X96758452Y-126876904D01*
X96758452Y-126876904D02*
X97139404Y-126876904D01*
X97139404Y-126876904D02*
X97317976Y-126972142D01*
X97317976Y-126972142D02*
X97389404Y-127162619D01*
X97389404Y-127162619D02*
X97365595Y-127353095D01*
X97365595Y-127353095D02*
X96389404Y-127543571D01*
X98139405Y-128019761D02*
X98222738Y-128115000D01*
X98222738Y-128115000D02*
X98115595Y-128210238D01*
X98115595Y-128210238D02*
X98032262Y-128115000D01*
X98032262Y-128115000D02*
X98139405Y-128019761D01*
X98139405Y-128019761D02*
X98115595Y-128210238D01*
X98270357Y-126972142D02*
X98353690Y-127067380D01*
X98353690Y-127067380D02*
X98246548Y-127162619D01*
X98246548Y-127162619D02*
X98163214Y-127067380D01*
X98163214Y-127067380D02*
X98270357Y-126972142D01*
X98270357Y-126972142D02*
X98246548Y-127162619D01*
X100591786Y-128210238D02*
X100841786Y-126210238D01*
X100722739Y-127162619D02*
X101865596Y-127162619D01*
X101734643Y-128210238D02*
X101984643Y-126210238D01*
X102972739Y-128210238D02*
X102794167Y-128115000D01*
X102794167Y-128115000D02*
X102710834Y-128019761D01*
X102710834Y-128019761D02*
X102639405Y-127829285D01*
X102639405Y-127829285D02*
X102710834Y-127257857D01*
X102710834Y-127257857D02*
X102829881Y-127067380D01*
X102829881Y-127067380D02*
X102937024Y-126972142D01*
X102937024Y-126972142D02*
X103139405Y-126876904D01*
X103139405Y-126876904D02*
X103425119Y-126876904D01*
X103425119Y-126876904D02*
X103603691Y-126972142D01*
X103603691Y-126972142D02*
X103687024Y-127067380D01*
X103687024Y-127067380D02*
X103758453Y-127257857D01*
X103758453Y-127257857D02*
X103687024Y-127829285D01*
X103687024Y-127829285D02*
X103567977Y-128019761D01*
X103567977Y-128019761D02*
X103460834Y-128115000D01*
X103460834Y-128115000D02*
X103258453Y-128210238D01*
X103258453Y-128210238D02*
X102972739Y-128210238D01*
X104782263Y-128210238D02*
X104603691Y-128115000D01*
X104603691Y-128115000D02*
X104532263Y-127924523D01*
X104532263Y-127924523D02*
X104746548Y-126210238D01*
X105520358Y-126876904D02*
X105829882Y-128210238D01*
X106472739Y-126876904D02*
X105829882Y-128210238D01*
X105829882Y-128210238D02*
X105579882Y-128686428D01*
X105579882Y-128686428D02*
X105472739Y-128781666D01*
X105472739Y-128781666D02*
X105270358Y-128876904D01*
X109877502Y-126305476D02*
X109698930Y-126210238D01*
X109698930Y-126210238D02*
X109413216Y-126210238D01*
X109413216Y-126210238D02*
X109115597Y-126305476D01*
X109115597Y-126305476D02*
X108901311Y-126495952D01*
X108901311Y-126495952D02*
X108782263Y-126686428D01*
X108782263Y-126686428D02*
X108639406Y-127067380D01*
X108639406Y-127067380D02*
X108603692Y-127353095D01*
X108603692Y-127353095D02*
X108651311Y-127734047D01*
X108651311Y-127734047D02*
X108722740Y-127924523D01*
X108722740Y-127924523D02*
X108889406Y-128115000D01*
X108889406Y-128115000D02*
X109163216Y-128210238D01*
X109163216Y-128210238D02*
X109353692Y-128210238D01*
X109353692Y-128210238D02*
X109651311Y-128115000D01*
X109651311Y-128115000D02*
X109758454Y-128019761D01*
X109758454Y-128019761D02*
X109841787Y-127353095D01*
X109841787Y-127353095D02*
X109460835Y-127353095D01*
X110591787Y-128210238D02*
X110758454Y-126876904D01*
X110710835Y-127257857D02*
X110829882Y-127067380D01*
X110829882Y-127067380D02*
X110937025Y-126972142D01*
X110937025Y-126972142D02*
X111139406Y-126876904D01*
X111139406Y-126876904D02*
X111329882Y-126876904D01*
X112687025Y-128210238D02*
X112817977Y-127162619D01*
X112817977Y-127162619D02*
X112746549Y-126972142D01*
X112746549Y-126972142D02*
X112567977Y-126876904D01*
X112567977Y-126876904D02*
X112187025Y-126876904D01*
X112187025Y-126876904D02*
X111984644Y-126972142D01*
X112698930Y-128115000D02*
X112496549Y-128210238D01*
X112496549Y-128210238D02*
X112020358Y-128210238D01*
X112020358Y-128210238D02*
X111841787Y-128115000D01*
X111841787Y-128115000D02*
X111770358Y-127924523D01*
X111770358Y-127924523D02*
X111794168Y-127734047D01*
X111794168Y-127734047D02*
X111913216Y-127543571D01*
X111913216Y-127543571D02*
X112115597Y-127448333D01*
X112115597Y-127448333D02*
X112591787Y-127448333D01*
X112591787Y-127448333D02*
X112794168Y-127353095D01*
X113639406Y-128210238D02*
X113806073Y-126876904D01*
X113889406Y-126210238D02*
X113782263Y-126305476D01*
X113782263Y-126305476D02*
X113865597Y-126400714D01*
X113865597Y-126400714D02*
X113972740Y-126305476D01*
X113972740Y-126305476D02*
X113889406Y-126210238D01*
X113889406Y-126210238D02*
X113865597Y-126400714D01*
X114877502Y-128210238D02*
X114698930Y-128115000D01*
X114698930Y-128115000D02*
X114627502Y-127924523D01*
X114627502Y-127924523D02*
X114841787Y-126210238D01*
D10*
X91963026Y-123606214D02*
X91463026Y-123606214D01*
X91463026Y-124391928D02*
X91463026Y-122891928D01*
X91463026Y-122891928D02*
X92177312Y-122891928D01*
X92748740Y-124391928D02*
X92748740Y-123391928D01*
X92748740Y-122891928D02*
X92677312Y-122963357D01*
X92677312Y-122963357D02*
X92748740Y-123034785D01*
X92748740Y-123034785D02*
X92820169Y-122963357D01*
X92820169Y-122963357D02*
X92748740Y-122891928D01*
X92748740Y-122891928D02*
X92748740Y-123034785D01*
X93677312Y-124391928D02*
X93534455Y-124320500D01*
X93534455Y-124320500D02*
X93463026Y-124177642D01*
X93463026Y-124177642D02*
X93463026Y-122891928D01*
X94820169Y-124320500D02*
X94677312Y-124391928D01*
X94677312Y-124391928D02*
X94391598Y-124391928D01*
X94391598Y-124391928D02*
X94248740Y-124320500D01*
X94248740Y-124320500D02*
X94177312Y-124177642D01*
X94177312Y-124177642D02*
X94177312Y-123606214D01*
X94177312Y-123606214D02*
X94248740Y-123463357D01*
X94248740Y-123463357D02*
X94391598Y-123391928D01*
X94391598Y-123391928D02*
X94677312Y-123391928D01*
X94677312Y-123391928D02*
X94820169Y-123463357D01*
X94820169Y-123463357D02*
X94891598Y-123606214D01*
X94891598Y-123606214D02*
X94891598Y-123749071D01*
X94891598Y-123749071D02*
X94177312Y-123891928D01*
X95534454Y-124249071D02*
X95605883Y-124320500D01*
X95605883Y-124320500D02*
X95534454Y-124391928D01*
X95534454Y-124391928D02*
X95463026Y-124320500D01*
X95463026Y-124320500D02*
X95534454Y-124249071D01*
X95534454Y-124249071D02*
X95534454Y-124391928D01*
X95534454Y-123463357D02*
X95605883Y-123534785D01*
X95605883Y-123534785D02*
X95534454Y-123606214D01*
X95534454Y-123606214D02*
X95463026Y-123534785D01*
X95463026Y-123534785D02*
X95534454Y-123463357D01*
X95534454Y-123463357D02*
X95534454Y-123606214D01*
X97391597Y-124391928D02*
X97391597Y-122891928D01*
X97391597Y-122891928D02*
X97748740Y-122891928D01*
X97748740Y-122891928D02*
X97963026Y-122963357D01*
X97963026Y-122963357D02*
X98105883Y-123106214D01*
X98105883Y-123106214D02*
X98177312Y-123249071D01*
X98177312Y-123249071D02*
X98248740Y-123534785D01*
X98248740Y-123534785D02*
X98248740Y-123749071D01*
X98248740Y-123749071D02*
X98177312Y-124034785D01*
X98177312Y-124034785D02*
X98105883Y-124177642D01*
X98105883Y-124177642D02*
X97963026Y-124320500D01*
X97963026Y-124320500D02*
X97748740Y-124391928D01*
X97748740Y-124391928D02*
X97391597Y-124391928D01*
X99534455Y-124391928D02*
X99534455Y-123606214D01*
X99534455Y-123606214D02*
X99463026Y-123463357D01*
X99463026Y-123463357D02*
X99320169Y-123391928D01*
X99320169Y-123391928D02*
X99034455Y-123391928D01*
X99034455Y-123391928D02*
X98891597Y-123463357D01*
X99534455Y-124320500D02*
X99391597Y-124391928D01*
X99391597Y-124391928D02*
X99034455Y-124391928D01*
X99034455Y-124391928D02*
X98891597Y-124320500D01*
X98891597Y-124320500D02*
X98820169Y-124177642D01*
X98820169Y-124177642D02*
X98820169Y-124034785D01*
X98820169Y-124034785D02*
X98891597Y-123891928D01*
X98891597Y-123891928D02*
X99034455Y-123820500D01*
X99034455Y-123820500D02*
X99391597Y-123820500D01*
X99391597Y-123820500D02*
X99534455Y-123749071D01*
X100248740Y-124391928D02*
X100248740Y-123391928D01*
X100248740Y-123677642D02*
X100320169Y-123534785D01*
X100320169Y-123534785D02*
X100391598Y-123463357D01*
X100391598Y-123463357D02*
X100534455Y-123391928D01*
X100534455Y-123391928D02*
X100677312Y-123391928D01*
X101177311Y-124391928D02*
X101177311Y-122891928D01*
X101320169Y-123820500D02*
X101748740Y-124391928D01*
X101748740Y-123391928D02*
X101177311Y-123963357D01*
X102391597Y-124391928D02*
X102391597Y-122891928D01*
X102391597Y-122891928D02*
X102891597Y-123963357D01*
X102891597Y-123963357D02*
X103391597Y-122891928D01*
X103391597Y-122891928D02*
X103391597Y-124391928D01*
X104748741Y-124391928D02*
X104748741Y-123606214D01*
X104748741Y-123606214D02*
X104677312Y-123463357D01*
X104677312Y-123463357D02*
X104534455Y-123391928D01*
X104534455Y-123391928D02*
X104248741Y-123391928D01*
X104248741Y-123391928D02*
X104105883Y-123463357D01*
X104748741Y-124320500D02*
X104605883Y-124391928D01*
X104605883Y-124391928D02*
X104248741Y-124391928D01*
X104248741Y-124391928D02*
X104105883Y-124320500D01*
X104105883Y-124320500D02*
X104034455Y-124177642D01*
X104034455Y-124177642D02*
X104034455Y-124034785D01*
X104034455Y-124034785D02*
X104105883Y-123891928D01*
X104105883Y-123891928D02*
X104248741Y-123820500D01*
X104248741Y-123820500D02*
X104605883Y-123820500D01*
X104605883Y-123820500D02*
X104748741Y-123749071D01*
X106105884Y-123391928D02*
X106105884Y-124606214D01*
X106105884Y-124606214D02*
X106034455Y-124749071D01*
X106034455Y-124749071D02*
X105963026Y-124820500D01*
X105963026Y-124820500D02*
X105820169Y-124891928D01*
X105820169Y-124891928D02*
X105605884Y-124891928D01*
X105605884Y-124891928D02*
X105463026Y-124820500D01*
X106105884Y-124320500D02*
X105963026Y-124391928D01*
X105963026Y-124391928D02*
X105677312Y-124391928D01*
X105677312Y-124391928D02*
X105534455Y-124320500D01*
X105534455Y-124320500D02*
X105463026Y-124249071D01*
X105463026Y-124249071D02*
X105391598Y-124106214D01*
X105391598Y-124106214D02*
X105391598Y-123677642D01*
X105391598Y-123677642D02*
X105463026Y-123534785D01*
X105463026Y-123534785D02*
X105534455Y-123463357D01*
X105534455Y-123463357D02*
X105677312Y-123391928D01*
X105677312Y-123391928D02*
X105963026Y-123391928D01*
X105963026Y-123391928D02*
X106105884Y-123463357D01*
X106820169Y-124391928D02*
X106820169Y-123391928D01*
X106820169Y-122891928D02*
X106748741Y-122963357D01*
X106748741Y-122963357D02*
X106820169Y-123034785D01*
X106820169Y-123034785D02*
X106891598Y-122963357D01*
X106891598Y-122963357D02*
X106820169Y-122891928D01*
X106820169Y-122891928D02*
X106820169Y-123034785D01*
X108177313Y-124320500D02*
X108034455Y-124391928D01*
X108034455Y-124391928D02*
X107748741Y-124391928D01*
X107748741Y-124391928D02*
X107605884Y-124320500D01*
X107605884Y-124320500D02*
X107534455Y-124249071D01*
X107534455Y-124249071D02*
X107463027Y-124106214D01*
X107463027Y-124106214D02*
X107463027Y-123677642D01*
X107463027Y-123677642D02*
X107534455Y-123534785D01*
X107534455Y-123534785D02*
X107605884Y-123463357D01*
X107605884Y-123463357D02*
X107748741Y-123391928D01*
X107748741Y-123391928D02*
X108034455Y-123391928D01*
X108034455Y-123391928D02*
X108177313Y-123463357D01*
X108820169Y-124249071D02*
X108891598Y-124320500D01*
X108891598Y-124320500D02*
X108820169Y-124391928D01*
X108820169Y-124391928D02*
X108748741Y-124320500D01*
X108748741Y-124320500D02*
X108820169Y-124249071D01*
X108820169Y-124249071D02*
X108820169Y-124391928D01*
X109534455Y-124391928D02*
X109534455Y-122891928D01*
X109677313Y-123820500D02*
X110105884Y-124391928D01*
X110105884Y-123391928D02*
X109534455Y-123963357D01*
X110748741Y-124391928D02*
X110748741Y-123391928D01*
X110748741Y-122891928D02*
X110677313Y-122963357D01*
X110677313Y-122963357D02*
X110748741Y-123034785D01*
X110748741Y-123034785D02*
X110820170Y-122963357D01*
X110820170Y-122963357D02*
X110748741Y-122891928D01*
X110748741Y-122891928D02*
X110748741Y-123034785D01*
X112105885Y-124320500D02*
X111963027Y-124391928D01*
X111963027Y-124391928D02*
X111677313Y-124391928D01*
X111677313Y-124391928D02*
X111534456Y-124320500D01*
X111534456Y-124320500D02*
X111463027Y-124249071D01*
X111463027Y-124249071D02*
X111391599Y-124106214D01*
X111391599Y-124106214D02*
X111391599Y-123677642D01*
X111391599Y-123677642D02*
X111463027Y-123534785D01*
X111463027Y-123534785D02*
X111534456Y-123463357D01*
X111534456Y-123463357D02*
X111677313Y-123391928D01*
X111677313Y-123391928D02*
X111963027Y-123391928D01*
X111963027Y-123391928D02*
X112105885Y-123463357D01*
X113391599Y-124391928D02*
X113391599Y-123606214D01*
X113391599Y-123606214D02*
X113320170Y-123463357D01*
X113320170Y-123463357D02*
X113177313Y-123391928D01*
X113177313Y-123391928D02*
X112891599Y-123391928D01*
X112891599Y-123391928D02*
X112748741Y-123463357D01*
X113391599Y-124320500D02*
X113248741Y-124391928D01*
X113248741Y-124391928D02*
X112891599Y-124391928D01*
X112891599Y-124391928D02*
X112748741Y-124320500D01*
X112748741Y-124320500D02*
X112677313Y-124177642D01*
X112677313Y-124177642D02*
X112677313Y-124034785D01*
X112677313Y-124034785D02*
X112748741Y-123891928D01*
X112748741Y-123891928D02*
X112891599Y-123820500D01*
X112891599Y-123820500D02*
X113248741Y-123820500D01*
X113248741Y-123820500D02*
X113391599Y-123749071D01*
X114748742Y-124391928D02*
X114748742Y-122891928D01*
X114748742Y-124320500D02*
X114605884Y-124391928D01*
X114605884Y-124391928D02*
X114320170Y-124391928D01*
X114320170Y-124391928D02*
X114177313Y-124320500D01*
X114177313Y-124320500D02*
X114105884Y-124249071D01*
X114105884Y-124249071D02*
X114034456Y-124106214D01*
X114034456Y-124106214D02*
X114034456Y-123677642D01*
X114034456Y-123677642D02*
X114105884Y-123534785D01*
X114105884Y-123534785D02*
X114177313Y-123463357D01*
X114177313Y-123463357D02*
X114320170Y-123391928D01*
X114320170Y-123391928D02*
X114605884Y-123391928D01*
X114605884Y-123391928D02*
X114748742Y-123463357D01*
X115105885Y-124534785D02*
X116248742Y-124534785D01*
X116605884Y-123391928D02*
X116605884Y-124891928D01*
X116605884Y-123463357D02*
X116748742Y-123391928D01*
X116748742Y-123391928D02*
X117034456Y-123391928D01*
X117034456Y-123391928D02*
X117177313Y-123463357D01*
X117177313Y-123463357D02*
X117248742Y-123534785D01*
X117248742Y-123534785D02*
X117320170Y-123677642D01*
X117320170Y-123677642D02*
X117320170Y-124106214D01*
X117320170Y-124106214D02*
X117248742Y-124249071D01*
X117248742Y-124249071D02*
X117177313Y-124320500D01*
X117177313Y-124320500D02*
X117034456Y-124391928D01*
X117034456Y-124391928D02*
X116748742Y-124391928D01*
X116748742Y-124391928D02*
X116605884Y-124320500D01*
X118605885Y-124320500D02*
X118463027Y-124391928D01*
X118463027Y-124391928D02*
X118177313Y-124391928D01*
X118177313Y-124391928D02*
X118034456Y-124320500D01*
X118034456Y-124320500D02*
X117963027Y-124249071D01*
X117963027Y-124249071D02*
X117891599Y-124106214D01*
X117891599Y-124106214D02*
X117891599Y-123677642D01*
X117891599Y-123677642D02*
X117963027Y-123534785D01*
X117963027Y-123534785D02*
X118034456Y-123463357D01*
X118034456Y-123463357D02*
X118177313Y-123391928D01*
X118177313Y-123391928D02*
X118463027Y-123391928D01*
X118463027Y-123391928D02*
X118605885Y-123463357D01*
X119248741Y-124391928D02*
X119248741Y-122891928D01*
X119248741Y-123463357D02*
X119391599Y-123391928D01*
X119391599Y-123391928D02*
X119677313Y-123391928D01*
X119677313Y-123391928D02*
X119820170Y-123463357D01*
X119820170Y-123463357D02*
X119891599Y-123534785D01*
X119891599Y-123534785D02*
X119963027Y-123677642D01*
X119963027Y-123677642D02*
X119963027Y-124106214D01*
X119963027Y-124106214D02*
X119891599Y-124249071D01*
X119891599Y-124249071D02*
X119820170Y-124320500D01*
X119820170Y-124320500D02*
X119677313Y-124391928D01*
X119677313Y-124391928D02*
X119391599Y-124391928D01*
X119391599Y-124391928D02*
X119248741Y-124320500D01*
X90007200Y-119505800D02*
X198007200Y-119505800D01*
X91391598Y-121620500D02*
X91605884Y-121691928D01*
X91605884Y-121691928D02*
X91963026Y-121691928D01*
X91963026Y-121691928D02*
X92105884Y-121620500D01*
X92105884Y-121620500D02*
X92177312Y-121549071D01*
X92177312Y-121549071D02*
X92248741Y-121406214D01*
X92248741Y-121406214D02*
X92248741Y-121263357D01*
X92248741Y-121263357D02*
X92177312Y-121120500D01*
X92177312Y-121120500D02*
X92105884Y-121049071D01*
X92105884Y-121049071D02*
X91963026Y-120977642D01*
X91963026Y-120977642D02*
X91677312Y-120906214D01*
X91677312Y-120906214D02*
X91534455Y-120834785D01*
X91534455Y-120834785D02*
X91463026Y-120763357D01*
X91463026Y-120763357D02*
X91391598Y-120620500D01*
X91391598Y-120620500D02*
X91391598Y-120477642D01*
X91391598Y-120477642D02*
X91463026Y-120334785D01*
X91463026Y-120334785D02*
X91534455Y-120263357D01*
X91534455Y-120263357D02*
X91677312Y-120191928D01*
X91677312Y-120191928D02*
X92034455Y-120191928D01*
X92034455Y-120191928D02*
X92248741Y-120263357D01*
X92891597Y-121691928D02*
X92891597Y-120191928D01*
X93534455Y-121691928D02*
X93534455Y-120906214D01*
X93534455Y-120906214D02*
X93463026Y-120763357D01*
X93463026Y-120763357D02*
X93320169Y-120691928D01*
X93320169Y-120691928D02*
X93105883Y-120691928D01*
X93105883Y-120691928D02*
X92963026Y-120763357D01*
X92963026Y-120763357D02*
X92891597Y-120834785D01*
X94820169Y-121620500D02*
X94677312Y-121691928D01*
X94677312Y-121691928D02*
X94391598Y-121691928D01*
X94391598Y-121691928D02*
X94248740Y-121620500D01*
X94248740Y-121620500D02*
X94177312Y-121477642D01*
X94177312Y-121477642D02*
X94177312Y-120906214D01*
X94177312Y-120906214D02*
X94248740Y-120763357D01*
X94248740Y-120763357D02*
X94391598Y-120691928D01*
X94391598Y-120691928D02*
X94677312Y-120691928D01*
X94677312Y-120691928D02*
X94820169Y-120763357D01*
X94820169Y-120763357D02*
X94891598Y-120906214D01*
X94891598Y-120906214D02*
X94891598Y-121049071D01*
X94891598Y-121049071D02*
X94177312Y-121191928D01*
X96105883Y-121620500D02*
X95963026Y-121691928D01*
X95963026Y-121691928D02*
X95677312Y-121691928D01*
X95677312Y-121691928D02*
X95534454Y-121620500D01*
X95534454Y-121620500D02*
X95463026Y-121477642D01*
X95463026Y-121477642D02*
X95463026Y-120906214D01*
X95463026Y-120906214D02*
X95534454Y-120763357D01*
X95534454Y-120763357D02*
X95677312Y-120691928D01*
X95677312Y-120691928D02*
X95963026Y-120691928D01*
X95963026Y-120691928D02*
X96105883Y-120763357D01*
X96105883Y-120763357D02*
X96177312Y-120906214D01*
X96177312Y-120906214D02*
X96177312Y-121049071D01*
X96177312Y-121049071D02*
X95463026Y-121191928D01*
X96605883Y-120691928D02*
X97177311Y-120691928D01*
X96820168Y-120191928D02*
X96820168Y-121477642D01*
X96820168Y-121477642D02*
X96891597Y-121620500D01*
X96891597Y-121620500D02*
X97034454Y-121691928D01*
X97034454Y-121691928D02*
X97177311Y-121691928D01*
X97677311Y-121549071D02*
X97748740Y-121620500D01*
X97748740Y-121620500D02*
X97677311Y-121691928D01*
X97677311Y-121691928D02*
X97605883Y-121620500D01*
X97605883Y-121620500D02*
X97677311Y-121549071D01*
X97677311Y-121549071D02*
X97677311Y-121691928D01*
X97677311Y-120763357D02*
X97748740Y-120834785D01*
X97748740Y-120834785D02*
X97677311Y-120906214D01*
X97677311Y-120906214D02*
X97605883Y-120834785D01*
X97605883Y-120834785D02*
X97677311Y-120763357D01*
X97677311Y-120763357D02*
X97677311Y-120906214D01*
D11*
X91347425Y-117184128D02*
X92204568Y-117184128D01*
X91775996Y-118684128D02*
X91775996Y-117184128D01*
X92704567Y-117898414D02*
X93204567Y-117898414D01*
X93418853Y-118684128D02*
X92704567Y-118684128D01*
X92704567Y-118684128D02*
X92704567Y-117184128D01*
X92704567Y-117184128D02*
X93418853Y-117184128D01*
X93990282Y-118255557D02*
X94704568Y-118255557D01*
X93847425Y-118684128D02*
X94347425Y-117184128D01*
X94347425Y-117184128D02*
X94847425Y-118684128D01*
X96275996Y-117969842D02*
X96204567Y-117898414D01*
X96204567Y-117898414D02*
X96061710Y-117826985D01*
X96061710Y-117826985D02*
X95918853Y-117826985D01*
X95918853Y-117826985D02*
X95775996Y-117898414D01*
X95775996Y-117898414D02*
X95704567Y-117969842D01*
X95704567Y-117969842D02*
X95633139Y-118112700D01*
X95633139Y-118112700D02*
X95633139Y-118255557D01*
X95633139Y-118255557D02*
X95704567Y-118398414D01*
X95704567Y-118398414D02*
X95775996Y-118469842D01*
X95775996Y-118469842D02*
X95918853Y-118541271D01*
X95918853Y-118541271D02*
X96061710Y-118541271D01*
X96061710Y-118541271D02*
X96204567Y-118469842D01*
X96204567Y-118469842D02*
X96275996Y-118398414D01*
X96275996Y-117826985D02*
X96275996Y-118398414D01*
X96275996Y-118398414D02*
X96347424Y-118469842D01*
X96347424Y-118469842D02*
X96418853Y-118469842D01*
X96418853Y-118469842D02*
X96561710Y-118398414D01*
X96561710Y-118398414D02*
X96633139Y-118255557D01*
X96633139Y-118255557D02*
X96633139Y-117898414D01*
X96633139Y-117898414D02*
X96490282Y-117684128D01*
X96490282Y-117684128D02*
X96275996Y-117541271D01*
X96275996Y-117541271D02*
X95990282Y-117469842D01*
X95990282Y-117469842D02*
X95704567Y-117541271D01*
X95704567Y-117541271D02*
X95490282Y-117684128D01*
X95490282Y-117684128D02*
X95347424Y-117898414D01*
X95347424Y-117898414D02*
X95275996Y-118184128D01*
X95275996Y-118184128D02*
X95347424Y-118469842D01*
X95347424Y-118469842D02*
X95490282Y-118684128D01*
X95490282Y-118684128D02*
X95704567Y-118826985D01*
X95704567Y-118826985D02*
X95990282Y-118898414D01*
X95990282Y-118898414D02*
X96275996Y-118826985D01*
X96275996Y-118826985D02*
X96490282Y-118684128D01*
X98133138Y-118541271D02*
X98061710Y-118612700D01*
X98061710Y-118612700D02*
X97847424Y-118684128D01*
X97847424Y-118684128D02*
X97704567Y-118684128D01*
X97704567Y-118684128D02*
X97490281Y-118612700D01*
X97490281Y-118612700D02*
X97347424Y-118469842D01*
X97347424Y-118469842D02*
X97275995Y-118326985D01*
X97275995Y-118326985D02*
X97204567Y-118041271D01*
X97204567Y-118041271D02*
X97204567Y-117826985D01*
X97204567Y-117826985D02*
X97275995Y-117541271D01*
X97275995Y-117541271D02*
X97347424Y-117398414D01*
X97347424Y-117398414D02*
X97490281Y-117255557D01*
X97490281Y-117255557D02*
X97704567Y-117184128D01*
X97704567Y-117184128D02*
X97847424Y-117184128D01*
X97847424Y-117184128D02*
X98061710Y-117255557D01*
X98061710Y-117255557D02*
X98133138Y-117326985D01*
X98775995Y-118684128D02*
X98775995Y-117184128D01*
X98775995Y-117184128D02*
X99347424Y-117184128D01*
X99347424Y-117184128D02*
X99490281Y-117255557D01*
X99490281Y-117255557D02*
X99561710Y-117326985D01*
X99561710Y-117326985D02*
X99633138Y-117469842D01*
X99633138Y-117469842D02*
X99633138Y-117684128D01*
X99633138Y-117684128D02*
X99561710Y-117826985D01*
X99561710Y-117826985D02*
X99490281Y-117898414D01*
X99490281Y-117898414D02*
X99347424Y-117969842D01*
X99347424Y-117969842D02*
X98775995Y-117969842D01*
X100275995Y-118684128D02*
X100275995Y-117184128D01*
X100275995Y-117184128D02*
X100847424Y-117184128D01*
X100847424Y-117184128D02*
X100990281Y-117255557D01*
X100990281Y-117255557D02*
X101061710Y-117326985D01*
X101061710Y-117326985D02*
X101133138Y-117469842D01*
X101133138Y-117469842D02*
X101133138Y-117684128D01*
X101133138Y-117684128D02*
X101061710Y-117826985D01*
X101061710Y-117826985D02*
X100990281Y-117898414D01*
X100990281Y-117898414D02*
X100847424Y-117969842D01*
X100847424Y-117969842D02*
X100275995Y-117969842D01*
X102918852Y-117898414D02*
X103418852Y-117898414D01*
X103633138Y-118684128D02*
X102918852Y-118684128D01*
X102918852Y-118684128D02*
X102918852Y-117184128D01*
X102918852Y-117184128D02*
X103633138Y-117184128D01*
X104204567Y-118612700D02*
X104347424Y-118684128D01*
X104347424Y-118684128D02*
X104633138Y-118684128D01*
X104633138Y-118684128D02*
X104775995Y-118612700D01*
X104775995Y-118612700D02*
X104847424Y-118469842D01*
X104847424Y-118469842D02*
X104847424Y-118398414D01*
X104847424Y-118398414D02*
X104775995Y-118255557D01*
X104775995Y-118255557D02*
X104633138Y-118184128D01*
X104633138Y-118184128D02*
X104418853Y-118184128D01*
X104418853Y-118184128D02*
X104275995Y-118112700D01*
X104275995Y-118112700D02*
X104204567Y-117969842D01*
X104204567Y-117969842D02*
X104204567Y-117898414D01*
X104204567Y-117898414D02*
X104275995Y-117755557D01*
X104275995Y-117755557D02*
X104418853Y-117684128D01*
X104418853Y-117684128D02*
X104633138Y-117684128D01*
X104633138Y-117684128D02*
X104775995Y-117755557D01*
X106133139Y-118612700D02*
X105990281Y-118684128D01*
X105990281Y-118684128D02*
X105704567Y-118684128D01*
X105704567Y-118684128D02*
X105561710Y-118612700D01*
X105561710Y-118612700D02*
X105490281Y-118541271D01*
X105490281Y-118541271D02*
X105418853Y-118398414D01*
X105418853Y-118398414D02*
X105418853Y-117969842D01*
X105418853Y-117969842D02*
X105490281Y-117826985D01*
X105490281Y-117826985D02*
X105561710Y-117755557D01*
X105561710Y-117755557D02*
X105704567Y-117684128D01*
X105704567Y-117684128D02*
X105990281Y-117684128D01*
X105990281Y-117684128D02*
X106133139Y-117755557D01*
X107418853Y-118684128D02*
X107418853Y-117898414D01*
X107418853Y-117898414D02*
X107347424Y-117755557D01*
X107347424Y-117755557D02*
X107204567Y-117684128D01*
X107204567Y-117684128D02*
X106918853Y-117684128D01*
X106918853Y-117684128D02*
X106775995Y-117755557D01*
X107418853Y-118612700D02*
X107275995Y-118684128D01*
X107275995Y-118684128D02*
X106918853Y-118684128D01*
X106918853Y-118684128D02*
X106775995Y-118612700D01*
X106775995Y-118612700D02*
X106704567Y-118469842D01*
X106704567Y-118469842D02*
X106704567Y-118326985D01*
X106704567Y-118326985D02*
X106775995Y-118184128D01*
X106775995Y-118184128D02*
X106918853Y-118112700D01*
X106918853Y-118112700D02*
X107275995Y-118112700D01*
X107275995Y-118112700D02*
X107418853Y-118041271D01*
X108133138Y-117684128D02*
X108133138Y-119184128D01*
X108133138Y-117755557D02*
X108275996Y-117684128D01*
X108275996Y-117684128D02*
X108561710Y-117684128D01*
X108561710Y-117684128D02*
X108704567Y-117755557D01*
X108704567Y-117755557D02*
X108775996Y-117826985D01*
X108775996Y-117826985D02*
X108847424Y-117969842D01*
X108847424Y-117969842D02*
X108847424Y-118398414D01*
X108847424Y-118398414D02*
X108775996Y-118541271D01*
X108775996Y-118541271D02*
X108704567Y-118612700D01*
X108704567Y-118612700D02*
X108561710Y-118684128D01*
X108561710Y-118684128D02*
X108275996Y-118684128D01*
X108275996Y-118684128D02*
X108133138Y-118612700D01*
X110061710Y-118612700D02*
X109918853Y-118684128D01*
X109918853Y-118684128D02*
X109633139Y-118684128D01*
X109633139Y-118684128D02*
X109490281Y-118612700D01*
X109490281Y-118612700D02*
X109418853Y-118469842D01*
X109418853Y-118469842D02*
X109418853Y-117898414D01*
X109418853Y-117898414D02*
X109490281Y-117755557D01*
X109490281Y-117755557D02*
X109633139Y-117684128D01*
X109633139Y-117684128D02*
X109918853Y-117684128D01*
X109918853Y-117684128D02*
X110061710Y-117755557D01*
X110061710Y-117755557D02*
X110133139Y-117898414D01*
X110133139Y-117898414D02*
X110133139Y-118041271D01*
X110133139Y-118041271D02*
X109418853Y-118184128D01*
X112775995Y-118684128D02*
X112275995Y-117969842D01*
X111918852Y-118684128D02*
X111918852Y-117184128D01*
X111918852Y-117184128D02*
X112490281Y-117184128D01*
X112490281Y-117184128D02*
X112633138Y-117255557D01*
X112633138Y-117255557D02*
X112704567Y-117326985D01*
X112704567Y-117326985D02*
X112775995Y-117469842D01*
X112775995Y-117469842D02*
X112775995Y-117684128D01*
X112775995Y-117684128D02*
X112704567Y-117826985D01*
X112704567Y-117826985D02*
X112633138Y-117898414D01*
X112633138Y-117898414D02*
X112490281Y-117969842D01*
X112490281Y-117969842D02*
X111918852Y-117969842D01*
X113633138Y-118684128D02*
X113490281Y-118612700D01*
X113490281Y-118612700D02*
X113418852Y-118541271D01*
X113418852Y-118541271D02*
X113347424Y-118398414D01*
X113347424Y-118398414D02*
X113347424Y-117969842D01*
X113347424Y-117969842D02*
X113418852Y-117826985D01*
X113418852Y-117826985D02*
X113490281Y-117755557D01*
X113490281Y-117755557D02*
X113633138Y-117684128D01*
X113633138Y-117684128D02*
X113847424Y-117684128D01*
X113847424Y-117684128D02*
X113990281Y-117755557D01*
X113990281Y-117755557D02*
X114061710Y-117826985D01*
X114061710Y-117826985D02*
X114133138Y-117969842D01*
X114133138Y-117969842D02*
X114133138Y-118398414D01*
X114133138Y-118398414D02*
X114061710Y-118541271D01*
X114061710Y-118541271D02*
X113990281Y-118612700D01*
X113990281Y-118612700D02*
X113847424Y-118684128D01*
X113847424Y-118684128D02*
X113633138Y-118684128D01*
X114990281Y-118684128D02*
X114847424Y-118612700D01*
X114847424Y-118612700D02*
X114775995Y-118541271D01*
X114775995Y-118541271D02*
X114704567Y-118398414D01*
X114704567Y-118398414D02*
X114704567Y-117969842D01*
X114704567Y-117969842D02*
X114775995Y-117826985D01*
X114775995Y-117826985D02*
X114847424Y-117755557D01*
X114847424Y-117755557D02*
X114990281Y-117684128D01*
X114990281Y-117684128D02*
X115204567Y-117684128D01*
X115204567Y-117684128D02*
X115347424Y-117755557D01*
X115347424Y-117755557D02*
X115418853Y-117826985D01*
X115418853Y-117826985D02*
X115490281Y-117969842D01*
X115490281Y-117969842D02*
X115490281Y-118398414D01*
X115490281Y-118398414D02*
X115418853Y-118541271D01*
X115418853Y-118541271D02*
X115347424Y-118612700D01*
X115347424Y-118612700D02*
X115204567Y-118684128D01*
X115204567Y-118684128D02*
X114990281Y-118684128D01*
X116133138Y-118684128D02*
X116133138Y-117684128D01*
X116133138Y-117826985D02*
X116204567Y-117755557D01*
X116204567Y-117755557D02*
X116347424Y-117684128D01*
X116347424Y-117684128D02*
X116561710Y-117684128D01*
X116561710Y-117684128D02*
X116704567Y-117755557D01*
X116704567Y-117755557D02*
X116775996Y-117898414D01*
X116775996Y-117898414D02*
X116775996Y-118684128D01*
X116775996Y-117898414D02*
X116847424Y-117755557D01*
X116847424Y-117755557D02*
X116990281Y-117684128D01*
X116990281Y-117684128D02*
X117204567Y-117684128D01*
X117204567Y-117684128D02*
X117347424Y-117755557D01*
X117347424Y-117755557D02*
X117418853Y-117898414D01*
X117418853Y-117898414D02*
X117418853Y-118684128D01*
X119204567Y-117326985D02*
X119275995Y-117255557D01*
X119275995Y-117255557D02*
X119418853Y-117184128D01*
X119418853Y-117184128D02*
X119775995Y-117184128D01*
X119775995Y-117184128D02*
X119918853Y-117255557D01*
X119918853Y-117255557D02*
X119990281Y-117326985D01*
X119990281Y-117326985D02*
X120061710Y-117469842D01*
X120061710Y-117469842D02*
X120061710Y-117612700D01*
X120061710Y-117612700D02*
X119990281Y-117826985D01*
X119990281Y-117826985D02*
X119133138Y-118684128D01*
X119133138Y-118684128D02*
X120061710Y-118684128D01*
X120990281Y-117184128D02*
X121133138Y-117184128D01*
X121133138Y-117184128D02*
X121275995Y-117255557D01*
X121275995Y-117255557D02*
X121347424Y-117326985D01*
X121347424Y-117326985D02*
X121418852Y-117469842D01*
X121418852Y-117469842D02*
X121490281Y-117755557D01*
X121490281Y-117755557D02*
X121490281Y-118112700D01*
X121490281Y-118112700D02*
X121418852Y-118398414D01*
X121418852Y-118398414D02*
X121347424Y-118541271D01*
X121347424Y-118541271D02*
X121275995Y-118612700D01*
X121275995Y-118612700D02*
X121133138Y-118684128D01*
X121133138Y-118684128D02*
X120990281Y-118684128D01*
X120990281Y-118684128D02*
X120847424Y-118612700D01*
X120847424Y-118612700D02*
X120775995Y-118541271D01*
X120775995Y-118541271D02*
X120704566Y-118398414D01*
X120704566Y-118398414D02*
X120633138Y-118112700D01*
X120633138Y-118112700D02*
X120633138Y-117755557D01*
X120633138Y-117755557D02*
X120704566Y-117469842D01*
X120704566Y-117469842D02*
X120775995Y-117326985D01*
X120775995Y-117326985D02*
X120847424Y-117255557D01*
X120847424Y-117255557D02*
X120990281Y-117184128D01*
X122061709Y-117326985D02*
X122133137Y-117255557D01*
X122133137Y-117255557D02*
X122275995Y-117184128D01*
X122275995Y-117184128D02*
X122633137Y-117184128D01*
X122633137Y-117184128D02*
X122775995Y-117255557D01*
X122775995Y-117255557D02*
X122847423Y-117326985D01*
X122847423Y-117326985D02*
X122918852Y-117469842D01*
X122918852Y-117469842D02*
X122918852Y-117612700D01*
X122918852Y-117612700D02*
X122847423Y-117826985D01*
X122847423Y-117826985D02*
X121990280Y-118684128D01*
X121990280Y-118684128D02*
X122918852Y-118684128D01*
X124204566Y-117184128D02*
X123918851Y-117184128D01*
X123918851Y-117184128D02*
X123775994Y-117255557D01*
X123775994Y-117255557D02*
X123704566Y-117326985D01*
X123704566Y-117326985D02*
X123561708Y-117541271D01*
X123561708Y-117541271D02*
X123490280Y-117826985D01*
X123490280Y-117826985D02*
X123490280Y-118398414D01*
X123490280Y-118398414D02*
X123561708Y-118541271D01*
X123561708Y-118541271D02*
X123633137Y-118612700D01*
X123633137Y-118612700D02*
X123775994Y-118684128D01*
X123775994Y-118684128D02*
X124061708Y-118684128D01*
X124061708Y-118684128D02*
X124204566Y-118612700D01*
X124204566Y-118612700D02*
X124275994Y-118541271D01*
X124275994Y-118541271D02*
X124347423Y-118398414D01*
X124347423Y-118398414D02*
X124347423Y-118041271D01*
X124347423Y-118041271D02*
X124275994Y-117898414D01*
X124275994Y-117898414D02*
X124204566Y-117826985D01*
X124204566Y-117826985D02*
X124061708Y-117755557D01*
X124061708Y-117755557D02*
X123775994Y-117755557D01*
X123775994Y-117755557D02*
X123633137Y-117826985D01*
X123633137Y-117826985D02*
X123561708Y-117898414D01*
X123561708Y-117898414D02*
X123490280Y-118041271D01*
D10*
X110007200Y-129505800D02*
X110007200Y-132505800D01*
X174007200Y-129505800D02*
X174007200Y-136005800D01*
D13*
%TO.C,C28*%
X118917675Y-52975002D03*
X120992675Y-52975002D03*
%TD*%
D14*
%TO.C,R77*%
X148000000Y-44800000D03*
X148000000Y-42800000D03*
%TD*%
D15*
%TO.C,R10*%
X91305175Y-42325002D03*
X89305175Y-42325002D03*
%TD*%
D13*
%TO.C,C12*%
X148267675Y-52075002D03*
X150342675Y-52075002D03*
%TD*%
D16*
%TO.C,C36*%
X63505175Y-78887502D03*
X63505175Y-80962502D03*
%TD*%
D13*
%TO.C,C22*%
X99917675Y-29725002D03*
X101992675Y-29725002D03*
%TD*%
D14*
%TO.C,R19*%
X60505175Y-27425002D03*
X60505175Y-25425002D03*
%TD*%
D17*
%TO.C,H1*%
X172090000Y-91400000D03*
%TD*%
D18*
%TO.C,J1*%
X74895000Y-28205000D03*
X69115000Y-28205000D03*
D19*
X75205000Y-29280000D03*
X74405000Y-29280000D03*
D20*
X73255000Y-29280000D03*
X72255000Y-29280000D03*
X71755000Y-29280000D03*
X70755000Y-29280000D03*
D19*
X69605000Y-29280000D03*
X68805000Y-29280000D03*
X68805000Y-29280000D03*
X69605000Y-29280000D03*
D20*
X70255000Y-29280000D03*
X71255000Y-29280000D03*
X72755000Y-29280000D03*
X73755000Y-29280000D03*
D19*
X74405000Y-29280000D03*
X75205000Y-29280000D03*
D21*
X76325000Y-28705000D03*
D22*
X76325000Y-24525000D03*
D21*
X67685000Y-28705000D03*
D22*
X67685000Y-24525000D03*
%TD*%
D23*
%TO.C,3V1*%
X54000000Y-86375002D03*
X54000000Y-84475002D03*
%TD*%
D24*
%TO.C,L1*%
X69500000Y-76550000D03*
X69500000Y-74250000D03*
%TD*%
D25*
%TO.C,J4*%
X84475175Y-81425002D03*
D26*
X94475175Y-81425002D03*
%TD*%
D27*
%TO.C,D5*%
X103200000Y-91450000D03*
X107500000Y-91450000D03*
%TD*%
D28*
%TO.C,R58*%
X119205175Y-28225002D03*
X121205175Y-28225002D03*
%TD*%
D29*
%TO.C,R34*%
X123430175Y-59712802D03*
X123430175Y-61712802D03*
%TD*%
%TO.C,R71*%
X54000000Y-68900000D03*
X54000000Y-70900000D03*
%TD*%
D13*
%TO.C,C35*%
X139562500Y-68700000D03*
X141637500Y-68700000D03*
%TD*%
D15*
%TO.C,R49*%
X132955175Y-51475002D03*
X130955175Y-51475002D03*
%TD*%
D13*
%TO.C,C21*%
X111892675Y-65925002D03*
X113967675Y-65925002D03*
%TD*%
D30*
%TO.C,TP3*%
X66000000Y-91405002D03*
%TD*%
D31*
%TO.C,Y2*%
X82855175Y-40100002D03*
X80755175Y-40100002D03*
X80755175Y-41750002D03*
X82855175Y-41750002D03*
%TD*%
D29*
%TO.C,R73*%
X50000000Y-68900000D03*
X50000000Y-70900000D03*
%TD*%
D32*
%TO.C,S2*%
X50350175Y-27275002D03*
X50350175Y-23875002D03*
%TD*%
D28*
%TO.C,R64*%
X80955175Y-50975002D03*
X82955175Y-50975002D03*
%TD*%
%TO.C,R63*%
X80955175Y-48975002D03*
X82955175Y-48975002D03*
%TD*%
D13*
%TO.C,C29*%
X143267675Y-28825002D03*
X145342675Y-28825002D03*
%TD*%
D15*
%TO.C,R50*%
X132955175Y-49475002D03*
X130955175Y-49475002D03*
%TD*%
D33*
%TO.C,C33*%
X156200000Y-66400000D03*
X165000000Y-66400000D03*
%TD*%
D28*
%TO.C,R60*%
X99705175Y-50975002D03*
X101705175Y-50975002D03*
%TD*%
D17*
%TO.C,H4*%
X105200000Y-78300000D03*
%TD*%
D14*
%TO.C,R5*%
X48205175Y-66325002D03*
X48205175Y-64325002D03*
%TD*%
D29*
%TO.C,R21*%
X145155175Y-23525002D03*
X145155175Y-25525002D03*
%TD*%
D16*
%TO.C,C9*%
X139655175Y-57925002D03*
X139655175Y-60000002D03*
%TD*%
D34*
%TO.C,J7*%
X104050000Y-86350000D03*
D35*
X106550000Y-86350000D03*
%TD*%
D30*
%TO.C,TP7*%
X157625000Y-54550000D03*
%TD*%
D28*
%TO.C,R3*%
X74275000Y-56550000D03*
X76275000Y-56550000D03*
%TD*%
D15*
%TO.C,R39*%
X95205175Y-29225002D03*
X93205175Y-29225002D03*
%TD*%
D29*
%TO.C,R15*%
X72505175Y-36025002D03*
X72505175Y-38025002D03*
%TD*%
D36*
%TO.C,IC3*%
X166050000Y-86100000D03*
X164150000Y-86100000D03*
X165100000Y-88500000D03*
%TD*%
D30*
%TO.C,TP5*%
X55175000Y-42525000D03*
%TD*%
D14*
%TO.C,R20*%
X54255175Y-27425002D03*
X54255175Y-25425002D03*
%TD*%
D29*
%TO.C,R16*%
X70255175Y-36025002D03*
X70255175Y-38025002D03*
%TD*%
%TO.C,R80*%
X74375000Y-48500000D03*
X74375000Y-50500000D03*
%TD*%
D37*
%TO.C,C18*%
X134005175Y-47562502D03*
X134005175Y-45487502D03*
%TD*%
D14*
%TO.C,R24*%
X49320000Y-31990000D03*
X49320000Y-29990000D03*
%TD*%
%TO.C,R51*%
X70505175Y-81925002D03*
X70505175Y-79925002D03*
%TD*%
D38*
%TO.C,IC12*%
X138555175Y-28875002D03*
X138555175Y-29825002D03*
X138555175Y-30775002D03*
X141055175Y-30775002D03*
X141055175Y-28875002D03*
%TD*%
D39*
%TO.C,D2*%
X74005175Y-84925002D03*
X74005175Y-88925002D03*
%TD*%
D14*
%TO.C,R1*%
X162025000Y-88400000D03*
X162025000Y-86400000D03*
%TD*%
D15*
%TO.C,R25*%
X48255175Y-60425002D03*
X46255175Y-60425002D03*
%TD*%
%TO.C,R38*%
X145405175Y-40775002D03*
X143405175Y-40775002D03*
%TD*%
D37*
%TO.C,C26*%
X109880174Y-67962502D03*
X109880174Y-65887502D03*
%TD*%
D29*
%TO.C,R30*%
X116680175Y-59712802D03*
X116680175Y-61712802D03*
%TD*%
%TO.C,R6*%
X166000000Y-82300000D03*
X166000000Y-84300000D03*
%TD*%
D37*
%TO.C,C19*%
X136105175Y-45362502D03*
X136105175Y-43287502D03*
%TD*%
D15*
%TO.C,R79*%
X63750000Y-67775000D03*
X61750000Y-67775000D03*
%TD*%
D14*
%TO.C,R52*%
X57600000Y-86600000D03*
X57600000Y-84600000D03*
%TD*%
D23*
%TO.C,STATUS1*%
X71700000Y-54650000D03*
X71700000Y-56550000D03*
%TD*%
D40*
%TO.C,RT1*%
X69400000Y-70900000D03*
X67600000Y-70900000D03*
%TD*%
D13*
%TO.C,C13*%
X142067675Y-45325002D03*
X144142675Y-45325002D03*
%TD*%
D14*
%TO.C,R70*%
X48000000Y-70900000D03*
X48000000Y-68900000D03*
%TD*%
D41*
%TO.C,J6*%
X172635175Y-75110002D03*
X172635175Y-72352002D03*
X172635175Y-69594002D03*
X172635175Y-66836002D03*
X172635175Y-64078002D03*
X172635175Y-61320002D03*
X172635175Y-58562002D03*
X172635175Y-55804002D03*
X172635175Y-53046002D03*
X172635175Y-50288002D03*
X172635175Y-47530002D03*
X172635175Y-44772002D03*
X172635175Y-42014002D03*
X175475175Y-73731002D03*
X175475175Y-70973002D03*
X175475175Y-68215002D03*
X175475175Y-65457002D03*
X175475175Y-62699002D03*
X175475175Y-59941002D03*
X175475175Y-57183002D03*
X175475175Y-54425002D03*
X175475175Y-51667002D03*
X175475175Y-48909002D03*
X175475175Y-46151002D03*
X175475175Y-43393002D03*
D42*
X174055175Y-35042002D03*
X174055175Y-82082002D03*
%TD*%
D15*
%TO.C,R27*%
X48255175Y-56425002D03*
X46255175Y-56425002D03*
%TD*%
D43*
%TO.C,D1*%
X75505175Y-37725002D03*
X75505175Y-33425002D03*
%TD*%
D44*
%TO.C,C7*%
X154242675Y-50525002D03*
X152167675Y-50525002D03*
%TD*%
D38*
%TO.C,IC15*%
X138655175Y-38625002D03*
X138655175Y-39575002D03*
X138655175Y-40525002D03*
X141155175Y-40525002D03*
X141155175Y-38625002D03*
%TD*%
D15*
%TO.C,R11*%
X91305175Y-44325002D03*
X89305175Y-44325002D03*
%TD*%
D45*
%TO.C,D4*%
X45411000Y-68350000D03*
X45411000Y-71650000D03*
%TD*%
D29*
%TO.C,R7*%
X158600000Y-82400000D03*
X158600000Y-84400000D03*
%TD*%
D46*
%TO.C,IC17*%
X48978000Y-73295000D03*
X48978000Y-74565000D03*
X48978000Y-75835000D03*
X48978000Y-77105000D03*
X54400000Y-77105000D03*
X54400000Y-75835000D03*
X54400000Y-74565000D03*
X54400000Y-73295000D03*
%TD*%
D44*
%TO.C,C16*%
X140142675Y-43225002D03*
X138067675Y-43225002D03*
%TD*%
D28*
%TO.C,R8*%
X103205175Y-43025002D03*
X105205175Y-43025002D03*
%TD*%
D15*
%TO.C,R43*%
X113705175Y-51725002D03*
X111705175Y-51725002D03*
%TD*%
D29*
%TO.C,R67*%
X45400000Y-85900000D03*
X45400000Y-87900000D03*
%TD*%
D44*
%TO.C,C14*%
X144142675Y-43225002D03*
X142067675Y-43225002D03*
%TD*%
D13*
%TO.C,C6*%
X56717675Y-32675002D03*
X58792675Y-32675002D03*
%TD*%
D17*
%TO.C,H5*%
X37980000Y-25500000D03*
%TD*%
D28*
%TO.C,R28*%
X46255175Y-58425002D03*
X48255175Y-58425002D03*
%TD*%
D23*
%TO.C,12V1*%
X66060000Y-86375002D03*
X66060000Y-84475002D03*
%TD*%
D47*
%TO.C,Q1*%
X72955175Y-79975002D03*
X72955175Y-81875002D03*
X75055175Y-80925002D03*
%TD*%
D28*
%TO.C,R78*%
X74250000Y-54000000D03*
X76250000Y-54000000D03*
%TD*%
D16*
%TO.C,C11*%
X141705175Y-57925002D03*
X141705175Y-60000002D03*
%TD*%
D14*
%TO.C,R54*%
X69700000Y-86600000D03*
X69700000Y-84600000D03*
%TD*%
D48*
%TO.C,IC8*%
X160505175Y-48675002D03*
X161455175Y-48675002D03*
X162405175Y-48675002D03*
X162405175Y-46175002D03*
X161455175Y-46175002D03*
X160505175Y-46175002D03*
%TD*%
D29*
%TO.C,R72*%
X52000000Y-68900000D03*
X52000000Y-70900000D03*
%TD*%
D49*
%TO.C,F1*%
X69730000Y-33155000D03*
X72680000Y-33155000D03*
%TD*%
D28*
%TO.C,R76*%
X50400000Y-79200000D03*
X52400000Y-79200000D03*
%TD*%
D15*
%TO.C,R31*%
X73405175Y-61425002D03*
X71405175Y-61425002D03*
%TD*%
D23*
%TO.C,SCLK1*%
X162000000Y-82350000D03*
X162000000Y-84250000D03*
%TD*%
D15*
%TO.C,R26*%
X48255175Y-62425002D03*
X46255175Y-62425002D03*
%TD*%
D28*
%TO.C,R61*%
X99955175Y-25725002D03*
X101955175Y-25725002D03*
%TD*%
D50*
%TO.C,U7*%
X123002425Y-47750002D03*
X123002425Y-48400003D03*
X123002425Y-49050002D03*
X123002425Y-49700003D03*
X123002425Y-50350001D03*
X123002425Y-51000003D03*
X123002425Y-51650001D03*
X123002425Y-52300000D03*
X123002425Y-52950001D03*
X123002425Y-53600000D03*
X123002425Y-54250001D03*
X123002425Y-54900000D03*
X123002425Y-55550001D03*
X123002425Y-56200000D03*
X128907925Y-56200002D03*
X128907925Y-55550001D03*
X128907925Y-54900002D03*
X128907925Y-54250001D03*
X128907925Y-53600003D03*
X128907925Y-52950001D03*
X128907925Y-52300003D03*
X128907925Y-51650001D03*
X128907925Y-51000003D03*
X128907925Y-50350001D03*
X128907925Y-49700003D03*
X128907925Y-49050002D03*
X128907925Y-48400003D03*
X128907925Y-47750002D03*
%TD*%
D16*
%TO.C,C37*%
X65505175Y-74387502D03*
X65505175Y-76462502D03*
%TD*%
D51*
%TO.C,Y1*%
X150555175Y-47975002D03*
X151955175Y-47975002D03*
X151955175Y-46875002D03*
X150555175Y-46875002D03*
%TD*%
D38*
%TO.C,IC7*%
X67505175Y-37625002D03*
X67505175Y-36675002D03*
X67505175Y-35725002D03*
X65005175Y-35725002D03*
X65005175Y-36675002D03*
X65005175Y-37625002D03*
%TD*%
D29*
%TO.C,R4*%
X48005175Y-52275002D03*
X48005175Y-54275002D03*
%TD*%
D28*
%TO.C,R57*%
X119205175Y-26225002D03*
X121205175Y-26225002D03*
%TD*%
%TO.C,R65*%
X118955175Y-48975002D03*
X120955175Y-48975002D03*
%TD*%
%TO.C,R55*%
X81205175Y-25725002D03*
X83205175Y-25725002D03*
%TD*%
D15*
%TO.C,R13*%
X91305175Y-40325002D03*
X89305175Y-40325002D03*
%TD*%
D37*
%TO.C,C10*%
X154605175Y-48462502D03*
X154605175Y-46387502D03*
%TD*%
D52*
%TO.C,RT2*%
X152400000Y-67800000D03*
X152400000Y-66000000D03*
%TD*%
D32*
%TO.C,S1*%
X45200175Y-27275002D03*
X45200175Y-23875002D03*
%TD*%
D29*
%TO.C,R68*%
X49400000Y-85900000D03*
X49400000Y-87900000D03*
%TD*%
D53*
%TO.C,C41*%
X132700000Y-68500000D03*
X132700000Y-59700000D03*
%TD*%
D30*
%TO.C,TP4*%
X155000000Y-75400000D03*
%TD*%
D17*
%TO.C,H3*%
X172100000Y-25600000D03*
%TD*%
D30*
%TO.C,TP6*%
X55150000Y-37775000D03*
%TD*%
D28*
%TO.C,R56*%
X81205175Y-27725002D03*
X83205175Y-27725002D03*
%TD*%
D37*
%TO.C,C43*%
X56600000Y-75337500D03*
X56600000Y-73262500D03*
%TD*%
D54*
%TO.C,IC5*%
X137017175Y-48925002D03*
X137017175Y-49425002D03*
X137017175Y-49925002D03*
X137017175Y-50425002D03*
X137017175Y-50925002D03*
X137017175Y-51425002D03*
X137017175Y-51925002D03*
X137017175Y-52425002D03*
X137017175Y-52925002D03*
X137017175Y-53425002D03*
X137017175Y-53925002D03*
X137017175Y-54425002D03*
D55*
X138505175Y-55913002D03*
X139005175Y-55913002D03*
X139505175Y-55913002D03*
X140005175Y-55913002D03*
X140505175Y-55913002D03*
X141005175Y-55913002D03*
X141505175Y-55913002D03*
X142005175Y-55913002D03*
X142505175Y-55913002D03*
X143005175Y-55913002D03*
X143505175Y-55913002D03*
X144005175Y-55913002D03*
D54*
X145493175Y-54425002D03*
X145493175Y-53925002D03*
X145493175Y-53425002D03*
X145493175Y-52925002D03*
X145493175Y-52425002D03*
X145493175Y-51925002D03*
X145493175Y-51425002D03*
X145493175Y-50925002D03*
X145493175Y-50425002D03*
X145493175Y-49925002D03*
X145493175Y-49425002D03*
X145493175Y-48925002D03*
D55*
X144005175Y-47437002D03*
X143505175Y-47437002D03*
X143005175Y-47437002D03*
X142505175Y-47437002D03*
X142005175Y-47437002D03*
X141505175Y-47437002D03*
X141005175Y-47437002D03*
X140505175Y-47437002D03*
X140005175Y-47437002D03*
X139505175Y-47437002D03*
X139005175Y-47437002D03*
X138505175Y-47437002D03*
%TD*%
D37*
%TO.C,C5*%
X59505175Y-36750002D03*
X59505175Y-34675002D03*
%TD*%
D29*
%TO.C,R35*%
X125680175Y-59712802D03*
X125680175Y-61712802D03*
%TD*%
D16*
%TO.C,C8*%
X143755175Y-57937502D03*
X143755175Y-60012502D03*
%TD*%
D14*
%TO.C,R23*%
X44120000Y-31990000D03*
X44120000Y-29990000D03*
%TD*%
D30*
%TO.C,TP1*%
X54000000Y-91425002D03*
%TD*%
D56*
%TO.C,IC6*%
X61305175Y-30675002D03*
X61305175Y-31175002D03*
X61305175Y-31675002D03*
X61305175Y-32175002D03*
X61305175Y-32675002D03*
X61305175Y-33175002D03*
D57*
X62005175Y-33875002D03*
X62505175Y-33875002D03*
X63005175Y-33875002D03*
X63505175Y-33875002D03*
X64005175Y-33875002D03*
X64505175Y-33875002D03*
D56*
X65205175Y-33175002D03*
X65205175Y-32675002D03*
X65205175Y-32175002D03*
X65205175Y-31675002D03*
X65205175Y-31175002D03*
X65205175Y-30675002D03*
D57*
X64505175Y-29975002D03*
X64005175Y-29975002D03*
X63505175Y-29975002D03*
X63005175Y-29975002D03*
X62505175Y-29975002D03*
X62005175Y-29975002D03*
D58*
X63255175Y-31925002D03*
%TD*%
D13*
%TO.C,C24*%
X119167675Y-30225002D03*
X121242675Y-30225002D03*
%TD*%
D28*
%TO.C,R75*%
X46500000Y-79200000D03*
X48500000Y-79200000D03*
%TD*%
%TO.C,R62*%
X99955175Y-27725002D03*
X101955175Y-27725002D03*
%TD*%
%TO.C,R9*%
X93205175Y-46225002D03*
X95205175Y-46225002D03*
%TD*%
D15*
%TO.C,R47*%
X94955175Y-51725002D03*
X92955175Y-51725002D03*
%TD*%
D48*
%TO.C,IC9*%
X156505175Y-48675002D03*
X157455175Y-48675002D03*
X158405175Y-48675002D03*
X158405175Y-46175002D03*
X157455175Y-46175002D03*
X156505175Y-46175002D03*
%TD*%
D17*
%TO.C,H6*%
X37990000Y-91340000D03*
%TD*%
D15*
%TO.C,R41*%
X133205175Y-29225002D03*
X131205175Y-29225002D03*
%TD*%
D29*
%TO.C,R29*%
X114430175Y-59712802D03*
X114430175Y-61712802D03*
%TD*%
D59*
%TO.C,F2*%
X74005175Y-73100002D03*
X74005175Y-77750002D03*
%TD*%
D41*
%TO.C,J3*%
X37395175Y-41857002D03*
X37395175Y-44615002D03*
X37395175Y-47373002D03*
X37395175Y-50131002D03*
X37395175Y-52889002D03*
X37395175Y-55647002D03*
X37395175Y-58405002D03*
X37395175Y-61163002D03*
X37395175Y-63921002D03*
X37395175Y-66679002D03*
X37395175Y-69437002D03*
X37395175Y-72195002D03*
X37395175Y-74953002D03*
X34555175Y-43236002D03*
X34555175Y-45994002D03*
X34555175Y-48752002D03*
X34555175Y-51510002D03*
X34555175Y-54268002D03*
X34555175Y-57026002D03*
X34555175Y-59784002D03*
X34555175Y-62542002D03*
X34555175Y-65300002D03*
X34555175Y-68058002D03*
X34555175Y-70816002D03*
X34555175Y-73574002D03*
D42*
X35975175Y-81925002D03*
X35975175Y-34885002D03*
%TD*%
D14*
%TO.C,R74*%
X54400000Y-81100000D03*
X54400000Y-79100000D03*
%TD*%
D50*
%TO.C,U4*%
X104002425Y-25250002D03*
X104002425Y-25900003D03*
X104002425Y-26550002D03*
X104002425Y-27200003D03*
X104002425Y-27850001D03*
X104002425Y-28500003D03*
X104002425Y-29150001D03*
X104002425Y-29800000D03*
X104002425Y-30450001D03*
X104002425Y-31100000D03*
X104002425Y-31750001D03*
X104002425Y-32400000D03*
X104002425Y-33050001D03*
X104002425Y-33700000D03*
X109907925Y-33700002D03*
X109907925Y-33050001D03*
X109907925Y-32400002D03*
X109907925Y-31750001D03*
X109907925Y-31100003D03*
X109907925Y-30450001D03*
X109907925Y-29800003D03*
X109907925Y-29150001D03*
X109907925Y-28500003D03*
X109907925Y-27850001D03*
X109907925Y-27200003D03*
X109907925Y-26550002D03*
X109907925Y-25900003D03*
X109907925Y-25250002D03*
%TD*%
D14*
%TO.C,R53*%
X63600000Y-86600000D03*
X63600000Y-84600000D03*
%TD*%
D13*
%TO.C,C27*%
X99667675Y-53225002D03*
X101742675Y-53225002D03*
%TD*%
D16*
%TO.C,C40*%
X61505175Y-70387502D03*
X61505175Y-72462502D03*
%TD*%
D15*
%TO.C,R44*%
X113705175Y-49725002D03*
X111705175Y-49725002D03*
%TD*%
D36*
%TO.C,IC11*%
X56305175Y-27625002D03*
X58205175Y-27625002D03*
X57255175Y-25225002D03*
%TD*%
D29*
%TO.C,R17*%
X61905175Y-35925002D03*
X61905175Y-37925002D03*
%TD*%
D15*
%TO.C,R45*%
X113955175Y-29225002D03*
X111955175Y-29225002D03*
%TD*%
D28*
%TO.C,R59*%
X99705175Y-48975002D03*
X101705175Y-48975002D03*
%TD*%
D29*
%TO.C,R33*%
X121180175Y-59712802D03*
X121180175Y-61712802D03*
%TD*%
D23*
%TO.C,IRQ1*%
X154700000Y-82350000D03*
X154700000Y-84250000D03*
%TD*%
D16*
%TO.C,C2*%
X45955175Y-45937500D03*
X45955175Y-48012500D03*
%TD*%
D60*
%TO.C,U3*%
X115735175Y-70075002D03*
X117005175Y-70075002D03*
X118275175Y-70075002D03*
X119545175Y-70075002D03*
X120815175Y-70075002D03*
X122085175Y-70075002D03*
X123355175Y-70075002D03*
X124625175Y-70075002D03*
X124625175Y-65350602D03*
X123355175Y-65350602D03*
X122085175Y-65350602D03*
X120815175Y-65350602D03*
X119545175Y-65350602D03*
X118275175Y-65350602D03*
X117005175Y-65350602D03*
X115735175Y-65350602D03*
%TD*%
D15*
%TO.C,R46*%
X113955175Y-27225002D03*
X111955175Y-27225002D03*
%TD*%
D13*
%TO.C,C17*%
X147567675Y-56025002D03*
X149642675Y-56025002D03*
%TD*%
D61*
%TO.C,J2*%
X163505175Y-33425002D03*
D62*
X154610175Y-39785002D03*
D61*
X152075175Y-33425002D03*
D63*
X162230175Y-39785002D03*
D62*
X160970175Y-42325002D03*
X159690175Y-39785002D03*
X158430175Y-42325002D03*
X157150175Y-39785002D03*
X155890175Y-42325002D03*
X153350175Y-42325002D03*
X164415175Y-28525002D03*
X161875175Y-28525002D03*
X153705175Y-28525002D03*
X151165175Y-28525002D03*
D64*
X165535175Y-36475002D03*
X150045175Y-36475002D03*
%TD*%
D28*
%TO.C,R14*%
X71400000Y-63475002D03*
X73400000Y-63475002D03*
%TD*%
%TO.C,R81*%
X71425000Y-59050000D03*
X73425000Y-59050000D03*
%TD*%
D15*
%TO.C,R48*%
X94955175Y-49725002D03*
X92955175Y-49725002D03*
%TD*%
D13*
%TO.C,C31*%
X143367675Y-38575002D03*
X145442675Y-38575002D03*
%TD*%
D16*
%TO.C,C4*%
X48205175Y-45937502D03*
X48205175Y-48012502D03*
%TD*%
D45*
%TO.C,D3*%
X56600000Y-68050000D03*
X56600000Y-71350000D03*
%TD*%
D14*
%TO.C,R12*%
X101205175Y-40125002D03*
X101205175Y-38125002D03*
%TD*%
D16*
%TO.C,C38*%
X61505175Y-78887502D03*
X61505175Y-80962502D03*
%TD*%
D14*
%TO.C,R18*%
X134255175Y-55425002D03*
X134255175Y-53425002D03*
%TD*%
D50*
%TO.C,U6*%
X123252425Y-25250002D03*
X123252425Y-25900003D03*
X123252425Y-26550002D03*
X123252425Y-27200003D03*
X123252425Y-27850001D03*
X123252425Y-28500003D03*
X123252425Y-29150001D03*
X123252425Y-29800000D03*
X123252425Y-30450001D03*
X123252425Y-31100000D03*
X123252425Y-31750001D03*
X123252425Y-32400000D03*
X123252425Y-33050001D03*
X123252425Y-33700000D03*
X129157925Y-33700002D03*
X129157925Y-33050001D03*
X129157925Y-32400002D03*
X129157925Y-31750001D03*
X129157925Y-31100003D03*
X129157925Y-30450001D03*
X129157925Y-29800003D03*
X129157925Y-29150001D03*
X129157925Y-28500003D03*
X129157925Y-27850001D03*
X129157925Y-27200003D03*
X129157925Y-26550002D03*
X129157925Y-25900003D03*
X129157925Y-25250002D03*
%TD*%
D14*
%TO.C,R2*%
X154700000Y-88400000D03*
X154700000Y-86400000D03*
%TD*%
D65*
%TO.C,IC14*%
X143855175Y-64625002D03*
X143855175Y-66925002D03*
X143855175Y-69225002D03*
D66*
X150155175Y-66925002D03*
%TD*%
D13*
%TO.C,C23*%
X81167675Y-29725002D03*
X83242675Y-29725002D03*
%TD*%
D38*
%TO.C,IC13*%
X138555175Y-34375002D03*
X138555175Y-35325002D03*
X138555175Y-36275002D03*
X141055175Y-36275002D03*
X141055175Y-34375002D03*
%TD*%
D36*
%TO.C,IC4*%
X158650000Y-86100000D03*
X156750000Y-86100000D03*
X157700000Y-88500000D03*
%TD*%
D37*
%TO.C,C32*%
X141505175Y-66700002D03*
X141505175Y-64625002D03*
%TD*%
D50*
%TO.C,U2*%
X85002425Y-47750002D03*
X85002425Y-48400003D03*
X85002425Y-49050002D03*
X85002425Y-49700003D03*
X85002425Y-50350001D03*
X85002425Y-51000003D03*
X85002425Y-51650001D03*
X85002425Y-52300000D03*
X85002425Y-52950001D03*
X85002425Y-53600000D03*
X85002425Y-54250001D03*
X85002425Y-54900000D03*
X85002425Y-55550001D03*
X85002425Y-56200000D03*
X90907925Y-56200002D03*
X90907925Y-55550001D03*
X90907925Y-54900002D03*
X90907925Y-54250001D03*
X90907925Y-53600003D03*
X90907925Y-52950001D03*
X90907925Y-52300003D03*
X90907925Y-51650001D03*
X90907925Y-51000003D03*
X90907925Y-50350001D03*
X90907925Y-49700003D03*
X90907925Y-49050002D03*
X90907925Y-48400003D03*
X90907925Y-47750002D03*
%TD*%
D36*
%TO.C,IC10*%
X62555175Y-27600000D03*
X64455175Y-27600000D03*
X63505175Y-25200000D03*
%TD*%
D44*
%TO.C,C15*%
X140142675Y-45325002D03*
X138067675Y-45325002D03*
%TD*%
D67*
%TO.C,IC2*%
X51105175Y-46985002D03*
X51105175Y-48255002D03*
X51105175Y-49525002D03*
X51105175Y-50795002D03*
X51105175Y-52065002D03*
X51105175Y-53335002D03*
X51105175Y-54605002D03*
X51105175Y-55875002D03*
X51105175Y-57145002D03*
X51105175Y-58415002D03*
X51105175Y-59685002D03*
X51105175Y-60955002D03*
X51105175Y-62225002D03*
X51105175Y-63495002D03*
D68*
X54140175Y-64745002D03*
X55410175Y-64745002D03*
X56680175Y-64745002D03*
X57950175Y-64745002D03*
X59220175Y-64745002D03*
X60490175Y-64745002D03*
X61760175Y-64745002D03*
X63030175Y-64745002D03*
X64300175Y-64745002D03*
X65570175Y-64745002D03*
D67*
X68605175Y-63495002D03*
X68605175Y-62225002D03*
X68605175Y-60955002D03*
X68605175Y-59685002D03*
X68605175Y-58415002D03*
X68605175Y-57145002D03*
X68605175Y-55875002D03*
X68605175Y-54605002D03*
X68605175Y-53335002D03*
X68605175Y-52065002D03*
X68605175Y-50795002D03*
X68605175Y-49525002D03*
X68605175Y-48255002D03*
X68605175Y-46985002D03*
D69*
X58355175Y-54325002D03*
X58355175Y-55725002D03*
X59755175Y-55725002D03*
X59755175Y-54325002D03*
X59755175Y-52925002D03*
X58355175Y-52925002D03*
X56955175Y-52925002D03*
X56955175Y-54325002D03*
X56955175Y-55725002D03*
%TD*%
D15*
%TO.C,R37*%
X145355175Y-36475002D03*
X143355175Y-36475002D03*
%TD*%
D70*
%TO.C,Q2*%
X106537500Y-72250000D03*
X106537500Y-70350000D03*
X104662500Y-71300000D03*
%TD*%
D37*
%TO.C,C30*%
X85605175Y-41762502D03*
X85605175Y-39687502D03*
%TD*%
D13*
%TO.C,C34*%
X143267675Y-34325002D03*
X145342675Y-34325002D03*
%TD*%
D50*
%TO.C,U1*%
X85299675Y-25275001D03*
X85299675Y-25925002D03*
X85299675Y-26575001D03*
X85299675Y-27225002D03*
X85299675Y-27875000D03*
X85299675Y-28525002D03*
X85299675Y-29175000D03*
X85299675Y-29824999D03*
X85299675Y-30475000D03*
X85299675Y-31124999D03*
X85299675Y-31775000D03*
X85299675Y-32424999D03*
X85299675Y-33075000D03*
X85299675Y-33724999D03*
X91205175Y-33725001D03*
X91205175Y-33075000D03*
X91205175Y-32425001D03*
X91205175Y-31775000D03*
X91205175Y-31125002D03*
X91205175Y-30475000D03*
X91205175Y-29825002D03*
X91205175Y-29175000D03*
X91205175Y-28525002D03*
X91205175Y-27875000D03*
X91205175Y-27225002D03*
X91205175Y-26575001D03*
X91205175Y-25925002D03*
X91205175Y-25275001D03*
%TD*%
D16*
%TO.C,C20*%
X46720000Y-29952500D03*
X46720000Y-32027500D03*
%TD*%
D29*
%TO.C,R22*%
X147405175Y-23525002D03*
X147405175Y-25525002D03*
%TD*%
D23*
%TO.C,5V1*%
X60005175Y-86375002D03*
X60005175Y-84475002D03*
%TD*%
D37*
%TO.C,C1*%
X101205175Y-43962502D03*
X101205175Y-41887502D03*
%TD*%
D29*
%TO.C,R32*%
X118930175Y-59712802D03*
X118930175Y-61712802D03*
%TD*%
D15*
%TO.C,R40*%
X95205175Y-27225002D03*
X93205175Y-27225002D03*
%TD*%
D30*
%TO.C,TP2*%
X60005175Y-91425002D03*
%TD*%
D50*
%TO.C,U5*%
X103752425Y-47750002D03*
X103752425Y-48400003D03*
X103752425Y-49050002D03*
X103752425Y-49700003D03*
X103752425Y-50350001D03*
X103752425Y-51000003D03*
X103752425Y-51650001D03*
X103752425Y-52300000D03*
X103752425Y-52950001D03*
X103752425Y-53600000D03*
X103752425Y-54250001D03*
X103752425Y-54900000D03*
X103752425Y-55550001D03*
X103752425Y-56200000D03*
X109657925Y-56200002D03*
X109657925Y-55550001D03*
X109657925Y-54900002D03*
X109657925Y-54250001D03*
X109657925Y-53600003D03*
X109657925Y-52950001D03*
X109657925Y-52300003D03*
X109657925Y-51650001D03*
X109657925Y-51000003D03*
X109657925Y-50350001D03*
X109657925Y-49700003D03*
X109657925Y-49050002D03*
X109657925Y-48400003D03*
X109657925Y-47750002D03*
%TD*%
D16*
%TO.C,C39*%
X63505175Y-70387502D03*
X63505175Y-72462502D03*
%TD*%
D71*
%TO.C,IC1*%
X99143175Y-44275002D03*
X99143175Y-43625002D03*
X99143175Y-42975002D03*
X99143175Y-42325002D03*
X99143175Y-41675002D03*
X99143175Y-41025002D03*
X99143175Y-40375002D03*
X93267175Y-40375002D03*
X93267175Y-41025002D03*
X93267175Y-41675002D03*
X93267175Y-42325002D03*
X93267175Y-42975002D03*
X93267175Y-43625002D03*
X93267175Y-44275002D03*
%TD*%
D28*
%TO.C,R69*%
X44800000Y-73400000D03*
X46800000Y-73400000D03*
%TD*%
D13*
%TO.C,C25*%
X80917675Y-53125002D03*
X82992675Y-53125002D03*
%TD*%
D28*
%TO.C,R66*%
X118955175Y-50975002D03*
X120955175Y-50975002D03*
%TD*%
D15*
%TO.C,R42*%
X133205175Y-27225002D03*
X131205175Y-27225002D03*
%TD*%
D44*
%TO.C,C3*%
X48142675Y-50125002D03*
X46067675Y-50125002D03*
%TD*%
D25*
%TO.C,J5*%
X115475175Y-81425002D03*
D26*
X125475175Y-81425002D03*
%TD*%
D15*
%TO.C,R36*%
X145355175Y-31125002D03*
X143355175Y-31125002D03*
%TD*%
D72*
%TO.C,IC16*%
X61305175Y-74475002D03*
X61305175Y-75425002D03*
X61305175Y-76375002D03*
X63503175Y-76375002D03*
X63503175Y-75425002D03*
X63503175Y-74475002D03*
%TD*%
G36*
X147911980Y-61677383D02*
G01*
X147971480Y-61689218D01*
X148016179Y-61707732D01*
X148056268Y-61734518D01*
X148090481Y-61768731D01*
X148117267Y-61808820D01*
X148135781Y-61853517D01*
X148147617Y-61913017D01*
X148150000Y-61937210D01*
X148150000Y-65837789D01*
X148147617Y-65861982D01*
X148135781Y-65921482D01*
X148117267Y-65966179D01*
X148090481Y-66006268D01*
X148056268Y-66040481D01*
X148016179Y-66067267D01*
X147971482Y-66085781D01*
X147911982Y-66097617D01*
X147887789Y-66100000D01*
X145724000Y-66100000D01*
X145656961Y-66080315D01*
X145611206Y-66027511D01*
X145600000Y-65976000D01*
X145600000Y-65850000D01*
X127224000Y-65850000D01*
X127156961Y-65830315D01*
X127111206Y-65777511D01*
X127100000Y-65726000D01*
X127100000Y-62049000D01*
X127119685Y-61981961D01*
X127172489Y-61936206D01*
X127224000Y-61925000D01*
X145600000Y-61925000D01*
X145600000Y-61799000D01*
X145619685Y-61731961D01*
X145672489Y-61686206D01*
X145724000Y-61675000D01*
X147887789Y-61675000D01*
X147911980Y-61677383D01*
G37*
G36*
X153693039Y-57419685D02*
G01*
X153738794Y-57472489D01*
X153750000Y-57524000D01*
X153750000Y-67576000D01*
X153730315Y-67643039D01*
X153677511Y-67688794D01*
X153626000Y-67700000D01*
X153500000Y-67700000D01*
X153500000Y-70376000D01*
X153480315Y-70443039D01*
X153427511Y-70488794D01*
X153376000Y-70500000D01*
X145724000Y-70500000D01*
X145656961Y-70480315D01*
X145611206Y-70427511D01*
X145600000Y-70376000D01*
X145600000Y-65850000D01*
X145474000Y-65850000D01*
X145406961Y-65830315D01*
X145361206Y-65777511D01*
X145350000Y-65726000D01*
X145350000Y-62049000D01*
X145369685Y-61981961D01*
X145422489Y-61936206D01*
X145474000Y-61925000D01*
X145600000Y-61925000D01*
X145600000Y-57524000D01*
X145619685Y-57456961D01*
X145672489Y-57411206D01*
X145724000Y-57400000D01*
X153626000Y-57400000D01*
X153693039Y-57419685D01*
G37*
G36*
X169443039Y-57419685D02*
G01*
X169488794Y-57472489D01*
X169500000Y-57524000D01*
X169500000Y-67576000D01*
X169480315Y-67643039D01*
X169427511Y-67688794D01*
X169376000Y-67700000D01*
X153500000Y-67700000D01*
X153499103Y-67700896D01*
X153480315Y-67764882D01*
X153427511Y-67810637D01*
X153358353Y-67820581D01*
X153294797Y-67791556D01*
X153257023Y-67732778D01*
X153254383Y-67722036D01*
X153252383Y-67711982D01*
X153250000Y-67687789D01*
X153250000Y-57524000D01*
X153269685Y-57456961D01*
X153322489Y-57411206D01*
X153374000Y-57400000D01*
X169376000Y-57400000D01*
X169443039Y-57419685D01*
G37*
G36*
X75943039Y-66719685D02*
G01*
X75988794Y-66772489D01*
X76000000Y-66824000D01*
X76000000Y-75476000D01*
X75980315Y-75543039D01*
X75927511Y-75588794D01*
X75876000Y-75600000D01*
X64924000Y-75600000D01*
X64856961Y-75580315D01*
X64811206Y-75527511D01*
X64800000Y-75476000D01*
X64800000Y-66824000D01*
X64819685Y-66756961D01*
X64872489Y-66711206D01*
X64924000Y-66700000D01*
X75876000Y-66700000D01*
X75943039Y-66719685D01*
G37*
G36*
X60843039Y-51819685D02*
G01*
X60888794Y-51872489D01*
X60900000Y-51924000D01*
X60900000Y-56776000D01*
X60880315Y-56843039D01*
X60827511Y-56888794D01*
X60776000Y-56900000D01*
X55924000Y-56900000D01*
X55856961Y-56880315D01*
X55811206Y-56827511D01*
X55800000Y-56776000D01*
X55800000Y-51924000D01*
X55819685Y-51856961D01*
X55872489Y-51811206D01*
X55924000Y-51800000D01*
X60776000Y-51800000D01*
X60843039Y-51819685D01*
G37*
D73*
X26499999Y-24425002D02*
X26499999Y-24425002D01*
G75*
G02*
X28999999Y-21925002I2500001J2D01*
G01*
X180999999Y-21925002D01*
G75*
G02*
X183499999Y-24425002I1J-2499998D01*
G01*
X183499999Y-92400000D01*
G75*
G02*
X180999999Y-94900000I-2499999J0D01*
G01*
X28999999Y-94900000D01*
G75*
G02*
X26499999Y-92400000I1J2500000D01*
G01*
X26499999Y-24425002D01*
M02*
