%TF.GenerationSoftware,KiCad,Pcbnew,10.0.1*%
%TF.CreationDate,2026-05-12T08:46:46-07:00*%
%TF.ProjectId,DarkMagic,4461726b-4d61-4676-9963-2e6b69636164,rev?*%
%TF.SameCoordinates,Original*%
%TF.FileFunction,Soldermask,Bot*%
%TF.FilePolarity,Negative*%
%FSLAX46Y46*%
G04 Gerber Fmt 4.6, Leading zero omitted, Abs format (unit mm)*
G04 Created by KiCad (PCBNEW 10.0.1) date 2026-05-12 08:46:46*
%MOMM*%
%LPD*%
G01*
G04 APERTURE LIST*
G04 Aperture macros list*
%AMRoundRect*
0 Rectangle with rounded corners*
0 $1 Rounding radius*
0 $2 $3 $4 $5 $6 $7 $8 $9 X,Y pos of 4 corners*
0 Add a 4 corners polygon primitive as box body*
4,1,4,$2,$3,$4,$5,$6,$7,$8,$9,$2,$3,0*
0 Add four circle primitives for the rounded corners*
1,1,$1+$1,$2,$3*
1,1,$1+$1,$4,$5*
1,1,$1+$1,$6,$7*
1,1,$1+$1,$8,$9*
0 Add four rect primitives between the rounded corners*
20,1,$1+$1,$2,$3,$4,$5,0*
20,1,$1+$1,$4,$5,$6,$7,0*
20,1,$1+$1,$6,$7,$8,$9,0*
20,1,$1+$1,$8,$9,$2,$3,0*%
G04 Aperture macros list end*
%ADD10C,0.150000*%
%ADD11C,0.300000*%
%ADD12C,0.400000*%
%ADD13C,3.800000*%
%ADD14C,0.650000*%
%ADD15O,1.000000X2.100000*%
%ADD16O,1.000000X1.800000*%
%ADD17R,3.300000X6.600000*%
%ADD18O,3.300000X6.600000*%
%ADD19R,1.800000X1.800000*%
%ADD20C,1.800000*%
%ADD21C,1.560000*%
%ADD22C,4.890000*%
%ADD23C,3.250000*%
%ADD24C,1.500000*%
%ADD25RoundRect,0.250500X0.499500X0.499500X-0.499500X0.499500X-0.499500X-0.499500X0.499500X-0.499500X0*%
%ADD26C,2.500000*%
%TA.AperFunction,Profile*%
%ADD27C,0.100000*%
%TD*%
G04 APERTURE END LIST*
D10*
X90007200Y-104005800D02*
X198007200Y-104005800D01*
X198007200Y-136005800D01*
X90007200Y-136005800D01*
X90007200Y-104005800D01*
X10000000Y-10000000D02*
X200007200Y-10000000D01*
X200007200Y-138005800D01*
X10000000Y-138005800D01*
X10000000Y-10000000D01*
X12000000Y-12000000D02*
X198007200Y-12000000D01*
X198007200Y-136005800D01*
X12000000Y-136005800D01*
X12000000Y-12000000D01*
X60000000Y-12000000D02*
X60000000Y-10000000D01*
X110000000Y-12000000D02*
X110000000Y-10000000D01*
X160000000Y-12000000D02*
X160000000Y-10000000D01*
X36089160Y-11593604D02*
X35346303Y-11593604D01*
X35717731Y-11593604D02*
X35717731Y-10293604D01*
X35717731Y-10293604D02*
X35593922Y-10479319D01*
X35593922Y-10479319D02*
X35470112Y-10603128D01*
X35470112Y-10603128D02*
X35346303Y-10665033D01*
X85346303Y-10417414D02*
X85408207Y-10355509D01*
X85408207Y-10355509D02*
X85532017Y-10293604D01*
X85532017Y-10293604D02*
X85841541Y-10293604D01*
X85841541Y-10293604D02*
X85965350Y-10355509D01*
X85965350Y-10355509D02*
X86027255Y-10417414D01*
X86027255Y-10417414D02*
X86089160Y-10541223D01*
X86089160Y-10541223D02*
X86089160Y-10665033D01*
X86089160Y-10665033D02*
X86027255Y-10850747D01*
X86027255Y-10850747D02*
X85284398Y-11593604D01*
X85284398Y-11593604D02*
X86089160Y-11593604D01*
X135284398Y-10293604D02*
X136089160Y-10293604D01*
X136089160Y-10293604D02*
X135655826Y-10788842D01*
X135655826Y-10788842D02*
X135841541Y-10788842D01*
X135841541Y-10788842D02*
X135965350Y-10850747D01*
X135965350Y-10850747D02*
X136027255Y-10912652D01*
X136027255Y-10912652D02*
X136089160Y-11036461D01*
X136089160Y-11036461D02*
X136089160Y-11345985D01*
X136089160Y-11345985D02*
X136027255Y-11469795D01*
X136027255Y-11469795D02*
X135965350Y-11531700D01*
X135965350Y-11531700D02*
X135841541Y-11593604D01*
X135841541Y-11593604D02*
X135470112Y-11593604D01*
X135470112Y-11593604D02*
X135346303Y-11531700D01*
X135346303Y-11531700D02*
X135284398Y-11469795D01*
X185965350Y-10726938D02*
X185965350Y-11593604D01*
X185655826Y-10231700D02*
X185346303Y-11160271D01*
X185346303Y-11160271D02*
X186151064Y-11160271D01*
X60000000Y-136005800D02*
X60000000Y-138005800D01*
X110000000Y-136005800D02*
X110000000Y-138005800D01*
X160000000Y-136005800D02*
X160000000Y-138005800D01*
X36089160Y-137599404D02*
X35346303Y-137599404D01*
X35717731Y-137599404D02*
X35717731Y-136299404D01*
X35717731Y-136299404D02*
X35593922Y-136485119D01*
X35593922Y-136485119D02*
X35470112Y-136608928D01*
X35470112Y-136608928D02*
X35346303Y-136670833D01*
X85346303Y-136423214D02*
X85408207Y-136361309D01*
X85408207Y-136361309D02*
X85532017Y-136299404D01*
X85532017Y-136299404D02*
X85841541Y-136299404D01*
X85841541Y-136299404D02*
X85965350Y-136361309D01*
X85965350Y-136361309D02*
X86027255Y-136423214D01*
X86027255Y-136423214D02*
X86089160Y-136547023D01*
X86089160Y-136547023D02*
X86089160Y-136670833D01*
X86089160Y-136670833D02*
X86027255Y-136856547D01*
X86027255Y-136856547D02*
X85284398Y-137599404D01*
X85284398Y-137599404D02*
X86089160Y-137599404D01*
X135284398Y-136299404D02*
X136089160Y-136299404D01*
X136089160Y-136299404D02*
X135655826Y-136794642D01*
X135655826Y-136794642D02*
X135841541Y-136794642D01*
X135841541Y-136794642D02*
X135965350Y-136856547D01*
X135965350Y-136856547D02*
X136027255Y-136918452D01*
X136027255Y-136918452D02*
X136089160Y-137042261D01*
X136089160Y-137042261D02*
X136089160Y-137351785D01*
X136089160Y-137351785D02*
X136027255Y-137475595D01*
X136027255Y-137475595D02*
X135965350Y-137537500D01*
X135965350Y-137537500D02*
X135841541Y-137599404D01*
X135841541Y-137599404D02*
X135470112Y-137599404D01*
X135470112Y-137599404D02*
X135346303Y-137537500D01*
X135346303Y-137537500D02*
X135284398Y-137475595D01*
X185965350Y-136732738D02*
X185965350Y-137599404D01*
X185655826Y-136237500D02*
X185346303Y-137166071D01*
X185346303Y-137166071D02*
X186151064Y-137166071D01*
X10000000Y-60000000D02*
X12000000Y-60000000D01*
X10000000Y-110000000D02*
X12000000Y-110000000D01*
X10690476Y-35222176D02*
X11309523Y-35222176D01*
X10566666Y-35593604D02*
X10999999Y-34293604D01*
X10999999Y-34293604D02*
X11433333Y-35593604D01*
X11092857Y-84912652D02*
X11278571Y-84974557D01*
X11278571Y-84974557D02*
X11340476Y-85036461D01*
X11340476Y-85036461D02*
X11402380Y-85160271D01*
X11402380Y-85160271D02*
X11402380Y-85345985D01*
X11402380Y-85345985D02*
X11340476Y-85469795D01*
X11340476Y-85469795D02*
X11278571Y-85531700D01*
X11278571Y-85531700D02*
X11154761Y-85593604D01*
X11154761Y-85593604D02*
X10659523Y-85593604D01*
X10659523Y-85593604D02*
X10659523Y-84293604D01*
X10659523Y-84293604D02*
X11092857Y-84293604D01*
X11092857Y-84293604D02*
X11216666Y-84355509D01*
X11216666Y-84355509D02*
X11278571Y-84417414D01*
X11278571Y-84417414D02*
X11340476Y-84541223D01*
X11340476Y-84541223D02*
X11340476Y-84665033D01*
X11340476Y-84665033D02*
X11278571Y-84788842D01*
X11278571Y-84788842D02*
X11216666Y-84850747D01*
X11216666Y-84850747D02*
X11092857Y-84912652D01*
X11092857Y-84912652D02*
X10659523Y-84912652D01*
X11402380Y-135469795D02*
X11340476Y-135531700D01*
X11340476Y-135531700D02*
X11154761Y-135593604D01*
X11154761Y-135593604D02*
X11030952Y-135593604D01*
X11030952Y-135593604D02*
X10845238Y-135531700D01*
X10845238Y-135531700D02*
X10721428Y-135407890D01*
X10721428Y-135407890D02*
X10659523Y-135284080D01*
X10659523Y-135284080D02*
X10597619Y-135036461D01*
X10597619Y-135036461D02*
X10597619Y-134850747D01*
X10597619Y-134850747D02*
X10659523Y-134603128D01*
X10659523Y-134603128D02*
X10721428Y-134479319D01*
X10721428Y-134479319D02*
X10845238Y-134355509D01*
X10845238Y-134355509D02*
X11030952Y-134293604D01*
X11030952Y-134293604D02*
X11154761Y-134293604D01*
X11154761Y-134293604D02*
X11340476Y-134355509D01*
X11340476Y-134355509D02*
X11402380Y-134417414D01*
X200007200Y-60000000D02*
X198007200Y-60000000D01*
X200007200Y-110000000D02*
X198007200Y-110000000D01*
X198697676Y-35222176D02*
X199316723Y-35222176D01*
X198573866Y-35593604D02*
X199007199Y-34293604D01*
X199007199Y-34293604D02*
X199440533Y-35593604D01*
X199100057Y-84912652D02*
X199285771Y-84974557D01*
X199285771Y-84974557D02*
X199347676Y-85036461D01*
X199347676Y-85036461D02*
X199409580Y-85160271D01*
X199409580Y-85160271D02*
X199409580Y-85345985D01*
X199409580Y-85345985D02*
X199347676Y-85469795D01*
X199347676Y-85469795D02*
X199285771Y-85531700D01*
X199285771Y-85531700D02*
X199161961Y-85593604D01*
X199161961Y-85593604D02*
X198666723Y-85593604D01*
X198666723Y-85593604D02*
X198666723Y-84293604D01*
X198666723Y-84293604D02*
X199100057Y-84293604D01*
X199100057Y-84293604D02*
X199223866Y-84355509D01*
X199223866Y-84355509D02*
X199285771Y-84417414D01*
X199285771Y-84417414D02*
X199347676Y-84541223D01*
X199347676Y-84541223D02*
X199347676Y-84665033D01*
X199347676Y-84665033D02*
X199285771Y-84788842D01*
X199285771Y-84788842D02*
X199223866Y-84850747D01*
X199223866Y-84850747D02*
X199100057Y-84912652D01*
X199100057Y-84912652D02*
X198666723Y-84912652D01*
X199409580Y-135469795D02*
X199347676Y-135531700D01*
X199347676Y-135531700D02*
X199161961Y-135593604D01*
X199161961Y-135593604D02*
X199038152Y-135593604D01*
X199038152Y-135593604D02*
X198852438Y-135531700D01*
X198852438Y-135531700D02*
X198728628Y-135407890D01*
X198728628Y-135407890D02*
X198666723Y-135284080D01*
X198666723Y-135284080D02*
X198604819Y-135036461D01*
X198604819Y-135036461D02*
X198604819Y-134850747D01*
X198604819Y-134850747D02*
X198666723Y-134603128D01*
X198666723Y-134603128D02*
X198728628Y-134479319D01*
X198728628Y-134479319D02*
X198852438Y-134355509D01*
X198852438Y-134355509D02*
X199038152Y-134293604D01*
X199038152Y-134293604D02*
X199161961Y-134293604D01*
X199161961Y-134293604D02*
X199347676Y-134355509D01*
X199347676Y-134355509D02*
X199409580Y-134417414D01*
X113463026Y-131791928D02*
X113463026Y-130291928D01*
X113463026Y-130291928D02*
X113820169Y-130291928D01*
X113820169Y-130291928D02*
X114034455Y-130363357D01*
X114034455Y-130363357D02*
X114177312Y-130506214D01*
X114177312Y-130506214D02*
X114248741Y-130649071D01*
X114248741Y-130649071D02*
X114320169Y-130934785D01*
X114320169Y-130934785D02*
X114320169Y-131149071D01*
X114320169Y-131149071D02*
X114248741Y-131434785D01*
X114248741Y-131434785D02*
X114177312Y-131577642D01*
X114177312Y-131577642D02*
X114034455Y-131720500D01*
X114034455Y-131720500D02*
X113820169Y-131791928D01*
X113820169Y-131791928D02*
X113463026Y-131791928D01*
X115605884Y-131791928D02*
X115605884Y-131006214D01*
X115605884Y-131006214D02*
X115534455Y-130863357D01*
X115534455Y-130863357D02*
X115391598Y-130791928D01*
X115391598Y-130791928D02*
X115105884Y-130791928D01*
X115105884Y-130791928D02*
X114963026Y-130863357D01*
X115605884Y-131720500D02*
X115463026Y-131791928D01*
X115463026Y-131791928D02*
X115105884Y-131791928D01*
X115105884Y-131791928D02*
X114963026Y-131720500D01*
X114963026Y-131720500D02*
X114891598Y-131577642D01*
X114891598Y-131577642D02*
X114891598Y-131434785D01*
X114891598Y-131434785D02*
X114963026Y-131291928D01*
X114963026Y-131291928D02*
X115105884Y-131220500D01*
X115105884Y-131220500D02*
X115463026Y-131220500D01*
X115463026Y-131220500D02*
X115605884Y-131149071D01*
X116105884Y-130791928D02*
X116677312Y-130791928D01*
X116320169Y-130291928D02*
X116320169Y-131577642D01*
X116320169Y-131577642D02*
X116391598Y-131720500D01*
X116391598Y-131720500D02*
X116534455Y-131791928D01*
X116534455Y-131791928D02*
X116677312Y-131791928D01*
X117748741Y-131720500D02*
X117605884Y-131791928D01*
X117605884Y-131791928D02*
X117320170Y-131791928D01*
X117320170Y-131791928D02*
X117177312Y-131720500D01*
X117177312Y-131720500D02*
X117105884Y-131577642D01*
X117105884Y-131577642D02*
X117105884Y-131006214D01*
X117105884Y-131006214D02*
X117177312Y-130863357D01*
X117177312Y-130863357D02*
X117320170Y-130791928D01*
X117320170Y-130791928D02*
X117605884Y-130791928D01*
X117605884Y-130791928D02*
X117748741Y-130863357D01*
X117748741Y-130863357D02*
X117820170Y-131006214D01*
X117820170Y-131006214D02*
X117820170Y-131149071D01*
X117820170Y-131149071D02*
X117105884Y-131291928D01*
X118463026Y-131649071D02*
X118534455Y-131720500D01*
X118534455Y-131720500D02*
X118463026Y-131791928D01*
X118463026Y-131791928D02*
X118391598Y-131720500D01*
X118391598Y-131720500D02*
X118463026Y-131649071D01*
X118463026Y-131649071D02*
X118463026Y-131791928D01*
X118463026Y-130863357D02*
X118534455Y-130934785D01*
X118534455Y-130934785D02*
X118463026Y-131006214D01*
X118463026Y-131006214D02*
X118391598Y-130934785D01*
X118391598Y-130934785D02*
X118463026Y-130863357D01*
X118463026Y-130863357D02*
X118463026Y-131006214D01*
X90007200Y-132505800D02*
X198007200Y-132505800D01*
X91463026Y-134591928D02*
X91463026Y-133091928D01*
X92320169Y-134591928D02*
X91677312Y-133734785D01*
X92320169Y-133091928D02*
X91463026Y-133949071D01*
X92963026Y-134591928D02*
X92963026Y-133591928D01*
X92963026Y-133091928D02*
X92891598Y-133163357D01*
X92891598Y-133163357D02*
X92963026Y-133234785D01*
X92963026Y-133234785D02*
X93034455Y-133163357D01*
X93034455Y-133163357D02*
X92963026Y-133091928D01*
X92963026Y-133091928D02*
X92963026Y-133234785D01*
X94534455Y-134449071D02*
X94463027Y-134520500D01*
X94463027Y-134520500D02*
X94248741Y-134591928D01*
X94248741Y-134591928D02*
X94105884Y-134591928D01*
X94105884Y-134591928D02*
X93891598Y-134520500D01*
X93891598Y-134520500D02*
X93748741Y-134377642D01*
X93748741Y-134377642D02*
X93677312Y-134234785D01*
X93677312Y-134234785D02*
X93605884Y-133949071D01*
X93605884Y-133949071D02*
X93605884Y-133734785D01*
X93605884Y-133734785D02*
X93677312Y-133449071D01*
X93677312Y-133449071D02*
X93748741Y-133306214D01*
X93748741Y-133306214D02*
X93891598Y-133163357D01*
X93891598Y-133163357D02*
X94105884Y-133091928D01*
X94105884Y-133091928D02*
X94248741Y-133091928D01*
X94248741Y-133091928D02*
X94463027Y-133163357D01*
X94463027Y-133163357D02*
X94534455Y-133234785D01*
X95820170Y-134591928D02*
X95820170Y-133806214D01*
X95820170Y-133806214D02*
X95748741Y-133663357D01*
X95748741Y-133663357D02*
X95605884Y-133591928D01*
X95605884Y-133591928D02*
X95320170Y-133591928D01*
X95320170Y-133591928D02*
X95177312Y-133663357D01*
X95820170Y-134520500D02*
X95677312Y-134591928D01*
X95677312Y-134591928D02*
X95320170Y-134591928D01*
X95320170Y-134591928D02*
X95177312Y-134520500D01*
X95177312Y-134520500D02*
X95105884Y-134377642D01*
X95105884Y-134377642D02*
X95105884Y-134234785D01*
X95105884Y-134234785D02*
X95177312Y-134091928D01*
X95177312Y-134091928D02*
X95320170Y-134020500D01*
X95320170Y-134020500D02*
X95677312Y-134020500D01*
X95677312Y-134020500D02*
X95820170Y-133949071D01*
X97177313Y-134591928D02*
X97177313Y-133091928D01*
X97177313Y-134520500D02*
X97034455Y-134591928D01*
X97034455Y-134591928D02*
X96748741Y-134591928D01*
X96748741Y-134591928D02*
X96605884Y-134520500D01*
X96605884Y-134520500D02*
X96534455Y-134449071D01*
X96534455Y-134449071D02*
X96463027Y-134306214D01*
X96463027Y-134306214D02*
X96463027Y-133877642D01*
X96463027Y-133877642D02*
X96534455Y-133734785D01*
X96534455Y-133734785D02*
X96605884Y-133663357D01*
X96605884Y-133663357D02*
X96748741Y-133591928D01*
X96748741Y-133591928D02*
X97034455Y-133591928D01*
X97034455Y-133591928D02*
X97177313Y-133663357D01*
X99034455Y-133806214D02*
X99534455Y-133806214D01*
X99748741Y-134591928D02*
X99034455Y-134591928D01*
X99034455Y-134591928D02*
X99034455Y-133091928D01*
X99034455Y-133091928D02*
X99748741Y-133091928D01*
X100391598Y-134449071D02*
X100463027Y-134520500D01*
X100463027Y-134520500D02*
X100391598Y-134591928D01*
X100391598Y-134591928D02*
X100320170Y-134520500D01*
X100320170Y-134520500D02*
X100391598Y-134449071D01*
X100391598Y-134449071D02*
X100391598Y-134591928D01*
X101105884Y-134591928D02*
X101105884Y-133091928D01*
X101105884Y-133091928D02*
X101463027Y-133091928D01*
X101463027Y-133091928D02*
X101677313Y-133163357D01*
X101677313Y-133163357D02*
X101820170Y-133306214D01*
X101820170Y-133306214D02*
X101891599Y-133449071D01*
X101891599Y-133449071D02*
X101963027Y-133734785D01*
X101963027Y-133734785D02*
X101963027Y-133949071D01*
X101963027Y-133949071D02*
X101891599Y-134234785D01*
X101891599Y-134234785D02*
X101820170Y-134377642D01*
X101820170Y-134377642D02*
X101677313Y-134520500D01*
X101677313Y-134520500D02*
X101463027Y-134591928D01*
X101463027Y-134591928D02*
X101105884Y-134591928D01*
X102605884Y-134449071D02*
X102677313Y-134520500D01*
X102677313Y-134520500D02*
X102605884Y-134591928D01*
X102605884Y-134591928D02*
X102534456Y-134520500D01*
X102534456Y-134520500D02*
X102605884Y-134449071D01*
X102605884Y-134449071D02*
X102605884Y-134591928D01*
X103248742Y-134163357D02*
X103963028Y-134163357D01*
X103105885Y-134591928D02*
X103605885Y-133091928D01*
X103605885Y-133091928D02*
X104105885Y-134591928D01*
X104605884Y-134449071D02*
X104677313Y-134520500D01*
X104677313Y-134520500D02*
X104605884Y-134591928D01*
X104605884Y-134591928D02*
X104534456Y-134520500D01*
X104534456Y-134520500D02*
X104605884Y-134449071D01*
X104605884Y-134449071D02*
X104605884Y-134591928D01*
X107248742Y-134591928D02*
X106391599Y-134591928D01*
X106820170Y-134591928D02*
X106820170Y-133091928D01*
X106820170Y-133091928D02*
X106677313Y-133306214D01*
X106677313Y-133306214D02*
X106534456Y-133449071D01*
X106534456Y-133449071D02*
X106391599Y-133520500D01*
X108177313Y-133091928D02*
X108320170Y-133091928D01*
X108320170Y-133091928D02*
X108463027Y-133163357D01*
X108463027Y-133163357D02*
X108534456Y-133234785D01*
X108534456Y-133234785D02*
X108605884Y-133377642D01*
X108605884Y-133377642D02*
X108677313Y-133663357D01*
X108677313Y-133663357D02*
X108677313Y-134020500D01*
X108677313Y-134020500D02*
X108605884Y-134306214D01*
X108605884Y-134306214D02*
X108534456Y-134449071D01*
X108534456Y-134449071D02*
X108463027Y-134520500D01*
X108463027Y-134520500D02*
X108320170Y-134591928D01*
X108320170Y-134591928D02*
X108177313Y-134591928D01*
X108177313Y-134591928D02*
X108034456Y-134520500D01*
X108034456Y-134520500D02*
X107963027Y-134449071D01*
X107963027Y-134449071D02*
X107891598Y-134306214D01*
X107891598Y-134306214D02*
X107820170Y-134020500D01*
X107820170Y-134020500D02*
X107820170Y-133663357D01*
X107820170Y-133663357D02*
X107891598Y-133377642D01*
X107891598Y-133377642D02*
X107963027Y-133234785D01*
X107963027Y-133234785D02*
X108034456Y-133163357D01*
X108034456Y-133163357D02*
X108177313Y-133091928D01*
X109320169Y-134449071D02*
X109391598Y-134520500D01*
X109391598Y-134520500D02*
X109320169Y-134591928D01*
X109320169Y-134591928D02*
X109248741Y-134520500D01*
X109248741Y-134520500D02*
X109320169Y-134449071D01*
X109320169Y-134449071D02*
X109320169Y-134591928D01*
X110320170Y-133091928D02*
X110463027Y-133091928D01*
X110463027Y-133091928D02*
X110605884Y-133163357D01*
X110605884Y-133163357D02*
X110677313Y-133234785D01*
X110677313Y-133234785D02*
X110748741Y-133377642D01*
X110748741Y-133377642D02*
X110820170Y-133663357D01*
X110820170Y-133663357D02*
X110820170Y-134020500D01*
X110820170Y-134020500D02*
X110748741Y-134306214D01*
X110748741Y-134306214D02*
X110677313Y-134449071D01*
X110677313Y-134449071D02*
X110605884Y-134520500D01*
X110605884Y-134520500D02*
X110463027Y-134591928D01*
X110463027Y-134591928D02*
X110320170Y-134591928D01*
X110320170Y-134591928D02*
X110177313Y-134520500D01*
X110177313Y-134520500D02*
X110105884Y-134449071D01*
X110105884Y-134449071D02*
X110034455Y-134306214D01*
X110034455Y-134306214D02*
X109963027Y-134020500D01*
X109963027Y-134020500D02*
X109963027Y-133663357D01*
X109963027Y-133663357D02*
X110034455Y-133377642D01*
X110034455Y-133377642D02*
X110105884Y-133234785D01*
X110105884Y-133234785D02*
X110177313Y-133163357D01*
X110177313Y-133163357D02*
X110320170Y-133091928D01*
X111463026Y-134449071D02*
X111534455Y-134520500D01*
X111534455Y-134520500D02*
X111463026Y-134591928D01*
X111463026Y-134591928D02*
X111391598Y-134520500D01*
X111391598Y-134520500D02*
X111463026Y-134449071D01*
X111463026Y-134449071D02*
X111463026Y-134591928D01*
X112963027Y-134591928D02*
X112105884Y-134591928D01*
X112534455Y-134591928D02*
X112534455Y-133091928D01*
X112534455Y-133091928D02*
X112391598Y-133306214D01*
X112391598Y-133306214D02*
X112248741Y-133449071D01*
X112248741Y-133449071D02*
X112105884Y-133520500D01*
X90007200Y-129505800D02*
X198007200Y-129505800D01*
D11*
X177418853Y-131784128D02*
X176918853Y-131069842D01*
X176561710Y-131784128D02*
X176561710Y-130284128D01*
X176561710Y-130284128D02*
X177133139Y-130284128D01*
X177133139Y-130284128D02*
X177275996Y-130355557D01*
X177275996Y-130355557D02*
X177347425Y-130426985D01*
X177347425Y-130426985D02*
X177418853Y-130569842D01*
X177418853Y-130569842D02*
X177418853Y-130784128D01*
X177418853Y-130784128D02*
X177347425Y-130926985D01*
X177347425Y-130926985D02*
X177275996Y-130998414D01*
X177275996Y-130998414D02*
X177133139Y-131069842D01*
X177133139Y-131069842D02*
X176561710Y-131069842D01*
X178633139Y-131712700D02*
X178490282Y-131784128D01*
X178490282Y-131784128D02*
X178204568Y-131784128D01*
X178204568Y-131784128D02*
X178061710Y-131712700D01*
X178061710Y-131712700D02*
X177990282Y-131569842D01*
X177990282Y-131569842D02*
X177990282Y-130998414D01*
X177990282Y-130998414D02*
X178061710Y-130855557D01*
X178061710Y-130855557D02*
X178204568Y-130784128D01*
X178204568Y-130784128D02*
X178490282Y-130784128D01*
X178490282Y-130784128D02*
X178633139Y-130855557D01*
X178633139Y-130855557D02*
X178704568Y-130998414D01*
X178704568Y-130998414D02*
X178704568Y-131141271D01*
X178704568Y-131141271D02*
X177990282Y-131284128D01*
X179204567Y-130784128D02*
X179561710Y-131784128D01*
X179561710Y-131784128D02*
X179918853Y-130784128D01*
X180490281Y-131641271D02*
X180561710Y-131712700D01*
X180561710Y-131712700D02*
X180490281Y-131784128D01*
X180490281Y-131784128D02*
X180418853Y-131712700D01*
X180418853Y-131712700D02*
X180490281Y-131641271D01*
X180490281Y-131641271D02*
X180490281Y-131784128D01*
X180490281Y-130855557D02*
X180561710Y-130926985D01*
X180561710Y-130926985D02*
X180490281Y-130998414D01*
X180490281Y-130998414D02*
X180418853Y-130926985D01*
X180418853Y-130926985D02*
X180490281Y-130855557D01*
X180490281Y-130855557D02*
X180490281Y-130998414D01*
D10*
X91391598Y-131720500D02*
X91605884Y-131791928D01*
X91605884Y-131791928D02*
X91963026Y-131791928D01*
X91963026Y-131791928D02*
X92105884Y-131720500D01*
X92105884Y-131720500D02*
X92177312Y-131649071D01*
X92177312Y-131649071D02*
X92248741Y-131506214D01*
X92248741Y-131506214D02*
X92248741Y-131363357D01*
X92248741Y-131363357D02*
X92177312Y-131220500D01*
X92177312Y-131220500D02*
X92105884Y-131149071D01*
X92105884Y-131149071D02*
X91963026Y-131077642D01*
X91963026Y-131077642D02*
X91677312Y-131006214D01*
X91677312Y-131006214D02*
X91534455Y-130934785D01*
X91534455Y-130934785D02*
X91463026Y-130863357D01*
X91463026Y-130863357D02*
X91391598Y-130720500D01*
X91391598Y-130720500D02*
X91391598Y-130577642D01*
X91391598Y-130577642D02*
X91463026Y-130434785D01*
X91463026Y-130434785D02*
X91534455Y-130363357D01*
X91534455Y-130363357D02*
X91677312Y-130291928D01*
X91677312Y-130291928D02*
X92034455Y-130291928D01*
X92034455Y-130291928D02*
X92248741Y-130363357D01*
X92891597Y-131791928D02*
X92891597Y-130791928D01*
X92891597Y-130291928D02*
X92820169Y-130363357D01*
X92820169Y-130363357D02*
X92891597Y-130434785D01*
X92891597Y-130434785D02*
X92963026Y-130363357D01*
X92963026Y-130363357D02*
X92891597Y-130291928D01*
X92891597Y-130291928D02*
X92891597Y-130434785D01*
X93463026Y-130791928D02*
X94248741Y-130791928D01*
X94248741Y-130791928D02*
X93463026Y-131791928D01*
X93463026Y-131791928D02*
X94248741Y-131791928D01*
X95391598Y-131720500D02*
X95248741Y-131791928D01*
X95248741Y-131791928D02*
X94963027Y-131791928D01*
X94963027Y-131791928D02*
X94820169Y-131720500D01*
X94820169Y-131720500D02*
X94748741Y-131577642D01*
X94748741Y-131577642D02*
X94748741Y-131006214D01*
X94748741Y-131006214D02*
X94820169Y-130863357D01*
X94820169Y-130863357D02*
X94963027Y-130791928D01*
X94963027Y-130791928D02*
X95248741Y-130791928D01*
X95248741Y-130791928D02*
X95391598Y-130863357D01*
X95391598Y-130863357D02*
X95463027Y-131006214D01*
X95463027Y-131006214D02*
X95463027Y-131149071D01*
X95463027Y-131149071D02*
X94748741Y-131291928D01*
X96105883Y-131649071D02*
X96177312Y-131720500D01*
X96177312Y-131720500D02*
X96105883Y-131791928D01*
X96105883Y-131791928D02*
X96034455Y-131720500D01*
X96034455Y-131720500D02*
X96105883Y-131649071D01*
X96105883Y-131649071D02*
X96105883Y-131791928D01*
X96105883Y-130863357D02*
X96177312Y-130934785D01*
X96177312Y-130934785D02*
X96105883Y-131006214D01*
X96105883Y-131006214D02*
X96034455Y-130934785D01*
X96034455Y-130934785D02*
X96105883Y-130863357D01*
X96105883Y-130863357D02*
X96105883Y-131006214D01*
X97891598Y-131363357D02*
X98605884Y-131363357D01*
X97748741Y-131791928D02*
X98248741Y-130291928D01*
X98248741Y-130291928D02*
X98748741Y-131791928D01*
X99963026Y-130291928D02*
X99248740Y-130291928D01*
X99248740Y-130291928D02*
X99177312Y-131006214D01*
X99177312Y-131006214D02*
X99248740Y-130934785D01*
X99248740Y-130934785D02*
X99391598Y-130863357D01*
X99391598Y-130863357D02*
X99748740Y-130863357D01*
X99748740Y-130863357D02*
X99891598Y-130934785D01*
X99891598Y-130934785D02*
X99963026Y-131006214D01*
X99963026Y-131006214D02*
X100034455Y-131149071D01*
X100034455Y-131149071D02*
X100034455Y-131506214D01*
X100034455Y-131506214D02*
X99963026Y-131649071D01*
X99963026Y-131649071D02*
X99891598Y-131720500D01*
X99891598Y-131720500D02*
X99748740Y-131791928D01*
X99748740Y-131791928D02*
X99391598Y-131791928D01*
X99391598Y-131791928D02*
X99248740Y-131720500D01*
X99248740Y-131720500D02*
X99177312Y-131649071D01*
X176463026Y-134591928D02*
X176463026Y-133091928D01*
X177820170Y-134591928D02*
X177820170Y-133091928D01*
X177820170Y-134520500D02*
X177677312Y-134591928D01*
X177677312Y-134591928D02*
X177391598Y-134591928D01*
X177391598Y-134591928D02*
X177248741Y-134520500D01*
X177248741Y-134520500D02*
X177177312Y-134449071D01*
X177177312Y-134449071D02*
X177105884Y-134306214D01*
X177105884Y-134306214D02*
X177105884Y-133877642D01*
X177105884Y-133877642D02*
X177177312Y-133734785D01*
X177177312Y-133734785D02*
X177248741Y-133663357D01*
X177248741Y-133663357D02*
X177391598Y-133591928D01*
X177391598Y-133591928D02*
X177677312Y-133591928D01*
X177677312Y-133591928D02*
X177820170Y-133663357D01*
X178534455Y-134449071D02*
X178605884Y-134520500D01*
X178605884Y-134520500D02*
X178534455Y-134591928D01*
X178534455Y-134591928D02*
X178463027Y-134520500D01*
X178463027Y-134520500D02*
X178534455Y-134449071D01*
X178534455Y-134449071D02*
X178534455Y-134591928D01*
X178534455Y-133663357D02*
X178605884Y-133734785D01*
X178605884Y-133734785D02*
X178534455Y-133806214D01*
X178534455Y-133806214D02*
X178463027Y-133734785D01*
X178463027Y-133734785D02*
X178534455Y-133663357D01*
X178534455Y-133663357D02*
X178534455Y-133806214D01*
X180605884Y-133734785D02*
X180463027Y-133663357D01*
X180463027Y-133663357D02*
X180391598Y-133591928D01*
X180391598Y-133591928D02*
X180320170Y-133449071D01*
X180320170Y-133449071D02*
X180320170Y-133377642D01*
X180320170Y-133377642D02*
X180391598Y-133234785D01*
X180391598Y-133234785D02*
X180463027Y-133163357D01*
X180463027Y-133163357D02*
X180605884Y-133091928D01*
X180605884Y-133091928D02*
X180891598Y-133091928D01*
X180891598Y-133091928D02*
X181034456Y-133163357D01*
X181034456Y-133163357D02*
X181105884Y-133234785D01*
X181105884Y-133234785D02*
X181177313Y-133377642D01*
X181177313Y-133377642D02*
X181177313Y-133449071D01*
X181177313Y-133449071D02*
X181105884Y-133591928D01*
X181105884Y-133591928D02*
X181034456Y-133663357D01*
X181034456Y-133663357D02*
X180891598Y-133734785D01*
X180891598Y-133734785D02*
X180605884Y-133734785D01*
X180605884Y-133734785D02*
X180463027Y-133806214D01*
X180463027Y-133806214D02*
X180391598Y-133877642D01*
X180391598Y-133877642D02*
X180320170Y-134020500D01*
X180320170Y-134020500D02*
X180320170Y-134306214D01*
X180320170Y-134306214D02*
X180391598Y-134449071D01*
X180391598Y-134449071D02*
X180463027Y-134520500D01*
X180463027Y-134520500D02*
X180605884Y-134591928D01*
X180605884Y-134591928D02*
X180891598Y-134591928D01*
X180891598Y-134591928D02*
X181034456Y-134520500D01*
X181034456Y-134520500D02*
X181105884Y-134449071D01*
X181105884Y-134449071D02*
X181177313Y-134306214D01*
X181177313Y-134306214D02*
X181177313Y-134020500D01*
X181177313Y-134020500D02*
X181105884Y-133877642D01*
X181105884Y-133877642D02*
X181034456Y-133806214D01*
X181034456Y-133806214D02*
X180891598Y-133734785D01*
X182891598Y-133020500D02*
X181605884Y-134949071D01*
X183605884Y-133734785D02*
X183463027Y-133663357D01*
X183463027Y-133663357D02*
X183391598Y-133591928D01*
X183391598Y-133591928D02*
X183320170Y-133449071D01*
X183320170Y-133449071D02*
X183320170Y-133377642D01*
X183320170Y-133377642D02*
X183391598Y-133234785D01*
X183391598Y-133234785D02*
X183463027Y-133163357D01*
X183463027Y-133163357D02*
X183605884Y-133091928D01*
X183605884Y-133091928D02*
X183891598Y-133091928D01*
X183891598Y-133091928D02*
X184034456Y-133163357D01*
X184034456Y-133163357D02*
X184105884Y-133234785D01*
X184105884Y-133234785D02*
X184177313Y-133377642D01*
X184177313Y-133377642D02*
X184177313Y-133449071D01*
X184177313Y-133449071D02*
X184105884Y-133591928D01*
X184105884Y-133591928D02*
X184034456Y-133663357D01*
X184034456Y-133663357D02*
X183891598Y-133734785D01*
X183891598Y-133734785D02*
X183605884Y-133734785D01*
X183605884Y-133734785D02*
X183463027Y-133806214D01*
X183463027Y-133806214D02*
X183391598Y-133877642D01*
X183391598Y-133877642D02*
X183320170Y-134020500D01*
X183320170Y-134020500D02*
X183320170Y-134306214D01*
X183320170Y-134306214D02*
X183391598Y-134449071D01*
X183391598Y-134449071D02*
X183463027Y-134520500D01*
X183463027Y-134520500D02*
X183605884Y-134591928D01*
X183605884Y-134591928D02*
X183891598Y-134591928D01*
X183891598Y-134591928D02*
X184034456Y-134520500D01*
X184034456Y-134520500D02*
X184105884Y-134449071D01*
X184105884Y-134449071D02*
X184177313Y-134306214D01*
X184177313Y-134306214D02*
X184177313Y-134020500D01*
X184177313Y-134020500D02*
X184105884Y-133877642D01*
X184105884Y-133877642D02*
X184034456Y-133806214D01*
X184034456Y-133806214D02*
X183891598Y-133734785D01*
X90007200Y-125505800D02*
X198007200Y-125505800D01*
D12*
X91698928Y-126210238D02*
X92841785Y-126210238D01*
X92020357Y-128210238D02*
X92270357Y-126210238D01*
X93258452Y-128210238D02*
X93425119Y-126876904D01*
X93508452Y-126210238D02*
X93401309Y-126305476D01*
X93401309Y-126305476D02*
X93484643Y-126400714D01*
X93484643Y-126400714D02*
X93591786Y-126305476D01*
X93591786Y-126305476D02*
X93508452Y-126210238D01*
X93508452Y-126210238D02*
X93484643Y-126400714D01*
X94091786Y-126876904D02*
X94853690Y-126876904D01*
X94460833Y-126210238D02*
X94246548Y-127924523D01*
X94246548Y-127924523D02*
X94317976Y-128115000D01*
X94317976Y-128115000D02*
X94496548Y-128210238D01*
X94496548Y-128210238D02*
X94687024Y-128210238D01*
X95639405Y-128210238D02*
X95460833Y-128115000D01*
X95460833Y-128115000D02*
X95389405Y-127924523D01*
X95389405Y-127924523D02*
X95603690Y-126210238D01*
X97175119Y-128115000D02*
X96972738Y-128210238D01*
X96972738Y-128210238D02*
X96591785Y-128210238D01*
X96591785Y-128210238D02*
X96413214Y-128115000D01*
X96413214Y-128115000D02*
X96341785Y-127924523D01*
X96341785Y-127924523D02*
X96437024Y-127162619D01*
X96437024Y-127162619D02*
X96556071Y-126972142D01*
X96556071Y-126972142D02*
X96758452Y-126876904D01*
X96758452Y-126876904D02*
X97139404Y-126876904D01*
X97139404Y-126876904D02*
X97317976Y-126972142D01*
X97317976Y-126972142D02*
X97389404Y-127162619D01*
X97389404Y-127162619D02*
X97365595Y-127353095D01*
X97365595Y-127353095D02*
X96389404Y-127543571D01*
X98139405Y-128019761D02*
X98222738Y-128115000D01*
X98222738Y-128115000D02*
X98115595Y-128210238D01*
X98115595Y-128210238D02*
X98032262Y-128115000D01*
X98032262Y-128115000D02*
X98139405Y-128019761D01*
X98139405Y-128019761D02*
X98115595Y-128210238D01*
X98270357Y-126972142D02*
X98353690Y-127067380D01*
X98353690Y-127067380D02*
X98246548Y-127162619D01*
X98246548Y-127162619D02*
X98163214Y-127067380D01*
X98163214Y-127067380D02*
X98270357Y-126972142D01*
X98270357Y-126972142D02*
X98246548Y-127162619D01*
X100591786Y-128210238D02*
X100841786Y-126210238D01*
X100722739Y-127162619D02*
X101865596Y-127162619D01*
X101734643Y-128210238D02*
X101984643Y-126210238D01*
X102972739Y-128210238D02*
X102794167Y-128115000D01*
X102794167Y-128115000D02*
X102710834Y-128019761D01*
X102710834Y-128019761D02*
X102639405Y-127829285D01*
X102639405Y-127829285D02*
X102710834Y-127257857D01*
X102710834Y-127257857D02*
X102829881Y-127067380D01*
X102829881Y-127067380D02*
X102937024Y-126972142D01*
X102937024Y-126972142D02*
X103139405Y-126876904D01*
X103139405Y-126876904D02*
X103425119Y-126876904D01*
X103425119Y-126876904D02*
X103603691Y-126972142D01*
X103603691Y-126972142D02*
X103687024Y-127067380D01*
X103687024Y-127067380D02*
X103758453Y-127257857D01*
X103758453Y-127257857D02*
X103687024Y-127829285D01*
X103687024Y-127829285D02*
X103567977Y-128019761D01*
X103567977Y-128019761D02*
X103460834Y-128115000D01*
X103460834Y-128115000D02*
X103258453Y-128210238D01*
X103258453Y-128210238D02*
X102972739Y-128210238D01*
X104782263Y-128210238D02*
X104603691Y-128115000D01*
X104603691Y-128115000D02*
X104532263Y-127924523D01*
X104532263Y-127924523D02*
X104746548Y-126210238D01*
X105520358Y-126876904D02*
X105829882Y-128210238D01*
X106472739Y-126876904D02*
X105829882Y-128210238D01*
X105829882Y-128210238D02*
X105579882Y-128686428D01*
X105579882Y-128686428D02*
X105472739Y-128781666D01*
X105472739Y-128781666D02*
X105270358Y-128876904D01*
X109877502Y-126305476D02*
X109698930Y-126210238D01*
X109698930Y-126210238D02*
X109413216Y-126210238D01*
X109413216Y-126210238D02*
X109115597Y-126305476D01*
X109115597Y-126305476D02*
X108901311Y-126495952D01*
X108901311Y-126495952D02*
X108782263Y-126686428D01*
X108782263Y-126686428D02*
X108639406Y-127067380D01*
X108639406Y-127067380D02*
X108603692Y-127353095D01*
X108603692Y-127353095D02*
X108651311Y-127734047D01*
X108651311Y-127734047D02*
X108722740Y-127924523D01*
X108722740Y-127924523D02*
X108889406Y-128115000D01*
X108889406Y-128115000D02*
X109163216Y-128210238D01*
X109163216Y-128210238D02*
X109353692Y-128210238D01*
X109353692Y-128210238D02*
X109651311Y-128115000D01*
X109651311Y-128115000D02*
X109758454Y-128019761D01*
X109758454Y-128019761D02*
X109841787Y-127353095D01*
X109841787Y-127353095D02*
X109460835Y-127353095D01*
X110591787Y-128210238D02*
X110758454Y-126876904D01*
X110710835Y-127257857D02*
X110829882Y-127067380D01*
X110829882Y-127067380D02*
X110937025Y-126972142D01*
X110937025Y-126972142D02*
X111139406Y-126876904D01*
X111139406Y-126876904D02*
X111329882Y-126876904D01*
X112687025Y-128210238D02*
X112817977Y-127162619D01*
X112817977Y-127162619D02*
X112746549Y-126972142D01*
X112746549Y-126972142D02*
X112567977Y-126876904D01*
X112567977Y-126876904D02*
X112187025Y-126876904D01*
X112187025Y-126876904D02*
X111984644Y-126972142D01*
X112698930Y-128115000D02*
X112496549Y-128210238D01*
X112496549Y-128210238D02*
X112020358Y-128210238D01*
X112020358Y-128210238D02*
X111841787Y-128115000D01*
X111841787Y-128115000D02*
X111770358Y-127924523D01*
X111770358Y-127924523D02*
X111794168Y-127734047D01*
X111794168Y-127734047D02*
X111913216Y-127543571D01*
X111913216Y-127543571D02*
X112115597Y-127448333D01*
X112115597Y-127448333D02*
X112591787Y-127448333D01*
X112591787Y-127448333D02*
X112794168Y-127353095D01*
X113639406Y-128210238D02*
X113806073Y-126876904D01*
X113889406Y-126210238D02*
X113782263Y-126305476D01*
X113782263Y-126305476D02*
X113865597Y-126400714D01*
X113865597Y-126400714D02*
X113972740Y-126305476D01*
X113972740Y-126305476D02*
X113889406Y-126210238D01*
X113889406Y-126210238D02*
X113865597Y-126400714D01*
X114877502Y-128210238D02*
X114698930Y-128115000D01*
X114698930Y-128115000D02*
X114627502Y-127924523D01*
X114627502Y-127924523D02*
X114841787Y-126210238D01*
D10*
X91963026Y-123606214D02*
X91463026Y-123606214D01*
X91463026Y-124391928D02*
X91463026Y-122891928D01*
X91463026Y-122891928D02*
X92177312Y-122891928D01*
X92748740Y-124391928D02*
X92748740Y-123391928D01*
X92748740Y-122891928D02*
X92677312Y-122963357D01*
X92677312Y-122963357D02*
X92748740Y-123034785D01*
X92748740Y-123034785D02*
X92820169Y-122963357D01*
X92820169Y-122963357D02*
X92748740Y-122891928D01*
X92748740Y-122891928D02*
X92748740Y-123034785D01*
X93677312Y-124391928D02*
X93534455Y-124320500D01*
X93534455Y-124320500D02*
X93463026Y-124177642D01*
X93463026Y-124177642D02*
X93463026Y-122891928D01*
X94820169Y-124320500D02*
X94677312Y-124391928D01*
X94677312Y-124391928D02*
X94391598Y-124391928D01*
X94391598Y-124391928D02*
X94248740Y-124320500D01*
X94248740Y-124320500D02*
X94177312Y-124177642D01*
X94177312Y-124177642D02*
X94177312Y-123606214D01*
X94177312Y-123606214D02*
X94248740Y-123463357D01*
X94248740Y-123463357D02*
X94391598Y-123391928D01*
X94391598Y-123391928D02*
X94677312Y-123391928D01*
X94677312Y-123391928D02*
X94820169Y-123463357D01*
X94820169Y-123463357D02*
X94891598Y-123606214D01*
X94891598Y-123606214D02*
X94891598Y-123749071D01*
X94891598Y-123749071D02*
X94177312Y-123891928D01*
X95534454Y-124249071D02*
X95605883Y-124320500D01*
X95605883Y-124320500D02*
X95534454Y-124391928D01*
X95534454Y-124391928D02*
X95463026Y-124320500D01*
X95463026Y-124320500D02*
X95534454Y-124249071D01*
X95534454Y-124249071D02*
X95534454Y-124391928D01*
X95534454Y-123463357D02*
X95605883Y-123534785D01*
X95605883Y-123534785D02*
X95534454Y-123606214D01*
X95534454Y-123606214D02*
X95463026Y-123534785D01*
X95463026Y-123534785D02*
X95534454Y-123463357D01*
X95534454Y-123463357D02*
X95534454Y-123606214D01*
X97391597Y-124391928D02*
X97391597Y-122891928D01*
X97391597Y-122891928D02*
X97748740Y-122891928D01*
X97748740Y-122891928D02*
X97963026Y-122963357D01*
X97963026Y-122963357D02*
X98105883Y-123106214D01*
X98105883Y-123106214D02*
X98177312Y-123249071D01*
X98177312Y-123249071D02*
X98248740Y-123534785D01*
X98248740Y-123534785D02*
X98248740Y-123749071D01*
X98248740Y-123749071D02*
X98177312Y-124034785D01*
X98177312Y-124034785D02*
X98105883Y-124177642D01*
X98105883Y-124177642D02*
X97963026Y-124320500D01*
X97963026Y-124320500D02*
X97748740Y-124391928D01*
X97748740Y-124391928D02*
X97391597Y-124391928D01*
X99534455Y-124391928D02*
X99534455Y-123606214D01*
X99534455Y-123606214D02*
X99463026Y-123463357D01*
X99463026Y-123463357D02*
X99320169Y-123391928D01*
X99320169Y-123391928D02*
X99034455Y-123391928D01*
X99034455Y-123391928D02*
X98891597Y-123463357D01*
X99534455Y-124320500D02*
X99391597Y-124391928D01*
X99391597Y-124391928D02*
X99034455Y-124391928D01*
X99034455Y-124391928D02*
X98891597Y-124320500D01*
X98891597Y-124320500D02*
X98820169Y-124177642D01*
X98820169Y-124177642D02*
X98820169Y-124034785D01*
X98820169Y-124034785D02*
X98891597Y-123891928D01*
X98891597Y-123891928D02*
X99034455Y-123820500D01*
X99034455Y-123820500D02*
X99391597Y-123820500D01*
X99391597Y-123820500D02*
X99534455Y-123749071D01*
X100248740Y-124391928D02*
X100248740Y-123391928D01*
X100248740Y-123677642D02*
X100320169Y-123534785D01*
X100320169Y-123534785D02*
X100391598Y-123463357D01*
X100391598Y-123463357D02*
X100534455Y-123391928D01*
X100534455Y-123391928D02*
X100677312Y-123391928D01*
X101177311Y-124391928D02*
X101177311Y-122891928D01*
X101320169Y-123820500D02*
X101748740Y-124391928D01*
X101748740Y-123391928D02*
X101177311Y-123963357D01*
X102391597Y-124391928D02*
X102391597Y-122891928D01*
X102391597Y-122891928D02*
X102891597Y-123963357D01*
X102891597Y-123963357D02*
X103391597Y-122891928D01*
X103391597Y-122891928D02*
X103391597Y-124391928D01*
X104748741Y-124391928D02*
X104748741Y-123606214D01*
X104748741Y-123606214D02*
X104677312Y-123463357D01*
X104677312Y-123463357D02*
X104534455Y-123391928D01*
X104534455Y-123391928D02*
X104248741Y-123391928D01*
X104248741Y-123391928D02*
X104105883Y-123463357D01*
X104748741Y-124320500D02*
X104605883Y-124391928D01*
X104605883Y-124391928D02*
X104248741Y-124391928D01*
X104248741Y-124391928D02*
X104105883Y-124320500D01*
X104105883Y-124320500D02*
X104034455Y-124177642D01*
X104034455Y-124177642D02*
X104034455Y-124034785D01*
X104034455Y-124034785D02*
X104105883Y-123891928D01*
X104105883Y-123891928D02*
X104248741Y-123820500D01*
X104248741Y-123820500D02*
X104605883Y-123820500D01*
X104605883Y-123820500D02*
X104748741Y-123749071D01*
X106105884Y-123391928D02*
X106105884Y-124606214D01*
X106105884Y-124606214D02*
X106034455Y-124749071D01*
X106034455Y-124749071D02*
X105963026Y-124820500D01*
X105963026Y-124820500D02*
X105820169Y-124891928D01*
X105820169Y-124891928D02*
X105605884Y-124891928D01*
X105605884Y-124891928D02*
X105463026Y-124820500D01*
X106105884Y-124320500D02*
X105963026Y-124391928D01*
X105963026Y-124391928D02*
X105677312Y-124391928D01*
X105677312Y-124391928D02*
X105534455Y-124320500D01*
X105534455Y-124320500D02*
X105463026Y-124249071D01*
X105463026Y-124249071D02*
X105391598Y-124106214D01*
X105391598Y-124106214D02*
X105391598Y-123677642D01*
X105391598Y-123677642D02*
X105463026Y-123534785D01*
X105463026Y-123534785D02*
X105534455Y-123463357D01*
X105534455Y-123463357D02*
X105677312Y-123391928D01*
X105677312Y-123391928D02*
X105963026Y-123391928D01*
X105963026Y-123391928D02*
X106105884Y-123463357D01*
X106820169Y-124391928D02*
X106820169Y-123391928D01*
X106820169Y-122891928D02*
X106748741Y-122963357D01*
X106748741Y-122963357D02*
X106820169Y-123034785D01*
X106820169Y-123034785D02*
X106891598Y-122963357D01*
X106891598Y-122963357D02*
X106820169Y-122891928D01*
X106820169Y-122891928D02*
X106820169Y-123034785D01*
X108177313Y-124320500D02*
X108034455Y-124391928D01*
X108034455Y-124391928D02*
X107748741Y-124391928D01*
X107748741Y-124391928D02*
X107605884Y-124320500D01*
X107605884Y-124320500D02*
X107534455Y-124249071D01*
X107534455Y-124249071D02*
X107463027Y-124106214D01*
X107463027Y-124106214D02*
X107463027Y-123677642D01*
X107463027Y-123677642D02*
X107534455Y-123534785D01*
X107534455Y-123534785D02*
X107605884Y-123463357D01*
X107605884Y-123463357D02*
X107748741Y-123391928D01*
X107748741Y-123391928D02*
X108034455Y-123391928D01*
X108034455Y-123391928D02*
X108177313Y-123463357D01*
X108820169Y-124249071D02*
X108891598Y-124320500D01*
X108891598Y-124320500D02*
X108820169Y-124391928D01*
X108820169Y-124391928D02*
X108748741Y-124320500D01*
X108748741Y-124320500D02*
X108820169Y-124249071D01*
X108820169Y-124249071D02*
X108820169Y-124391928D01*
X109534455Y-124391928D02*
X109534455Y-122891928D01*
X109677313Y-123820500D02*
X110105884Y-124391928D01*
X110105884Y-123391928D02*
X109534455Y-123963357D01*
X110748741Y-124391928D02*
X110748741Y-123391928D01*
X110748741Y-122891928D02*
X110677313Y-122963357D01*
X110677313Y-122963357D02*
X110748741Y-123034785D01*
X110748741Y-123034785D02*
X110820170Y-122963357D01*
X110820170Y-122963357D02*
X110748741Y-122891928D01*
X110748741Y-122891928D02*
X110748741Y-123034785D01*
X112105885Y-124320500D02*
X111963027Y-124391928D01*
X111963027Y-124391928D02*
X111677313Y-124391928D01*
X111677313Y-124391928D02*
X111534456Y-124320500D01*
X111534456Y-124320500D02*
X111463027Y-124249071D01*
X111463027Y-124249071D02*
X111391599Y-124106214D01*
X111391599Y-124106214D02*
X111391599Y-123677642D01*
X111391599Y-123677642D02*
X111463027Y-123534785D01*
X111463027Y-123534785D02*
X111534456Y-123463357D01*
X111534456Y-123463357D02*
X111677313Y-123391928D01*
X111677313Y-123391928D02*
X111963027Y-123391928D01*
X111963027Y-123391928D02*
X112105885Y-123463357D01*
X113391599Y-124391928D02*
X113391599Y-123606214D01*
X113391599Y-123606214D02*
X113320170Y-123463357D01*
X113320170Y-123463357D02*
X113177313Y-123391928D01*
X113177313Y-123391928D02*
X112891599Y-123391928D01*
X112891599Y-123391928D02*
X112748741Y-123463357D01*
X113391599Y-124320500D02*
X113248741Y-124391928D01*
X113248741Y-124391928D02*
X112891599Y-124391928D01*
X112891599Y-124391928D02*
X112748741Y-124320500D01*
X112748741Y-124320500D02*
X112677313Y-124177642D01*
X112677313Y-124177642D02*
X112677313Y-124034785D01*
X112677313Y-124034785D02*
X112748741Y-123891928D01*
X112748741Y-123891928D02*
X112891599Y-123820500D01*
X112891599Y-123820500D02*
X113248741Y-123820500D01*
X113248741Y-123820500D02*
X113391599Y-123749071D01*
X114748742Y-124391928D02*
X114748742Y-122891928D01*
X114748742Y-124320500D02*
X114605884Y-124391928D01*
X114605884Y-124391928D02*
X114320170Y-124391928D01*
X114320170Y-124391928D02*
X114177313Y-124320500D01*
X114177313Y-124320500D02*
X114105884Y-124249071D01*
X114105884Y-124249071D02*
X114034456Y-124106214D01*
X114034456Y-124106214D02*
X114034456Y-123677642D01*
X114034456Y-123677642D02*
X114105884Y-123534785D01*
X114105884Y-123534785D02*
X114177313Y-123463357D01*
X114177313Y-123463357D02*
X114320170Y-123391928D01*
X114320170Y-123391928D02*
X114605884Y-123391928D01*
X114605884Y-123391928D02*
X114748742Y-123463357D01*
X115105885Y-124534785D02*
X116248742Y-124534785D01*
X116605884Y-123391928D02*
X116605884Y-124891928D01*
X116605884Y-123463357D02*
X116748742Y-123391928D01*
X116748742Y-123391928D02*
X117034456Y-123391928D01*
X117034456Y-123391928D02*
X117177313Y-123463357D01*
X117177313Y-123463357D02*
X117248742Y-123534785D01*
X117248742Y-123534785D02*
X117320170Y-123677642D01*
X117320170Y-123677642D02*
X117320170Y-124106214D01*
X117320170Y-124106214D02*
X117248742Y-124249071D01*
X117248742Y-124249071D02*
X117177313Y-124320500D01*
X117177313Y-124320500D02*
X117034456Y-124391928D01*
X117034456Y-124391928D02*
X116748742Y-124391928D01*
X116748742Y-124391928D02*
X116605884Y-124320500D01*
X118605885Y-124320500D02*
X118463027Y-124391928D01*
X118463027Y-124391928D02*
X118177313Y-124391928D01*
X118177313Y-124391928D02*
X118034456Y-124320500D01*
X118034456Y-124320500D02*
X117963027Y-124249071D01*
X117963027Y-124249071D02*
X117891599Y-124106214D01*
X117891599Y-124106214D02*
X117891599Y-123677642D01*
X117891599Y-123677642D02*
X117963027Y-123534785D01*
X117963027Y-123534785D02*
X118034456Y-123463357D01*
X118034456Y-123463357D02*
X118177313Y-123391928D01*
X118177313Y-123391928D02*
X118463027Y-123391928D01*
X118463027Y-123391928D02*
X118605885Y-123463357D01*
X119248741Y-124391928D02*
X119248741Y-122891928D01*
X119248741Y-123463357D02*
X119391599Y-123391928D01*
X119391599Y-123391928D02*
X119677313Y-123391928D01*
X119677313Y-123391928D02*
X119820170Y-123463357D01*
X119820170Y-123463357D02*
X119891599Y-123534785D01*
X119891599Y-123534785D02*
X119963027Y-123677642D01*
X119963027Y-123677642D02*
X119963027Y-124106214D01*
X119963027Y-124106214D02*
X119891599Y-124249071D01*
X119891599Y-124249071D02*
X119820170Y-124320500D01*
X119820170Y-124320500D02*
X119677313Y-124391928D01*
X119677313Y-124391928D02*
X119391599Y-124391928D01*
X119391599Y-124391928D02*
X119248741Y-124320500D01*
X90007200Y-119505800D02*
X198007200Y-119505800D01*
X91391598Y-121620500D02*
X91605884Y-121691928D01*
X91605884Y-121691928D02*
X91963026Y-121691928D01*
X91963026Y-121691928D02*
X92105884Y-121620500D01*
X92105884Y-121620500D02*
X92177312Y-121549071D01*
X92177312Y-121549071D02*
X92248741Y-121406214D01*
X92248741Y-121406214D02*
X92248741Y-121263357D01*
X92248741Y-121263357D02*
X92177312Y-121120500D01*
X92177312Y-121120500D02*
X92105884Y-121049071D01*
X92105884Y-121049071D02*
X91963026Y-120977642D01*
X91963026Y-120977642D02*
X91677312Y-120906214D01*
X91677312Y-120906214D02*
X91534455Y-120834785D01*
X91534455Y-120834785D02*
X91463026Y-120763357D01*
X91463026Y-120763357D02*
X91391598Y-120620500D01*
X91391598Y-120620500D02*
X91391598Y-120477642D01*
X91391598Y-120477642D02*
X91463026Y-120334785D01*
X91463026Y-120334785D02*
X91534455Y-120263357D01*
X91534455Y-120263357D02*
X91677312Y-120191928D01*
X91677312Y-120191928D02*
X92034455Y-120191928D01*
X92034455Y-120191928D02*
X92248741Y-120263357D01*
X92891597Y-121691928D02*
X92891597Y-120191928D01*
X93534455Y-121691928D02*
X93534455Y-120906214D01*
X93534455Y-120906214D02*
X93463026Y-120763357D01*
X93463026Y-120763357D02*
X93320169Y-120691928D01*
X93320169Y-120691928D02*
X93105883Y-120691928D01*
X93105883Y-120691928D02*
X92963026Y-120763357D01*
X92963026Y-120763357D02*
X92891597Y-120834785D01*
X94820169Y-121620500D02*
X94677312Y-121691928D01*
X94677312Y-121691928D02*
X94391598Y-121691928D01*
X94391598Y-121691928D02*
X94248740Y-121620500D01*
X94248740Y-121620500D02*
X94177312Y-121477642D01*
X94177312Y-121477642D02*
X94177312Y-120906214D01*
X94177312Y-120906214D02*
X94248740Y-120763357D01*
X94248740Y-120763357D02*
X94391598Y-120691928D01*
X94391598Y-120691928D02*
X94677312Y-120691928D01*
X94677312Y-120691928D02*
X94820169Y-120763357D01*
X94820169Y-120763357D02*
X94891598Y-120906214D01*
X94891598Y-120906214D02*
X94891598Y-121049071D01*
X94891598Y-121049071D02*
X94177312Y-121191928D01*
X96105883Y-121620500D02*
X95963026Y-121691928D01*
X95963026Y-121691928D02*
X95677312Y-121691928D01*
X95677312Y-121691928D02*
X95534454Y-121620500D01*
X95534454Y-121620500D02*
X95463026Y-121477642D01*
X95463026Y-121477642D02*
X95463026Y-120906214D01*
X95463026Y-120906214D02*
X95534454Y-120763357D01*
X95534454Y-120763357D02*
X95677312Y-120691928D01*
X95677312Y-120691928D02*
X95963026Y-120691928D01*
X95963026Y-120691928D02*
X96105883Y-120763357D01*
X96105883Y-120763357D02*
X96177312Y-120906214D01*
X96177312Y-120906214D02*
X96177312Y-121049071D01*
X96177312Y-121049071D02*
X95463026Y-121191928D01*
X96605883Y-120691928D02*
X97177311Y-120691928D01*
X96820168Y-120191928D02*
X96820168Y-121477642D01*
X96820168Y-121477642D02*
X96891597Y-121620500D01*
X96891597Y-121620500D02*
X97034454Y-121691928D01*
X97034454Y-121691928D02*
X97177311Y-121691928D01*
X97677311Y-121549071D02*
X97748740Y-121620500D01*
X97748740Y-121620500D02*
X97677311Y-121691928D01*
X97677311Y-121691928D02*
X97605883Y-121620500D01*
X97605883Y-121620500D02*
X97677311Y-121549071D01*
X97677311Y-121549071D02*
X97677311Y-121691928D01*
X97677311Y-120763357D02*
X97748740Y-120834785D01*
X97748740Y-120834785D02*
X97677311Y-120906214D01*
X97677311Y-120906214D02*
X97605883Y-120834785D01*
X97605883Y-120834785D02*
X97677311Y-120763357D01*
X97677311Y-120763357D02*
X97677311Y-120906214D01*
D11*
X91347425Y-117184128D02*
X92204568Y-117184128D01*
X91775996Y-118684128D02*
X91775996Y-117184128D01*
X92704567Y-117898414D02*
X93204567Y-117898414D01*
X93418853Y-118684128D02*
X92704567Y-118684128D01*
X92704567Y-118684128D02*
X92704567Y-117184128D01*
X92704567Y-117184128D02*
X93418853Y-117184128D01*
X93990282Y-118255557D02*
X94704568Y-118255557D01*
X93847425Y-118684128D02*
X94347425Y-117184128D01*
X94347425Y-117184128D02*
X94847425Y-118684128D01*
X96275996Y-117969842D02*
X96204567Y-117898414D01*
X96204567Y-117898414D02*
X96061710Y-117826985D01*
X96061710Y-117826985D02*
X95918853Y-117826985D01*
X95918853Y-117826985D02*
X95775996Y-117898414D01*
X95775996Y-117898414D02*
X95704567Y-117969842D01*
X95704567Y-117969842D02*
X95633139Y-118112700D01*
X95633139Y-118112700D02*
X95633139Y-118255557D01*
X95633139Y-118255557D02*
X95704567Y-118398414D01*
X95704567Y-118398414D02*
X95775996Y-118469842D01*
X95775996Y-118469842D02*
X95918853Y-118541271D01*
X95918853Y-118541271D02*
X96061710Y-118541271D01*
X96061710Y-118541271D02*
X96204567Y-118469842D01*
X96204567Y-118469842D02*
X96275996Y-118398414D01*
X96275996Y-117826985D02*
X96275996Y-118398414D01*
X96275996Y-118398414D02*
X96347424Y-118469842D01*
X96347424Y-118469842D02*
X96418853Y-118469842D01*
X96418853Y-118469842D02*
X96561710Y-118398414D01*
X96561710Y-118398414D02*
X96633139Y-118255557D01*
X96633139Y-118255557D02*
X96633139Y-117898414D01*
X96633139Y-117898414D02*
X96490282Y-117684128D01*
X96490282Y-117684128D02*
X96275996Y-117541271D01*
X96275996Y-117541271D02*
X95990282Y-117469842D01*
X95990282Y-117469842D02*
X95704567Y-117541271D01*
X95704567Y-117541271D02*
X95490282Y-117684128D01*
X95490282Y-117684128D02*
X95347424Y-117898414D01*
X95347424Y-117898414D02*
X95275996Y-118184128D01*
X95275996Y-118184128D02*
X95347424Y-118469842D01*
X95347424Y-118469842D02*
X95490282Y-118684128D01*
X95490282Y-118684128D02*
X95704567Y-118826985D01*
X95704567Y-118826985D02*
X95990282Y-118898414D01*
X95990282Y-118898414D02*
X96275996Y-118826985D01*
X96275996Y-118826985D02*
X96490282Y-118684128D01*
X98133138Y-118541271D02*
X98061710Y-118612700D01*
X98061710Y-118612700D02*
X97847424Y-118684128D01*
X97847424Y-118684128D02*
X97704567Y-118684128D01*
X97704567Y-118684128D02*
X97490281Y-118612700D01*
X97490281Y-118612700D02*
X97347424Y-118469842D01*
X97347424Y-118469842D02*
X97275995Y-118326985D01*
X97275995Y-118326985D02*
X97204567Y-118041271D01*
X97204567Y-118041271D02*
X97204567Y-117826985D01*
X97204567Y-117826985D02*
X97275995Y-117541271D01*
X97275995Y-117541271D02*
X97347424Y-117398414D01*
X97347424Y-117398414D02*
X97490281Y-117255557D01*
X97490281Y-117255557D02*
X97704567Y-117184128D01*
X97704567Y-117184128D02*
X97847424Y-117184128D01*
X97847424Y-117184128D02*
X98061710Y-117255557D01*
X98061710Y-117255557D02*
X98133138Y-117326985D01*
X98775995Y-118684128D02*
X98775995Y-117184128D01*
X98775995Y-117184128D02*
X99347424Y-117184128D01*
X99347424Y-117184128D02*
X99490281Y-117255557D01*
X99490281Y-117255557D02*
X99561710Y-117326985D01*
X99561710Y-117326985D02*
X99633138Y-117469842D01*
X99633138Y-117469842D02*
X99633138Y-117684128D01*
X99633138Y-117684128D02*
X99561710Y-117826985D01*
X99561710Y-117826985D02*
X99490281Y-117898414D01*
X99490281Y-117898414D02*
X99347424Y-117969842D01*
X99347424Y-117969842D02*
X98775995Y-117969842D01*
X100275995Y-118684128D02*
X100275995Y-117184128D01*
X100275995Y-117184128D02*
X100847424Y-117184128D01*
X100847424Y-117184128D02*
X100990281Y-117255557D01*
X100990281Y-117255557D02*
X101061710Y-117326985D01*
X101061710Y-117326985D02*
X101133138Y-117469842D01*
X101133138Y-117469842D02*
X101133138Y-117684128D01*
X101133138Y-117684128D02*
X101061710Y-117826985D01*
X101061710Y-117826985D02*
X100990281Y-117898414D01*
X100990281Y-117898414D02*
X100847424Y-117969842D01*
X100847424Y-117969842D02*
X100275995Y-117969842D01*
X102918852Y-117898414D02*
X103418852Y-117898414D01*
X103633138Y-118684128D02*
X102918852Y-118684128D01*
X102918852Y-118684128D02*
X102918852Y-117184128D01*
X102918852Y-117184128D02*
X103633138Y-117184128D01*
X104204567Y-118612700D02*
X104347424Y-118684128D01*
X104347424Y-118684128D02*
X104633138Y-118684128D01*
X104633138Y-118684128D02*
X104775995Y-118612700D01*
X104775995Y-118612700D02*
X104847424Y-118469842D01*
X104847424Y-118469842D02*
X104847424Y-118398414D01*
X104847424Y-118398414D02*
X104775995Y-118255557D01*
X104775995Y-118255557D02*
X104633138Y-118184128D01*
X104633138Y-118184128D02*
X104418853Y-118184128D01*
X104418853Y-118184128D02*
X104275995Y-118112700D01*
X104275995Y-118112700D02*
X104204567Y-117969842D01*
X104204567Y-117969842D02*
X104204567Y-117898414D01*
X104204567Y-117898414D02*
X104275995Y-117755557D01*
X104275995Y-117755557D02*
X104418853Y-117684128D01*
X104418853Y-117684128D02*
X104633138Y-117684128D01*
X104633138Y-117684128D02*
X104775995Y-117755557D01*
X106133139Y-118612700D02*
X105990281Y-118684128D01*
X105990281Y-118684128D02*
X105704567Y-118684128D01*
X105704567Y-118684128D02*
X105561710Y-118612700D01*
X105561710Y-118612700D02*
X105490281Y-118541271D01*
X105490281Y-118541271D02*
X105418853Y-118398414D01*
X105418853Y-118398414D02*
X105418853Y-117969842D01*
X105418853Y-117969842D02*
X105490281Y-117826985D01*
X105490281Y-117826985D02*
X105561710Y-117755557D01*
X105561710Y-117755557D02*
X105704567Y-117684128D01*
X105704567Y-117684128D02*
X105990281Y-117684128D01*
X105990281Y-117684128D02*
X106133139Y-117755557D01*
X107418853Y-118684128D02*
X107418853Y-117898414D01*
X107418853Y-117898414D02*
X107347424Y-117755557D01*
X107347424Y-117755557D02*
X107204567Y-117684128D01*
X107204567Y-117684128D02*
X106918853Y-117684128D01*
X106918853Y-117684128D02*
X106775995Y-117755557D01*
X107418853Y-118612700D02*
X107275995Y-118684128D01*
X107275995Y-118684128D02*
X106918853Y-118684128D01*
X106918853Y-118684128D02*
X106775995Y-118612700D01*
X106775995Y-118612700D02*
X106704567Y-118469842D01*
X106704567Y-118469842D02*
X106704567Y-118326985D01*
X106704567Y-118326985D02*
X106775995Y-118184128D01*
X106775995Y-118184128D02*
X106918853Y-118112700D01*
X106918853Y-118112700D02*
X107275995Y-118112700D01*
X107275995Y-118112700D02*
X107418853Y-118041271D01*
X108133138Y-117684128D02*
X108133138Y-119184128D01*
X108133138Y-117755557D02*
X108275996Y-117684128D01*
X108275996Y-117684128D02*
X108561710Y-117684128D01*
X108561710Y-117684128D02*
X108704567Y-117755557D01*
X108704567Y-117755557D02*
X108775996Y-117826985D01*
X108775996Y-117826985D02*
X108847424Y-117969842D01*
X108847424Y-117969842D02*
X108847424Y-118398414D01*
X108847424Y-118398414D02*
X108775996Y-118541271D01*
X108775996Y-118541271D02*
X108704567Y-118612700D01*
X108704567Y-118612700D02*
X108561710Y-118684128D01*
X108561710Y-118684128D02*
X108275996Y-118684128D01*
X108275996Y-118684128D02*
X108133138Y-118612700D01*
X110061710Y-118612700D02*
X109918853Y-118684128D01*
X109918853Y-118684128D02*
X109633139Y-118684128D01*
X109633139Y-118684128D02*
X109490281Y-118612700D01*
X109490281Y-118612700D02*
X109418853Y-118469842D01*
X109418853Y-118469842D02*
X109418853Y-117898414D01*
X109418853Y-117898414D02*
X109490281Y-117755557D01*
X109490281Y-117755557D02*
X109633139Y-117684128D01*
X109633139Y-117684128D02*
X109918853Y-117684128D01*
X109918853Y-117684128D02*
X110061710Y-117755557D01*
X110061710Y-117755557D02*
X110133139Y-117898414D01*
X110133139Y-117898414D02*
X110133139Y-118041271D01*
X110133139Y-118041271D02*
X109418853Y-118184128D01*
X112775995Y-118684128D02*
X112275995Y-117969842D01*
X111918852Y-118684128D02*
X111918852Y-117184128D01*
X111918852Y-117184128D02*
X112490281Y-117184128D01*
X112490281Y-117184128D02*
X112633138Y-117255557D01*
X112633138Y-117255557D02*
X112704567Y-117326985D01*
X112704567Y-117326985D02*
X112775995Y-117469842D01*
X112775995Y-117469842D02*
X112775995Y-117684128D01*
X112775995Y-117684128D02*
X112704567Y-117826985D01*
X112704567Y-117826985D02*
X112633138Y-117898414D01*
X112633138Y-117898414D02*
X112490281Y-117969842D01*
X112490281Y-117969842D02*
X111918852Y-117969842D01*
X113633138Y-118684128D02*
X113490281Y-118612700D01*
X113490281Y-118612700D02*
X113418852Y-118541271D01*
X113418852Y-118541271D02*
X113347424Y-118398414D01*
X113347424Y-118398414D02*
X113347424Y-117969842D01*
X113347424Y-117969842D02*
X113418852Y-117826985D01*
X113418852Y-117826985D02*
X113490281Y-117755557D01*
X113490281Y-117755557D02*
X113633138Y-117684128D01*
X113633138Y-117684128D02*
X113847424Y-117684128D01*
X113847424Y-117684128D02*
X113990281Y-117755557D01*
X113990281Y-117755557D02*
X114061710Y-117826985D01*
X114061710Y-117826985D02*
X114133138Y-117969842D01*
X114133138Y-117969842D02*
X114133138Y-118398414D01*
X114133138Y-118398414D02*
X114061710Y-118541271D01*
X114061710Y-118541271D02*
X113990281Y-118612700D01*
X113990281Y-118612700D02*
X113847424Y-118684128D01*
X113847424Y-118684128D02*
X113633138Y-118684128D01*
X114990281Y-118684128D02*
X114847424Y-118612700D01*
X114847424Y-118612700D02*
X114775995Y-118541271D01*
X114775995Y-118541271D02*
X114704567Y-118398414D01*
X114704567Y-118398414D02*
X114704567Y-117969842D01*
X114704567Y-117969842D02*
X114775995Y-117826985D01*
X114775995Y-117826985D02*
X114847424Y-117755557D01*
X114847424Y-117755557D02*
X114990281Y-117684128D01*
X114990281Y-117684128D02*
X115204567Y-117684128D01*
X115204567Y-117684128D02*
X115347424Y-117755557D01*
X115347424Y-117755557D02*
X115418853Y-117826985D01*
X115418853Y-117826985D02*
X115490281Y-117969842D01*
X115490281Y-117969842D02*
X115490281Y-118398414D01*
X115490281Y-118398414D02*
X115418853Y-118541271D01*
X115418853Y-118541271D02*
X115347424Y-118612700D01*
X115347424Y-118612700D02*
X115204567Y-118684128D01*
X115204567Y-118684128D02*
X114990281Y-118684128D01*
X116133138Y-118684128D02*
X116133138Y-117684128D01*
X116133138Y-117826985D02*
X116204567Y-117755557D01*
X116204567Y-117755557D02*
X116347424Y-117684128D01*
X116347424Y-117684128D02*
X116561710Y-117684128D01*
X116561710Y-117684128D02*
X116704567Y-117755557D01*
X116704567Y-117755557D02*
X116775996Y-117898414D01*
X116775996Y-117898414D02*
X116775996Y-118684128D01*
X116775996Y-117898414D02*
X116847424Y-117755557D01*
X116847424Y-117755557D02*
X116990281Y-117684128D01*
X116990281Y-117684128D02*
X117204567Y-117684128D01*
X117204567Y-117684128D02*
X117347424Y-117755557D01*
X117347424Y-117755557D02*
X117418853Y-117898414D01*
X117418853Y-117898414D02*
X117418853Y-118684128D01*
X119204567Y-117326985D02*
X119275995Y-117255557D01*
X119275995Y-117255557D02*
X119418853Y-117184128D01*
X119418853Y-117184128D02*
X119775995Y-117184128D01*
X119775995Y-117184128D02*
X119918853Y-117255557D01*
X119918853Y-117255557D02*
X119990281Y-117326985D01*
X119990281Y-117326985D02*
X120061710Y-117469842D01*
X120061710Y-117469842D02*
X120061710Y-117612700D01*
X120061710Y-117612700D02*
X119990281Y-117826985D01*
X119990281Y-117826985D02*
X119133138Y-118684128D01*
X119133138Y-118684128D02*
X120061710Y-118684128D01*
X120990281Y-117184128D02*
X121133138Y-117184128D01*
X121133138Y-117184128D02*
X121275995Y-117255557D01*
X121275995Y-117255557D02*
X121347424Y-117326985D01*
X121347424Y-117326985D02*
X121418852Y-117469842D01*
X121418852Y-117469842D02*
X121490281Y-117755557D01*
X121490281Y-117755557D02*
X121490281Y-118112700D01*
X121490281Y-118112700D02*
X121418852Y-118398414D01*
X121418852Y-118398414D02*
X121347424Y-118541271D01*
X121347424Y-118541271D02*
X121275995Y-118612700D01*
X121275995Y-118612700D02*
X121133138Y-118684128D01*
X121133138Y-118684128D02*
X120990281Y-118684128D01*
X120990281Y-118684128D02*
X120847424Y-118612700D01*
X120847424Y-118612700D02*
X120775995Y-118541271D01*
X120775995Y-118541271D02*
X120704566Y-118398414D01*
X120704566Y-118398414D02*
X120633138Y-118112700D01*
X120633138Y-118112700D02*
X120633138Y-117755557D01*
X120633138Y-117755557D02*
X120704566Y-117469842D01*
X120704566Y-117469842D02*
X120775995Y-117326985D01*
X120775995Y-117326985D02*
X120847424Y-117255557D01*
X120847424Y-117255557D02*
X120990281Y-117184128D01*
X122061709Y-117326985D02*
X122133137Y-117255557D01*
X122133137Y-117255557D02*
X122275995Y-117184128D01*
X122275995Y-117184128D02*
X122633137Y-117184128D01*
X122633137Y-117184128D02*
X122775995Y-117255557D01*
X122775995Y-117255557D02*
X122847423Y-117326985D01*
X122847423Y-117326985D02*
X122918852Y-117469842D01*
X122918852Y-117469842D02*
X122918852Y-117612700D01*
X122918852Y-117612700D02*
X122847423Y-117826985D01*
X122847423Y-117826985D02*
X121990280Y-118684128D01*
X121990280Y-118684128D02*
X122918852Y-118684128D01*
X124204566Y-117184128D02*
X123918851Y-117184128D01*
X123918851Y-117184128D02*
X123775994Y-117255557D01*
X123775994Y-117255557D02*
X123704566Y-117326985D01*
X123704566Y-117326985D02*
X123561708Y-117541271D01*
X123561708Y-117541271D02*
X123490280Y-117826985D01*
X123490280Y-117826985D02*
X123490280Y-118398414D01*
X123490280Y-118398414D02*
X123561708Y-118541271D01*
X123561708Y-118541271D02*
X123633137Y-118612700D01*
X123633137Y-118612700D02*
X123775994Y-118684128D01*
X123775994Y-118684128D02*
X124061708Y-118684128D01*
X124061708Y-118684128D02*
X124204566Y-118612700D01*
X124204566Y-118612700D02*
X124275994Y-118541271D01*
X124275994Y-118541271D02*
X124347423Y-118398414D01*
X124347423Y-118398414D02*
X124347423Y-118041271D01*
X124347423Y-118041271D02*
X124275994Y-117898414D01*
X124275994Y-117898414D02*
X124204566Y-117826985D01*
X124204566Y-117826985D02*
X124061708Y-117755557D01*
X124061708Y-117755557D02*
X123775994Y-117755557D01*
X123775994Y-117755557D02*
X123633137Y-117826985D01*
X123633137Y-117826985D02*
X123561708Y-117898414D01*
X123561708Y-117898414D02*
X123490280Y-118041271D01*
D10*
X110007200Y-129505800D02*
X110007200Y-132505800D01*
X174007200Y-129505800D02*
X174007200Y-136005800D01*
D13*
%TO.C,H1*%
X172090000Y-91400000D03*
%TD*%
D14*
%TO.C,J1*%
X74895000Y-28205000D03*
X69115000Y-28205000D03*
D15*
X76325000Y-28705000D03*
D16*
X76325000Y-24525000D03*
D15*
X67685000Y-28705000D03*
D16*
X67685000Y-24525000D03*
%TD*%
D17*
%TO.C,J4*%
X84475175Y-81425002D03*
D18*
X94475175Y-81425002D03*
%TD*%
D13*
%TO.C,H4*%
X105200000Y-78300000D03*
%TD*%
D19*
%TO.C,J7*%
X104050000Y-86350000D03*
D20*
X106550000Y-86350000D03*
%TD*%
D21*
%TO.C,J6*%
X172635175Y-75110002D03*
X172635175Y-72352002D03*
X172635175Y-69594002D03*
X172635175Y-66836002D03*
X172635175Y-64078002D03*
X172635175Y-61320002D03*
X172635175Y-58562002D03*
X172635175Y-55804002D03*
X172635175Y-53046002D03*
X172635175Y-50288002D03*
X172635175Y-47530002D03*
X172635175Y-44772002D03*
X172635175Y-42014002D03*
X175475175Y-73731002D03*
X175475175Y-70973002D03*
X175475175Y-68215002D03*
X175475175Y-65457002D03*
X175475175Y-62699002D03*
X175475175Y-59941002D03*
X175475175Y-57183002D03*
X175475175Y-54425002D03*
X175475175Y-51667002D03*
X175475175Y-48909002D03*
X175475175Y-46151002D03*
X175475175Y-43393002D03*
D22*
X174055175Y-35042002D03*
X174055175Y-82082002D03*
%TD*%
D13*
%TO.C,H5*%
X37980000Y-25500000D03*
%TD*%
%TO.C,H3*%
X172100000Y-25600000D03*
%TD*%
%TO.C,H6*%
X37990000Y-91340000D03*
%TD*%
D21*
%TO.C,J3*%
X37395175Y-41857002D03*
X37395175Y-44615002D03*
X37395175Y-47373002D03*
X37395175Y-50131002D03*
X37395175Y-52889002D03*
X37395175Y-55647002D03*
X37395175Y-58405002D03*
X37395175Y-61163002D03*
X37395175Y-63921002D03*
X37395175Y-66679002D03*
X37395175Y-69437002D03*
X37395175Y-72195002D03*
X37395175Y-74953002D03*
X34555175Y-43236002D03*
X34555175Y-45994002D03*
X34555175Y-48752002D03*
X34555175Y-51510002D03*
X34555175Y-54268002D03*
X34555175Y-57026002D03*
X34555175Y-59784002D03*
X34555175Y-62542002D03*
X34555175Y-65300002D03*
X34555175Y-68058002D03*
X34555175Y-70816002D03*
X34555175Y-73574002D03*
D22*
X35975175Y-81925002D03*
X35975175Y-34885002D03*
%TD*%
D23*
%TO.C,J2*%
X163505175Y-33425002D03*
D24*
X154610175Y-39785002D03*
D23*
X152075175Y-33425002D03*
D25*
X162230175Y-39785002D03*
D24*
X160970175Y-42325002D03*
X159690175Y-39785002D03*
X158430175Y-42325002D03*
X157150175Y-39785002D03*
X155890175Y-42325002D03*
X153350175Y-42325002D03*
X164415175Y-28525002D03*
X161875175Y-28525002D03*
X153705175Y-28525002D03*
X151165175Y-28525002D03*
D26*
X165535175Y-36475002D03*
X150045175Y-36475002D03*
%TD*%
D17*
%TO.C,J5*%
X115475175Y-81425002D03*
D18*
X125475175Y-81425002D03*
%TD*%
D27*
X26499999Y-24425002D02*
X26499999Y-24425002D01*
G75*
G02*
X28999999Y-21925002I2500001J2D01*
G01*
X180999999Y-21925002D01*
G75*
G02*
X183499999Y-24425002I1J-2499998D01*
G01*
X183499999Y-92400000D01*
G75*
G02*
X180999999Y-94900000I-2499999J0D01*
G01*
X28999999Y-94900000D01*
G75*
G02*
X26499999Y-92400000I1J2500000D01*
G01*
X26499999Y-24425002D01*
M02*
