M48
; DRILL file KiCad 10.0.1 date 2026-05-12T08:47:06
; FORMAT={-:-/ absolute / metric / decimal}
; #@! TF.CreationDate,2026-05-12T08:47:06-07:00
; #@! TF.GenerationSoftware,Kicad,Pcbnew,10.0.1
; #@! TF.FileFunction,Plated,1,4,PTH
FMAT,2
METRIC
; #@! TA.AperFunction,Plated,PTH,ViaDrill
T1C0.300
; #@! TA.AperFunction,Plated,PTH,ComponentDrill
T2C0.600
; #@! TA.AperFunction,Plated,PTH,ComponentDrill
T3C0.890
; #@! TA.AperFunction,Plated,PTH,ComponentDrill
T4C1.020
; #@! TA.AperFunction,Plated,PTH,ComponentDrill
T5C1.040
; #@! TA.AperFunction,Plated,PTH,ComponentDrill
T6C1.200
; #@! TA.AperFunction,Plated,PTH,ComponentDrill
T7C1.630
; #@! TA.AperFunction,Plated,PTH,ComponentDrill
T8C2.200
; #@! TA.AperFunction,Plated,PTH,ComponentDrill
T9C3.260
%
G90
G05
T1
X41.02Y-58.405
X41.025Y-35.65
X41.562Y-45.663
X41.825Y-50.125
X44.12Y-31.99
X44.375Y-39.025
X44.8Y-73.4
X45.2Y-23.875
X45.4Y-85.9
X45.52Y-34.75
X46.068Y-50.125
X46.255Y-56.425
X46.255Y-58.425
X46.255Y-60.425
X46.255Y-62.425
X46.5Y-79.2
X46.925Y-43.3
X47.45Y-87.9
X48.0Y-68.9
X48.005Y-54.275
X48.205Y-48.013
X48.205Y-64.325
X48.205Y-66.325
X48.255Y-56.425
X48.255Y-58.425
X48.255Y-60.425
X48.255Y-62.425
X48.978Y-75.835
X48.978Y-77.105
X50.0Y-68.9
X50.35Y-23.875
X51.105Y-46.985
X51.105Y-63.495
X51.6Y-73.3
X52.0Y-68.9
X52.4Y-79.2
X53.05Y-40.075
X53.2Y-49.2
X53.669Y-56.35
X54.0Y-84.475
X54.0Y-86.375
X54.14Y-64.745
X54.4Y-74.565
X54.4Y-79.1
X54.505Y-27.675
X55.15Y-37.775
X55.2Y-42.525
X56.5Y-77.3
X56.6Y-71.35
X56.718Y-32.675
X56.955Y-52.925
X56.955Y-54.325
X56.955Y-55.725
X57.6Y-84.6
X57.6Y-86.6
X58.355Y-52.925
X58.355Y-54.325
X58.355Y-55.725
X58.55Y-69.4
X59.1Y-67.225
X59.505Y-36.75
X59.755Y-52.925
X59.755Y-54.325
X59.755Y-55.725
X60.005Y-31.925
X60.005Y-84.475
X60.005Y-86.375
X60.255Y-30.925
X60.8Y-62.8
X60.85Y-39.45
X61.505Y-70.388
X61.505Y-72.463
X62.005Y-37.675
X62.4Y-31.175
X62.7Y-66.375
X63.023Y-28.77
X63.255Y-31.925
X63.466Y-27.534
X63.505Y-70.388
X63.505Y-72.463
X63.505Y-80.963
X63.565Y-34.865
X63.6Y-84.6
X63.6Y-86.6
X63.604Y-76.375
X63.608Y-52.667
X64.0Y-73.6
X64.225Y-62.15
X64.455Y-28.4
X65.005Y-35.725
X65.005Y-36.675
X65.005Y-37.625
X65.825Y-72.2
X65.9Y-70.4
X66.06Y-86.34
X66.9Y-67.5
X67.1Y-60.9
X67.505Y-35.725
X67.505Y-36.675
X67.505Y-37.625
X67.6Y-70.9
X67.6Y-72.975
X68.193Y-41.568
X68.5Y-82.6
X68.605Y-46.985
X68.605Y-50.795
X68.605Y-52.065
X68.605Y-55.875
X68.605Y-57.145
X68.693Y-64.807
X68.8Y-67.5
X69.4Y-70.9
X69.45Y-78.05
X69.605Y-29.226
X69.605Y-33.175
X69.7Y-40.0
X70.255Y-38.025
X70.505Y-81.925
X71.0Y-77.6
X71.755Y-27.925
X72.255Y-30.6
X72.905Y-33.175
X73.305Y-42.325
X73.355Y-63.475
X73.425Y-58.575
X74.005Y-88.925
X74.25Y-54.0
X74.375Y-50.5
X74.405Y-29.255
X75.505Y-33.425
X75.505Y-37.725
X76.623Y-58.425
X76.7Y-77.6
X76.85Y-85.45
X76.975Y-44.11
X77.0Y-55.25
X77.195Y-90.705
X77.75Y-56.5
X78.005Y-59.825
X78.425Y-64.05
X79.45Y-57.875
X79.45Y-59.825
X80.2Y-64.7
X80.755Y-41.75
X80.805Y-40.125
X80.918Y-52.975
X80.955Y-48.975
X80.955Y-50.675
X81.205Y-25.725
X81.205Y-27.725
X82.175Y-31.125
X82.775Y-69.4
X83.055Y-54.775
X83.243Y-29.725
X83.305Y-32.325
X84.1Y-45.5
X84.15Y-66.575
X85.405Y-58.025
X85.522Y-41.725
X85.605Y-39.688
X86.45Y-37.5
X86.48Y-50.7
X86.505Y-55.475
X86.605Y-49.325
X86.655Y-44.225
X86.705Y-28.225
X86.705Y-29.475
X86.721Y-33.074
X86.831Y-52.925
X87.205Y-32.375
X87.275Y-44.85
X87.448Y-40.648
X87.744Y-53.625
X87.905Y-51.125
X89.305Y-40.325
X89.305Y-42.325
X89.305Y-44.325
X89.305Y-51.075
X89.675Y-66.575
X89.73Y-29.15
X91.105Y-23.425
X91.5Y-62.2
X93.5Y-55.225
X94.5Y-58.025
X94.705Y-41.725
X94.934Y-49.852
X94.955Y-51.725
X95.205Y-27.225
X95.205Y-29.075
X95.205Y-46.225
X95.375Y-35.9
X95.805Y-44.725
X96.0Y-41.25
X97.255Y-35.475
X97.505Y-34.025
X97.505Y-43.425
X97.505Y-54.1
X97.805Y-51.525
X98.003Y-40.15
X98.1Y-62.225
X98.548Y-33.175
X99.668Y-52.975
X99.705Y-50.975
X99.918Y-29.725
X99.955Y-27.725
X100.6Y-73.6
X100.879Y-25.081
X101.205Y-38.125
X101.205Y-41.888
X101.78Y-53.25
X101.805Y-54.775
X101.993Y-29.725
X103.25Y-91.3
X104.662Y-38.762
X104.662Y-71.3
X105.1Y-54.8
X105.205Y-43.025
X105.225Y-29.575
X105.23Y-50.7
X105.23Y-51.95
X105.303Y-49.3
X105.355Y-56.425
X105.445Y-33.055
X105.455Y-28.225
X105.7Y-59.7
X106.062Y-37.462
X106.537Y-72.25
X106.603Y-32.727
X106.8Y-30.35
X107.1Y-69.1
X107.55Y-91.3
X107.803Y-57.503
X108.055Y-51.675
X109.88Y-65.888
X111.605Y-56.825
X111.893Y-65.925
X112.005Y-34.625
X112.705Y-24.225
X113.14Y-62.76
X113.705Y-49.725
X113.955Y-27.125
X113.955Y-28.675
X114.105Y-56.925
X115.735Y-70.075
X117.005Y-70.075
X117.58Y-54.15
X118.275Y-70.075
X118.355Y-57.075
X118.93Y-59.713
X118.955Y-48.975
X118.955Y-50.975
X119.168Y-30.225
X119.205Y-26.225
X119.205Y-28.225
X119.251Y-54.827
X119.5Y-73.6
X119.545Y-70.075
X120.63Y-56.8
X120.815Y-70.075
X120.993Y-52.975
X120.997Y-54.55
X121.125Y-30.108
X121.18Y-59.713
X121.255Y-32.375
X122.085Y-70.075
X124.325Y-32.975
X124.478Y-50.635
X124.48Y-51.95
X124.625Y-70.075
X124.715Y-28.5
X124.905Y-54.275
X125.087Y-52.65
X125.155Y-31.825
X125.68Y-59.713
X125.802Y-31.354
X126.455Y-53.875
X126.9Y-30.6
X127.005Y-55.425
X127.105Y-31.809
X127.305Y-51.675
X127.625Y-48.525
X127.88Y-29.15
X128.117Y-46.478
X128.355Y-36.275
X128.8Y-59.7
X131.15Y-42.0
X131.3Y-72.2
X131.455Y-47.775
X131.605Y-54.725
X131.705Y-31.125
X131.955Y-35.875
X132.1Y-64.625
X132.205Y-33.7
X132.539Y-39.512
X132.7Y-59.7
X132.7Y-61.1
X132.7Y-68.5
X132.955Y-49.475
X133.205Y-27.225
X133.205Y-29.225
X133.5Y-39.5
X134.005Y-45.488
X134.205Y-47.6
X134.255Y-55.425
X134.3Y-64.625
X134.505Y-49.925
X135.243Y-51.425
X135.25Y-36.325
X135.35Y-47.45
X135.468Y-48.922
X135.755Y-48.175
X136.105Y-43.288
X136.2Y-36.275
X136.5Y-64.625
X136.65Y-59.7
X136.815Y-35.535
X136.816Y-56.684
X137.5Y-55.425
X138.068Y-43.225
X138.068Y-45.325
X138.1Y-75.175
X138.505Y-49.075
X138.505Y-53.725
X138.555Y-28.875
X138.555Y-29.825
X138.555Y-30.775
X138.555Y-34.375
X138.555Y-35.325
X138.555Y-36.275
X138.655Y-38.625
X138.655Y-40.525
X138.7Y-64.625
X138.7Y-72.2
X138.705Y-49.975
X139.095Y-53.155
X139.655Y-52.325
X139.655Y-60.0
X140.155Y-49.325
X140.205Y-43.225
X140.4Y-70.5
X140.705Y-41.425
X140.73Y-49.9
X140.795Y-27.185
X141.255Y-49.375
X141.505Y-54.125
X141.505Y-64.625
X141.505Y-66.7
X141.525Y-75.18
X141.7Y-68.7
X141.7Y-68.7
X141.705Y-60.0
X142.305Y-49.275
X142.405Y-39.525
X142.755Y-49.775
X143.255Y-49.275
X143.268Y-28.825
X143.268Y-34.325
X143.368Y-38.575
X143.464Y-50.884
X143.525Y-75.18
X143.555Y-52.425
X143.755Y-60.013
X143.805Y-57.906
X143.838Y-78.763
X143.855Y-66.925
X143.855Y-69.225
X144.005Y-49.925
X144.143Y-45.325
X144.7Y-56.05
X145.025Y-57.0
X145.125Y-58.0
X145.155Y-23.525
X145.343Y-28.825
X145.355Y-31.125
X145.355Y-36.475
X145.4Y-42.3
X145.4Y-75.18
X145.405Y-40.775
X145.443Y-38.575
X145.578Y-44.297
X145.605Y-46.925
X145.755Y-47.774
X146.02Y-66.9
X146.5Y-71.9
X146.625Y-46.2
X146.875Y-36.9
X146.925Y-48.85
X147.005Y-32.625
X147.236Y-54.425
X147.25Y-66.9
X147.255Y-53.425
X147.7Y-73.0
X148.305Y-39.825
X148.343Y-52.0
X148.47Y-66.9
X149.26Y-65.31
X149.27Y-68.53
X149.405Y-30.725
X149.55Y-45.075
X150.155Y-66.925
X150.48Y-38.75
X150.5Y-44.325
X150.555Y-46.875
X151.04Y-65.32
X151.04Y-68.54
X151.25Y-40.5
X151.955Y-47.975
X152.4Y-66.0
X152.4Y-67.8
X153.0Y-36.2
X153.325Y-55.575
X153.643Y-50.525
X154.605Y-48.463
X154.7Y-82.35
X154.725Y-56.575
X154.78Y-53.35
X155.0Y-72.5
X156.2Y-66.4
X156.505Y-46.175
X156.505Y-48.675
X156.725Y-51.85
X156.75Y-86.1
X157.455Y-46.185
X157.455Y-48.675
X158.405Y-46.175
X158.405Y-48.675
X158.6Y-82.4
X160.505Y-46.175
X160.505Y-48.675
X160.7Y-38.0
X161.455Y-48.675
X161.6Y-66.4
X162.405Y-46.175
X162.405Y-48.675
X164.15Y-86.1
X164.5Y-55.925
X165.0Y-69.0
X166.0Y-55.4
X166.0Y-82.3
X166.7Y-53.2
X166.75Y-73.8
X167.2Y-59.2
X168.2Y-53.2
X168.375Y-63.478
X168.4Y-66.4
X168.574Y-68.226
X170.05Y-64.078
X171.705Y-77.825
X177.0Y-76.7
X177.005Y-69.425
T3
X153.35Y-42.325
X154.61Y-39.785
X155.89Y-42.325
X157.15Y-39.785
X158.43Y-42.325
X159.69Y-39.785
X160.97Y-42.325
X162.23Y-39.785
T4
X151.165Y-28.525
X153.705Y-28.525
X161.875Y-28.525
X164.415Y-28.525
T5
X34.555Y-43.236
X34.555Y-45.994
X34.555Y-48.752
X34.555Y-51.51
X34.555Y-54.268
X34.555Y-57.026
X34.555Y-59.784
X34.555Y-62.542
X34.555Y-65.3
X34.555Y-68.058
X34.555Y-70.816
X34.555Y-73.574
X37.395Y-41.857
X37.395Y-44.615
X37.395Y-47.373
X37.395Y-50.131
X37.395Y-52.889
X37.395Y-55.647
X37.395Y-58.405
X37.395Y-61.163
X37.395Y-63.921
X37.395Y-66.679
X37.395Y-69.437
X37.395Y-72.195
X37.395Y-74.953
X172.635Y-42.014
X172.635Y-44.772
X172.635Y-47.53
X172.635Y-50.288
X172.635Y-53.046
X172.635Y-55.804
X172.635Y-58.562
X172.635Y-61.32
X172.635Y-64.078
X172.635Y-66.836
X172.635Y-69.594
X172.635Y-72.352
X172.635Y-75.11
X175.475Y-43.393
X175.475Y-46.151
X175.475Y-48.909
X175.475Y-51.667
X175.475Y-54.425
X175.475Y-57.183
X175.475Y-59.941
X175.475Y-62.699
X175.475Y-65.457
X175.475Y-68.215
X175.475Y-70.973
X175.475Y-73.731
T6
X104.05Y-86.35
X106.55Y-86.35
T7
X150.045Y-36.475
X165.535Y-36.475
T8
X37.98Y-25.5
X37.99Y-91.34
X84.475Y-81.425
X94.475Y-81.425
X105.2Y-78.3
X115.475Y-81.425
X125.475Y-81.425
X172.09Y-91.4
X172.1Y-25.6
T9
X35.975Y-34.885
X35.975Y-81.925
X174.055Y-35.042
X174.055Y-82.082
T2
G00X67.685Y-24.925
M15
G01X67.685Y-24.125
M16
G05
G00X67.685Y-29.255
M15
G01X67.685Y-28.155
M16
G05
G00X76.325Y-24.925
M15
G01X76.325Y-24.125
M16
G05
G00X76.325Y-29.255
M15
G01X76.325Y-28.155
M16
G05
M30
