%TF.GenerationSoftware,KiCad,Pcbnew,10.0.1*%
%TF.CreationDate,2026-05-12T08:46:46-07:00*%
%TF.ProjectId,DarkMagic,4461726b-4d61-4676-9963-2e6b69636164,rev?*%
%TF.SameCoordinates,Original*%
%TF.FileFunction,Copper,L4,Bot*%
%TF.FilePolarity,Positive*%
%FSLAX46Y46*%
G04 Gerber Fmt 4.6, Leading zero omitted, Abs format (unit mm)*
G04 Created by KiCad (PCBNEW 10.0.1) date 2026-05-12 08:46:46*
%MOMM*%
%LPD*%
G01*
G04 APERTURE LIST*
G04 Aperture macros list*
%AMRoundRect*
0 Rectangle with rounded corners*
0 $1 Rounding radius*
0 $2 $3 $4 $5 $6 $7 $8 $9 X,Y pos of 4 corners*
0 Add a 4 corners polygon primitive as box body*
4,1,4,$2,$3,$4,$5,$6,$7,$8,$9,$2,$3,0*
0 Add four circle primitives for the rounded corners*
1,1,$1+$1,$2,$3*
1,1,$1+$1,$4,$5*
1,1,$1+$1,$6,$7*
1,1,$1+$1,$8,$9*
0 Add four rect primitives between the rounded corners*
20,1,$1+$1,$2,$3,$4,$5,0*
20,1,$1+$1,$4,$5,$6,$7,0*
20,1,$1+$1,$6,$7,$8,$9,0*
20,1,$1+$1,$8,$9,$2,$3,0*%
G04 Aperture macros list end*
%ADD10C,0.150000*%
%ADD11C,0.300000*%
%ADD12C,0.400000*%
%TA.AperFunction,ComponentPad*%
%ADD13C,3.800000*%
%TD*%
%TA.AperFunction,ComponentPad*%
%ADD14O,1.000000X2.100000*%
%TD*%
%TA.AperFunction,ComponentPad*%
%ADD15O,1.000000X1.800000*%
%TD*%
%TA.AperFunction,ComponentPad*%
%ADD16R,3.300000X6.600000*%
%TD*%
%TA.AperFunction,ComponentPad*%
%ADD17O,3.300000X6.600000*%
%TD*%
%TA.AperFunction,ComponentPad*%
%ADD18R,1.800000X1.800000*%
%TD*%
%TA.AperFunction,ComponentPad*%
%ADD19C,1.800000*%
%TD*%
%TA.AperFunction,ComponentPad*%
%ADD20C,1.560000*%
%TD*%
%TA.AperFunction,ComponentPad*%
%ADD21C,4.890000*%
%TD*%
%TA.AperFunction,ComponentPad*%
%ADD22C,1.500000*%
%TD*%
%TA.AperFunction,ComponentPad*%
%ADD23RoundRect,0.250500X0.499500X0.499500X-0.499500X0.499500X-0.499500X-0.499500X0.499500X-0.499500X0*%
%TD*%
%TA.AperFunction,ComponentPad*%
%ADD24C,2.500000*%
%TD*%
%TA.AperFunction,ViaPad*%
%ADD25C,0.600000*%
%TD*%
%TA.AperFunction,Conductor*%
%ADD26C,0.200000*%
%TD*%
%TA.AperFunction,Conductor*%
%ADD27C,1.000000*%
%TD*%
%TA.AperFunction,Profile*%
%ADD28C,0.100000*%
%TD*%
G04 APERTURE END LIST*
D10*
X90007200Y-104005800D02*
X198007200Y-104005800D01*
X198007200Y-136005800D01*
X90007200Y-136005800D01*
X90007200Y-104005800D01*
X10000000Y-10000000D02*
X200007200Y-10000000D01*
X200007200Y-138005800D01*
X10000000Y-138005800D01*
X10000000Y-10000000D01*
X12000000Y-12000000D02*
X198007200Y-12000000D01*
X198007200Y-136005800D01*
X12000000Y-136005800D01*
X12000000Y-12000000D01*
X60000000Y-12000000D02*
X60000000Y-10000000D01*
X110000000Y-12000000D02*
X110000000Y-10000000D01*
X160000000Y-12000000D02*
X160000000Y-10000000D01*
X36089160Y-11593604D02*
X35346303Y-11593604D01*
X35717731Y-11593604D02*
X35717731Y-10293604D01*
X35717731Y-10293604D02*
X35593922Y-10479319D01*
X35593922Y-10479319D02*
X35470112Y-10603128D01*
X35470112Y-10603128D02*
X35346303Y-10665033D01*
X85346303Y-10417414D02*
X85408207Y-10355509D01*
X85408207Y-10355509D02*
X85532017Y-10293604D01*
X85532017Y-10293604D02*
X85841541Y-10293604D01*
X85841541Y-10293604D02*
X85965350Y-10355509D01*
X85965350Y-10355509D02*
X86027255Y-10417414D01*
X86027255Y-10417414D02*
X86089160Y-10541223D01*
X86089160Y-10541223D02*
X86089160Y-10665033D01*
X86089160Y-10665033D02*
X86027255Y-10850747D01*
X86027255Y-10850747D02*
X85284398Y-11593604D01*
X85284398Y-11593604D02*
X86089160Y-11593604D01*
X135284398Y-10293604D02*
X136089160Y-10293604D01*
X136089160Y-10293604D02*
X135655826Y-10788842D01*
X135655826Y-10788842D02*
X135841541Y-10788842D01*
X135841541Y-10788842D02*
X135965350Y-10850747D01*
X135965350Y-10850747D02*
X136027255Y-10912652D01*
X136027255Y-10912652D02*
X136089160Y-11036461D01*
X136089160Y-11036461D02*
X136089160Y-11345985D01*
X136089160Y-11345985D02*
X136027255Y-11469795D01*
X136027255Y-11469795D02*
X135965350Y-11531700D01*
X135965350Y-11531700D02*
X135841541Y-11593604D01*
X135841541Y-11593604D02*
X135470112Y-11593604D01*
X135470112Y-11593604D02*
X135346303Y-11531700D01*
X135346303Y-11531700D02*
X135284398Y-11469795D01*
X185965350Y-10726938D02*
X185965350Y-11593604D01*
X185655826Y-10231700D02*
X185346303Y-11160271D01*
X185346303Y-11160271D02*
X186151064Y-11160271D01*
X60000000Y-136005800D02*
X60000000Y-138005800D01*
X110000000Y-136005800D02*
X110000000Y-138005800D01*
X160000000Y-136005800D02*
X160000000Y-138005800D01*
X36089160Y-137599404D02*
X35346303Y-137599404D01*
X35717731Y-137599404D02*
X35717731Y-136299404D01*
X35717731Y-136299404D02*
X35593922Y-136485119D01*
X35593922Y-136485119D02*
X35470112Y-136608928D01*
X35470112Y-136608928D02*
X35346303Y-136670833D01*
X85346303Y-136423214D02*
X85408207Y-136361309D01*
X85408207Y-136361309D02*
X85532017Y-136299404D01*
X85532017Y-136299404D02*
X85841541Y-136299404D01*
X85841541Y-136299404D02*
X85965350Y-136361309D01*
X85965350Y-136361309D02*
X86027255Y-136423214D01*
X86027255Y-136423214D02*
X86089160Y-136547023D01*
X86089160Y-136547023D02*
X86089160Y-136670833D01*
X86089160Y-136670833D02*
X86027255Y-136856547D01*
X86027255Y-136856547D02*
X85284398Y-137599404D01*
X85284398Y-137599404D02*
X86089160Y-137599404D01*
X135284398Y-136299404D02*
X136089160Y-136299404D01*
X136089160Y-136299404D02*
X135655826Y-136794642D01*
X135655826Y-136794642D02*
X135841541Y-136794642D01*
X135841541Y-136794642D02*
X135965350Y-136856547D01*
X135965350Y-136856547D02*
X136027255Y-136918452D01*
X136027255Y-136918452D02*
X136089160Y-137042261D01*
X136089160Y-137042261D02*
X136089160Y-137351785D01*
X136089160Y-137351785D02*
X136027255Y-137475595D01*
X136027255Y-137475595D02*
X135965350Y-137537500D01*
X135965350Y-137537500D02*
X135841541Y-137599404D01*
X135841541Y-137599404D02*
X135470112Y-137599404D01*
X135470112Y-137599404D02*
X135346303Y-137537500D01*
X135346303Y-137537500D02*
X135284398Y-137475595D01*
X185965350Y-136732738D02*
X185965350Y-137599404D01*
X185655826Y-136237500D02*
X185346303Y-137166071D01*
X185346303Y-137166071D02*
X186151064Y-137166071D01*
X10000000Y-60000000D02*
X12000000Y-60000000D01*
X10000000Y-110000000D02*
X12000000Y-110000000D01*
X10690476Y-35222176D02*
X11309523Y-35222176D01*
X10566666Y-35593604D02*
X10999999Y-34293604D01*
X10999999Y-34293604D02*
X11433333Y-35593604D01*
X11092857Y-84912652D02*
X11278571Y-84974557D01*
X11278571Y-84974557D02*
X11340476Y-85036461D01*
X11340476Y-85036461D02*
X11402380Y-85160271D01*
X11402380Y-85160271D02*
X11402380Y-85345985D01*
X11402380Y-85345985D02*
X11340476Y-85469795D01*
X11340476Y-85469795D02*
X11278571Y-85531700D01*
X11278571Y-85531700D02*
X11154761Y-85593604D01*
X11154761Y-85593604D02*
X10659523Y-85593604D01*
X10659523Y-85593604D02*
X10659523Y-84293604D01*
X10659523Y-84293604D02*
X11092857Y-84293604D01*
X11092857Y-84293604D02*
X11216666Y-84355509D01*
X11216666Y-84355509D02*
X11278571Y-84417414D01*
X11278571Y-84417414D02*
X11340476Y-84541223D01*
X11340476Y-84541223D02*
X11340476Y-84665033D01*
X11340476Y-84665033D02*
X11278571Y-84788842D01*
X11278571Y-84788842D02*
X11216666Y-84850747D01*
X11216666Y-84850747D02*
X11092857Y-84912652D01*
X11092857Y-84912652D02*
X10659523Y-84912652D01*
X11402380Y-135469795D02*
X11340476Y-135531700D01*
X11340476Y-135531700D02*
X11154761Y-135593604D01*
X11154761Y-135593604D02*
X11030952Y-135593604D01*
X11030952Y-135593604D02*
X10845238Y-135531700D01*
X10845238Y-135531700D02*
X10721428Y-135407890D01*
X10721428Y-135407890D02*
X10659523Y-135284080D01*
X10659523Y-135284080D02*
X10597619Y-135036461D01*
X10597619Y-135036461D02*
X10597619Y-134850747D01*
X10597619Y-134850747D02*
X10659523Y-134603128D01*
X10659523Y-134603128D02*
X10721428Y-134479319D01*
X10721428Y-134479319D02*
X10845238Y-134355509D01*
X10845238Y-134355509D02*
X11030952Y-134293604D01*
X11030952Y-134293604D02*
X11154761Y-134293604D01*
X11154761Y-134293604D02*
X11340476Y-134355509D01*
X11340476Y-134355509D02*
X11402380Y-134417414D01*
X200007200Y-60000000D02*
X198007200Y-60000000D01*
X200007200Y-110000000D02*
X198007200Y-110000000D01*
X198697676Y-35222176D02*
X199316723Y-35222176D01*
X198573866Y-35593604D02*
X199007199Y-34293604D01*
X199007199Y-34293604D02*
X199440533Y-35593604D01*
X199100057Y-84912652D02*
X199285771Y-84974557D01*
X199285771Y-84974557D02*
X199347676Y-85036461D01*
X199347676Y-85036461D02*
X199409580Y-85160271D01*
X199409580Y-85160271D02*
X199409580Y-85345985D01*
X199409580Y-85345985D02*
X199347676Y-85469795D01*
X199347676Y-85469795D02*
X199285771Y-85531700D01*
X199285771Y-85531700D02*
X199161961Y-85593604D01*
X199161961Y-85593604D02*
X198666723Y-85593604D01*
X198666723Y-85593604D02*
X198666723Y-84293604D01*
X198666723Y-84293604D02*
X199100057Y-84293604D01*
X199100057Y-84293604D02*
X199223866Y-84355509D01*
X199223866Y-84355509D02*
X199285771Y-84417414D01*
X199285771Y-84417414D02*
X199347676Y-84541223D01*
X199347676Y-84541223D02*
X199347676Y-84665033D01*
X199347676Y-84665033D02*
X199285771Y-84788842D01*
X199285771Y-84788842D02*
X199223866Y-84850747D01*
X199223866Y-84850747D02*
X199100057Y-84912652D01*
X199100057Y-84912652D02*
X198666723Y-84912652D01*
X199409580Y-135469795D02*
X199347676Y-135531700D01*
X199347676Y-135531700D02*
X199161961Y-135593604D01*
X199161961Y-135593604D02*
X199038152Y-135593604D01*
X199038152Y-135593604D02*
X198852438Y-135531700D01*
X198852438Y-135531700D02*
X198728628Y-135407890D01*
X198728628Y-135407890D02*
X198666723Y-135284080D01*
X198666723Y-135284080D02*
X198604819Y-135036461D01*
X198604819Y-135036461D02*
X198604819Y-134850747D01*
X198604819Y-134850747D02*
X198666723Y-134603128D01*
X198666723Y-134603128D02*
X198728628Y-134479319D01*
X198728628Y-134479319D02*
X198852438Y-134355509D01*
X198852438Y-134355509D02*
X199038152Y-134293604D01*
X199038152Y-134293604D02*
X199161961Y-134293604D01*
X199161961Y-134293604D02*
X199347676Y-134355509D01*
X199347676Y-134355509D02*
X199409580Y-134417414D01*
X113463026Y-131791928D02*
X113463026Y-130291928D01*
X113463026Y-130291928D02*
X113820169Y-130291928D01*
X113820169Y-130291928D02*
X114034455Y-130363357D01*
X114034455Y-130363357D02*
X114177312Y-130506214D01*
X114177312Y-130506214D02*
X114248741Y-130649071D01*
X114248741Y-130649071D02*
X114320169Y-130934785D01*
X114320169Y-130934785D02*
X114320169Y-131149071D01*
X114320169Y-131149071D02*
X114248741Y-131434785D01*
X114248741Y-131434785D02*
X114177312Y-131577642D01*
X114177312Y-131577642D02*
X114034455Y-131720500D01*
X114034455Y-131720500D02*
X113820169Y-131791928D01*
X113820169Y-131791928D02*
X113463026Y-131791928D01*
X115605884Y-131791928D02*
X115605884Y-131006214D01*
X115605884Y-131006214D02*
X115534455Y-130863357D01*
X115534455Y-130863357D02*
X115391598Y-130791928D01*
X115391598Y-130791928D02*
X115105884Y-130791928D01*
X115105884Y-130791928D02*
X114963026Y-130863357D01*
X115605884Y-131720500D02*
X115463026Y-131791928D01*
X115463026Y-131791928D02*
X115105884Y-131791928D01*
X115105884Y-131791928D02*
X114963026Y-131720500D01*
X114963026Y-131720500D02*
X114891598Y-131577642D01*
X114891598Y-131577642D02*
X114891598Y-131434785D01*
X114891598Y-131434785D02*
X114963026Y-131291928D01*
X114963026Y-131291928D02*
X115105884Y-131220500D01*
X115105884Y-131220500D02*
X115463026Y-131220500D01*
X115463026Y-131220500D02*
X115605884Y-131149071D01*
X116105884Y-130791928D02*
X116677312Y-130791928D01*
X116320169Y-130291928D02*
X116320169Y-131577642D01*
X116320169Y-131577642D02*
X116391598Y-131720500D01*
X116391598Y-131720500D02*
X116534455Y-131791928D01*
X116534455Y-131791928D02*
X116677312Y-131791928D01*
X117748741Y-131720500D02*
X117605884Y-131791928D01*
X117605884Y-131791928D02*
X117320170Y-131791928D01*
X117320170Y-131791928D02*
X117177312Y-131720500D01*
X117177312Y-131720500D02*
X117105884Y-131577642D01*
X117105884Y-131577642D02*
X117105884Y-131006214D01*
X117105884Y-131006214D02*
X117177312Y-130863357D01*
X117177312Y-130863357D02*
X117320170Y-130791928D01*
X117320170Y-130791928D02*
X117605884Y-130791928D01*
X117605884Y-130791928D02*
X117748741Y-130863357D01*
X117748741Y-130863357D02*
X117820170Y-131006214D01*
X117820170Y-131006214D02*
X117820170Y-131149071D01*
X117820170Y-131149071D02*
X117105884Y-131291928D01*
X118463026Y-131649071D02*
X118534455Y-131720500D01*
X118534455Y-131720500D02*
X118463026Y-131791928D01*
X118463026Y-131791928D02*
X118391598Y-131720500D01*
X118391598Y-131720500D02*
X118463026Y-131649071D01*
X118463026Y-131649071D02*
X118463026Y-131791928D01*
X118463026Y-130863357D02*
X118534455Y-130934785D01*
X118534455Y-130934785D02*
X118463026Y-131006214D01*
X118463026Y-131006214D02*
X118391598Y-130934785D01*
X118391598Y-130934785D02*
X118463026Y-130863357D01*
X118463026Y-130863357D02*
X118463026Y-131006214D01*
X90007200Y-132505800D02*
X198007200Y-132505800D01*
X91463026Y-134591928D02*
X91463026Y-133091928D01*
X92320169Y-134591928D02*
X91677312Y-133734785D01*
X92320169Y-133091928D02*
X91463026Y-133949071D01*
X92963026Y-134591928D02*
X92963026Y-133591928D01*
X92963026Y-133091928D02*
X92891598Y-133163357D01*
X92891598Y-133163357D02*
X92963026Y-133234785D01*
X92963026Y-133234785D02*
X93034455Y-133163357D01*
X93034455Y-133163357D02*
X92963026Y-133091928D01*
X92963026Y-133091928D02*
X92963026Y-133234785D01*
X94534455Y-134449071D02*
X94463027Y-134520500D01*
X94463027Y-134520500D02*
X94248741Y-134591928D01*
X94248741Y-134591928D02*
X94105884Y-134591928D01*
X94105884Y-134591928D02*
X93891598Y-134520500D01*
X93891598Y-134520500D02*
X93748741Y-134377642D01*
X93748741Y-134377642D02*
X93677312Y-134234785D01*
X93677312Y-134234785D02*
X93605884Y-133949071D01*
X93605884Y-133949071D02*
X93605884Y-133734785D01*
X93605884Y-133734785D02*
X93677312Y-133449071D01*
X93677312Y-133449071D02*
X93748741Y-133306214D01*
X93748741Y-133306214D02*
X93891598Y-133163357D01*
X93891598Y-133163357D02*
X94105884Y-133091928D01*
X94105884Y-133091928D02*
X94248741Y-133091928D01*
X94248741Y-133091928D02*
X94463027Y-133163357D01*
X94463027Y-133163357D02*
X94534455Y-133234785D01*
X95820170Y-134591928D02*
X95820170Y-133806214D01*
X95820170Y-133806214D02*
X95748741Y-133663357D01*
X95748741Y-133663357D02*
X95605884Y-133591928D01*
X95605884Y-133591928D02*
X95320170Y-133591928D01*
X95320170Y-133591928D02*
X95177312Y-133663357D01*
X95820170Y-134520500D02*
X95677312Y-134591928D01*
X95677312Y-134591928D02*
X95320170Y-134591928D01*
X95320170Y-134591928D02*
X95177312Y-134520500D01*
X95177312Y-134520500D02*
X95105884Y-134377642D01*
X95105884Y-134377642D02*
X95105884Y-134234785D01*
X95105884Y-134234785D02*
X95177312Y-134091928D01*
X95177312Y-134091928D02*
X95320170Y-134020500D01*
X95320170Y-134020500D02*
X95677312Y-134020500D01*
X95677312Y-134020500D02*
X95820170Y-133949071D01*
X97177313Y-134591928D02*
X97177313Y-133091928D01*
X97177313Y-134520500D02*
X97034455Y-134591928D01*
X97034455Y-134591928D02*
X96748741Y-134591928D01*
X96748741Y-134591928D02*
X96605884Y-134520500D01*
X96605884Y-134520500D02*
X96534455Y-134449071D01*
X96534455Y-134449071D02*
X96463027Y-134306214D01*
X96463027Y-134306214D02*
X96463027Y-133877642D01*
X96463027Y-133877642D02*
X96534455Y-133734785D01*
X96534455Y-133734785D02*
X96605884Y-133663357D01*
X96605884Y-133663357D02*
X96748741Y-133591928D01*
X96748741Y-133591928D02*
X97034455Y-133591928D01*
X97034455Y-133591928D02*
X97177313Y-133663357D01*
X99034455Y-133806214D02*
X99534455Y-133806214D01*
X99748741Y-134591928D02*
X99034455Y-134591928D01*
X99034455Y-134591928D02*
X99034455Y-133091928D01*
X99034455Y-133091928D02*
X99748741Y-133091928D01*
X100391598Y-134449071D02*
X100463027Y-134520500D01*
X100463027Y-134520500D02*
X100391598Y-134591928D01*
X100391598Y-134591928D02*
X100320170Y-134520500D01*
X100320170Y-134520500D02*
X100391598Y-134449071D01*
X100391598Y-134449071D02*
X100391598Y-134591928D01*
X101105884Y-134591928D02*
X101105884Y-133091928D01*
X101105884Y-133091928D02*
X101463027Y-133091928D01*
X101463027Y-133091928D02*
X101677313Y-133163357D01*
X101677313Y-133163357D02*
X101820170Y-133306214D01*
X101820170Y-133306214D02*
X101891599Y-133449071D01*
X101891599Y-133449071D02*
X101963027Y-133734785D01*
X101963027Y-133734785D02*
X101963027Y-133949071D01*
X101963027Y-133949071D02*
X101891599Y-134234785D01*
X101891599Y-134234785D02*
X101820170Y-134377642D01*
X101820170Y-134377642D02*
X101677313Y-134520500D01*
X101677313Y-134520500D02*
X101463027Y-134591928D01*
X101463027Y-134591928D02*
X101105884Y-134591928D01*
X102605884Y-134449071D02*
X102677313Y-134520500D01*
X102677313Y-134520500D02*
X102605884Y-134591928D01*
X102605884Y-134591928D02*
X102534456Y-134520500D01*
X102534456Y-134520500D02*
X102605884Y-134449071D01*
X102605884Y-134449071D02*
X102605884Y-134591928D01*
X103248742Y-134163357D02*
X103963028Y-134163357D01*
X103105885Y-134591928D02*
X103605885Y-133091928D01*
X103605885Y-133091928D02*
X104105885Y-134591928D01*
X104605884Y-134449071D02*
X104677313Y-134520500D01*
X104677313Y-134520500D02*
X104605884Y-134591928D01*
X104605884Y-134591928D02*
X104534456Y-134520500D01*
X104534456Y-134520500D02*
X104605884Y-134449071D01*
X104605884Y-134449071D02*
X104605884Y-134591928D01*
X107248742Y-134591928D02*
X106391599Y-134591928D01*
X106820170Y-134591928D02*
X106820170Y-133091928D01*
X106820170Y-133091928D02*
X106677313Y-133306214D01*
X106677313Y-133306214D02*
X106534456Y-133449071D01*
X106534456Y-133449071D02*
X106391599Y-133520500D01*
X108177313Y-133091928D02*
X108320170Y-133091928D01*
X108320170Y-133091928D02*
X108463027Y-133163357D01*
X108463027Y-133163357D02*
X108534456Y-133234785D01*
X108534456Y-133234785D02*
X108605884Y-133377642D01*
X108605884Y-133377642D02*
X108677313Y-133663357D01*
X108677313Y-133663357D02*
X108677313Y-134020500D01*
X108677313Y-134020500D02*
X108605884Y-134306214D01*
X108605884Y-134306214D02*
X108534456Y-134449071D01*
X108534456Y-134449071D02*
X108463027Y-134520500D01*
X108463027Y-134520500D02*
X108320170Y-134591928D01*
X108320170Y-134591928D02*
X108177313Y-134591928D01*
X108177313Y-134591928D02*
X108034456Y-134520500D01*
X108034456Y-134520500D02*
X107963027Y-134449071D01*
X107963027Y-134449071D02*
X107891598Y-134306214D01*
X107891598Y-134306214D02*
X107820170Y-134020500D01*
X107820170Y-134020500D02*
X107820170Y-133663357D01*
X107820170Y-133663357D02*
X107891598Y-133377642D01*
X107891598Y-133377642D02*
X107963027Y-133234785D01*
X107963027Y-133234785D02*
X108034456Y-133163357D01*
X108034456Y-133163357D02*
X108177313Y-133091928D01*
X109320169Y-134449071D02*
X109391598Y-134520500D01*
X109391598Y-134520500D02*
X109320169Y-134591928D01*
X109320169Y-134591928D02*
X109248741Y-134520500D01*
X109248741Y-134520500D02*
X109320169Y-134449071D01*
X109320169Y-134449071D02*
X109320169Y-134591928D01*
X110320170Y-133091928D02*
X110463027Y-133091928D01*
X110463027Y-133091928D02*
X110605884Y-133163357D01*
X110605884Y-133163357D02*
X110677313Y-133234785D01*
X110677313Y-133234785D02*
X110748741Y-133377642D01*
X110748741Y-133377642D02*
X110820170Y-133663357D01*
X110820170Y-133663357D02*
X110820170Y-134020500D01*
X110820170Y-134020500D02*
X110748741Y-134306214D01*
X110748741Y-134306214D02*
X110677313Y-134449071D01*
X110677313Y-134449071D02*
X110605884Y-134520500D01*
X110605884Y-134520500D02*
X110463027Y-134591928D01*
X110463027Y-134591928D02*
X110320170Y-134591928D01*
X110320170Y-134591928D02*
X110177313Y-134520500D01*
X110177313Y-134520500D02*
X110105884Y-134449071D01*
X110105884Y-134449071D02*
X110034455Y-134306214D01*
X110034455Y-134306214D02*
X109963027Y-134020500D01*
X109963027Y-134020500D02*
X109963027Y-133663357D01*
X109963027Y-133663357D02*
X110034455Y-133377642D01*
X110034455Y-133377642D02*
X110105884Y-133234785D01*
X110105884Y-133234785D02*
X110177313Y-133163357D01*
X110177313Y-133163357D02*
X110320170Y-133091928D01*
X111463026Y-134449071D02*
X111534455Y-134520500D01*
X111534455Y-134520500D02*
X111463026Y-134591928D01*
X111463026Y-134591928D02*
X111391598Y-134520500D01*
X111391598Y-134520500D02*
X111463026Y-134449071D01*
X111463026Y-134449071D02*
X111463026Y-134591928D01*
X112963027Y-134591928D02*
X112105884Y-134591928D01*
X112534455Y-134591928D02*
X112534455Y-133091928D01*
X112534455Y-133091928D02*
X112391598Y-133306214D01*
X112391598Y-133306214D02*
X112248741Y-133449071D01*
X112248741Y-133449071D02*
X112105884Y-133520500D01*
X90007200Y-129505800D02*
X198007200Y-129505800D01*
D11*
X177418853Y-131784128D02*
X176918853Y-131069842D01*
X176561710Y-131784128D02*
X176561710Y-130284128D01*
X176561710Y-130284128D02*
X177133139Y-130284128D01*
X177133139Y-130284128D02*
X177275996Y-130355557D01*
X177275996Y-130355557D02*
X177347425Y-130426985D01*
X177347425Y-130426985D02*
X177418853Y-130569842D01*
X177418853Y-130569842D02*
X177418853Y-130784128D01*
X177418853Y-130784128D02*
X177347425Y-130926985D01*
X177347425Y-130926985D02*
X177275996Y-130998414D01*
X177275996Y-130998414D02*
X177133139Y-131069842D01*
X177133139Y-131069842D02*
X176561710Y-131069842D01*
X178633139Y-131712700D02*
X178490282Y-131784128D01*
X178490282Y-131784128D02*
X178204568Y-131784128D01*
X178204568Y-131784128D02*
X178061710Y-131712700D01*
X178061710Y-131712700D02*
X177990282Y-131569842D01*
X177990282Y-131569842D02*
X177990282Y-130998414D01*
X177990282Y-130998414D02*
X178061710Y-130855557D01*
X178061710Y-130855557D02*
X178204568Y-130784128D01*
X178204568Y-130784128D02*
X178490282Y-130784128D01*
X178490282Y-130784128D02*
X178633139Y-130855557D01*
X178633139Y-130855557D02*
X178704568Y-130998414D01*
X178704568Y-130998414D02*
X178704568Y-131141271D01*
X178704568Y-131141271D02*
X177990282Y-131284128D01*
X179204567Y-130784128D02*
X179561710Y-131784128D01*
X179561710Y-131784128D02*
X179918853Y-130784128D01*
X180490281Y-131641271D02*
X180561710Y-131712700D01*
X180561710Y-131712700D02*
X180490281Y-131784128D01*
X180490281Y-131784128D02*
X180418853Y-131712700D01*
X180418853Y-131712700D02*
X180490281Y-131641271D01*
X180490281Y-131641271D02*
X180490281Y-131784128D01*
X180490281Y-130855557D02*
X180561710Y-130926985D01*
X180561710Y-130926985D02*
X180490281Y-130998414D01*
X180490281Y-130998414D02*
X180418853Y-130926985D01*
X180418853Y-130926985D02*
X180490281Y-130855557D01*
X180490281Y-130855557D02*
X180490281Y-130998414D01*
D10*
X91391598Y-131720500D02*
X91605884Y-131791928D01*
X91605884Y-131791928D02*
X91963026Y-131791928D01*
X91963026Y-131791928D02*
X92105884Y-131720500D01*
X92105884Y-131720500D02*
X92177312Y-131649071D01*
X92177312Y-131649071D02*
X92248741Y-131506214D01*
X92248741Y-131506214D02*
X92248741Y-131363357D01*
X92248741Y-131363357D02*
X92177312Y-131220500D01*
X92177312Y-131220500D02*
X92105884Y-131149071D01*
X92105884Y-131149071D02*
X91963026Y-131077642D01*
X91963026Y-131077642D02*
X91677312Y-131006214D01*
X91677312Y-131006214D02*
X91534455Y-130934785D01*
X91534455Y-130934785D02*
X91463026Y-130863357D01*
X91463026Y-130863357D02*
X91391598Y-130720500D01*
X91391598Y-130720500D02*
X91391598Y-130577642D01*
X91391598Y-130577642D02*
X91463026Y-130434785D01*
X91463026Y-130434785D02*
X91534455Y-130363357D01*
X91534455Y-130363357D02*
X91677312Y-130291928D01*
X91677312Y-130291928D02*
X92034455Y-130291928D01*
X92034455Y-130291928D02*
X92248741Y-130363357D01*
X92891597Y-131791928D02*
X92891597Y-130791928D01*
X92891597Y-130291928D02*
X92820169Y-130363357D01*
X92820169Y-130363357D02*
X92891597Y-130434785D01*
X92891597Y-130434785D02*
X92963026Y-130363357D01*
X92963026Y-130363357D02*
X92891597Y-130291928D01*
X92891597Y-130291928D02*
X92891597Y-130434785D01*
X93463026Y-130791928D02*
X94248741Y-130791928D01*
X94248741Y-130791928D02*
X93463026Y-131791928D01*
X93463026Y-131791928D02*
X94248741Y-131791928D01*
X95391598Y-131720500D02*
X95248741Y-131791928D01*
X95248741Y-131791928D02*
X94963027Y-131791928D01*
X94963027Y-131791928D02*
X94820169Y-131720500D01*
X94820169Y-131720500D02*
X94748741Y-131577642D01*
X94748741Y-131577642D02*
X94748741Y-131006214D01*
X94748741Y-131006214D02*
X94820169Y-130863357D01*
X94820169Y-130863357D02*
X94963027Y-130791928D01*
X94963027Y-130791928D02*
X95248741Y-130791928D01*
X95248741Y-130791928D02*
X95391598Y-130863357D01*
X95391598Y-130863357D02*
X95463027Y-131006214D01*
X95463027Y-131006214D02*
X95463027Y-131149071D01*
X95463027Y-131149071D02*
X94748741Y-131291928D01*
X96105883Y-131649071D02*
X96177312Y-131720500D01*
X96177312Y-131720500D02*
X96105883Y-131791928D01*
X96105883Y-131791928D02*
X96034455Y-131720500D01*
X96034455Y-131720500D02*
X96105883Y-131649071D01*
X96105883Y-131649071D02*
X96105883Y-131791928D01*
X96105883Y-130863357D02*
X96177312Y-130934785D01*
X96177312Y-130934785D02*
X96105883Y-131006214D01*
X96105883Y-131006214D02*
X96034455Y-130934785D01*
X96034455Y-130934785D02*
X96105883Y-130863357D01*
X96105883Y-130863357D02*
X96105883Y-131006214D01*
X97891598Y-131363357D02*
X98605884Y-131363357D01*
X97748741Y-131791928D02*
X98248741Y-130291928D01*
X98248741Y-130291928D02*
X98748741Y-131791928D01*
X99963026Y-130291928D02*
X99248740Y-130291928D01*
X99248740Y-130291928D02*
X99177312Y-131006214D01*
X99177312Y-131006214D02*
X99248740Y-130934785D01*
X99248740Y-130934785D02*
X99391598Y-130863357D01*
X99391598Y-130863357D02*
X99748740Y-130863357D01*
X99748740Y-130863357D02*
X99891598Y-130934785D01*
X99891598Y-130934785D02*
X99963026Y-131006214D01*
X99963026Y-131006214D02*
X100034455Y-131149071D01*
X100034455Y-131149071D02*
X100034455Y-131506214D01*
X100034455Y-131506214D02*
X99963026Y-131649071D01*
X99963026Y-131649071D02*
X99891598Y-131720500D01*
X99891598Y-131720500D02*
X99748740Y-131791928D01*
X99748740Y-131791928D02*
X99391598Y-131791928D01*
X99391598Y-131791928D02*
X99248740Y-131720500D01*
X99248740Y-131720500D02*
X99177312Y-131649071D01*
X176463026Y-134591928D02*
X176463026Y-133091928D01*
X177820170Y-134591928D02*
X177820170Y-133091928D01*
X177820170Y-134520500D02*
X177677312Y-134591928D01*
X177677312Y-134591928D02*
X177391598Y-134591928D01*
X177391598Y-134591928D02*
X177248741Y-134520500D01*
X177248741Y-134520500D02*
X177177312Y-134449071D01*
X177177312Y-134449071D02*
X177105884Y-134306214D01*
X177105884Y-134306214D02*
X177105884Y-133877642D01*
X177105884Y-133877642D02*
X177177312Y-133734785D01*
X177177312Y-133734785D02*
X177248741Y-133663357D01*
X177248741Y-133663357D02*
X177391598Y-133591928D01*
X177391598Y-133591928D02*
X177677312Y-133591928D01*
X177677312Y-133591928D02*
X177820170Y-133663357D01*
X178534455Y-134449071D02*
X178605884Y-134520500D01*
X178605884Y-134520500D02*
X178534455Y-134591928D01*
X178534455Y-134591928D02*
X178463027Y-134520500D01*
X178463027Y-134520500D02*
X178534455Y-134449071D01*
X178534455Y-134449071D02*
X178534455Y-134591928D01*
X178534455Y-133663357D02*
X178605884Y-133734785D01*
X178605884Y-133734785D02*
X178534455Y-133806214D01*
X178534455Y-133806214D02*
X178463027Y-133734785D01*
X178463027Y-133734785D02*
X178534455Y-133663357D01*
X178534455Y-133663357D02*
X178534455Y-133806214D01*
X181034456Y-133591928D02*
X181034456Y-134591928D01*
X180677313Y-133020500D02*
X180320170Y-134091928D01*
X180320170Y-134091928D02*
X181248741Y-134091928D01*
X182891598Y-133020500D02*
X181605884Y-134949071D01*
X183605884Y-133734785D02*
X183463027Y-133663357D01*
X183463027Y-133663357D02*
X183391598Y-133591928D01*
X183391598Y-133591928D02*
X183320170Y-133449071D01*
X183320170Y-133449071D02*
X183320170Y-133377642D01*
X183320170Y-133377642D02*
X183391598Y-133234785D01*
X183391598Y-133234785D02*
X183463027Y-133163357D01*
X183463027Y-133163357D02*
X183605884Y-133091928D01*
X183605884Y-133091928D02*
X183891598Y-133091928D01*
X183891598Y-133091928D02*
X184034456Y-133163357D01*
X184034456Y-133163357D02*
X184105884Y-133234785D01*
X184105884Y-133234785D02*
X184177313Y-133377642D01*
X184177313Y-133377642D02*
X184177313Y-133449071D01*
X184177313Y-133449071D02*
X184105884Y-133591928D01*
X184105884Y-133591928D02*
X184034456Y-133663357D01*
X184034456Y-133663357D02*
X183891598Y-133734785D01*
X183891598Y-133734785D02*
X183605884Y-133734785D01*
X183605884Y-133734785D02*
X183463027Y-133806214D01*
X183463027Y-133806214D02*
X183391598Y-133877642D01*
X183391598Y-133877642D02*
X183320170Y-134020500D01*
X183320170Y-134020500D02*
X183320170Y-134306214D01*
X183320170Y-134306214D02*
X183391598Y-134449071D01*
X183391598Y-134449071D02*
X183463027Y-134520500D01*
X183463027Y-134520500D02*
X183605884Y-134591928D01*
X183605884Y-134591928D02*
X183891598Y-134591928D01*
X183891598Y-134591928D02*
X184034456Y-134520500D01*
X184034456Y-134520500D02*
X184105884Y-134449071D01*
X184105884Y-134449071D02*
X184177313Y-134306214D01*
X184177313Y-134306214D02*
X184177313Y-134020500D01*
X184177313Y-134020500D02*
X184105884Y-133877642D01*
X184105884Y-133877642D02*
X184034456Y-133806214D01*
X184034456Y-133806214D02*
X183891598Y-133734785D01*
X90007200Y-125505800D02*
X198007200Y-125505800D01*
D12*
X91698928Y-126210238D02*
X92841785Y-126210238D01*
X92020357Y-128210238D02*
X92270357Y-126210238D01*
X93258452Y-128210238D02*
X93425119Y-126876904D01*
X93508452Y-126210238D02*
X93401309Y-126305476D01*
X93401309Y-126305476D02*
X93484643Y-126400714D01*
X93484643Y-126400714D02*
X93591786Y-126305476D01*
X93591786Y-126305476D02*
X93508452Y-126210238D01*
X93508452Y-126210238D02*
X93484643Y-126400714D01*
X94091786Y-126876904D02*
X94853690Y-126876904D01*
X94460833Y-126210238D02*
X94246548Y-127924523D01*
X94246548Y-127924523D02*
X94317976Y-128115000D01*
X94317976Y-128115000D02*
X94496548Y-128210238D01*
X94496548Y-128210238D02*
X94687024Y-128210238D01*
X95639405Y-128210238D02*
X95460833Y-128115000D01*
X95460833Y-128115000D02*
X95389405Y-127924523D01*
X95389405Y-127924523D02*
X95603690Y-126210238D01*
X97175119Y-128115000D02*
X96972738Y-128210238D01*
X96972738Y-128210238D02*
X96591785Y-128210238D01*
X96591785Y-128210238D02*
X96413214Y-128115000D01*
X96413214Y-128115000D02*
X96341785Y-127924523D01*
X96341785Y-127924523D02*
X96437024Y-127162619D01*
X96437024Y-127162619D02*
X96556071Y-126972142D01*
X96556071Y-126972142D02*
X96758452Y-126876904D01*
X96758452Y-126876904D02*
X97139404Y-126876904D01*
X97139404Y-126876904D02*
X97317976Y-126972142D01*
X97317976Y-126972142D02*
X97389404Y-127162619D01*
X97389404Y-127162619D02*
X97365595Y-127353095D01*
X97365595Y-127353095D02*
X96389404Y-127543571D01*
X98139405Y-128019761D02*
X98222738Y-128115000D01*
X98222738Y-128115000D02*
X98115595Y-128210238D01*
X98115595Y-128210238D02*
X98032262Y-128115000D01*
X98032262Y-128115000D02*
X98139405Y-128019761D01*
X98139405Y-128019761D02*
X98115595Y-128210238D01*
X98270357Y-126972142D02*
X98353690Y-127067380D01*
X98353690Y-127067380D02*
X98246548Y-127162619D01*
X98246548Y-127162619D02*
X98163214Y-127067380D01*
X98163214Y-127067380D02*
X98270357Y-126972142D01*
X98270357Y-126972142D02*
X98246548Y-127162619D01*
X100591786Y-128210238D02*
X100841786Y-126210238D01*
X100722739Y-127162619D02*
X101865596Y-127162619D01*
X101734643Y-128210238D02*
X101984643Y-126210238D01*
X102972739Y-128210238D02*
X102794167Y-128115000D01*
X102794167Y-128115000D02*
X102710834Y-128019761D01*
X102710834Y-128019761D02*
X102639405Y-127829285D01*
X102639405Y-127829285D02*
X102710834Y-127257857D01*
X102710834Y-127257857D02*
X102829881Y-127067380D01*
X102829881Y-127067380D02*
X102937024Y-126972142D01*
X102937024Y-126972142D02*
X103139405Y-126876904D01*
X103139405Y-126876904D02*
X103425119Y-126876904D01*
X103425119Y-126876904D02*
X103603691Y-126972142D01*
X103603691Y-126972142D02*
X103687024Y-127067380D01*
X103687024Y-127067380D02*
X103758453Y-127257857D01*
X103758453Y-127257857D02*
X103687024Y-127829285D01*
X103687024Y-127829285D02*
X103567977Y-128019761D01*
X103567977Y-128019761D02*
X103460834Y-128115000D01*
X103460834Y-128115000D02*
X103258453Y-128210238D01*
X103258453Y-128210238D02*
X102972739Y-128210238D01*
X104782263Y-128210238D02*
X104603691Y-128115000D01*
X104603691Y-128115000D02*
X104532263Y-127924523D01*
X104532263Y-127924523D02*
X104746548Y-126210238D01*
X105520358Y-126876904D02*
X105829882Y-128210238D01*
X106472739Y-126876904D02*
X105829882Y-128210238D01*
X105829882Y-128210238D02*
X105579882Y-128686428D01*
X105579882Y-128686428D02*
X105472739Y-128781666D01*
X105472739Y-128781666D02*
X105270358Y-128876904D01*
X109877502Y-126305476D02*
X109698930Y-126210238D01*
X109698930Y-126210238D02*
X109413216Y-126210238D01*
X109413216Y-126210238D02*
X109115597Y-126305476D01*
X109115597Y-126305476D02*
X108901311Y-126495952D01*
X108901311Y-126495952D02*
X108782263Y-126686428D01*
X108782263Y-126686428D02*
X108639406Y-127067380D01*
X108639406Y-127067380D02*
X108603692Y-127353095D01*
X108603692Y-127353095D02*
X108651311Y-127734047D01*
X108651311Y-127734047D02*
X108722740Y-127924523D01*
X108722740Y-127924523D02*
X108889406Y-128115000D01*
X108889406Y-128115000D02*
X109163216Y-128210238D01*
X109163216Y-128210238D02*
X109353692Y-128210238D01*
X109353692Y-128210238D02*
X109651311Y-128115000D01*
X109651311Y-128115000D02*
X109758454Y-128019761D01*
X109758454Y-128019761D02*
X109841787Y-127353095D01*
X109841787Y-127353095D02*
X109460835Y-127353095D01*
X110591787Y-128210238D02*
X110758454Y-126876904D01*
X110710835Y-127257857D02*
X110829882Y-127067380D01*
X110829882Y-127067380D02*
X110937025Y-126972142D01*
X110937025Y-126972142D02*
X111139406Y-126876904D01*
X111139406Y-126876904D02*
X111329882Y-126876904D01*
X112687025Y-128210238D02*
X112817977Y-127162619D01*
X112817977Y-127162619D02*
X112746549Y-126972142D01*
X112746549Y-126972142D02*
X112567977Y-126876904D01*
X112567977Y-126876904D02*
X112187025Y-126876904D01*
X112187025Y-126876904D02*
X111984644Y-126972142D01*
X112698930Y-128115000D02*
X112496549Y-128210238D01*
X112496549Y-128210238D02*
X112020358Y-128210238D01*
X112020358Y-128210238D02*
X111841787Y-128115000D01*
X111841787Y-128115000D02*
X111770358Y-127924523D01*
X111770358Y-127924523D02*
X111794168Y-127734047D01*
X111794168Y-127734047D02*
X111913216Y-127543571D01*
X111913216Y-127543571D02*
X112115597Y-127448333D01*
X112115597Y-127448333D02*
X112591787Y-127448333D01*
X112591787Y-127448333D02*
X112794168Y-127353095D01*
X113639406Y-128210238D02*
X113806073Y-126876904D01*
X113889406Y-126210238D02*
X113782263Y-126305476D01*
X113782263Y-126305476D02*
X113865597Y-126400714D01*
X113865597Y-126400714D02*
X113972740Y-126305476D01*
X113972740Y-126305476D02*
X113889406Y-126210238D01*
X113889406Y-126210238D02*
X113865597Y-126400714D01*
X114877502Y-128210238D02*
X114698930Y-128115000D01*
X114698930Y-128115000D02*
X114627502Y-127924523D01*
X114627502Y-127924523D02*
X114841787Y-126210238D01*
D10*
X91963026Y-123606214D02*
X91463026Y-123606214D01*
X91463026Y-124391928D02*
X91463026Y-122891928D01*
X91463026Y-122891928D02*
X92177312Y-122891928D01*
X92748740Y-124391928D02*
X92748740Y-123391928D01*
X92748740Y-122891928D02*
X92677312Y-122963357D01*
X92677312Y-122963357D02*
X92748740Y-123034785D01*
X92748740Y-123034785D02*
X92820169Y-122963357D01*
X92820169Y-122963357D02*
X92748740Y-122891928D01*
X92748740Y-122891928D02*
X92748740Y-123034785D01*
X93677312Y-124391928D02*
X93534455Y-124320500D01*
X93534455Y-124320500D02*
X93463026Y-124177642D01*
X93463026Y-124177642D02*
X93463026Y-122891928D01*
X94820169Y-124320500D02*
X94677312Y-124391928D01*
X94677312Y-124391928D02*
X94391598Y-124391928D01*
X94391598Y-124391928D02*
X94248740Y-124320500D01*
X94248740Y-124320500D02*
X94177312Y-124177642D01*
X94177312Y-124177642D02*
X94177312Y-123606214D01*
X94177312Y-123606214D02*
X94248740Y-123463357D01*
X94248740Y-123463357D02*
X94391598Y-123391928D01*
X94391598Y-123391928D02*
X94677312Y-123391928D01*
X94677312Y-123391928D02*
X94820169Y-123463357D01*
X94820169Y-123463357D02*
X94891598Y-123606214D01*
X94891598Y-123606214D02*
X94891598Y-123749071D01*
X94891598Y-123749071D02*
X94177312Y-123891928D01*
X95534454Y-124249071D02*
X95605883Y-124320500D01*
X95605883Y-124320500D02*
X95534454Y-124391928D01*
X95534454Y-124391928D02*
X95463026Y-124320500D01*
X95463026Y-124320500D02*
X95534454Y-124249071D01*
X95534454Y-124249071D02*
X95534454Y-124391928D01*
X95534454Y-123463357D02*
X95605883Y-123534785D01*
X95605883Y-123534785D02*
X95534454Y-123606214D01*
X95534454Y-123606214D02*
X95463026Y-123534785D01*
X95463026Y-123534785D02*
X95534454Y-123463357D01*
X95534454Y-123463357D02*
X95534454Y-123606214D01*
X97391597Y-124391928D02*
X97391597Y-122891928D01*
X97391597Y-122891928D02*
X97748740Y-122891928D01*
X97748740Y-122891928D02*
X97963026Y-122963357D01*
X97963026Y-122963357D02*
X98105883Y-123106214D01*
X98105883Y-123106214D02*
X98177312Y-123249071D01*
X98177312Y-123249071D02*
X98248740Y-123534785D01*
X98248740Y-123534785D02*
X98248740Y-123749071D01*
X98248740Y-123749071D02*
X98177312Y-124034785D01*
X98177312Y-124034785D02*
X98105883Y-124177642D01*
X98105883Y-124177642D02*
X97963026Y-124320500D01*
X97963026Y-124320500D02*
X97748740Y-124391928D01*
X97748740Y-124391928D02*
X97391597Y-124391928D01*
X99534455Y-124391928D02*
X99534455Y-123606214D01*
X99534455Y-123606214D02*
X99463026Y-123463357D01*
X99463026Y-123463357D02*
X99320169Y-123391928D01*
X99320169Y-123391928D02*
X99034455Y-123391928D01*
X99034455Y-123391928D02*
X98891597Y-123463357D01*
X99534455Y-124320500D02*
X99391597Y-124391928D01*
X99391597Y-124391928D02*
X99034455Y-124391928D01*
X99034455Y-124391928D02*
X98891597Y-124320500D01*
X98891597Y-124320500D02*
X98820169Y-124177642D01*
X98820169Y-124177642D02*
X98820169Y-124034785D01*
X98820169Y-124034785D02*
X98891597Y-123891928D01*
X98891597Y-123891928D02*
X99034455Y-123820500D01*
X99034455Y-123820500D02*
X99391597Y-123820500D01*
X99391597Y-123820500D02*
X99534455Y-123749071D01*
X100248740Y-124391928D02*
X100248740Y-123391928D01*
X100248740Y-123677642D02*
X100320169Y-123534785D01*
X100320169Y-123534785D02*
X100391598Y-123463357D01*
X100391598Y-123463357D02*
X100534455Y-123391928D01*
X100534455Y-123391928D02*
X100677312Y-123391928D01*
X101177311Y-124391928D02*
X101177311Y-122891928D01*
X101320169Y-123820500D02*
X101748740Y-124391928D01*
X101748740Y-123391928D02*
X101177311Y-123963357D01*
X102391597Y-124391928D02*
X102391597Y-122891928D01*
X102391597Y-122891928D02*
X102891597Y-123963357D01*
X102891597Y-123963357D02*
X103391597Y-122891928D01*
X103391597Y-122891928D02*
X103391597Y-124391928D01*
X104748741Y-124391928D02*
X104748741Y-123606214D01*
X104748741Y-123606214D02*
X104677312Y-123463357D01*
X104677312Y-123463357D02*
X104534455Y-123391928D01*
X104534455Y-123391928D02*
X104248741Y-123391928D01*
X104248741Y-123391928D02*
X104105883Y-123463357D01*
X104748741Y-124320500D02*
X104605883Y-124391928D01*
X104605883Y-124391928D02*
X104248741Y-124391928D01*
X104248741Y-124391928D02*
X104105883Y-124320500D01*
X104105883Y-124320500D02*
X104034455Y-124177642D01*
X104034455Y-124177642D02*
X104034455Y-124034785D01*
X104034455Y-124034785D02*
X104105883Y-123891928D01*
X104105883Y-123891928D02*
X104248741Y-123820500D01*
X104248741Y-123820500D02*
X104605883Y-123820500D01*
X104605883Y-123820500D02*
X104748741Y-123749071D01*
X106105884Y-123391928D02*
X106105884Y-124606214D01*
X106105884Y-124606214D02*
X106034455Y-124749071D01*
X106034455Y-124749071D02*
X105963026Y-124820500D01*
X105963026Y-124820500D02*
X105820169Y-124891928D01*
X105820169Y-124891928D02*
X105605884Y-124891928D01*
X105605884Y-124891928D02*
X105463026Y-124820500D01*
X106105884Y-124320500D02*
X105963026Y-124391928D01*
X105963026Y-124391928D02*
X105677312Y-124391928D01*
X105677312Y-124391928D02*
X105534455Y-124320500D01*
X105534455Y-124320500D02*
X105463026Y-124249071D01*
X105463026Y-124249071D02*
X105391598Y-124106214D01*
X105391598Y-124106214D02*
X105391598Y-123677642D01*
X105391598Y-123677642D02*
X105463026Y-123534785D01*
X105463026Y-123534785D02*
X105534455Y-123463357D01*
X105534455Y-123463357D02*
X105677312Y-123391928D01*
X105677312Y-123391928D02*
X105963026Y-123391928D01*
X105963026Y-123391928D02*
X106105884Y-123463357D01*
X106820169Y-124391928D02*
X106820169Y-123391928D01*
X106820169Y-122891928D02*
X106748741Y-122963357D01*
X106748741Y-122963357D02*
X106820169Y-123034785D01*
X106820169Y-123034785D02*
X106891598Y-122963357D01*
X106891598Y-122963357D02*
X106820169Y-122891928D01*
X106820169Y-122891928D02*
X106820169Y-123034785D01*
X108177313Y-124320500D02*
X108034455Y-124391928D01*
X108034455Y-124391928D02*
X107748741Y-124391928D01*
X107748741Y-124391928D02*
X107605884Y-124320500D01*
X107605884Y-124320500D02*
X107534455Y-124249071D01*
X107534455Y-124249071D02*
X107463027Y-124106214D01*
X107463027Y-124106214D02*
X107463027Y-123677642D01*
X107463027Y-123677642D02*
X107534455Y-123534785D01*
X107534455Y-123534785D02*
X107605884Y-123463357D01*
X107605884Y-123463357D02*
X107748741Y-123391928D01*
X107748741Y-123391928D02*
X108034455Y-123391928D01*
X108034455Y-123391928D02*
X108177313Y-123463357D01*
X108820169Y-124249071D02*
X108891598Y-124320500D01*
X108891598Y-124320500D02*
X108820169Y-124391928D01*
X108820169Y-124391928D02*
X108748741Y-124320500D01*
X108748741Y-124320500D02*
X108820169Y-124249071D01*
X108820169Y-124249071D02*
X108820169Y-124391928D01*
X109534455Y-124391928D02*
X109534455Y-122891928D01*
X109677313Y-123820500D02*
X110105884Y-124391928D01*
X110105884Y-123391928D02*
X109534455Y-123963357D01*
X110748741Y-124391928D02*
X110748741Y-123391928D01*
X110748741Y-122891928D02*
X110677313Y-122963357D01*
X110677313Y-122963357D02*
X110748741Y-123034785D01*
X110748741Y-123034785D02*
X110820170Y-122963357D01*
X110820170Y-122963357D02*
X110748741Y-122891928D01*
X110748741Y-122891928D02*
X110748741Y-123034785D01*
X112105885Y-124320500D02*
X111963027Y-124391928D01*
X111963027Y-124391928D02*
X111677313Y-124391928D01*
X111677313Y-124391928D02*
X111534456Y-124320500D01*
X111534456Y-124320500D02*
X111463027Y-124249071D01*
X111463027Y-124249071D02*
X111391599Y-124106214D01*
X111391599Y-124106214D02*
X111391599Y-123677642D01*
X111391599Y-123677642D02*
X111463027Y-123534785D01*
X111463027Y-123534785D02*
X111534456Y-123463357D01*
X111534456Y-123463357D02*
X111677313Y-123391928D01*
X111677313Y-123391928D02*
X111963027Y-123391928D01*
X111963027Y-123391928D02*
X112105885Y-123463357D01*
X113391599Y-124391928D02*
X113391599Y-123606214D01*
X113391599Y-123606214D02*
X113320170Y-123463357D01*
X113320170Y-123463357D02*
X113177313Y-123391928D01*
X113177313Y-123391928D02*
X112891599Y-123391928D01*
X112891599Y-123391928D02*
X112748741Y-123463357D01*
X113391599Y-124320500D02*
X113248741Y-124391928D01*
X113248741Y-124391928D02*
X112891599Y-124391928D01*
X112891599Y-124391928D02*
X112748741Y-124320500D01*
X112748741Y-124320500D02*
X112677313Y-124177642D01*
X112677313Y-124177642D02*
X112677313Y-124034785D01*
X112677313Y-124034785D02*
X112748741Y-123891928D01*
X112748741Y-123891928D02*
X112891599Y-123820500D01*
X112891599Y-123820500D02*
X113248741Y-123820500D01*
X113248741Y-123820500D02*
X113391599Y-123749071D01*
X114748742Y-124391928D02*
X114748742Y-122891928D01*
X114748742Y-124320500D02*
X114605884Y-124391928D01*
X114605884Y-124391928D02*
X114320170Y-124391928D01*
X114320170Y-124391928D02*
X114177313Y-124320500D01*
X114177313Y-124320500D02*
X114105884Y-124249071D01*
X114105884Y-124249071D02*
X114034456Y-124106214D01*
X114034456Y-124106214D02*
X114034456Y-123677642D01*
X114034456Y-123677642D02*
X114105884Y-123534785D01*
X114105884Y-123534785D02*
X114177313Y-123463357D01*
X114177313Y-123463357D02*
X114320170Y-123391928D01*
X114320170Y-123391928D02*
X114605884Y-123391928D01*
X114605884Y-123391928D02*
X114748742Y-123463357D01*
X115105885Y-124534785D02*
X116248742Y-124534785D01*
X116605884Y-123391928D02*
X116605884Y-124891928D01*
X116605884Y-123463357D02*
X116748742Y-123391928D01*
X116748742Y-123391928D02*
X117034456Y-123391928D01*
X117034456Y-123391928D02*
X117177313Y-123463357D01*
X117177313Y-123463357D02*
X117248742Y-123534785D01*
X117248742Y-123534785D02*
X117320170Y-123677642D01*
X117320170Y-123677642D02*
X117320170Y-124106214D01*
X117320170Y-124106214D02*
X117248742Y-124249071D01*
X117248742Y-124249071D02*
X117177313Y-124320500D01*
X117177313Y-124320500D02*
X117034456Y-124391928D01*
X117034456Y-124391928D02*
X116748742Y-124391928D01*
X116748742Y-124391928D02*
X116605884Y-124320500D01*
X118605885Y-124320500D02*
X118463027Y-124391928D01*
X118463027Y-124391928D02*
X118177313Y-124391928D01*
X118177313Y-124391928D02*
X118034456Y-124320500D01*
X118034456Y-124320500D02*
X117963027Y-124249071D01*
X117963027Y-124249071D02*
X117891599Y-124106214D01*
X117891599Y-124106214D02*
X117891599Y-123677642D01*
X117891599Y-123677642D02*
X117963027Y-123534785D01*
X117963027Y-123534785D02*
X118034456Y-123463357D01*
X118034456Y-123463357D02*
X118177313Y-123391928D01*
X118177313Y-123391928D02*
X118463027Y-123391928D01*
X118463027Y-123391928D02*
X118605885Y-123463357D01*
X119248741Y-124391928D02*
X119248741Y-122891928D01*
X119248741Y-123463357D02*
X119391599Y-123391928D01*
X119391599Y-123391928D02*
X119677313Y-123391928D01*
X119677313Y-123391928D02*
X119820170Y-123463357D01*
X119820170Y-123463357D02*
X119891599Y-123534785D01*
X119891599Y-123534785D02*
X119963027Y-123677642D01*
X119963027Y-123677642D02*
X119963027Y-124106214D01*
X119963027Y-124106214D02*
X119891599Y-124249071D01*
X119891599Y-124249071D02*
X119820170Y-124320500D01*
X119820170Y-124320500D02*
X119677313Y-124391928D01*
X119677313Y-124391928D02*
X119391599Y-124391928D01*
X119391599Y-124391928D02*
X119248741Y-124320500D01*
X90007200Y-119505800D02*
X198007200Y-119505800D01*
X91391598Y-121620500D02*
X91605884Y-121691928D01*
X91605884Y-121691928D02*
X91963026Y-121691928D01*
X91963026Y-121691928D02*
X92105884Y-121620500D01*
X92105884Y-121620500D02*
X92177312Y-121549071D01*
X92177312Y-121549071D02*
X92248741Y-121406214D01*
X92248741Y-121406214D02*
X92248741Y-121263357D01*
X92248741Y-121263357D02*
X92177312Y-121120500D01*
X92177312Y-121120500D02*
X92105884Y-121049071D01*
X92105884Y-121049071D02*
X91963026Y-120977642D01*
X91963026Y-120977642D02*
X91677312Y-120906214D01*
X91677312Y-120906214D02*
X91534455Y-120834785D01*
X91534455Y-120834785D02*
X91463026Y-120763357D01*
X91463026Y-120763357D02*
X91391598Y-120620500D01*
X91391598Y-120620500D02*
X91391598Y-120477642D01*
X91391598Y-120477642D02*
X91463026Y-120334785D01*
X91463026Y-120334785D02*
X91534455Y-120263357D01*
X91534455Y-120263357D02*
X91677312Y-120191928D01*
X91677312Y-120191928D02*
X92034455Y-120191928D01*
X92034455Y-120191928D02*
X92248741Y-120263357D01*
X92891597Y-121691928D02*
X92891597Y-120191928D01*
X93534455Y-121691928D02*
X93534455Y-120906214D01*
X93534455Y-120906214D02*
X93463026Y-120763357D01*
X93463026Y-120763357D02*
X93320169Y-120691928D01*
X93320169Y-120691928D02*
X93105883Y-120691928D01*
X93105883Y-120691928D02*
X92963026Y-120763357D01*
X92963026Y-120763357D02*
X92891597Y-120834785D01*
X94820169Y-121620500D02*
X94677312Y-121691928D01*
X94677312Y-121691928D02*
X94391598Y-121691928D01*
X94391598Y-121691928D02*
X94248740Y-121620500D01*
X94248740Y-121620500D02*
X94177312Y-121477642D01*
X94177312Y-121477642D02*
X94177312Y-120906214D01*
X94177312Y-120906214D02*
X94248740Y-120763357D01*
X94248740Y-120763357D02*
X94391598Y-120691928D01*
X94391598Y-120691928D02*
X94677312Y-120691928D01*
X94677312Y-120691928D02*
X94820169Y-120763357D01*
X94820169Y-120763357D02*
X94891598Y-120906214D01*
X94891598Y-120906214D02*
X94891598Y-121049071D01*
X94891598Y-121049071D02*
X94177312Y-121191928D01*
X96105883Y-121620500D02*
X95963026Y-121691928D01*
X95963026Y-121691928D02*
X95677312Y-121691928D01*
X95677312Y-121691928D02*
X95534454Y-121620500D01*
X95534454Y-121620500D02*
X95463026Y-121477642D01*
X95463026Y-121477642D02*
X95463026Y-120906214D01*
X95463026Y-120906214D02*
X95534454Y-120763357D01*
X95534454Y-120763357D02*
X95677312Y-120691928D01*
X95677312Y-120691928D02*
X95963026Y-120691928D01*
X95963026Y-120691928D02*
X96105883Y-120763357D01*
X96105883Y-120763357D02*
X96177312Y-120906214D01*
X96177312Y-120906214D02*
X96177312Y-121049071D01*
X96177312Y-121049071D02*
X95463026Y-121191928D01*
X96605883Y-120691928D02*
X97177311Y-120691928D01*
X96820168Y-120191928D02*
X96820168Y-121477642D01*
X96820168Y-121477642D02*
X96891597Y-121620500D01*
X96891597Y-121620500D02*
X97034454Y-121691928D01*
X97034454Y-121691928D02*
X97177311Y-121691928D01*
X97677311Y-121549071D02*
X97748740Y-121620500D01*
X97748740Y-121620500D02*
X97677311Y-121691928D01*
X97677311Y-121691928D02*
X97605883Y-121620500D01*
X97605883Y-121620500D02*
X97677311Y-121549071D01*
X97677311Y-121549071D02*
X97677311Y-121691928D01*
X97677311Y-120763357D02*
X97748740Y-120834785D01*
X97748740Y-120834785D02*
X97677311Y-120906214D01*
X97677311Y-120906214D02*
X97605883Y-120834785D01*
X97605883Y-120834785D02*
X97677311Y-120763357D01*
X97677311Y-120763357D02*
X97677311Y-120906214D01*
D11*
X91347425Y-117184128D02*
X92204568Y-117184128D01*
X91775996Y-118684128D02*
X91775996Y-117184128D01*
X92704567Y-117898414D02*
X93204567Y-117898414D01*
X93418853Y-118684128D02*
X92704567Y-118684128D01*
X92704567Y-118684128D02*
X92704567Y-117184128D01*
X92704567Y-117184128D02*
X93418853Y-117184128D01*
X93990282Y-118255557D02*
X94704568Y-118255557D01*
X93847425Y-118684128D02*
X94347425Y-117184128D01*
X94347425Y-117184128D02*
X94847425Y-118684128D01*
X96275996Y-117969842D02*
X96204567Y-117898414D01*
X96204567Y-117898414D02*
X96061710Y-117826985D01*
X96061710Y-117826985D02*
X95918853Y-117826985D01*
X95918853Y-117826985D02*
X95775996Y-117898414D01*
X95775996Y-117898414D02*
X95704567Y-117969842D01*
X95704567Y-117969842D02*
X95633139Y-118112700D01*
X95633139Y-118112700D02*
X95633139Y-118255557D01*
X95633139Y-118255557D02*
X95704567Y-118398414D01*
X95704567Y-118398414D02*
X95775996Y-118469842D01*
X95775996Y-118469842D02*
X95918853Y-118541271D01*
X95918853Y-118541271D02*
X96061710Y-118541271D01*
X96061710Y-118541271D02*
X96204567Y-118469842D01*
X96204567Y-118469842D02*
X96275996Y-118398414D01*
X96275996Y-117826985D02*
X96275996Y-118398414D01*
X96275996Y-118398414D02*
X96347424Y-118469842D01*
X96347424Y-118469842D02*
X96418853Y-118469842D01*
X96418853Y-118469842D02*
X96561710Y-118398414D01*
X96561710Y-118398414D02*
X96633139Y-118255557D01*
X96633139Y-118255557D02*
X96633139Y-117898414D01*
X96633139Y-117898414D02*
X96490282Y-117684128D01*
X96490282Y-117684128D02*
X96275996Y-117541271D01*
X96275996Y-117541271D02*
X95990282Y-117469842D01*
X95990282Y-117469842D02*
X95704567Y-117541271D01*
X95704567Y-117541271D02*
X95490282Y-117684128D01*
X95490282Y-117684128D02*
X95347424Y-117898414D01*
X95347424Y-117898414D02*
X95275996Y-118184128D01*
X95275996Y-118184128D02*
X95347424Y-118469842D01*
X95347424Y-118469842D02*
X95490282Y-118684128D01*
X95490282Y-118684128D02*
X95704567Y-118826985D01*
X95704567Y-118826985D02*
X95990282Y-118898414D01*
X95990282Y-118898414D02*
X96275996Y-118826985D01*
X96275996Y-118826985D02*
X96490282Y-118684128D01*
X98133138Y-118541271D02*
X98061710Y-118612700D01*
X98061710Y-118612700D02*
X97847424Y-118684128D01*
X97847424Y-118684128D02*
X97704567Y-118684128D01*
X97704567Y-118684128D02*
X97490281Y-118612700D01*
X97490281Y-118612700D02*
X97347424Y-118469842D01*
X97347424Y-118469842D02*
X97275995Y-118326985D01*
X97275995Y-118326985D02*
X97204567Y-118041271D01*
X97204567Y-118041271D02*
X97204567Y-117826985D01*
X97204567Y-117826985D02*
X97275995Y-117541271D01*
X97275995Y-117541271D02*
X97347424Y-117398414D01*
X97347424Y-117398414D02*
X97490281Y-117255557D01*
X97490281Y-117255557D02*
X97704567Y-117184128D01*
X97704567Y-117184128D02*
X97847424Y-117184128D01*
X97847424Y-117184128D02*
X98061710Y-117255557D01*
X98061710Y-117255557D02*
X98133138Y-117326985D01*
X98775995Y-118684128D02*
X98775995Y-117184128D01*
X98775995Y-117184128D02*
X99347424Y-117184128D01*
X99347424Y-117184128D02*
X99490281Y-117255557D01*
X99490281Y-117255557D02*
X99561710Y-117326985D01*
X99561710Y-117326985D02*
X99633138Y-117469842D01*
X99633138Y-117469842D02*
X99633138Y-117684128D01*
X99633138Y-117684128D02*
X99561710Y-117826985D01*
X99561710Y-117826985D02*
X99490281Y-117898414D01*
X99490281Y-117898414D02*
X99347424Y-117969842D01*
X99347424Y-117969842D02*
X98775995Y-117969842D01*
X100275995Y-118684128D02*
X100275995Y-117184128D01*
X100275995Y-117184128D02*
X100847424Y-117184128D01*
X100847424Y-117184128D02*
X100990281Y-117255557D01*
X100990281Y-117255557D02*
X101061710Y-117326985D01*
X101061710Y-117326985D02*
X101133138Y-117469842D01*
X101133138Y-117469842D02*
X101133138Y-117684128D01*
X101133138Y-117684128D02*
X101061710Y-117826985D01*
X101061710Y-117826985D02*
X100990281Y-117898414D01*
X100990281Y-117898414D02*
X100847424Y-117969842D01*
X100847424Y-117969842D02*
X100275995Y-117969842D01*
X102918852Y-117898414D02*
X103418852Y-117898414D01*
X103633138Y-118684128D02*
X102918852Y-118684128D01*
X102918852Y-118684128D02*
X102918852Y-117184128D01*
X102918852Y-117184128D02*
X103633138Y-117184128D01*
X104204567Y-118612700D02*
X104347424Y-118684128D01*
X104347424Y-118684128D02*
X104633138Y-118684128D01*
X104633138Y-118684128D02*
X104775995Y-118612700D01*
X104775995Y-118612700D02*
X104847424Y-118469842D01*
X104847424Y-118469842D02*
X104847424Y-118398414D01*
X104847424Y-118398414D02*
X104775995Y-118255557D01*
X104775995Y-118255557D02*
X104633138Y-118184128D01*
X104633138Y-118184128D02*
X104418853Y-118184128D01*
X104418853Y-118184128D02*
X104275995Y-118112700D01*
X104275995Y-118112700D02*
X104204567Y-117969842D01*
X104204567Y-117969842D02*
X104204567Y-117898414D01*
X104204567Y-117898414D02*
X104275995Y-117755557D01*
X104275995Y-117755557D02*
X104418853Y-117684128D01*
X104418853Y-117684128D02*
X104633138Y-117684128D01*
X104633138Y-117684128D02*
X104775995Y-117755557D01*
X106133139Y-118612700D02*
X105990281Y-118684128D01*
X105990281Y-118684128D02*
X105704567Y-118684128D01*
X105704567Y-118684128D02*
X105561710Y-118612700D01*
X105561710Y-118612700D02*
X105490281Y-118541271D01*
X105490281Y-118541271D02*
X105418853Y-118398414D01*
X105418853Y-118398414D02*
X105418853Y-117969842D01*
X105418853Y-117969842D02*
X105490281Y-117826985D01*
X105490281Y-117826985D02*
X105561710Y-117755557D01*
X105561710Y-117755557D02*
X105704567Y-117684128D01*
X105704567Y-117684128D02*
X105990281Y-117684128D01*
X105990281Y-117684128D02*
X106133139Y-117755557D01*
X107418853Y-118684128D02*
X107418853Y-117898414D01*
X107418853Y-117898414D02*
X107347424Y-117755557D01*
X107347424Y-117755557D02*
X107204567Y-117684128D01*
X107204567Y-117684128D02*
X106918853Y-117684128D01*
X106918853Y-117684128D02*
X106775995Y-117755557D01*
X107418853Y-118612700D02*
X107275995Y-118684128D01*
X107275995Y-118684128D02*
X106918853Y-118684128D01*
X106918853Y-118684128D02*
X106775995Y-118612700D01*
X106775995Y-118612700D02*
X106704567Y-118469842D01*
X106704567Y-118469842D02*
X106704567Y-118326985D01*
X106704567Y-118326985D02*
X106775995Y-118184128D01*
X106775995Y-118184128D02*
X106918853Y-118112700D01*
X106918853Y-118112700D02*
X107275995Y-118112700D01*
X107275995Y-118112700D02*
X107418853Y-118041271D01*
X108133138Y-117684128D02*
X108133138Y-119184128D01*
X108133138Y-117755557D02*
X108275996Y-117684128D01*
X108275996Y-117684128D02*
X108561710Y-117684128D01*
X108561710Y-117684128D02*
X108704567Y-117755557D01*
X108704567Y-117755557D02*
X108775996Y-117826985D01*
X108775996Y-117826985D02*
X108847424Y-117969842D01*
X108847424Y-117969842D02*
X108847424Y-118398414D01*
X108847424Y-118398414D02*
X108775996Y-118541271D01*
X108775996Y-118541271D02*
X108704567Y-118612700D01*
X108704567Y-118612700D02*
X108561710Y-118684128D01*
X108561710Y-118684128D02*
X108275996Y-118684128D01*
X108275996Y-118684128D02*
X108133138Y-118612700D01*
X110061710Y-118612700D02*
X109918853Y-118684128D01*
X109918853Y-118684128D02*
X109633139Y-118684128D01*
X109633139Y-118684128D02*
X109490281Y-118612700D01*
X109490281Y-118612700D02*
X109418853Y-118469842D01*
X109418853Y-118469842D02*
X109418853Y-117898414D01*
X109418853Y-117898414D02*
X109490281Y-117755557D01*
X109490281Y-117755557D02*
X109633139Y-117684128D01*
X109633139Y-117684128D02*
X109918853Y-117684128D01*
X109918853Y-117684128D02*
X110061710Y-117755557D01*
X110061710Y-117755557D02*
X110133139Y-117898414D01*
X110133139Y-117898414D02*
X110133139Y-118041271D01*
X110133139Y-118041271D02*
X109418853Y-118184128D01*
X112775995Y-118684128D02*
X112275995Y-117969842D01*
X111918852Y-118684128D02*
X111918852Y-117184128D01*
X111918852Y-117184128D02*
X112490281Y-117184128D01*
X112490281Y-117184128D02*
X112633138Y-117255557D01*
X112633138Y-117255557D02*
X112704567Y-117326985D01*
X112704567Y-117326985D02*
X112775995Y-117469842D01*
X112775995Y-117469842D02*
X112775995Y-117684128D01*
X112775995Y-117684128D02*
X112704567Y-117826985D01*
X112704567Y-117826985D02*
X112633138Y-117898414D01*
X112633138Y-117898414D02*
X112490281Y-117969842D01*
X112490281Y-117969842D02*
X111918852Y-117969842D01*
X113633138Y-118684128D02*
X113490281Y-118612700D01*
X113490281Y-118612700D02*
X113418852Y-118541271D01*
X113418852Y-118541271D02*
X113347424Y-118398414D01*
X113347424Y-118398414D02*
X113347424Y-117969842D01*
X113347424Y-117969842D02*
X113418852Y-117826985D01*
X113418852Y-117826985D02*
X113490281Y-117755557D01*
X113490281Y-117755557D02*
X113633138Y-117684128D01*
X113633138Y-117684128D02*
X113847424Y-117684128D01*
X113847424Y-117684128D02*
X113990281Y-117755557D01*
X113990281Y-117755557D02*
X114061710Y-117826985D01*
X114061710Y-117826985D02*
X114133138Y-117969842D01*
X114133138Y-117969842D02*
X114133138Y-118398414D01*
X114133138Y-118398414D02*
X114061710Y-118541271D01*
X114061710Y-118541271D02*
X113990281Y-118612700D01*
X113990281Y-118612700D02*
X113847424Y-118684128D01*
X113847424Y-118684128D02*
X113633138Y-118684128D01*
X114990281Y-118684128D02*
X114847424Y-118612700D01*
X114847424Y-118612700D02*
X114775995Y-118541271D01*
X114775995Y-118541271D02*
X114704567Y-118398414D01*
X114704567Y-118398414D02*
X114704567Y-117969842D01*
X114704567Y-117969842D02*
X114775995Y-117826985D01*
X114775995Y-117826985D02*
X114847424Y-117755557D01*
X114847424Y-117755557D02*
X114990281Y-117684128D01*
X114990281Y-117684128D02*
X115204567Y-117684128D01*
X115204567Y-117684128D02*
X115347424Y-117755557D01*
X115347424Y-117755557D02*
X115418853Y-117826985D01*
X115418853Y-117826985D02*
X115490281Y-117969842D01*
X115490281Y-117969842D02*
X115490281Y-118398414D01*
X115490281Y-118398414D02*
X115418853Y-118541271D01*
X115418853Y-118541271D02*
X115347424Y-118612700D01*
X115347424Y-118612700D02*
X115204567Y-118684128D01*
X115204567Y-118684128D02*
X114990281Y-118684128D01*
X116133138Y-118684128D02*
X116133138Y-117684128D01*
X116133138Y-117826985D02*
X116204567Y-117755557D01*
X116204567Y-117755557D02*
X116347424Y-117684128D01*
X116347424Y-117684128D02*
X116561710Y-117684128D01*
X116561710Y-117684128D02*
X116704567Y-117755557D01*
X116704567Y-117755557D02*
X116775996Y-117898414D01*
X116775996Y-117898414D02*
X116775996Y-118684128D01*
X116775996Y-117898414D02*
X116847424Y-117755557D01*
X116847424Y-117755557D02*
X116990281Y-117684128D01*
X116990281Y-117684128D02*
X117204567Y-117684128D01*
X117204567Y-117684128D02*
X117347424Y-117755557D01*
X117347424Y-117755557D02*
X117418853Y-117898414D01*
X117418853Y-117898414D02*
X117418853Y-118684128D01*
X119204567Y-117326985D02*
X119275995Y-117255557D01*
X119275995Y-117255557D02*
X119418853Y-117184128D01*
X119418853Y-117184128D02*
X119775995Y-117184128D01*
X119775995Y-117184128D02*
X119918853Y-117255557D01*
X119918853Y-117255557D02*
X119990281Y-117326985D01*
X119990281Y-117326985D02*
X120061710Y-117469842D01*
X120061710Y-117469842D02*
X120061710Y-117612700D01*
X120061710Y-117612700D02*
X119990281Y-117826985D01*
X119990281Y-117826985D02*
X119133138Y-118684128D01*
X119133138Y-118684128D02*
X120061710Y-118684128D01*
X120990281Y-117184128D02*
X121133138Y-117184128D01*
X121133138Y-117184128D02*
X121275995Y-117255557D01*
X121275995Y-117255557D02*
X121347424Y-117326985D01*
X121347424Y-117326985D02*
X121418852Y-117469842D01*
X121418852Y-117469842D02*
X121490281Y-117755557D01*
X121490281Y-117755557D02*
X121490281Y-118112700D01*
X121490281Y-118112700D02*
X121418852Y-118398414D01*
X121418852Y-118398414D02*
X121347424Y-118541271D01*
X121347424Y-118541271D02*
X121275995Y-118612700D01*
X121275995Y-118612700D02*
X121133138Y-118684128D01*
X121133138Y-118684128D02*
X120990281Y-118684128D01*
X120990281Y-118684128D02*
X120847424Y-118612700D01*
X120847424Y-118612700D02*
X120775995Y-118541271D01*
X120775995Y-118541271D02*
X120704566Y-118398414D01*
X120704566Y-118398414D02*
X120633138Y-118112700D01*
X120633138Y-118112700D02*
X120633138Y-117755557D01*
X120633138Y-117755557D02*
X120704566Y-117469842D01*
X120704566Y-117469842D02*
X120775995Y-117326985D01*
X120775995Y-117326985D02*
X120847424Y-117255557D01*
X120847424Y-117255557D02*
X120990281Y-117184128D01*
X122061709Y-117326985D02*
X122133137Y-117255557D01*
X122133137Y-117255557D02*
X122275995Y-117184128D01*
X122275995Y-117184128D02*
X122633137Y-117184128D01*
X122633137Y-117184128D02*
X122775995Y-117255557D01*
X122775995Y-117255557D02*
X122847423Y-117326985D01*
X122847423Y-117326985D02*
X122918852Y-117469842D01*
X122918852Y-117469842D02*
X122918852Y-117612700D01*
X122918852Y-117612700D02*
X122847423Y-117826985D01*
X122847423Y-117826985D02*
X121990280Y-118684128D01*
X121990280Y-118684128D02*
X122918852Y-118684128D01*
X124204566Y-117184128D02*
X123918851Y-117184128D01*
X123918851Y-117184128D02*
X123775994Y-117255557D01*
X123775994Y-117255557D02*
X123704566Y-117326985D01*
X123704566Y-117326985D02*
X123561708Y-117541271D01*
X123561708Y-117541271D02*
X123490280Y-117826985D01*
X123490280Y-117826985D02*
X123490280Y-118398414D01*
X123490280Y-118398414D02*
X123561708Y-118541271D01*
X123561708Y-118541271D02*
X123633137Y-118612700D01*
X123633137Y-118612700D02*
X123775994Y-118684128D01*
X123775994Y-118684128D02*
X124061708Y-118684128D01*
X124061708Y-118684128D02*
X124204566Y-118612700D01*
X124204566Y-118612700D02*
X124275994Y-118541271D01*
X124275994Y-118541271D02*
X124347423Y-118398414D01*
X124347423Y-118398414D02*
X124347423Y-118041271D01*
X124347423Y-118041271D02*
X124275994Y-117898414D01*
X124275994Y-117898414D02*
X124204566Y-117826985D01*
X124204566Y-117826985D02*
X124061708Y-117755557D01*
X124061708Y-117755557D02*
X123775994Y-117755557D01*
X123775994Y-117755557D02*
X123633137Y-117826985D01*
X123633137Y-117826985D02*
X123561708Y-117898414D01*
X123561708Y-117898414D02*
X123490280Y-118041271D01*
D10*
X110007200Y-129505800D02*
X110007200Y-132505800D01*
X174007200Y-129505800D02*
X174007200Y-136005800D01*
D13*
%TO.P,H1,1,1_1*%
%TO.N,GND*%
X172090000Y-91400000D03*
%TD*%
D14*
%TO.P,J1,SH,SHIELD_SH*%
%TO.N,GND*%
X76325000Y-28705000D03*
D15*
X76325000Y-24525000D03*
D14*
X67685000Y-28705000D03*
D15*
X67685000Y-24525000D03*
%TD*%
D16*
%TO.P,J4,1,Pin_1_1*%
%TO.N,Net-(J4-Pin_1)*%
X84475175Y-81425002D03*
D17*
%TO.P,J4,2,Pin_2_2*%
X94475175Y-81425002D03*
%TD*%
D13*
%TO.P,H4,1,1_1*%
%TO.N,GND*%
X105200000Y-78300000D03*
%TD*%
D18*
%TO.P,J7,1,1_1*%
%TO.N,/12VIN*%
X104050000Y-86350000D03*
D19*
%TO.P,J7,2,2_2*%
%TO.N,/FAN_VOUT*%
X106550000Y-86350000D03*
%TD*%
D20*
%TO.P,J6,1,1_1*%
%TO.N,/TXA1D*%
X172635175Y-75110002D03*
%TO.P,J6,2,2_2*%
%TO.N,/RXA1D*%
X172635175Y-72352002D03*
%TO.P,J6,3,3_3*%
%TO.N,/TXA2D*%
X172635175Y-69594002D03*
%TO.P,J6,4,4_4*%
%TO.N,/RXA2D*%
X172635175Y-66836002D03*
%TO.P,J6,5,5_5*%
%TO.N,/TXA3D*%
X172635175Y-64078002D03*
%TO.P,J6,6,6_6*%
%TO.N,/RXA3D*%
X172635175Y-61320002D03*
%TO.P,J6,7,7_7*%
%TO.N,/TXA4D*%
X172635175Y-58562002D03*
%TO.P,J6,8,8_8*%
%TO.N,/RXA4D*%
X172635175Y-55804002D03*
%TO.P,J6,9,9_9*%
%TO.N,/TXA5D*%
X172635175Y-53046002D03*
%TO.P,J6,10,10_10*%
%TO.N,/RXA5D*%
X172635175Y-50288002D03*
%TO.P,J6,11,11_11*%
%TO.N,/TXA6D*%
X172635175Y-47530002D03*
%TO.P,J6,12,12_12*%
%TO.N,/RXA6D*%
X172635175Y-44772002D03*
%TO.P,J6,13,13_13*%
%TO.N,GND*%
X172635175Y-42014002D03*
%TO.P,J6,14,14_14*%
X175475175Y-73731002D03*
%TO.P,J6,15,15_15*%
%TO.N,+5V*%
X175475175Y-70973002D03*
%TO.P,J6,16,16_16*%
%TO.N,GND*%
X175475175Y-68215002D03*
%TO.P,J6,17,17_17*%
%TO.N,+5V*%
X175475175Y-65457002D03*
%TO.P,J6,18,18_18*%
%TO.N,GND*%
X175475175Y-62699002D03*
%TO.P,J6,19,19_19*%
%TO.N,+5V*%
X175475175Y-59941002D03*
%TO.P,J6,20,20_20*%
%TO.N,GND*%
X175475175Y-57183002D03*
%TO.P,J6,21,21_21*%
%TO.N,+5V*%
X175475175Y-54425002D03*
%TO.P,J6,22,22_22*%
%TO.N,GND*%
X175475175Y-51667002D03*
%TO.P,J6,23,23_23*%
%TO.N,+5V*%
X175475175Y-48909002D03*
%TO.P,J6,24,24_24*%
%TO.N,GND*%
X175475175Y-46151002D03*
%TO.P,J6,25,25_25*%
%TO.N,+5V*%
X175475175Y-43393002D03*
D21*
%TO.P,J6,MH1,MH1_MH1*%
%TO.N,GND*%
X174055175Y-35042002D03*
%TO.P,J6,MH2,MH2_MH2*%
X174055175Y-82082002D03*
%TD*%
D13*
%TO.P,H5,1,1_1*%
%TO.N,GND*%
X37980000Y-25500000D03*
%TD*%
%TO.P,H3,1,1_1*%
%TO.N,GND*%
X172100000Y-25600000D03*
%TD*%
%TO.P,H6,1,1_1*%
%TO.N,GND*%
X37990000Y-91340000D03*
%TD*%
D20*
%TO.P,J3,1,1_1*%
%TO.N,/TXB1D*%
X37395175Y-41857002D03*
%TO.P,J3,2,2_2*%
%TO.N,/RXB1D*%
X37395175Y-44615002D03*
%TO.P,J3,3,3_3*%
%TO.N,/TXB2D*%
X37395175Y-47373002D03*
%TO.P,J3,4,4_4*%
%TO.N,/RXB2D*%
X37395175Y-50131002D03*
%TO.P,J3,5,5_5*%
%TO.N,/TXB3D*%
X37395175Y-52889002D03*
%TO.P,J3,6,6_6*%
%TO.N,/RXB3D*%
X37395175Y-55647002D03*
%TO.P,J3,7,7_7*%
%TO.N,/TXB4D*%
X37395175Y-58405002D03*
%TO.P,J3,8,8_8*%
%TO.N,/RXB4D*%
X37395175Y-61163002D03*
%TO.P,J3,9,9_9*%
%TO.N,/TXB5D*%
X37395175Y-63921002D03*
%TO.P,J3,10,10_10*%
%TO.N,/RXB5D*%
X37395175Y-66679002D03*
%TO.P,J3,11,11_11*%
%TO.N,/TXB6D*%
X37395175Y-69437002D03*
%TO.P,J3,12,12_12*%
%TO.N,/RXB6D*%
X37395175Y-72195002D03*
%TO.P,J3,13,13_13*%
%TO.N,GND*%
X37395175Y-74953002D03*
%TO.P,J3,14,14_14*%
X34555175Y-43236002D03*
%TO.P,J3,15,15_15*%
%TO.N,+5V*%
X34555175Y-45994002D03*
%TO.P,J3,16,16_16*%
%TO.N,GND*%
X34555175Y-48752002D03*
%TO.P,J3,17,17_17*%
%TO.N,+5V*%
X34555175Y-51510002D03*
%TO.P,J3,18,18_18*%
%TO.N,GND*%
X34555175Y-54268002D03*
%TO.P,J3,19,19_19*%
%TO.N,+5V*%
X34555175Y-57026002D03*
%TO.P,J3,20,20_20*%
%TO.N,GND*%
X34555175Y-59784002D03*
%TO.P,J3,21,21_21*%
%TO.N,+5V*%
X34555175Y-62542002D03*
%TO.P,J3,22,22_22*%
%TO.N,GND*%
X34555175Y-65300002D03*
%TO.P,J3,23,23_23*%
%TO.N,+5V*%
X34555175Y-68058002D03*
%TO.P,J3,24,24_24*%
%TO.N,GND*%
X34555175Y-70816002D03*
%TO.P,J3,25,25_25*%
%TO.N,+5V*%
X34555175Y-73574002D03*
D21*
%TO.P,J3,MH1,MH1_MH1*%
%TO.N,GND*%
X35975175Y-81925002D03*
%TO.P,J3,MH2,MH2_MH2*%
X35975175Y-34885002D03*
%TD*%
D22*
%TO.P,J2,*%
%TO.N,*%
X154610175Y-39785002D03*
D23*
%TO.P,J2,1*%
%TO.N,/TXP*%
X162230175Y-39785002D03*
D22*
%TO.P,J2,2*%
%TO.N,/TXN*%
X160970175Y-42325002D03*
%TO.P,J2,3*%
%TO.N,/RXP*%
X159690175Y-39785002D03*
%TO.P,J2,4*%
%TO.N,+3V3*%
X158430175Y-42325002D03*
%TO.P,J2,5*%
X157150175Y-39785002D03*
%TO.P,J2,6*%
%TO.N,/RXN*%
X155890175Y-42325002D03*
%TO.P,J2,8*%
%TO.N,GND*%
X153350175Y-42325002D03*
%TO.P,J2,9*%
%TO.N,Net-(J2-Pad9)*%
X164415175Y-28525002D03*
%TO.P,J2,10*%
%TO.N,/LINKLED*%
X161875175Y-28525002D03*
%TO.P,J2,11*%
%TO.N,/ACTLED*%
X153705175Y-28525002D03*
%TO.P,J2,12*%
%TO.N,Net-(J2-Pad12)*%
X151165175Y-28525002D03*
D24*
%TO.P,J2,15,SHIELD_15*%
%TO.N,GND*%
X165535175Y-36475002D03*
%TO.P,J2,16,SHIELD_16*%
X150045175Y-36475002D03*
%TD*%
D16*
%TO.P,J5,1,Pin_1_1*%
%TO.N,GND*%
X115475175Y-81425002D03*
D17*
%TO.P,J5,2,Pin_2_2*%
X125475175Y-81425002D03*
%TD*%
D25*
%TO.N,GND*%
X144142675Y-45325002D03*
%TO.N,/ESP_IRQ*%
X145577586Y-44297414D03*
%TO.N,GND*%
X145400000Y-42300000D03*
X96000000Y-41250000D03*
X95375000Y-35900000D03*
%TO.N,/RXB5D*%
X68692539Y-64807461D03*
%TO.N,GND*%
X137500000Y-55425002D03*
X84150000Y-66575000D03*
X89675000Y-66575000D03*
%TO.N,/RXA2D*%
X146875000Y-36900000D03*
X146625000Y-46200000D03*
%TO.N,/RXA1D*%
X146925000Y-48850000D03*
X135250000Y-36325000D03*
%TO.N,GND*%
X86705175Y-29475002D03*
X119545175Y-70075002D03*
X148470000Y-66900000D03*
X157455175Y-48675002D03*
X63505175Y-80962502D03*
X143555175Y-52425002D03*
X51105175Y-46985002D03*
X145442675Y-38575002D03*
X142305175Y-49275002D03*
X128800000Y-59700000D03*
X134255175Y-55425002D03*
X58355175Y-52925002D03*
X52000000Y-68900000D03*
X74005175Y-88925002D03*
X98548303Y-33175002D03*
X41025000Y-35650000D03*
X147250000Y-66900000D03*
X89730176Y-29150001D03*
X56955175Y-54325002D03*
X140705175Y-41425002D03*
X48000000Y-68900000D03*
X126900000Y-30600000D03*
X87905175Y-51125002D03*
X105225000Y-29575000D03*
X149270000Y-68530000D03*
X99667675Y-52975000D03*
X124480176Y-51950001D03*
X53050000Y-40075000D03*
X156750000Y-86100000D03*
X146500000Y-71900000D03*
X127880174Y-29150001D03*
X46255175Y-56425002D03*
X70505175Y-81925002D03*
X138555175Y-30775002D03*
X58355175Y-54325002D03*
X94705175Y-41725002D03*
X153642675Y-50525002D03*
X61505175Y-70387502D03*
X59755175Y-54325002D03*
X138505175Y-49075002D03*
X119167675Y-30225002D03*
X177000000Y-76700000D03*
X138067675Y-45325002D03*
X57600000Y-84600000D03*
X149260000Y-65310000D03*
X80917675Y-52975002D03*
X145342675Y-28825002D03*
X151040000Y-68540000D03*
X151955175Y-47975002D03*
X108055175Y-51675002D03*
X97505175Y-43425002D03*
X111892675Y-65925002D03*
X138067675Y-43225002D03*
X63505175Y-70387502D03*
X58355175Y-55725002D03*
X59755175Y-52925002D03*
X138555175Y-28875002D03*
X56955175Y-52925002D03*
X56717675Y-32675002D03*
X143855175Y-66925002D03*
X48978000Y-77105000D03*
X161600000Y-66400000D03*
X139655175Y-60000002D03*
X59505175Y-36750002D03*
X46255175Y-58425002D03*
X134005175Y-45487502D03*
X147700000Y-73000000D03*
X63600000Y-84600000D03*
X139094729Y-53154687D03*
X165000000Y-69000000D03*
X168400000Y-66400000D03*
X45200175Y-23875002D03*
X154605175Y-48462502D03*
X69700000Y-40000000D03*
X46925000Y-43300000D03*
X120815175Y-70075002D03*
X151040000Y-65320000D03*
X46067675Y-50125002D03*
X127305175Y-51675002D03*
X141505175Y-66700002D03*
X44375000Y-39025000D03*
X56955175Y-55725002D03*
X63255175Y-31925002D03*
X146020000Y-66900000D03*
X150155175Y-66925002D03*
X47450000Y-87900000D03*
X85605173Y-39687502D03*
X166750000Y-73800000D03*
X117580174Y-54150001D03*
X124625175Y-70075002D03*
X105230176Y-51950001D03*
X46255175Y-60425002D03*
X143755175Y-60012502D03*
X68605175Y-46985002D03*
X89305175Y-51075002D03*
X142755175Y-49775002D03*
X142405175Y-39525002D03*
X138555175Y-36275002D03*
X80805175Y-40125002D03*
X150555175Y-46875002D03*
X63604175Y-76375002D03*
X54140175Y-64745002D03*
X82175000Y-31125005D03*
X109880174Y-65887502D03*
X98002588Y-40150000D03*
X141705175Y-60000002D03*
X141505175Y-54125002D03*
X70255175Y-38025002D03*
X138555175Y-34375002D03*
X138655175Y-38625002D03*
X62400000Y-31175002D03*
X136650000Y-59700000D03*
X136105175Y-43287502D03*
X97805175Y-51525002D03*
X77750000Y-56500000D03*
X99917675Y-29725002D03*
X107100000Y-69100000D03*
X76700000Y-77600000D03*
X138705175Y-49975002D03*
X164150000Y-86100000D03*
X132700000Y-61100000D03*
X46255175Y-62425002D03*
X71000000Y-77600000D03*
X138655175Y-40525002D03*
X132700000Y-59700000D03*
X48205175Y-66325002D03*
X59755175Y-55725002D03*
X161455175Y-48675002D03*
X50350175Y-23875002D03*
X167200000Y-59200000D03*
X45520000Y-34750000D03*
X177005175Y-69425002D03*
X67505175Y-36675002D03*
X171705175Y-77825002D03*
X143255175Y-49275002D03*
%TO.N,+3V3*%
X141700000Y-68700000D03*
X140730175Y-49900002D03*
X86655175Y-44225002D03*
X143367675Y-38575002D03*
X154700000Y-82350000D03*
X83242675Y-29725002D03*
X48205175Y-48012502D03*
X101992675Y-29725002D03*
X143267675Y-28825002D03*
X86831128Y-52925002D03*
X143855175Y-69225002D03*
X131300000Y-72200000D03*
X134205175Y-47600000D03*
X73355175Y-63475002D03*
X139655175Y-52325002D03*
X77195000Y-90705000D03*
X141255175Y-49375002D03*
X140400000Y-70500000D03*
X120992675Y-52975002D03*
X138100000Y-75175000D03*
X85521989Y-41725002D03*
X141700000Y-68700000D03*
X48005175Y-54275002D03*
X143267675Y-34325002D03*
X145155175Y-23525002D03*
X125087500Y-52650000D03*
X143525000Y-75180000D03*
X53200000Y-49200000D03*
X138700000Y-72200000D03*
X101205175Y-41887502D03*
X101780174Y-53250001D03*
X140205175Y-43225002D03*
X148342797Y-51999880D03*
X147005175Y-32625002D03*
X141525000Y-75180000D03*
X140155175Y-49325002D03*
X138505175Y-53725002D03*
X44120000Y-31990000D03*
X145400000Y-75180000D03*
X54000000Y-86375002D03*
X156200000Y-66400000D03*
X121125395Y-30107723D03*
X157455175Y-46184999D03*
%TO.N,/SOT*%
X150500000Y-44325000D03*
X156725000Y-51850000D03*
%TO.N,/SO*%
X138555175Y-29825002D03*
X106603459Y-32726716D03*
X148305175Y-39825002D03*
X127105175Y-31808932D03*
X131705175Y-31125002D03*
X124905181Y-54274996D03*
X87205178Y-32375002D03*
X125155181Y-31824996D03*
X140795178Y-27184999D03*
%TO.N,/XS3*%
X89305175Y-42325002D03*
X124714795Y-28500003D03*
%TO.N,/12VIN*%
X44800000Y-73400000D03*
X69450000Y-78050000D03*
X103250000Y-91300000D03*
X51600000Y-73300000D03*
X152400000Y-67800000D03*
X50000000Y-68900000D03*
X143837500Y-78762500D03*
X68500000Y-82600000D03*
X66060000Y-86340000D03*
X69400000Y-70900000D03*
X76850000Y-85450000D03*
%TO.N,/USB_VBUSF*%
X69605173Y-29226474D03*
X69605175Y-33175002D03*
X74405175Y-29255000D03*
%TO.N,/USB_DP*%
X67505175Y-35725002D03*
X71755175Y-27925002D03*
%TO.N,/USB_DN*%
X67505175Y-37625002D03*
X72255175Y-30600000D03*
%TO.N,Net-(3V1-A)*%
X54000000Y-84475002D03*
X57600000Y-86600000D03*
%TO.N,+5V*%
X136500000Y-64625002D03*
X75505175Y-37725002D03*
X67600000Y-72975000D03*
X63505175Y-72462502D03*
X68800000Y-67500000D03*
X65825000Y-72200000D03*
X141505175Y-64625002D03*
X65900000Y-70400000D03*
X61505175Y-72462502D03*
X138700000Y-64625002D03*
X132100000Y-64625002D03*
X60005175Y-86375002D03*
X66900000Y-67500000D03*
X134300000Y-64625002D03*
%TO.N,/FAN_VOUT*%
X104662500Y-71300000D03*
X107550000Y-91300000D03*
%TO.N,/RXA3D*%
X166700000Y-53200000D03*
X119205175Y-28225002D03*
X164500000Y-55925002D03*
%TO.N,/D4*%
X105100000Y-54800000D03*
X120630175Y-56800001D03*
%TO.N,Net-(Q2-G)*%
X82775000Y-69400000D03*
X58550000Y-69400000D03*
X132700000Y-68500000D03*
X106537500Y-72250000D03*
%TO.N,/TXB6D*%
X80200000Y-64700000D03*
X131605175Y-54725002D03*
%TO.N,/XTAL*%
X80755175Y-41750002D03*
X95805175Y-44725002D03*
%TO.N,/RXA4D*%
X80955175Y-50675002D03*
%TO.N,/TXA4D*%
X80955175Y-48975002D03*
%TO.N,/RXB6D*%
X132955175Y-49475002D03*
X105700000Y-59700000D03*
X91500000Y-62200000D03*
X107802588Y-57502588D03*
%TO.N,/RXA5D*%
X145125000Y-58000000D03*
X99705175Y-50975002D03*
X97505175Y-54100000D03*
X154725000Y-56575000D03*
%TO.N,/IO12*%
X51105175Y-63495002D03*
X48205175Y-64325002D03*
%TO.N,/TXB1D*%
X95205175Y-29075002D03*
X91105175Y-23425002D03*
%TO.N,/ESP_SCLKT*%
X63607917Y-52667083D03*
X68605175Y-57145002D03*
X55200000Y-42525000D03*
X74250000Y-54000000D03*
%TO.N,/RTS*%
X54505175Y-27675003D03*
X64455175Y-28400000D03*
%TO.N,/ESP_MOSI*%
X138555175Y-35325002D03*
X74375000Y-50500000D03*
%TO.N,/ESP_A0*%
X48255175Y-60425002D03*
X115735175Y-70075002D03*
%TO.N,/SCLK*%
X86721346Y-33073866D03*
X105445176Y-33055001D03*
X86505178Y-55474999D03*
X119250824Y-54827390D03*
X127005175Y-55425002D03*
X145405175Y-40775002D03*
X124325000Y-32974999D03*
X144005175Y-49925002D03*
X105355175Y-56425002D03*
X128355175Y-36275002D03*
%TO.N,/ESP_SCLK*%
X87275000Y-44850000D03*
X131150000Y-42000000D03*
X77000000Y-55250000D03*
X113140087Y-62759913D03*
X166000000Y-82300000D03*
X78005175Y-59825002D03*
%TO.N,/ESP_USRST*%
X62700000Y-66375000D03*
X86605175Y-49325002D03*
X105303075Y-49300003D03*
X128117275Y-46478026D03*
X64225000Y-62150000D03*
X84100000Y-45500000D03*
%TO.N,/1IN+*%
X45400000Y-85900000D03*
X67600000Y-70900000D03*
X46500000Y-79200000D03*
X48978000Y-75835000D03*
%TO.N,/TXA1D*%
X136200000Y-36275000D03*
X144700000Y-56050000D03*
X81205175Y-25725002D03*
X151250000Y-40500000D03*
X153325000Y-55575000D03*
%TO.N,/RXA1D*%
X81205175Y-27725002D03*
%TO.N,/TXA2D*%
X100879086Y-25080921D03*
X166000000Y-55400000D03*
X168200000Y-53200000D03*
%TO.N,/RXA2D*%
X112705175Y-24225002D03*
X168375000Y-63478002D03*
X99955175Y-27725002D03*
%TO.N,/TXA3D*%
X170050000Y-64078002D03*
X119205175Y-26225002D03*
%TO.N,/TXA5D*%
X145025000Y-57000000D03*
X136816465Y-56683535D03*
%TO.N,/TXA6D*%
X160700000Y-38000000D03*
X132539077Y-39512393D03*
X118955175Y-48975002D03*
%TO.N,/RXA6D*%
X133500000Y-39500000D03*
X149405175Y-30725002D03*
X131955175Y-35875002D03*
X118955175Y-50975002D03*
%TO.N,/ESP_A2*%
X118275175Y-70075002D03*
X48255175Y-56425002D03*
%TO.N,/USB_VBUS*%
X75505175Y-33425002D03*
X72905175Y-33175002D03*
X65005175Y-36675002D03*
%TO.N,/XS4*%
X86480176Y-50700001D03*
X89305175Y-44325002D03*
%TO.N,/ESP_IRQ*%
X118355175Y-57075002D03*
X93500000Y-55225000D03*
X154780174Y-53350001D03*
X158600000Y-82400000D03*
X104662500Y-38762500D03*
X136815086Y-35534914D03*
X132205175Y-33700002D03*
X112005175Y-34625002D03*
X131455175Y-47775002D03*
X111605175Y-56825002D03*
X135350000Y-47450000D03*
X145605175Y-46925002D03*
X94500000Y-58025000D03*
X67100000Y-60900000D03*
X149550000Y-45075000D03*
X127625000Y-48525000D03*
X85405173Y-58025000D03*
X168573971Y-68226029D03*
%TO.N,/2IN+*%
X56500000Y-77300000D03*
X100600000Y-73600000D03*
X64000000Y-73600000D03*
X152400000Y-66000000D03*
X119500000Y-73600000D03*
%TO.N,/2OUT*%
X54400000Y-79100000D03*
X54400000Y-74565000D03*
X52400000Y-79200000D03*
X56600000Y-71350000D03*
%TO.N,/XS1*%
X97505175Y-34025002D03*
X86705175Y-28225002D03*
X105205175Y-43025002D03*
%TO.N,/TXB5D*%
X60800000Y-62800000D03*
X98100000Y-62225002D03*
X114105175Y-56925002D03*
%TO.N,/ESP_E3*%
X48255175Y-58425002D03*
X122085175Y-70075002D03*
X53669390Y-56350000D03*
%TO.N,/WTXP*%
X160505175Y-48675002D03*
X145755175Y-47773531D03*
X135755175Y-48175002D03*
%TO.N,/WTXN*%
X162405175Y-48675002D03*
X135467991Y-48921681D03*
%TO.N,/TXN*%
X162405175Y-46175002D03*
%TO.N,/TXP*%
X160505175Y-46175002D03*
%TO.N,/ESP_A1*%
X48255175Y-62425002D03*
X117005175Y-70075002D03*
%TO.N,/XS6*%
X124477503Y-50634721D03*
X89305175Y-40325002D03*
%TO.N,/D5*%
X125680175Y-59712802D03*
X126455175Y-53875002D03*
%TO.N,/SI*%
X55150000Y-37775000D03*
X106062500Y-37462500D03*
X83305172Y-32325005D03*
X83055175Y-54775002D03*
X101805175Y-54775002D03*
X76975000Y-44110260D03*
X150480174Y-38750001D03*
X145355175Y-36475002D03*
X153000000Y-36200000D03*
X120997117Y-54550001D03*
X60850000Y-39450000D03*
X87447760Y-40647760D03*
X121255175Y-32375002D03*
%TO.N,/CD_DP*%
X60255175Y-30925002D03*
X65005175Y-35725002D03*
%TO.N,/CD_DN*%
X65005175Y-37625002D03*
X60005175Y-31925002D03*
%TO.N,/1V20*%
X143805175Y-57906252D03*
X155000000Y-72500000D03*
%TO.N,/WRXP*%
X156505175Y-48675002D03*
X134505175Y-49925002D03*
%TO.N,/WRXN*%
X158405175Y-48675002D03*
X135243175Y-51425002D03*
%TO.N,/LINKLED*%
X147236175Y-54425002D03*
%TO.N,/ACTLED*%
X147255175Y-53425002D03*
%TO.N,/ESP_SCSN*%
X76623435Y-58425002D03*
X143464351Y-50884178D03*
X73425000Y-58575000D03*
%TO.N,/RSTB*%
X62005175Y-37675002D03*
X63564795Y-34865382D03*
%TO.N,/ESP_RX0*%
X68605175Y-52065002D03*
X63465822Y-27534179D03*
%TO.N,/ESP_TX0*%
X63022831Y-28770494D03*
X68605175Y-50795002D03*
%TO.N,/XS2*%
X97255175Y-35475002D03*
X95205175Y-46225002D03*
X105455175Y-28225002D03*
%TO.N,/TXB4D*%
X94955175Y-51725002D03*
X41019998Y-58405002D03*
%TO.N,/RXN*%
X158405175Y-46175002D03*
%TO.N,/RXP*%
X156505175Y-46175002D03*
%TO.N,/TXB3D*%
X133205175Y-29225002D03*
%TO.N,/RXB1D*%
X95205175Y-27225002D03*
X41562500Y-45662500D03*
%TO.N,/TXB2D*%
X113955175Y-28675002D03*
%TO.N,/RXB2D*%
X68193152Y-41568152D03*
X113955175Y-27125000D03*
X41825000Y-50125000D03*
X106800000Y-30350000D03*
X86450000Y-37500000D03*
%TO.N,/RXB3D*%
X133205175Y-27225002D03*
%TO.N,/RXB4D*%
X94933520Y-49852417D03*
%TO.N,/RXB5D*%
X79450000Y-59825000D03*
X113705175Y-49725002D03*
X59100000Y-67225002D03*
X78425000Y-64050000D03*
X79450000Y-57875000D03*
%TO.N,Net-(5V1-A)*%
X63600000Y-86600000D03*
X60005175Y-84475002D03*
%TO.N,/D3*%
X87744051Y-53625002D03*
X121180175Y-59712802D03*
%TO.N,/XS5*%
X105230176Y-50700001D03*
X101205175Y-38125002D03*
%TO.N,/D2*%
X118930175Y-59712802D03*
X125802173Y-31354459D03*
%TO.N,/ESP_MISO*%
X73305175Y-42325002D03*
X68605175Y-55875002D03*
X145355175Y-31125002D03*
%TD*%
%TO.N,/ESP_A1*%
D26*
X71575000Y-70700000D02*
X116380177Y-70700000D01*
X116380177Y-70700000D02*
X117005175Y-70075002D01*
X63000000Y-69725000D02*
X70600000Y-69725000D01*
X52960002Y-59685002D02*
X63000000Y-69725000D01*
X50995175Y-59685002D02*
X52960002Y-59685002D01*
X48255175Y-62425002D02*
X50995175Y-59685002D01*
X70600000Y-69725000D02*
X71575000Y-70700000D01*
%TO.N,/ESP_SCLK*%
X164500000Y-80775000D02*
X166000000Y-82275000D01*
X166000000Y-82275000D02*
X166000000Y-82300000D01*
X129326644Y-80775000D02*
X164500000Y-80775000D01*
X118875175Y-70323531D02*
X129326644Y-80775000D01*
X113159913Y-62759913D02*
X118875175Y-68475175D01*
X113140087Y-62759913D02*
X113159913Y-62759913D01*
X118875175Y-68475175D02*
X118875175Y-70323531D01*
%TO.N,/ESP_A2*%
X118275175Y-70050175D02*
X118275175Y-70075002D01*
X111400000Y-63175000D02*
X118275175Y-70050175D01*
X93515688Y-63175000D02*
X111400000Y-63175000D01*
X73478706Y-64200000D02*
X74478706Y-63200000D01*
X52655175Y-56926473D02*
X59928702Y-64200000D01*
X93490687Y-63200000D02*
X93515688Y-63175000D01*
X52651473Y-56926473D02*
X52655175Y-56926473D01*
X59928702Y-64200000D02*
X73478706Y-64200000D01*
X52150002Y-56425002D02*
X52651473Y-56926473D01*
X48255175Y-56425002D02*
X52150002Y-56425002D01*
X74478706Y-63200000D02*
X93490687Y-63200000D01*
%TO.N,/ESP_E3*%
X78900000Y-61600000D02*
X113610173Y-61600000D01*
X76900000Y-59600000D02*
X78900000Y-61600000D01*
X53675000Y-56350000D02*
X56925000Y-59600000D01*
X56925000Y-59600000D02*
X76900000Y-59600000D01*
X113610173Y-61600000D02*
X122085175Y-70075002D01*
X53669390Y-56350000D02*
X53675000Y-56350000D01*
%TO.N,/RXB4D*%
X94806105Y-49725002D02*
X94933520Y-49852417D01*
X88303704Y-49725002D02*
X94806105Y-49725002D01*
X86703704Y-51325002D02*
X88303704Y-49725002D01*
X70850002Y-51325002D02*
X86703704Y-51325002D01*
X66700000Y-28200000D02*
X66700000Y-47175000D01*
X66700000Y-47175000D02*
X70850002Y-51325002D01*
X54790822Y-26525002D02*
X65025002Y-26525002D01*
X65025002Y-26525002D02*
X66700000Y-28200000D01*
X37395175Y-60703002D02*
X38800000Y-59298177D01*
X38800000Y-59298177D02*
X38800000Y-42515824D01*
X38800000Y-42515824D02*
X54790822Y-26525002D01*
%TO.N,/ESP_RX0*%
X63150000Y-37925000D02*
X63150000Y-46650000D01*
X63150000Y-46650000D02*
X68565002Y-52065002D01*
X59405175Y-34180175D02*
X63150000Y-37925000D01*
X59405175Y-30926473D02*
X59405175Y-34180175D01*
X62797469Y-27534179D02*
X59405175Y-30926473D01*
X63465822Y-27534179D02*
X62797469Y-27534179D01*
X68565002Y-52065002D02*
X68605175Y-52065002D01*
%TO.N,/SI*%
X59175000Y-37775000D02*
X55150000Y-37775000D01*
X60850000Y-39450000D02*
X59175000Y-37775000D01*
%TO.N,/XS1*%
X98850002Y-34175002D02*
X105205175Y-40530175D01*
X97655175Y-34175002D02*
X98850002Y-34175002D01*
X105205175Y-40530175D02*
X105205175Y-43025002D01*
X97505175Y-34025002D02*
X97655175Y-34175002D01*
%TO.N,/SO*%
X125825000Y-52900000D02*
X125825000Y-53355177D01*
X125925000Y-52800000D02*
X125825000Y-52900000D01*
X125825000Y-53355177D02*
X124905181Y-54274996D01*
X125925000Y-32989107D02*
X125925000Y-52800000D01*
X127105175Y-31808932D02*
X125925000Y-32989107D01*
%TO.N,/D2*%
X123855178Y-54787799D02*
X118930175Y-59712802D01*
X123855178Y-51726470D02*
X123855178Y-54787799D01*
X124728705Y-51350001D02*
X124231647Y-51350001D01*
X124231647Y-51350001D02*
X123855178Y-51726470D01*
X125755181Y-32073525D02*
X125125000Y-32703706D01*
X125125000Y-32703706D02*
X125125000Y-50953706D01*
X125125000Y-50953706D02*
X124728705Y-51350001D01*
X125755181Y-31576467D02*
X125755181Y-32073525D01*
X125667673Y-31488959D02*
X125755181Y-31576467D01*
X125802173Y-31354459D02*
X125667673Y-31488959D01*
%TO.N,/SCLK*%
X105585180Y-33055001D02*
X105445176Y-33055001D01*
X105955181Y-33425002D02*
X105585180Y-33055001D01*
X123874998Y-33425002D02*
X105955181Y-33425002D01*
X124025000Y-33274999D02*
X123874998Y-33425002D01*
X124325000Y-32974999D02*
X124025000Y-33274999D01*
%TO.N,/WRXP*%
X134605175Y-50025002D02*
X134505175Y-49925002D01*
X141853706Y-43675000D02*
X135503704Y-50025002D01*
X135503704Y-50025002D02*
X134605175Y-50025002D01*
X151505173Y-43675000D02*
X141853706Y-43675000D01*
X156505175Y-48675002D02*
X151505173Y-43675000D01*
%TO.N,/WTXN*%
X161805175Y-48075002D02*
X162405175Y-48675002D01*
X157206646Y-48075002D02*
X161805175Y-48075002D01*
X152031644Y-42900000D02*
X157206646Y-48075002D01*
X136003704Y-48775002D02*
X136355175Y-48423531D01*
X136355175Y-48019825D02*
X141475000Y-42900000D01*
X135599998Y-48775002D02*
X136003704Y-48775002D01*
X141475000Y-42900000D02*
X152031644Y-42900000D01*
X135467991Y-48907009D02*
X135599998Y-48775002D01*
X135467991Y-48921681D02*
X135467991Y-48907009D01*
X136355175Y-48423531D02*
X136355175Y-48019825D01*
%TO.N,/RXA1D*%
X147430172Y-48850000D02*
X146925000Y-48850000D01*
X148680172Y-50100000D02*
X147430172Y-48850000D01*
X149599412Y-50100000D02*
X148680172Y-50100000D01*
X171584587Y-72085175D02*
X149599412Y-50100000D01*
X172635175Y-72085175D02*
X171584587Y-72085175D01*
%TO.N,/RXA5D*%
X154700000Y-56575000D02*
X153275000Y-58000000D01*
X153275000Y-58000000D02*
X145125000Y-58000000D01*
X154725000Y-56575000D02*
X154700000Y-56575000D01*
%TO.N,/ESP_IRQ*%
X154780174Y-53628703D02*
X154780174Y-53350001D01*
X168151471Y-67001471D02*
X168151471Y-67000000D01*
X168573971Y-67423971D02*
X168151471Y-67001471D01*
X168573971Y-68226029D02*
X168573971Y-67423971D01*
X168151471Y-67000000D02*
X154780174Y-53628703D01*
%TO.N,GND*%
X138855175Y-48725002D02*
X138505175Y-49075002D01*
X141705175Y-48725002D02*
X138855175Y-48725002D01*
X142755175Y-49775002D02*
X141705175Y-48725002D01*
X100517675Y-29125002D02*
X99917675Y-29725002D01*
X105225000Y-29244827D02*
X105105175Y-29125002D01*
X105225000Y-29575000D02*
X105225000Y-29244827D01*
X105105175Y-29125002D02*
X100517675Y-29125002D01*
D27*
X95375000Y-40625000D02*
X96000000Y-41250000D01*
X95375000Y-35900000D02*
X95375000Y-40625000D01*
D26*
X97830177Y-40150000D02*
X97505175Y-40475002D01*
X98002588Y-40150000D02*
X97830177Y-40150000D01*
X97505175Y-40475002D02*
X97505175Y-43425002D01*
%TO.N,/ESP_IRQ*%
X112155177Y-56275000D02*
X117555173Y-56275000D01*
X111605175Y-56825002D02*
X112155177Y-56275000D01*
X117555173Y-56275000D02*
X118355175Y-57075002D01*
%TO.N,/WTXP*%
X145878706Y-47500000D02*
X145853704Y-47525002D01*
X147250000Y-47500000D02*
X145878706Y-47500000D01*
X148825000Y-49075000D02*
X147250000Y-47500000D01*
X145853704Y-47525002D02*
X145755175Y-47525002D01*
X156056644Y-49075000D02*
X148825000Y-49075000D01*
X156256646Y-49275002D02*
X156056644Y-49075000D01*
X156753704Y-49275002D02*
X156256646Y-49275002D01*
X156953706Y-49075000D02*
X156753704Y-49275002D01*
X157006644Y-49075000D02*
X156953706Y-49075000D01*
X157206646Y-49275002D02*
X157006644Y-49075000D01*
X157956644Y-49075000D02*
X157903706Y-49075000D01*
X158156646Y-49275002D02*
X157956644Y-49075000D01*
X157903706Y-49075000D02*
X157703704Y-49275002D01*
X157703704Y-49275002D02*
X157206646Y-49275002D01*
X158653704Y-49275002D02*
X158156646Y-49275002D01*
X160105177Y-49075000D02*
X158853706Y-49075000D01*
X160505175Y-48675002D02*
X160105177Y-49075000D01*
X145755175Y-47525002D02*
X145755175Y-47773531D01*
X158853706Y-49075000D02*
X158653704Y-49275002D01*
%TO.N,/RXA1D*%
X82425002Y-27725002D02*
X81205175Y-27725002D01*
X86425002Y-31725002D02*
X82425002Y-27725002D01*
X121606646Y-31725002D02*
X86425002Y-31725002D01*
X123340824Y-29990824D02*
X121606646Y-31725002D01*
X127170997Y-29990824D02*
X123340824Y-29990824D01*
X133505173Y-36325000D02*
X127170997Y-29990824D01*
X135250000Y-36325000D02*
X133505173Y-36325000D01*
%TO.N,/TXA1D*%
X136950000Y-37750000D02*
X148500000Y-37750000D01*
X148500000Y-37750000D02*
X151250000Y-40500000D01*
X136200000Y-36275000D02*
X136200000Y-37000000D01*
X136200000Y-37000000D02*
X136950000Y-37750000D01*
%TO.N,GND*%
X142405175Y-39525002D02*
X142405175Y-39725002D01*
X85167673Y-40125002D02*
X80805175Y-40125002D01*
X85605173Y-39687502D02*
X85167673Y-40125002D01*
X90355175Y-29725002D02*
X99917675Y-29725002D01*
D27*
X177005175Y-69425002D02*
X177005175Y-76694825D01*
D26*
X142405175Y-39725002D02*
X140705175Y-41425002D01*
X89730176Y-29150001D02*
X89780174Y-29150001D01*
D27*
X177005175Y-76694825D02*
X177000000Y-76700000D01*
D26*
X89780174Y-29150001D02*
X90355175Y-29725002D01*
D27*
X71000000Y-77600000D02*
X76700000Y-77600000D01*
%TO.N,+3V3*%
X58329998Y-90705000D02*
X54000000Y-86375002D01*
X77195000Y-90705000D02*
X58329998Y-90705000D01*
%TO.N,/SO*%
D26*
X125155181Y-31152922D02*
X125553644Y-30754459D01*
X106603459Y-32726716D02*
X106901745Y-33025002D01*
X123205175Y-31824996D02*
X125155181Y-31824996D01*
X106251745Y-32375002D02*
X106603459Y-32726716D01*
X125155181Y-31824996D02*
X125155181Y-31152922D01*
X87205178Y-32375002D02*
X106251745Y-32375002D01*
X122005169Y-33025002D02*
X123205175Y-31824996D01*
X106901745Y-33025002D02*
X122005169Y-33025002D01*
X125553644Y-30754459D02*
X126050702Y-30754459D01*
X126050702Y-30754459D02*
X127105175Y-31808932D01*
%TO.N,/12VIN*%
D27*
X104050000Y-86350000D02*
X77750000Y-86350000D01*
D26*
X51600000Y-73300000D02*
X51500000Y-73400000D01*
D27*
X76850000Y-85450000D02*
X69450000Y-78050000D01*
X77750000Y-86350000D02*
X76850000Y-85450000D01*
X143837500Y-78762500D02*
X152400000Y-70200000D01*
X69400000Y-78000000D02*
X69400000Y-70900000D01*
X51500000Y-73400000D02*
X44800000Y-73400000D01*
X152400000Y-70200000D02*
X152400000Y-67800000D01*
X50000000Y-71700000D02*
X51600000Y-73300000D01*
X69450000Y-78050000D02*
X69400000Y-78000000D01*
X50000000Y-68900000D02*
X50000000Y-71700000D01*
%TO.N,/USB_DP*%
D26*
X71755175Y-27925002D02*
X67505175Y-32175002D01*
X67505175Y-32175002D02*
X67505175Y-35725002D01*
%TO.N,/USB_DN*%
X72255175Y-32875002D02*
X67505175Y-37625002D01*
X72255175Y-30600000D02*
X72255175Y-32875002D01*
%TO.N,Net-(3V1-A)*%
X54000000Y-84475002D02*
X55475002Y-84475002D01*
X55475002Y-84475002D02*
X57600000Y-86600000D01*
%TO.N,/FAN_VOUT*%
D27*
X106550000Y-90300000D02*
X107550000Y-91300000D01*
X106550000Y-86350000D02*
X106550000Y-90300000D01*
%TO.N,/D4*%
D26*
X105750002Y-55425002D02*
X118929197Y-55425002D01*
X119454196Y-55950001D02*
X119780175Y-55950001D01*
X118929197Y-55425002D02*
X119454196Y-55950001D01*
X119780175Y-55950001D02*
X120630175Y-56800001D01*
X105125000Y-54800000D02*
X105750002Y-55425002D01*
X105100000Y-54800000D02*
X105125000Y-54800000D01*
%TO.N,/XTAL*%
X94405175Y-43325002D02*
X82330175Y-43325002D01*
X82330175Y-43325002D02*
X80755175Y-41750002D01*
X95805175Y-44725002D02*
X94405175Y-43325002D01*
%TO.N,/RXA5D*%
X97505175Y-54100000D02*
X97505175Y-53175002D01*
X97505175Y-53175002D02*
X99705175Y-50975002D01*
%TO.N,/IO12*%
X51105175Y-63495002D02*
X49035175Y-63495002D01*
X49035175Y-63495002D02*
X48205175Y-64325002D01*
%TO.N,/ESP_SCLKT*%
X74250000Y-54000000D02*
X71104998Y-57145002D01*
X63592083Y-52667083D02*
X55200000Y-44275000D01*
X71104998Y-57145002D02*
X68605175Y-57145002D01*
X55200000Y-44275000D02*
X55200000Y-42525000D01*
X63607917Y-52667083D02*
X63592083Y-52667083D01*
%TO.N,/RTS*%
X54505175Y-27675003D02*
X55255175Y-26925002D01*
X64455175Y-27355175D02*
X64455175Y-28400000D01*
X55255175Y-26925002D02*
X64025002Y-26925002D01*
X64025002Y-26925002D02*
X64455175Y-27355175D01*
%TO.N,/ESP_MOSI*%
X86953704Y-28875002D02*
X89103704Y-31025002D01*
X80605175Y-28205175D02*
X80605175Y-27476473D01*
X130555175Y-27625002D02*
X138255175Y-35325002D01*
X84339489Y-31939489D02*
X80605175Y-28205175D01*
X80605175Y-27476473D02*
X80956646Y-27125002D01*
X72150000Y-48275000D02*
X72150000Y-44710177D01*
X86456646Y-28875002D02*
X86953704Y-28875002D01*
X72150000Y-44710177D02*
X84339489Y-32520688D01*
X74375000Y-50500000D02*
X72150000Y-48275000D01*
X84339489Y-32520688D02*
X84339489Y-31939489D01*
X138255175Y-35325002D02*
X138555175Y-35325002D01*
X84706646Y-27125002D02*
X86456646Y-28875002D01*
X121056646Y-31025002D02*
X124456646Y-27625002D01*
X89103704Y-31025002D02*
X121056646Y-31025002D01*
X124456646Y-27625002D02*
X130555175Y-27625002D01*
X80956646Y-27125002D02*
X84706646Y-27125002D01*
%TO.N,/ESP_A0*%
X48255175Y-60425002D02*
X50265175Y-58415002D01*
X114060173Y-68400000D02*
X115735175Y-70075002D01*
X52840002Y-58415002D02*
X62825000Y-68400000D01*
X50265175Y-58415002D02*
X52840002Y-58415002D01*
X62825000Y-68400000D02*
X114060173Y-68400000D01*
%TO.N,/SCLK*%
X86721346Y-33073866D02*
X97598638Y-33073866D01*
X98299774Y-33775002D02*
X104725175Y-33775002D01*
X128055175Y-36275002D02*
X128355175Y-36275002D01*
X130255175Y-52175002D02*
X127005175Y-55425002D01*
X141774998Y-51725002D02*
X139406646Y-51725002D01*
X126705175Y-50205175D02*
X126705175Y-37625002D01*
X139081648Y-52050000D02*
X130380177Y-52050000D01*
X143574998Y-49925002D02*
X141774998Y-51725002D01*
X144005175Y-49925002D02*
X143574998Y-49925002D01*
X130380177Y-52050000D02*
X130255175Y-52175002D01*
X139406646Y-51725002D02*
X139081648Y-52050000D01*
X126705175Y-37625002D02*
X128055175Y-36275002D01*
X104725175Y-33775002D02*
X105445176Y-33055001D01*
X97598638Y-33073866D02*
X98299774Y-33775002D01*
X130255175Y-52175002D02*
X128675002Y-52175002D01*
X128675002Y-52175002D02*
X126705175Y-50205175D01*
%TO.N,/1IN+*%
X58550000Y-70750000D02*
X55281371Y-70750000D01*
X59300000Y-71500000D02*
X58550000Y-70750000D01*
X50196371Y-75835000D02*
X48978000Y-75835000D01*
X67000000Y-71500000D02*
X59300000Y-71500000D01*
X67600000Y-70900000D02*
X67000000Y-71500000D01*
X55281371Y-70750000D02*
X50196371Y-75835000D01*
%TO.N,/TXA1D*%
X144700000Y-56050000D02*
X152850000Y-56050000D01*
X152850000Y-56050000D02*
X153325000Y-55575000D01*
%TO.N,/TXA2D*%
X166000000Y-55400000D02*
X166000000Y-62958827D01*
X166000000Y-62958827D02*
X172635175Y-69594002D01*
%TO.N,/RXA6D*%
X131705175Y-36125002D02*
X131955175Y-35875002D01*
X155156646Y-30725002D02*
X169203646Y-44772002D01*
X133500000Y-39500000D02*
X133500000Y-39400000D01*
X131705175Y-37605175D02*
X131705175Y-36125002D01*
X169203646Y-44772002D02*
X172635175Y-44772002D01*
X133500000Y-39400000D02*
X131705175Y-37605175D01*
X149405175Y-30725002D02*
X155156646Y-30725002D01*
%TO.N,/XS4*%
X89305175Y-47875002D02*
X86480176Y-50700001D01*
X89305175Y-44325002D02*
X89305175Y-47875002D01*
%TO.N,/ESP_IRQ*%
X149550000Y-45080177D02*
X147705175Y-46925002D01*
X130705175Y-48525002D02*
X131455175Y-47775002D01*
X127625000Y-48525000D02*
X127891314Y-48525000D01*
X127891316Y-48525002D02*
X130705175Y-48525002D01*
X147705175Y-46925002D02*
X145605175Y-46925002D01*
X149550000Y-45075000D02*
X149550000Y-45080177D01*
X127891314Y-48525000D02*
X127891316Y-48525002D01*
%TO.N,/2IN+*%
X60200000Y-73600000D02*
X56500000Y-77300000D01*
X64000000Y-73600000D02*
X60200000Y-73600000D01*
X119500000Y-73600000D02*
X100600000Y-73600000D01*
%TO.N,/2OUT*%
X56600000Y-71350000D02*
X56600000Y-72365000D01*
X54400000Y-79100000D02*
X52500000Y-79100000D01*
X56600000Y-72365000D02*
X54400000Y-74565000D01*
X52500000Y-79100000D02*
X52400000Y-79200000D01*
X54400000Y-74565000D02*
X54400000Y-79100000D01*
%TO.N,/TXB5D*%
X93325002Y-62800000D02*
X93900000Y-62225002D01*
X60800000Y-62800000D02*
X93325002Y-62800000D01*
X93900000Y-62225002D02*
X98100000Y-62225002D01*
%TO.N,/TXN*%
X160970175Y-42325002D02*
X160970175Y-44740002D01*
X160970175Y-44740002D02*
X162405175Y-46175002D01*
%TO.N,/TXP*%
X159920175Y-41890077D02*
X159920175Y-45590002D01*
X159920175Y-45590002D02*
X160505175Y-46175002D01*
X162025250Y-39785002D02*
X159920175Y-41890077D01*
%TO.N,/D5*%
X126755175Y-54625002D02*
X125680175Y-55700002D01*
X126755175Y-54175002D02*
X126755175Y-54625002D01*
X126455175Y-53875002D02*
X126755175Y-54175002D01*
X125680175Y-55700002D02*
X125680175Y-59712802D01*
%TO.N,/SI*%
X80556646Y-40725002D02*
X80556644Y-40725000D01*
X80360260Y-40725000D02*
X76975000Y-44110260D01*
X87370518Y-40725002D02*
X80556646Y-40725002D01*
X87447760Y-40647760D02*
X87370518Y-40725002D01*
X80556644Y-40725000D02*
X80360260Y-40725000D01*
%TO.N,/CD_DP*%
X60255175Y-30925002D02*
X60755175Y-30925002D01*
X60755175Y-30925002D02*
X65005175Y-35175002D01*
X65005175Y-35175002D02*
X65005175Y-35725002D01*
%TO.N,/CD_DN*%
X64455175Y-37625002D02*
X65005175Y-37625002D01*
X60005175Y-33175002D02*
X64455175Y-37625002D01*
X60005175Y-31925002D02*
X60005175Y-33175002D01*
%TO.N,/1V20*%
X143805175Y-57906252D02*
X143805175Y-58425000D01*
X148980175Y-63600000D02*
X152000000Y-63600000D01*
X155000000Y-66600000D02*
X155000000Y-72500000D01*
X152000000Y-63600000D02*
X155000000Y-66600000D01*
X143805175Y-58425000D02*
X148980175Y-63600000D01*
%TO.N,/ESP_SCSN*%
X76623433Y-58425000D02*
X76623435Y-58425002D01*
X73425000Y-58575000D02*
X73575000Y-58425000D01*
X73575000Y-58425000D02*
X76623433Y-58425000D01*
%TO.N,/ESP_TX0*%
X68595002Y-50795002D02*
X68605175Y-50795002D01*
X65605175Y-47805175D02*
X68595002Y-50795002D01*
X65605175Y-31388051D02*
X65605175Y-47805175D01*
X63022831Y-28805707D02*
X65605175Y-31388051D01*
X63022831Y-28770494D02*
X63022831Y-28805707D01*
%TO.N,/XS2*%
X97255175Y-35475002D02*
X96905175Y-35825002D01*
X96905175Y-44525002D02*
X95205175Y-46225002D01*
X96905175Y-35825002D02*
X96905175Y-44525002D01*
%TO.N,/TXB4D*%
X41019998Y-58405002D02*
X44099998Y-55325002D01*
X44099998Y-55325002D02*
X54073803Y-55325002D01*
X63303704Y-58525002D02*
X70103704Y-51725002D01*
X70103704Y-51725002D02*
X94955175Y-51725002D01*
X54073803Y-55325002D02*
X57273803Y-58525002D01*
X57273803Y-58525002D02*
X63303704Y-58525002D01*
%TO.N,/RXN*%
X158405175Y-44840002D02*
X158405175Y-46175002D01*
X155890175Y-42325002D02*
X158405175Y-44840002D01*
%TO.N,/RXP*%
X155805250Y-40925002D02*
X154755175Y-41975077D01*
X159690175Y-39785002D02*
X158550175Y-40925002D01*
X158550175Y-40925002D02*
X155805250Y-40925002D01*
X154755175Y-41975077D02*
X154755175Y-44425002D01*
X154755175Y-44425002D02*
X156505175Y-46175002D01*
%TO.N,/D3*%
X120580175Y-60312802D02*
X112888661Y-60312802D01*
X108400859Y-55825000D02*
X89944049Y-55825000D01*
X112888661Y-60312802D02*
X108400859Y-55825000D01*
X121180175Y-59712802D02*
X120580175Y-60312802D01*
X89944049Y-55825000D02*
X87744051Y-53625002D01*
%TO.N,/XS5*%
X102305175Y-47775000D02*
X105230176Y-50700001D01*
X101205175Y-38125002D02*
X102305175Y-39225002D01*
X102305175Y-39225002D02*
X102305175Y-47775000D01*
%TO.N,/ESP_MISO*%
X132253704Y-27225002D02*
X118549554Y-27225002D01*
X100276469Y-28473531D02*
X87802233Y-28473531D01*
X139155175Y-34126473D02*
X132253704Y-27225002D01*
X142353704Y-34126473D02*
X139155175Y-34126473D01*
X105703704Y-27625002D02*
X101124998Y-27625002D01*
X118549554Y-27225002D02*
X117949554Y-27825002D01*
X105903704Y-27825002D02*
X105703704Y-27625002D01*
X87802233Y-28473531D02*
X86053704Y-26725002D01*
X80790960Y-26725002D02*
X73305175Y-34210787D01*
X73305175Y-34210787D02*
X73305175Y-42325002D01*
X101124998Y-27625002D02*
X100276469Y-28473531D01*
X117949554Y-27825002D02*
X105903704Y-27825002D01*
X86053704Y-26725002D02*
X80790960Y-26725002D01*
X145355175Y-31125002D02*
X142353704Y-34126473D01*
%TD*%
D28*
X26499999Y-24425002D02*
X26499999Y-24425002D01*
G75*
G02*
X28999999Y-21925002I2500001J2D01*
G01*
X180999999Y-21925002D01*
G75*
G02*
X183499999Y-24425002I1J-2499998D01*
G01*
X183499999Y-92400000D01*
G75*
G02*
X180999999Y-94900000I-2499999J0D01*
G01*
X28999999Y-94900000D01*
G75*
G02*
X26499999Y-92400000I1J2500000D01*
G01*
X26499999Y-24425002D01*
M02*
