%TF.GenerationSoftware,KiCad,Pcbnew,10.0.1*%
%TF.CreationDate,2026-05-09T20:51:14-07:00*%
%TF.ProjectId,DarkMagic,4461726b-4d61-4676-9963-2e6b69636164,rev?*%
%TF.SameCoordinates,Original*%
%TF.FileFunction,Copper,L1,Top*%
%TF.FilePolarity,Positive*%
%FSLAX46Y46*%
G04 Gerber Fmt 4.6, Leading zero omitted, Abs format (unit mm)*
G04 Created by KiCad (PCBNEW 10.0.1) date 2026-05-09 20:51:14*
%MOMM*%
%LPD*%
G01*
G04 APERTURE LIST*
G04 Aperture macros list*
%AMRoundRect*
0 Rectangle with rounded corners*
0 $1 Rounding radius*
0 $2 $3 $4 $5 $6 $7 $8 $9 X,Y pos of 4 corners*
0 Add a 4 corners polygon primitive as box body*
4,1,4,$2,$3,$4,$5,$6,$7,$8,$9,$2,$3,0*
0 Add four circle primitives for the rounded corners*
1,1,$1+$1,$2,$3*
1,1,$1+$1,$4,$5*
1,1,$1+$1,$6,$7*
1,1,$1+$1,$8,$9*
0 Add four rect primitives between the rounded corners*
20,1,$1+$1,$2,$3,$4,$5,0*
20,1,$1+$1,$4,$5,$6,$7,0*
20,1,$1+$1,$6,$7,$8,$9,0*
20,1,$1+$1,$8,$9,$2,$3,0*%
G04 Aperture macros list end*
%TA.AperFunction,SMDPad,CuDef*%
%ADD10RoundRect,0.250000X-0.337500X-0.475000X0.337500X-0.475000X0.337500X0.475000X-0.337500X0.475000X0*%
%TD*%
%TA.AperFunction,SMDPad,CuDef*%
%ADD11RoundRect,0.250000X0.450000X-0.350000X0.450000X0.350000X-0.450000X0.350000X-0.450000X-0.350000X0*%
%TD*%
%TA.AperFunction,SMDPad,CuDef*%
%ADD12RoundRect,0.250000X0.350000X0.450000X-0.350000X0.450000X-0.350000X-0.450000X0.350000X-0.450000X0*%
%TD*%
%TA.AperFunction,SMDPad,CuDef*%
%ADD13RoundRect,0.250000X-0.475000X0.337500X-0.475000X-0.337500X0.475000X-0.337500X0.475000X0.337500X0*%
%TD*%
%TA.AperFunction,ComponentPad*%
%ADD14C,3.800000*%
%TD*%
%TA.AperFunction,SMDPad,CuDef*%
%ADD15RoundRect,0.150000X0.150000X0.425000X-0.150000X0.425000X-0.150000X-0.425000X0.150000X-0.425000X0*%
%TD*%
%TA.AperFunction,SMDPad,CuDef*%
%ADD16RoundRect,0.075000X0.075000X0.500000X-0.075000X0.500000X-0.075000X-0.500000X0.075000X-0.500000X0*%
%TD*%
%TA.AperFunction,ComponentPad*%
%ADD17O,1.000000X2.100000*%
%TD*%
%TA.AperFunction,ComponentPad*%
%ADD18O,1.000000X1.800000*%
%TD*%
%TA.AperFunction,SMDPad,CuDef*%
%ADD19R,1.400000X0.950000*%
%TD*%
%TA.AperFunction,SMDPad,CuDef*%
%ADD20RoundRect,0.200000X1.150000X-0.200000X1.150000X0.200000X-1.150000X0.200000X-1.150000X-0.200000X0*%
%TD*%
%TA.AperFunction,ComponentPad*%
%ADD21R,3.300000X6.600000*%
%TD*%
%TA.AperFunction,ComponentPad*%
%ADD22O,3.300000X6.600000*%
%TD*%
%TA.AperFunction,SMDPad,CuDef*%
%ADD23R,2.350000X1.550000*%
%TD*%
%TA.AperFunction,SMDPad,CuDef*%
%ADD24RoundRect,0.250000X-0.350000X-0.450000X0.350000X-0.450000X0.350000X0.450000X-0.350000X0.450000X0*%
%TD*%
%TA.AperFunction,SMDPad,CuDef*%
%ADD25RoundRect,0.250000X-0.450000X0.350000X-0.450000X-0.350000X0.450000X-0.350000X0.450000X0.350000X0*%
%TD*%
%TA.AperFunction,SMDPad,CuDef*%
%ADD26C,3.000000*%
%TD*%
%TA.AperFunction,SMDPad,CuDef*%
%ADD27R,1.300000X1.100000*%
%TD*%
%TA.AperFunction,SMDPad,CuDef*%
%ADD28R,1.700000X0.800000*%
%TD*%
%TA.AperFunction,SMDPad,CuDef*%
%ADD29RoundRect,0.250001X-2.049999X-0.799999X2.049999X-0.799999X2.049999X0.799999X-2.049999X0.799999X0*%
%TD*%
%TA.AperFunction,ComponentPad*%
%ADD30R,1.800000X1.800000*%
%TD*%
%TA.AperFunction,ComponentPad*%
%ADD31C,1.800000*%
%TD*%
%TA.AperFunction,SMDPad,CuDef*%
%ADD32R,0.700000X1.000000*%
%TD*%
%TA.AperFunction,SMDPad,CuDef*%
%ADD33RoundRect,0.250000X0.475000X-0.337500X0.475000X0.337500X-0.475000X0.337500X-0.475000X-0.337500X0*%
%TD*%
%TA.AperFunction,SMDPad,CuDef*%
%ADD34R,1.200000X0.600000*%
%TD*%
%TA.AperFunction,SMDPad,CuDef*%
%ADD35RoundRect,0.250000X-0.650000X1.000000X-0.650000X-1.000000X0.650000X-1.000000X0.650000X1.000000X0*%
%TD*%
%TA.AperFunction,SMDPad,CuDef*%
%ADD36R,1.150000X1.450000*%
%TD*%
%TA.AperFunction,ComponentPad*%
%ADD37C,1.560000*%
%TD*%
%TA.AperFunction,ComponentPad*%
%ADD38C,4.890000*%
%TD*%
%TA.AperFunction,SMDPad,CuDef*%
%ADD39R,1.550000X2.350000*%
%TD*%
%TA.AperFunction,SMDPad,CuDef*%
%ADD40RoundRect,0.250000X0.337500X0.475000X-0.337500X0.475000X-0.337500X-0.475000X0.337500X-0.475000X0*%
%TD*%
%TA.AperFunction,SMDPad,CuDef*%
%ADD41RoundRect,0.225000X-0.375000X0.225000X-0.375000X-0.225000X0.375000X-0.225000X0.375000X0.225000X0*%
%TD*%
%TA.AperFunction,SMDPad,CuDef*%
%ADD42R,1.528000X0.650000*%
%TD*%
%TA.AperFunction,SMDPad,CuDef*%
%ADD43R,1.300000X0.600000*%
%TD*%
%TA.AperFunction,SMDPad,CuDef*%
%ADD44R,0.600000X1.200000*%
%TD*%
%TA.AperFunction,SMDPad,CuDef*%
%ADD45R,1.409700X0.355600*%
%TD*%
%TA.AperFunction,SMDPad,CuDef*%
%ADD46R,0.900000X0.800000*%
%TD*%
%TA.AperFunction,SMDPad,CuDef*%
%ADD47R,0.300000X0.175000*%
%TD*%
%TA.AperFunction,SMDPad,CuDef*%
%ADD48R,1.450000X1.150000*%
%TD*%
%TA.AperFunction,SMDPad,CuDef*%
%ADD49RoundRect,0.250001X0.799999X-2.049999X0.799999X2.049999X-0.799999X2.049999X-0.799999X-2.049999X0*%
%TD*%
%TA.AperFunction,SMDPad,CuDef*%
%ADD50R,1.475000X0.300000*%
%TD*%
%TA.AperFunction,SMDPad,CuDef*%
%ADD51R,0.300000X1.475000*%
%TD*%
%TA.AperFunction,SMDPad,CuDef*%
%ADD52R,0.850000X0.300000*%
%TD*%
%TA.AperFunction,SMDPad,CuDef*%
%ADD53R,0.300000X0.850000*%
%TD*%
%TA.AperFunction,SMDPad,CuDef*%
%ADD54R,2.550000X2.550000*%
%TD*%
%TA.AperFunction,SMDPad,CuDef*%
%ADD55R,3.430000X0.890000*%
%TD*%
%TA.AperFunction,SMDPad,CuDef*%
%ADD56R,0.820000X1.820000*%
%TD*%
%TA.AperFunction,SMDPad,CuDef*%
%ADD57R,0.558800X2.184400*%
%TD*%
%TA.AperFunction,ComponentPad*%
%ADD58C,1.500000*%
%TD*%
%TA.AperFunction,ComponentPad*%
%ADD59RoundRect,0.250500X0.499500X0.499500X-0.499500X0.499500X-0.499500X-0.499500X0.499500X-0.499500X0*%
%TD*%
%TA.AperFunction,ComponentPad*%
%ADD60C,2.500000*%
%TD*%
%TA.AperFunction,SMDPad,CuDef*%
%ADD61R,1.750000X0.950000*%
%TD*%
%TA.AperFunction,SMDPad,CuDef*%
%ADD62R,1.750000X3.200000*%
%TD*%
%TA.AperFunction,SMDPad,CuDef*%
%ADD63R,1.500000X0.900000*%
%TD*%
%TA.AperFunction,SMDPad,CuDef*%
%ADD64R,0.900000X1.500000*%
%TD*%
%TA.AperFunction,SMDPad,CuDef*%
%ADD65R,0.900000X0.900000*%
%TD*%
%TA.AperFunction,SMDPad,CuDef*%
%ADD66RoundRect,0.150000X0.587500X0.150000X-0.587500X0.150000X-0.587500X-0.150000X0.587500X-0.150000X0*%
%TD*%
%TA.AperFunction,SMDPad,CuDef*%
%ADD67R,1.475000X0.450000*%
%TD*%
%TA.AperFunction,SMDPad,CuDef*%
%ADD68R,1.000000X0.700000*%
%TD*%
%TA.AperFunction,ViaPad*%
%ADD69C,0.600000*%
%TD*%
%TA.AperFunction,Conductor*%
%ADD70C,0.200000*%
%TD*%
%TA.AperFunction,Conductor*%
%ADD71C,1.000000*%
%TD*%
%TA.AperFunction,Conductor*%
%ADD72C,0.500000*%
%TD*%
%TA.AperFunction,Conductor*%
%ADD73C,1.500000*%
%TD*%
%TA.AperFunction,Conductor*%
%ADD74C,0.750000*%
%TD*%
%TA.AperFunction,Conductor*%
%ADD75C,2.000000*%
%TD*%
G04 APERTURE END LIST*
D10*
%TO.P,C28,1*%
%TO.N,GND*%
X118917675Y-52975002D03*
%TO.P,C28,2*%
%TO.N,+3V3*%
X120992675Y-52975002D03*
%TD*%
D11*
%TO.P,R77,1*%
%TO.N,/SO*%
X148000000Y-44800000D03*
%TO.P,R77,2*%
%TO.N,GND*%
X148000000Y-42800000D03*
%TD*%
D12*
%TO.P,R10,1*%
%TO.N,/XS3T*%
X91305175Y-42325002D03*
%TO.P,R10,2*%
%TO.N,/XS3*%
X89305175Y-42325002D03*
%TD*%
D10*
%TO.P,C12,1*%
%TO.N,+3V3*%
X148267675Y-52075002D03*
%TO.P,C12,2*%
%TO.N,GND*%
X150342675Y-52075002D03*
%TD*%
D13*
%TO.P,C36,1*%
%TO.N,/12VIN*%
X63505175Y-78887502D03*
%TO.P,C36,2*%
%TO.N,GND*%
X63505175Y-80962502D03*
%TD*%
D10*
%TO.P,C22,1*%
%TO.N,GND*%
X99917675Y-29725002D03*
%TO.P,C22,2*%
%TO.N,+3V3*%
X101992675Y-29725002D03*
%TD*%
D11*
%TO.P,R19,1*%
%TO.N,/DTR*%
X60505175Y-27425002D03*
%TO.P,R19,2*%
%TO.N,Net-(IC10-B)*%
X60505175Y-25425002D03*
%TD*%
D14*
%TO.P,H1,1,1_1*%
%TO.N,GND*%
X172090000Y-91400000D03*
%TD*%
D15*
%TO.P,J1,A1,GND_A1*%
%TO.N,GND*%
X75205175Y-29255000D03*
%TO.P,J1,A4,VBUS_A4*%
%TO.N,/USB_VBUSF*%
X74405175Y-29255000D03*
D16*
%TO.P,J1,A5,CC1_A5*%
%TO.N,/CC1*%
X73255175Y-29255000D03*
%TO.P,J1,A6,D+_A6*%
%TO.N,/USB_DP*%
X72255175Y-29255000D03*
%TO.P,J1,A7,D-_A7*%
%TO.N,/USB_DN*%
X71755175Y-29255000D03*
%TO.P,J1,A8,SBU1_A8*%
%TO.N,unconnected-(J1-SBU1-PadA8)*%
X70755175Y-29255000D03*
D15*
%TO.P,J1,A9,VBUS_A9*%
%TO.N,/USB_VBUSF*%
X69605175Y-29255000D03*
%TO.P,J1,A12,GND_A12*%
%TO.N,GND*%
X68805175Y-29255000D03*
%TO.P,J1,B1,GND_B1*%
X68805175Y-29255000D03*
%TO.P,J1,B4,VBUS_B4*%
%TO.N,/USB_VBUSF*%
X69605175Y-29255000D03*
D16*
%TO.P,J1,B5,CC2_B5*%
%TO.N,/CC2*%
X70255175Y-29255000D03*
%TO.P,J1,B6,D+_B6*%
%TO.N,/USB_DP*%
X71255175Y-29255000D03*
%TO.P,J1,B7,D-_B7*%
%TO.N,/USB_DN*%
X72755175Y-29255000D03*
%TO.P,J1,B8,SBU2_B8*%
%TO.N,unconnected-(J1-SBU2-PadB8)*%
X73755175Y-29255000D03*
D15*
%TO.P,J1,B9,VBUS_B9*%
%TO.N,/USB_VBUSF*%
X74405175Y-29255000D03*
%TO.P,J1,B12,GND_B12*%
%TO.N,GND*%
X75205175Y-29255000D03*
D17*
%TO.P,J1,SH,SHIELD_SH*%
X76325175Y-28680000D03*
D18*
X76325175Y-24500000D03*
D17*
X67685175Y-28680000D03*
D18*
X67685175Y-24500000D03*
%TD*%
D19*
%TO.P,3V,1,K_1*%
%TO.N,+3V3*%
X54000000Y-86375002D03*
%TO.P,3V,2,A_2*%
%TO.N,Net-(3V1-A)*%
X54000000Y-84475002D03*
%TD*%
D20*
%TO.P,L1,1,1_1*%
%TO.N,/SW*%
X69500000Y-76550000D03*
%TO.P,L1,2,2_2*%
%TO.N,+5V*%
X69500000Y-74250000D03*
%TD*%
D21*
%TO.P,J4,1,Pin_1_1*%
%TO.N,Net-(J4-Pin_1)*%
X84475175Y-81425002D03*
D22*
%TO.P,J4,2,Pin_2_2*%
X94475175Y-81425002D03*
%TD*%
D23*
%TO.P,D5,1,K_1*%
%TO.N,/12VIN*%
X103250000Y-91300000D03*
%TO.P,D5,2,A_2*%
%TO.N,/FAN_VOUT*%
X107550000Y-91300000D03*
%TD*%
D24*
%TO.P,R58,1*%
%TO.N,/RXA3D*%
X119205175Y-28225002D03*
%TO.P,R58,2*%
%TO.N,/RXA3*%
X121205175Y-28225002D03*
%TD*%
D25*
%TO.P,R34,1*%
%TO.N,/D4*%
X123430175Y-59712802D03*
%TO.P,R34,2*%
%TO.N,/Y4*%
X123430175Y-61712802D03*
%TD*%
%TO.P,R71,1*%
%TO.N,Net-(D3-K)*%
X54000000Y-68900000D03*
%TO.P,R71,2*%
%TO.N,Net-(Q2-G)*%
X54000000Y-70900000D03*
%TD*%
D10*
%TO.P,C35,1*%
%TO.N,GND*%
X139562500Y-68700000D03*
%TO.P,C35,2*%
%TO.N,+3V3*%
X141637500Y-68700000D03*
%TD*%
D12*
%TO.P,R49,1*%
%TO.N,/TXB6D*%
X132955175Y-51475002D03*
%TO.P,R49,2*%
%TO.N,/TXB6*%
X130955175Y-51475002D03*
%TD*%
D10*
%TO.P,C21,1*%
%TO.N,GND*%
X111892675Y-65925002D03*
%TO.P,C21,2*%
%TO.N,+3V3*%
X113967675Y-65925002D03*
%TD*%
D26*
%TO.P,TP3,1,1_1*%
%TO.N,/12VIN*%
X66200000Y-91405002D03*
%TD*%
D27*
%TO.P,Y2,1,TRI-STATE_(STBY)_1*%
%TO.N,+3V3*%
X82855175Y-40100002D03*
%TO.P,Y2,2,GND/CASE_2*%
%TO.N,GND*%
X80755175Y-40100002D03*
%TO.P,Y2,3,OUTPUT_3*%
%TO.N,/XTAL*%
X80755175Y-41750002D03*
%TO.P,Y2,4,VDD_4*%
%TO.N,+3V3*%
X82855175Y-41750002D03*
%TD*%
D25*
%TO.P,R73,1*%
%TO.N,/12VIN*%
X50000000Y-68900000D03*
%TO.P,R73,2*%
%TO.N,/1OUT*%
X50000000Y-70900000D03*
%TD*%
D28*
%TO.P,S2,1,1_1*%
%TO.N,/ESP_IO0*%
X50350175Y-27275002D03*
%TO.P,S2,2,2_2*%
%TO.N,GND*%
X50350175Y-23875002D03*
%TD*%
D24*
%TO.P,R64,1*%
%TO.N,/RXA4D*%
X80955175Y-50975002D03*
%TO.P,R64,2*%
%TO.N,/RXA4*%
X82955175Y-50975002D03*
%TD*%
%TO.P,R63,1*%
%TO.N,/TXA4D*%
X80955175Y-48975002D03*
%TO.P,R63,2*%
%TO.N,/TXA4*%
X82955175Y-48975002D03*
%TD*%
D10*
%TO.P,C29,1*%
%TO.N,+3V3*%
X143267675Y-28825002D03*
%TO.P,C29,2*%
%TO.N,GND*%
X145342675Y-28825002D03*
%TD*%
D12*
%TO.P,R50,1*%
%TO.N,/RXB6D*%
X132955175Y-49475002D03*
%TO.P,R50,2*%
%TO.N,/RXB6*%
X130955175Y-49475002D03*
%TD*%
D29*
%TO.P,C33,1*%
%TO.N,+3V3*%
X156200000Y-66400000D03*
%TO.P,C33,2*%
%TO.N,GND*%
X165000000Y-66400000D03*
%TD*%
D24*
%TO.P,R60,1*%
%TO.N,/RXA5D*%
X99705175Y-50975002D03*
%TO.P,R60,2*%
%TO.N,/RXA5*%
X101705175Y-50975002D03*
%TD*%
D14*
%TO.P,H4,1,1_1*%
%TO.N,GND*%
X105200000Y-78300000D03*
%TD*%
D11*
%TO.P,R5,1*%
%TO.N,GND*%
X48205175Y-66325002D03*
%TO.P,R5,2*%
%TO.N,/IO12*%
X48205175Y-64325002D03*
%TD*%
D25*
%TO.P,R21,1*%
%TO.N,+3V3*%
X145155175Y-23525002D03*
%TO.P,R21,2*%
%TO.N,Net-(J2-Pad9)*%
X145155175Y-25525002D03*
%TD*%
D13*
%TO.P,C9,1*%
%TO.N,/VBG*%
X139655175Y-57925002D03*
%TO.P,C9,2*%
%TO.N,GND*%
X139655175Y-60000002D03*
%TD*%
D30*
%TO.P,J7,1,1_1*%
%TO.N,/12VIN*%
X104050000Y-86350000D03*
D31*
%TO.P,J7,2,2_2*%
%TO.N,/FAN_VOUT*%
X106550000Y-86350000D03*
%TD*%
D24*
%TO.P,R3,1*%
%TO.N,Net-(STATUS1-A)*%
X74300000Y-56600000D03*
%TO.P,R3,2*%
%TO.N,GND*%
X76300000Y-56600000D03*
%TD*%
D12*
%TO.P,R39,1*%
%TO.N,/TXB1D*%
X95205175Y-29225002D03*
%TO.P,R39,2*%
%TO.N,/TXB1*%
X93205175Y-29225002D03*
%TD*%
D25*
%TO.P,R15,1*%
%TO.N,/CC1*%
X72505175Y-36025002D03*
%TO.P,R15,2*%
%TO.N,GND*%
X72505175Y-38025002D03*
%TD*%
D32*
%TO.P,IC3,1,B_1*%
%TO.N,Net-(IC3-B)*%
X166050000Y-86100000D03*
%TO.P,IC3,2,E_2*%
%TO.N,GND*%
X164150000Y-86100000D03*
%TO.P,IC3,3,C_3*%
%TO.N,/SCLK_STAT*%
X165100000Y-88500000D03*
%TD*%
D11*
%TO.P,R20,1*%
%TO.N,/RTS*%
X54255175Y-27425002D03*
%TO.P,R20,2*%
%TO.N,Net-(IC11-B)*%
X54255175Y-25425002D03*
%TD*%
D25*
%TO.P,R16,1*%
%TO.N,/CC2*%
X70255175Y-36025002D03*
%TO.P,R16,2*%
%TO.N,GND*%
X70255175Y-38025002D03*
%TD*%
D33*
%TO.P,C18,1*%
%TO.N,+3V3*%
X134005175Y-47562502D03*
%TO.P,C18,2*%
%TO.N,GND*%
X134005175Y-45487502D03*
%TD*%
D11*
%TO.P,R24,1*%
%TO.N,/3V3*%
X49320000Y-31990000D03*
%TO.P,R24,2*%
%TO.N,/ESP_IO0*%
X49320000Y-29990000D03*
%TD*%
%TO.P,R51,1*%
%TO.N,GND*%
X70505175Y-81925002D03*
%TO.P,R51,2*%
%TO.N,Net-(Q1-G)*%
X70505175Y-79925002D03*
%TD*%
D34*
%TO.P,IC12,1,~{OE}_1*%
%TO.N,GND*%
X138555175Y-28875002D03*
%TO.P,IC12,2,A_2*%
%TO.N,/SO*%
X138555175Y-29825002D03*
%TO.P,IC12,3,GND_3*%
%TO.N,GND*%
X138555175Y-30775002D03*
%TO.P,IC12,4,Y_4*%
%TO.N,/OUT_MISO*%
X141055175Y-30775002D03*
%TO.P,IC12,5,VCC_5*%
%TO.N,+3V3*%
X141055175Y-28875002D03*
%TD*%
D35*
%TO.P,D2,1,A1_1*%
%TO.N,/12VIN*%
X74005175Y-84925002D03*
%TO.P,D2,2,A2_2*%
%TO.N,GND*%
X74005175Y-88925002D03*
%TD*%
D11*
%TO.P,R1,1*%
%TO.N,/SCLK_STAT*%
X162000000Y-88500000D03*
%TO.P,R1,2*%
%TO.N,Net-(SCLK1-A)*%
X162000000Y-86500000D03*
%TD*%
D12*
%TO.P,R25,1*%
%TO.N,/ESP_A0*%
X48255175Y-60425002D03*
%TO.P,R25,2*%
%TO.N,GND*%
X46255175Y-60425002D03*
%TD*%
%TO.P,R38,1*%
%TO.N,/SCLK*%
X145405175Y-40775002D03*
%TO.P,R38,2*%
%TO.N,/OUT_SCLK*%
X143405175Y-40775002D03*
%TD*%
D33*
%TO.P,C26,1*%
%TO.N,+3V3*%
X109880174Y-67962502D03*
%TO.P,C26,2*%
%TO.N,GND*%
X109880174Y-65887502D03*
%TD*%
D25*
%TO.P,R30,1*%
%TO.N,/D1*%
X116680175Y-59712802D03*
%TO.P,R30,2*%
%TO.N,/Y1*%
X116680175Y-61712802D03*
%TD*%
%TO.P,R6,1*%
%TO.N,/ESP_SCLK*%
X166000000Y-82300000D03*
%TO.P,R6,2*%
%TO.N,Net-(IC3-B)*%
X166000000Y-84300000D03*
%TD*%
D33*
%TO.P,C19,1*%
%TO.N,+3V3*%
X136105175Y-45362502D03*
%TO.P,C19,2*%
%TO.N,GND*%
X136105175Y-43287502D03*
%TD*%
D11*
%TO.P,R52,1*%
%TO.N,Net-(3V1-A)*%
X57600000Y-86600000D03*
%TO.P,R52,2*%
%TO.N,GND*%
X57600000Y-84600000D03*
%TD*%
D19*
%TO.P,STATUS,1,K_1*%
%TO.N,/IO21*%
X71700000Y-54650000D03*
%TO.P,STATUS,2,A_2*%
%TO.N,Net-(STATUS1-A)*%
X71700000Y-56550000D03*
%TD*%
D36*
%TO.P,RT1,1,1_1*%
%TO.N,/12VIN*%
X69400000Y-70900000D03*
%TO.P,RT1,2,2_2*%
%TO.N,/1IN+*%
X67600000Y-70900000D03*
%TD*%
D10*
%TO.P,C13,1*%
%TO.N,+3V3*%
X142067675Y-45325002D03*
%TO.P,C13,2*%
%TO.N,GND*%
X144142675Y-45325002D03*
%TD*%
D11*
%TO.P,R70,1*%
%TO.N,/1IN-*%
X48000000Y-70900000D03*
%TO.P,R70,2*%
%TO.N,GND*%
X48000000Y-68900000D03*
%TD*%
D37*
%TO.P,J6,1,1_1*%
%TO.N,/TXA1D*%
X172635175Y-75110002D03*
%TO.P,J6,2,2_2*%
%TO.N,/RXA1D*%
X172635175Y-72352002D03*
%TO.P,J6,3,3_3*%
%TO.N,/TXA2D*%
X172635175Y-69594002D03*
%TO.P,J6,4,4_4*%
%TO.N,/RXA2D*%
X172635175Y-66836002D03*
%TO.P,J6,5,5_5*%
%TO.N,/TXA3D*%
X172635175Y-64078002D03*
%TO.P,J6,6,6_6*%
%TO.N,/RXA3D*%
X172635175Y-61320002D03*
%TO.P,J6,7,7_7*%
%TO.N,/TXA4D*%
X172635175Y-58562002D03*
%TO.P,J6,8,8_8*%
%TO.N,/RXA4D*%
X172635175Y-55804002D03*
%TO.P,J6,9,9_9*%
%TO.N,/TXA5D*%
X172635175Y-53046002D03*
%TO.P,J6,10,10_10*%
%TO.N,/RXA5D*%
X172635175Y-50288002D03*
%TO.P,J6,11,11_11*%
%TO.N,/TXA6D*%
X172635175Y-47530002D03*
%TO.P,J6,12,12_12*%
%TO.N,/RXA6D*%
X172635175Y-44772002D03*
%TO.P,J6,13,13_13*%
%TO.N,GND*%
X172635175Y-42014002D03*
%TO.P,J6,14,14_14*%
X175475175Y-73731002D03*
%TO.P,J6,15,15_15*%
%TO.N,+5V*%
X175475175Y-70973002D03*
%TO.P,J6,16,16_16*%
%TO.N,GND*%
X175475175Y-68215002D03*
%TO.P,J6,17,17_17*%
%TO.N,+5V*%
X175475175Y-65457002D03*
%TO.P,J6,18,18_18*%
%TO.N,GND*%
X175475175Y-62699002D03*
%TO.P,J6,19,19_19*%
%TO.N,+5V*%
X175475175Y-59941002D03*
%TO.P,J6,20,20_20*%
%TO.N,GND*%
X175475175Y-57183002D03*
%TO.P,J6,21,21_21*%
%TO.N,+5V*%
X175475175Y-54425002D03*
%TO.P,J6,22,22_22*%
%TO.N,GND*%
X175475175Y-51667002D03*
%TO.P,J6,23,23_23*%
%TO.N,+5V*%
X175475175Y-48909002D03*
%TO.P,J6,24,24_24*%
%TO.N,GND*%
X175475175Y-46151002D03*
%TO.P,J6,25,25_25*%
%TO.N,+5V*%
X175475175Y-43393002D03*
D38*
%TO.P,J6,MH1,MH1_MH1*%
%TO.N,GND*%
X174055175Y-35042002D03*
%TO.P,J6,MH2,MH2_MH2*%
X174055175Y-82082002D03*
%TD*%
D12*
%TO.P,R27,1*%
%TO.N,/ESP_A2*%
X48255175Y-56425002D03*
%TO.P,R27,2*%
%TO.N,GND*%
X46255175Y-56425002D03*
%TD*%
D39*
%TO.P,D1,1,K_1*%
%TO.N,+5V*%
X75505175Y-37725002D03*
%TO.P,D1,2,A_2*%
%TO.N,/USB_VBUS*%
X75505175Y-33425002D03*
%TD*%
D40*
%TO.P,C7,1*%
%TO.N,GND*%
X154242675Y-50525002D03*
%TO.P,C7,2*%
%TO.N,/W_XI*%
X152167675Y-50525002D03*
%TD*%
D34*
%TO.P,IC15,1,~{OE}_1*%
%TO.N,GND*%
X138655175Y-38625002D03*
%TO.P,IC15,2,A_2*%
%TO.N,/ESP_SCLK*%
X138655175Y-39575002D03*
%TO.P,IC15,3,GND_3*%
%TO.N,GND*%
X138655175Y-40525002D03*
%TO.P,IC15,4,Y_4*%
%TO.N,/OUT_SCLK*%
X141155175Y-40525002D03*
%TO.P,IC15,5,VCC_5*%
%TO.N,+3V3*%
X141155175Y-38625002D03*
%TD*%
D12*
%TO.P,R11,1*%
%TO.N,/XS4T*%
X91305175Y-44325002D03*
%TO.P,R11,2*%
%TO.N,/XS4*%
X89305175Y-44325002D03*
%TD*%
D41*
%TO.P,D4,1,K_1*%
%TO.N,Net-(D3-K)*%
X45411000Y-68350000D03*
%TO.P,D4,2,A_2*%
%TO.N,/1OUT*%
X45411000Y-71650000D03*
%TD*%
D25*
%TO.P,R7,1*%
%TO.N,/ESP_IRQ*%
X158600000Y-82400000D03*
%TO.P,R7,2*%
%TO.N,Net-(IC4-B)*%
X158600000Y-84400000D03*
%TD*%
D42*
%TO.P,IC17,1,1OUT_1*%
%TO.N,/1OUT*%
X48978000Y-73295000D03*
%TO.P,IC17,2,1IN-_2*%
%TO.N,/1IN-*%
X48978000Y-74565000D03*
%TO.P,IC17,3,1IN+_3*%
%TO.N,/1IN+*%
X48978000Y-75835000D03*
%TO.P,IC17,4,GND_4*%
%TO.N,GND*%
X48978000Y-77105000D03*
%TO.P,IC17,5,2IN+_5*%
%TO.N,/2IN+*%
X54400000Y-77105000D03*
%TO.P,IC17,6,2IN-_6*%
%TO.N,/1IN-*%
X54400000Y-75835000D03*
%TO.P,IC17,7,2OUT_7*%
%TO.N,/2OUT*%
X54400000Y-74565000D03*
%TO.P,IC17,8,VCC_8*%
%TO.N,/12VIN*%
X54400000Y-73295000D03*
%TD*%
D40*
%TO.P,C16,1*%
%TO.N,+3V3*%
X140142675Y-43225002D03*
%TO.P,C16,2*%
%TO.N,GND*%
X138067675Y-43225002D03*
%TD*%
D24*
%TO.P,R8,1*%
%TO.N,/XS1T*%
X103205175Y-43025002D03*
%TO.P,R8,2*%
%TO.N,/XS1*%
X105205175Y-43025002D03*
%TD*%
D12*
%TO.P,R43,1*%
%TO.N,/TXB5D*%
X113705175Y-51725002D03*
%TO.P,R43,2*%
%TO.N,/TXB5*%
X111705175Y-51725002D03*
%TD*%
D25*
%TO.P,R67,1*%
%TO.N,/1IN+*%
X45400000Y-85900000D03*
%TO.P,R67,2*%
%TO.N,GND*%
X45400000Y-87900000D03*
%TD*%
D40*
%TO.P,C14,1*%
%TO.N,GND*%
X144142675Y-43225002D03*
%TO.P,C14,2*%
%TO.N,+3V3*%
X142067675Y-43225002D03*
%TD*%
D10*
%TO.P,C6,1*%
%TO.N,GND*%
X56717675Y-32675002D03*
%TO.P,C6,2*%
%TO.N,/CP_VDD*%
X58792675Y-32675002D03*
%TD*%
D14*
%TO.P,H5,1,1_1*%
%TO.N,GND*%
X37980000Y-25500000D03*
%TD*%
D24*
%TO.P,R28,1*%
%TO.N,GND*%
X46255175Y-58425002D03*
%TO.P,R28,2*%
%TO.N,/ESP_E3*%
X48255175Y-58425002D03*
%TD*%
D19*
%TO.P,12V,1,K_1*%
%TO.N,/12VIN*%
X66060000Y-86375002D03*
%TO.P,12V,2,A_2*%
%TO.N,Net-(12VDC1-A)*%
X66060000Y-84475002D03*
%TD*%
D43*
%TO.P,Q1,1,G_1*%
%TO.N,Net-(Q1-G)*%
X72955175Y-79975002D03*
%TO.P,Q1,2,S_2*%
%TO.N,/12VIN*%
X72955175Y-81875002D03*
%TO.P,Q1,3,D_3*%
%TO.N,+12V*%
X75055175Y-80925002D03*
%TD*%
D13*
%TO.P,C11,1*%
%TO.N,/TOCAP*%
X141705175Y-57925002D03*
%TO.P,C11,2*%
%TO.N,GND*%
X141705175Y-60000002D03*
%TD*%
D11*
%TO.P,R54,1*%
%TO.N,Net-(12VDC1-A)*%
X69700000Y-86600000D03*
%TO.P,R54,2*%
%TO.N,GND*%
X69700000Y-84600000D03*
%TD*%
D44*
%TO.P,IC8,1,I/O1_1_1*%
%TO.N,/WTXP*%
X160505175Y-48675002D03*
%TO.P,IC8,2,GND_2*%
%TO.N,GND*%
X161455175Y-48675002D03*
%TO.P,IC8,3,I/O2_1_3*%
%TO.N,/WTXN*%
X162405175Y-48675002D03*
%TO.P,IC8,4,I/O2_2_4*%
%TO.N,/TXN*%
X162405175Y-46175002D03*
%TO.P,IC8,5,VBUS_5*%
%TO.N,+3V3*%
X161455175Y-46175002D03*
%TO.P,IC8,6,I/O1_2_6*%
%TO.N,/TXP*%
X160505175Y-46175002D03*
%TD*%
D25*
%TO.P,R72,1*%
%TO.N,GND*%
X52000000Y-68900000D03*
%TO.P,R72,2*%
%TO.N,Net-(Q2-G)*%
X52000000Y-70900000D03*
%TD*%
D24*
%TO.P,R76,1*%
%TO.N,/2IN+*%
X50400000Y-79200000D03*
%TO.P,R76,2*%
%TO.N,/2OUT*%
X52400000Y-79200000D03*
%TD*%
D12*
%TO.P,R31,1*%
%TO.N,+3V3*%
X73405175Y-61425002D03*
%TO.P,R31,2*%
%TO.N,/ESP_IRQ*%
X71405175Y-61425002D03*
%TD*%
D19*
%TO.P,SCLK,1,K_1*%
%TO.N,+3V3*%
X162000000Y-82350000D03*
%TO.P,SCLK,2,A_2*%
%TO.N,Net-(SCLK1-A)*%
X162000000Y-84250000D03*
%TD*%
D12*
%TO.P,R26,1*%
%TO.N,/ESP_A1*%
X48255175Y-62425002D03*
%TO.P,R26,2*%
%TO.N,GND*%
X46255175Y-62425002D03*
%TD*%
D24*
%TO.P,R61,1*%
%TO.N,/TXA2D*%
X99955175Y-25725002D03*
%TO.P,R61,2*%
%TO.N,/TXA2*%
X101955175Y-25725002D03*
%TD*%
D45*
%TO.P,U7,1,\u002ARTSA_1*%
%TO.N,unconnected-(U7-\u002ARTSA-Pad1)*%
X123002425Y-47750002D03*
%TO.P,U7,2,\u002ACTSA_2*%
%TO.N,unconnected-(U7-\u002ACTSA-Pad2)*%
X123002425Y-48400003D03*
%TO.P,U7,3,TXA_3*%
%TO.N,/TXA6*%
X123002425Y-49050002D03*
%TO.P,U7,4,RXA_4*%
%TO.N,/RXA6*%
X123002425Y-49700003D03*
%TO.P,U7,5,\u002ARESET_5*%
%TO.N,/ESP_USRST*%
X123002425Y-50350001D03*
%TO.P,U7,6,XTAL1_6*%
%TO.N,/XS6*%
X123002425Y-51000003D03*
%TO.P,U7,7,XTAL2_7*%
%TO.N,GND*%
X123002425Y-51650001D03*
%TO.P,U7,8,VDD_8*%
%TO.N,+3V3*%
X123002425Y-52300000D03*
%TO.P,U7,9,I2C/\u002ASPI_9*%
X123002425Y-52950001D03*
%TO.P,U7,10,\u002ACS/A0_10*%
%TO.N,/D5*%
X123002425Y-53600000D03*
%TO.P,U7,11,SI/A1_11*%
%TO.N,/SI*%
X123002425Y-54250001D03*
%TO.P,U7,12,SO_12*%
%TO.N,/SO*%
X123002425Y-54900000D03*
%TO.P,U7,13,SCL/SCLK_13*%
%TO.N,/SCLK*%
X123002425Y-55550001D03*
%TO.P,U7,14,SDA_14*%
%TO.N,unconnected-(U7-SDA-Pad14)*%
X123002425Y-56200000D03*
%TO.P,U7,15,\u002AIRQ_15*%
%TO.N,/ESP_IRQ*%
X128907925Y-56200002D03*
%TO.P,U7,16,\u002ACTSB_16*%
%TO.N,unconnected-(U7-\u002ACTSB-Pad16)*%
X128907925Y-55550001D03*
%TO.P,U7,17,\u002ARTSB_17*%
%TO.N,unconnected-(U7-\u002ARTSB-Pad17)*%
X128907925Y-54900002D03*
%TO.P,U7,18,GPIO0/\u002ADSRB_18*%
%TO.N,unconnected-(U7-GPIO0{slash}\u002ADSRB-Pad18)*%
X128907925Y-54250001D03*
%TO.P,U7,19,GPIO1/\u002ADTRB_19*%
%TO.N,unconnected-(U7-GPIO1{slash}\u002ADTRB-Pad19)*%
X128907925Y-53600003D03*
%TO.P,U7,20,GPIO2/\u002ACDB_20*%
%TO.N,unconnected-(U7-GPIO2{slash}\u002ACDB-Pad20)*%
X128907925Y-52950001D03*
%TO.P,U7,21,GPIO3/\u002ARIB_21*%
%TO.N,unconnected-(U7-GPIO3{slash}\u002ARIB-Pad21)*%
X128907925Y-52300003D03*
%TO.P,U7,22,VSS_22*%
%TO.N,GND*%
X128907925Y-51650001D03*
%TO.P,U7,23,TXB_23*%
%TO.N,/TXB6*%
X128907925Y-51000003D03*
%TO.P,U7,24,RXB_24*%
%TO.N,/RXB6*%
X128907925Y-50350001D03*
%TO.P,U7,25,GPIO4/\u002ADSRA_25*%
%TO.N,unconnected-(U7-GPIO4{slash}\u002ADSRA-Pad25)*%
X128907925Y-49700003D03*
%TO.P,U7,26,GPIO5/\u002ADTRA_26*%
%TO.N,unconnected-(U7-GPIO5{slash}\u002ADTRA-Pad26)*%
X128907925Y-49050002D03*
%TO.P,U7,27,GPIO6/\u002ACDA_27*%
%TO.N,unconnected-(U7-GPIO6{slash}\u002ACDA-Pad27)*%
X128907925Y-48400003D03*
%TO.P,U7,28,GPIO7/\u002ARIA_28*%
%TO.N,unconnected-(U7-GPIO7{slash}\u002ARIA-Pad28)*%
X128907925Y-47750002D03*
%TD*%
D13*
%TO.P,C37,1*%
%TO.N,/BST*%
X65505175Y-74387502D03*
%TO.P,C37,2*%
%TO.N,/SW*%
X65505175Y-76462502D03*
%TD*%
D46*
%TO.P,Y1,1,CRYSTAL_1_1*%
%TO.N,/W_XI*%
X150555175Y-47975002D03*
%TO.P,Y1,2,GND_1_2*%
%TO.N,GND*%
X151955175Y-47975002D03*
%TO.P,Y1,3,CRYSTAL_2_3*%
%TO.N,/W_XO*%
X151955175Y-46875002D03*
%TO.P,Y1,4,GND_2_4*%
%TO.N,GND*%
X150555175Y-46875002D03*
%TD*%
D47*
%TO.P,RN1,1,1_1*%
%TO.N,GND*%
X75350000Y-54300000D03*
%TO.P,RN1,2,2_2*%
X75350000Y-53900000D03*
%TO.P,RN1,3,3_3*%
X75350000Y-53500000D03*
%TO.P,RN1,4,4_4*%
X75350000Y-53100000D03*
%TO.P,RN1,5,5_5*%
%TO.N,/ESP_SCLK*%
X74800000Y-53100000D03*
%TO.P,RN1,6,6_6*%
%TO.N,/ESP_USRST*%
X74800000Y-53500000D03*
%TO.P,RN1,7,7_7*%
%TO.N,/ESP_MOSI*%
X74800000Y-53900000D03*
%TO.P,RN1,8,8_8*%
%TO.N,/ESP_SCSN*%
X74800000Y-54300000D03*
%TD*%
D34*
%TO.P,IC7,1,I/O1_1_1*%
%TO.N,/USB_DN*%
X67505175Y-37625002D03*
%TO.P,IC7,2,GND_2*%
%TO.N,GND*%
X67505175Y-36675002D03*
%TO.P,IC7,3,I/O2_1_3*%
%TO.N,/USB_DP*%
X67505175Y-35725002D03*
%TO.P,IC7,4,I/O2_2_4*%
%TO.N,/CD_DP*%
X65005175Y-35725002D03*
%TO.P,IC7,5,VBUS_5*%
%TO.N,/USB_VBUS*%
X65005175Y-36675002D03*
%TO.P,IC7,6,I/O1_2_6*%
%TO.N,/CD_DN*%
X65005175Y-37625002D03*
%TD*%
D25*
%TO.P,R4,1*%
%TO.N,/ESP_EN*%
X48005175Y-52275002D03*
%TO.P,R4,2*%
%TO.N,+3V3*%
X48005175Y-54275002D03*
%TD*%
D24*
%TO.P,R57,1*%
%TO.N,/TXA3D*%
X119205175Y-26225002D03*
%TO.P,R57,2*%
%TO.N,/TXA3*%
X121205175Y-26225002D03*
%TD*%
%TO.P,R65,1*%
%TO.N,/TXA6D*%
X118955175Y-48975002D03*
%TO.P,R65,2*%
%TO.N,/TXA6*%
X120955175Y-48975002D03*
%TD*%
%TO.P,R55,1*%
%TO.N,/TXA1D*%
X81205175Y-25725002D03*
%TO.P,R55,2*%
%TO.N,/TXA1*%
X83205175Y-25725002D03*
%TD*%
D12*
%TO.P,R13,1*%
%TO.N,/XS6T*%
X91305175Y-40325002D03*
%TO.P,R13,2*%
%TO.N,/XS6*%
X89305175Y-40325002D03*
%TD*%
D33*
%TO.P,C10,1*%
%TO.N,GND*%
X154605175Y-48462502D03*
%TO.P,C10,2*%
%TO.N,/W_XO*%
X154605175Y-46387502D03*
%TD*%
D48*
%TO.P,RT2,1,1_1*%
%TO.N,/12VIN*%
X152400000Y-67800000D03*
%TO.P,RT2,2,2_2*%
%TO.N,/2IN+*%
X152400000Y-66000000D03*
%TD*%
D28*
%TO.P,S1,1,1_1*%
%TO.N,/ESP_EN*%
X45200175Y-27275002D03*
%TO.P,S1,2,2_2*%
%TO.N,GND*%
X45200175Y-23875002D03*
%TD*%
D25*
%TO.P,R68,1*%
%TO.N,/2IN+*%
X49400000Y-85900000D03*
%TO.P,R68,2*%
%TO.N,GND*%
X49400000Y-87900000D03*
%TD*%
D49*
%TO.P,C41,1*%
%TO.N,Net-(Q2-G)*%
X132700000Y-68500000D03*
%TO.P,C41,2*%
%TO.N,GND*%
X132700000Y-59700000D03*
%TD*%
D26*
%TO.P,TP4,1,1_1*%
%TO.N,/1V20*%
X155000000Y-75400000D03*
%TD*%
D14*
%TO.P,H3,1,1_1*%
%TO.N,GND*%
X172100000Y-25600000D03*
%TD*%
D24*
%TO.P,R56,1*%
%TO.N,/RXA1D*%
X81205175Y-27725002D03*
%TO.P,R56,2*%
%TO.N,/RXA1*%
X83205175Y-27725002D03*
%TD*%
D33*
%TO.P,C43,1*%
%TO.N,GND*%
X56600000Y-75337500D03*
%TO.P,C43,2*%
%TO.N,/12VIN*%
X56600000Y-73262500D03*
%TD*%
D50*
%TO.P,IC5,1,TXN_1*%
%TO.N,/WTXP*%
X137017175Y-48925002D03*
%TO.P,IC5,2,TXP_2*%
%TO.N,/WTXN*%
X137017175Y-49425002D03*
%TO.P,IC5,3,AGND_1_3*%
%TO.N,GND*%
X137017175Y-49925002D03*
%TO.P,IC5,4,AVDD_1_4*%
%TO.N,+3V3*%
X137017175Y-50425002D03*
%TO.P,IC5,5,RXN_5*%
%TO.N,/WRXP*%
X137017175Y-50925002D03*
%TO.P,IC5,6,RXP_6*%
%TO.N,/WRXN*%
X137017175Y-51425002D03*
%TO.P,IC5,7,DNC_7*%
%TO.N,unconnected-(IC5-DNC-Pad7)*%
X137017175Y-51925002D03*
%TO.P,IC5,8,AVDD_2_8*%
%TO.N,+3V3*%
X137017175Y-52425002D03*
%TO.P,IC5,9,AGND_2_9*%
%TO.N,GND*%
X137017175Y-52925002D03*
%TO.P,IC5,10,EXRES1_10*%
%TO.N,/EXRES1*%
X137017175Y-53425002D03*
%TO.P,IC5,11,AVDD_3_11*%
%TO.N,+3V3*%
X137017175Y-53925002D03*
%TO.P,IC5,12,NC_1_12*%
%TO.N,unconnected-(IC5-NC_1-Pad12)*%
X137017175Y-54425002D03*
D51*
%TO.P,IC5,13,NC_2_13*%
%TO.N,unconnected-(IC5-NC_2-Pad13)*%
X138505175Y-55913002D03*
%TO.P,IC5,14,AGND_3_14*%
%TO.N,GND*%
X139005175Y-55913002D03*
%TO.P,IC5,15,AVDD_4_15*%
%TO.N,+3V3*%
X139505175Y-55913002D03*
%TO.P,IC5,16,AGND_4_16*%
%TO.N,GND*%
X140005175Y-55913002D03*
%TO.P,IC5,17,AVDD_5_17*%
%TO.N,+3V3*%
X140505175Y-55913002D03*
%TO.P,IC5,18,VBG_18*%
%TO.N,/VBG*%
X141005175Y-55913002D03*
%TO.P,IC5,19,AGND_5_19*%
%TO.N,GND*%
X141505175Y-55913002D03*
%TO.P,IC5,20,TOCAP_20*%
%TO.N,/TOCAP*%
X142005175Y-55913002D03*
%TO.P,IC5,21,AVDD_6_21*%
%TO.N,+3V3*%
X142505175Y-55913002D03*
%TO.P,IC5,22,1V2O_22*%
%TO.N,/1V20*%
X143005175Y-55913002D03*
%TO.P,IC5,23,RSVD_1_23*%
%TO.N,unconnected-(IC5-RSVD_1-Pad23)*%
X143505175Y-55913002D03*
%TO.P,IC5,24,SPDLED_24*%
%TO.N,unconnected-(IC5-SPDLED-Pad24)*%
X144005175Y-55913002D03*
D50*
%TO.P,IC5,25,LINKLED_25*%
%TO.N,/LINKLED*%
X145493175Y-54425002D03*
%TO.P,IC5,26,DUPLED_26*%
%TO.N,unconnected-(IC5-DUPLED-Pad26)*%
X145493175Y-53925002D03*
%TO.P,IC5,27,ACTLED_27*%
%TO.N,/ACTLED*%
X145493175Y-53425002D03*
%TO.P,IC5,28,VDD_28*%
%TO.N,+3V3*%
X145493175Y-52925002D03*
%TO.P,IC5,29,GND_29*%
%TO.N,GND*%
X145493175Y-52425002D03*
%TO.P,IC5,30,XI/CLKIN_30*%
%TO.N,/W_XI*%
X145493175Y-51925002D03*
%TO.P,IC5,31,XO_31*%
%TO.N,/W_XO*%
X145493175Y-51425002D03*
%TO.P,IC5,32,SCSN_32*%
%TO.N,/ESP_SCSN*%
X145493175Y-50925002D03*
%TO.P,IC5,33,SCLK_33*%
%TO.N,/SCLK*%
X145493175Y-50425002D03*
%TO.P,IC5,34,MISO_34*%
%TO.N,/SO*%
X145493175Y-49925002D03*
%TO.P,IC5,35,MOSI_35*%
%TO.N,/SI*%
X145493175Y-49425002D03*
%TO.P,IC5,36,INTN_36*%
%TO.N,/ESP_IRQ*%
X145493175Y-48925002D03*
D51*
%TO.P,IC5,37,RSTN_37*%
%TO.N,/ESP_USRST*%
X144005175Y-47437002D03*
%TO.P,IC5,38,RSVD_2_38*%
%TO.N,GND*%
X143505175Y-47437002D03*
%TO.P,IC5,39,RSVD_3_39*%
X143005175Y-47437002D03*
%TO.P,IC5,40,RSVD_4_40*%
X142505175Y-47437002D03*
%TO.P,IC5,41,RSVD_5_41*%
X142005175Y-47437002D03*
%TO.P,IC5,42,RSVD_6_42*%
%TO.N,+3V3*%
X141505175Y-47437002D03*
%TO.P,IC5,43,PMODE2_43*%
X141005175Y-47437002D03*
%TO.P,IC5,44,PMODE1_44*%
X140505175Y-47437002D03*
%TO.P,IC5,45,PMODE0_45*%
X140005175Y-47437002D03*
%TO.P,IC5,46,NC_3_46*%
%TO.N,unconnected-(IC5-NC_3-Pad46)*%
X139505175Y-47437002D03*
%TO.P,IC5,47,NC_4_47*%
%TO.N,unconnected-(IC5-NC_4-Pad47)*%
X139005175Y-47437002D03*
%TO.P,IC5,48,AGND_6_48*%
%TO.N,GND*%
X138505175Y-47437002D03*
%TD*%
D33*
%TO.P,C5,1*%
%TO.N,GND*%
X59505175Y-36750002D03*
%TO.P,C5,2*%
%TO.N,/CP_VDD*%
X59505175Y-34675002D03*
%TD*%
D25*
%TO.P,R35,1*%
%TO.N,/D5*%
X125680175Y-59712802D03*
%TO.P,R35,2*%
%TO.N,/Y5*%
X125680175Y-61712802D03*
%TD*%
D13*
%TO.P,C8,1*%
%TO.N,/1V20*%
X143755175Y-57937502D03*
%TO.P,C8,2*%
%TO.N,GND*%
X143755175Y-60012502D03*
%TD*%
D11*
%TO.P,R23,1*%
%TO.N,/3V3*%
X44120000Y-31990000D03*
%TO.P,R23,2*%
%TO.N,/ESP_EN*%
X44120000Y-29990000D03*
%TD*%
D26*
%TO.P,TP1,1,1_1*%
%TO.N,+3V3*%
X54000000Y-91425002D03*
%TD*%
D52*
%TO.P,IC6,1,RI_/_CLK_1*%
%TO.N,unconnected-(IC6-RI_{slash}_CLK-Pad1)*%
X61305175Y-30675002D03*
%TO.P,IC6,2,GND_1_2*%
%TO.N,GND*%
X61305175Y-31175002D03*
%TO.P,IC6,3,D+_3*%
%TO.N,/CD_DP*%
X61305175Y-31675002D03*
%TO.P,IC6,4,D-_4*%
%TO.N,/CD_DN*%
X61305175Y-32175002D03*
%TO.P,IC6,5,VIO_5*%
%TO.N,/CP_VDD*%
X61305175Y-32675002D03*
%TO.P,IC6,6,VDD_6*%
X61305175Y-33175002D03*
D53*
%TO.P,IC6,7,VREGIN_7*%
%TO.N,/USB_VBUS*%
X62005175Y-33875002D03*
%TO.P,IC6,8,VBUS_8*%
X62505175Y-33875002D03*
%TO.P,IC6,9,RSTB_9*%
%TO.N,/RSTB*%
X63005175Y-33875002D03*
%TO.P,IC6,10,NC_1_10*%
%TO.N,unconnected-(IC6-NC_1-Pad10)*%
X63505175Y-33875002D03*
%TO.P,IC6,11,GPIO.3_/_WAKEUP_11*%
%TO.N,unconnected-(IC6-GPIO.3_{slash}_WAKEUP-Pad11)*%
X64005175Y-33875002D03*
%TO.P,IC6,12,GPIO.2_/_RS485_12*%
%TO.N,unconnected-(IC6-GPIO.2_{slash}_RS485-Pad12)*%
X64505175Y-33875002D03*
D52*
%TO.P,IC6,13,GPIO.1_/_RXT_13*%
%TO.N,unconnected-(IC6-GPIO.1_{slash}_RXT-Pad13)*%
X65205175Y-33175002D03*
%TO.P,IC6,14,GPIO.0_/_TXT_14*%
%TO.N,unconnected-(IC6-GPIO.0_{slash}_TXT-Pad14)*%
X65205175Y-32675002D03*
%TO.P,IC6,15,SUSPENDB_15*%
%TO.N,unconnected-(IC6-SUSPENDB-Pad15)*%
X65205175Y-32175002D03*
%TO.P,IC6,16,NC_2_16*%
%TO.N,unconnected-(IC6-NC_2-Pad16)*%
X65205175Y-31675002D03*
%TO.P,IC6,17,SUSPEND_17*%
%TO.N,unconnected-(IC6-SUSPEND-Pad17)*%
X65205175Y-31175002D03*
%TO.P,IC6,18,CTS_18*%
%TO.N,unconnected-(IC6-CTS-Pad18)*%
X65205175Y-30675002D03*
D53*
%TO.P,IC6,19,RTS_19*%
%TO.N,/RTS*%
X64505175Y-29975002D03*
%TO.P,IC6,20,RXD_20*%
%TO.N,/ESP_RX0*%
X64005175Y-29975002D03*
%TO.P,IC6,21,TXD_21*%
%TO.N,/ESP_TX0*%
X63505175Y-29975002D03*
%TO.P,IC6,22,DSR_22*%
%TO.N,unconnected-(IC6-DSR-Pad22)*%
X63005175Y-29975002D03*
%TO.P,IC6,23,DTR_23*%
%TO.N,/DTR*%
X62505175Y-29975002D03*
%TO.P,IC6,24,DCD_24*%
%TO.N,unconnected-(IC6-DCD-Pad24)*%
X62005175Y-29975002D03*
D54*
%TO.P,IC6,25,GND_2_25*%
%TO.N,GND*%
X63255175Y-31925002D03*
%TD*%
D10*
%TO.P,C24,1*%
%TO.N,GND*%
X119167675Y-30225002D03*
%TO.P,C24,2*%
%TO.N,+3V3*%
X121242675Y-30225002D03*
%TD*%
D24*
%TO.P,R75,1*%
%TO.N,/1IN+*%
X46500000Y-79200000D03*
%TO.P,R75,2*%
%TO.N,/1OUT*%
X48500000Y-79200000D03*
%TD*%
%TO.P,R62,1*%
%TO.N,/RXA2D*%
X99955175Y-27725002D03*
%TO.P,R62,2*%
%TO.N,/RXA2*%
X101955175Y-27725002D03*
%TD*%
%TO.P,R9,1*%
%TO.N,/XS2T*%
X93205175Y-46225002D03*
%TO.P,R9,2*%
%TO.N,/XS2*%
X95205175Y-46225002D03*
%TD*%
D12*
%TO.P,R47,1*%
%TO.N,/TXB4D*%
X94955175Y-51725002D03*
%TO.P,R47,2*%
%TO.N,/TXB4*%
X92955175Y-51725002D03*
%TD*%
D44*
%TO.P,IC9,1,I/O1_1_1*%
%TO.N,/WRXP*%
X156505175Y-48675002D03*
%TO.P,IC9,2,GND_2*%
%TO.N,GND*%
X157455175Y-48675002D03*
%TO.P,IC9,3,I/O2_1_3*%
%TO.N,/WRXN*%
X158405175Y-48675002D03*
%TO.P,IC9,4,I/O2_2_4*%
%TO.N,/RXN*%
X158405175Y-46175002D03*
%TO.P,IC9,5,VBUS_5*%
%TO.N,+3V3*%
X157455175Y-46175002D03*
%TO.P,IC9,6,I/O1_2_6*%
%TO.N,/RXP*%
X156505175Y-46175002D03*
%TD*%
D14*
%TO.P,H6,1,1_1*%
%TO.N,GND*%
X37990000Y-91340000D03*
%TD*%
D12*
%TO.P,R41,1*%
%TO.N,/TXB3D*%
X133205175Y-29225002D03*
%TO.P,R41,2*%
%TO.N,/TXB3*%
X131205175Y-29225002D03*
%TD*%
D25*
%TO.P,R29,1*%
%TO.N,/D0*%
X114430175Y-59712802D03*
%TO.P,R29,2*%
%TO.N,/Y0*%
X114430175Y-61712802D03*
%TD*%
D55*
%TO.P,F2,1,1_1*%
%TO.N,Net-(J4-Pin_1)*%
X74005175Y-73100002D03*
%TO.P,F2,2,2_2*%
%TO.N,+12V*%
X74005175Y-77750002D03*
%TD*%
D37*
%TO.P,J3,1,1_1*%
%TO.N,/TXB1D*%
X37395175Y-41857002D03*
%TO.P,J3,2,2_2*%
%TO.N,/RXB1D*%
X37395175Y-44615002D03*
%TO.P,J3,3,3_3*%
%TO.N,/TXB2D*%
X37395175Y-47373002D03*
%TO.P,J3,4,4_4*%
%TO.N,/RXB2D*%
X37395175Y-50131002D03*
%TO.P,J3,5,5_5*%
%TO.N,/TXB3D*%
X37395175Y-52889002D03*
%TO.P,J3,6,6_6*%
%TO.N,/RXB3D*%
X37395175Y-55647002D03*
%TO.P,J3,7,7_7*%
%TO.N,/TXB4D*%
X37395175Y-58405002D03*
%TO.P,J3,8,8_8*%
%TO.N,/RXB4D*%
X37395175Y-61163002D03*
%TO.P,J3,9,9_9*%
%TO.N,/TXB5D*%
X37395175Y-63921002D03*
%TO.P,J3,10,10_10*%
%TO.N,/RXB5D*%
X37395175Y-66679002D03*
%TO.P,J3,11,11_11*%
%TO.N,/TXB6D*%
X37395175Y-69437002D03*
%TO.P,J3,12,12_12*%
%TO.N,/RXB6D*%
X37395175Y-72195002D03*
%TO.P,J3,13,13_13*%
%TO.N,GND*%
X37395175Y-74953002D03*
%TO.P,J3,14,14_14*%
X34555175Y-43236002D03*
%TO.P,J3,15,15_15*%
%TO.N,+5V*%
X34555175Y-45994002D03*
%TO.P,J3,16,16_16*%
%TO.N,GND*%
X34555175Y-48752002D03*
%TO.P,J3,17,17_17*%
%TO.N,+5V*%
X34555175Y-51510002D03*
%TO.P,J3,18,18_18*%
%TO.N,GND*%
X34555175Y-54268002D03*
%TO.P,J3,19,19_19*%
%TO.N,+5V*%
X34555175Y-57026002D03*
%TO.P,J3,20,20_20*%
%TO.N,GND*%
X34555175Y-59784002D03*
%TO.P,J3,21,21_21*%
%TO.N,+5V*%
X34555175Y-62542002D03*
%TO.P,J3,22,22_22*%
%TO.N,GND*%
X34555175Y-65300002D03*
%TO.P,J3,23,23_23*%
%TO.N,+5V*%
X34555175Y-68058002D03*
%TO.P,J3,24,24_24*%
%TO.N,GND*%
X34555175Y-70816002D03*
%TO.P,J3,25,25_25*%
%TO.N,+5V*%
X34555175Y-73574002D03*
D38*
%TO.P,J3,MH1,MH1_MH1*%
%TO.N,GND*%
X35975175Y-81925002D03*
%TO.P,J3,MH2,MH2_MH2*%
X35975175Y-34885002D03*
%TD*%
D11*
%TO.P,R74,1*%
%TO.N,/12VIN*%
X54400000Y-81100000D03*
%TO.P,R74,2*%
%TO.N,/2OUT*%
X54400000Y-79100000D03*
%TD*%
D45*
%TO.P,U4,1,\u002ARTSA_1*%
%TO.N,unconnected-(U4-\u002ARTSA-Pad1)*%
X104002425Y-25250002D03*
%TO.P,U4,2,\u002ACTSA_2*%
%TO.N,unconnected-(U4-\u002ACTSA-Pad2)*%
X104002425Y-25900003D03*
%TO.P,U4,3,TXA_3*%
%TO.N,/TXA2*%
X104002425Y-26550002D03*
%TO.P,U4,4,RXA_4*%
%TO.N,/RXA2*%
X104002425Y-27200003D03*
%TO.P,U4,5,\u002ARESET_5*%
%TO.N,/ESP_USRST*%
X104002425Y-27850001D03*
%TO.P,U4,6,XTAL1_6*%
%TO.N,/XS2*%
X104002425Y-28500003D03*
%TO.P,U4,7,XTAL2_7*%
%TO.N,GND*%
X104002425Y-29150001D03*
%TO.P,U4,8,VDD_8*%
%TO.N,+3V3*%
X104002425Y-29800000D03*
%TO.P,U4,9,I2C/\u002ASPI_9*%
X104002425Y-30450001D03*
%TO.P,U4,10,\u002ACS/A0_10*%
%TO.N,/D1*%
X104002425Y-31100000D03*
%TO.P,U4,11,SI/A1_11*%
%TO.N,/SI*%
X104002425Y-31750001D03*
%TO.P,U4,12,SO_12*%
%TO.N,/SO*%
X104002425Y-32400000D03*
%TO.P,U4,13,SCL/SCLK_13*%
%TO.N,/SCLK*%
X104002425Y-33050001D03*
%TO.P,U4,14,SDA_14*%
%TO.N,unconnected-(U4-SDA-Pad14)*%
X104002425Y-33700000D03*
%TO.P,U4,15,\u002AIRQ_15*%
%TO.N,/ESP_IRQ*%
X109907925Y-33700002D03*
%TO.P,U4,16,\u002ACTSB_16*%
%TO.N,unconnected-(U4-\u002ACTSB-Pad16)*%
X109907925Y-33050001D03*
%TO.P,U4,17,\u002ARTSB_17*%
%TO.N,unconnected-(U4-\u002ARTSB-Pad17)*%
X109907925Y-32400002D03*
%TO.P,U4,18,GPIO0/\u002ADSRB_18*%
%TO.N,unconnected-(U4-GPIO0{slash}\u002ADSRB-Pad18)*%
X109907925Y-31750001D03*
%TO.P,U4,19,GPIO1/\u002ADTRB_19*%
%TO.N,unconnected-(U4-GPIO1{slash}\u002ADTRB-Pad19)*%
X109907925Y-31100003D03*
%TO.P,U4,20,GPIO2/\u002ACDB_20*%
%TO.N,unconnected-(U4-GPIO2{slash}\u002ACDB-Pad20)*%
X109907925Y-30450001D03*
%TO.P,U4,21,GPIO3/\u002ARIB_21*%
%TO.N,unconnected-(U4-GPIO3{slash}\u002ARIB-Pad21)*%
X109907925Y-29800003D03*
%TO.P,U4,22,VSS_22*%
%TO.N,GND*%
X109907925Y-29150001D03*
%TO.P,U4,23,TXB_23*%
%TO.N,/TXB2*%
X109907925Y-28500003D03*
%TO.P,U4,24,RXB_24*%
%TO.N,/RXB2*%
X109907925Y-27850001D03*
%TO.P,U4,25,GPIO4/\u002ADSRA_25*%
%TO.N,unconnected-(U4-GPIO4{slash}\u002ADSRA-Pad25)*%
X109907925Y-27200003D03*
%TO.P,U4,26,GPIO5/\u002ADTRA_26*%
%TO.N,unconnected-(U4-GPIO5{slash}\u002ADTRA-Pad26)*%
X109907925Y-26550002D03*
%TO.P,U4,27,GPIO6/\u002ACDA_27*%
%TO.N,unconnected-(U4-GPIO6{slash}\u002ACDA-Pad27)*%
X109907925Y-25900003D03*
%TO.P,U4,28,GPIO7/\u002ARIA_28*%
%TO.N,unconnected-(U4-GPIO7{slash}\u002ARIA-Pad28)*%
X109907925Y-25250002D03*
%TD*%
D11*
%TO.P,R53,1*%
%TO.N,Net-(5VDC1-A)*%
X63600000Y-86600000D03*
%TO.P,R53,2*%
%TO.N,GND*%
X63600000Y-84600000D03*
%TD*%
D10*
%TO.P,C27,1*%
%TO.N,GND*%
X99667675Y-53225002D03*
%TO.P,C27,2*%
%TO.N,+3V3*%
X101742675Y-53225002D03*
%TD*%
D56*
%TO.P,F1,1,1_1*%
%TO.N,/USB_VBUSF*%
X69605175Y-33175002D03*
%TO.P,F1,2,2_2*%
%TO.N,/USB_VBUS*%
X72905175Y-33175002D03*
%TD*%
D13*
%TO.P,C40,1*%
%TO.N,GND*%
X61505175Y-70387502D03*
%TO.P,C40,2*%
%TO.N,+5V*%
X61505175Y-72462502D03*
%TD*%
D12*
%TO.P,R44,1*%
%TO.N,/RXB5D*%
X113705175Y-49725002D03*
%TO.P,R44,2*%
%TO.N,/RXB5*%
X111705175Y-49725002D03*
%TD*%
D32*
%TO.P,IC11,1,B_1*%
%TO.N,Net-(IC11-B)*%
X56305175Y-27625002D03*
%TO.P,IC11,2,E_2*%
%TO.N,/DTR*%
X58205175Y-27625002D03*
%TO.P,IC11,3,C_3*%
%TO.N,/ESP_IO0*%
X57255175Y-25225002D03*
%TD*%
D25*
%TO.P,R17,1*%
%TO.N,/CP_VDD*%
X61905175Y-35925002D03*
%TO.P,R17,2*%
%TO.N,/RSTB*%
X61905175Y-37925002D03*
%TD*%
D12*
%TO.P,R45,1*%
%TO.N,/TXB2D*%
X113955175Y-29225002D03*
%TO.P,R45,2*%
%TO.N,/TXB2*%
X111955175Y-29225002D03*
%TD*%
D24*
%TO.P,R59,1*%
%TO.N,/TXA5D*%
X99705175Y-48975002D03*
%TO.P,R59,2*%
%TO.N,/TXA5*%
X101705175Y-48975002D03*
%TD*%
D25*
%TO.P,R33,1*%
%TO.N,/D3*%
X121180175Y-59712802D03*
%TO.P,R33,2*%
%TO.N,/Y3*%
X121180175Y-61712802D03*
%TD*%
D19*
%TO.P,IRQ,1,K_1*%
%TO.N,+3V3*%
X154700000Y-82350000D03*
%TO.P,IRQ,2,A_2*%
%TO.N,Net-(IRQ1-A)*%
X154700000Y-84250000D03*
%TD*%
D13*
%TO.P,C2,1*%
%TO.N,GND*%
X45955175Y-45887502D03*
%TO.P,C2,2*%
%TO.N,+3V3*%
X45955175Y-47962502D03*
%TD*%
D57*
%TO.P,U3,1,A0_1*%
%TO.N,/ESP_A0*%
X115735175Y-70075002D03*
%TO.P,U3,2,A1_2*%
%TO.N,/ESP_A1*%
X117005175Y-70075002D03*
%TO.P,U3,3,A2_3*%
%TO.N,/ESP_A2*%
X118275175Y-70075002D03*
%TO.P,U3,4,\u002AE1_4*%
%TO.N,GND*%
X119545175Y-70075002D03*
%TO.P,U3,5,\u002AE2_5*%
X120815175Y-70075002D03*
%TO.P,U3,6,E3_6*%
%TO.N,/ESP_E3*%
X122085175Y-70075002D03*
%TO.P,U3,7,Y7_7*%
%TO.N,unconnected-(U3-Y7-Pad7)*%
X123355175Y-70075002D03*
%TO.P,U3,8,GND_8*%
%TO.N,GND*%
X124625175Y-70075002D03*
%TO.P,U3,9,Y6_9*%
%TO.N,unconnected-(U3-Y6-Pad9)*%
X124625175Y-65350602D03*
%TO.P,U3,10,Y5_10*%
%TO.N,/Y5*%
X123355175Y-65350602D03*
%TO.P,U3,11,Y4_11*%
%TO.N,/Y4*%
X122085175Y-65350602D03*
%TO.P,U3,12,Y3_12*%
%TO.N,/Y3*%
X120815175Y-65350602D03*
%TO.P,U3,13,Y2_13*%
%TO.N,/Y2*%
X119545175Y-65350602D03*
%TO.P,U3,14,Y1_14*%
%TO.N,/Y1*%
X118275175Y-65350602D03*
%TO.P,U3,15,Y0_15*%
%TO.N,/Y0*%
X117005175Y-65350602D03*
%TO.P,U3,16,VCC_16*%
%TO.N,+3V3*%
X115735175Y-65350602D03*
%TD*%
D12*
%TO.P,R46,1*%
%TO.N,/RXB2D*%
X113955175Y-27225002D03*
%TO.P,R46,2*%
%TO.N,/RXB2*%
X111955175Y-27225002D03*
%TD*%
D10*
%TO.P,C17,1*%
%TO.N,+3V3*%
X147567675Y-56025002D03*
%TO.P,C17,2*%
%TO.N,GND*%
X149642675Y-56025002D03*
%TD*%
D58*
%TO.P,J2,*%
%TO.N,*%
X154610175Y-39785002D03*
D59*
%TO.P,J2,1*%
%TO.N,/TXP*%
X162230175Y-39785002D03*
D58*
%TO.P,J2,2*%
%TO.N,/TXN*%
X160970175Y-42325002D03*
%TO.P,J2,3*%
%TO.N,/RXP*%
X159690175Y-39785002D03*
%TO.P,J2,4*%
%TO.N,+3V3*%
X158430175Y-42325002D03*
%TO.P,J2,5*%
X157150175Y-39785002D03*
%TO.P,J2,6*%
%TO.N,/RXN*%
X155890175Y-42325002D03*
%TO.P,J2,8*%
%TO.N,GND*%
X153350175Y-42325002D03*
%TO.P,J2,9*%
%TO.N,Net-(J2-Pad9)*%
X164415175Y-28525002D03*
%TO.P,J2,10*%
%TO.N,/LINKLED*%
X161875175Y-28525002D03*
%TO.P,J2,11*%
%TO.N,/ACTLED*%
X153705175Y-28525002D03*
%TO.P,J2,12*%
%TO.N,Net-(J2-Pad12)*%
X151165175Y-28525002D03*
D60*
%TO.P,J2,15,SHIELD_15*%
%TO.N,GND*%
X165535175Y-36475002D03*
%TO.P,J2,16,SHIELD_16*%
X150045175Y-36475002D03*
%TD*%
D24*
%TO.P,R14,1*%
%TO.N,/ESP_IO0*%
X71400000Y-63475002D03*
%TO.P,R14,2*%
%TO.N,+3V3*%
X73400000Y-63475002D03*
%TD*%
D12*
%TO.P,R48,1*%
%TO.N,/RXB4D*%
X94955175Y-49725002D03*
%TO.P,R48,2*%
%TO.N,/RXB4*%
X92955175Y-49725002D03*
%TD*%
D10*
%TO.P,C31,1*%
%TO.N,+3V3*%
X143367675Y-38575002D03*
%TO.P,C31,2*%
%TO.N,GND*%
X145442675Y-38575002D03*
%TD*%
D13*
%TO.P,C4,1*%
%TO.N,GND*%
X48205175Y-45937502D03*
%TO.P,C4,2*%
%TO.N,+3V3*%
X48205175Y-48012502D03*
%TD*%
D41*
%TO.P,D3,1,K_1*%
%TO.N,Net-(D3-K)*%
X56600000Y-68050000D03*
%TO.P,D3,2,A_2*%
%TO.N,/2OUT*%
X56600000Y-71350000D03*
%TD*%
D11*
%TO.P,R12,1*%
%TO.N,/XS5T*%
X101205175Y-40125002D03*
%TO.P,R12,2*%
%TO.N,/XS5*%
X101205175Y-38125002D03*
%TD*%
D13*
%TO.P,C38,1*%
%TO.N,/12VIN*%
X61505175Y-78887502D03*
%TO.P,C38,2*%
%TO.N,GND*%
X61505175Y-80962502D03*
%TD*%
D11*
%TO.P,R18,1*%
%TO.N,GND*%
X134255175Y-55425002D03*
%TO.P,R18,2*%
%TO.N,/EXRES1*%
X134255175Y-53425002D03*
%TD*%
D45*
%TO.P,U6,1,\u002ARTSA_1*%
%TO.N,unconnected-(U6-\u002ARTSA-Pad1)*%
X123252425Y-25250002D03*
%TO.P,U6,2,\u002ACTSA_2*%
%TO.N,unconnected-(U6-\u002ACTSA-Pad2)*%
X123252425Y-25900003D03*
%TO.P,U6,3,TXA_3*%
%TO.N,/TXA3*%
X123252425Y-26550002D03*
%TO.P,U6,4,RXA_4*%
%TO.N,/RXA3*%
X123252425Y-27200003D03*
%TO.P,U6,5,\u002ARESET_5*%
%TO.N,/ESP_USRST*%
X123252425Y-27850001D03*
%TO.P,U6,6,XTAL1_6*%
%TO.N,/XS3*%
X123252425Y-28500003D03*
%TO.P,U6,7,XTAL2_7*%
%TO.N,GND*%
X123252425Y-29150001D03*
%TO.P,U6,8,VDD_8*%
%TO.N,+3V3*%
X123252425Y-29800000D03*
%TO.P,U6,9,I2C/\u002ASPI_9*%
X123252425Y-30450001D03*
%TO.P,U6,10,\u002ACS/A0_10*%
%TO.N,/D2*%
X123252425Y-31100000D03*
%TO.P,U6,11,SI/A1_11*%
%TO.N,/SI*%
X123252425Y-31750001D03*
%TO.P,U6,12,SO_12*%
%TO.N,/SO*%
X123252425Y-32400000D03*
%TO.P,U6,13,SCL/SCLK_13*%
%TO.N,/SCLK*%
X123252425Y-33050001D03*
%TO.P,U6,14,SDA_14*%
%TO.N,unconnected-(U6-SDA-Pad14)*%
X123252425Y-33700000D03*
%TO.P,U6,15,\u002AIRQ_15*%
%TO.N,/ESP_IRQ*%
X129157925Y-33700002D03*
%TO.P,U6,16,\u002ACTSB_16*%
%TO.N,unconnected-(U6-\u002ACTSB-Pad16)*%
X129157925Y-33050001D03*
%TO.P,U6,17,\u002ARTSB_17*%
%TO.N,unconnected-(U6-\u002ARTSB-Pad17)*%
X129157925Y-32400002D03*
%TO.P,U6,18,GPIO0/\u002ADSRB_18*%
%TO.N,unconnected-(U6-GPIO0{slash}\u002ADSRB-Pad18)*%
X129157925Y-31750001D03*
%TO.P,U6,19,GPIO1/\u002ADTRB_19*%
%TO.N,unconnected-(U6-GPIO1{slash}\u002ADTRB-Pad19)*%
X129157925Y-31100003D03*
%TO.P,U6,20,GPIO2/\u002ACDB_20*%
%TO.N,unconnected-(U6-GPIO2{slash}\u002ACDB-Pad20)*%
X129157925Y-30450001D03*
%TO.P,U6,21,GPIO3/\u002ARIB_21*%
%TO.N,unconnected-(U6-GPIO3{slash}\u002ARIB-Pad21)*%
X129157925Y-29800003D03*
%TO.P,U6,22,VSS_22*%
%TO.N,GND*%
X129157925Y-29150001D03*
%TO.P,U6,23,TXB_23*%
%TO.N,/TXB3*%
X129157925Y-28500003D03*
%TO.P,U6,24,RXB_24*%
%TO.N,/RXB3*%
X129157925Y-27850001D03*
%TO.P,U6,25,GPIO4/\u002ADSRA_25*%
%TO.N,unconnected-(U6-GPIO4{slash}\u002ADSRA-Pad25)*%
X129157925Y-27200003D03*
%TO.P,U6,26,GPIO5/\u002ADTRA_26*%
%TO.N,unconnected-(U6-GPIO5{slash}\u002ADTRA-Pad26)*%
X129157925Y-26550002D03*
%TO.P,U6,27,GPIO6/\u002ACDA_27*%
%TO.N,unconnected-(U6-GPIO6{slash}\u002ACDA-Pad27)*%
X129157925Y-25900003D03*
%TO.P,U6,28,GPIO7/\u002ARIA_28*%
%TO.N,unconnected-(U6-GPIO7{slash}\u002ARIA-Pad28)*%
X129157925Y-25250002D03*
%TD*%
D11*
%TO.P,R2,1*%
%TO.N,/IRQ_STAT*%
X154700000Y-88400000D03*
%TO.P,R2,2*%
%TO.N,Net-(IRQ1-A)*%
X154700000Y-86400000D03*
%TD*%
D61*
%TO.P,IC14,1,IN_1*%
%TO.N,+5V*%
X143855175Y-64625002D03*
%TO.P,IC14,2,GND_1_2*%
%TO.N,GND*%
X143855175Y-66925002D03*
%TO.P,IC14,3,OUT_3*%
%TO.N,+3V3*%
X143855175Y-69225002D03*
D62*
%TO.P,IC14,4,GND_2_4*%
%TO.N,GND*%
X150155175Y-66925002D03*
%TD*%
D10*
%TO.P,C23,1*%
%TO.N,GND*%
X81167675Y-29725002D03*
%TO.P,C23,2*%
%TO.N,+3V3*%
X83242675Y-29725002D03*
%TD*%
D34*
%TO.P,IC13,1,~{OE}_1*%
%TO.N,GND*%
X138555175Y-34375002D03*
%TO.P,IC13,2,A_2*%
%TO.N,/ESP_MOSI*%
X138555175Y-35325002D03*
%TO.P,IC13,3,GND_3*%
%TO.N,GND*%
X138555175Y-36275002D03*
%TO.P,IC13,4,Y_4*%
%TO.N,/OUT_MOSI*%
X141055175Y-36275002D03*
%TO.P,IC13,5,VCC_5*%
%TO.N,+3V3*%
X141055175Y-34375002D03*
%TD*%
D32*
%TO.P,IC4,1,B_1*%
%TO.N,Net-(IC4-B)*%
X158650000Y-86100000D03*
%TO.P,IC4,2,E_2*%
%TO.N,GND*%
X156750000Y-86100000D03*
%TO.P,IC4,3,C_3*%
%TO.N,/IRQ_STAT*%
X157700000Y-88500000D03*
%TD*%
D33*
%TO.P,C32,1*%
%TO.N,GND*%
X141505175Y-66700002D03*
%TO.P,C32,2*%
%TO.N,+5V*%
X141505175Y-64625002D03*
%TD*%
D45*
%TO.P,U2,1,\u002ARTSA_1*%
%TO.N,unconnected-(U2-\u002ARTSA-Pad1)*%
X85002425Y-47750002D03*
%TO.P,U2,2,\u002ACTSA_2*%
%TO.N,unconnected-(U2-\u002ACTSA-Pad2)*%
X85002425Y-48400003D03*
%TO.P,U2,3,TXA_3*%
%TO.N,/TXA4*%
X85002425Y-49050002D03*
%TO.P,U2,4,RXA_4*%
%TO.N,/RXA4*%
X85002425Y-49700003D03*
%TO.P,U2,5,\u002ARESET_5*%
%TO.N,/ESP_USRST*%
X85002425Y-50350001D03*
%TO.P,U2,6,XTAL1_6*%
%TO.N,/XS4*%
X85002425Y-51000003D03*
%TO.P,U2,7,XTAL2_7*%
%TO.N,GND*%
X85002425Y-51650001D03*
%TO.P,U2,8,VDD_8*%
%TO.N,+3V3*%
X85002425Y-52300000D03*
%TO.P,U2,9,I2C/\u002ASPI_9*%
X85002425Y-52950001D03*
%TO.P,U2,10,\u002ACS/A0_10*%
%TO.N,/D3*%
X85002425Y-53600000D03*
%TO.P,U2,11,SI/A1_11*%
%TO.N,/SI*%
X85002425Y-54250001D03*
%TO.P,U2,12,SO_12*%
%TO.N,/SO*%
X85002425Y-54900000D03*
%TO.P,U2,13,SCL/SCLK_13*%
%TO.N,/SCLK*%
X85002425Y-55550001D03*
%TO.P,U2,14,SDA_14*%
%TO.N,unconnected-(U2-SDA-Pad14)*%
X85002425Y-56200000D03*
%TO.P,U2,15,\u002AIRQ_15*%
%TO.N,/ESP_IRQ*%
X90907925Y-56200002D03*
%TO.P,U2,16,\u002ACTSB_16*%
%TO.N,unconnected-(U2-\u002ACTSB-Pad16)*%
X90907925Y-55550001D03*
%TO.P,U2,17,\u002ARTSB_17*%
%TO.N,unconnected-(U2-\u002ARTSB-Pad17)*%
X90907925Y-54900002D03*
%TO.P,U2,18,GPIO0/\u002ADSRB_18*%
%TO.N,unconnected-(U2-GPIO0{slash}\u002ADSRB-Pad18)*%
X90907925Y-54250001D03*
%TO.P,U2,19,GPIO1/\u002ADTRB_19*%
%TO.N,unconnected-(U2-GPIO1{slash}\u002ADTRB-Pad19)*%
X90907925Y-53600003D03*
%TO.P,U2,20,GPIO2/\u002ACDB_20*%
%TO.N,unconnected-(U2-GPIO2{slash}\u002ACDB-Pad20)*%
X90907925Y-52950001D03*
%TO.P,U2,21,GPIO3/\u002ARIB_21*%
%TO.N,unconnected-(U2-GPIO3{slash}\u002ARIB-Pad21)*%
X90907925Y-52300003D03*
%TO.P,U2,22,VSS_22*%
%TO.N,GND*%
X90907925Y-51650001D03*
%TO.P,U2,23,TXB_23*%
%TO.N,/TXB4*%
X90907925Y-51000003D03*
%TO.P,U2,24,RXB_24*%
%TO.N,/RXB4*%
X90907925Y-50350001D03*
%TO.P,U2,25,GPIO4/\u002ADSRA_25*%
%TO.N,unconnected-(U2-GPIO4{slash}\u002ADSRA-Pad25)*%
X90907925Y-49700003D03*
%TO.P,U2,26,GPIO5/\u002ADTRA_26*%
%TO.N,unconnected-(U2-GPIO5{slash}\u002ADTRA-Pad26)*%
X90907925Y-49050002D03*
%TO.P,U2,27,GPIO6/\u002ACDA_27*%
%TO.N,unconnected-(U2-GPIO6{slash}\u002ACDA-Pad27)*%
X90907925Y-48400003D03*
%TO.P,U2,28,GPIO7/\u002ARIA_28*%
%TO.N,unconnected-(U2-GPIO7{slash}\u002ARIA-Pad28)*%
X90907925Y-47750002D03*
%TD*%
D32*
%TO.P,IC10,1,B_1*%
%TO.N,Net-(IC10-B)*%
X62555175Y-27600000D03*
%TO.P,IC10,2,E_2*%
%TO.N,/RTS*%
X64455175Y-27600000D03*
%TO.P,IC10,3,C_3*%
%TO.N,/ESP_EN*%
X63505175Y-25200000D03*
%TD*%
D40*
%TO.P,C15,1*%
%TO.N,+3V3*%
X140142675Y-45325002D03*
%TO.P,C15,2*%
%TO.N,GND*%
X138067675Y-45325002D03*
%TD*%
D63*
%TO.P,IC2,1,GND_1_1*%
%TO.N,GND*%
X51105175Y-46985002D03*
%TO.P,IC2,2,3V3_2*%
%TO.N,+3V3*%
X51105175Y-48255002D03*
%TO.P,IC2,3,EN_3*%
%TO.N,/ESP_EN*%
X51105175Y-49525002D03*
%TO.P,IC2,4,SENSOR_VP_4*%
%TO.N,unconnected-(IC2-SENSOR_VP-Pad4)*%
X51105175Y-50795002D03*
%TO.P,IC2,5,SENSOR_VN_5*%
%TO.N,unconnected-(IC2-SENSOR_VN-Pad5)*%
X51105175Y-52065002D03*
%TO.P,IC2,6,IO34_6*%
%TO.N,/ESP_USRST*%
X51105175Y-53335002D03*
%TO.P,IC2,7,IO35_7*%
%TO.N,/IO35*%
X51105175Y-54605002D03*
%TO.P,IC2,8,IO32_8*%
%TO.N,/ESP_A2*%
X51105175Y-55875002D03*
%TO.P,IC2,9,IO33_9*%
%TO.N,/ESP_E3*%
X51105175Y-57145002D03*
%TO.P,IC2,10,IO25_10*%
%TO.N,/ESP_A0*%
X51105175Y-58415002D03*
%TO.P,IC2,11,IO26_11*%
%TO.N,/ESP_A1*%
X51105175Y-59685002D03*
%TO.P,IC2,12,IO27_12*%
%TO.N,/IO27*%
X51105175Y-60955002D03*
%TO.P,IC2,13,IO14_13*%
%TO.N,/IO14*%
X51105175Y-62225002D03*
%TO.P,IC2,14,IO12_14*%
%TO.N,/IO12*%
X51105175Y-63495002D03*
D64*
%TO.P,IC2,15,GND_2_15*%
%TO.N,GND*%
X54140175Y-64745002D03*
%TO.P,IC2,16,IO13_16*%
%TO.N,/IO13*%
X55410175Y-64745002D03*
%TO.P,IC2,17,NC_1_17*%
%TO.N,unconnected-(IC2-NC_1-Pad17)*%
X56680175Y-64745002D03*
%TO.P,IC2,18,NC_2_18*%
%TO.N,unconnected-(IC2-NC_2-Pad18)*%
X57950175Y-64745002D03*
%TO.P,IC2,19,NC_3_19*%
%TO.N,unconnected-(IC2-NC_3-Pad19)*%
X59220175Y-64745002D03*
%TO.P,IC2,20,NC_4_20*%
%TO.N,unconnected-(IC2-NC_4-Pad20)*%
X60490175Y-64745002D03*
%TO.P,IC2,21,NC_5_21*%
%TO.N,unconnected-(IC2-NC_5-Pad21)*%
X61760175Y-64745002D03*
%TO.P,IC2,22,NC_6_22*%
%TO.N,unconnected-(IC2-NC_6-Pad22)*%
X63030175Y-64745002D03*
%TO.P,IC2,23,IO15_23*%
%TO.N,/IO15*%
X64300175Y-64745002D03*
%TO.P,IC2,24,IO2_24*%
%TO.N,/IO2*%
X65570175Y-64745002D03*
D63*
%TO.P,IC2,25,IO0_25*%
%TO.N,/ESP_IO0*%
X68605175Y-63495002D03*
%TO.P,IC2,26,IO4_26*%
%TO.N,/ESP_IRQ*%
X68605175Y-62225002D03*
%TO.P,IC2,27,IO16_27*%
%TO.N,/IO16*%
X68605175Y-60955002D03*
%TO.P,IC2,28,IO17_28*%
%TO.N,/IO17*%
X68605175Y-59685002D03*
%TO.P,IC2,29,IO5_29*%
%TO.N,/ESP_SCSN*%
X68605175Y-58415002D03*
%TO.P,IC2,30,IO18_30*%
%TO.N,/ESP_SCLK*%
X68605175Y-57145002D03*
%TO.P,IC2,31,IO19_31*%
%TO.N,/ESP_MISO*%
X68605175Y-55875002D03*
%TO.P,IC2,32,NC_7_32*%
%TO.N,unconnected-(IC2-NC_7-Pad32)*%
X68605175Y-54605002D03*
%TO.P,IC2,33,IO21_33*%
%TO.N,/IO21*%
X68605175Y-53335002D03*
%TO.P,IC2,34,RXD0_34*%
%TO.N,/ESP_RX0*%
X68605175Y-52065002D03*
%TO.P,IC2,35,TXD0_35*%
%TO.N,/ESP_TX0*%
X68605175Y-50795002D03*
%TO.P,IC2,36,IO22_36*%
%TO.N,/IO22*%
X68605175Y-49525002D03*
%TO.P,IC2,37,IO23_37*%
%TO.N,/ESP_MOSI*%
X68605175Y-48255002D03*
%TO.P,IC2,38,GND_3_38*%
%TO.N,GND*%
X68605175Y-46985002D03*
D65*
%TO.P,IC2,39,GND_4_39*%
X58355175Y-54325002D03*
%TO.P,IC2,40,GND_5_40*%
X58355175Y-55725002D03*
%TO.P,IC2,41,GND_6_41*%
X59755175Y-55725002D03*
%TO.P,IC2,42,GND_7_42*%
X59755175Y-54325002D03*
%TO.P,IC2,43,GND_8_43*%
X59755175Y-52925002D03*
%TO.P,IC2,44,GND_9_44*%
X58355175Y-52925002D03*
%TO.P,IC2,45,GND_10_45*%
X56955175Y-52925002D03*
%TO.P,IC2,46,GND_11_46*%
X56955175Y-54325002D03*
%TO.P,IC2,47,GND_12_47*%
X56955175Y-55725002D03*
%TD*%
D12*
%TO.P,R37,1*%
%TO.N,/SI*%
X145355175Y-36475002D03*
%TO.P,R37,2*%
%TO.N,/OUT_MOSI*%
X143355175Y-36475002D03*
%TD*%
D66*
%TO.P,Q2,1,G_1*%
%TO.N,Net-(Q2-G)*%
X106537500Y-72250000D03*
%TO.P,Q2,2,S_2*%
%TO.N,GND*%
X106537500Y-70350000D03*
%TO.P,Q2,3,D_3*%
%TO.N,/FAN_VOUT*%
X104662500Y-71300000D03*
%TD*%
D33*
%TO.P,C30,1*%
%TO.N,+3V3*%
X85605175Y-41762502D03*
%TO.P,C30,2*%
%TO.N,GND*%
X85605175Y-39687502D03*
%TD*%
D10*
%TO.P,C34,1*%
%TO.N,+3V3*%
X143267675Y-34325002D03*
%TO.P,C34,2*%
%TO.N,GND*%
X145342675Y-34325002D03*
%TD*%
D45*
%TO.P,U1,1,\u002ARTSA_1*%
%TO.N,unconnected-(U1-\u002ARTSA-Pad1)*%
X85299675Y-25275001D03*
%TO.P,U1,2,\u002ACTSA_2*%
%TO.N,unconnected-(U1-\u002ACTSA-Pad2)*%
X85299675Y-25925002D03*
%TO.P,U1,3,TXA_3*%
%TO.N,/TXA1*%
X85299675Y-26575001D03*
%TO.P,U1,4,RXA_4*%
%TO.N,/RXA1*%
X85299675Y-27225002D03*
%TO.P,U1,5,\u002ARESET_5*%
%TO.N,/ESP_USRST*%
X85299675Y-27875000D03*
%TO.P,U1,6,XTAL1_6*%
%TO.N,/XS1*%
X85299675Y-28525002D03*
%TO.P,U1,7,XTAL2_7*%
%TO.N,GND*%
X85299675Y-29175000D03*
%TO.P,U1,8,VDD_8*%
%TO.N,+3V3*%
X85299675Y-29824999D03*
%TO.P,U1,9,I2C/\u002ASPI_9*%
X85299675Y-30475000D03*
%TO.P,U1,10,\u002ACS/A0_10*%
%TO.N,/D0*%
X85299675Y-31124999D03*
%TO.P,U1,11,SI/A1_11*%
%TO.N,/SI*%
X85299675Y-31775000D03*
%TO.P,U1,12,SO_12*%
%TO.N,/SO*%
X85299675Y-32424999D03*
%TO.P,U1,13,SCL/SCLK_13*%
%TO.N,/SCLK*%
X85299675Y-33075000D03*
%TO.P,U1,14,SDA_14*%
%TO.N,unconnected-(U1-SDA-Pad14)*%
X85299675Y-33724999D03*
%TO.P,U1,15,\u002AIRQ_15*%
%TO.N,/ESP_IRQ*%
X91205175Y-33725001D03*
%TO.P,U1,16,\u002ACTSB_16*%
%TO.N,unconnected-(U1-\u002ACTSB-Pad16)*%
X91205175Y-33075000D03*
%TO.P,U1,17,\u002ARTSB_17*%
%TO.N,unconnected-(U1-\u002ARTSB-Pad17)*%
X91205175Y-32425001D03*
%TO.P,U1,18,GPIO0/\u002ADSRB_18*%
%TO.N,unconnected-(U1-GPIO0{slash}\u002ADSRB-Pad18)*%
X91205175Y-31775000D03*
%TO.P,U1,19,GPIO1/\u002ADTRB_19*%
%TO.N,unconnected-(U1-GPIO1{slash}\u002ADTRB-Pad19)*%
X91205175Y-31125002D03*
%TO.P,U1,20,GPIO2/\u002ACDB_20*%
%TO.N,unconnected-(U1-GPIO2{slash}\u002ACDB-Pad20)*%
X91205175Y-30475000D03*
%TO.P,U1,21,GPIO3/\u002ARIB_21*%
%TO.N,unconnected-(U1-GPIO3{slash}\u002ARIB-Pad21)*%
X91205175Y-29825002D03*
%TO.P,U1,22,VSS_22*%
%TO.N,GND*%
X91205175Y-29175000D03*
%TO.P,U1,23,TXB_23*%
%TO.N,/TXB1*%
X91205175Y-28525002D03*
%TO.P,U1,24,RXB_24*%
%TO.N,/RXB1*%
X91205175Y-27875000D03*
%TO.P,U1,25,GPIO4/\u002ADSRA_25*%
%TO.N,unconnected-(U1-GPIO4{slash}\u002ADSRA-Pad25)*%
X91205175Y-27225002D03*
%TO.P,U1,26,GPIO5/\u002ADTRA_26*%
%TO.N,unconnected-(U1-GPIO5{slash}\u002ADTRA-Pad26)*%
X91205175Y-26575001D03*
%TO.P,U1,27,GPIO6/\u002ACDA_27*%
%TO.N,unconnected-(U1-GPIO6{slash}\u002ACDA-Pad27)*%
X91205175Y-25925002D03*
%TO.P,U1,28,GPIO7/\u002ARIA_28*%
%TO.N,unconnected-(U1-GPIO7{slash}\u002ARIA-Pad28)*%
X91205175Y-25275001D03*
%TD*%
D13*
%TO.P,C20,1*%
%TO.N,/ESP_IO0*%
X46720000Y-29952500D03*
%TO.P,C20,2*%
%TO.N,GND*%
X46720000Y-32027500D03*
%TD*%
D25*
%TO.P,R22,1*%
%TO.N,+3V3*%
X147405175Y-23525002D03*
%TO.P,R22,2*%
%TO.N,Net-(J2-Pad12)*%
X147405175Y-25525002D03*
%TD*%
D19*
%TO.P,5V,1,K_1*%
%TO.N,+5V*%
X60005175Y-86375002D03*
%TO.P,5V,2,A_2*%
%TO.N,Net-(5VDC1-A)*%
X60005175Y-84475002D03*
%TD*%
D33*
%TO.P,C1,1*%
%TO.N,GND*%
X101205175Y-43962502D03*
%TO.P,C1,2*%
%TO.N,+3V3*%
X101205175Y-41887502D03*
%TD*%
D25*
%TO.P,R32,1*%
%TO.N,/D2*%
X118930175Y-59712802D03*
%TO.P,R32,2*%
%TO.N,/Y2*%
X118930175Y-61712802D03*
%TD*%
D12*
%TO.P,R40,1*%
%TO.N,/RXB1D*%
X95205175Y-27225002D03*
%TO.P,R40,2*%
%TO.N,/RXB1*%
X93205175Y-27225002D03*
%TD*%
D26*
%TO.P,TP2,1,1_1*%
%TO.N,+5V*%
X60005175Y-91425002D03*
%TD*%
D45*
%TO.P,U5,1,\u002ARTSA_1*%
%TO.N,unconnected-(U5-\u002ARTSA-Pad1)*%
X103752425Y-47750002D03*
%TO.P,U5,2,\u002ACTSA_2*%
%TO.N,unconnected-(U5-\u002ACTSA-Pad2)*%
X103752425Y-48400003D03*
%TO.P,U5,3,TXA_3*%
%TO.N,/TXA5*%
X103752425Y-49050002D03*
%TO.P,U5,4,RXA_4*%
%TO.N,/RXA5*%
X103752425Y-49700003D03*
%TO.P,U5,5,\u002ARESET_5*%
%TO.N,/ESP_USRST*%
X103752425Y-50350001D03*
%TO.P,U5,6,XTAL1_6*%
%TO.N,/XS5*%
X103752425Y-51000003D03*
%TO.P,U5,7,XTAL2_7*%
%TO.N,GND*%
X103752425Y-51650001D03*
%TO.P,U5,8,VDD_8*%
%TO.N,+3V3*%
X103752425Y-52300000D03*
%TO.P,U5,9,I2C/\u002ASPI_9*%
X103752425Y-52950001D03*
%TO.P,U5,10,\u002ACS/A0_10*%
%TO.N,/D4*%
X103752425Y-53600000D03*
%TO.P,U5,11,SI/A1_11*%
%TO.N,/SI*%
X103752425Y-54250001D03*
%TO.P,U5,12,SO_12*%
%TO.N,/SO*%
X103752425Y-54900000D03*
%TO.P,U5,13,SCL/SCLK_13*%
%TO.N,/SCLK*%
X103752425Y-55550001D03*
%TO.P,U5,14,SDA_14*%
%TO.N,unconnected-(U5-SDA-Pad14)*%
X103752425Y-56200000D03*
%TO.P,U5,15,\u002AIRQ_15*%
%TO.N,/ESP_IRQ*%
X109657925Y-56200002D03*
%TO.P,U5,16,\u002ACTSB_16*%
%TO.N,unconnected-(U5-\u002ACTSB-Pad16)*%
X109657925Y-55550001D03*
%TO.P,U5,17,\u002ARTSB_17*%
%TO.N,unconnected-(U5-\u002ARTSB-Pad17)*%
X109657925Y-54900002D03*
%TO.P,U5,18,GPIO0/\u002ADSRB_18*%
%TO.N,unconnected-(U5-GPIO0{slash}\u002ADSRB-Pad18)*%
X109657925Y-54250001D03*
%TO.P,U5,19,GPIO1/\u002ADTRB_19*%
%TO.N,unconnected-(U5-GPIO1{slash}\u002ADTRB-Pad19)*%
X109657925Y-53600003D03*
%TO.P,U5,20,GPIO2/\u002ACDB_20*%
%TO.N,unconnected-(U5-GPIO2{slash}\u002ACDB-Pad20)*%
X109657925Y-52950001D03*
%TO.P,U5,21,GPIO3/\u002ARIB_21*%
%TO.N,unconnected-(U5-GPIO3{slash}\u002ARIB-Pad21)*%
X109657925Y-52300003D03*
%TO.P,U5,22,VSS_22*%
%TO.N,GND*%
X109657925Y-51650001D03*
%TO.P,U5,23,TXB_23*%
%TO.N,/TXB5*%
X109657925Y-51000003D03*
%TO.P,U5,24,RXB_24*%
%TO.N,/RXB5*%
X109657925Y-50350001D03*
%TO.P,U5,25,GPIO4/\u002ADSRA_25*%
%TO.N,unconnected-(U5-GPIO4{slash}\u002ADSRA-Pad25)*%
X109657925Y-49700003D03*
%TO.P,U5,26,GPIO5/\u002ADTRA_26*%
%TO.N,unconnected-(U5-GPIO5{slash}\u002ADTRA-Pad26)*%
X109657925Y-49050002D03*
%TO.P,U5,27,GPIO6/\u002ACDA_27*%
%TO.N,unconnected-(U5-GPIO6{slash}\u002ACDA-Pad27)*%
X109657925Y-48400003D03*
%TO.P,U5,28,GPIO7/\u002ARIA_28*%
%TO.N,unconnected-(U5-GPIO7{slash}\u002ARIA-Pad28)*%
X109657925Y-47750002D03*
%TD*%
D13*
%TO.P,C39,1*%
%TO.N,GND*%
X63505175Y-70387502D03*
%TO.P,C39,2*%
%TO.N,+5V*%
X63505175Y-72462502D03*
%TD*%
D67*
%TO.P,IC1,1,CLKIN_1*%
%TO.N,/XTAL*%
X99143175Y-44275002D03*
%TO.P,IC1,2,1G_2*%
%TO.N,GND*%
X99143175Y-43625002D03*
%TO.P,IC1,3,Y0_3*%
%TO.N,/XS1T*%
X99143175Y-42975002D03*
%TO.P,IC1,4,GND_1_4*%
%TO.N,GND*%
X99143175Y-42325002D03*
%TO.P,IC1,5,VDD_1_5*%
%TO.N,+3V3*%
X99143175Y-41675002D03*
%TO.P,IC1,6,Y4_6*%
%TO.N,/XS5T*%
X99143175Y-41025002D03*
%TO.P,IC1,7,GND_2_7*%
%TO.N,GND*%
X99143175Y-40375002D03*
%TO.P,IC1,8,VDD_2_8*%
%TO.N,+3V3*%
X93267175Y-40375002D03*
%TO.P,IC1,9,Y5_9*%
%TO.N,/XS6T*%
X93267175Y-41025002D03*
%TO.P,IC1,10,GND_3_10*%
%TO.N,GND*%
X93267175Y-41675002D03*
%TO.P,IC1,11,Y2_11*%
%TO.N,/XS3T*%
X93267175Y-42325002D03*
%TO.P,IC1,12,VDD_3_12*%
%TO.N,+3V3*%
X93267175Y-42975002D03*
%TO.P,IC1,13,Y3_13*%
%TO.N,/XS4T*%
X93267175Y-43625002D03*
%TO.P,IC1,14,Y1_14*%
%TO.N,/XS2T*%
X93267175Y-44275002D03*
%TD*%
D24*
%TO.P,R69,1*%
%TO.N,/12VIN*%
X44800000Y-73400000D03*
%TO.P,R69,2*%
%TO.N,/1IN-*%
X46800000Y-73400000D03*
%TD*%
D10*
%TO.P,C25,1*%
%TO.N,GND*%
X80917675Y-53125002D03*
%TO.P,C25,2*%
%TO.N,+3V3*%
X82992675Y-53125002D03*
%TD*%
D24*
%TO.P,R66,1*%
%TO.N,/RXA6D*%
X118955175Y-50975002D03*
%TO.P,R66,2*%
%TO.N,/RXA6*%
X120955175Y-50975002D03*
%TD*%
D12*
%TO.P,R42,1*%
%TO.N,/RXB3D*%
X133205175Y-27225002D03*
%TO.P,R42,2*%
%TO.N,/RXB3*%
X131205175Y-27225002D03*
%TD*%
D40*
%TO.P,C3,1*%
%TO.N,/ESP_EN*%
X48142675Y-50125002D03*
%TO.P,C3,2*%
%TO.N,GND*%
X46067675Y-50125002D03*
%TD*%
D21*
%TO.P,J5,1,Pin_1_1*%
%TO.N,GND*%
X115475175Y-81425002D03*
D22*
%TO.P,J5,2,Pin_2_2*%
X125475175Y-81425002D03*
%TD*%
D12*
%TO.P,R36,1*%
%TO.N,/ESP_MISO*%
X145355175Y-31125002D03*
%TO.P,R36,2*%
%TO.N,/OUT_MISO*%
X143355175Y-31125002D03*
%TD*%
D68*
%TO.P,IC16,1,FB_1*%
%TO.N,+5V*%
X61305175Y-74475002D03*
%TO.P,IC16,2,EN_2*%
%TO.N,/12VIN*%
X61305175Y-75425002D03*
%TO.P,IC16,3,VIN_3*%
X61305175Y-76375002D03*
%TO.P,IC16,4,GND_4*%
%TO.N,GND*%
X63503175Y-76375002D03*
%TO.P,IC16,5,SW_5*%
%TO.N,/SW*%
X63503175Y-75425002D03*
%TO.P,IC16,6,BST_6*%
%TO.N,/BST*%
X63503175Y-74475002D03*
%TD*%
D69*
%TO.N,GND*%
X58355175Y-52925002D03*
X86705175Y-29475002D03*
X119545175Y-70075002D03*
X148470000Y-66900000D03*
X157455175Y-48675002D03*
X63505175Y-80962502D03*
X56955175Y-54325002D03*
X143555175Y-52425002D03*
X51105175Y-46985002D03*
X145442675Y-38575002D03*
X142305175Y-49275002D03*
X128800000Y-59700000D03*
X134255175Y-55425002D03*
X52000000Y-68900000D03*
X76400000Y-88925002D03*
X98548303Y-33175002D03*
X41105175Y-35625002D03*
X147250000Y-66900000D03*
X89730176Y-29150001D03*
X140705175Y-41425002D03*
X48000000Y-68900000D03*
X126900000Y-30600000D03*
X87905175Y-51125002D03*
X105455175Y-29475002D03*
X149270000Y-68530000D03*
X59755175Y-52925002D03*
X99667675Y-52975000D03*
X58355175Y-55725002D03*
X124480176Y-51950001D03*
X56205176Y-40050001D03*
X156750000Y-86100000D03*
X146500000Y-71900000D03*
X127880174Y-29150001D03*
X46255175Y-56425002D03*
X70505175Y-81925002D03*
X138555175Y-30775002D03*
X58355175Y-54325002D03*
X94705175Y-41725002D03*
X153642675Y-50525002D03*
X61505175Y-70387502D03*
X138505175Y-49075002D03*
X119167675Y-30225002D03*
X177000000Y-76700000D03*
X138067675Y-45325002D03*
X57100000Y-84600000D03*
X149260000Y-65310000D03*
X80917675Y-52975002D03*
X145342675Y-28825002D03*
X116400000Y-26800000D03*
X151040000Y-68540000D03*
X151955175Y-47975002D03*
X108055175Y-51675002D03*
X97505175Y-43425002D03*
X111892675Y-65925002D03*
X138067675Y-43225002D03*
X63505175Y-70387502D03*
X139562500Y-68642677D03*
X138555175Y-28875002D03*
X107795178Y-30984999D03*
X56955175Y-55725002D03*
X56717675Y-32675002D03*
X143855175Y-66925002D03*
X48978000Y-77105000D03*
X161600000Y-66400000D03*
X148200000Y-60300000D03*
X139655175Y-60000002D03*
X59505175Y-36750002D03*
X46255175Y-58425002D03*
X134005175Y-45487502D03*
X147700000Y-73000000D03*
X63600000Y-84600000D03*
X139094729Y-53154687D03*
X165000000Y-69000000D03*
X168400000Y-66400000D03*
X45200175Y-23875002D03*
X154605175Y-48462502D03*
X69700000Y-40000000D03*
X48505175Y-43225002D03*
X120815175Y-70075002D03*
X151040000Y-65320000D03*
X46067675Y-50125002D03*
X127305175Y-51675002D03*
X108305175Y-29175002D03*
X141505175Y-66700002D03*
X158400000Y-60300000D03*
X44480174Y-38965087D03*
X63255175Y-31925002D03*
X146020000Y-66900000D03*
X59755175Y-55725002D03*
X150155175Y-66925002D03*
X85605173Y-39687502D03*
X168200000Y-74300000D03*
X117580174Y-54150001D03*
X124625175Y-70075002D03*
X152800000Y-60300000D03*
X105230176Y-51950001D03*
X46255175Y-60425002D03*
X143755175Y-60012502D03*
X68605175Y-46985002D03*
X89305175Y-51075002D03*
X142755175Y-49775002D03*
X142405175Y-39525002D03*
X138555175Y-36275002D03*
X80805175Y-40125002D03*
X150555175Y-46875002D03*
X63604175Y-76375002D03*
X54140175Y-64745002D03*
X81167675Y-29725002D03*
X144142675Y-45325002D03*
X109880174Y-65887502D03*
X99105175Y-38875002D03*
X56955175Y-52925002D03*
X141705175Y-60000002D03*
X141505175Y-54125002D03*
X70255175Y-38025002D03*
X138555175Y-34375002D03*
X138655175Y-38625002D03*
X62400000Y-31175002D03*
X136650000Y-59700000D03*
X136105175Y-43287502D03*
X97805175Y-51525002D03*
X76505175Y-55300000D03*
X99917675Y-29725002D03*
X107100000Y-69100000D03*
X76700000Y-77600000D03*
X138705175Y-49975002D03*
X164150000Y-86100000D03*
X132700000Y-61100000D03*
X46255175Y-62425002D03*
X71000000Y-77600000D03*
X138655175Y-40525002D03*
X132700000Y-59700000D03*
X48205175Y-66325002D03*
X161455175Y-48675002D03*
X138305175Y-54675002D03*
X150958545Y-51459132D03*
X50350175Y-23875002D03*
X167200000Y-59200000D03*
X45520000Y-34750000D03*
X177005175Y-69425002D03*
X59755175Y-54325002D03*
X67505175Y-36675002D03*
X171705175Y-77825002D03*
X143255175Y-49275002D03*
%TO.N,+3V3*%
X140730175Y-49900002D03*
X86655175Y-44225002D03*
X143367675Y-38575002D03*
X154700000Y-82350000D03*
X83242675Y-29725002D03*
X48205175Y-48012502D03*
X101992675Y-29725002D03*
X143267675Y-28825002D03*
X86831128Y-52925002D03*
X131300000Y-72200000D03*
X134205175Y-47600000D03*
X73355175Y-63475002D03*
X139655175Y-52325002D03*
X77195000Y-90705000D03*
X46005175Y-48012502D03*
X141255175Y-49375002D03*
X140400000Y-70500000D03*
X120992675Y-52975002D03*
X138200000Y-75180000D03*
X85521989Y-41725002D03*
X141700000Y-68700000D03*
X48005175Y-54275002D03*
X143267675Y-34325002D03*
X145155175Y-23525002D03*
X125000000Y-52600000D03*
X142900000Y-75180000D03*
X53200000Y-49200000D03*
X138700000Y-72200000D03*
X101205175Y-41887502D03*
X101780174Y-53250001D03*
X140205175Y-43225002D03*
X148342797Y-51999880D03*
X147005175Y-32625002D03*
X140700000Y-75180000D03*
X140155175Y-49325002D03*
X138505175Y-53725002D03*
X44120000Y-31990000D03*
X145400000Y-75180000D03*
X54000000Y-86375002D03*
X156200000Y-66400000D03*
X121125395Y-30107723D03*
X157455175Y-46184999D03*
%TO.N,/XS3*%
X89305175Y-42325002D03*
X124714795Y-28500003D03*
%TO.N,/12VIN*%
X44800000Y-73400000D03*
X103250000Y-91300000D03*
X51600000Y-73300000D03*
X152400000Y-67800000D03*
X50000000Y-68900000D03*
X144800000Y-77800000D03*
X68500000Y-82600000D03*
X66060000Y-86375002D03*
X69400000Y-70900000D03*
X76850000Y-85450000D03*
%TO.N,/USB_VBUSF*%
X69605173Y-29226474D03*
X69605175Y-33175002D03*
X74405175Y-29255000D03*
%TO.N,/USB_DP*%
X67505175Y-35725002D03*
X71755175Y-27925002D03*
%TO.N,/USB_DN*%
X67505175Y-37625002D03*
X72255175Y-30600000D03*
%TO.N,Net-(3V1-A)*%
X54000000Y-84475002D03*
X57100000Y-86600000D03*
%TO.N,+5V*%
X136500000Y-64625002D03*
X75505175Y-37725002D03*
X67400000Y-72400000D03*
X63505175Y-72462502D03*
X68800000Y-67500000D03*
X66000000Y-72400000D03*
X141505175Y-64625002D03*
X65900000Y-70400000D03*
X61505175Y-72462502D03*
X138700000Y-64625002D03*
X132100000Y-64625002D03*
X60005175Y-86375002D03*
X66900000Y-67500000D03*
X134300000Y-64625002D03*
%TO.N,/FAN_VOUT*%
X104662500Y-71300000D03*
X107550000Y-91300000D03*
%TO.N,/RXA3D*%
X166700000Y-53200000D03*
X119205175Y-28225002D03*
X164500000Y-55400000D03*
%TO.N,/D4*%
X105100000Y-54800000D03*
X120630175Y-56800001D03*
%TO.N,Net-(Q2-G)*%
X132700000Y-68500000D03*
X106537500Y-72250000D03*
%TO.N,/TXB6D*%
X80200000Y-64700000D03*
X131605175Y-54725002D03*
%TO.N,/XTAL*%
X80755175Y-41750002D03*
X95805175Y-44725002D03*
%TO.N,/RXA4D*%
X80955175Y-50675002D03*
%TO.N,/TXA4D*%
X80955175Y-48975002D03*
%TO.N,/RXB6D*%
X132955175Y-49475002D03*
X105700000Y-59700000D03*
X91500000Y-62200000D03*
X107802588Y-57502588D03*
%TO.N,/RXA5D*%
X99705175Y-50975002D03*
X147205175Y-60925002D03*
X97505175Y-54100000D03*
X158005175Y-56525002D03*
%TO.N,/IO12*%
X51105175Y-63495002D03*
X48205175Y-64325002D03*
%TO.N,/TXB1D*%
X95205175Y-29075002D03*
X91105175Y-23425002D03*
%TO.N,/RTS*%
X54300000Y-29500000D03*
X64455175Y-28400000D03*
%TO.N,/SO*%
X138555175Y-29825002D03*
X106603459Y-32726716D03*
X148305175Y-39825002D03*
X127105175Y-31808932D03*
X131705175Y-31125002D03*
X124905181Y-54274996D03*
X87205178Y-32375002D03*
X125155181Y-31824996D03*
X140795178Y-27184999D03*
%TO.N,/ESP_A0*%
X53245175Y-58415002D03*
X115735175Y-70075002D03*
%TO.N,/SCLK*%
X86721346Y-33073866D03*
X105445176Y-33055001D03*
X86505178Y-55474999D03*
X119250824Y-54827390D03*
X127005175Y-55425002D03*
X145405175Y-40775002D03*
X124705178Y-32974999D03*
X144005175Y-49925002D03*
X105355175Y-56425002D03*
X128355175Y-36275002D03*
%TO.N,/ESP_SCLK*%
X90429437Y-38600740D03*
X128800000Y-44900000D03*
X68605175Y-57145002D03*
X74300000Y-52800000D03*
X74205175Y-40925002D03*
X113140087Y-62759913D03*
X87205175Y-37725002D03*
X166000000Y-82300000D03*
X78005175Y-59825002D03*
%TO.N,/1IN+*%
X45400000Y-85900000D03*
X67600000Y-70900000D03*
X46500000Y-79200000D03*
X48978000Y-75835000D03*
%TO.N,/TXA1D*%
X81205175Y-25725002D03*
%TO.N,/RXA1D*%
X81205175Y-27725002D03*
%TO.N,/TXA2D*%
X99955175Y-25725002D03*
X166000000Y-55400000D03*
X168200000Y-53200000D03*
%TO.N,/RXA2D*%
X112705175Y-24225002D03*
X99955175Y-27725002D03*
%TO.N,/TXA3D*%
X119205175Y-26225002D03*
%TO.N,/TXA5D*%
X145100000Y-56700000D03*
X136816465Y-56683535D03*
%TO.N,/TXA6D*%
X160700000Y-38000000D03*
X132539077Y-39512393D03*
X118955175Y-48975002D03*
%TO.N,/RXA6D*%
X133500000Y-39400000D03*
X149405175Y-30725002D03*
X131955175Y-35875002D03*
X118955175Y-50975002D03*
%TO.N,/ESP_A2*%
X118275175Y-70075002D03*
X53255175Y-55925002D03*
%TO.N,/USB_VBUS*%
X75505175Y-33425002D03*
X72905175Y-33175002D03*
X65005175Y-36675002D03*
%TO.N,/XS4*%
X86480176Y-50700001D03*
X89305175Y-44325002D03*
%TO.N,/ESP_IRQ*%
X118355175Y-57075002D03*
X93500000Y-54100000D03*
X154780174Y-53350001D03*
X158600000Y-82400000D03*
X104800000Y-38900000D03*
X135405175Y-34125002D03*
X132205175Y-33700002D03*
X112005175Y-34625002D03*
X131455175Y-47775002D03*
X111605175Y-56825002D03*
X135620555Y-47109622D03*
X145605175Y-46925002D03*
X94505175Y-57425002D03*
X67100000Y-60900000D03*
X79105175Y-54725002D03*
X148355175Y-46275002D03*
X127605175Y-48238861D03*
X85205175Y-57825002D03*
X168573971Y-68226029D03*
%TO.N,/2IN+*%
X56500000Y-77300000D03*
X100600000Y-73600000D03*
X64000000Y-73600000D03*
X152400000Y-66000000D03*
X120700000Y-74800000D03*
%TO.N,/2OUT*%
X54400000Y-79100000D03*
X54400000Y-74565000D03*
X52400000Y-79200000D03*
X56600000Y-71350000D03*
%TO.N,/XS1*%
X97505175Y-34025002D03*
X86705175Y-28225002D03*
X105205175Y-43025002D03*
%TO.N,/TXB5D*%
X60805175Y-62225002D03*
X98100000Y-62225002D03*
X114105175Y-56925002D03*
%TO.N,/ESP_E3*%
X122085175Y-70075002D03*
X53255175Y-57175002D03*
%TO.N,/WTXP*%
X160505175Y-48675002D03*
X145755175Y-47773531D03*
X135755175Y-48175002D03*
%TO.N,/WTXN*%
X162405175Y-48675002D03*
X135467991Y-48921681D03*
%TO.N,/TXN*%
X162405175Y-46175002D03*
%TO.N,/TXP*%
X160505175Y-46175002D03*
%TO.N,/ESP_A1*%
X53245175Y-59685002D03*
X117005175Y-70075002D03*
%TO.N,/ESP_USRST*%
X86605175Y-49325002D03*
X65600000Y-53200000D03*
X51105175Y-53335002D03*
X105303075Y-49300003D03*
X128117275Y-46478026D03*
X84100000Y-45500000D03*
X73600000Y-53200000D03*
%TO.N,/XS6*%
X124477503Y-50634721D03*
X89305175Y-40325002D03*
%TO.N,/D5*%
X125680175Y-59712802D03*
X126455175Y-53875002D03*
%TO.N,/SI*%
X101580174Y-33050001D03*
X83305172Y-32325005D03*
X83055175Y-54775002D03*
X101805175Y-54775002D03*
X150480174Y-38750001D03*
X145355175Y-36475002D03*
X153000000Y-36200000D03*
X120997117Y-54550001D03*
X121255175Y-32375002D03*
%TO.N,/CD_DP*%
X60255175Y-30925002D03*
X65005175Y-35725002D03*
%TO.N,/CD_DN*%
X65005175Y-37625002D03*
X60005175Y-31925002D03*
%TO.N,/1V20*%
X143805175Y-57906252D03*
X155000000Y-72500000D03*
%TO.N,/WRXP*%
X156505175Y-48675002D03*
X134505175Y-49925002D03*
%TO.N,/WRXN*%
X158405175Y-48675002D03*
X135243175Y-51425002D03*
%TO.N,/LINKLED*%
X147236175Y-54425002D03*
%TO.N,/ACTLED*%
X147255175Y-53425002D03*
%TO.N,/ESP_SCSN*%
X76623435Y-58425002D03*
X74300000Y-55000000D03*
X143505175Y-50925002D03*
X70200000Y-58425002D03*
%TO.N,/RSTB*%
X62005175Y-37675002D03*
X63564795Y-34865382D03*
%TO.N,/ESP_RX0*%
X68605175Y-52065002D03*
X63465822Y-27534179D03*
%TO.N,/ESP_TX0*%
X63022831Y-28770494D03*
X68605175Y-50795002D03*
%TO.N,/XS2*%
X97255175Y-35475002D03*
X95205175Y-46225002D03*
X105455175Y-28225002D03*
%TO.N,/TXB4D*%
X94955175Y-51725002D03*
%TO.N,/RXN*%
X158405175Y-46175002D03*
%TO.N,/RXP*%
X156505175Y-46175002D03*
%TO.N,/TXB3D*%
X133205175Y-29225002D03*
%TO.N,/RXB1D*%
X95205175Y-27225002D03*
%TO.N,/TXB2D*%
X113955175Y-28675002D03*
%TO.N,/RXB2D*%
X113955175Y-27225002D03*
%TO.N,/RXB3D*%
X133205175Y-27225002D03*
%TO.N,/RXB4D*%
X94933520Y-49852417D03*
%TO.N,/RXB5D*%
X69100000Y-64807461D03*
X113705175Y-49725002D03*
X59100000Y-67225002D03*
X78005175Y-56025002D03*
%TO.N,Net-(5VDC1-A)*%
X63600000Y-86600000D03*
X60005175Y-84475002D03*
%TO.N,/D3*%
X87744051Y-53625002D03*
X121180175Y-59712802D03*
%TO.N,/XS5*%
X105230176Y-50700001D03*
X101205175Y-38125002D03*
%TO.N,/D2*%
X118930175Y-59712802D03*
X125802173Y-31354459D03*
%TO.N,/ESP_MOSI*%
X138555175Y-35325002D03*
X68605175Y-48255002D03*
%TO.N,/ESP_MISO*%
X73305175Y-42325002D03*
X68605175Y-55875002D03*
X145355175Y-31125002D03*
%TD*%
%TO.N,GND*%
D70*
X127330176Y-51650001D02*
X127305175Y-51675002D01*
X70500000Y-40000000D02*
X69700000Y-40000000D01*
X68805175Y-29105002D02*
X68260175Y-29105002D01*
X85002425Y-51650001D02*
X87380176Y-51650001D01*
X143555175Y-52425002D02*
X145493175Y-52425002D01*
D71*
X61505175Y-80962502D02*
X63505175Y-80962502D01*
D70*
X70505175Y-81925002D02*
X70505175Y-83594825D01*
D72*
X106537500Y-69662500D02*
X107100000Y-69100000D01*
D70*
X102297574Y-52200002D02*
X100442673Y-52200002D01*
X91307925Y-29150001D02*
X89730176Y-29150001D01*
X99143175Y-43625002D02*
X100867675Y-43625002D01*
X46720000Y-33550000D02*
X46720000Y-32027500D01*
X138505175Y-49775002D02*
X138705175Y-49975002D01*
X139005175Y-55025002D02*
X139005175Y-55913002D01*
D72*
X149210000Y-65310000D02*
X148700000Y-64800000D01*
D70*
X142005175Y-48975002D02*
X142305175Y-49275002D01*
X129157925Y-29150001D02*
X127880174Y-29150001D01*
X140005175Y-55913002D02*
X140005175Y-54065133D01*
X89880174Y-51650001D02*
X89305175Y-51075002D01*
X142505175Y-47437002D02*
X142505175Y-49075002D01*
X145342675Y-34325002D02*
X144455175Y-35212502D01*
D72*
X151080000Y-65320000D02*
X151600000Y-64800000D01*
D70*
X126700000Y-30600000D02*
X126900000Y-30600000D01*
X103777426Y-51625000D02*
X104905175Y-51625000D01*
X104002425Y-29150001D02*
X105130174Y-29150001D01*
X75350000Y-53100000D02*
X75350000Y-54300000D01*
X149642675Y-56025002D02*
X149642675Y-52775002D01*
X90907925Y-51650001D02*
X89880174Y-51650001D01*
X151040000Y-65320000D02*
X151080000Y-65320000D01*
X76505175Y-55594825D02*
X76300000Y-55800000D01*
X138655175Y-49925002D02*
X138705175Y-49975002D01*
X75750175Y-29105002D02*
X76325175Y-28530002D01*
X123252425Y-29150001D02*
X125250001Y-29150001D01*
X124155175Y-51625000D02*
X124480176Y-51950001D01*
X85299675Y-29175000D02*
X86405173Y-29175000D01*
X152875177Y-42800000D02*
X153350175Y-42325002D01*
X138505175Y-49075002D02*
X138505175Y-49775002D01*
X45400000Y-87900000D02*
X41430000Y-87900000D01*
X143505175Y-49025002D02*
X143255175Y-49275002D01*
X99143175Y-43625002D02*
X97705175Y-43625002D01*
X94705175Y-41725002D02*
X93317175Y-41725002D01*
X102847575Y-51650001D02*
X102297574Y-52200002D01*
X98205675Y-42325002D02*
X97505175Y-43025502D01*
D73*
X128800000Y-59700000D02*
X132700000Y-59700000D01*
X146020000Y-66900000D02*
X147250000Y-66900000D01*
D70*
X138505175Y-47437002D02*
X138505175Y-49075002D01*
X105130174Y-29150001D02*
X105455175Y-29475002D01*
X76505175Y-55300000D02*
X76505175Y-55594825D01*
X143005175Y-47437002D02*
X143005175Y-49025002D01*
X104905175Y-51625000D02*
X105230176Y-51950001D01*
X140005175Y-54065133D02*
X139094729Y-53154687D01*
X103752425Y-51650001D02*
X102847575Y-51650001D01*
X144455175Y-35212502D02*
X144455175Y-37159746D01*
X49252675Y-46985002D02*
X48205175Y-45937502D01*
D71*
X76400000Y-88925002D02*
X74005175Y-88925002D01*
D70*
X99105175Y-38875002D02*
X99105175Y-40337002D01*
X100442673Y-52200002D02*
X99667675Y-52975000D01*
X118155173Y-52975002D02*
X118917675Y-52975002D01*
X47742673Y-45887502D02*
X45955175Y-45887502D01*
X61305175Y-31175002D02*
X62400000Y-31175002D01*
X138655175Y-54675002D02*
X139005175Y-55025002D01*
X109657925Y-51650001D02*
X108080176Y-51650001D01*
D73*
X143855175Y-66925002D02*
X143880177Y-66900000D01*
D70*
X49400000Y-87900000D02*
X45400000Y-87900000D01*
D73*
X132750000Y-59700000D02*
X136650000Y-59700000D01*
D70*
X128907925Y-51650001D02*
X127330176Y-51650001D01*
X99143175Y-42325002D02*
X98205675Y-42325002D01*
X75505175Y-54300000D02*
X76505175Y-55300000D01*
X70505175Y-83594825D02*
X69600000Y-84500000D01*
X117580174Y-53550001D02*
X118155173Y-52975002D01*
D72*
X106537500Y-70350000D02*
X106537500Y-69662500D01*
D70*
X68260175Y-29105002D02*
X67685175Y-28530002D01*
D73*
X144910000Y-66900000D02*
X146020000Y-66900000D01*
D70*
X75350000Y-54300000D02*
X75505175Y-54300000D01*
X108080176Y-51650001D02*
X108055175Y-51675002D01*
X149642675Y-52775002D02*
X150958545Y-51459132D01*
X86405173Y-29175000D02*
X86705175Y-29475002D01*
X85002425Y-51650001D02*
X83864920Y-51650001D01*
X83864920Y-51650001D02*
X83414919Y-52100002D01*
X142505175Y-49075002D02*
X142305175Y-49275002D01*
X108305175Y-29175002D02*
X109882924Y-29175002D01*
X97505175Y-43025502D02*
X97505175Y-43425002D01*
X134005176Y-44524999D02*
X135242673Y-43287502D01*
X142305175Y-49325002D02*
X142305175Y-49275002D01*
X41430000Y-87900000D02*
X37990000Y-91340000D01*
X144455175Y-37159746D02*
X145442675Y-38147246D01*
X138305175Y-54675002D02*
X138655175Y-54675002D01*
X125250001Y-29150001D02*
X126700000Y-30600000D01*
D72*
X149270000Y-68530000D02*
X148600000Y-69200000D01*
D70*
X76300000Y-55800000D02*
X76300000Y-56600000D01*
D73*
X148470000Y-66900000D02*
X150130173Y-66900000D01*
X143880177Y-66900000D02*
X144910000Y-66900000D01*
D70*
X97705175Y-43625002D02*
X97505175Y-43425002D01*
X56600000Y-75337500D02*
X55457500Y-76480000D01*
X45520000Y-34750000D02*
X46720000Y-33550000D01*
X72474998Y-38025002D02*
X70500000Y-40000000D01*
X138865044Y-52925002D02*
X139094729Y-53154687D01*
X123027426Y-51625000D02*
X124155175Y-51625000D01*
X142755175Y-49775002D02*
X142305175Y-49325002D01*
X134005175Y-45487502D02*
X134005176Y-44524999D01*
X87380176Y-51650001D02*
X87905175Y-51125002D01*
X117580174Y-54150001D02*
X117580174Y-53550001D01*
X143005175Y-49025002D02*
X143255175Y-49275002D01*
X149260000Y-65310000D02*
X149210000Y-65310000D01*
X142755175Y-49775002D02*
X143255175Y-49275002D01*
X75205175Y-29105002D02*
X75750175Y-29105002D01*
X144142675Y-43225002D02*
X144142675Y-45325002D01*
X142005175Y-47437002D02*
X142005175Y-48975002D01*
X135242673Y-43287502D02*
X136105175Y-43287502D01*
X137017175Y-52925002D02*
X138865044Y-52925002D01*
X148000000Y-42800000D02*
X152875177Y-42800000D01*
X51105175Y-46985002D02*
X49252675Y-46985002D01*
X143505175Y-47437002D02*
X143505175Y-49025002D01*
X81792675Y-52100002D02*
X80917675Y-52975002D01*
X141505175Y-54125002D02*
X141505175Y-55913002D01*
X49603000Y-76480000D02*
X48978000Y-77105000D01*
X137017175Y-49925002D02*
X138655175Y-49925002D01*
X83414919Y-52100002D02*
X81792675Y-52100002D01*
X55457500Y-76480000D02*
X49603000Y-76480000D01*
D73*
X147250000Y-66900000D02*
X148470000Y-66900000D01*
D72*
X151040000Y-68540000D02*
X151600000Y-69100000D01*
%TO.N,+3V3*%
D70*
X142505175Y-53975002D02*
X142505175Y-55913002D01*
X139655175Y-51773531D02*
X139655175Y-50975002D01*
D71*
X156200000Y-66400000D02*
X156200000Y-67005785D01*
D70*
X140505175Y-53875002D02*
X140505175Y-55913002D01*
X141255175Y-49375002D02*
X141505175Y-49125002D01*
X134205175Y-47262502D02*
X136105175Y-45362502D01*
X84549677Y-29725002D02*
X85299675Y-30475000D01*
X140730175Y-49900002D02*
X140205175Y-49375002D01*
X155550000Y-81500000D02*
X154700000Y-82350000D01*
D71*
X109880174Y-67962502D02*
X109880174Y-68880174D01*
X123050000Y-89600000D02*
X137470000Y-75180000D01*
D70*
X97055175Y-40375002D02*
X98355175Y-41675002D01*
D71*
X78300000Y-89600000D02*
X123050000Y-89600000D01*
D70*
X141205175Y-53175002D02*
X140855175Y-53525002D01*
X146418175Y-54875502D02*
X143405675Y-54875502D01*
X86806129Y-52950001D02*
X86831128Y-52925002D01*
X101992675Y-29725002D02*
X103277426Y-29725002D01*
X139655175Y-50975002D02*
X140730175Y-49900002D01*
X140005175Y-49175002D02*
X140155175Y-49325002D01*
X140855175Y-53525002D02*
X140505175Y-53875002D01*
X138456646Y-52325002D02*
X139655175Y-52325002D01*
X162000000Y-82350000D02*
X161150000Y-81500000D01*
X157455175Y-46184999D02*
X157455175Y-43300002D01*
X83242675Y-29725002D02*
X85199678Y-29725002D01*
X44120000Y-31990000D02*
X45110000Y-31000000D01*
X45110000Y-31000000D02*
X48330000Y-31000000D01*
X139180175Y-44250002D02*
X137217675Y-44250002D01*
X121467673Y-30450001D02*
X123252425Y-30450001D01*
D71*
X141637500Y-69262500D02*
X141637500Y-68700000D01*
X148025785Y-75180000D02*
X142900000Y-75180000D01*
D72*
X79525002Y-67825002D02*
X75175002Y-63475002D01*
D70*
X143405675Y-54875502D02*
X142055175Y-53525002D01*
X101992675Y-29725002D02*
X103927427Y-29725002D01*
X140205175Y-43225002D02*
X142067675Y-43225002D01*
X140155175Y-49325002D02*
X140205175Y-49375002D01*
X141005175Y-47437002D02*
X141005175Y-49125002D01*
X103077423Y-52975002D02*
X103752425Y-52300000D01*
X145493175Y-52925002D02*
X144505675Y-52925002D01*
D71*
X142225002Y-69225002D02*
X141700000Y-68700000D01*
D70*
X103277426Y-29725002D02*
X104002425Y-30450001D01*
D71*
X140700000Y-75180000D02*
X138200000Y-75180000D01*
D72*
X109742674Y-67825002D02*
X79525002Y-67825002D01*
X115160775Y-65925002D02*
X115735175Y-65350602D01*
D70*
X121433118Y-29800000D02*
X123252425Y-29800000D01*
D71*
X131300000Y-72200000D02*
X138700000Y-72200000D01*
D70*
X73405175Y-61425002D02*
X74542675Y-61425002D01*
X48330000Y-31000000D02*
X49320000Y-31990000D01*
D71*
X113200000Y-72200000D02*
X109880174Y-68880174D01*
D70*
X96930675Y-42975002D02*
X98230675Y-41675002D01*
X138505175Y-53725002D02*
X138705175Y-53725002D01*
X85496989Y-41750002D02*
X82855175Y-41750002D01*
X158430175Y-42325002D02*
X161455175Y-45350002D01*
X137017175Y-53925002D02*
X138305175Y-53925002D01*
D71*
X138700000Y-72200000D02*
X140400000Y-70500000D01*
D70*
X85199678Y-29725002D02*
X85299675Y-29824999D01*
D71*
X156200000Y-67005785D02*
X148025785Y-75180000D01*
D70*
X139655175Y-52325002D02*
X140855175Y-53525002D01*
X140205175Y-49375002D02*
X140505175Y-49075002D01*
X138705175Y-53725002D02*
X139505175Y-54525002D01*
X141505175Y-49125002D02*
X141505175Y-47437002D01*
X82855175Y-40100002D02*
X82855175Y-41750002D01*
X122327423Y-52975002D02*
X123002425Y-52300000D01*
X142055175Y-53525002D02*
X142505175Y-53975002D01*
X102080174Y-52950001D02*
X103752425Y-52950001D01*
D71*
X140400000Y-70500000D02*
X141637500Y-69262500D01*
D70*
X142055175Y-53525002D02*
X141705175Y-53175002D01*
X157150175Y-41045002D02*
X158430175Y-42325002D01*
X147405175Y-23525002D02*
X145155175Y-23525002D01*
D72*
X111930175Y-67962502D02*
X113967675Y-65925002D01*
D70*
X147567675Y-56025002D02*
X146418175Y-54875502D01*
X161455175Y-45350002D02*
X161455175Y-46175002D01*
D72*
X113967675Y-65925002D02*
X115160775Y-65925002D01*
X109880174Y-67962502D02*
X111930175Y-67962502D01*
X48205175Y-48012502D02*
X46005175Y-48012502D01*
D70*
X85002425Y-52950001D02*
X86806129Y-52950001D01*
X139505175Y-54525002D02*
X139505175Y-55913002D01*
X161150000Y-81500000D02*
X155550000Y-81500000D01*
X147831768Y-51999880D02*
X146906646Y-52925002D01*
X99143175Y-41675002D02*
X100992675Y-41675002D01*
X138305175Y-53925002D02*
X138505175Y-53725002D01*
X143267675Y-34325002D02*
X141105175Y-34325002D01*
X98355175Y-41675002D02*
X99143175Y-41675002D01*
D72*
X48205175Y-48012502D02*
X50862675Y-48012502D01*
D70*
X137217675Y-44250002D02*
X136105175Y-45362502D01*
X138356646Y-52425002D02*
X138456646Y-52325002D01*
D71*
X77195000Y-90705000D02*
X78300000Y-89600000D01*
D70*
X83242675Y-29725002D02*
X84549677Y-29725002D01*
X157455175Y-43300002D02*
X158430175Y-42325002D01*
D72*
X54000000Y-86375002D02*
X54000000Y-91425002D01*
D70*
X82992675Y-52975002D02*
X84977424Y-52975002D01*
X140005175Y-47437002D02*
X140005175Y-49175002D01*
X141005175Y-49125002D02*
X141255175Y-49375002D01*
X141255175Y-49375002D02*
X140730175Y-49900002D01*
X98230675Y-41675002D02*
X99143175Y-41675002D01*
X73255175Y-61425002D02*
X73255175Y-63375002D01*
X146906646Y-52925002D02*
X145493175Y-52925002D01*
X139655175Y-51773531D02*
X139655175Y-52325002D01*
D71*
X143855175Y-69225002D02*
X142225002Y-69225002D01*
D72*
X75175002Y-63475002D02*
X73355175Y-63475002D01*
D71*
X140700000Y-75180000D02*
X142900000Y-75180000D01*
D70*
X93267175Y-42975002D02*
X96930675Y-42975002D01*
X137017175Y-50425002D02*
X138306646Y-50425002D01*
X143367675Y-38575002D02*
X141205175Y-38575002D01*
X144505675Y-52925002D02*
X143455675Y-53975002D01*
D71*
X137470000Y-75180000D02*
X138200000Y-75180000D01*
D70*
X143455675Y-53975002D02*
X142505175Y-53975002D01*
X74542675Y-61425002D02*
X82992675Y-52975002D01*
X138306646Y-50425002D02*
X139655175Y-51773531D01*
X85521989Y-43091816D02*
X86655175Y-44225002D01*
X120992675Y-52975002D02*
X122977424Y-52975002D01*
D71*
X131300000Y-72200000D02*
X113200000Y-72200000D01*
D70*
X85521989Y-41725002D02*
X85521989Y-43091816D01*
X140205175Y-43225002D02*
X139180175Y-44250002D01*
X85002425Y-52950001D02*
X85002425Y-52300000D01*
X157150175Y-39785002D02*
X157150175Y-41045002D01*
X137017175Y-52425002D02*
X138356646Y-52425002D01*
X142067675Y-45325002D02*
X142067675Y-43225002D01*
X93267175Y-40375002D02*
X97055175Y-40375002D01*
X143267675Y-28825002D02*
X141105175Y-28825002D01*
X141705175Y-53175002D02*
X141205175Y-53175002D01*
X140505175Y-49075002D02*
X140505175Y-47437002D01*
X140142675Y-45325002D02*
X140142675Y-43225002D01*
%TO.N,/XS3T*%
X91305175Y-42325002D02*
X93267175Y-42325002D01*
%TO.N,/XS3*%
X124714795Y-28500003D02*
X123252425Y-28500003D01*
%TO.N,/12VIN*%
D71*
X68500000Y-82600000D02*
X68505175Y-82594825D01*
X66000000Y-86435002D02*
X66000000Y-91205002D01*
X68505175Y-82594825D02*
X68505175Y-79425002D01*
X68505175Y-79425002D02*
X67967675Y-78887502D01*
X76325002Y-84925002D02*
X76850000Y-85450000D01*
X66060000Y-86375002D02*
X66000000Y-86435002D01*
X74005175Y-84925002D02*
X76325002Y-84925002D01*
D72*
X61305175Y-75425002D02*
X61305175Y-76375002D01*
%TO.N,/DTR*%
D70*
X60505175Y-27425002D02*
X62505175Y-29425002D01*
X58205175Y-27625002D02*
X60305175Y-27625002D01*
X62505175Y-29425002D02*
X62505175Y-29975002D01*
%TO.N,Net-(IC10-B)*%
X62555175Y-27475002D02*
X60505175Y-25425002D01*
%TO.N,/CC1*%
X72195175Y-31604825D02*
X72195175Y-35715002D01*
X73255175Y-30544825D02*
X72195175Y-31604825D01*
X73255175Y-29105002D02*
X73255175Y-30544825D01*
%TO.N,/USB_DP*%
X72255175Y-28425002D02*
X71755175Y-27925002D01*
X71755175Y-27925002D02*
X71255175Y-28425002D01*
X72255175Y-29105002D02*
X72255175Y-28425002D01*
X71255175Y-28425002D02*
X71255175Y-29105002D01*
%TO.N,/USB_DN*%
X72255175Y-30425002D02*
X72755175Y-29925002D01*
X72255175Y-30600000D02*
X72255175Y-30425002D01*
X72255175Y-30425002D02*
X71755175Y-29925002D01*
X72755175Y-29925002D02*
X72755175Y-29105002D01*
X71755175Y-29925002D02*
X71755175Y-29105002D01*
%TO.N,/CC2*%
X70315175Y-35965002D02*
X70315175Y-29772412D01*
X70315175Y-29772412D02*
X70255175Y-29712412D01*
%TO.N,/SW*%
X65755175Y-76575002D02*
X69474998Y-76575002D01*
X64467675Y-75425002D02*
X65505175Y-76462502D01*
X63503175Y-75425002D02*
X64467675Y-75425002D01*
%TO.N,+5V*%
X61505175Y-72794825D02*
X61305175Y-72994825D01*
D74*
X60005175Y-86375002D02*
X60005175Y-91425002D01*
D72*
X61305175Y-72994825D02*
X61305175Y-74475002D01*
%TO.N,Net-(J4-Pin_1)*%
D70*
X79299998Y-73100002D02*
X79300000Y-73100000D01*
D75*
X74005175Y-73100002D02*
X79299998Y-73100002D01*
%TO.N,/RXA3D*%
D70*
X164500000Y-55400000D02*
X166700000Y-53200000D01*
%TO.N,/RXA3*%
X121205175Y-28225002D02*
X122230174Y-27200003D01*
X122230174Y-27200003D02*
X123252425Y-27200003D01*
%TO.N,/D4*%
X120630175Y-56800001D02*
X123430175Y-59600002D01*
X104880173Y-53600000D02*
X103752425Y-53600000D01*
X105100000Y-53819827D02*
X104880173Y-53600000D01*
X105100000Y-54800000D02*
X105100000Y-53819827D01*
%TO.N,/Y4*%
X122085175Y-63057802D02*
X122085175Y-65350602D01*
X123430175Y-61712802D02*
X122085175Y-63057802D01*
%TO.N,Net-(D3-K)*%
X54000000Y-68900000D02*
X52725002Y-67625002D01*
X54000000Y-68900000D02*
X55750000Y-68900000D01*
X46135998Y-67625002D02*
X45411000Y-68350000D01*
X55750000Y-68900000D02*
X56600000Y-68050000D01*
X52725002Y-67625002D02*
X46135998Y-67625002D01*
%TO.N,Net-(Q2-G)*%
X103740552Y-69000000D02*
X79400000Y-69000000D01*
X76700000Y-66300000D02*
X63200000Y-66300000D01*
X79400000Y-69000000D02*
X76700000Y-66300000D01*
X55215686Y-70000000D02*
X54315686Y-70900000D01*
X63200000Y-66300000D02*
X59500000Y-70000000D01*
X106537500Y-72250000D02*
X106537500Y-71796948D01*
X59500000Y-70000000D02*
X55215686Y-70000000D01*
X52000000Y-70900000D02*
X54000000Y-70900000D01*
X106537500Y-71796948D02*
X103740552Y-69000000D01*
%TO.N,/TXB6D*%
X132955175Y-51475002D02*
X132955175Y-53375002D01*
X132955175Y-53375002D02*
X131605175Y-54725002D01*
%TO.N,/TXB6*%
X128907925Y-51000003D02*
X130480176Y-51000003D01*
%TO.N,/XTAL*%
X95805175Y-44725002D02*
X98693175Y-44725002D01*
X98693175Y-44725002D02*
X99143175Y-44275002D01*
%TO.N,/1OUT*%
X47061000Y-70000000D02*
X45411000Y-71650000D01*
X48978000Y-71922000D02*
X50000000Y-70900000D01*
X48978000Y-73295000D02*
X48978000Y-71922000D01*
X44450000Y-71650000D02*
X43500000Y-72600000D01*
X43500000Y-77884744D02*
X45815256Y-80200000D01*
X45815256Y-80200000D02*
X47500000Y-80200000D01*
X49100000Y-70000000D02*
X47061000Y-70000000D01*
X43500000Y-72600000D02*
X43500000Y-77884744D01*
X47500000Y-80200000D02*
X48500000Y-79200000D01*
X50000000Y-70900000D02*
X49100000Y-70000000D01*
X45411000Y-71650000D02*
X44450000Y-71650000D01*
%TO.N,/ESP_IO0*%
X67395002Y-63495002D02*
X68075175Y-63495002D01*
X71355175Y-63475002D02*
X68625175Y-63475002D01*
X66400000Y-62500000D02*
X67395002Y-63495002D01*
X66400000Y-47020000D02*
X66400000Y-62500000D01*
X49370000Y-29990000D02*
X66400000Y-47020000D01*
%TO.N,/RXA4*%
X84230174Y-49700003D02*
X85002425Y-49700003D01*
X82955175Y-50975002D02*
X84230174Y-49700003D01*
%TO.N,/TXA4*%
X82955175Y-48975002D02*
X84927425Y-48975002D01*
%TO.N,/RXB6D*%
X107705175Y-57694825D02*
X105700000Y-59700000D01*
X107802588Y-57502588D02*
X107705175Y-57600001D01*
X107705175Y-57600001D02*
X107705175Y-57694825D01*
%TO.N,/RXB6*%
X128907925Y-50350001D02*
X130080176Y-50350001D01*
X130080176Y-50350001D02*
X130955175Y-49475002D01*
%TO.N,/RXA5*%
X102980174Y-49700003D02*
X103752425Y-49700003D01*
X101705175Y-50975002D02*
X102980174Y-49700003D01*
%TO.N,Net-(J2-Pad9)*%
X160440174Y-24550001D02*
X146130176Y-24550001D01*
X146130176Y-24550001D02*
X145155175Y-25525002D01*
X164415175Y-28525002D02*
X160440174Y-24550001D01*
%TO.N,/VBG*%
X141005175Y-55913002D02*
X141005175Y-56925002D01*
X141005175Y-56925002D02*
X140005175Y-57925002D01*
%TO.N,Net-(STATUS1-A)*%
X71700000Y-56550000D02*
X74250000Y-56550000D01*
%TO.N,/TXB1*%
X92505175Y-28525002D02*
X93205175Y-29225002D01*
X91205175Y-28525002D02*
X92505175Y-28525002D01*
%TO.N,Net-(IC3-B)*%
X166050000Y-86100000D02*
X166050000Y-84350000D01*
%TO.N,/SCLK_STAT*%
X162000000Y-88500000D02*
X165100000Y-88500000D01*
%TO.N,/RTS*%
X54255175Y-29455175D02*
X54255175Y-27425002D01*
X64455175Y-28400000D02*
X64455175Y-29925002D01*
X64455175Y-27600000D02*
X64455175Y-28400000D01*
X54300000Y-29500000D02*
X54255175Y-29455175D01*
%TO.N,Net-(IC11-B)*%
X56305175Y-27975002D02*
X54255175Y-25925002D01*
%TO.N,Net-(Q1-G)*%
D71*
X72955175Y-79975002D02*
X70555175Y-79975002D01*
%TO.N,/SO*%
D70*
X139895178Y-28084999D02*
X139895178Y-29284999D01*
X146480675Y-49925002D02*
X146705175Y-49700502D01*
X148000000Y-44800000D02*
X146705175Y-46094825D01*
X87205178Y-32375002D02*
X88080174Y-33249998D01*
X139895178Y-29284999D02*
X139355175Y-29825002D01*
X104010681Y-32374999D02*
X106251742Y-32374999D01*
X124355178Y-54824999D02*
X124905181Y-54274996D01*
X85010681Y-54874999D02*
X87342583Y-54874999D01*
X146705175Y-46094825D02*
X146705175Y-41425002D01*
X124605178Y-32374999D02*
X125155181Y-31824996D01*
X89207975Y-56677802D02*
X101069773Y-56677802D01*
X88680174Y-53537408D02*
X88680174Y-56150001D01*
X87342583Y-54874999D02*
X88705175Y-53512407D01*
X88080174Y-33249998D02*
X88080174Y-50451472D01*
X88080174Y-50451472D02*
X88678703Y-51050001D01*
X106251742Y-32374999D02*
X106603459Y-32726716D01*
X140795178Y-27184999D02*
X139895178Y-28084999D01*
X145493175Y-49925002D02*
X146480675Y-49925002D01*
X146705175Y-41425002D02*
X148305175Y-39825002D01*
X88680174Y-56150001D02*
X89207975Y-56677802D01*
X88678703Y-51050001D02*
X88705175Y-51050001D01*
X146705175Y-49700502D02*
X146705175Y-46094825D01*
X122960681Y-54824999D02*
X124355178Y-54824999D01*
X101069773Y-56677802D02*
X102847575Y-54900000D01*
X139355175Y-29825002D02*
X138555175Y-29825002D01*
X88705175Y-53512407D02*
X88680174Y-53537408D01*
X87205178Y-32375002D02*
X85349672Y-32375002D01*
X123210681Y-32374999D02*
X124605178Y-32374999D01*
X102847575Y-54900000D02*
X103752425Y-54900000D01*
X88705175Y-51050001D02*
X88705175Y-53512407D01*
%TO.N,/OUT_MISO*%
X141205175Y-30775002D02*
X143005175Y-30775002D01*
%TO.N,Net-(SCLK1-A)*%
X162000000Y-84250000D02*
X162000000Y-86500000D01*
%TO.N,/ESP_A0*%
X51105175Y-58415002D02*
X53245175Y-58415002D01*
X48255175Y-60425002D02*
X50265175Y-58415002D01*
X50265175Y-58415002D02*
X51105175Y-58415002D01*
%TO.N,/SCLK*%
X105445176Y-33055001D02*
X104007425Y-33055001D01*
X104480174Y-55550001D02*
X105355175Y-56425002D01*
X103752425Y-55550001D02*
X104480174Y-55550001D01*
X86705175Y-33075002D02*
X86706311Y-33073866D01*
X119973435Y-55550001D02*
X119250824Y-54827390D01*
X123010681Y-55474999D02*
X126955178Y-55474999D01*
X145493175Y-50425002D02*
X144505175Y-50425002D01*
X126955178Y-55474999D02*
X127005175Y-55425002D01*
X124705178Y-32974999D02*
X123327427Y-32974999D01*
X123002425Y-55550001D02*
X119973435Y-55550001D01*
X86505178Y-55474999D02*
X85077427Y-55474999D01*
X86706311Y-33073866D02*
X86721346Y-33073866D01*
X144505175Y-50425002D02*
X144005175Y-49925002D01*
X85310678Y-33075002D02*
X86705175Y-33075002D01*
%TO.N,/OUT_SCLK*%
X141205175Y-40525002D02*
X143155175Y-40525002D01*
%TO.N,/D1*%
X102681646Y-31100000D02*
X104002425Y-31100000D01*
X100980174Y-34180174D02*
X100980174Y-32801472D01*
X116680175Y-59712802D02*
X116680175Y-49880175D01*
X100980174Y-34180174D02*
X116680175Y-49880175D01*
X100980174Y-32801472D02*
X102681646Y-31100000D01*
%TO.N,/Y1*%
X116680175Y-61712802D02*
X118275175Y-63307802D01*
X118275175Y-63307802D02*
X118275175Y-65350602D01*
%TO.N,/ESP_SCLK*%
X74800000Y-53100000D02*
X74600000Y-53100000D01*
X136051010Y-39575002D02*
X138655175Y-39575002D01*
X85970431Y-37725002D02*
X87205175Y-37725002D01*
X129000000Y-44900000D02*
X131874998Y-42025002D01*
X113140087Y-62759913D02*
X110670264Y-62759913D01*
X128800000Y-44900000D02*
X129000000Y-44900000D01*
X133601010Y-42025002D02*
X136051010Y-39575002D01*
X81980173Y-63800000D02*
X78005175Y-59825002D01*
X109630177Y-63800000D02*
X81980173Y-63800000D01*
X74600000Y-53100000D02*
X74300000Y-52800000D01*
X75880175Y-39250002D02*
X84445431Y-39250002D01*
X74205175Y-40925002D02*
X75880175Y-39250002D01*
X110670264Y-62759913D02*
X109630177Y-63800000D01*
X131874998Y-42025002D02*
X133601010Y-42025002D01*
X84445431Y-39250002D02*
X85970431Y-37725002D01*
%TO.N,/IO21*%
X68605175Y-53335002D02*
X70385002Y-53335002D01*
X70385002Y-53335002D02*
X71700000Y-54650000D01*
%TO.N,/1IN+*%
X46500000Y-77874000D02*
X46500000Y-79200000D01*
X48539000Y-75835000D02*
X46500000Y-77874000D01*
%TO.N,/1IN-*%
X53961000Y-75835000D02*
X52691000Y-74565000D01*
X52691000Y-74565000D02*
X48978000Y-74565000D01*
X47965000Y-74565000D02*
X46800000Y-73400000D01*
X48978000Y-74565000D02*
X47965000Y-74565000D01*
X46800000Y-72100000D02*
X48000000Y-70900000D01*
X46800000Y-73400000D02*
X46800000Y-72100000D01*
%TO.N,/TXA2D*%
X168200000Y-53200000D02*
X166000000Y-55400000D01*
%TO.N,/TXA5D*%
X136810731Y-56677802D02*
X126880431Y-56677802D01*
X164981177Y-57100000D02*
X158278706Y-57100000D01*
X112588075Y-60612802D02*
X107455175Y-55479902D01*
X101407975Y-47272202D02*
X100030174Y-48650003D01*
X107455175Y-48470102D02*
X106257275Y-47272202D01*
X158278706Y-57100000D02*
X158253704Y-57125002D01*
X106257275Y-47272202D02*
X101407975Y-47272202D01*
X145500000Y-57100000D02*
X145100000Y-56700000D01*
X124430175Y-59128058D02*
X124430175Y-60297546D01*
X164990588Y-57090589D02*
X164981177Y-57100000D01*
X157731644Y-57100000D02*
X145500000Y-57100000D01*
X168590589Y-57090589D02*
X172635175Y-53046002D01*
X157756646Y-57125002D02*
X157731644Y-57100000D01*
X107455175Y-55479902D02*
X107455175Y-48470102D01*
X126880431Y-56677802D02*
X124430175Y-59128058D01*
X136816465Y-56683535D02*
X136810731Y-56677802D01*
X168590589Y-57090589D02*
X164990588Y-57090589D01*
X124430175Y-60297546D02*
X124114919Y-60612802D01*
X124114919Y-60612802D02*
X112588075Y-60612802D01*
X158253704Y-57125002D02*
X157756646Y-57125002D01*
%TO.N,/TXA6D*%
X144870431Y-39600002D02*
X146014919Y-39600002D01*
X144164919Y-37475002D02*
X144555175Y-37865258D01*
X144555175Y-39284746D02*
X144870431Y-39600002D01*
X147589919Y-38025002D02*
X160674998Y-38025002D01*
X146014919Y-39600002D02*
X147589919Y-38025002D01*
X160674998Y-38025002D02*
X160700000Y-38000000D01*
X132539077Y-39512393D02*
X134576468Y-37475002D01*
X134576468Y-37475002D02*
X144164919Y-37475002D01*
X144555175Y-37865258D02*
X144555175Y-39284746D01*
%TO.N,/ESP_A2*%
X51105175Y-55875002D02*
X53205175Y-55875002D01*
X53205175Y-55875002D02*
X53255175Y-55925002D01*
X48805175Y-55875002D02*
X51105175Y-55875002D01*
X48255175Y-56425002D02*
X48805175Y-55875002D01*
%TO.N,/USB_VBUS*%
X62755175Y-34975002D02*
X62505175Y-34975002D01*
X62005175Y-34475002D02*
X62505175Y-34975002D01*
X65005175Y-36675002D02*
X64455175Y-36675002D01*
X64455175Y-36675002D02*
X62755175Y-34975002D01*
X62005175Y-33875002D02*
X62005175Y-34475002D01*
X62505175Y-34975002D02*
X62505175Y-33875002D01*
%TO.N,/W_XI*%
X150555175Y-48912502D02*
X152167675Y-50525002D01*
X150555175Y-47975002D02*
X150555175Y-48912502D01*
X148105175Y-50525002D02*
X146755175Y-51875002D01*
X146755175Y-51875002D02*
X146530675Y-51875002D01*
X146480675Y-51925002D02*
X145493175Y-51925002D01*
X146530675Y-51875002D02*
X146480675Y-51925002D01*
X148105175Y-50525002D02*
X152167675Y-50525002D01*
%TO.N,/XS4T*%
X92005175Y-43625002D02*
X93267175Y-43625002D01*
X91305175Y-44325002D02*
X92005175Y-43625002D01*
%TO.N,/XS4*%
X86205175Y-50975002D02*
X86480176Y-50700001D01*
X85027426Y-50975002D02*
X86205175Y-50975002D01*
%TO.N,/ESP_IRQ*%
X104800000Y-38900000D02*
X101625002Y-35725002D01*
X145155175Y-48587002D02*
X145155175Y-47375002D01*
X127370126Y-48238861D02*
X127605175Y-48238861D01*
X126792545Y-56200002D02*
X128907925Y-56200002D01*
X112005175Y-34625002D02*
X111805175Y-34625002D01*
X101625002Y-35725002D02*
X98353704Y-35725002D01*
X122144777Y-56825002D02*
X126167545Y-56825002D01*
X126705175Y-52825002D02*
X126705175Y-48903812D01*
X128003075Y-56200002D02*
X127903075Y-56100002D01*
X118355175Y-57075002D02*
X119230176Y-56200001D01*
X128907925Y-56200002D02*
X128003075Y-56200002D01*
X121519776Y-56200001D02*
X122144777Y-56825002D01*
X111805175Y-34625002D02*
X110880175Y-33700002D01*
X91622198Y-56277802D02*
X90985725Y-56277802D01*
X98353704Y-35725002D02*
X96353703Y-33725001D01*
X127903075Y-54022902D02*
X126705175Y-52825002D01*
X67655175Y-62225002D02*
X67100000Y-61669827D01*
X110880175Y-33700002D02*
X109907925Y-33700002D01*
X68605175Y-62225002D02*
X70455175Y-62225002D01*
X127903075Y-56100002D02*
X127903075Y-54022902D01*
X134980175Y-33700002D02*
X132205175Y-33700002D01*
X96353703Y-33725001D02*
X91205175Y-33725001D01*
X67100000Y-61669827D02*
X67100000Y-60900000D01*
X135405175Y-34125002D02*
X134980175Y-33700002D01*
X70455175Y-62225002D02*
X71255175Y-61425002D01*
X68605175Y-62225002D02*
X67655175Y-62225002D01*
X126705175Y-48903812D02*
X127370126Y-48238861D01*
X132205175Y-33700002D02*
X129157925Y-33700002D01*
X110080175Y-56200002D02*
X110705175Y-56825002D01*
X93500000Y-54400000D02*
X91622198Y-56277802D01*
X145155175Y-47375002D02*
X145605175Y-46925002D01*
X93500000Y-54100000D02*
X93500000Y-54400000D01*
X110705175Y-56825002D02*
X111605175Y-56825002D01*
X126167545Y-56825002D02*
X126792545Y-56200002D01*
X119230176Y-56200001D02*
X121519776Y-56200001D01*
X145493175Y-48925002D02*
X145155175Y-48587002D01*
%TO.N,Net-(IC4-B)*%
X158650000Y-86100000D02*
X158650000Y-84450000D01*
%TO.N,/2IN+*%
X56500000Y-77300000D02*
X54595000Y-77300000D01*
X54400000Y-77105000D02*
X52495000Y-77105000D01*
X50400000Y-79400000D02*
X49400000Y-80400000D01*
X52495000Y-77105000D02*
X50400000Y-79200000D01*
X49400000Y-80400000D02*
X49400000Y-85900000D01*
%TO.N,/XS1T*%
X99143175Y-42975002D02*
X103155175Y-42975002D01*
%TO.N,/XS1*%
X85299675Y-28525002D02*
X86405175Y-28525002D01*
X86405175Y-28525002D02*
X86705175Y-28225002D01*
%TO.N,/TXB5D*%
X49709919Y-64245002D02*
X48889919Y-63425002D01*
X47024431Y-63921002D02*
X37395175Y-63921002D01*
X60805175Y-62225002D02*
X54175175Y-62225002D01*
X52155175Y-64245002D02*
X49709919Y-64245002D01*
X47520431Y-63425002D02*
X47024431Y-63921002D01*
X54175175Y-62225002D02*
X52155175Y-64245002D01*
X113705175Y-51725002D02*
X113705175Y-56525002D01*
X48889919Y-63425002D02*
X47520431Y-63425002D01*
X113705175Y-56525002D02*
X114105175Y-56925002D01*
%TO.N,/TXB5*%
X110980176Y-51000003D02*
X111705175Y-51725002D01*
X109657925Y-51000003D02*
X110980176Y-51000003D01*
%TO.N,/CP_VDD*%
X61305175Y-32675002D02*
X58792675Y-32675002D01*
X61305175Y-32675002D02*
X61305175Y-33175002D01*
%TO.N,/ESP_E3*%
X51105175Y-57145002D02*
X49535175Y-57145002D01*
X51105175Y-57145002D02*
X53225175Y-57145002D01*
X53225175Y-57145002D02*
X53255175Y-57175002D01*
X49535175Y-57145002D02*
X48255175Y-58425002D01*
%TO.N,Net-(12VDC1-A)*%
X67575002Y-84475002D02*
X69600000Y-86500000D01*
X66060000Y-84475002D02*
X67575002Y-84475002D01*
%TO.N,+12V*%
D71*
X74005175Y-77750002D02*
X75005175Y-78750002D01*
X75005175Y-78750002D02*
X75005175Y-80875002D01*
%TO.N,/TOCAP*%
D70*
X142005175Y-55913002D02*
X142005175Y-57625002D01*
%TO.N,/WTXP*%
X136505175Y-48925002D02*
X135755175Y-48175002D01*
%TO.N,/WTXN*%
X135971312Y-49425002D02*
X135467991Y-48921681D01*
X137017175Y-49425002D02*
X135971312Y-49425002D01*
%TO.N,/ESP_A1*%
X50155175Y-59685002D02*
X51105175Y-59685002D01*
X50055175Y-59785002D02*
X50155175Y-59685002D01*
X50055175Y-60625002D02*
X50055175Y-59785002D01*
X51105175Y-59685002D02*
X53245175Y-59685002D01*
X48255175Y-62425002D02*
X50055175Y-60625002D01*
%TO.N,/TXA2*%
X101955175Y-25725002D02*
X102780175Y-26550002D01*
X102780175Y-26550002D02*
X104002425Y-26550002D01*
%TO.N,/TXA6*%
X120955175Y-48975002D02*
X122927425Y-48975002D01*
%TO.N,/RXA6*%
X120955175Y-50975002D02*
X122230174Y-49700003D01*
X122230174Y-49700003D02*
X123002425Y-49700003D01*
%TO.N,/ESP_USRST*%
X107257976Y-24025002D02*
X90054523Y-24025002D01*
X125425002Y-27625002D02*
X128153075Y-30353075D01*
X85907275Y-50350001D02*
X86605175Y-49652101D01*
X104927377Y-27850001D02*
X104002425Y-27850001D01*
X128153075Y-34177802D02*
X125730877Y-36600000D01*
X86605175Y-49652101D02*
X86605175Y-49325002D01*
X143955175Y-46399502D02*
X143619931Y-46399502D01*
X73900000Y-53500000D02*
X74800000Y-53500000D01*
X127946912Y-46448029D02*
X127952275Y-46453392D01*
X123252425Y-27850001D02*
X124231647Y-27850001D01*
X131900000Y-37924727D02*
X131900000Y-40200000D01*
X128153075Y-30353075D02*
X128153075Y-34177802D01*
X84100000Y-45500000D02*
X84235073Y-45500000D01*
X64200000Y-51800000D02*
X53300000Y-51800000D01*
X104605175Y-50325002D02*
X105303075Y-49627102D01*
X127809247Y-46448029D02*
X127946912Y-46448029D01*
X114855175Y-27555175D02*
X114855175Y-26540258D01*
X108005176Y-24772202D02*
X104927377Y-27850001D01*
X128200000Y-46395301D02*
X128117275Y-46478026D01*
X144005175Y-47437002D02*
X144005175Y-46449502D01*
X108005176Y-24772202D02*
X107257976Y-24025002D01*
X131900000Y-40200000D02*
X128200000Y-43900000D01*
X123900000Y-36600000D02*
X114855175Y-27555175D01*
X84235073Y-45500000D02*
X86605175Y-47870102D01*
X130505175Y-46399502D02*
X128195799Y-46399502D01*
X128200000Y-43900000D02*
X128200000Y-46395301D01*
X125730877Y-36600000D02*
X123900000Y-36600000D01*
X142564919Y-42125002D02*
X134779675Y-42125002D01*
X86605175Y-47870102D02*
X86605175Y-49325002D01*
X134779675Y-42125002D02*
X130505175Y-46399502D01*
X73600000Y-53200000D02*
X73900000Y-53500000D01*
X114855175Y-26540258D02*
X113139919Y-24825002D01*
X124231647Y-27850001D02*
X124456646Y-27625002D01*
X124456646Y-27625002D02*
X125425002Y-27625002D01*
X112456646Y-24825002D02*
X112403846Y-24772202D01*
X143619931Y-46399502D02*
X142955175Y-45734746D01*
X103700325Y-50325002D02*
X104605175Y-50325002D01*
X127952275Y-46453392D02*
X128092641Y-46453392D01*
X128195799Y-46399502D02*
X128117275Y-46478026D01*
X128092641Y-46453392D02*
X128117275Y-46478026D01*
X142955175Y-45734746D02*
X142955175Y-42515258D01*
X53300000Y-51800000D02*
X51764998Y-53335002D01*
X51764998Y-53335002D02*
X51105175Y-53335002D01*
X112403846Y-24772202D02*
X108005176Y-24772202D01*
X85002425Y-50350001D02*
X85907275Y-50350001D01*
X65600000Y-53200000D02*
X64200000Y-51800000D01*
X123002425Y-50350001D02*
X123907275Y-50350001D01*
X144005175Y-46449502D02*
X143955175Y-46399502D01*
X90054523Y-24025002D02*
X86204525Y-27875000D01*
X86204525Y-27875000D02*
X85299675Y-27875000D01*
X128153075Y-34177802D02*
X131900000Y-37924727D01*
X113139919Y-24825002D02*
X112456646Y-24825002D01*
X142955175Y-42515258D02*
X142564919Y-42125002D01*
X123907275Y-50350001D02*
X127809247Y-46448029D01*
%TO.N,/XS6*%
X123027426Y-50975002D02*
X124205175Y-50975002D01*
X124205175Y-50975002D02*
X124477503Y-50702674D01*
X124477503Y-50702674D02*
X124477503Y-50634721D01*
%TO.N,/D5*%
X126180173Y-53600000D02*
X126455175Y-53875002D01*
X123002425Y-53600000D02*
X126180173Y-53600000D01*
X126455175Y-53875002D02*
X126155175Y-53575002D01*
%TO.N,/SI*%
X123199675Y-31724999D02*
X121805178Y-31724999D01*
X101600343Y-32985757D02*
X102861101Y-31724999D01*
X102861101Y-31724999D02*
X103999675Y-31724999D01*
X144555675Y-49425002D02*
X144455675Y-49325002D01*
X144455675Y-49325002D02*
X144455675Y-46609246D01*
X144455675Y-46609246D02*
X146305175Y-44759746D01*
X146305175Y-39925000D02*
X147745644Y-38484531D01*
X150214704Y-38484531D02*
X150480174Y-38750001D01*
X121805178Y-31724999D02*
X121255175Y-32275002D01*
X84999675Y-54224999D02*
X83605178Y-54224999D01*
X152030173Y-36200000D02*
X150755175Y-34925002D01*
X101580174Y-33050001D02*
X101600343Y-33029832D01*
X121255175Y-32275002D02*
X121255175Y-32375002D01*
X150755175Y-34925002D02*
X146905175Y-34925002D01*
X146305175Y-44759746D02*
X146305175Y-39925000D01*
X120997117Y-54550001D02*
X121297117Y-54250001D01*
X121297117Y-54250001D02*
X123002425Y-54250001D01*
X146905175Y-34925002D02*
X145355175Y-36475002D01*
X145493175Y-49425002D02*
X144555675Y-49425002D01*
X153000000Y-36200000D02*
X152030173Y-36200000D01*
X85249672Y-31775002D02*
X83855175Y-31775002D01*
X147745644Y-38484531D02*
X150214704Y-38484531D01*
X102355178Y-54224999D02*
X101805175Y-54775002D01*
X101600343Y-33029832D02*
X101600343Y-32985757D01*
X83605178Y-54224999D02*
X83055175Y-54775002D01*
X83855175Y-31775002D02*
X83305172Y-32325005D01*
X103749675Y-54224999D02*
X102355178Y-54224999D01*
%TO.N,/BST*%
X63503175Y-74475002D02*
X65417675Y-74475002D01*
%TO.N,/W_XO*%
X154117675Y-46875002D02*
X154605175Y-46387502D01*
X149755175Y-46175002D02*
X154392675Y-46175002D01*
X151955175Y-46875002D02*
X154117675Y-46875002D01*
X145493175Y-51425002D02*
X146480675Y-51425002D01*
X148405175Y-47525002D02*
X149755175Y-46175002D01*
X146480675Y-51425002D02*
X148405175Y-49500502D01*
X148405175Y-49500502D02*
X148405175Y-47525002D01*
%TO.N,/CD_DP*%
X61305175Y-31675002D02*
X60630175Y-31675002D01*
X60630175Y-31675002D02*
X60255175Y-31300002D01*
X60255175Y-31300002D02*
X60255175Y-30925002D01*
%TO.N,/CD_DN*%
X60255175Y-32175002D02*
X60005175Y-31925002D01*
X61305175Y-32175002D02*
X60255175Y-32175002D01*
%TO.N,/ESP_EN*%
X48742675Y-49525002D02*
X48142675Y-50125002D01*
X63505175Y-25200000D02*
X62730177Y-24425002D01*
X44155175Y-29954825D02*
X44155175Y-28320002D01*
X48142675Y-50125002D02*
X47117675Y-49100002D01*
X51105175Y-49525002D02*
X48742675Y-49525002D01*
X47117675Y-49100002D02*
X45495431Y-49100002D01*
X42605175Y-31504825D02*
X44155175Y-29954825D01*
X48142675Y-50125002D02*
X48142675Y-52137502D01*
X42605175Y-46209746D02*
X42605175Y-31504825D01*
X52574998Y-24425002D02*
X52374998Y-24625002D01*
X45495431Y-49100002D02*
X42605175Y-46209746D01*
X44155175Y-28320002D02*
X47850175Y-24625002D01*
X52374998Y-24625002D02*
X47850175Y-24625002D01*
X62730177Y-24425002D02*
X52574998Y-24425002D01*
%TO.N,/TXA3*%
X121530175Y-26550002D02*
X123252425Y-26550002D01*
%TO.N,/TXA1*%
X84055174Y-26575001D02*
X85299675Y-26575001D01*
X83205175Y-25725002D02*
X84055174Y-26575001D01*
%TO.N,/XS6T*%
X91305175Y-40325002D02*
X92005175Y-41025002D01*
X92005175Y-41025002D02*
X93267175Y-41025002D01*
%TO.N,/1V20*%
X143005175Y-55913002D02*
X143005175Y-57106252D01*
X155000000Y-72500000D02*
X155000000Y-75400000D01*
X143005175Y-57106252D02*
X143805175Y-57906252D01*
%TO.N,/RXA1*%
X83705175Y-27225002D02*
X85299675Y-27225002D01*
X83205175Y-27725002D02*
X83705175Y-27225002D01*
%TO.N,/WRXP*%
X137017175Y-50925002D02*
X135755175Y-50925002D01*
X135755175Y-50925002D02*
X134755175Y-49925002D01*
X134755175Y-49925002D02*
X134505175Y-49925002D01*
%TO.N,/WRXN*%
X137005175Y-51425002D02*
X135243175Y-51425002D01*
%TO.N,/EXRES1*%
X134255175Y-53425002D02*
X137017175Y-53425002D01*
%TO.N,/LINKLED*%
X145474175Y-54425002D02*
X147236175Y-54425002D01*
%TO.N,/ACTLED*%
X145493175Y-53425002D02*
X147255175Y-53425002D01*
%TO.N,/ESP_SCSN*%
X68605175Y-58415002D02*
X70190000Y-58415002D01*
X70190000Y-58415002D02*
X70200000Y-58425002D01*
X74800000Y-54300000D02*
X74300000Y-54800000D01*
X145493175Y-50925002D02*
X143505175Y-50925002D01*
X74300000Y-54800000D02*
X74300000Y-55000000D01*
%TO.N,/Y5*%
X125680175Y-61712802D02*
X123355175Y-64037802D01*
X123355175Y-64037802D02*
X123355175Y-65350602D01*
%TO.N,/RSTB*%
X63005175Y-34500002D02*
X63370555Y-34865382D01*
X63005175Y-33875002D02*
X63005175Y-34500002D01*
X63370555Y-34865382D02*
X63564795Y-34865382D01*
%TO.N,/ESP_RX0*%
X64005175Y-29975002D02*
X64005175Y-28905175D01*
X63465822Y-28365822D02*
X63465822Y-27534179D01*
X63465822Y-28365822D02*
X64005175Y-28905175D01*
%TO.N,/ESP_TX0*%
X63022831Y-28770494D02*
X63505175Y-29252838D01*
X63505175Y-29252838D02*
X63505175Y-29975002D01*
%TO.N,/RXA2*%
X101955175Y-27725002D02*
X102480174Y-27200003D01*
X102480174Y-27200003D02*
X104002425Y-27200003D01*
%TO.N,/XS2T*%
X93267175Y-44275002D02*
X93267175Y-46163002D01*
%TO.N,/XS2*%
X105180174Y-28500003D02*
X105455175Y-28225002D01*
X104002425Y-28500003D02*
X105180174Y-28500003D01*
%TO.N,/TXB4*%
X90907925Y-51000003D02*
X92230176Y-51000003D01*
X92230176Y-51000003D02*
X92955175Y-51725002D01*
%TO.N,/TXB3*%
X129157925Y-28500003D02*
X130480176Y-28500003D01*
X130480176Y-28500003D02*
X131205175Y-29225002D01*
%TO.N,/D0*%
X101989919Y-37325002D02*
X101889919Y-37225002D01*
X100420431Y-37325002D02*
X93455175Y-37325002D01*
X87405172Y-31274999D02*
X87255172Y-31124999D01*
X100520431Y-37225002D02*
X100420431Y-37325002D01*
X87453707Y-31274999D02*
X87405172Y-31274999D01*
X101889919Y-37225002D02*
X100520431Y-37225002D01*
X102005175Y-37325002D02*
X101989919Y-37325002D01*
X87805178Y-31675005D02*
X87805178Y-31626470D01*
X93455175Y-37325002D02*
X87805178Y-31675005D01*
X87805178Y-31626470D02*
X87453707Y-31274999D01*
X112805175Y-48125002D02*
X102005175Y-37325002D01*
X87255172Y-31124999D02*
X85299675Y-31124999D01*
X114430175Y-59712802D02*
X112805175Y-58087802D01*
X112805175Y-58087802D02*
X112805175Y-48125002D01*
%TO.N,/Y0*%
X117005175Y-64287802D02*
X114430175Y-61712802D01*
X117005175Y-65350602D02*
X117005175Y-64287802D01*
%TO.N,/RXB5D*%
X69100000Y-64807461D02*
X71607460Y-64807461D01*
X71939919Y-64475002D02*
X71984744Y-64475002D01*
X72305175Y-64109746D02*
X72305175Y-60940258D01*
X59100000Y-67225002D02*
X37941175Y-67225002D01*
X76884744Y-57600000D02*
X77200000Y-57284744D01*
X77200000Y-57284744D02*
X77200000Y-56857544D01*
X76390087Y-57825002D02*
X76615089Y-57600000D01*
X75068960Y-58176473D02*
X76023435Y-58176473D01*
X71984744Y-64475002D02*
X72300000Y-64159746D01*
X76615089Y-57600000D02*
X76884744Y-57600000D01*
X72300000Y-64159746D02*
X72300000Y-64114921D01*
X37941175Y-67225002D02*
X37395175Y-66679002D01*
X71607460Y-64807461D02*
X71939919Y-64475002D01*
X76374906Y-57825002D02*
X76390087Y-57825002D01*
X78005175Y-56052369D02*
X78005175Y-56025002D01*
X72305175Y-60940258D02*
X75068960Y-58176473D01*
X77200000Y-56857544D02*
X78005175Y-56052369D01*
X76023435Y-58176473D02*
X76374906Y-57825002D01*
X72300000Y-64114921D02*
X72305175Y-64109746D01*
%TO.N,/TXB2*%
X111230176Y-28500003D02*
X111955175Y-29225002D01*
X109907925Y-28500003D02*
X111230176Y-28500003D01*
%TO.N,/RXB2*%
X109907925Y-27850001D02*
X111330176Y-27850001D01*
X111330176Y-27850001D02*
X111955175Y-27225002D01*
%TO.N,/RXB5*%
X111705175Y-49725002D02*
X111080176Y-50350001D01*
X111080176Y-50350001D02*
X109657925Y-50350001D01*
%TO.N,/TXA5*%
X101705175Y-48975002D02*
X103677425Y-48975002D01*
%TO.N,/D3*%
X86163075Y-53625002D02*
X86337482Y-53799409D01*
X87569644Y-53799409D02*
X87744051Y-53625002D01*
X86337482Y-53799409D02*
X87569644Y-53799409D01*
X84966299Y-53625002D02*
X86163075Y-53625002D01*
%TO.N,/Y3*%
X120815175Y-62327802D02*
X120815175Y-65350602D01*
X121180175Y-61962802D02*
X120815175Y-62327802D01*
%TO.N,Net-(IRQ1-A)*%
X154700000Y-84250000D02*
X154700000Y-86400000D01*
%TO.N,/Y2*%
X119545175Y-65350602D02*
X119545175Y-62327802D01*
X119545175Y-62327802D02*
X118930175Y-61712802D01*
%TO.N,Net-(J2-Pad12)*%
X151165175Y-28525002D02*
X150405175Y-28525002D01*
X150405175Y-28525002D02*
X147405175Y-25525002D01*
%TO.N,/RXB4*%
X92955175Y-49725002D02*
X92330176Y-50350001D01*
X92330176Y-50350001D02*
X90907925Y-50350001D01*
%TO.N,/XS5T*%
X100305175Y-41025002D02*
X101205175Y-40125002D01*
X99143175Y-41025002D02*
X100305175Y-41025002D01*
%TO.N,/XS5*%
X104955175Y-50975002D02*
X105230176Y-50700001D01*
X103777426Y-50975002D02*
X104955175Y-50975002D01*
%TO.N,/D2*%
X123252425Y-31100000D02*
X125547714Y-31100000D01*
X125547714Y-31100000D02*
X125802173Y-31354459D01*
%TO.N,/RXB3*%
X129157925Y-27850001D02*
X130580176Y-27850001D01*
X130580176Y-27850001D02*
X131205175Y-27225002D01*
%TO.N,/IRQ_STAT*%
X154700000Y-88400000D02*
X157600000Y-88400000D01*
%TO.N,/ESP_MOSI*%
X74800000Y-53900000D02*
X72800000Y-53900000D01*
X69655175Y-50755175D02*
X69655175Y-48775002D01*
X69135175Y-48255002D02*
X68605175Y-48255002D01*
X69655175Y-48775002D02*
X69135175Y-48255002D01*
X72800000Y-53900000D02*
X69655175Y-50755175D01*
%TO.N,/OUT_MOSI*%
X141055175Y-36275002D02*
X143155175Y-36275002D01*
%TO.N,/RXB1*%
X93205175Y-27225002D02*
X92555177Y-27875000D01*
X92555177Y-27875000D02*
X91205175Y-27875000D01*
%TD*%
%TA.AperFunction,Conductor*%
%TO.N,+5V*%
G36*
X75943039Y-66920185D02*
G01*
X75988794Y-66972989D01*
X76000000Y-67024500D01*
X76000000Y-71475502D01*
X75980315Y-71542541D01*
X75927511Y-71588296D01*
X75876000Y-71599502D01*
X73887078Y-71599502D01*
X73653806Y-71636448D01*
X73429178Y-71709435D01*
X73218741Y-71816659D01*
X73027666Y-71955484D01*
X72864965Y-72118184D01*
X72803641Y-72151668D01*
X72777284Y-72154502D01*
X72242304Y-72154502D01*
X72242298Y-72154503D01*
X72182691Y-72160910D01*
X72047846Y-72211204D01*
X72047839Y-72211208D01*
X71932630Y-72297454D01*
X71932627Y-72297457D01*
X71846381Y-72412666D01*
X71846377Y-72412673D01*
X71796083Y-72547519D01*
X71789676Y-72607118D01*
X71789675Y-72607137D01*
X71789675Y-73592872D01*
X71789676Y-73592878D01*
X71796083Y-73652485D01*
X71846377Y-73787330D01*
X71846381Y-73787337D01*
X71932627Y-73902546D01*
X71932630Y-73902549D01*
X72047839Y-73988795D01*
X72047846Y-73988799D01*
X72060228Y-73993417D01*
X72182692Y-74039093D01*
X72242302Y-74045502D01*
X72777285Y-74045501D01*
X72844324Y-74065185D01*
X72864966Y-74081820D01*
X73027665Y-74244519D01*
X73218742Y-74383345D01*
X73318166Y-74434004D01*
X73429178Y-74490568D01*
X73429180Y-74490568D01*
X73429183Y-74490570D01*
X73478463Y-74506582D01*
X73653806Y-74563555D01*
X73887078Y-74600502D01*
X75876000Y-74600502D01*
X75943039Y-74620187D01*
X75988794Y-74672991D01*
X76000000Y-74724502D01*
X76000000Y-75576000D01*
X75980315Y-75643039D01*
X75927511Y-75688794D01*
X75876000Y-75700000D01*
X70937549Y-75700000D01*
X70900660Y-75694386D01*
X70873266Y-75685850D01*
X70777196Y-75655914D01*
X70706616Y-75649500D01*
X68293384Y-75649500D01*
X68222804Y-75655914D01*
X68144497Y-75680315D01*
X68099340Y-75694386D01*
X68062451Y-75700000D01*
X66667437Y-75700000D01*
X66638991Y-75691647D01*
X66609913Y-75685850D01*
X66604790Y-75681604D01*
X66600398Y-75680315D01*
X66581295Y-75665193D01*
X66573995Y-75658143D01*
X66572887Y-75656346D01*
X66448831Y-75532290D01*
X66434589Y-75523505D01*
X66424949Y-75514195D01*
X66414036Y-75495010D01*
X66399271Y-75478596D01*
X66397095Y-75465231D01*
X66390402Y-75453464D01*
X66391593Y-75431423D01*
X66388047Y-75409634D01*
X66393442Y-75397215D01*
X66394173Y-75383696D01*
X66407091Y-75365798D01*
X66415888Y-75345551D01*
X66431421Y-75332091D01*
X66435065Y-75327043D01*
X66439057Y-75325474D01*
X66445992Y-75319464D01*
X66448831Y-75317714D01*
X66572887Y-75193658D01*
X66664989Y-75044336D01*
X66720174Y-74877799D01*
X66730675Y-74775011D01*
X66730674Y-74506582D01*
X67650001Y-74506582D01*
X67656408Y-74577102D01*
X67656409Y-74577107D01*
X67706981Y-74739396D01*
X67794927Y-74884877D01*
X67915122Y-75005072D01*
X68060604Y-75093019D01*
X68060603Y-75093019D01*
X68222894Y-75143590D01*
X68222893Y-75143590D01*
X68293427Y-75149999D01*
X69249999Y-75149999D01*
X69750000Y-75149999D01*
X70706581Y-75149999D01*
X70777102Y-75143591D01*
X70777107Y-75143590D01*
X70939396Y-75093018D01*
X71084877Y-75005072D01*
X71205072Y-74884877D01*
X71293019Y-74739395D01*
X71343590Y-74577106D01*
X71350000Y-74506572D01*
X71350000Y-74500000D01*
X69750000Y-74500000D01*
X69750000Y-75149999D01*
X69249999Y-75149999D01*
X69250000Y-75149998D01*
X69250000Y-74500000D01*
X67650001Y-74500000D01*
X67650001Y-74506582D01*
X66730674Y-74506582D01*
X66730674Y-74383345D01*
X66730674Y-73999991D01*
X66730003Y-73993427D01*
X67650000Y-73993427D01*
X67650000Y-74000000D01*
X69250000Y-74000000D01*
X69750000Y-74000000D01*
X71349999Y-74000000D01*
X71349999Y-73993417D01*
X71343591Y-73922897D01*
X71343590Y-73922892D01*
X71293018Y-73760603D01*
X71205072Y-73615122D01*
X71084877Y-73494927D01*
X70939395Y-73406980D01*
X70939396Y-73406980D01*
X70777105Y-73356409D01*
X70777106Y-73356409D01*
X70706572Y-73350000D01*
X69750000Y-73350000D01*
X69750000Y-74000000D01*
X69250000Y-74000000D01*
X69250000Y-73350000D01*
X68293417Y-73350000D01*
X68222897Y-73356408D01*
X68222892Y-73356409D01*
X68060603Y-73406981D01*
X67915122Y-73494927D01*
X67794927Y-73615122D01*
X67706980Y-73760604D01*
X67656409Y-73922893D01*
X67650000Y-73993427D01*
X66730003Y-73993427D01*
X66720174Y-73897205D01*
X66720173Y-73897202D01*
X66677179Y-73767456D01*
X66664989Y-73730668D01*
X66572887Y-73581346D01*
X66448831Y-73457290D01*
X66299509Y-73365188D01*
X66132972Y-73310003D01*
X66132970Y-73310002D01*
X66030185Y-73299502D01*
X64980173Y-73299502D01*
X64980155Y-73299503D01*
X64936601Y-73303953D01*
X64867908Y-73291183D01*
X64817024Y-73243302D01*
X64800000Y-73180595D01*
X64800000Y-70127135D01*
X66524500Y-70127135D01*
X66524500Y-71672870D01*
X66524501Y-71672876D01*
X66530908Y-71732483D01*
X66581202Y-71867328D01*
X66581206Y-71867335D01*
X66667452Y-71982544D01*
X66667455Y-71982547D01*
X66782664Y-72068793D01*
X66782671Y-72068797D01*
X66917517Y-72119091D01*
X66917516Y-72119091D01*
X66924444Y-72119835D01*
X66977127Y-72125500D01*
X68222872Y-72125499D01*
X68282483Y-72119091D01*
X68417331Y-72068796D01*
X68425687Y-72062539D01*
X68491149Y-72038121D01*
X68559422Y-72052970D01*
X68574304Y-72062534D01*
X68582669Y-72068796D01*
X68582672Y-72068797D01*
X68717517Y-72119091D01*
X68717516Y-72119091D01*
X68724444Y-72119835D01*
X68777127Y-72125500D01*
X70022872Y-72125499D01*
X70082483Y-72119091D01*
X70217331Y-72068796D01*
X70332546Y-71982546D01*
X70418796Y-71867331D01*
X70469091Y-71732483D01*
X70475500Y-71672873D01*
X70475499Y-70127128D01*
X70469091Y-70067517D01*
X70443906Y-69999993D01*
X70418797Y-69932671D01*
X70418793Y-69932664D01*
X70332547Y-69817455D01*
X70332544Y-69817452D01*
X70217335Y-69731206D01*
X70217328Y-69731202D01*
X70082482Y-69680908D01*
X70082483Y-69680908D01*
X70022883Y-69674501D01*
X70022881Y-69674500D01*
X70022873Y-69674500D01*
X70022864Y-69674500D01*
X68777129Y-69674500D01*
X68777123Y-69674501D01*
X68717516Y-69680908D01*
X68582671Y-69731202D01*
X68582662Y-69731207D01*
X68574307Y-69737462D01*
X68508842Y-69761877D01*
X68440570Y-69747023D01*
X68425693Y-69737462D01*
X68417337Y-69731207D01*
X68417328Y-69731202D01*
X68282482Y-69680908D01*
X68282483Y-69680908D01*
X68222883Y-69674501D01*
X68222881Y-69674500D01*
X68222873Y-69674500D01*
X68222864Y-69674500D01*
X66977129Y-69674500D01*
X66977123Y-69674501D01*
X66917516Y-69680908D01*
X66782671Y-69731202D01*
X66782664Y-69731206D01*
X66667455Y-69817452D01*
X66667452Y-69817455D01*
X66581206Y-69932664D01*
X66581202Y-69932671D01*
X66530908Y-70067517D01*
X66524501Y-70127116D01*
X66524501Y-70127123D01*
X66524500Y-70127135D01*
X64800000Y-70127135D01*
X64800000Y-67024500D01*
X64819685Y-66957461D01*
X64872489Y-66911706D01*
X64924000Y-66900500D01*
X75876000Y-66900500D01*
X75943039Y-66920185D01*
G37*
%TD.AperFunction*%
%TD*%
%TA.AperFunction,Conductor*%
%TO.N,/12VIN*%
G36*
X67376974Y-85133317D02*
G01*
X67405239Y-85154474D01*
X68463181Y-86212416D01*
X68496666Y-86273739D01*
X68499500Y-86300097D01*
X68499500Y-87000001D01*
X68499501Y-87000019D01*
X68510000Y-87102796D01*
X68510001Y-87102799D01*
X68565185Y-87269331D01*
X68565187Y-87269336D01*
X68657289Y-87418657D01*
X68751953Y-87513321D01*
X68785438Y-87574644D01*
X68780454Y-87644336D01*
X68738582Y-87700269D01*
X68673118Y-87724686D01*
X68664272Y-87725002D01*
X64635728Y-87725002D01*
X64568689Y-87705317D01*
X64522934Y-87652513D01*
X64512990Y-87583355D01*
X64542015Y-87519799D01*
X64548047Y-87513321D01*
X64642712Y-87418656D01*
X64734814Y-87269334D01*
X64789999Y-87102797D01*
X64800500Y-87000009D01*
X64800499Y-86199992D01*
X64789999Y-86097203D01*
X64734814Y-85930666D01*
X64642712Y-85781344D01*
X64549049Y-85687681D01*
X64515564Y-85626358D01*
X64520548Y-85556666D01*
X64549049Y-85512319D01*
X64642712Y-85418656D01*
X64703147Y-85320674D01*
X64915392Y-85208826D01*
X64950444Y-85238072D01*
X65002455Y-85307549D01*
X65117664Y-85393795D01*
X65117671Y-85393799D01*
X65252517Y-85444093D01*
X65252516Y-85444093D01*
X65259444Y-85444837D01*
X65312127Y-85450502D01*
X66807872Y-85450501D01*
X66867483Y-85444093D01*
X67002331Y-85393798D01*
X67117546Y-85307548D01*
X67203796Y-85192333D01*
X67203797Y-85192328D01*
X67208047Y-85184548D01*
X67210898Y-85186104D01*
X67243238Y-85142895D01*
X67308700Y-85118472D01*
X67376974Y-85133317D01*
G37*
%TD.AperFunction*%
%TA.AperFunction,Conductor*%
G36*
X73872002Y-81426288D02*
G01*
X73876465Y-81425318D01*
X73905219Y-81436042D01*
X73934659Y-81444687D01*
X73938844Y-81448583D01*
X73941929Y-81449734D01*
X73966886Y-81474690D01*
X74047630Y-81582549D01*
X74162839Y-81668795D01*
X74162846Y-81668799D01*
X74297691Y-81719093D01*
X74323594Y-81721877D01*
X74357302Y-81725502D01*
X74439570Y-81725501D01*
X74506608Y-81745185D01*
X74508439Y-81746384D01*
X74531261Y-81761634D01*
X74531264Y-81761635D01*
X74531265Y-81761636D01*
X74713335Y-81837051D01*
X74713340Y-81837053D01*
X74713344Y-81837053D01*
X74713345Y-81837054D01*
X74906631Y-81875502D01*
X74906634Y-81875502D01*
X75103718Y-81875502D01*
X75236275Y-81849134D01*
X75297010Y-81837053D01*
X75479089Y-81761634D01*
X75501889Y-81746398D01*
X75568566Y-81725521D01*
X75570780Y-81725501D01*
X75753046Y-81725501D01*
X75753047Y-81725501D01*
X75812658Y-81719093D01*
X75837842Y-81709699D01*
X75907533Y-81704716D01*
X75968856Y-81738201D01*
X76002341Y-81799524D01*
X76005175Y-81825882D01*
X76005175Y-87601002D01*
X75985490Y-87668041D01*
X75932686Y-87713796D01*
X75881175Y-87725002D01*
X75469073Y-87725002D01*
X75402034Y-87705317D01*
X75356279Y-87652513D01*
X75351370Y-87640014D01*
X75339989Y-87605668D01*
X75247887Y-87456346D01*
X75123831Y-87332290D01*
X75021766Y-87269336D01*
X74974511Y-87240189D01*
X74974506Y-87240187D01*
X74973037Y-87239700D01*
X74807972Y-87185003D01*
X74807970Y-87185002D01*
X74705185Y-87174502D01*
X73305173Y-87174502D01*
X73305156Y-87174503D01*
X73202378Y-87185002D01*
X73202375Y-87185003D01*
X73035843Y-87240187D01*
X73035838Y-87240189D01*
X72886517Y-87332291D01*
X72762464Y-87456344D01*
X72670362Y-87605665D01*
X72670361Y-87605668D01*
X72658982Y-87640007D01*
X72619210Y-87697451D01*
X72554695Y-87724274D01*
X72541277Y-87725002D01*
X70735728Y-87725002D01*
X70668689Y-87705317D01*
X70622934Y-87652513D01*
X70612990Y-87583355D01*
X70642015Y-87519799D01*
X70648047Y-87513321D01*
X70742712Y-87418656D01*
X70834814Y-87269334D01*
X70889999Y-87102797D01*
X70900500Y-87000009D01*
X70900499Y-86199992D01*
X70889999Y-86097203D01*
X70834814Y-85930666D01*
X70742712Y-85781344D01*
X70649049Y-85687681D01*
X70615564Y-85626358D01*
X70620548Y-85556666D01*
X70649049Y-85512319D01*
X70742712Y-85418656D01*
X70834814Y-85269334D01*
X70889999Y-85102797D01*
X70900500Y-85000009D01*
X70900499Y-84199992D01*
X70892468Y-84121373D01*
X70905238Y-84052681D01*
X70928145Y-84021090D01*
X70985695Y-83963541D01*
X71064752Y-83826609D01*
X71105676Y-83673882D01*
X71105676Y-83515767D01*
X71105676Y-83508172D01*
X71105675Y-83508154D01*
X71105675Y-83105302D01*
X71125360Y-83038263D01*
X71178164Y-82992508D01*
X71190657Y-82987601D01*
X71274509Y-82959816D01*
X71423831Y-82867714D01*
X71547887Y-82743658D01*
X71639989Y-82594336D01*
X71695174Y-82427799D01*
X71705675Y-82325011D01*
X71705674Y-81661589D01*
X71725358Y-81594551D01*
X71770432Y-81552657D01*
X71877786Y-81494277D01*
X71977472Y-81440068D01*
X72036711Y-81425002D01*
X73867620Y-81425002D01*
X73872002Y-81426288D01*
G37*
%TD.AperFunction*%
%TA.AperFunction,Conductor*%
G36*
X69556305Y-82839242D02*
G01*
X69569506Y-82850701D01*
X69586519Y-82867714D01*
X69735841Y-82959816D01*
X69819680Y-82987597D01*
X69839710Y-83001465D01*
X69861878Y-83011589D01*
X69867926Y-83021000D01*
X69877123Y-83027368D01*
X69886477Y-83049866D01*
X69899652Y-83070367D01*
X69902110Y-83087467D01*
X69903947Y-83091884D01*
X69904675Y-83105302D01*
X69904675Y-83294725D01*
X69884990Y-83361764D01*
X69868356Y-83382406D01*
X69787581Y-83463181D01*
X69726258Y-83496666D01*
X69699900Y-83499500D01*
X69199998Y-83499500D01*
X69199980Y-83499501D01*
X69097203Y-83510000D01*
X69097200Y-83510001D01*
X68930668Y-83565185D01*
X68930663Y-83565187D01*
X68781342Y-83657289D01*
X68657289Y-83781342D01*
X68565187Y-83930663D01*
X68565185Y-83930668D01*
X68558074Y-83952129D01*
X68510001Y-84097203D01*
X68510001Y-84097204D01*
X68510000Y-84097204D01*
X68499500Y-84199983D01*
X68499500Y-84250903D01*
X68479815Y-84317942D01*
X68427011Y-84363697D01*
X68357853Y-84373641D01*
X68294297Y-84344616D01*
X68287819Y-84338584D01*
X68062592Y-84113357D01*
X68062590Y-84113354D01*
X67943719Y-83994483D01*
X67943718Y-83994482D01*
X67856906Y-83944362D01*
X67856906Y-83944361D01*
X67856902Y-83944360D01*
X67806787Y-83915425D01*
X67654059Y-83874501D01*
X67495945Y-83874501D01*
X67488349Y-83874501D01*
X67488333Y-83874502D01*
X67447428Y-83874502D01*
X69173710Y-82964791D01*
X69422589Y-82829447D01*
X69490883Y-82814713D01*
X69556305Y-82839242D01*
G37*
%TD.AperFunction*%
%TD*%
%TA.AperFunction,Conductor*%
%TO.N,/12VIN*%
G36*
X60177342Y-71905021D02*
G01*
X60191465Y-71909169D01*
X60205413Y-71918132D01*
X60221414Y-71922476D01*
X60234195Y-71936629D01*
X60250242Y-71946941D01*
X60257521Y-71962457D01*
X60268243Y-71974329D01*
X60278880Y-72007982D01*
X60280907Y-72020281D01*
X60281916Y-72053048D01*
X60279675Y-72074977D01*
X60279675Y-72850000D01*
X60279678Y-72850047D01*
X60287044Y-72922146D01*
X60290175Y-72952798D01*
X60290176Y-72952801D01*
X60345360Y-73119333D01*
X60345362Y-73119338D01*
X60437464Y-73268659D01*
X60437465Y-73268660D01*
X60505747Y-73336942D01*
X60525526Y-73362750D01*
X60526243Y-73363996D01*
X60533059Y-73376478D01*
X60536626Y-73382029D01*
X60538135Y-73384649D01*
X60545650Y-73415786D01*
X60554675Y-73446519D01*
X60554675Y-73607421D01*
X60549650Y-73642363D01*
X60543242Y-73664182D01*
X60515031Y-73713726D01*
X60512555Y-73716386D01*
X60496104Y-73731165D01*
X60447638Y-73767447D01*
X60447629Y-73767455D01*
X60447623Y-73767462D01*
X60361382Y-73882663D01*
X60361379Y-73882669D01*
X60361378Y-73882669D01*
X60311082Y-74017518D01*
X60304676Y-74077118D01*
X60304675Y-74077141D01*
X60304675Y-74872878D01*
X60304834Y-74874809D01*
X60305060Y-74876454D01*
X60311084Y-74932488D01*
X60311794Y-74945742D01*
X60311794Y-74958951D01*
X60311083Y-74972205D01*
X60305175Y-75027171D01*
X60305175Y-75175002D01*
X60378449Y-75175002D01*
X60413383Y-75180025D01*
X60442719Y-75188639D01*
X60482091Y-75208346D01*
X60500944Y-75222459D01*
X60500945Y-75222461D01*
X60500946Y-75222461D01*
X60562843Y-75268797D01*
X60562846Y-75268799D01*
X60562847Y-75268799D01*
X60562848Y-75268800D01*
X60607792Y-75285563D01*
X60607793Y-75285563D01*
X60697692Y-75319093D01*
X60757302Y-75325502D01*
X61163348Y-75325501D01*
X61184789Y-75327369D01*
X61194108Y-75329005D01*
X61196939Y-75330405D01*
X61198276Y-75330522D01*
X61202643Y-75331804D01*
X61202358Y-75332774D01*
X61218423Y-75336875D01*
X61218682Y-75336182D01*
X61221534Y-75337245D01*
X61222394Y-75337889D01*
X61224189Y-75338347D01*
X61226897Y-75339584D01*
X61226327Y-75340831D01*
X61238234Y-75349741D01*
X61247980Y-75352600D01*
X61252616Y-75357948D01*
X61256734Y-75359985D01*
X61260648Y-75366512D01*
X61272735Y-75375556D01*
X61273760Y-75374668D01*
X61274676Y-75375725D01*
X61275566Y-75377674D01*
X61277477Y-75379104D01*
X61277510Y-75379148D01*
X61279335Y-75381587D01*
X61277858Y-75382691D01*
X61282082Y-75391934D01*
X61293749Y-75405392D01*
X61303701Y-75439253D01*
X61303908Y-75440690D01*
X61305175Y-75458370D01*
X61305175Y-75533172D01*
X61300150Y-75568116D01*
X61295745Y-75583114D01*
X61258002Y-75641857D01*
X61256633Y-75643044D01*
X61201772Y-75670520D01*
X61194214Y-75672165D01*
X61167843Y-75675002D01*
X60305175Y-75675002D01*
X60305175Y-75822824D01*
X60305177Y-75822860D01*
X60311335Y-75880133D01*
X60312046Y-75893389D01*
X60312046Y-75906614D01*
X60311334Y-75919870D01*
X60305176Y-75977155D01*
X60305175Y-75977174D01*
X60305175Y-76125002D01*
X61163346Y-76125002D01*
X61198281Y-76130025D01*
X61213279Y-76134429D01*
X61272030Y-76172174D01*
X61272054Y-76172202D01*
X61272057Y-76172204D01*
X61272058Y-76172206D01*
X61273217Y-76173543D01*
X61300693Y-76228404D01*
X61302338Y-76235962D01*
X61305175Y-76262333D01*
X61305175Y-76375002D01*
X61413346Y-76375002D01*
X61448281Y-76380025D01*
X61463279Y-76384429D01*
X61522030Y-76422174D01*
X61522054Y-76422202D01*
X61522057Y-76422204D01*
X61522058Y-76422206D01*
X61523217Y-76423543D01*
X61550693Y-76478404D01*
X61552338Y-76485962D01*
X61555175Y-76512333D01*
X61555175Y-77225002D01*
X61853003Y-77225002D01*
X61853011Y-77225002D01*
X61853022Y-77225001D01*
X61888805Y-77221153D01*
X61912547Y-77218600D01*
X61912554Y-77218598D01*
X62047261Y-77168356D01*
X62047268Y-77168352D01*
X62162362Y-77082192D01*
X62162365Y-77082189D01*
X62248525Y-76967095D01*
X62248530Y-76967086D01*
X62281496Y-76878698D01*
X62298409Y-76847725D01*
X62305188Y-76838669D01*
X62361120Y-76796797D01*
X62430812Y-76791811D01*
X62492132Y-76825293D01*
X62492149Y-76825309D01*
X62495825Y-76828986D01*
X62524314Y-76873321D01*
X62559377Y-76967330D01*
X62559378Y-76967332D01*
X62559379Y-76967334D01*
X62559380Y-76967335D01*
X62645625Y-77082544D01*
X62645627Y-77082546D01*
X62645630Y-77082549D01*
X62760839Y-77168795D01*
X62760846Y-77168799D01*
X62895692Y-77219093D01*
X62895691Y-77219093D01*
X62902619Y-77219837D01*
X62955302Y-77225502D01*
X64051047Y-77225501D01*
X64051055Y-77225500D01*
X64051596Y-77225471D01*
X64052076Y-77225501D01*
X64054369Y-77225501D01*
X64054369Y-77225644D01*
X64080263Y-77227260D01*
X64095162Y-77229948D01*
X64157644Y-77261219D01*
X64192731Y-77319160D01*
X64196078Y-77331355D01*
X64200500Y-77364150D01*
X64200512Y-77425901D01*
X64562770Y-77425832D01*
X64596613Y-77430533D01*
X64620989Y-77437443D01*
X64627319Y-77439238D01*
X64628540Y-77439584D01*
X64659816Y-77453344D01*
X64710834Y-77484812D01*
X64710835Y-77484812D01*
X64710841Y-77484816D01*
X64877378Y-77540001D01*
X64980166Y-77550502D01*
X66030183Y-77550501D01*
X66030191Y-77550500D01*
X66030194Y-77550500D01*
X66030202Y-77550499D01*
X66030492Y-77550481D01*
X66031508Y-77550365D01*
X66076634Y-77545755D01*
X66086478Y-77544750D01*
X66086478Y-77544749D01*
X66132972Y-77540001D01*
X66299509Y-77484816D01*
X66351106Y-77452990D01*
X66382346Y-77439241D01*
X66414264Y-77430185D01*
X66448072Y-77425479D01*
X68133813Y-77425164D01*
X68152463Y-77426573D01*
X68170811Y-77429364D01*
X68189038Y-77433563D01*
X68222804Y-77444086D01*
X68293384Y-77450500D01*
X68293387Y-77450500D01*
X68863346Y-77450500D01*
X68898281Y-77455523D01*
X68913279Y-77459927D01*
X68972030Y-77497672D01*
X68972054Y-77497700D01*
X68972057Y-77497702D01*
X68972058Y-77497704D01*
X68973217Y-77499041D01*
X69000693Y-77553902D01*
X69002338Y-77561460D01*
X69005175Y-77587831D01*
X69005175Y-83053605D01*
X67447428Y-83874502D01*
X67351297Y-83874502D01*
X67316356Y-83869477D01*
X67301357Y-83865072D01*
X67286360Y-83855434D01*
X67284258Y-83854817D01*
X67282823Y-83853161D01*
X67242591Y-83827306D01*
X67234735Y-83818241D01*
X67212261Y-83780367D01*
X67203796Y-83757671D01*
X67203793Y-83757666D01*
X67117547Y-83642457D01*
X67117544Y-83642454D01*
X67117542Y-83642452D01*
X67014329Y-83565187D01*
X67002335Y-83556208D01*
X67002332Y-83556206D01*
X67002330Y-83556205D01*
X67002328Y-83556204D01*
X66867482Y-83505910D01*
X66867483Y-83505910D01*
X66807883Y-83499503D01*
X66807881Y-83499502D01*
X66807873Y-83499502D01*
X66807864Y-83499502D01*
X66806841Y-83499502D01*
X65312123Y-83499502D01*
X65310192Y-83499661D01*
X65308545Y-83499887D01*
X65252516Y-83505910D01*
X65241548Y-83510001D01*
X65117666Y-83556206D01*
X65117665Y-83556207D01*
X65002456Y-83642452D01*
X65002450Y-83642458D01*
X64916205Y-83757667D01*
X64916201Y-83757673D01*
X64902481Y-83794460D01*
X64885566Y-83825437D01*
X64878164Y-83835325D01*
X64822231Y-83877197D01*
X64752539Y-83882181D01*
X64693560Y-83850979D01*
X64686249Y-83844044D01*
X64666047Y-83819176D01*
X64642713Y-83781345D01*
X64518657Y-83657289D01*
X64518656Y-83657288D01*
X64369334Y-83565186D01*
X64211265Y-83512807D01*
X64208445Y-83511641D01*
X64202792Y-83509999D01*
X64100019Y-83499500D01*
X64100010Y-83499500D01*
X63099998Y-83499500D01*
X63099980Y-83499501D01*
X63099972Y-83499501D01*
X63099953Y-83499503D01*
X62997197Y-83510000D01*
X62997193Y-83510001D01*
X62997032Y-83510056D01*
X62830667Y-83565185D01*
X62830665Y-83565186D01*
X62830663Y-83565187D01*
X62731115Y-83626588D01*
X62681340Y-83657290D01*
X62557290Y-83781340D01*
X62549198Y-83794460D01*
X62488715Y-83892519D01*
X62465185Y-83930667D01*
X62465178Y-83930685D01*
X62458073Y-83952127D01*
X62458073Y-83952132D01*
X62420299Y-84066123D01*
X62411852Y-84079067D01*
X62410365Y-84093630D01*
X62409542Y-84099881D01*
X62409359Y-84103476D01*
X62399500Y-84199973D01*
X62399500Y-84999998D01*
X62399503Y-85000045D01*
X62409702Y-85099883D01*
X62410000Y-85102796D01*
X62410001Y-85102799D01*
X62465185Y-85269331D01*
X62465187Y-85269336D01*
X62488755Y-85307546D01*
X62557287Y-85418655D01*
X62557288Y-85418656D01*
X62557289Y-85418657D01*
X62638344Y-85499712D01*
X62659495Y-85527967D01*
X62666987Y-85541688D01*
X62681839Y-85609948D01*
X62681710Y-85611754D01*
X62662342Y-85669956D01*
X62658163Y-85676459D01*
X62641527Y-85697103D01*
X62557291Y-85781338D01*
X62465187Y-85930662D01*
X62465152Y-85930770D01*
X62421050Y-86063857D01*
X62421044Y-86063875D01*
X62410001Y-86097203D01*
X62410001Y-86097204D01*
X62410000Y-86097204D01*
X62409231Y-86104733D01*
X62409229Y-86104741D01*
X62399500Y-86199973D01*
X62399500Y-86199983D01*
X62399500Y-87000001D01*
X62399501Y-87000019D01*
X62399503Y-87000043D01*
X62399504Y-87000050D01*
X62409999Y-87102794D01*
X62415725Y-87120074D01*
X62420157Y-87144827D01*
X62421945Y-87154814D01*
X62422422Y-87168684D01*
X62405053Y-87236360D01*
X62353870Y-87283895D01*
X62347751Y-87286949D01*
X62292376Y-87300000D01*
X61259064Y-87300000D01*
X61224124Y-87294975D01*
X61211944Y-87291398D01*
X61198779Y-87282936D01*
X61183612Y-87279066D01*
X61169985Y-87264430D01*
X61153167Y-87253621D01*
X61146666Y-87239385D01*
X61136001Y-87227930D01*
X61132450Y-87208252D01*
X61124145Y-87190064D01*
X61126206Y-87173650D01*
X61123594Y-87159170D01*
X61132320Y-87124977D01*
X61136008Y-87116073D01*
X61145009Y-87100270D01*
X61144722Y-87100114D01*
X61148972Y-87092331D01*
X61174845Y-87022962D01*
X61199266Y-86957485D01*
X61205675Y-86897875D01*
X61205674Y-85852130D01*
X61199266Y-85792519D01*
X61195403Y-85782163D01*
X61195097Y-85781342D01*
X61148973Y-85657675D01*
X61148972Y-85657673D01*
X61148970Y-85657670D01*
X61148968Y-85657666D01*
X61073359Y-85556666D01*
X61062723Y-85542458D01*
X61062721Y-85542456D01*
X61052689Y-85534946D01*
X61027740Y-85509995D01*
X61019420Y-85498881D01*
X60995007Y-85433418D01*
X61009855Y-85365157D01*
X61013582Y-85358330D01*
X61048105Y-85318488D01*
X61062721Y-85307548D01*
X61148971Y-85192333D01*
X61199266Y-85057485D01*
X61205675Y-84997875D01*
X61205674Y-83952130D01*
X61199266Y-83892519D01*
X61198907Y-83891559D01*
X61198904Y-83891511D01*
X61198892Y-83891516D01*
X61148973Y-83757675D01*
X61148972Y-83757673D01*
X61148970Y-83757670D01*
X61148968Y-83757666D01*
X61062722Y-83642457D01*
X61062719Y-83642454D01*
X61062717Y-83642452D01*
X60959504Y-83565187D01*
X60947510Y-83556208D01*
X60947507Y-83556206D01*
X60947505Y-83556205D01*
X60947503Y-83556204D01*
X60812657Y-83505910D01*
X60812658Y-83505910D01*
X60753058Y-83499503D01*
X60753056Y-83499502D01*
X60753048Y-83499502D01*
X60753039Y-83499502D01*
X60752016Y-83499502D01*
X59257298Y-83499502D01*
X59255367Y-83499661D01*
X59253720Y-83499887D01*
X59197691Y-83505910D01*
X59186723Y-83510001D01*
X59062841Y-83556206D01*
X59062840Y-83556207D01*
X58947631Y-83642452D01*
X58947628Y-83642455D01*
X58947623Y-83642461D01*
X58884071Y-83727355D01*
X58883428Y-83728206D01*
X58855652Y-83764650D01*
X58855504Y-83764569D01*
X58843738Y-83780283D01*
X58843356Y-83780785D01*
X58815662Y-83801146D01*
X58788056Y-83821808D01*
X58787506Y-83821847D01*
X58787063Y-83822173D01*
X58752763Y-83824328D01*
X58718364Y-83826786D01*
X58717865Y-83826522D01*
X58717331Y-83826556D01*
X58706080Y-83820286D01*
X58659389Y-83795580D01*
X58648918Y-83785646D01*
X58615352Y-83753802D01*
X58615456Y-83753691D01*
X58612888Y-83751520D01*
X58588723Y-83727355D01*
X58518657Y-83657289D01*
X58518656Y-83657288D01*
X58369334Y-83565186D01*
X58211265Y-83512807D01*
X58208445Y-83511641D01*
X58202792Y-83509999D01*
X58100019Y-83499500D01*
X58100010Y-83499500D01*
X57099998Y-83499500D01*
X57099980Y-83499501D01*
X57099972Y-83499501D01*
X57099953Y-83499503D01*
X56997197Y-83510000D01*
X56997193Y-83510001D01*
X56997032Y-83510056D01*
X56830667Y-83565185D01*
X56830665Y-83565186D01*
X56830663Y-83565187D01*
X56731115Y-83626588D01*
X56681340Y-83657290D01*
X56557290Y-83781340D01*
X56549198Y-83794460D01*
X56488715Y-83892519D01*
X56465185Y-83930667D01*
X56465178Y-83930685D01*
X56458073Y-83952127D01*
X56458073Y-83952132D01*
X56420299Y-84066123D01*
X56411852Y-84079068D01*
X56410365Y-84093628D01*
X56409542Y-84099877D01*
X56409359Y-84103479D01*
X56402349Y-84172088D01*
X56399219Y-84189834D01*
X56394845Y-84207161D01*
X56389179Y-84224263D01*
X56330264Y-84366498D01*
X56330263Y-84366502D01*
X56330257Y-84366527D01*
X56299500Y-84521150D01*
X56299500Y-84521153D01*
X56299500Y-84678846D01*
X56299500Y-84678848D01*
X56299499Y-84678848D01*
X56330257Y-84833471D01*
X56330264Y-84833502D01*
X56389179Y-84975736D01*
X56394847Y-84992840D01*
X56399223Y-85010176D01*
X56402352Y-85027922D01*
X56409359Y-85096511D01*
X56409530Y-85099883D01*
X56410001Y-85102801D01*
X56465182Y-85269322D01*
X56465186Y-85269335D01*
X56488752Y-85307542D01*
X56488753Y-85307543D01*
X56488755Y-85307546D01*
X56557287Y-85418655D01*
X56557288Y-85418656D01*
X56557289Y-85418657D01*
X56638344Y-85499712D01*
X56659495Y-85527967D01*
X56666987Y-85541688D01*
X56681839Y-85609948D01*
X56681710Y-85611754D01*
X56662342Y-85669956D01*
X56658163Y-85676459D01*
X56641527Y-85697103D01*
X56557291Y-85781338D01*
X56465187Y-85930662D01*
X56465152Y-85930770D01*
X56421044Y-86063875D01*
X56421038Y-86063894D01*
X56410001Y-86097203D01*
X56410001Y-86097204D01*
X56410000Y-86097204D01*
X56409231Y-86104728D01*
X56409230Y-86104733D01*
X56402349Y-86172088D01*
X56399219Y-86189834D01*
X56394845Y-86207161D01*
X56389179Y-86224263D01*
X56330264Y-86366498D01*
X56330263Y-86366502D01*
X56330257Y-86366527D01*
X56299500Y-86521150D01*
X56299500Y-86521153D01*
X56299500Y-86678846D01*
X56299500Y-86678848D01*
X56299499Y-86678848D01*
X56330257Y-86833471D01*
X56330263Y-86833499D01*
X56390052Y-86977842D01*
X56394528Y-86990566D01*
X56397524Y-87000835D01*
X56401845Y-87022962D01*
X56410000Y-87102795D01*
X56417547Y-87125570D01*
X56418661Y-87135553D01*
X56421655Y-87141394D01*
X56422901Y-87173527D01*
X56423250Y-87176652D01*
X56423162Y-87177541D01*
X56422830Y-87180540D01*
X56422840Y-87180837D01*
X56422445Y-87184876D01*
X56410709Y-87213988D01*
X56400725Y-87243755D01*
X56397748Y-87246141D01*
X56396323Y-87249679D01*
X56370706Y-87267828D01*
X56352218Y-87282655D01*
X56353043Y-87284308D01*
X56347738Y-87286955D01*
X56346491Y-87287248D01*
X56346218Y-87287468D01*
X56346210Y-87287472D01*
X56344856Y-87288029D01*
X56344707Y-87287668D01*
X56341706Y-87288376D01*
X56339313Y-87290072D01*
X56333367Y-87290341D01*
X56292376Y-87300000D01*
X55253889Y-87300000D01*
X55253884Y-87299999D01*
X55253883Y-87300000D01*
X55218949Y-87294975D01*
X55206769Y-87291398D01*
X55147992Y-87253621D01*
X55118970Y-87190064D01*
X55127146Y-87124974D01*
X55130833Y-87116073D01*
X55139834Y-87100270D01*
X55139547Y-87100114D01*
X55143797Y-87092331D01*
X55169670Y-87022962D01*
X55194091Y-86957485D01*
X55200500Y-86897875D01*
X55200499Y-85852130D01*
X55194091Y-85792519D01*
X55190228Y-85782163D01*
X55189922Y-85781342D01*
X55143798Y-85657675D01*
X55143797Y-85657673D01*
X55143795Y-85657670D01*
X55143793Y-85657666D01*
X55068184Y-85556666D01*
X55057548Y-85542458D01*
X55057546Y-85542456D01*
X55047514Y-85534946D01*
X55022565Y-85509995D01*
X55014245Y-85498881D01*
X54989832Y-85433418D01*
X55004680Y-85365157D01*
X55008407Y-85358330D01*
X55042930Y-85318488D01*
X55057546Y-85307548D01*
X55143796Y-85192333D01*
X55194091Y-85057485D01*
X55200500Y-84997875D01*
X55200499Y-83952130D01*
X55194091Y-83892519D01*
X55193732Y-83891559D01*
X55193729Y-83891511D01*
X55193717Y-83891516D01*
X55143798Y-83757675D01*
X55143797Y-83757673D01*
X55143795Y-83757670D01*
X55143793Y-83757666D01*
X55057547Y-83642457D01*
X55057544Y-83642454D01*
X55057542Y-83642452D01*
X54954329Y-83565187D01*
X54942335Y-83556208D01*
X54942332Y-83556206D01*
X54942330Y-83556205D01*
X54942328Y-83556204D01*
X54807482Y-83505910D01*
X54807483Y-83505910D01*
X54747883Y-83499503D01*
X54747881Y-83499502D01*
X54747873Y-83499502D01*
X54747864Y-83499502D01*
X54746841Y-83499502D01*
X53252123Y-83499502D01*
X53250192Y-83499661D01*
X53248545Y-83499887D01*
X53192516Y-83505910D01*
X53181548Y-83510001D01*
X53057666Y-83556206D01*
X53057665Y-83556207D01*
X52942456Y-83642452D01*
X52942450Y-83642458D01*
X52856205Y-83757667D01*
X52856203Y-83757670D01*
X52805907Y-83892518D01*
X52801807Y-83930669D01*
X52799500Y-83952130D01*
X52799500Y-84997878D01*
X52799659Y-84999808D01*
X52799885Y-85001456D01*
X52805907Y-85057484D01*
X52830361Y-85123046D01*
X52856202Y-85192330D01*
X52856206Y-85192337D01*
X52942452Y-85307546D01*
X52944069Y-85309706D01*
X52951318Y-85314184D01*
X52952469Y-85315045D01*
X52977434Y-85340009D01*
X52985753Y-85351123D01*
X52991983Y-85367829D01*
X53002667Y-85382104D01*
X53003937Y-85399886D01*
X53010166Y-85416589D01*
X53006375Y-85434010D01*
X53007646Y-85451796D01*
X52995310Y-85484864D01*
X52991587Y-85491681D01*
X52957074Y-85531510D01*
X52942454Y-85542455D01*
X52942450Y-85542459D01*
X52856205Y-85657667D01*
X52856203Y-85657670D01*
X52805908Y-85792518D01*
X52799500Y-85852127D01*
X52799500Y-86897878D01*
X52799659Y-86899808D01*
X52799885Y-86901456D01*
X52805907Y-86957484D01*
X52805908Y-86957486D01*
X52856201Y-87092329D01*
X52856204Y-87092335D01*
X52858673Y-87096334D01*
X52869340Y-87118133D01*
X52873871Y-87130279D01*
X52878860Y-87199970D01*
X52845378Y-87261295D01*
X52788369Y-87293764D01*
X52779044Y-87296145D01*
X52748367Y-87300000D01*
X50663972Y-87300000D01*
X50629033Y-87294976D01*
X50613774Y-87290495D01*
X50555328Y-87253099D01*
X50540227Y-87235812D01*
X50540226Y-87235812D01*
X50539371Y-87234833D01*
X50527217Y-87218350D01*
X50520333Y-87207189D01*
X50442712Y-87081344D01*
X50361656Y-87000288D01*
X50360519Y-86998770D01*
X50340504Y-86972032D01*
X50333012Y-86958311D01*
X50318160Y-86890051D01*
X50318289Y-86888242D01*
X50337655Y-86830047D01*
X50341848Y-86823523D01*
X50358465Y-86802902D01*
X50442712Y-86718656D01*
X50534814Y-86569334D01*
X50589999Y-86402797D01*
X50600500Y-86300009D01*
X50600499Y-85499992D01*
X50595531Y-85451362D01*
X50589999Y-85397203D01*
X50589998Y-85397200D01*
X50560290Y-85307547D01*
X50534814Y-85230666D01*
X50442712Y-85081344D01*
X50348921Y-84987553D01*
X50327774Y-84959302D01*
X50315167Y-84936213D01*
X50300000Y-84876788D01*
X50300000Y-81499995D01*
X53200001Y-81499995D01*
X53210493Y-81602694D01*
X53210493Y-81602695D01*
X53210494Y-81602697D01*
X53237349Y-81683740D01*
X53265488Y-81768659D01*
X53265641Y-81769119D01*
X53265643Y-81769124D01*
X53357684Y-81918345D01*
X53481654Y-82042315D01*
X53630875Y-82134356D01*
X53630880Y-82134358D01*
X53797299Y-82189504D01*
X53797300Y-82189504D01*
X53797302Y-82189505D01*
X53797309Y-82189506D01*
X53900019Y-82199999D01*
X54149999Y-82199999D01*
X54650000Y-82199999D01*
X54899960Y-82199999D01*
X54899972Y-82199999D01*
X54899986Y-82199998D01*
X55002697Y-82189505D01*
X55169119Y-82134358D01*
X55169124Y-82134356D01*
X55318345Y-82042315D01*
X55442315Y-81918345D01*
X55534356Y-81769124D01*
X55534358Y-81769119D01*
X55589505Y-81602697D01*
X55589506Y-81602690D01*
X55599999Y-81499986D01*
X55600000Y-81499973D01*
X55600000Y-81350000D01*
X54650000Y-81350000D01*
X54650000Y-82199999D01*
X54149999Y-82199999D01*
X54150000Y-82199998D01*
X54150000Y-81350000D01*
X53200001Y-81350000D01*
X53200001Y-81499995D01*
X50300000Y-81499995D01*
X50300000Y-80542328D01*
X50302022Y-80528268D01*
X50305023Y-80507392D01*
X50309427Y-80492394D01*
X50347172Y-80433643D01*
X50347200Y-80433618D01*
X50347199Y-80433618D01*
X50348541Y-80432455D01*
X50403420Y-80404976D01*
X50410979Y-80403332D01*
X50437332Y-80400499D01*
X50800002Y-80400499D01*
X50800008Y-80400499D01*
X50902797Y-80389999D01*
X51069334Y-80334814D01*
X51218656Y-80242712D01*
X51299717Y-80161650D01*
X51327964Y-80140505D01*
X51341688Y-80133011D01*
X51409946Y-80118160D01*
X51411756Y-80118289D01*
X51469953Y-80137655D01*
X51476471Y-80141844D01*
X51497106Y-80158474D01*
X51581344Y-80242712D01*
X51730666Y-80334814D01*
X51897203Y-80389999D01*
X51999991Y-80400500D01*
X52800008Y-80400499D01*
X52800016Y-80400498D01*
X52800019Y-80400498D01*
X52800027Y-80400497D01*
X52800317Y-80400479D01*
X52801333Y-80400363D01*
X52846459Y-80395753D01*
X52856303Y-80394748D01*
X52856303Y-80394747D01*
X52902797Y-80389999D01*
X53046966Y-80342225D01*
X53050269Y-80341425D01*
X53053221Y-80340335D01*
X53076861Y-80333861D01*
X53076862Y-80333862D01*
X53094201Y-80329114D01*
X53164058Y-80330394D01*
X53222134Y-80369239D01*
X53227872Y-80382438D01*
X53231009Y-80385089D01*
X53235790Y-80400653D01*
X53249990Y-80433316D01*
X53249992Y-80433337D01*
X53250581Y-80438051D01*
X53249781Y-80446194D01*
X53251528Y-80451878D01*
X53247981Y-80464540D01*
X53245244Y-80492428D01*
X53210496Y-80597292D01*
X53210493Y-80597304D01*
X53200000Y-80700005D01*
X53200000Y-80700010D01*
X53200000Y-80700013D01*
X53200000Y-80850000D01*
X55599999Y-80850000D01*
X55599999Y-80700028D01*
X55599998Y-80700013D01*
X55589505Y-80597302D01*
X55582110Y-80574985D01*
X60279675Y-80574985D01*
X60279675Y-80574998D01*
X60279675Y-80577952D01*
X60279675Y-80577953D01*
X60279676Y-81350000D01*
X60279676Y-81350029D01*
X60285355Y-81405621D01*
X60290175Y-81452798D01*
X60290176Y-81452801D01*
X60314099Y-81524994D01*
X60345361Y-81619336D01*
X60437463Y-81768658D01*
X60561519Y-81892714D01*
X60710841Y-81984816D01*
X60877378Y-82040001D01*
X60980166Y-82050502D01*
X62030183Y-82050501D01*
X62030191Y-82050500D01*
X62030194Y-82050500D01*
X62030198Y-82050499D01*
X62030498Y-82050480D01*
X62031536Y-82050362D01*
X62110319Y-82042315D01*
X62132972Y-82040001D01*
X62299509Y-81984816D01*
X62299520Y-81984808D01*
X62300391Y-81984404D01*
X62318982Y-81977481D01*
X62353454Y-81967706D01*
X62353458Y-81967705D01*
X62387285Y-81963002D01*
X62623065Y-81963002D01*
X62656896Y-81967706D01*
X62691365Y-81977481D01*
X62709943Y-81984397D01*
X62710833Y-81984811D01*
X62710841Y-81984816D01*
X62877378Y-82040001D01*
X62980166Y-82050502D01*
X64030183Y-82050501D01*
X64030191Y-82050500D01*
X64030194Y-82050500D01*
X64030198Y-82050499D01*
X64030498Y-82050480D01*
X64031536Y-82050362D01*
X64110319Y-82042315D01*
X64132972Y-82040001D01*
X64299509Y-81984816D01*
X64448831Y-81892714D01*
X64572887Y-81768658D01*
X64664989Y-81619336D01*
X64720174Y-81452799D01*
X64730675Y-81350011D01*
X64730674Y-80574994D01*
X64720174Y-80472205D01*
X64664989Y-80305668D01*
X64572887Y-80156346D01*
X64448831Y-80032290D01*
X64448830Y-80032289D01*
X64443728Y-80027187D01*
X64443804Y-80027110D01*
X64436689Y-80020431D01*
X64424315Y-80006674D01*
X64394118Y-79943666D01*
X64402779Y-79874336D01*
X64404188Y-79871092D01*
X64436713Y-79826801D01*
X64437956Y-79825724D01*
X64443024Y-79822004D01*
X64442858Y-79821794D01*
X64448512Y-79817323D01*
X64448517Y-79817320D01*
X64572490Y-79693347D01*
X64664531Y-79544126D01*
X64664533Y-79544121D01*
X64719680Y-79377699D01*
X64719681Y-79377692D01*
X64730174Y-79274988D01*
X64730175Y-79274975D01*
X64730175Y-79137502D01*
X60280176Y-79137502D01*
X60280176Y-79274997D01*
X60290668Y-79377696D01*
X60290668Y-79377697D01*
X60290669Y-79377699D01*
X60345816Y-79544121D01*
X60345818Y-79544126D01*
X60437859Y-79693347D01*
X60513843Y-79769331D01*
X60561835Y-79817323D01*
X60562092Y-79817546D01*
X60573039Y-79828297D01*
X60586032Y-79842742D01*
X60616230Y-79905749D01*
X60607569Y-79975080D01*
X60607569Y-79975081D01*
X60606163Y-79978317D01*
X60573639Y-80022614D01*
X60571391Y-80024562D01*
X60562607Y-80031505D01*
X60561534Y-80032276D01*
X60561515Y-80032292D01*
X60437463Y-80156345D01*
X60345361Y-80305667D01*
X60345352Y-80305693D01*
X60335703Y-80334810D01*
X60335703Y-80334814D01*
X60333247Y-80342226D01*
X60300474Y-80441125D01*
X60292027Y-80454069D01*
X60290540Y-80468632D01*
X60289717Y-80474883D01*
X60289562Y-80477915D01*
X60289571Y-80478106D01*
X60289530Y-80478516D01*
X60279675Y-80574985D01*
X55582110Y-80574985D01*
X55534358Y-80430880D01*
X55534356Y-80430875D01*
X55442315Y-80281654D01*
X55361302Y-80200641D01*
X55340150Y-80172385D01*
X55332658Y-80158664D01*
X55332617Y-80158474D01*
X55317806Y-80090404D01*
X55317935Y-80088595D01*
X55337299Y-80030402D01*
X55341483Y-80023890D01*
X55358118Y-80003249D01*
X55442709Y-79918659D01*
X55442709Y-79918658D01*
X55442712Y-79918656D01*
X55534814Y-79769334D01*
X55589999Y-79602797D01*
X55600500Y-79500009D01*
X55600499Y-78699992D01*
X55589999Y-78597203D01*
X55557792Y-78500009D01*
X60280175Y-78500009D01*
X60280175Y-78500012D01*
X60280175Y-78500015D01*
X60280175Y-78637502D01*
X61255175Y-78637502D01*
X61755175Y-78637502D01*
X63255175Y-78637502D01*
X63755175Y-78637502D01*
X64730174Y-78637502D01*
X64730174Y-78500030D01*
X64730173Y-78500015D01*
X64719680Y-78397304D01*
X64664533Y-78230882D01*
X64664531Y-78230877D01*
X64572490Y-78081656D01*
X64448520Y-77957686D01*
X64299299Y-77865645D01*
X64299294Y-77865643D01*
X64288807Y-77862168D01*
X64132874Y-77810496D01*
X64132869Y-77810495D01*
X64030166Y-77800002D01*
X64030161Y-77800002D01*
X63755175Y-77800002D01*
X63755175Y-78637502D01*
X63255175Y-78637502D01*
X63255175Y-77800002D01*
X62980212Y-77800002D01*
X62980204Y-77800002D01*
X62980194Y-77800002D01*
X62980181Y-77800003D01*
X62877479Y-77810495D01*
X62877477Y-77810496D01*
X62711065Y-77865639D01*
X62711046Y-77865646D01*
X62711042Y-77865648D01*
X62585447Y-77943118D01*
X62585445Y-77943120D01*
X62553854Y-77956845D01*
X62553074Y-77957184D01*
X62536795Y-77961638D01*
X62469132Y-77961010D01*
X62456056Y-77957170D01*
X62425900Y-77943733D01*
X62299299Y-77865645D01*
X62299294Y-77865643D01*
X62288807Y-77862168D01*
X62132874Y-77810496D01*
X62132869Y-77810495D01*
X62030166Y-77800002D01*
X62030161Y-77800002D01*
X61755175Y-77800002D01*
X61755175Y-78637502D01*
X61255175Y-78637502D01*
X61255175Y-77800002D01*
X60980212Y-77800002D01*
X60980204Y-77800002D01*
X60980194Y-77800002D01*
X60980181Y-77800003D01*
X60877479Y-77810495D01*
X60877477Y-77810496D01*
X60711062Y-77865640D01*
X60711054Y-77865643D01*
X60711052Y-77865644D01*
X60711050Y-77865645D01*
X60647095Y-77905093D01*
X60561827Y-77957687D01*
X60437860Y-78081654D01*
X60427357Y-78098682D01*
X60345983Y-78230611D01*
X60345816Y-78230881D01*
X60345813Y-78230890D01*
X60290669Y-78397301D01*
X60290668Y-78397306D01*
X60280175Y-78500009D01*
X55557792Y-78500009D01*
X55534814Y-78430666D01*
X55442712Y-78281344D01*
X55318656Y-78157288D01*
X55318652Y-78157285D01*
X55296252Y-78143468D01*
X55276186Y-78128058D01*
X55272531Y-78124604D01*
X55271314Y-78123251D01*
X55270804Y-78122972D01*
X55266025Y-78118456D01*
X55251060Y-78092803D01*
X55233902Y-78068567D01*
X55233650Y-78062957D01*
X55230819Y-78058104D01*
X55232099Y-78028425D01*
X55230768Y-77998768D01*
X55233692Y-77991510D01*
X55233831Y-77988300D01*
X55236525Y-77984480D01*
X55243916Y-77966139D01*
X55244305Y-77965468D01*
X55265205Y-77938693D01*
X55265411Y-77938493D01*
X55271066Y-77935512D01*
X55274105Y-77931205D01*
X55296387Y-77922167D01*
X55327222Y-77905918D01*
X55329725Y-77905438D01*
X55346195Y-77902467D01*
X55368201Y-77900500D01*
X55902404Y-77900500D01*
X55933330Y-77904946D01*
X55937336Y-77905521D01*
X55969150Y-77914863D01*
X56003098Y-77930735D01*
X56120814Y-78009390D01*
X56120827Y-78009397D01*
X56176698Y-78032539D01*
X56233256Y-78055966D01*
X56233257Y-78055966D01*
X56242380Y-78059745D01*
X56266503Y-78069737D01*
X56415795Y-78099433D01*
X56418045Y-78099969D01*
X56418109Y-78100005D01*
X56421155Y-78100500D01*
X56578844Y-78100500D01*
X56582964Y-78100500D01*
X56590814Y-78098118D01*
X56733497Y-78069737D01*
X56877716Y-78010000D01*
X56879172Y-78009397D01*
X56879172Y-78009396D01*
X56879179Y-78009394D01*
X57010289Y-77921789D01*
X57121789Y-77810289D01*
X57209394Y-77679179D01*
X57269737Y-77533497D01*
X57300500Y-77378842D01*
X57300500Y-77221158D01*
X57300500Y-77221155D01*
X57300500Y-77220973D01*
X57300065Y-77218971D01*
X57286940Y-77152988D01*
X57274750Y-77091706D01*
X57269737Y-77066503D01*
X57258596Y-77039606D01*
X57209397Y-76920827D01*
X57209390Y-76920814D01*
X57121789Y-76789711D01*
X57121786Y-76789707D01*
X57121781Y-76789701D01*
X57104934Y-76772854D01*
X60305175Y-76772854D01*
X60311575Y-76832372D01*
X60311577Y-76832379D01*
X60326847Y-76873321D01*
X60361820Y-76967088D01*
X60361824Y-76967095D01*
X60404662Y-77024319D01*
X60447982Y-77082187D01*
X60447984Y-77082189D01*
X60447987Y-77082192D01*
X60563081Y-77168352D01*
X60563088Y-77168356D01*
X60697795Y-77218598D01*
X60697802Y-77218600D01*
X60702387Y-77219093D01*
X60757313Y-77225000D01*
X60757330Y-77225001D01*
X60757347Y-77225002D01*
X61055175Y-77225002D01*
X61055175Y-76625002D01*
X60305175Y-76625002D01*
X60305175Y-76772854D01*
X57104934Y-76772854D01*
X57010297Y-76678217D01*
X57010294Y-76678215D01*
X57010292Y-76678213D01*
X57010288Y-76678210D01*
X57008091Y-76676742D01*
X57008089Y-76676740D01*
X56986783Y-76662503D01*
X56960531Y-76638923D01*
X56953278Y-76630244D01*
X56946160Y-76613893D01*
X56941979Y-76608890D01*
X56941166Y-76602422D01*
X56925391Y-76566183D01*
X56936566Y-76497213D01*
X56983252Y-76445233D01*
X56983556Y-76445045D01*
X56985285Y-76443979D01*
X57050412Y-76425499D01*
X57125002Y-76425499D01*
X57125008Y-76425499D01*
X57227797Y-76414999D01*
X57394334Y-76359814D01*
X57543656Y-76267712D01*
X57667712Y-76143656D01*
X57759814Y-75994334D01*
X57814999Y-75827797D01*
X57825500Y-75725009D01*
X57825499Y-74949992D01*
X57814999Y-74847203D01*
X57759814Y-74680666D01*
X57667712Y-74531344D01*
X57543656Y-74407288D01*
X57543655Y-74407287D01*
X57538553Y-74402185D01*
X57538629Y-74402108D01*
X57531514Y-74395429D01*
X57519140Y-74381672D01*
X57488943Y-74318664D01*
X57497604Y-74249334D01*
X57499013Y-74246090D01*
X57531538Y-74201799D01*
X57532781Y-74200722D01*
X57537849Y-74197002D01*
X57537683Y-74196792D01*
X57543335Y-74192322D01*
X57543342Y-74192318D01*
X57667315Y-74068345D01*
X57759356Y-73919124D01*
X57759358Y-73919119D01*
X57814505Y-73752697D01*
X57814506Y-73752690D01*
X57824999Y-73649986D01*
X57825000Y-73649973D01*
X57825000Y-73512500D01*
X55790827Y-73512500D01*
X55790825Y-73512500D01*
X55790823Y-73512500D01*
X55790822Y-73512501D01*
X55759083Y-73529832D01*
X55699657Y-73545000D01*
X53136000Y-73545000D01*
X53136000Y-73667852D01*
X53142400Y-73727370D01*
X53142402Y-73727377D01*
X53178754Y-73824842D01*
X53179332Y-73832937D01*
X53199653Y-73887739D01*
X53204872Y-73955703D01*
X53203149Y-73964125D01*
X53171657Y-74024579D01*
X53165756Y-74030804D01*
X53164532Y-74029644D01*
X53111774Y-74064432D01*
X53048938Y-74065275D01*
X53048584Y-74066901D01*
X53036452Y-74064259D01*
X53000838Y-74050487D01*
X52993797Y-74046422D01*
X52980429Y-74034797D01*
X52957842Y-74025663D01*
X52922786Y-74005423D01*
X52884603Y-73995192D01*
X52770057Y-73964499D01*
X52770054Y-73964499D01*
X52602443Y-73964499D01*
X52602380Y-73964500D01*
X50441830Y-73964500D01*
X50441825Y-73964499D01*
X50441823Y-73964500D01*
X50406889Y-73959475D01*
X50391890Y-73955070D01*
X50333144Y-73917327D01*
X50333115Y-73917293D01*
X50333114Y-73917293D01*
X50333113Y-73917291D01*
X50331957Y-73915958D01*
X50304477Y-73861083D01*
X50302832Y-73853521D01*
X50300000Y-73827168D01*
X50300000Y-72922146D01*
X53136000Y-72922146D01*
X53136000Y-72922155D01*
X53136000Y-73045000D01*
X54150000Y-73045000D01*
X54150000Y-72470000D01*
X53588146Y-72470000D01*
X53528628Y-72476400D01*
X53528621Y-72476402D01*
X53393910Y-72526646D01*
X53393907Y-72526648D01*
X53278813Y-72612807D01*
X53278807Y-72612813D01*
X53192648Y-72727907D01*
X53192646Y-72727910D01*
X53142402Y-72862621D01*
X53142400Y-72862628D01*
X53136000Y-72922146D01*
X50300000Y-72922146D01*
X50300000Y-72142328D01*
X50300719Y-72137330D01*
X50305023Y-72107392D01*
X50309427Y-72092394D01*
X50347172Y-72033643D01*
X50347200Y-72033618D01*
X50347199Y-72033618D01*
X50348541Y-72032455D01*
X50403420Y-72004976D01*
X50410979Y-72003332D01*
X50437332Y-72000499D01*
X50500002Y-72000499D01*
X50500008Y-72000499D01*
X50602797Y-71989999D01*
X50769334Y-71934814D01*
X50781167Y-71927514D01*
X50812429Y-71913757D01*
X50844351Y-71904704D01*
X50878179Y-71900001D01*
X51121819Y-71900001D01*
X51155651Y-71904706D01*
X51187566Y-71913757D01*
X51218829Y-71927512D01*
X51230666Y-71934814D01*
X51397203Y-71989999D01*
X51499991Y-72000500D01*
X52500008Y-72000499D01*
X52500016Y-72000498D01*
X52500019Y-72000498D01*
X52500027Y-72000497D01*
X52500317Y-72000479D01*
X52501333Y-72000363D01*
X52546459Y-71995753D01*
X52556303Y-71994748D01*
X52556303Y-71994747D01*
X52602797Y-71989999D01*
X52769334Y-71934814D01*
X52771920Y-71933218D01*
X52781166Y-71927516D01*
X52812431Y-71913757D01*
X52844353Y-71904704D01*
X52878180Y-71900001D01*
X53121816Y-71900001D01*
X53155646Y-71904705D01*
X53187563Y-71913756D01*
X53218832Y-71927515D01*
X53230659Y-71934810D01*
X53230661Y-71934811D01*
X53230666Y-71934814D01*
X53397203Y-71989999D01*
X53499991Y-72000500D01*
X54500008Y-72000499D01*
X54500016Y-72000498D01*
X54500019Y-72000498D01*
X54500027Y-72000497D01*
X54500317Y-72000479D01*
X54501333Y-72000363D01*
X54546459Y-71995753D01*
X54556303Y-71994748D01*
X54556303Y-71994747D01*
X54602797Y-71989999D01*
X54769334Y-71934814D01*
X54771920Y-71933218D01*
X54781166Y-71927516D01*
X54812433Y-71913757D01*
X54844353Y-71904704D01*
X54878181Y-71900001D01*
X55486028Y-71900001D01*
X55488675Y-71900381D01*
X55488677Y-71900276D01*
X55490233Y-71900298D01*
X55504220Y-71902616D01*
X55520952Y-71905021D01*
X55521848Y-71905284D01*
X55521777Y-71905525D01*
X55526811Y-71906359D01*
X55539022Y-71910329D01*
X55542718Y-71911414D01*
X55601498Y-71949186D01*
X55613325Y-71965293D01*
X55652031Y-72028043D01*
X55652032Y-72028044D01*
X55721885Y-72097897D01*
X55726263Y-72104400D01*
X55730212Y-72107102D01*
X55748431Y-72137330D01*
X55752122Y-72146069D01*
X55760072Y-72215485D01*
X55737162Y-72268622D01*
X55731253Y-72276516D01*
X55697082Y-72307747D01*
X55656656Y-72332682D01*
X55532682Y-72456655D01*
X55530315Y-72459615D01*
X55530060Y-72459411D01*
X55514897Y-72476489D01*
X55502480Y-72487655D01*
X55439472Y-72517844D01*
X55432235Y-72519021D01*
X55368997Y-72512811D01*
X55271389Y-72476406D01*
X55271378Y-72476402D01*
X55271370Y-72476400D01*
X55211849Y-72470000D01*
X55211844Y-72470000D01*
X54650000Y-72470000D01*
X54650000Y-73045000D01*
X55248173Y-73045000D01*
X55248175Y-73045000D01*
X55268438Y-73033935D01*
X55279917Y-73027668D01*
X55339343Y-73012500D01*
X57824999Y-73012500D01*
X57824999Y-72875032D01*
X57824999Y-72875028D01*
X57824998Y-72875013D01*
X57814505Y-72772302D01*
X57759358Y-72605880D01*
X57759356Y-72605875D01*
X57667315Y-72456654D01*
X57543343Y-72332682D01*
X57543341Y-72332680D01*
X57506432Y-72309915D01*
X57484978Y-72293175D01*
X57482065Y-72290335D01*
X57479749Y-72287761D01*
X57478895Y-72287246D01*
X57473962Y-72282438D01*
X57459224Y-72256252D01*
X57442389Y-72231362D01*
X57442257Y-72226103D01*
X57439694Y-72221549D01*
X57441409Y-72192301D01*
X57440646Y-72161888D01*
X57440944Y-72160763D01*
X57443601Y-72154903D01*
X57443784Y-72151799D01*
X57447031Y-72147343D01*
X57454547Y-72130772D01*
X57453822Y-72130378D01*
X57455035Y-72128149D01*
X57456822Y-72125758D01*
X57457963Y-72123243D01*
X57459892Y-72120379D01*
X57460524Y-72120805D01*
X57476272Y-72099739D01*
X57501034Y-72074977D01*
X57547968Y-72028044D01*
X57584122Y-71969426D01*
X57589468Y-71963640D01*
X57591199Y-71959149D01*
X57610650Y-71940712D01*
X57616423Y-71934464D01*
X57618001Y-71933308D01*
X57622460Y-71930259D01*
X57623733Y-71929113D01*
X57628097Y-71925920D01*
X57636392Y-71922927D01*
X57673857Y-71905066D01*
X57682593Y-71903080D01*
X57710061Y-71900000D01*
X60142410Y-71900000D01*
X60177342Y-71905021D01*
G37*
%TD.AperFunction*%
%TA.AperFunction,Conductor*%
G36*
X64877402Y-85196209D02*
G01*
X64881599Y-85198301D01*
X64885828Y-85198221D01*
X64904439Y-85209686D01*
X64909229Y-85212074D01*
X64703146Y-85320675D01*
X64734814Y-85269334D01*
X64734815Y-85269331D01*
X64737705Y-85264646D01*
X64748002Y-85250339D01*
X64753317Y-85243964D01*
X64756376Y-85240295D01*
X64756377Y-85240292D01*
X64757923Y-85238439D01*
X64815971Y-85199552D01*
X64874979Y-85195776D01*
X64877402Y-85196209D01*
G37*
%TD.AperFunction*%
%TD*%
%TA.AperFunction,Conductor*%
%TO.N,GND*%
G36*
X170215961Y-59597437D02*
G01*
X170228648Y-59601125D01*
X170274548Y-59653802D01*
X170285897Y-59705360D01*
X170314041Y-72866373D01*
X170294500Y-72933454D01*
X170241794Y-72979322D01*
X170190306Y-72990638D01*
X159442441Y-73013621D01*
X159375360Y-72994080D01*
X159329492Y-72941374D01*
X159318176Y-72889963D01*
X159318111Y-72866373D01*
X159310205Y-70000000D01*
X170200000Y-70000000D01*
X170200000Y-59581520D01*
X170215961Y-59597437D01*
G37*
%TD.AperFunction*%
%TD*%
%TA.AperFunction,Conductor*%
%TO.N,GND*%
G36*
X59639860Y-52677552D02*
G01*
X59648822Y-52676264D01*
X59672862Y-52687242D01*
X59698214Y-52694687D01*
X59704141Y-52701527D01*
X59712378Y-52705289D01*
X59726667Y-52727523D01*
X59743969Y-52747491D01*
X59746256Y-52758005D01*
X59750152Y-52764067D01*
X59755175Y-52799002D01*
X59755175Y-52925002D01*
X59881175Y-52925002D01*
X59948214Y-52944687D01*
X59993969Y-52997491D01*
X60005175Y-53049002D01*
X60005175Y-55601002D01*
X59985490Y-55668041D01*
X59932686Y-55713796D01*
X59881175Y-55725002D01*
X59755175Y-55725002D01*
X59755175Y-55851002D01*
X59735490Y-55918041D01*
X59682686Y-55963796D01*
X59631175Y-55975002D01*
X57079175Y-55975002D01*
X57012136Y-55955317D01*
X56966381Y-55902513D01*
X56955175Y-55851002D01*
X56955175Y-55725002D01*
X56829175Y-55725002D01*
X56762136Y-55705317D01*
X56716381Y-55652513D01*
X56705175Y-55601002D01*
X56705175Y-55475002D01*
X57205175Y-55475002D01*
X58105175Y-55475002D01*
X58605175Y-55475002D01*
X59505175Y-55475002D01*
X59505175Y-54575002D01*
X58605175Y-54575002D01*
X58605175Y-55475002D01*
X58105175Y-55475002D01*
X58105175Y-54575002D01*
X57205175Y-54575002D01*
X57205175Y-55475002D01*
X56705175Y-55475002D01*
X56705175Y-54075002D01*
X57205175Y-54075002D01*
X58105175Y-54075002D01*
X58605175Y-54075002D01*
X59505175Y-54075002D01*
X59505175Y-53175002D01*
X58605175Y-53175002D01*
X58605175Y-54075002D01*
X58105175Y-54075002D01*
X58105175Y-53175002D01*
X57205175Y-53175002D01*
X57205175Y-54075002D01*
X56705175Y-54075002D01*
X56705175Y-53049002D01*
X56724860Y-52981963D01*
X56777664Y-52936208D01*
X56829175Y-52925002D01*
X56955175Y-52925002D01*
X56955175Y-52799002D01*
X56974860Y-52731963D01*
X57027664Y-52686208D01*
X57079175Y-52675002D01*
X59631175Y-52675002D01*
X59639860Y-52677552D01*
G37*
%TD.AperFunction*%
%TD*%
%TA.AperFunction,Conductor*%
%TO.N,+3V3*%
G36*
X131042606Y-67105023D02*
G01*
X131057604Y-67109427D01*
X131072594Y-67119057D01*
X131089675Y-67124067D01*
X131116355Y-67147172D01*
X131117542Y-67148541D01*
X131145018Y-67203402D01*
X131146663Y-67210960D01*
X131149500Y-67237331D01*
X131149500Y-70600024D01*
X131160174Y-70704502D01*
X131162415Y-70710083D01*
X131215184Y-70869331D01*
X131215190Y-70869343D01*
X131278558Y-70972076D01*
X131307286Y-71018651D01*
X131307289Y-71018655D01*
X131307291Y-71018657D01*
X131307293Y-71018660D01*
X131431338Y-71142705D01*
X131431341Y-71142707D01*
X131431344Y-71142710D01*
X131431348Y-71142713D01*
X131580662Y-71234812D01*
X131580664Y-71234813D01*
X131580666Y-71234814D01*
X131747203Y-71289999D01*
X131849992Y-71300500D01*
X131849997Y-71300500D01*
X133550003Y-71300500D01*
X133550008Y-71300500D01*
X133652797Y-71289999D01*
X133819334Y-71234814D01*
X133968655Y-71142711D01*
X134092711Y-71018655D01*
X134184814Y-70869334D01*
X134239999Y-70702797D01*
X134250500Y-70600008D01*
X134250500Y-67241829D01*
X134255523Y-67206893D01*
X134259927Y-67191895D01*
X134297672Y-67133144D01*
X134297700Y-67133119D01*
X134297699Y-67133119D01*
X134299041Y-67131956D01*
X134353920Y-67104477D01*
X134361479Y-67102833D01*
X134387832Y-67100000D01*
X140152883Y-67100000D01*
X140187818Y-67105023D01*
X140202816Y-67109427D01*
X140261591Y-67147199D01*
X140268539Y-67155217D01*
X140292534Y-67197418D01*
X140345375Y-67356879D01*
X140350264Y-67377269D01*
X140352405Y-67391370D01*
X140350006Y-67409040D01*
X140352682Y-67426672D01*
X140345404Y-67442942D01*
X140343007Y-67460605D01*
X140331435Y-67474174D01*
X140324154Y-67490453D01*
X140309236Y-67500205D01*
X140297670Y-67513768D01*
X140280598Y-67518927D01*
X140265672Y-67528685D01*
X140230796Y-67533977D01*
X140230787Y-67533980D01*
X140230778Y-67533980D01*
X140221810Y-67534050D01*
X140181839Y-67527760D01*
X140061266Y-67487807D01*
X140058448Y-67486642D01*
X140052792Y-67484999D01*
X139950019Y-67474500D01*
X139950010Y-67474500D01*
X139174998Y-67474500D01*
X139174980Y-67474501D01*
X139174972Y-67474501D01*
X139174953Y-67474503D01*
X139072197Y-67485000D01*
X139072193Y-67485001D01*
X139072032Y-67485056D01*
X138905667Y-67540185D01*
X138905665Y-67540186D01*
X138905663Y-67540187D01*
X138806115Y-67601588D01*
X138756340Y-67632290D01*
X138632290Y-67756340D01*
X138612761Y-67788002D01*
X138540211Y-67905625D01*
X138540185Y-67905667D01*
X138540180Y-67905680D01*
X138512349Y-67989668D01*
X138512349Y-67989671D01*
X138495299Y-68041123D01*
X138486852Y-68054068D01*
X138485364Y-68068635D01*
X138484542Y-68074877D01*
X138484359Y-68078476D01*
X138474500Y-68174973D01*
X138474500Y-68174980D01*
X138474500Y-68174983D01*
X138474500Y-69225001D01*
X138474500Y-69225009D01*
X138474503Y-69225045D01*
X138485000Y-69327795D01*
X138485000Y-69327796D01*
X138485001Y-69327799D01*
X138540185Y-69494331D01*
X138540186Y-69494334D01*
X138632288Y-69643656D01*
X138756344Y-69767712D01*
X138905666Y-69859814D01*
X139072203Y-69914999D01*
X139174991Y-69925500D01*
X139950008Y-69925499D01*
X139950016Y-69925498D01*
X139950019Y-69925498D01*
X139950027Y-69925497D01*
X139950317Y-69925479D01*
X139951333Y-69925363D01*
X139996459Y-69920753D01*
X140006303Y-69919748D01*
X140006303Y-69919747D01*
X140052797Y-69914999D01*
X140219334Y-69859814D01*
X140368656Y-69767712D01*
X140492712Y-69643656D01*
X140584814Y-69494334D01*
X140639999Y-69327797D01*
X140650500Y-69225009D01*
X140650499Y-68174992D01*
X140639999Y-68072203D01*
X140584814Y-67905666D01*
X140584811Y-67905662D01*
X140584799Y-67905625D01*
X140579913Y-67885248D01*
X140577769Y-67871132D01*
X140587164Y-67801900D01*
X140632499Y-67748735D01*
X140699378Y-67728520D01*
X140708351Y-67728449D01*
X140748332Y-67734738D01*
X140877378Y-67777501D01*
X140980166Y-67788002D01*
X142030183Y-67788001D01*
X142030191Y-67788000D01*
X142030194Y-67788000D01*
X142030202Y-67787999D01*
X142030492Y-67787981D01*
X142031508Y-67787865D01*
X142076634Y-67783255D01*
X142086478Y-67782250D01*
X142086478Y-67782249D01*
X142132972Y-67777501D01*
X142299509Y-67722316D01*
X142390900Y-67665944D01*
X142423255Y-67651886D01*
X142438344Y-67647758D01*
X142508185Y-67649048D01*
X142512732Y-67650476D01*
X142560952Y-67678829D01*
X142562803Y-67680585D01*
X142576727Y-67696232D01*
X142622629Y-67757548D01*
X142649284Y-67777502D01*
X142663309Y-67788001D01*
X142737839Y-67843795D01*
X142737846Y-67843799D01*
X142764731Y-67853826D01*
X142764735Y-67853829D01*
X142764736Y-67853828D01*
X142872691Y-67894093D01*
X142898594Y-67896877D01*
X142932302Y-67900502D01*
X143012238Y-67900501D01*
X143047168Y-67905522D01*
X143077092Y-67914309D01*
X143115043Y-67932968D01*
X143199757Y-67994517D01*
X143199761Y-67994520D01*
X143199770Y-67994526D01*
X143282629Y-68036744D01*
X143368692Y-68080596D01*
X143368693Y-68080597D01*
X143370299Y-68081537D01*
X143374027Y-68083343D01*
X143376003Y-68084325D01*
X143379763Y-68085385D01*
X143475493Y-68116489D01*
X143562348Y-68144711D01*
X143756753Y-68175502D01*
X143756758Y-68175502D01*
X143953595Y-68175502D01*
X143953597Y-68175502D01*
X144097005Y-68152787D01*
X144106659Y-68151645D01*
X144107693Y-68151563D01*
X144116360Y-68150882D01*
X144126085Y-68150500D01*
X144970500Y-68150500D01*
X145037539Y-68170185D01*
X145083294Y-68222989D01*
X145094500Y-68274500D01*
X145094500Y-74055500D01*
X145094501Y-74055509D01*
X145106052Y-74162950D01*
X145106054Y-74162962D01*
X145117260Y-74214472D01*
X145151383Y-74316997D01*
X145151386Y-74317003D01*
X145229171Y-74438037D01*
X145229179Y-74438048D01*
X145274923Y-74490840D01*
X145274926Y-74490843D01*
X145274930Y-74490847D01*
X145383664Y-74585067D01*
X145427512Y-74605092D01*
X145480315Y-74650846D01*
X145500000Y-74717886D01*
X145500000Y-77055153D01*
X145499999Y-77055159D01*
X145500000Y-77055163D01*
X145495136Y-77088971D01*
X145494974Y-77090098D01*
X145491136Y-77103165D01*
X145453357Y-77161940D01*
X145389799Y-77190959D01*
X145327791Y-77184010D01*
X145320077Y-77181054D01*
X145295559Y-77168367D01*
X145179190Y-77090612D01*
X145179185Y-77090609D01*
X145179184Y-77090608D01*
X145179176Y-77090603D01*
X145179166Y-77090598D01*
X145033502Y-77030264D01*
X145033471Y-77030257D01*
X144878847Y-76999500D01*
X144878845Y-76999500D01*
X144878842Y-76999500D01*
X144721158Y-76999500D01*
X144721155Y-76999500D01*
X144721153Y-76999500D01*
X144566527Y-77030257D01*
X144566496Y-77030264D01*
X144420833Y-77090598D01*
X144420824Y-77090603D01*
X144420807Y-77090613D01*
X144289708Y-77178211D01*
X144289707Y-77178212D01*
X144289701Y-77178217D01*
X144178217Y-77289701D01*
X144178212Y-77289707D01*
X144178211Y-77289708D01*
X144090613Y-77420807D01*
X144090603Y-77420824D01*
X144090598Y-77420833D01*
X144030264Y-77566496D01*
X144030257Y-77566527D01*
X143999500Y-77721150D01*
X143999500Y-77721153D01*
X143999500Y-77721158D01*
X143999500Y-77878842D01*
X143999500Y-77878844D01*
X143999499Y-77878844D01*
X144004170Y-77902325D01*
X144004700Y-77910474D01*
X144003685Y-77914993D01*
X144004467Y-77929569D01*
X144003230Y-77943390D01*
X143989466Y-77978370D01*
X143989404Y-77978649D01*
X143989327Y-77978724D01*
X143977648Y-78008408D01*
X143920984Y-78049270D01*
X143910600Y-78052934D01*
X143869340Y-78060000D01*
X127341830Y-78060000D01*
X127341825Y-78059999D01*
X127341823Y-78060000D01*
X127306889Y-78054975D01*
X127291890Y-78050570D01*
X127233144Y-78012827D01*
X127233115Y-78012793D01*
X127233114Y-78012793D01*
X127233113Y-78012791D01*
X127231957Y-78011458D01*
X127204477Y-77956583D01*
X127202832Y-77949021D01*
X127200000Y-77922668D01*
X127200000Y-67241829D01*
X127205023Y-67206893D01*
X127209427Y-67191895D01*
X127247172Y-67133144D01*
X127247200Y-67133119D01*
X127247199Y-67133119D01*
X127248541Y-67131956D01*
X127303420Y-67104477D01*
X127310979Y-67102833D01*
X127337332Y-67100000D01*
X131007670Y-67100000D01*
X131042606Y-67105023D01*
G37*
%TD.AperFunction*%
%TD*%
%TA.AperFunction,Conductor*%
%TO.N,Net-(J4-Pin_1)*%
G36*
X101898281Y-70980025D02*
G01*
X101913279Y-70984429D01*
X101928269Y-70994059D01*
X101945350Y-70999069D01*
X101972030Y-71022174D01*
X101973217Y-71023543D01*
X102000693Y-71078404D01*
X102002338Y-71085962D01*
X102005175Y-71112333D01*
X102005175Y-87758170D01*
X102000150Y-87793114D01*
X101995745Y-87808112D01*
X101986114Y-87823101D01*
X101981107Y-87840175D01*
X101958002Y-87866855D01*
X101956633Y-87868042D01*
X101901772Y-87895518D01*
X101894214Y-87897163D01*
X101867843Y-87900000D01*
X77647005Y-87900000D01*
X77612064Y-87894975D01*
X77597065Y-87890570D01*
X77582077Y-87880940D01*
X77564999Y-87875932D01*
X77538319Y-87852827D01*
X77537132Y-87851458D01*
X77509652Y-87796583D01*
X77508007Y-87789021D01*
X77505175Y-87762668D01*
X77505175Y-86278936D01*
X77510197Y-86244003D01*
X77517609Y-86218758D01*
X77548903Y-86166015D01*
X77627139Y-86087781D01*
X77736631Y-85923914D01*
X77812051Y-85741835D01*
X77850500Y-85548540D01*
X77850500Y-85351460D01*
X77850500Y-85351457D01*
X77850500Y-85351278D01*
X77850074Y-85349320D01*
X77812713Y-85161494D01*
X77812298Y-85159067D01*
X77812051Y-85158169D01*
X77812051Y-85158164D01*
X77774341Y-85067125D01*
X77736632Y-84976087D01*
X77627137Y-84812215D01*
X77627132Y-84812210D01*
X77554097Y-84739175D01*
X77532947Y-84710920D01*
X77520341Y-84687832D01*
X77505175Y-84628409D01*
X77505175Y-75600000D01*
X76629500Y-75600000D01*
X76562461Y-75580315D01*
X76516706Y-75527511D01*
X76505500Y-75476000D01*
X76505500Y-74724512D01*
X76505500Y-74724502D01*
X76493947Y-74617046D01*
X76482741Y-74565535D01*
X76482637Y-74565224D01*
X76448616Y-74463004D01*
X76448613Y-74462998D01*
X76370828Y-74341964D01*
X76370825Y-74341959D01*
X76342610Y-74309397D01*
X76325076Y-74289161D01*
X76325072Y-74289158D01*
X76325070Y-74289155D01*
X76216336Y-74194935D01*
X76216333Y-74194933D01*
X76216331Y-74194932D01*
X76085465Y-74135166D01*
X76085460Y-74135164D01*
X76085459Y-74135164D01*
X76018420Y-74115479D01*
X76018422Y-74115479D01*
X76018417Y-74115478D01*
X75970944Y-74108652D01*
X75876000Y-74095002D01*
X75875998Y-74095002D01*
X73936617Y-74095002D01*
X73917219Y-74093475D01*
X73781824Y-74072030D01*
X73762903Y-74067488D01*
X73632499Y-74025116D01*
X73614524Y-74017670D01*
X73492383Y-73955437D01*
X73475794Y-73945272D01*
X73364862Y-73864674D01*
X73350072Y-73852042D01*
X73222408Y-73724378D01*
X73182168Y-73688231D01*
X73182162Y-73688225D01*
X73170526Y-73678848D01*
X99799499Y-73678848D01*
X99830257Y-73833471D01*
X99830264Y-73833502D01*
X99890598Y-73979165D01*
X99890603Y-73979174D01*
X99890613Y-73979191D01*
X99978211Y-74110290D01*
X99978212Y-74110291D01*
X99978217Y-74110297D01*
X100089701Y-74221781D01*
X100089707Y-74221786D01*
X100089711Y-74221789D01*
X100220814Y-74309390D01*
X100220827Y-74309397D01*
X100366498Y-74369735D01*
X100366503Y-74369737D01*
X100521153Y-74400499D01*
X100521156Y-74400500D01*
X100521158Y-74400500D01*
X100678844Y-74400500D01*
X100678845Y-74400499D01*
X100833497Y-74369737D01*
X100979179Y-74309394D01*
X101110289Y-74221789D01*
X101221789Y-74110289D01*
X101309394Y-73979179D01*
X101369737Y-73833497D01*
X101400500Y-73678842D01*
X101400500Y-73521158D01*
X101400500Y-73521155D01*
X101400500Y-73520973D01*
X101400065Y-73518972D01*
X101389829Y-73467512D01*
X101370395Y-73369816D01*
X101369994Y-73367467D01*
X101369738Y-73366508D01*
X101369737Y-73366506D01*
X101369737Y-73366503D01*
X101369735Y-73366498D01*
X101309397Y-73220827D01*
X101309390Y-73220814D01*
X101221789Y-73089711D01*
X101221786Y-73089707D01*
X101221781Y-73089701D01*
X101110297Y-72978217D01*
X101110291Y-72978212D01*
X101110290Y-72978211D01*
X100979191Y-72890613D01*
X100979190Y-72890612D01*
X100979185Y-72890609D01*
X100979172Y-72890602D01*
X100979165Y-72890598D01*
X100833502Y-72830264D01*
X100833471Y-72830257D01*
X100678847Y-72799500D01*
X100678845Y-72799500D01*
X100678842Y-72799500D01*
X100521158Y-72799500D01*
X100521155Y-72799500D01*
X100521153Y-72799500D01*
X100366527Y-72830257D01*
X100366496Y-72830264D01*
X100220833Y-72890598D01*
X100220824Y-72890603D01*
X100220807Y-72890613D01*
X100089708Y-72978211D01*
X100089707Y-72978212D01*
X100089701Y-72978217D01*
X99978217Y-73089701D01*
X99978212Y-73089707D01*
X99978211Y-73089708D01*
X99890613Y-73220807D01*
X99890603Y-73220824D01*
X99890598Y-73220833D01*
X99830264Y-73366496D01*
X99830257Y-73366527D01*
X99799500Y-73521150D01*
X99799500Y-73521153D01*
X99799500Y-73678846D01*
X99799500Y-73678848D01*
X99799499Y-73678848D01*
X73170526Y-73678848D01*
X73161521Y-73671591D01*
X73117618Y-73639932D01*
X73117614Y-73639929D01*
X73100392Y-73632064D01*
X73091175Y-73627855D01*
X73091173Y-73627853D01*
X72986740Y-73580161D01*
X72986737Y-73580160D01*
X72919698Y-73560476D01*
X72919695Y-73560475D01*
X72919690Y-73560474D01*
X72777284Y-73540001D01*
X72419175Y-73540001D01*
X72352136Y-73520316D01*
X72306381Y-73467512D01*
X72295175Y-73416001D01*
X72295175Y-72784002D01*
X72314860Y-72716963D01*
X72367664Y-72671208D01*
X72419175Y-72660002D01*
X72777286Y-72660002D01*
X72782972Y-72659697D01*
X72831326Y-72657105D01*
X72857683Y-72654271D01*
X72911084Y-72645618D01*
X73045893Y-72595339D01*
X73107217Y-72561855D01*
X73107224Y-72561851D01*
X73222406Y-72475628D01*
X73350085Y-72347948D01*
X73364861Y-72335328D01*
X73475792Y-72254731D01*
X73492369Y-72244573D01*
X73614539Y-72182324D01*
X73632499Y-72174885D01*
X73762896Y-72132515D01*
X73781806Y-72127975D01*
X73871463Y-72113775D01*
X73917229Y-72106528D01*
X73936625Y-72105002D01*
X75875990Y-72105002D01*
X75876000Y-72105002D01*
X75983456Y-72093449D01*
X76034967Y-72082243D01*
X76069197Y-72070849D01*
X76137497Y-72048118D01*
X76137501Y-72048115D01*
X76137504Y-72048115D01*
X76258543Y-71970327D01*
X76311347Y-71924572D01*
X76405567Y-71815838D01*
X76465338Y-71684961D01*
X76485023Y-71617922D01*
X76485024Y-71617918D01*
X76505500Y-71475502D01*
X76505500Y-71099002D01*
X76525185Y-71031963D01*
X76577989Y-70986208D01*
X76629500Y-70975002D01*
X101863345Y-70975002D01*
X101898281Y-70980025D01*
G37*
%TD.AperFunction*%
%TD*%
%TA.AperFunction,Conductor*%
%TO.N,GND*%
G36*
X170143039Y-57419685D02*
G01*
X170188794Y-57472489D01*
X170200000Y-57524000D01*
X170200000Y-70000000D01*
X154920067Y-70000000D01*
X154853028Y-69980315D01*
X154807273Y-69927511D01*
X154797329Y-69858353D01*
X154826354Y-69794797D01*
X154832378Y-69788326D01*
X156473524Y-68147182D01*
X167773471Y-68147182D01*
X167773471Y-68304875D01*
X167804232Y-68459518D01*
X167804235Y-68459530D01*
X167864573Y-68605201D01*
X167864580Y-68605214D01*
X167952181Y-68736317D01*
X167952184Y-68736321D01*
X168063678Y-68847815D01*
X168063682Y-68847818D01*
X168194785Y-68935419D01*
X168194798Y-68935426D01*
X168340469Y-68995764D01*
X168340474Y-68995766D01*
X168487447Y-69025001D01*
X168495124Y-69026528D01*
X168495127Y-69026529D01*
X168495129Y-69026529D01*
X168652815Y-69026529D01*
X168652816Y-69026528D01*
X168807468Y-68995766D01*
X168953150Y-68935423D01*
X169084260Y-68847818D01*
X169195760Y-68736318D01*
X169283365Y-68605208D01*
X169343708Y-68459526D01*
X169374471Y-68304871D01*
X169374471Y-68147187D01*
X169374471Y-68147184D01*
X169374470Y-68147182D01*
X169343709Y-67992539D01*
X169343708Y-67992532D01*
X169326298Y-67950500D01*
X169283368Y-67846856D01*
X169283361Y-67846843D01*
X169195760Y-67715740D01*
X169195757Y-67715736D01*
X169084263Y-67604242D01*
X169084259Y-67604239D01*
X168953156Y-67516638D01*
X168953143Y-67516631D01*
X168807472Y-67456293D01*
X168807460Y-67456290D01*
X168652816Y-67425529D01*
X168652813Y-67425529D01*
X168495129Y-67425529D01*
X168495126Y-67425529D01*
X168340481Y-67456290D01*
X168340469Y-67456293D01*
X168194798Y-67516631D01*
X168194785Y-67516638D01*
X168063682Y-67604239D01*
X168063678Y-67604242D01*
X167952184Y-67715736D01*
X167952181Y-67715740D01*
X167864580Y-67846843D01*
X167864573Y-67846856D01*
X167804235Y-67992527D01*
X167804232Y-67992539D01*
X167773471Y-68147182D01*
X156473524Y-68147182D01*
X156633887Y-67986819D01*
X156695210Y-67953334D01*
X156721568Y-67950500D01*
X158300003Y-67950500D01*
X158300008Y-67950500D01*
X158402797Y-67939999D01*
X158569334Y-67884814D01*
X158718655Y-67792711D01*
X158842711Y-67668655D01*
X158934814Y-67519334D01*
X158989999Y-67352797D01*
X159000500Y-67250008D01*
X159000500Y-67249985D01*
X162200000Y-67249985D01*
X162210493Y-67352689D01*
X162210494Y-67352696D01*
X162265641Y-67519118D01*
X162265643Y-67519123D01*
X162357684Y-67668344D01*
X162481655Y-67792315D01*
X162630876Y-67884356D01*
X162630881Y-67884358D01*
X162797303Y-67939505D01*
X162797310Y-67939506D01*
X162900014Y-67949999D01*
X162900027Y-67950000D01*
X164750000Y-67950000D01*
X165250000Y-67950000D01*
X167099973Y-67950000D01*
X167099985Y-67949999D01*
X167202689Y-67939506D01*
X167202696Y-67939505D01*
X167369118Y-67884358D01*
X167369123Y-67884356D01*
X167518344Y-67792315D01*
X167642315Y-67668344D01*
X167734356Y-67519123D01*
X167734358Y-67519118D01*
X167789505Y-67352696D01*
X167789506Y-67352689D01*
X167799999Y-67249985D01*
X167800000Y-67249972D01*
X167800000Y-66650000D01*
X165250000Y-66650000D01*
X165250000Y-67950000D01*
X164750000Y-67950000D01*
X164750000Y-66650000D01*
X162200000Y-66650000D01*
X162200000Y-67249985D01*
X159000500Y-67249985D01*
X159000500Y-65550014D01*
X162200000Y-65550014D01*
X162200000Y-66150000D01*
X164750000Y-66150000D01*
X165250000Y-66150000D01*
X167800000Y-66150000D01*
X167800000Y-65550027D01*
X167799999Y-65550014D01*
X167789506Y-65447310D01*
X167789505Y-65447303D01*
X167734358Y-65280881D01*
X167734356Y-65280876D01*
X167642315Y-65131655D01*
X167518344Y-65007684D01*
X167369123Y-64915643D01*
X167369118Y-64915641D01*
X167202696Y-64860494D01*
X167202689Y-64860493D01*
X167099985Y-64850000D01*
X165250000Y-64850000D01*
X165250000Y-66150000D01*
X164750000Y-66150000D01*
X164750000Y-64850000D01*
X162900014Y-64850000D01*
X162797310Y-64860493D01*
X162797303Y-64860494D01*
X162630881Y-64915641D01*
X162630876Y-64915643D01*
X162481655Y-65007684D01*
X162357684Y-65131655D01*
X162265643Y-65280876D01*
X162265641Y-65280881D01*
X162210494Y-65447303D01*
X162210493Y-65447310D01*
X162200000Y-65550014D01*
X159000500Y-65550014D01*
X159000500Y-65549992D01*
X158989999Y-65447203D01*
X158934814Y-65280666D01*
X158874368Y-65182669D01*
X158842713Y-65131348D01*
X158842710Y-65131344D01*
X158718655Y-65007289D01*
X158718651Y-65007286D01*
X158569337Y-64915187D01*
X158569335Y-64915186D01*
X158468120Y-64881647D01*
X158402797Y-64860001D01*
X158402795Y-64860000D01*
X158300015Y-64849500D01*
X158300008Y-64849500D01*
X154099992Y-64849500D01*
X154099984Y-64849500D01*
X153997204Y-64860000D01*
X153997203Y-64860001D01*
X153830664Y-64915186D01*
X153830662Y-64915187D01*
X153681348Y-65007286D01*
X153681344Y-65007289D01*
X153637804Y-65050829D01*
X153576481Y-65084313D01*
X153506789Y-65079328D01*
X153475813Y-65062414D01*
X153367330Y-64981203D01*
X153367328Y-64981202D01*
X153232482Y-64930908D01*
X153232483Y-64930908D01*
X153172883Y-64924501D01*
X153172881Y-64924500D01*
X153172873Y-64924500D01*
X153172864Y-64924500D01*
X151627129Y-64924500D01*
X151627123Y-64924501D01*
X151567515Y-64930909D01*
X151477808Y-64964367D01*
X151408117Y-64969351D01*
X151360165Y-64947452D01*
X151272263Y-64881648D01*
X151272261Y-64881647D01*
X151137554Y-64831405D01*
X151137547Y-64831403D01*
X151078019Y-64825002D01*
X150405175Y-64825002D01*
X150405175Y-69025002D01*
X151078003Y-69025002D01*
X151078019Y-69025001D01*
X151137547Y-69018600D01*
X151137554Y-69018598D01*
X151272261Y-68968356D01*
X151272263Y-68968354D01*
X151387364Y-68882190D01*
X151389491Y-68880064D01*
X151392132Y-68878621D01*
X151394464Y-68876876D01*
X151394714Y-68877211D01*
X151450812Y-68846575D01*
X151520502Y-68851555D01*
X151546199Y-68861140D01*
X151567511Y-68869089D01*
X151567512Y-68869089D01*
X151567517Y-68869091D01*
X151627127Y-68875500D01*
X152616002Y-68875499D01*
X152683041Y-68895183D01*
X152728796Y-68947987D01*
X152738740Y-69017146D01*
X152709715Y-69080702D01*
X152703683Y-69087180D01*
X147647684Y-74143181D01*
X147586361Y-74176666D01*
X147560003Y-74179500D01*
X145724000Y-74179500D01*
X145656961Y-74159815D01*
X145611206Y-74107011D01*
X145600000Y-74055500D01*
X145600000Y-68572846D01*
X148780175Y-68572846D01*
X148786576Y-68632374D01*
X148786578Y-68632381D01*
X148836820Y-68767088D01*
X148836824Y-68767095D01*
X148922984Y-68882189D01*
X148922987Y-68882192D01*
X149038081Y-68968352D01*
X149038088Y-68968356D01*
X149172795Y-69018598D01*
X149172802Y-69018600D01*
X149232330Y-69025001D01*
X149232347Y-69025002D01*
X149905175Y-69025002D01*
X149905175Y-67175002D01*
X148780175Y-67175002D01*
X148780175Y-68572846D01*
X145600000Y-68572846D01*
X145600000Y-65277157D01*
X148780175Y-65277157D01*
X148780175Y-66675002D01*
X149905175Y-66675002D01*
X149905175Y-64825002D01*
X149232330Y-64825002D01*
X149172802Y-64831403D01*
X149172795Y-64831405D01*
X149038088Y-64881647D01*
X149038081Y-64881651D01*
X148922987Y-64967811D01*
X148922984Y-64967814D01*
X148836824Y-65082908D01*
X148836820Y-65082915D01*
X148786578Y-65217622D01*
X148786576Y-65217629D01*
X148780175Y-65277157D01*
X145600000Y-65277157D01*
X145600000Y-60846155D01*
X146404675Y-60846155D01*
X146404675Y-61003848D01*
X146435436Y-61158491D01*
X146435439Y-61158503D01*
X146495777Y-61304174D01*
X146495784Y-61304187D01*
X146583385Y-61435290D01*
X146583388Y-61435294D01*
X146694882Y-61546788D01*
X146694886Y-61546791D01*
X146825989Y-61634392D01*
X146826002Y-61634399D01*
X146971673Y-61694737D01*
X146971678Y-61694739D01*
X147126328Y-61725501D01*
X147126331Y-61725502D01*
X147126333Y-61725502D01*
X147284019Y-61725502D01*
X147284020Y-61725501D01*
X147438672Y-61694739D01*
X147584354Y-61634396D01*
X147715464Y-61546791D01*
X147826964Y-61435291D01*
X147914569Y-61304181D01*
X147974912Y-61158499D01*
X148005675Y-61003844D01*
X148005675Y-60846160D01*
X148005675Y-60846157D01*
X148005674Y-60846155D01*
X147974913Y-60691512D01*
X147974912Y-60691505D01*
X147974910Y-60691500D01*
X147914572Y-60545829D01*
X147914565Y-60545816D01*
X147826964Y-60414713D01*
X147826961Y-60414709D01*
X147715467Y-60303215D01*
X147715463Y-60303212D01*
X147584360Y-60215611D01*
X147584347Y-60215604D01*
X147438676Y-60155266D01*
X147438664Y-60155263D01*
X147284020Y-60124502D01*
X147284017Y-60124502D01*
X147126333Y-60124502D01*
X147126330Y-60124502D01*
X146971685Y-60155263D01*
X146971673Y-60155266D01*
X146826002Y-60215604D01*
X146825989Y-60215611D01*
X146694886Y-60303212D01*
X146694882Y-60303215D01*
X146583388Y-60414709D01*
X146583385Y-60414713D01*
X146495784Y-60545816D01*
X146495777Y-60545829D01*
X146435439Y-60691500D01*
X146435436Y-60691512D01*
X146404675Y-60846155D01*
X145600000Y-60846155D01*
X145600000Y-57824500D01*
X145619685Y-57757461D01*
X145672489Y-57711706D01*
X145724000Y-57700500D01*
X157567954Y-57700500D01*
X157600047Y-57704725D01*
X157677589Y-57725502D01*
X158167035Y-57725502D01*
X158167051Y-57725503D01*
X158174647Y-57725503D01*
X158332759Y-57725503D01*
X158332761Y-57725503D01*
X158400726Y-57707291D01*
X158410305Y-57704725D01*
X158442398Y-57700500D01*
X164902116Y-57700500D01*
X164902120Y-57700501D01*
X165060234Y-57700501D01*
X165092728Y-57691793D01*
X165106317Y-57691205D01*
X165107876Y-57691590D01*
X165111685Y-57691089D01*
X168503920Y-57691089D01*
X168503936Y-57691090D01*
X168511532Y-57691090D01*
X168669643Y-57691090D01*
X168669646Y-57691090D01*
X168822374Y-57650166D01*
X168899701Y-57605521D01*
X168959305Y-57571109D01*
X169071109Y-57459305D01*
X169071109Y-57459303D01*
X169081313Y-57449100D01*
X169081316Y-57449095D01*
X169094098Y-57436313D01*
X169155421Y-57402833D01*
X169181774Y-57400000D01*
X170076000Y-57400000D01*
X170143039Y-57419685D01*
G37*
%TD.AperFunction*%
%TD*%
%TA.AperFunction,Conductor*%
%TO.N,+5V*%
G36*
X131042606Y-61205023D02*
G01*
X131057604Y-61209427D01*
X131072594Y-61219057D01*
X131089675Y-61224067D01*
X131116355Y-61247172D01*
X131117542Y-61248541D01*
X131145018Y-61303402D01*
X131146663Y-61310960D01*
X131149500Y-61337331D01*
X131149500Y-61800024D01*
X131160174Y-61904502D01*
X131162415Y-61910083D01*
X131215184Y-62069331D01*
X131215190Y-62069343D01*
X131278558Y-62172076D01*
X131307286Y-62218651D01*
X131307289Y-62218655D01*
X131307291Y-62218657D01*
X131307293Y-62218660D01*
X131431338Y-62342705D01*
X131431341Y-62342707D01*
X131431344Y-62342710D01*
X131431348Y-62342713D01*
X131580662Y-62434812D01*
X131580664Y-62434813D01*
X131580666Y-62434814D01*
X131747203Y-62489999D01*
X131849992Y-62500500D01*
X131849997Y-62500500D01*
X133550003Y-62500500D01*
X133550008Y-62500500D01*
X133652797Y-62489999D01*
X133819334Y-62434814D01*
X133968655Y-62342711D01*
X134092711Y-62218655D01*
X134184814Y-62069334D01*
X134239999Y-61902797D01*
X134250500Y-61800008D01*
X134250500Y-61341829D01*
X134255523Y-61306893D01*
X134259927Y-61291895D01*
X134297672Y-61233144D01*
X134297700Y-61233119D01*
X134297699Y-61233119D01*
X134299041Y-61231956D01*
X134353920Y-61204477D01*
X134361479Y-61202833D01*
X134387832Y-61200000D01*
X144970500Y-61200000D01*
X145037539Y-61219685D01*
X145083294Y-61272489D01*
X145094500Y-61324000D01*
X145094500Y-63573646D01*
X145074815Y-63640685D01*
X145022011Y-63686440D01*
X144952853Y-63696384D01*
X144927167Y-63689828D01*
X144837552Y-63656404D01*
X144837545Y-63656402D01*
X144778027Y-63650002D01*
X144778019Y-63650002D01*
X144105175Y-63650002D01*
X144105175Y-64483172D01*
X144105174Y-64483178D01*
X144105175Y-64483181D01*
X144100150Y-64518116D01*
X144095745Y-64533114D01*
X144058002Y-64591857D01*
X144057967Y-64591887D01*
X144057966Y-64591889D01*
X144057964Y-64591889D01*
X144056633Y-64593044D01*
X144001772Y-64620520D01*
X143994214Y-64622165D01*
X143967843Y-64625002D01*
X143855175Y-64625002D01*
X143855175Y-64733172D01*
X143855174Y-64733178D01*
X143855175Y-64733181D01*
X143850150Y-64768116D01*
X143845745Y-64783114D01*
X143808002Y-64841857D01*
X143807967Y-64841887D01*
X143807966Y-64841889D01*
X143807964Y-64841889D01*
X143806633Y-64843044D01*
X143751772Y-64870520D01*
X143744214Y-64872165D01*
X143717843Y-64875002D01*
X140280176Y-64875002D01*
X140280176Y-65012497D01*
X140290668Y-65115196D01*
X140290668Y-65115197D01*
X140290669Y-65115199D01*
X140345816Y-65281621D01*
X140345818Y-65281626D01*
X140437859Y-65430847D01*
X140501265Y-65494253D01*
X140561835Y-65554823D01*
X140562092Y-65555046D01*
X140573039Y-65565797D01*
X140586032Y-65580242D01*
X140616230Y-65643249D01*
X140607569Y-65712580D01*
X140607569Y-65712581D01*
X140606163Y-65715817D01*
X140573639Y-65760114D01*
X140571391Y-65762062D01*
X140562607Y-65769005D01*
X140561534Y-65769776D01*
X140561515Y-65769792D01*
X140437459Y-65893849D01*
X140355998Y-66025922D01*
X140355997Y-66025924D01*
X140333385Y-66053017D01*
X140318674Y-66066248D01*
X140263236Y-66094969D01*
X140254670Y-66096916D01*
X140227187Y-66100000D01*
X134252935Y-66100000D01*
X134217996Y-66094976D01*
X134199015Y-66089402D01*
X134185841Y-66081502D01*
X134173522Y-66078703D01*
X134145465Y-66057292D01*
X134139312Y-66051024D01*
X134122263Y-66029255D01*
X134092713Y-65981348D01*
X134092712Y-65981347D01*
X134092711Y-65981345D01*
X133968655Y-65857289D01*
X133968651Y-65857286D01*
X133884216Y-65805205D01*
X133819343Y-65765190D01*
X133819337Y-65765187D01*
X133819335Y-65765186D01*
X133819332Y-65765185D01*
X133819330Y-65765184D01*
X133819328Y-65765183D01*
X133728133Y-65734965D01*
X133661263Y-65712806D01*
X133661262Y-65712805D01*
X133658439Y-65711639D01*
X133652796Y-65709999D01*
X133550024Y-65699500D01*
X133550015Y-65699500D01*
X133550008Y-65699500D01*
X131849992Y-65699500D01*
X131849984Y-65699500D01*
X131849974Y-65699500D01*
X131745495Y-65710174D01*
X131739915Y-65712415D01*
X131580667Y-65765184D01*
X131580655Y-65765190D01*
X131431354Y-65857282D01*
X131431343Y-65857289D01*
X131307288Y-65981345D01*
X131306049Y-65983064D01*
X131304389Y-65986045D01*
X131279792Y-66025923D01*
X131257176Y-66053020D01*
X131242469Y-66066248D01*
X131187031Y-66094969D01*
X131178463Y-66096916D01*
X131150985Y-66100000D01*
X127241830Y-66100000D01*
X127241825Y-66099999D01*
X127241823Y-66100000D01*
X127206889Y-66094975D01*
X127191890Y-66090570D01*
X127133144Y-66052827D01*
X127133115Y-66052793D01*
X127133114Y-66052793D01*
X127133113Y-66052791D01*
X127131957Y-66051458D01*
X127104477Y-65996583D01*
X127102832Y-65989021D01*
X127100000Y-65962668D01*
X127100000Y-64237509D01*
X140280175Y-64237509D01*
X140280175Y-64237515D01*
X140280175Y-64375002D01*
X141255175Y-64375002D01*
X141755175Y-64375002D01*
X143605175Y-64375002D01*
X143605175Y-63650002D01*
X142932321Y-63650002D01*
X142872803Y-63656402D01*
X142872796Y-63656404D01*
X142738092Y-63706645D01*
X142738085Y-63706648D01*
X142738073Y-63706656D01*
X142679332Y-63750630D01*
X142679331Y-63750632D01*
X142648355Y-63767547D01*
X142633709Y-63773010D01*
X142564017Y-63777996D01*
X142564012Y-63777995D01*
X142557816Y-63776647D01*
X142496496Y-63743162D01*
X142448521Y-63695187D01*
X142448520Y-63695186D01*
X142299299Y-63603145D01*
X142299294Y-63603143D01*
X142299285Y-63603140D01*
X142132874Y-63547996D01*
X142132869Y-63547995D01*
X142030166Y-63537502D01*
X142030161Y-63537502D01*
X141755175Y-63537502D01*
X141755175Y-64375002D01*
X141255175Y-64375002D01*
X141255175Y-63537502D01*
X140980212Y-63537502D01*
X140980204Y-63537502D01*
X140980194Y-63537502D01*
X140980181Y-63537503D01*
X140877479Y-63547995D01*
X140877477Y-63547996D01*
X140711062Y-63603140D01*
X140711054Y-63603143D01*
X140711052Y-63603144D01*
X140711050Y-63603145D01*
X140611569Y-63664505D01*
X140561827Y-63695187D01*
X140437860Y-63819154D01*
X140345816Y-63968381D01*
X140345813Y-63968390D01*
X140290669Y-64134801D01*
X140290668Y-64134806D01*
X140280175Y-64237509D01*
X127100000Y-64237509D01*
X127100000Y-61341829D01*
X127105023Y-61306893D01*
X127109427Y-61291895D01*
X127147172Y-61233144D01*
X127147200Y-61233119D01*
X127147199Y-61233119D01*
X127148541Y-61231956D01*
X127203420Y-61204477D01*
X127210979Y-61202833D01*
X127237332Y-61200000D01*
X131007670Y-61200000D01*
X131042606Y-61205023D01*
G37*
%TD.AperFunction*%
%TD*%
%TA.AperFunction,Conductor*%
%TO.N,/CP_VDD*%
G36*
X59227287Y-31444687D02*
G01*
X59273042Y-31497491D01*
X59282986Y-31566649D01*
X59274809Y-31596455D01*
X59235438Y-31691504D01*
X59235436Y-31691512D01*
X59204675Y-31846155D01*
X59204675Y-32003848D01*
X59235436Y-32158491D01*
X59235439Y-32158503D01*
X59295777Y-32304174D01*
X59295784Y-32304187D01*
X59383385Y-32435290D01*
X59383388Y-32435294D01*
X59494882Y-32546788D01*
X59494886Y-32546791D01*
X59625989Y-32634392D01*
X59626002Y-32634399D01*
X59771673Y-32694737D01*
X59771678Y-32694739D01*
X59926328Y-32725501D01*
X59926331Y-32725502D01*
X59926333Y-32725502D01*
X59976813Y-32725502D01*
X60009762Y-32729960D01*
X60020532Y-32732928D01*
X60023391Y-32734579D01*
X60135194Y-32764536D01*
X60176117Y-32775502D01*
X60176118Y-32775502D01*
X60633446Y-32775502D01*
X60676779Y-32783320D01*
X60772692Y-32819093D01*
X60832302Y-32825502D01*
X61355675Y-32825501D01*
X61422714Y-32845185D01*
X61468469Y-32897989D01*
X61479675Y-32949501D01*
X61479675Y-33247871D01*
X61479676Y-33247878D01*
X61486084Y-33307486D01*
X61525852Y-33414112D01*
X61530836Y-33483803D01*
X61517058Y-33519443D01*
X61445598Y-33643217D01*
X61445598Y-33643218D01*
X61404675Y-33795945D01*
X61404675Y-34388332D01*
X61404674Y-34388350D01*
X61404674Y-34554056D01*
X61404673Y-34554056D01*
X61404674Y-34554059D01*
X61445598Y-34706787D01*
X61445599Y-34706788D01*
X61460031Y-34731787D01*
X61460032Y-34731788D01*
X61524650Y-34843711D01*
X61524654Y-34843716D01*
X61524655Y-34843718D01*
X61636459Y-34955522D01*
X61636460Y-34955523D01*
X62136459Y-35455522D01*
X62136461Y-35455523D01*
X62136465Y-35455526D01*
X62273384Y-35534575D01*
X62273391Y-35534579D01*
X62426118Y-35575503D01*
X62455079Y-35575503D01*
X62522118Y-35595188D01*
X62542760Y-35611822D01*
X62837468Y-35906530D01*
X62870953Y-35967853D01*
X62865969Y-36037545D01*
X62837906Y-36081453D01*
X62541081Y-36381261D01*
X62479926Y-36415052D01*
X62454202Y-36418013D01*
X60851202Y-36434043D01*
X60783969Y-36415030D01*
X60737688Y-36362686D01*
X60726604Y-36322650D01*
X60720174Y-36259705D01*
X60720173Y-36259702D01*
X60715921Y-36246870D01*
X60664989Y-36093168D01*
X60572887Y-35943846D01*
X60448831Y-35819790D01*
X60299509Y-35727688D01*
X60132972Y-35672503D01*
X60132970Y-35672502D01*
X60030185Y-35662002D01*
X58980173Y-35662002D01*
X58980155Y-35662003D01*
X58877378Y-35672502D01*
X58877375Y-35672503D01*
X58710843Y-35727687D01*
X58710838Y-35727689D01*
X58561517Y-35819791D01*
X58437464Y-35943844D01*
X58345362Y-36093165D01*
X58345361Y-36093168D01*
X58294429Y-36246870D01*
X58254656Y-36304314D01*
X58190140Y-36331137D01*
X58121364Y-36318822D01*
X58089481Y-36295984D01*
X57791933Y-36001397D01*
X57758142Y-35940242D01*
X57755175Y-35913278D01*
X57755175Y-33443516D01*
X57761468Y-33404515D01*
X57795174Y-33302799D01*
X57805675Y-33200011D01*
X57805674Y-32149994D01*
X57795174Y-32047205D01*
X57778861Y-31997975D01*
X57776459Y-31928147D01*
X57808884Y-31871292D01*
X58218856Y-31461321D01*
X58280179Y-31427836D01*
X58306537Y-31425002D01*
X59160248Y-31425002D01*
X59227287Y-31444687D01*
G37*
%TD.AperFunction*%
%TD*%
M02*
