M48
; DRILL file KiCad 10.0.1 date 2026-05-09T20:51:15
; FORMAT={-:-/ absolute / inch / decimal}
; #@! TF.CreationDate,2026-05-09T20:51:15-07:00
; #@! TF.GenerationSoftware,Kicad,Pcbnew,10.0.1
; #@! TF.FileFunction,Plated,1,4,PTH
FMAT,2
INCH
; #@! TA.AperFunction,Plated,PTH,ViaDrill
T1C0.0118
; #@! TA.AperFunction,Plated,PTH,ComponentDrill
T2C0.0236
; #@! TA.AperFunction,Plated,PTH,ComponentDrill
T3C0.0350
; #@! TA.AperFunction,Plated,PTH,ComponentDrill
T4C0.0402
; #@! TA.AperFunction,Plated,PTH,ComponentDrill
T5C0.0409
; #@! TA.AperFunction,Plated,PTH,ComponentDrill
T6C0.0472
; #@! TA.AperFunction,Plated,PTH,ComponentDrill
T7C0.0642
; #@! TA.AperFunction,Plated,PTH,ComponentDrill
T8C0.0866
; #@! TA.AperFunction,Plated,PTH,ComponentDrill
T9C0.1283
%
G90
G05
T1
X1.6183Y-1.4026
X1.737Y-1.2594
X1.7512Y-1.5341
X1.7638Y-2.8898
X1.7795Y-0.94
X1.7874Y-3.3819
X1.7921Y-1.3681
X1.8112Y-1.8903
X1.8137Y-1.9734
X1.8211Y-2.2215
X1.8211Y-2.3002
X1.8211Y-2.3789
X1.8211Y-2.4577
X1.8307Y-3.1181
X1.8898Y-2.7126
X1.89Y-2.1368
X1.8978Y-1.8903
X1.8978Y-2.5325
X1.8978Y-2.6112
X1.9097Y-1.7018
X1.9283Y-2.9856
X1.9283Y-3.0356
X1.9685Y-2.7126
X1.9823Y-0.94
X2.012Y-1.8498
X2.012Y-2.0998
X2.012Y-2.4998
X2.0315Y-2.8858
X2.0472Y-2.7126
X2.063Y-3.1181
X2.0945Y-1.937
X2.0963Y-2.2998
X2.0963Y-2.3498
X2.0967Y-2.2018
X2.0967Y-2.251
X2.126Y-3.3258
X2.126Y-3.4006
X2.1315Y-2.549
X2.1378Y-1.1614
X2.1417Y-2.9356
X2.1417Y-3.1142
X2.2128Y-1.5768
X2.2244Y-3.0433
X2.2283Y-2.8091
X2.233Y-1.2864
X2.2423Y-2.0837
X2.2423Y-2.1388
X2.2423Y-2.1939
X2.248Y-3.3307
X2.248Y-3.4094
X2.2974Y-2.0837
X2.2974Y-2.1388
X2.2974Y-2.1939
X2.3268Y-2.6467
X2.3427Y-1.4469
X2.3526Y-2.0837
X2.3526Y-2.1388
X2.3526Y-2.1939
X2.3624Y-1.2569
X2.3624Y-3.3258
X2.3624Y-3.4006
X2.3723Y-1.2175
X2.3939Y-2.4498
X2.4215Y-2.7712
X2.4215Y-2.8529
X2.4411Y-1.4833
X2.4567Y-1.2274
X2.4812Y-1.1327
X2.4904Y-1.2569
X2.4987Y-1.084
X2.5002Y-2.7712
X2.5002Y-2.8529
X2.5002Y-3.1875
X2.5026Y-1.3727
X2.5039Y-3.3307
X2.5039Y-3.4094
X2.5041Y-3.0069
X2.5197Y-2.8976
X2.5376Y-1.1181
X2.5593Y-1.4065
X2.5593Y-1.4439
X2.5593Y-1.4813
X2.5827Y-2.0945
X2.5945Y-2.7717
X2.5984Y-2.8504
X2.6008Y-3.4006
X2.6339Y-2.6575
X2.6417Y-2.3976
X2.6535Y-2.8504
X2.6577Y-1.4065
X2.6577Y-1.4439
X2.6577Y-1.4813
X2.6614Y-2.7913
X2.6969Y-3.252
X2.701Y-1.8498
X2.701Y-1.8998
X2.701Y-1.9998
X2.701Y-2.0498
X2.701Y-2.1998
X2.701Y-2.2498
X2.7087Y-2.6575
X2.7205Y-2.5515
X2.7323Y-2.7913
X2.7404Y-1.1506
X2.7404Y-1.3061
X2.7441Y-1.5748
X2.7638Y-2.3002
X2.766Y-1.497
X2.7758Y-3.2254
X2.7953Y-3.0551
X2.825Y-1.0994
X2.8447Y-1.2047
X2.8703Y-1.3061
X2.886Y-1.6663
X2.888Y-2.499
X2.8976Y-2.0945
X2.9215Y-1.6112
X2.9252Y-2.0787
X2.9252Y-2.1654
X2.9293Y-1.1518
X2.9726Y-1.3159
X2.9726Y-1.4852
X3.0079Y-3.501
X3.012Y-2.1772
X3.0167Y-2.3002
X3.0197Y-3.0551
X3.0256Y-3.3642
X3.0392Y-3.5711
X3.0711Y-2.2057
X3.0711Y-2.3553
X3.1144Y-2.1545
X3.1575Y-2.5472
X3.1793Y-1.6437
X3.1813Y-1.5797
X3.1857Y-2.0856
X3.1872Y-1.9281
X3.1872Y-1.9951
X3.1956Y-1.1703
X3.1971Y-1.0128
X3.1971Y-1.0915
X3.2699Y-2.1565
X3.2773Y-1.1703
X3.2797Y-1.2726
X3.311Y-1.7913
X3.3545Y-2.2766
X3.367Y-1.6427
X3.3703Y-1.5625
X3.4047Y-1.9961
X3.4057Y-2.1841
X3.4097Y-1.9419
X3.4116Y-1.7411
X3.4136Y-1.1112
X3.4136Y-1.1604
X3.4142Y-1.3021
X3.4185Y-2.0837
X3.4333Y-1.4852
X3.4333Y-1.2746
X3.4545Y-2.1112
X3.4608Y-2.0128
X3.516Y-1.5876
X3.516Y-1.6663
X3.516Y-1.7451
X3.516Y-2.0108
X3.5327Y-1.1476
X3.5602Y-1.5197
X3.5868Y-0.9222
X3.6024Y-2.4488
X3.6811Y-2.1299
X3.7207Y-2.2608
X3.7286Y-1.6427
X3.7375Y-1.9627
X3.7384Y-2.0364
X3.7482Y-1.0719
X3.7482Y-1.1447
X3.7482Y-1.8199
X3.7719Y-1.7608
X3.8289Y-1.3967
X3.8388Y-1.3396
X3.8388Y-1.7096
X3.8388Y-2.1299
X3.8506Y-2.0285
X3.8622Y-2.4498
X3.8799Y-1.3061
X3.9018Y-1.5305
X3.9239Y-2.0856
X3.9254Y-2.0069
X3.9338Y-1.1703
X3.9352Y-1.0128
X3.9352Y-1.0915
X3.9606Y-2.8976
X3.9845Y-1.501
X3.9845Y-1.6491
X3.9992Y-1.3012
X4.0071Y-2.0965
X4.0081Y-2.1565
X4.0155Y-1.1703
X4.065Y-3.5945
X4.1206Y-2.8071
X4.126Y-1.5315
X4.1378Y-2.1575
X4.1419Y-1.6939
X4.1429Y-1.9961
X4.1429Y-2.0453
X4.1458Y-1.9409
X4.1478Y-2.2215
X4.1514Y-1.3014
X4.1518Y-1.1112
X4.1518Y-1.1604
X4.1614Y-2.3504
X4.1944Y-2.8445
X4.197Y-1.2885
X4.2165Y-2.7205
X4.2343Y-3.5945
X4.2439Y-1.2199
X4.2442Y-2.2639
X4.2541Y-2.0344
X4.264Y-1.1486
X4.326Y-2.594
X4.3939Y-2.2372
X4.4052Y-2.5955
X4.4097Y-1.3632
X4.4372Y-0.9537
X4.4543Y-2.4709
X4.4766Y-1.9577
X4.4864Y-1.0719
X4.4864Y-1.1289
X4.4923Y-2.2411
X4.5565Y-2.7589
X4.5827Y-1.0551
X4.6065Y-2.7589
X4.6291Y-2.1319
X4.6565Y-2.7589
X4.6597Y-2.247
X4.6823Y-2.3509
X4.6833Y-1.9281
X4.6833Y-2.0069
X4.6916Y-1.19
X4.6931Y-1.0325
X4.6931Y-1.1112
X4.6949Y-2.1586
X4.7065Y-2.7589
X4.7492Y-2.2362
X4.752Y-2.9449
X4.7565Y-2.7589
X4.7635Y-2.0856
X4.7637Y-2.1476
X4.7687Y-1.1853
X4.7709Y-2.3509
X4.7738Y-1.2746
X4.8065Y-2.7589
X4.9007Y-1.9935
X4.9008Y-2.0453
X4.9065Y-2.7589
X4.9097Y-1.2982
X4.91Y-1.122
X4.9175Y-2.1368
X4.9213Y-2.0709
X4.9274Y-1.253
X4.948Y-2.3509
X4.9528Y-1.2344
X4.9786Y-2.1211
X4.9961Y-1.2047
X5.0002Y-2.1821
X5.0041Y-1.2523
X5.012Y-2.0344
X5.0238Y-1.8992
X5.0347Y-1.1476
X5.044Y-1.8298
X5.0534Y-1.4281
X5.0709Y-1.7677
X5.0709Y-2.3504
X5.1693Y-2.8425
X5.1754Y-1.8809
X5.1813Y-2.1545
X5.1852Y-1.2254
X5.1951Y-1.4124
X5.2008Y-2.5443
X5.2049Y-1.3268
X5.2181Y-1.5556
X5.2244Y-2.3504
X5.2244Y-2.4055
X5.2244Y-2.6969
X5.2345Y-1.9478
X5.2443Y-1.0719
X5.2443Y-1.1506
X5.2559Y-1.5512
X5.2758Y-1.7908
X5.2837Y-1.874
X5.2856Y-2.1821
X5.2874Y-2.5443
X5.2955Y-1.9656
X5.3245Y-2.0246
X5.3309Y-1.3435
X5.3334Y-1.9261
X5.3394Y-1.8547
X5.3447Y-1.8967
X5.3585Y-1.7042
X5.374Y-2.5443
X5.3799Y-2.3504
X5.3865Y-2.2316
X5.4357Y-1.7018
X5.4357Y-1.7844
X5.4409Y-2.9598
X5.4451Y-2.1526
X5.453Y-1.9321
X5.453Y-2.1152
X5.4549Y-1.1368
X5.4549Y-1.1742
X5.4549Y-1.2116
X5.4549Y-1.3533
X5.4549Y-1.3907
X5.4549Y-1.4281
X5.4589Y-1.5207
X5.4589Y-1.5955
X5.4606Y-2.5443
X5.4606Y-2.8425
X5.4608Y-1.9675
X5.4762Y-2.0927
X5.4946Y-2.7025
X5.4982Y-2.06
X5.4982Y-2.3622
X5.5179Y-1.9419
X5.5199Y-1.7018
X5.5276Y-2.7756
X5.5394Y-2.9598
X5.5396Y-1.6309
X5.5406Y-1.9646
X5.5431Y-1.0703
X5.5612Y-1.9439
X5.5711Y-2.1309
X5.5711Y-2.5443
X5.5711Y-2.626
X5.5787Y-2.7047
X5.5789Y-2.3622
X5.6026Y-1.94
X5.6065Y-1.5561
X5.6203Y-1.9596
X5.626Y-2.9598
X5.64Y-1.94
X5.6405Y-1.1348
X5.6405Y-1.3514
X5.6444Y-1.5187
X5.6498Y-2.0049
X5.6518Y-2.064
X5.6597Y-2.3627
X5.6616Y-2.2798
X5.6636Y-2.6348
X5.6695Y-1.9656
X5.6749Y-1.7844
X5.7008Y-3.063
X5.7126Y-2.2323
X5.7148Y-0.9262
X5.7222Y-1.1348
X5.7226Y-1.2254
X5.7226Y-1.436
X5.7244Y-2.9598
X5.7246Y-1.6053
X5.7261Y-1.5187
X5.7325Y-1.8474
X5.7384Y-1.8808
X5.7488Y-2.6339
X5.7677Y-2.8307
X5.7876Y-1.2844
X5.7955Y-2.3986
X5.7967Y-2.1427
X5.7972Y-2.6339
X5.7974Y-2.1033
X5.815Y-2.874
X5.8346Y-2.374
X5.8388Y-1.5679
X5.8403Y-2.0472
X5.8408Y-1.8219
X5.8453Y-2.6339
X5.8764Y-2.5713
X5.8768Y-2.698
X5.8821Y-1.2096
X5.9116Y-2.6348
X5.9244Y-1.5256
X5.9274Y-1.8455
X5.9432Y-2.026
X5.9465Y-2.5717
X5.9465Y-2.6984
X5.9825Y-1.8888
X6.0Y-2.5984
X6.0Y-2.6693
X6.0157Y-2.374
X6.0236Y-1.4252
X6.0489Y-1.9892
X6.0868Y-1.908
X6.0906Y-3.2421
X6.0937Y-2.1004
X6.1024Y-2.8543
X6.1496Y-2.6142
X6.1616Y-1.8179
X6.1616Y-1.9163
X6.1713Y-3.3898
X6.199Y-1.8183
X6.199Y-1.9163
X6.2207Y-2.2254
X6.2362Y-2.374
X6.2364Y-1.8179
X6.2364Y-1.9163
X6.2441Y-3.2441
X6.3191Y-1.8179
X6.3191Y-1.9163
X6.3268Y-1.4961
X6.3565Y-1.9163
X6.3622Y-2.6142
X6.3939Y-1.8179
X6.3939Y-1.9163
X6.4626Y-3.3898
X6.4764Y-2.1811
X6.4961Y-2.7165
X6.5354Y-2.1811
X6.5354Y-3.2402
X6.563Y-2.0945
X6.5827Y-2.3307
X6.622Y-2.0945
X6.622Y-2.9252
X6.6299Y-2.6142
X6.6368Y-2.6861
X6.76Y-3.064
X6.9685Y-3.0197
X6.9687Y-2.7333
T3
X6.0374Y-1.6663
X6.087Y-1.5663
X6.1374Y-1.6663
X6.187Y-1.5663
X6.2374Y-1.6663
X6.287Y-1.5663
X6.3374Y-1.6663
X6.387Y-1.5663
T4
X5.9514Y-1.123
X6.0514Y-1.123
X6.373Y-1.123
X6.473Y-1.123
T5
X1.3604Y-1.7022
X1.3604Y-1.8108
X1.3604Y-1.9194
X1.3604Y-2.028
X1.3604Y-2.1365
X1.3604Y-2.2451
X1.3604Y-2.3537
X1.3604Y-2.4623
X1.3604Y-2.5709
X1.3604Y-2.6794
X1.3604Y-2.788
X1.3604Y-2.8966
X1.4723Y-1.6479
X1.4723Y-1.7565
X1.4723Y-1.8651
X1.4723Y-1.9737
X1.4723Y-2.0822
X1.4723Y-2.1908
X1.4723Y-2.2994
X1.4723Y-2.408
X1.4723Y-2.5166
X1.4723Y-2.6252
X1.4723Y-2.7337
X1.4723Y-2.8423
X1.4723Y-2.9509
X6.7967Y-1.6541
X6.7967Y-1.7627
X6.7967Y-1.8713
X6.7967Y-1.9798
X6.7967Y-2.0884
X6.7967Y-2.197
X6.7967Y-2.3056
X6.7967Y-2.4142
X6.7967Y-2.5228
X6.7967Y-2.6313
X6.7967Y-2.7399
X6.7967Y-2.8485
X6.7967Y-2.9571
X6.9085Y-1.7084
X6.9085Y-1.817
X6.9085Y-1.9256
X6.9085Y-2.0341
X6.9085Y-2.1427
X6.9085Y-2.2513
X6.9085Y-2.3599
X6.9085Y-2.4685
X6.9085Y-2.577
X6.9085Y-2.6856
X6.9085Y-2.7942
X6.9085Y-2.9028
T6
X4.0965Y-3.3996
X4.1949Y-3.3996
T7
X5.9073Y-1.436
X6.5171Y-1.436
T8
X1.4953Y-1.0039
X1.4957Y-3.5961
X3.3258Y-3.2057
X3.7195Y-3.2057
X4.1417Y-3.0827
X4.5463Y-3.2057
X4.94Y-3.2057
X6.7752Y-3.5984
X6.7756Y-1.0079
T9
X1.4163Y-1.3734
X1.4163Y-3.2254
X6.8526Y-1.3796
X6.8526Y-3.2316
T2
G00X2.6648Y-0.9803
M15
G01X2.6648Y-0.9488
M16
G05
G00X2.6648Y-1.1508
M15
G01X2.6648Y-1.1075
M16
G05
G00X3.0049Y-0.9803
M15
G01X3.0049Y-0.9488
M16
G05
G00X3.0049Y-1.1508
M15
G01X3.0049Y-1.1075
M16
G05
M30
