M48
; DRILL file KiCad 10.0.1 date 2026-06-30T19:37:07
; FORMAT={-:-/ absolute / inch / decimal}
; #@! TF.CreationDate,2026-06-30T19:37:07-07:00
; #@! TF.GenerationSoftware,Kicad,Pcbnew,10.0.1
; #@! TF.FileFunction,Plated,1,6,PTH
FMAT,2
INCH
; #@! TA.AperFunction,Plated,PTH,ViaDrill
T1C0.0118
; #@! TA.AperFunction,Plated,PTH,ViaDrill
T2C0.0157
; #@! TA.AperFunction,Plated,PTH,ComponentDrill
T3C0.0236
; #@! TA.AperFunction,Plated,PTH,ComponentDrill
T4C0.0315
; #@! TA.AperFunction,Plated,PTH,ComponentDrill
T5C0.0354
; #@! TA.AperFunction,Plated,PTH,ComponentDrill
T6C0.0394
; #@! TA.AperFunction,Plated,PTH,ComponentDrill
T7C0.0402
; #@! TA.AperFunction,Plated,PTH,ComponentDrill
T8C0.0409
; #@! TA.AperFunction,Plated,PTH,ComponentDrill
T9C0.0472
; #@! TA.AperFunction,Plated,PTH,ComponentDrill
T10C0.0669
; #@! TA.AperFunction,Plated,PTH,ComponentDrill
T11C0.0787
; #@! TA.AperFunction,Plated,PTH,ComponentDrill
T12C0.1283
; #@! TA.AperFunction,Plated,PTH,ComponentDrill
T13C0.1299
%
G90
G05
T1
X3.3579Y-2.3541
X3.3579Y-2.5734
X3.3579Y-1.5356
X3.3584Y-2.1361
X3.4634Y-2.6651
X3.4713Y-1.7685
X3.4936Y-2.0012
X3.4964Y-1.706
X3.5016Y-2.9311
X3.502Y-3.3638
X3.5429Y-1.1021
X3.5429Y-1.4984
X3.5614Y-2.5031
X3.5744Y-0.9175
X3.5783Y-1.5651
X3.6024Y-1.0426
X3.639Y-2.5031
X3.6776Y-1.2592
X3.6913Y-2.7293
X3.6921Y-2.5031
X3.6972Y-2.2202
X3.7004Y-2.3017
X3.7142Y-2.3421
X3.7279Y-3.4604
X3.7284Y-2.8206
X3.7498Y-1.8083
X3.7498Y-1.8976
X3.7542Y-1.9732
X3.7724Y-2.1379
X3.8004Y-2.3426
X3.8024Y-2.26
X3.8354Y-1.1269
X3.8359Y-1.9732
X3.8699Y-2.8302
X3.8805Y-2.2984
X3.8823Y-1.2592
X3.8854Y-3.4604
X3.887Y-2.4574
X3.9114Y-1.0661
X3.913Y-2.8383
X3.913Y-2.984
X3.9307Y-1.3356
X3.9526Y-1.8495
X3.9744Y-3.5299
X3.9776Y-3.4279
X3.978Y-2.6094
X4.0138Y-1.086
X4.0236Y-1.8008
X4.0236Y-2.3693
X4.0508Y-2.2241
X4.0563Y-1.3773
X4.0665Y-3.4003
X4.0711Y-1.7353
X4.072Y-2.5487
X4.0945Y-3.1146
X4.1122Y-1.1844
X4.1256Y-2.7517
X4.1283Y-2.193
X4.1311Y-2.1115
X4.1327Y-2.0375
X4.1689Y-2.9658
X4.1829Y-2.0834
X4.1829Y-2.1385
X4.1829Y-2.1936
X4.2083Y-3.3304
X4.238Y-2.0834
X4.238Y-2.1385
X4.238Y-2.1936
X4.2524Y-1.2135
X4.2925Y-1.3221
X4.2931Y-2.0834
X4.2931Y-2.1385
X4.2931Y-2.1936
X4.303Y-3.4003
X4.3051Y-1.2127
X4.3268Y-2.4574
X4.3441Y-2.1108
X4.3453Y-2.0375
X4.3457Y-1.3777
X4.3468Y-2.1934
X4.362Y-2.7753
X4.362Y-2.8526
X4.3862Y-1.2271
X4.4153Y-1.13
X4.4161Y-2.0497
X4.4403Y-2.8521
X4.4408Y-2.7753
X4.4431Y-3.0953
X4.4445Y-3.3304
X4.4476Y-1.9993
X4.4488Y-1.1301
X4.4782Y-1.0863
X4.4898Y-2.8138
X4.4998Y-1.4062
X4.4998Y-1.4436
X4.5008Y-1.4804
X4.5311Y-2.198
X4.5332Y-1.5706
X4.5488Y-3.0161
X4.5534Y-1.4436
X4.5783Y-2.2241
X4.5921Y-1.9759
X4.602Y-2.606
X4.6415Y-1.8495
X4.6556Y-3.0411
X4.6556Y-3.0911
X4.665Y-1.3747
X4.6846Y-3.3304
X4.6846Y-3.5619
X4.6858Y-3.4832
X4.6888Y-1.8008
X4.6969Y-2.3619
X4.7301Y-1.1079
X4.7409Y-2.8776
X4.7465Y-1.052
X4.7606Y-2.5497
X4.7677Y-3.2789
X4.7785Y-3.5806
X4.8063Y-3.6765
X4.8264Y-2.9724
X4.8272Y-1.052
X4.8315Y-2.5497
X4.8718Y-2.368
X4.9132Y-1.3157
X4.9132Y-1.485
X4.9169Y-2.0076
X4.9435Y-2.2261
X4.9461Y-2.4574
X4.9878Y-2.1257
X5.0153Y-1.9289
X5.0153Y-2.8659
X5.0468Y-2.9092
X5.0508Y-1.6375
X5.0528Y-1.1832
X5.0587Y-2.0312
X5.0783Y-1.0458
X5.1098Y-2.1612
X5.1098Y-2.5312
X5.1213Y-1.4472
X5.1555Y-2.4966
X5.1591Y-1.2245
X5.2004Y-0.9092
X5.2077Y-2.085
X5.2178Y-1.17
X5.2244Y-1.8063
X5.3394Y-2.1824
X5.3461Y-1.9663
X5.35Y-1.3068
X5.3579Y-1.2399
X5.3697Y-1.2753
X5.3697Y-1.6375
X5.3697Y-2.1562
X5.3724Y-2.0348
X5.389Y-1.1803
X5.4012Y-2.0942
X5.4181Y-1.0942
X5.476Y-2.0348
X5.4862Y-1.1486
X5.4862Y-1.8063
X5.5665Y-1.3751
X5.6098Y-2.2163
X5.6571Y-1.9098
X5.6571Y-2.5785
X5.6949Y-1.585
X5.7242Y-1.4898
X5.7279Y-2.0391
X5.7279Y-2.3957
X5.7437Y-1.0115
X5.7594Y-2.7281
X5.7634Y-1.9075
X5.7713Y-1.5854
X5.7752Y-0.9328
X5.7949Y-1.9171
X5.7949Y-2.0312
X5.7988Y-2.8304
X5.8106Y-1.0115
X5.8264Y-1.0588
X5.8264Y-2.0688
X5.8533Y-1.4898
X5.8593Y-1.5854
X5.8703Y-2.047
X5.8743Y-1.17
X5.8972Y-2.2163
X5.9051Y-1.3501
X5.9051Y-1.6139
X5.952Y-2.047
X5.956Y-1.17
X5.9602Y-2.7517
X5.9642Y-2.2163
X6.0094Y-1.5776
X6.0106Y-1.4942
X6.0709Y-2.1799
X6.0823Y-1.9663
X6.0862Y-1.0942
X6.0862Y-1.2753
X6.0862Y-1.3068
X6.102Y-2.1562
X6.1098Y-1.2399
X6.1114Y-2.0352
X6.1185Y-1.1513
X6.1413Y-2.0942
X6.1421Y-2.7678
X6.1764Y-1.874
X6.2142Y-2.034
X6.2236Y-1.1478
X6.2632Y-2.4577
X6.289Y-1.41
X6.289Y-2.4139
X6.3106Y-1.3751
X6.3165Y-2.6117
X6.3224Y-1.8934
X6.324Y-2.5643
X6.35Y-2.4958
X6.3669Y-2.6008
X6.4366Y-0.9997
X6.4366Y-1.8539
X6.4382Y-2.7667
X6.4484Y-2.5304
X6.472Y-2.6651
X6.476Y-1.9407
X6.4764Y-1.7587
X6.4799Y-1.1493
X6.5016Y-2.6353
X6.5035Y-2.0352
X6.5429Y-1.8659
X6.5471Y-2.0312
X6.5508Y-1.1178
X6.5626Y-2.3344
X6.5626Y-2.6612
X6.5665Y-1.9407
X6.5744Y-2.047
X6.5872Y-1.0706
X6.5874Y-1.83
X6.597Y-2.7586
X6.5984Y-2.2478
X6.6457Y-2.3348
X6.647Y-2.7586
X6.6531Y-1.3344
X6.697Y-2.7586
X6.7122Y-2.2163
X6.7139Y-1.1897
X6.7228Y-2.4005
X6.7469Y-2.2999
X6.747Y-2.7586
X6.8236Y-2.3089
X6.8358Y-2.1799
X6.8421Y-1.2753
X6.8421Y-1.9663
X6.847Y-2.7586
X6.85Y-1.3068
X6.8543Y-2.0332
X6.8618Y-1.2399
X6.8736Y-2.1562
X6.8787Y-1.1486
X6.9012Y-2.0942
X6.913Y-2.4289
X6.9248Y-1.9407
X6.9248Y-2.3344
X6.9409Y-1.0942
X6.9681Y-2.2084
X6.9681Y-2.4761
X6.9815Y-1.1474
X7.0941Y-2.2911
X7.0945Y-1.3751
X7.1386Y-1.4469
X7.1807Y-1.7064
X7.1846Y-1.0037
X7.224Y-1.5356
X7.2398Y-1.1493
X7.2465Y-1.7106
X7.2476Y-2.0076
X7.2516Y-2.047
X7.2516Y-3.3638
X7.2791Y-2.1612
X7.3028Y-1.2753
X7.3037Y-1.5047
X7.3079Y-1.8895
X7.3157Y-2.6915
X7.3185Y-2.0155
X7.3488Y-1.6717
X7.3618Y-1.7714
X7.3618Y-2.1257
X7.4287Y-1.0942
X7.4327Y-1.9663
X7.4631Y-1.7726
X7.4893Y-1.4653
X7.4895Y-1.6454
X7.5244Y-2.4497
X7.5256Y-1.0714
X7.5468Y-1.3068
X7.5468Y-1.8895
X7.5468Y-2.1923
X7.665Y-1.2438
X7.665Y-1.7978
X7.665Y-2.0942
X7.6677Y-1.0717
X7.7457Y-1.9419
X7.7854Y-1.6803
X7.8039Y-2.521
X7.8039Y-2.5997
X7.8039Y-2.695
X7.8039Y-2.769
X7.8287Y-2.3147
X7.8535Y-1.5615
X7.8829Y-1.9913
X7.9014Y-2.043
X7.9052Y-2.2662
X7.9299Y-2.4143
X7.9653Y-3.008
X7.9654Y-3.5303
X7.9837Y-1.5047
X7.989Y-2.769
X7.9915Y-1.7202
X8.0016Y-2.1592
X8.0114Y-2.1001
X8.0117Y-1.7404
X8.0311Y-3.2419
X8.0374Y-1.3768
X8.05Y-2.7741
X8.0744Y-2.0332
X8.0941Y-2.1923
X8.102Y-2.2399
X8.1421Y-2.7722
X8.1512Y-2.3718
X8.1713Y-1.7978
X8.1713Y-2.2214
X8.1772Y-2.4497
X8.21Y-2.0411
X8.2398Y-2.1986
X8.2398Y-2.2379
X8.2705Y-2.3115
X8.2752Y-3.1926
X8.3185Y-3.2419
X8.3606Y-2.5161
X8.3638Y-2.372
X8.3697Y-2.0234
X8.3697Y-2.2084
X8.4012Y-1.0352
X8.4012Y-2.5716
X8.4102Y-2.4226
X8.4106Y-1.4945
X8.4421Y-1.6413
X8.4484Y-2.0234
X8.4484Y-2.2084
X8.476Y-2.4139
X8.4866Y-1.5465
X8.4957Y-1.1297
X8.5051Y-2.3087
X8.5051Y-3.4335
X8.5713Y-3.1446
X8.572Y-2.1234
X8.598Y-0.9131
X8.598Y-2.1926
X8.6795Y-2.3367
X8.9287Y-1.1297
X8.9287Y-2.3053
T2
X3.4697Y-2.4638
X3.5079Y-2.5028
X3.7354Y-2.7564
X4.1689Y-2.8841
X4.3541Y-2.9913
X4.4425Y-3.1907
X4.5413Y-3.4003
X4.6556Y-2.8772
X4.8106Y-3.4564
X4.8882Y-2.78
X6.0594Y-2.8052
X7.6173Y-2.6646
X7.9653Y-2.9371
T4
X3.7217Y-0.9992
X3.9114Y-0.9992
T5
X7.9824Y-1.6415
X8.0324Y-1.5415
X8.0824Y-1.6415
X8.1324Y-1.5415
X8.1824Y-1.6415
X8.2324Y-1.5415
X8.2824Y-1.6415
X8.3324Y-1.5415
T6
X3.6358Y-1.8232
X3.6358Y-1.9232
X3.6358Y-2.0232
X3.6358Y-2.1232
T7
X7.9084Y-1.1584
X8.0084Y-1.0986
X8.3064Y-1.1584
X8.4064Y-1.0986
T8
X3.301Y-1.7019
X3.301Y-1.8105
X3.301Y-1.9191
X3.301Y-2.0277
X3.301Y-2.1363
X3.301Y-2.2449
X3.301Y-2.3534
X3.301Y-2.462
X3.301Y-2.5706
X3.301Y-2.6792
X3.301Y-2.7878
X3.301Y-2.8963
X3.4128Y-1.6476
X3.4128Y-1.7562
X3.4128Y-1.8648
X3.4128Y-1.9734
X3.4128Y-2.082
X3.4128Y-2.1906
X3.4128Y-2.2991
X3.4128Y-2.4077
X3.4128Y-2.5163
X3.4128Y-2.6249
X3.4128Y-2.7335
X3.4128Y-2.8421
X3.4128Y-2.9506
X8.7372Y-1.6538
X8.7372Y-1.7624
X8.7372Y-1.871
X8.7372Y-1.9796
X8.7372Y-2.0882
X8.7372Y-2.1967
X8.7372Y-2.3053
X8.7372Y-2.4139
X8.7372Y-2.5225
X8.7372Y-2.6311
X8.7372Y-2.7397
X8.7372Y-2.8482
X8.7372Y-2.9568
X8.849Y-1.7081
X8.849Y-1.8167
X8.849Y-1.9253
X8.849Y-2.0339
X8.849Y-2.1425
X8.849Y-2.251
X8.849Y-2.3596
X8.849Y-2.4682
X8.849Y-2.5768
X8.849Y-2.6854
X8.849Y-2.7939
X8.849Y-2.9025
T9
X6.022Y-3.4423
X6.1205Y-3.4423
T10
X7.8474Y-1.4115
X8.4674Y-1.4115
T11
X5.276Y-3.0883
X5.65Y-3.0883
X6.4921Y-3.0812
X6.8661Y-3.0812
T12
X3.3569Y-1.3732
X3.3569Y-3.2251
X8.7931Y-1.3793
X8.7931Y-3.2313
T13
X3.4358Y-1.0037
X3.4358Y-3.5958
X6.0823Y-3.0824
X8.7157Y-3.5982
X8.7161Y-1.0076
T3
X4.6053Y-0.981G85X4.6053Y-0.9495
G05
X4.6053Y-1.1515G85X4.6053Y-1.1082
G05
X4.9455Y-0.981G85X4.9455Y-0.9495
G05
X4.9455Y-1.1515G85X4.9455Y-1.1082
G05
M30
