%TF.GenerationSoftware,KiCad,Pcbnew,10.0.1*%
%TF.CreationDate,2026-05-09T20:51:14-07:00*%
%TF.ProjectId,DarkMagic,4461726b-4d61-4676-9963-2e6b69636164,rev?*%
%TF.SameCoordinates,Original*%
%TF.FileFunction,Paste,Top*%
%TF.FilePolarity,Positive*%
%FSLAX46Y46*%
G04 Gerber Fmt 4.6, Leading zero omitted, Abs format (unit mm)*
G04 Created by KiCad (PCBNEW 10.0.1) date 2026-05-09 20:51:14*
%MOMM*%
%LPD*%
G01*
G04 APERTURE LIST*
G04 Aperture macros list*
%AMRoundRect*
0 Rectangle with rounded corners*
0 $1 Rounding radius*
0 $2 $3 $4 $5 $6 $7 $8 $9 X,Y pos of 4 corners*
0 Add a 4 corners polygon primitive as box body*
4,1,4,$2,$3,$4,$5,$6,$7,$8,$9,$2,$3,0*
0 Add four circle primitives for the rounded corners*
1,1,$1+$1,$2,$3*
1,1,$1+$1,$4,$5*
1,1,$1+$1,$6,$7*
1,1,$1+$1,$8,$9*
0 Add four rect primitives between the rounded corners*
20,1,$1+$1,$2,$3,$4,$5,0*
20,1,$1+$1,$4,$5,$6,$7,0*
20,1,$1+$1,$6,$7,$8,$9,0*
20,1,$1+$1,$8,$9,$2,$3,0*%
G04 Aperture macros list end*
%ADD10RoundRect,0.250000X-0.337500X-0.475000X0.337500X-0.475000X0.337500X0.475000X-0.337500X0.475000X0*%
%ADD11RoundRect,0.250000X0.450000X-0.350000X0.450000X0.350000X-0.450000X0.350000X-0.450000X-0.350000X0*%
%ADD12RoundRect,0.250000X0.350000X0.450000X-0.350000X0.450000X-0.350000X-0.450000X0.350000X-0.450000X0*%
%ADD13RoundRect,0.250000X-0.475000X0.337500X-0.475000X-0.337500X0.475000X-0.337500X0.475000X0.337500X0*%
%ADD14RoundRect,0.150000X0.150000X0.425000X-0.150000X0.425000X-0.150000X-0.425000X0.150000X-0.425000X0*%
%ADD15RoundRect,0.075000X0.075000X0.500000X-0.075000X0.500000X-0.075000X-0.500000X0.075000X-0.500000X0*%
%ADD16O,1.000000X2.100000*%
%ADD17O,1.000000X1.800000*%
%ADD18R,1.400000X0.950000*%
%ADD19RoundRect,0.200000X1.150000X-0.200000X1.150000X0.200000X-1.150000X0.200000X-1.150000X-0.200000X0*%
%ADD20R,2.350000X1.550000*%
%ADD21RoundRect,0.250000X-0.350000X-0.450000X0.350000X-0.450000X0.350000X0.450000X-0.350000X0.450000X0*%
%ADD22RoundRect,0.250000X-0.450000X0.350000X-0.450000X-0.350000X0.450000X-0.350000X0.450000X0.350000X0*%
%ADD23R,1.300000X1.100000*%
%ADD24R,1.700000X0.800000*%
%ADD25RoundRect,0.250001X-2.049999X-0.799999X2.049999X-0.799999X2.049999X0.799999X-2.049999X0.799999X0*%
%ADD26R,0.700000X1.000000*%
%ADD27RoundRect,0.250000X0.475000X-0.337500X0.475000X0.337500X-0.475000X0.337500X-0.475000X-0.337500X0*%
%ADD28R,1.200000X0.600000*%
%ADD29RoundRect,0.250000X-0.650000X1.000000X-0.650000X-1.000000X0.650000X-1.000000X0.650000X1.000000X0*%
%ADD30R,1.150000X1.450000*%
%ADD31R,1.550000X2.350000*%
%ADD32RoundRect,0.250000X0.337500X0.475000X-0.337500X0.475000X-0.337500X-0.475000X0.337500X-0.475000X0*%
%ADD33RoundRect,0.225000X-0.375000X0.225000X-0.375000X-0.225000X0.375000X-0.225000X0.375000X0.225000X0*%
%ADD34R,1.528000X0.650000*%
%ADD35R,1.300000X0.600000*%
%ADD36R,0.600000X1.200000*%
%ADD37R,1.409700X0.355600*%
%ADD38R,0.900000X0.800000*%
%ADD39R,0.300000X0.175000*%
%ADD40R,1.450000X1.150000*%
%ADD41RoundRect,0.250001X0.799999X-2.049999X0.799999X2.049999X-0.799999X2.049999X-0.799999X-2.049999X0*%
%ADD42R,1.475000X0.300000*%
%ADD43R,0.300000X1.475000*%
%ADD44R,0.850000X0.300000*%
%ADD45R,0.300000X0.850000*%
%ADD46R,2.550000X2.550000*%
%ADD47R,3.430000X0.890000*%
%ADD48R,0.820000X1.820000*%
%ADD49R,0.558800X2.184400*%
%ADD50R,1.750000X0.950000*%
%ADD51R,1.750000X3.200000*%
%ADD52R,1.500000X0.900000*%
%ADD53R,0.900000X1.500000*%
%ADD54R,0.900000X0.900000*%
%ADD55RoundRect,0.150000X0.587500X0.150000X-0.587500X0.150000X-0.587500X-0.150000X0.587500X-0.150000X0*%
%ADD56R,1.475000X0.450000*%
%ADD57R,1.000000X0.700000*%
G04 APERTURE END LIST*
D10*
%TO.C,C28*%
X118917675Y-52975002D03*
X120992675Y-52975002D03*
%TD*%
D11*
%TO.C,R77*%
X148000000Y-44800000D03*
X148000000Y-42800000D03*
%TD*%
D12*
%TO.C,R10*%
X91305175Y-42325002D03*
X89305175Y-42325002D03*
%TD*%
D10*
%TO.C,C12*%
X148267675Y-52075002D03*
X150342675Y-52075002D03*
%TD*%
D13*
%TO.C,C36*%
X63505175Y-78887502D03*
X63505175Y-80962502D03*
%TD*%
D10*
%TO.C,C22*%
X99917675Y-29725002D03*
X101992675Y-29725002D03*
%TD*%
D11*
%TO.C,R19*%
X60505175Y-27425002D03*
X60505175Y-25425002D03*
%TD*%
D14*
%TO.C,J1*%
X75205175Y-29255000D03*
X74405175Y-29255000D03*
D15*
X73255175Y-29255000D03*
X72255175Y-29255000D03*
X71755175Y-29255000D03*
X70755175Y-29255000D03*
D14*
X69605175Y-29255000D03*
X68805175Y-29255000D03*
X68805175Y-29255000D03*
X69605175Y-29255000D03*
D15*
X70255175Y-29255000D03*
X71255175Y-29255000D03*
X72755175Y-29255000D03*
X73755175Y-29255000D03*
D14*
X74405175Y-29255000D03*
X75205175Y-29255000D03*
D16*
X76325175Y-28680000D03*
D17*
X76325175Y-24500000D03*
D16*
X67685175Y-28680000D03*
D17*
X67685175Y-24500000D03*
%TD*%
D18*
%TO.C,3V*%
X54000000Y-86375002D03*
X54000000Y-84475002D03*
%TD*%
D19*
%TO.C,L1*%
X69500000Y-76550000D03*
X69500000Y-74250000D03*
%TD*%
D20*
%TO.C,D5*%
X103250000Y-91300000D03*
X107550000Y-91300000D03*
%TD*%
D21*
%TO.C,R58*%
X119205175Y-28225002D03*
X121205175Y-28225002D03*
%TD*%
D22*
%TO.C,R34*%
X123430175Y-59712802D03*
X123430175Y-61712802D03*
%TD*%
%TO.C,R71*%
X54000000Y-68900000D03*
X54000000Y-70900000D03*
%TD*%
D10*
%TO.C,C35*%
X139562500Y-68700000D03*
X141637500Y-68700000D03*
%TD*%
D12*
%TO.C,R49*%
X132955175Y-51475002D03*
X130955175Y-51475002D03*
%TD*%
D10*
%TO.C,C21*%
X111892675Y-65925002D03*
X113967675Y-65925002D03*
%TD*%
D23*
%TO.C,Y2*%
X82855175Y-40100002D03*
X80755175Y-40100002D03*
X80755175Y-41750002D03*
X82855175Y-41750002D03*
%TD*%
D22*
%TO.C,R73*%
X50000000Y-68900000D03*
X50000000Y-70900000D03*
%TD*%
D24*
%TO.C,S2*%
X50350175Y-27275002D03*
X50350175Y-23875002D03*
%TD*%
D21*
%TO.C,R64*%
X80955175Y-50975002D03*
X82955175Y-50975002D03*
%TD*%
%TO.C,R63*%
X80955175Y-48975002D03*
X82955175Y-48975002D03*
%TD*%
D10*
%TO.C,C29*%
X143267675Y-28825002D03*
X145342675Y-28825002D03*
%TD*%
D12*
%TO.C,R50*%
X132955175Y-49475002D03*
X130955175Y-49475002D03*
%TD*%
D25*
%TO.C,C33*%
X156200000Y-66400000D03*
X165000000Y-66400000D03*
%TD*%
D21*
%TO.C,R60*%
X99705175Y-50975002D03*
X101705175Y-50975002D03*
%TD*%
D11*
%TO.C,R5*%
X48205175Y-66325002D03*
X48205175Y-64325002D03*
%TD*%
D22*
%TO.C,R21*%
X145155175Y-23525002D03*
X145155175Y-25525002D03*
%TD*%
D13*
%TO.C,C9*%
X139655175Y-57925002D03*
X139655175Y-60000002D03*
%TD*%
D21*
%TO.C,R3*%
X74300000Y-56600000D03*
X76300000Y-56600000D03*
%TD*%
D12*
%TO.C,R39*%
X95205175Y-29225002D03*
X93205175Y-29225002D03*
%TD*%
D22*
%TO.C,R15*%
X72505175Y-36025002D03*
X72505175Y-38025002D03*
%TD*%
D26*
%TO.C,IC3*%
X166050000Y-86100000D03*
X164150000Y-86100000D03*
X165100000Y-88500000D03*
%TD*%
D11*
%TO.C,R20*%
X54255175Y-27425002D03*
X54255175Y-25425002D03*
%TD*%
D22*
%TO.C,R16*%
X70255175Y-36025002D03*
X70255175Y-38025002D03*
%TD*%
D27*
%TO.C,C18*%
X134005175Y-47562502D03*
X134005175Y-45487502D03*
%TD*%
D11*
%TO.C,R24*%
X49320000Y-31990000D03*
X49320000Y-29990000D03*
%TD*%
%TO.C,R51*%
X70505175Y-81925002D03*
X70505175Y-79925002D03*
%TD*%
D28*
%TO.C,IC12*%
X138555175Y-28875002D03*
X138555175Y-29825002D03*
X138555175Y-30775002D03*
X141055175Y-30775002D03*
X141055175Y-28875002D03*
%TD*%
D29*
%TO.C,D2*%
X74005175Y-84925002D03*
X74005175Y-88925002D03*
%TD*%
D11*
%TO.C,R1*%
X162000000Y-88500000D03*
X162000000Y-86500000D03*
%TD*%
D12*
%TO.C,R25*%
X48255175Y-60425002D03*
X46255175Y-60425002D03*
%TD*%
%TO.C,R38*%
X145405175Y-40775002D03*
X143405175Y-40775002D03*
%TD*%
D27*
%TO.C,C26*%
X109880174Y-67962502D03*
X109880174Y-65887502D03*
%TD*%
D22*
%TO.C,R30*%
X116680175Y-59712802D03*
X116680175Y-61712802D03*
%TD*%
%TO.C,R6*%
X166000000Y-82300000D03*
X166000000Y-84300000D03*
%TD*%
D27*
%TO.C,C19*%
X136105175Y-45362502D03*
X136105175Y-43287502D03*
%TD*%
D11*
%TO.C,R52*%
X57600000Y-86600000D03*
X57600000Y-84600000D03*
%TD*%
D18*
%TO.C,STATUS*%
X71700000Y-54650000D03*
X71700000Y-56550000D03*
%TD*%
D30*
%TO.C,RT1*%
X69400000Y-70900000D03*
X67600000Y-70900000D03*
%TD*%
D10*
%TO.C,C13*%
X142067675Y-45325002D03*
X144142675Y-45325002D03*
%TD*%
D11*
%TO.C,R70*%
X48000000Y-70900000D03*
X48000000Y-68900000D03*
%TD*%
D12*
%TO.C,R27*%
X48255175Y-56425002D03*
X46255175Y-56425002D03*
%TD*%
D31*
%TO.C,D1*%
X75505175Y-37725002D03*
X75505175Y-33425002D03*
%TD*%
D32*
%TO.C,C7*%
X154242675Y-50525002D03*
X152167675Y-50525002D03*
%TD*%
D28*
%TO.C,IC15*%
X138655175Y-38625002D03*
X138655175Y-39575002D03*
X138655175Y-40525002D03*
X141155175Y-40525002D03*
X141155175Y-38625002D03*
%TD*%
D12*
%TO.C,R11*%
X91305175Y-44325002D03*
X89305175Y-44325002D03*
%TD*%
D33*
%TO.C,D4*%
X45411000Y-68350000D03*
X45411000Y-71650000D03*
%TD*%
D22*
%TO.C,R7*%
X158600000Y-82400000D03*
X158600000Y-84400000D03*
%TD*%
D34*
%TO.C,IC17*%
X48978000Y-73295000D03*
X48978000Y-74565000D03*
X48978000Y-75835000D03*
X48978000Y-77105000D03*
X54400000Y-77105000D03*
X54400000Y-75835000D03*
X54400000Y-74565000D03*
X54400000Y-73295000D03*
%TD*%
D32*
%TO.C,C16*%
X140142675Y-43225002D03*
X138067675Y-43225002D03*
%TD*%
D21*
%TO.C,R8*%
X103205175Y-43025002D03*
X105205175Y-43025002D03*
%TD*%
D12*
%TO.C,R43*%
X113705175Y-51725002D03*
X111705175Y-51725002D03*
%TD*%
D22*
%TO.C,R67*%
X45400000Y-85900000D03*
X45400000Y-87900000D03*
%TD*%
D32*
%TO.C,C14*%
X144142675Y-43225002D03*
X142067675Y-43225002D03*
%TD*%
D10*
%TO.C,C6*%
X56717675Y-32675002D03*
X58792675Y-32675002D03*
%TD*%
D21*
%TO.C,R28*%
X46255175Y-58425002D03*
X48255175Y-58425002D03*
%TD*%
D18*
%TO.C,12V*%
X66060000Y-86375002D03*
X66060000Y-84475002D03*
%TD*%
D35*
%TO.C,Q1*%
X72955175Y-79975002D03*
X72955175Y-81875002D03*
X75055175Y-80925002D03*
%TD*%
D13*
%TO.C,C11*%
X141705175Y-57925002D03*
X141705175Y-60000002D03*
%TD*%
D11*
%TO.C,R54*%
X69700000Y-86600000D03*
X69700000Y-84600000D03*
%TD*%
D36*
%TO.C,IC8*%
X160505175Y-48675002D03*
X161455175Y-48675002D03*
X162405175Y-48675002D03*
X162405175Y-46175002D03*
X161455175Y-46175002D03*
X160505175Y-46175002D03*
%TD*%
D22*
%TO.C,R72*%
X52000000Y-68900000D03*
X52000000Y-70900000D03*
%TD*%
D21*
%TO.C,R76*%
X50400000Y-79200000D03*
X52400000Y-79200000D03*
%TD*%
D12*
%TO.C,R31*%
X73405175Y-61425002D03*
X71405175Y-61425002D03*
%TD*%
D18*
%TO.C,SCLK*%
X162000000Y-82350000D03*
X162000000Y-84250000D03*
%TD*%
D12*
%TO.C,R26*%
X48255175Y-62425002D03*
X46255175Y-62425002D03*
%TD*%
D21*
%TO.C,R61*%
X99955175Y-25725002D03*
X101955175Y-25725002D03*
%TD*%
D37*
%TO.C,U7*%
X123002425Y-47750002D03*
X123002425Y-48400003D03*
X123002425Y-49050002D03*
X123002425Y-49700003D03*
X123002425Y-50350001D03*
X123002425Y-51000003D03*
X123002425Y-51650001D03*
X123002425Y-52300000D03*
X123002425Y-52950001D03*
X123002425Y-53600000D03*
X123002425Y-54250001D03*
X123002425Y-54900000D03*
X123002425Y-55550001D03*
X123002425Y-56200000D03*
X128907925Y-56200002D03*
X128907925Y-55550001D03*
X128907925Y-54900002D03*
X128907925Y-54250001D03*
X128907925Y-53600003D03*
X128907925Y-52950001D03*
X128907925Y-52300003D03*
X128907925Y-51650001D03*
X128907925Y-51000003D03*
X128907925Y-50350001D03*
X128907925Y-49700003D03*
X128907925Y-49050002D03*
X128907925Y-48400003D03*
X128907925Y-47750002D03*
%TD*%
D13*
%TO.C,C37*%
X65505175Y-74387502D03*
X65505175Y-76462502D03*
%TD*%
D38*
%TO.C,Y1*%
X150555175Y-47975002D03*
X151955175Y-47975002D03*
X151955175Y-46875002D03*
X150555175Y-46875002D03*
%TD*%
D39*
%TO.C,RN1*%
X75350000Y-54300000D03*
X75350000Y-53900000D03*
X75350000Y-53500000D03*
X75350000Y-53100000D03*
X74800000Y-53100000D03*
X74800000Y-53500000D03*
X74800000Y-53900000D03*
X74800000Y-54300000D03*
%TD*%
D28*
%TO.C,IC7*%
X67505175Y-37625002D03*
X67505175Y-36675002D03*
X67505175Y-35725002D03*
X65005175Y-35725002D03*
X65005175Y-36675002D03*
X65005175Y-37625002D03*
%TD*%
D22*
%TO.C,R4*%
X48005175Y-52275002D03*
X48005175Y-54275002D03*
%TD*%
D21*
%TO.C,R57*%
X119205175Y-26225002D03*
X121205175Y-26225002D03*
%TD*%
%TO.C,R65*%
X118955175Y-48975002D03*
X120955175Y-48975002D03*
%TD*%
%TO.C,R55*%
X81205175Y-25725002D03*
X83205175Y-25725002D03*
%TD*%
D12*
%TO.C,R13*%
X91305175Y-40325002D03*
X89305175Y-40325002D03*
%TD*%
D27*
%TO.C,C10*%
X154605175Y-48462502D03*
X154605175Y-46387502D03*
%TD*%
D40*
%TO.C,RT2*%
X152400000Y-67800000D03*
X152400000Y-66000000D03*
%TD*%
D24*
%TO.C,S1*%
X45200175Y-27275002D03*
X45200175Y-23875002D03*
%TD*%
D22*
%TO.C,R68*%
X49400000Y-85900000D03*
X49400000Y-87900000D03*
%TD*%
D41*
%TO.C,C41*%
X132700000Y-68500000D03*
X132700000Y-59700000D03*
%TD*%
D21*
%TO.C,R56*%
X81205175Y-27725002D03*
X83205175Y-27725002D03*
%TD*%
D27*
%TO.C,C43*%
X56600000Y-75337500D03*
X56600000Y-73262500D03*
%TD*%
D42*
%TO.C,IC5*%
X137017175Y-48925002D03*
X137017175Y-49425002D03*
X137017175Y-49925002D03*
X137017175Y-50425002D03*
X137017175Y-50925002D03*
X137017175Y-51425002D03*
X137017175Y-51925002D03*
X137017175Y-52425002D03*
X137017175Y-52925002D03*
X137017175Y-53425002D03*
X137017175Y-53925002D03*
X137017175Y-54425002D03*
D43*
X138505175Y-55913002D03*
X139005175Y-55913002D03*
X139505175Y-55913002D03*
X140005175Y-55913002D03*
X140505175Y-55913002D03*
X141005175Y-55913002D03*
X141505175Y-55913002D03*
X142005175Y-55913002D03*
X142505175Y-55913002D03*
X143005175Y-55913002D03*
X143505175Y-55913002D03*
X144005175Y-55913002D03*
D42*
X145493175Y-54425002D03*
X145493175Y-53925002D03*
X145493175Y-53425002D03*
X145493175Y-52925002D03*
X145493175Y-52425002D03*
X145493175Y-51925002D03*
X145493175Y-51425002D03*
X145493175Y-50925002D03*
X145493175Y-50425002D03*
X145493175Y-49925002D03*
X145493175Y-49425002D03*
X145493175Y-48925002D03*
D43*
X144005175Y-47437002D03*
X143505175Y-47437002D03*
X143005175Y-47437002D03*
X142505175Y-47437002D03*
X142005175Y-47437002D03*
X141505175Y-47437002D03*
X141005175Y-47437002D03*
X140505175Y-47437002D03*
X140005175Y-47437002D03*
X139505175Y-47437002D03*
X139005175Y-47437002D03*
X138505175Y-47437002D03*
%TD*%
D27*
%TO.C,C5*%
X59505175Y-36750002D03*
X59505175Y-34675002D03*
%TD*%
D22*
%TO.C,R35*%
X125680175Y-59712802D03*
X125680175Y-61712802D03*
%TD*%
D13*
%TO.C,C8*%
X143755175Y-57937502D03*
X143755175Y-60012502D03*
%TD*%
D11*
%TO.C,R23*%
X44120000Y-31990000D03*
X44120000Y-29990000D03*
%TD*%
D44*
%TO.C,IC6*%
X61305175Y-30675002D03*
X61305175Y-31175002D03*
X61305175Y-31675002D03*
X61305175Y-32175002D03*
X61305175Y-32675002D03*
X61305175Y-33175002D03*
D45*
X62005175Y-33875002D03*
X62505175Y-33875002D03*
X63005175Y-33875002D03*
X63505175Y-33875002D03*
X64005175Y-33875002D03*
X64505175Y-33875002D03*
D44*
X65205175Y-33175002D03*
X65205175Y-32675002D03*
X65205175Y-32175002D03*
X65205175Y-31675002D03*
X65205175Y-31175002D03*
X65205175Y-30675002D03*
D45*
X64505175Y-29975002D03*
X64005175Y-29975002D03*
X63505175Y-29975002D03*
X63005175Y-29975002D03*
X62505175Y-29975002D03*
X62005175Y-29975002D03*
D46*
X63255175Y-31925002D03*
%TD*%
D10*
%TO.C,C24*%
X119167675Y-30225002D03*
X121242675Y-30225002D03*
%TD*%
D21*
%TO.C,R75*%
X46500000Y-79200000D03*
X48500000Y-79200000D03*
%TD*%
%TO.C,R62*%
X99955175Y-27725002D03*
X101955175Y-27725002D03*
%TD*%
%TO.C,R9*%
X93205175Y-46225002D03*
X95205175Y-46225002D03*
%TD*%
D12*
%TO.C,R47*%
X94955175Y-51725002D03*
X92955175Y-51725002D03*
%TD*%
D36*
%TO.C,IC9*%
X156505175Y-48675002D03*
X157455175Y-48675002D03*
X158405175Y-48675002D03*
X158405175Y-46175002D03*
X157455175Y-46175002D03*
X156505175Y-46175002D03*
%TD*%
D12*
%TO.C,R41*%
X133205175Y-29225002D03*
X131205175Y-29225002D03*
%TD*%
D22*
%TO.C,R29*%
X114430175Y-59712802D03*
X114430175Y-61712802D03*
%TD*%
D47*
%TO.C,F2*%
X74005175Y-73100002D03*
X74005175Y-77750002D03*
%TD*%
D11*
%TO.C,R74*%
X54400000Y-81100000D03*
X54400000Y-79100000D03*
%TD*%
D37*
%TO.C,U4*%
X104002425Y-25250002D03*
X104002425Y-25900003D03*
X104002425Y-26550002D03*
X104002425Y-27200003D03*
X104002425Y-27850001D03*
X104002425Y-28500003D03*
X104002425Y-29150001D03*
X104002425Y-29800000D03*
X104002425Y-30450001D03*
X104002425Y-31100000D03*
X104002425Y-31750001D03*
X104002425Y-32400000D03*
X104002425Y-33050001D03*
X104002425Y-33700000D03*
X109907925Y-33700002D03*
X109907925Y-33050001D03*
X109907925Y-32400002D03*
X109907925Y-31750001D03*
X109907925Y-31100003D03*
X109907925Y-30450001D03*
X109907925Y-29800003D03*
X109907925Y-29150001D03*
X109907925Y-28500003D03*
X109907925Y-27850001D03*
X109907925Y-27200003D03*
X109907925Y-26550002D03*
X109907925Y-25900003D03*
X109907925Y-25250002D03*
%TD*%
D11*
%TO.C,R53*%
X63600000Y-86600000D03*
X63600000Y-84600000D03*
%TD*%
D10*
%TO.C,C27*%
X99667675Y-53225002D03*
X101742675Y-53225002D03*
%TD*%
D48*
%TO.C,F1*%
X69605175Y-33175002D03*
X72905175Y-33175002D03*
%TD*%
D13*
%TO.C,C40*%
X61505175Y-70387502D03*
X61505175Y-72462502D03*
%TD*%
D12*
%TO.C,R44*%
X113705175Y-49725002D03*
X111705175Y-49725002D03*
%TD*%
D26*
%TO.C,IC11*%
X56305175Y-27625002D03*
X58205175Y-27625002D03*
X57255175Y-25225002D03*
%TD*%
D22*
%TO.C,R17*%
X61905175Y-35925002D03*
X61905175Y-37925002D03*
%TD*%
D12*
%TO.C,R45*%
X113955175Y-29225002D03*
X111955175Y-29225002D03*
%TD*%
D21*
%TO.C,R59*%
X99705175Y-48975002D03*
X101705175Y-48975002D03*
%TD*%
D22*
%TO.C,R33*%
X121180175Y-59712802D03*
X121180175Y-61712802D03*
%TD*%
D18*
%TO.C,IRQ*%
X154700000Y-82350000D03*
X154700000Y-84250000D03*
%TD*%
D13*
%TO.C,C2*%
X45955175Y-45887502D03*
X45955175Y-47962502D03*
%TD*%
D49*
%TO.C,U3*%
X115735175Y-70075002D03*
X117005175Y-70075002D03*
X118275175Y-70075002D03*
X119545175Y-70075002D03*
X120815175Y-70075002D03*
X122085175Y-70075002D03*
X123355175Y-70075002D03*
X124625175Y-70075002D03*
X124625175Y-65350602D03*
X123355175Y-65350602D03*
X122085175Y-65350602D03*
X120815175Y-65350602D03*
X119545175Y-65350602D03*
X118275175Y-65350602D03*
X117005175Y-65350602D03*
X115735175Y-65350602D03*
%TD*%
D12*
%TO.C,R46*%
X113955175Y-27225002D03*
X111955175Y-27225002D03*
%TD*%
D10*
%TO.C,C17*%
X147567675Y-56025002D03*
X149642675Y-56025002D03*
%TD*%
D21*
%TO.C,R14*%
X71400000Y-63475002D03*
X73400000Y-63475002D03*
%TD*%
D12*
%TO.C,R48*%
X94955175Y-49725002D03*
X92955175Y-49725002D03*
%TD*%
D10*
%TO.C,C31*%
X143367675Y-38575002D03*
X145442675Y-38575002D03*
%TD*%
D13*
%TO.C,C4*%
X48205175Y-45937502D03*
X48205175Y-48012502D03*
%TD*%
D33*
%TO.C,D3*%
X56600000Y-68050000D03*
X56600000Y-71350000D03*
%TD*%
D11*
%TO.C,R12*%
X101205175Y-40125002D03*
X101205175Y-38125002D03*
%TD*%
D13*
%TO.C,C38*%
X61505175Y-78887502D03*
X61505175Y-80962502D03*
%TD*%
D11*
%TO.C,R18*%
X134255175Y-55425002D03*
X134255175Y-53425002D03*
%TD*%
D37*
%TO.C,U6*%
X123252425Y-25250002D03*
X123252425Y-25900003D03*
X123252425Y-26550002D03*
X123252425Y-27200003D03*
X123252425Y-27850001D03*
X123252425Y-28500003D03*
X123252425Y-29150001D03*
X123252425Y-29800000D03*
X123252425Y-30450001D03*
X123252425Y-31100000D03*
X123252425Y-31750001D03*
X123252425Y-32400000D03*
X123252425Y-33050001D03*
X123252425Y-33700000D03*
X129157925Y-33700002D03*
X129157925Y-33050001D03*
X129157925Y-32400002D03*
X129157925Y-31750001D03*
X129157925Y-31100003D03*
X129157925Y-30450001D03*
X129157925Y-29800003D03*
X129157925Y-29150001D03*
X129157925Y-28500003D03*
X129157925Y-27850001D03*
X129157925Y-27200003D03*
X129157925Y-26550002D03*
X129157925Y-25900003D03*
X129157925Y-25250002D03*
%TD*%
D11*
%TO.C,R2*%
X154700000Y-88400000D03*
X154700000Y-86400000D03*
%TD*%
D50*
%TO.C,IC14*%
X143855175Y-64625002D03*
X143855175Y-66925002D03*
X143855175Y-69225002D03*
D51*
X150155175Y-66925002D03*
%TD*%
D10*
%TO.C,C23*%
X81167675Y-29725002D03*
X83242675Y-29725002D03*
%TD*%
D28*
%TO.C,IC13*%
X138555175Y-34375002D03*
X138555175Y-35325002D03*
X138555175Y-36275002D03*
X141055175Y-36275002D03*
X141055175Y-34375002D03*
%TD*%
D26*
%TO.C,IC4*%
X158650000Y-86100000D03*
X156750000Y-86100000D03*
X157700000Y-88500000D03*
%TD*%
D27*
%TO.C,C32*%
X141505175Y-66700002D03*
X141505175Y-64625002D03*
%TD*%
D37*
%TO.C,U2*%
X85002425Y-47750002D03*
X85002425Y-48400003D03*
X85002425Y-49050002D03*
X85002425Y-49700003D03*
X85002425Y-50350001D03*
X85002425Y-51000003D03*
X85002425Y-51650001D03*
X85002425Y-52300000D03*
X85002425Y-52950001D03*
X85002425Y-53600000D03*
X85002425Y-54250001D03*
X85002425Y-54900000D03*
X85002425Y-55550001D03*
X85002425Y-56200000D03*
X90907925Y-56200002D03*
X90907925Y-55550001D03*
X90907925Y-54900002D03*
X90907925Y-54250001D03*
X90907925Y-53600003D03*
X90907925Y-52950001D03*
X90907925Y-52300003D03*
X90907925Y-51650001D03*
X90907925Y-51000003D03*
X90907925Y-50350001D03*
X90907925Y-49700003D03*
X90907925Y-49050002D03*
X90907925Y-48400003D03*
X90907925Y-47750002D03*
%TD*%
D26*
%TO.C,IC10*%
X62555175Y-27600000D03*
X64455175Y-27600000D03*
X63505175Y-25200000D03*
%TD*%
D32*
%TO.C,C15*%
X140142675Y-45325002D03*
X138067675Y-45325002D03*
%TD*%
D52*
%TO.C,IC2*%
X51105175Y-46985002D03*
X51105175Y-48255002D03*
X51105175Y-49525002D03*
X51105175Y-50795002D03*
X51105175Y-52065002D03*
X51105175Y-53335002D03*
X51105175Y-54605002D03*
X51105175Y-55875002D03*
X51105175Y-57145002D03*
X51105175Y-58415002D03*
X51105175Y-59685002D03*
X51105175Y-60955002D03*
X51105175Y-62225002D03*
X51105175Y-63495002D03*
D53*
X54140175Y-64745002D03*
X55410175Y-64745002D03*
X56680175Y-64745002D03*
X57950175Y-64745002D03*
X59220175Y-64745002D03*
X60490175Y-64745002D03*
X61760175Y-64745002D03*
X63030175Y-64745002D03*
X64300175Y-64745002D03*
X65570175Y-64745002D03*
D52*
X68605175Y-63495002D03*
X68605175Y-62225002D03*
X68605175Y-60955002D03*
X68605175Y-59685002D03*
X68605175Y-58415002D03*
X68605175Y-57145002D03*
X68605175Y-55875002D03*
X68605175Y-54605002D03*
X68605175Y-53335002D03*
X68605175Y-52065002D03*
X68605175Y-50795002D03*
X68605175Y-49525002D03*
X68605175Y-48255002D03*
X68605175Y-46985002D03*
D54*
X58355175Y-54325002D03*
X58355175Y-55725002D03*
X59755175Y-55725002D03*
X59755175Y-54325002D03*
X59755175Y-52925002D03*
X58355175Y-52925002D03*
X56955175Y-52925002D03*
X56955175Y-54325002D03*
X56955175Y-55725002D03*
%TD*%
D12*
%TO.C,R37*%
X145355175Y-36475002D03*
X143355175Y-36475002D03*
%TD*%
D55*
%TO.C,Q2*%
X106537500Y-72250000D03*
X106537500Y-70350000D03*
X104662500Y-71300000D03*
%TD*%
D27*
%TO.C,C30*%
X85605175Y-41762502D03*
X85605175Y-39687502D03*
%TD*%
D10*
%TO.C,C34*%
X143267675Y-34325002D03*
X145342675Y-34325002D03*
%TD*%
D37*
%TO.C,U1*%
X85299675Y-25275001D03*
X85299675Y-25925002D03*
X85299675Y-26575001D03*
X85299675Y-27225002D03*
X85299675Y-27875000D03*
X85299675Y-28525002D03*
X85299675Y-29175000D03*
X85299675Y-29824999D03*
X85299675Y-30475000D03*
X85299675Y-31124999D03*
X85299675Y-31775000D03*
X85299675Y-32424999D03*
X85299675Y-33075000D03*
X85299675Y-33724999D03*
X91205175Y-33725001D03*
X91205175Y-33075000D03*
X91205175Y-32425001D03*
X91205175Y-31775000D03*
X91205175Y-31125002D03*
X91205175Y-30475000D03*
X91205175Y-29825002D03*
X91205175Y-29175000D03*
X91205175Y-28525002D03*
X91205175Y-27875000D03*
X91205175Y-27225002D03*
X91205175Y-26575001D03*
X91205175Y-25925002D03*
X91205175Y-25275001D03*
%TD*%
D13*
%TO.C,C20*%
X46720000Y-29952500D03*
X46720000Y-32027500D03*
%TD*%
D22*
%TO.C,R22*%
X147405175Y-23525002D03*
X147405175Y-25525002D03*
%TD*%
D18*
%TO.C,5V*%
X60005175Y-86375002D03*
X60005175Y-84475002D03*
%TD*%
D27*
%TO.C,C1*%
X101205175Y-43962502D03*
X101205175Y-41887502D03*
%TD*%
D22*
%TO.C,R32*%
X118930175Y-59712802D03*
X118930175Y-61712802D03*
%TD*%
D12*
%TO.C,R40*%
X95205175Y-27225002D03*
X93205175Y-27225002D03*
%TD*%
D37*
%TO.C,U5*%
X103752425Y-47750002D03*
X103752425Y-48400003D03*
X103752425Y-49050002D03*
X103752425Y-49700003D03*
X103752425Y-50350001D03*
X103752425Y-51000003D03*
X103752425Y-51650001D03*
X103752425Y-52300000D03*
X103752425Y-52950001D03*
X103752425Y-53600000D03*
X103752425Y-54250001D03*
X103752425Y-54900000D03*
X103752425Y-55550001D03*
X103752425Y-56200000D03*
X109657925Y-56200002D03*
X109657925Y-55550001D03*
X109657925Y-54900002D03*
X109657925Y-54250001D03*
X109657925Y-53600003D03*
X109657925Y-52950001D03*
X109657925Y-52300003D03*
X109657925Y-51650001D03*
X109657925Y-51000003D03*
X109657925Y-50350001D03*
X109657925Y-49700003D03*
X109657925Y-49050002D03*
X109657925Y-48400003D03*
X109657925Y-47750002D03*
%TD*%
D13*
%TO.C,C39*%
X63505175Y-70387502D03*
X63505175Y-72462502D03*
%TD*%
D56*
%TO.C,IC1*%
X99143175Y-44275002D03*
X99143175Y-43625002D03*
X99143175Y-42975002D03*
X99143175Y-42325002D03*
X99143175Y-41675002D03*
X99143175Y-41025002D03*
X99143175Y-40375002D03*
X93267175Y-40375002D03*
X93267175Y-41025002D03*
X93267175Y-41675002D03*
X93267175Y-42325002D03*
X93267175Y-42975002D03*
X93267175Y-43625002D03*
X93267175Y-44275002D03*
%TD*%
D21*
%TO.C,R69*%
X44800000Y-73400000D03*
X46800000Y-73400000D03*
%TD*%
D10*
%TO.C,C25*%
X80917675Y-53125002D03*
X82992675Y-53125002D03*
%TD*%
D21*
%TO.C,R66*%
X118955175Y-50975002D03*
X120955175Y-50975002D03*
%TD*%
D12*
%TO.C,R42*%
X133205175Y-27225002D03*
X131205175Y-27225002D03*
%TD*%
D32*
%TO.C,C3*%
X48142675Y-50125002D03*
X46067675Y-50125002D03*
%TD*%
D12*
%TO.C,R36*%
X145355175Y-31125002D03*
X143355175Y-31125002D03*
%TD*%
D57*
%TO.C,IC16*%
X61305175Y-74475002D03*
X61305175Y-75425002D03*
X61305175Y-76375002D03*
X63503175Y-76375002D03*
X63503175Y-75425002D03*
X63503175Y-74475002D03*
%TD*%
M02*
