%TF.GenerationSoftware,KiCad,Pcbnew,10.0.1*%
%TF.CreationDate,2026-05-09T20:51:14-07:00*%
%TF.ProjectId,DarkMagic,4461726b-4d61-4676-9963-2e6b69636164,rev?*%
%TF.SameCoordinates,Original*%
%TF.FileFunction,Copper,L4,Bot*%
%TF.FilePolarity,Positive*%
%FSLAX46Y46*%
G04 Gerber Fmt 4.6, Leading zero omitted, Abs format (unit mm)*
G04 Created by KiCad (PCBNEW 10.0.1) date 2026-05-09 20:51:14*
%MOMM*%
%LPD*%
G01*
G04 APERTURE LIST*
G04 Aperture macros list*
%AMRoundRect*
0 Rectangle with rounded corners*
0 $1 Rounding radius*
0 $2 $3 $4 $5 $6 $7 $8 $9 X,Y pos of 4 corners*
0 Add a 4 corners polygon primitive as box body*
4,1,4,$2,$3,$4,$5,$6,$7,$8,$9,$2,$3,0*
0 Add four circle primitives for the rounded corners*
1,1,$1+$1,$2,$3*
1,1,$1+$1,$4,$5*
1,1,$1+$1,$6,$7*
1,1,$1+$1,$8,$9*
0 Add four rect primitives between the rounded corners*
20,1,$1+$1,$2,$3,$4,$5,0*
20,1,$1+$1,$4,$5,$6,$7,0*
20,1,$1+$1,$6,$7,$8,$9,0*
20,1,$1+$1,$8,$9,$2,$3,0*%
G04 Aperture macros list end*
%TA.AperFunction,ComponentPad*%
%ADD10C,3.800000*%
%TD*%
%TA.AperFunction,ComponentPad*%
%ADD11O,1.000000X2.100000*%
%TD*%
%TA.AperFunction,ComponentPad*%
%ADD12O,1.000000X1.800000*%
%TD*%
%TA.AperFunction,ComponentPad*%
%ADD13R,3.300000X6.600000*%
%TD*%
%TA.AperFunction,ComponentPad*%
%ADD14O,3.300000X6.600000*%
%TD*%
%TA.AperFunction,ComponentPad*%
%ADD15R,1.800000X1.800000*%
%TD*%
%TA.AperFunction,ComponentPad*%
%ADD16C,1.800000*%
%TD*%
%TA.AperFunction,ComponentPad*%
%ADD17C,1.560000*%
%TD*%
%TA.AperFunction,ComponentPad*%
%ADD18C,4.890000*%
%TD*%
%TA.AperFunction,ComponentPad*%
%ADD19C,1.500000*%
%TD*%
%TA.AperFunction,ComponentPad*%
%ADD20RoundRect,0.250500X0.499500X0.499500X-0.499500X0.499500X-0.499500X-0.499500X0.499500X-0.499500X0*%
%TD*%
%TA.AperFunction,ComponentPad*%
%ADD21C,2.500000*%
%TD*%
%TA.AperFunction,ViaPad*%
%ADD22C,0.600000*%
%TD*%
%TA.AperFunction,Conductor*%
%ADD23C,0.200000*%
%TD*%
%TA.AperFunction,Conductor*%
%ADD24C,1.000000*%
%TD*%
G04 APERTURE END LIST*
D10*
%TO.P,H1,1,1_1*%
%TO.N,GND*%
X172090000Y-91400000D03*
%TD*%
D11*
%TO.P,J1,SH,SHIELD_SH*%
%TO.N,GND*%
X76325175Y-28680000D03*
D12*
X76325175Y-24500000D03*
D11*
X67685175Y-28680000D03*
D12*
X67685175Y-24500000D03*
%TD*%
D13*
%TO.P,J4,1,Pin_1_1*%
%TO.N,Net-(J4-Pin_1)*%
X84475175Y-81425002D03*
D14*
%TO.P,J4,2,Pin_2_2*%
X94475175Y-81425002D03*
%TD*%
D10*
%TO.P,H4,1,1_1*%
%TO.N,GND*%
X105200000Y-78300000D03*
%TD*%
D15*
%TO.P,J7,1,1_1*%
%TO.N,/12VIN*%
X104050000Y-86350000D03*
D16*
%TO.P,J7,2,2_2*%
%TO.N,/FAN_VOUT*%
X106550000Y-86350000D03*
%TD*%
D17*
%TO.P,J6,1,1_1*%
%TO.N,/TXA1D*%
X172635175Y-75110002D03*
%TO.P,J6,2,2_2*%
%TO.N,/RXA1D*%
X172635175Y-72352002D03*
%TO.P,J6,3,3_3*%
%TO.N,/TXA2D*%
X172635175Y-69594002D03*
%TO.P,J6,4,4_4*%
%TO.N,/RXA2D*%
X172635175Y-66836002D03*
%TO.P,J6,5,5_5*%
%TO.N,/TXA3D*%
X172635175Y-64078002D03*
%TO.P,J6,6,6_6*%
%TO.N,/RXA3D*%
X172635175Y-61320002D03*
%TO.P,J6,7,7_7*%
%TO.N,/TXA4D*%
X172635175Y-58562002D03*
%TO.P,J6,8,8_8*%
%TO.N,/RXA4D*%
X172635175Y-55804002D03*
%TO.P,J6,9,9_9*%
%TO.N,/TXA5D*%
X172635175Y-53046002D03*
%TO.P,J6,10,10_10*%
%TO.N,/RXA5D*%
X172635175Y-50288002D03*
%TO.P,J6,11,11_11*%
%TO.N,/TXA6D*%
X172635175Y-47530002D03*
%TO.P,J6,12,12_12*%
%TO.N,/RXA6D*%
X172635175Y-44772002D03*
%TO.P,J6,13,13_13*%
%TO.N,GND*%
X172635175Y-42014002D03*
%TO.P,J6,14,14_14*%
X175475175Y-73731002D03*
%TO.P,J6,15,15_15*%
%TO.N,+5V*%
X175475175Y-70973002D03*
%TO.P,J6,16,16_16*%
%TO.N,GND*%
X175475175Y-68215002D03*
%TO.P,J6,17,17_17*%
%TO.N,+5V*%
X175475175Y-65457002D03*
%TO.P,J6,18,18_18*%
%TO.N,GND*%
X175475175Y-62699002D03*
%TO.P,J6,19,19_19*%
%TO.N,+5V*%
X175475175Y-59941002D03*
%TO.P,J6,20,20_20*%
%TO.N,GND*%
X175475175Y-57183002D03*
%TO.P,J6,21,21_21*%
%TO.N,+5V*%
X175475175Y-54425002D03*
%TO.P,J6,22,22_22*%
%TO.N,GND*%
X175475175Y-51667002D03*
%TO.P,J6,23,23_23*%
%TO.N,+5V*%
X175475175Y-48909002D03*
%TO.P,J6,24,24_24*%
%TO.N,GND*%
X175475175Y-46151002D03*
%TO.P,J6,25,25_25*%
%TO.N,+5V*%
X175475175Y-43393002D03*
D18*
%TO.P,J6,MH1,MH1_MH1*%
%TO.N,GND*%
X174055175Y-35042002D03*
%TO.P,J6,MH2,MH2_MH2*%
X174055175Y-82082002D03*
%TD*%
D10*
%TO.P,H5,1,1_1*%
%TO.N,GND*%
X37980000Y-25500000D03*
%TD*%
%TO.P,H3,1,1_1*%
%TO.N,GND*%
X172100000Y-25600000D03*
%TD*%
%TO.P,H6,1,1_1*%
%TO.N,GND*%
X37990000Y-91340000D03*
%TD*%
D17*
%TO.P,J3,1,1_1*%
%TO.N,/TXB1D*%
X37395175Y-41857002D03*
%TO.P,J3,2,2_2*%
%TO.N,/RXB1D*%
X37395175Y-44615002D03*
%TO.P,J3,3,3_3*%
%TO.N,/TXB2D*%
X37395175Y-47373002D03*
%TO.P,J3,4,4_4*%
%TO.N,/RXB2D*%
X37395175Y-50131002D03*
%TO.P,J3,5,5_5*%
%TO.N,/TXB3D*%
X37395175Y-52889002D03*
%TO.P,J3,6,6_6*%
%TO.N,/RXB3D*%
X37395175Y-55647002D03*
%TO.P,J3,7,7_7*%
%TO.N,/TXB4D*%
X37395175Y-58405002D03*
%TO.P,J3,8,8_8*%
%TO.N,/RXB4D*%
X37395175Y-61163002D03*
%TO.P,J3,9,9_9*%
%TO.N,/TXB5D*%
X37395175Y-63921002D03*
%TO.P,J3,10,10_10*%
%TO.N,/RXB5D*%
X37395175Y-66679002D03*
%TO.P,J3,11,11_11*%
%TO.N,/TXB6D*%
X37395175Y-69437002D03*
%TO.P,J3,12,12_12*%
%TO.N,/RXB6D*%
X37395175Y-72195002D03*
%TO.P,J3,13,13_13*%
%TO.N,GND*%
X37395175Y-74953002D03*
%TO.P,J3,14,14_14*%
X34555175Y-43236002D03*
%TO.P,J3,15,15_15*%
%TO.N,+5V*%
X34555175Y-45994002D03*
%TO.P,J3,16,16_16*%
%TO.N,GND*%
X34555175Y-48752002D03*
%TO.P,J3,17,17_17*%
%TO.N,+5V*%
X34555175Y-51510002D03*
%TO.P,J3,18,18_18*%
%TO.N,GND*%
X34555175Y-54268002D03*
%TO.P,J3,19,19_19*%
%TO.N,+5V*%
X34555175Y-57026002D03*
%TO.P,J3,20,20_20*%
%TO.N,GND*%
X34555175Y-59784002D03*
%TO.P,J3,21,21_21*%
%TO.N,+5V*%
X34555175Y-62542002D03*
%TO.P,J3,22,22_22*%
%TO.N,GND*%
X34555175Y-65300002D03*
%TO.P,J3,23,23_23*%
%TO.N,+5V*%
X34555175Y-68058002D03*
%TO.P,J3,24,24_24*%
%TO.N,GND*%
X34555175Y-70816002D03*
%TO.P,J3,25,25_25*%
%TO.N,+5V*%
X34555175Y-73574002D03*
D18*
%TO.P,J3,MH1,MH1_MH1*%
%TO.N,GND*%
X35975175Y-81925002D03*
%TO.P,J3,MH2,MH2_MH2*%
X35975175Y-34885002D03*
%TD*%
D19*
%TO.P,J2,*%
%TO.N,*%
X154610175Y-39785002D03*
D20*
%TO.P,J2,1*%
%TO.N,/TXP*%
X162230175Y-39785002D03*
D19*
%TO.P,J2,2*%
%TO.N,/TXN*%
X160970175Y-42325002D03*
%TO.P,J2,3*%
%TO.N,/RXP*%
X159690175Y-39785002D03*
%TO.P,J2,4*%
%TO.N,+3V3*%
X158430175Y-42325002D03*
%TO.P,J2,5*%
X157150175Y-39785002D03*
%TO.P,J2,6*%
%TO.N,/RXN*%
X155890175Y-42325002D03*
%TO.P,J2,8*%
%TO.N,GND*%
X153350175Y-42325002D03*
%TO.P,J2,9*%
%TO.N,Net-(J2-Pad9)*%
X164415175Y-28525002D03*
%TO.P,J2,10*%
%TO.N,/LINKLED*%
X161875175Y-28525002D03*
%TO.P,J2,11*%
%TO.N,/ACTLED*%
X153705175Y-28525002D03*
%TO.P,J2,12*%
%TO.N,Net-(J2-Pad12)*%
X151165175Y-28525002D03*
D21*
%TO.P,J2,15,SHIELD_15*%
%TO.N,GND*%
X165535175Y-36475002D03*
%TO.P,J2,16,SHIELD_16*%
X150045175Y-36475002D03*
%TD*%
D13*
%TO.P,J5,1,Pin_1_1*%
%TO.N,GND*%
X115475175Y-81425002D03*
D14*
%TO.P,J5,2,Pin_2_2*%
X125475175Y-81425002D03*
%TD*%
D22*
%TO.N,GND*%
X58355175Y-52925002D03*
X86705175Y-29475002D03*
X119545175Y-70075002D03*
X148470000Y-66900000D03*
X157455175Y-48675002D03*
X63505175Y-80962502D03*
X56955175Y-54325002D03*
X143555175Y-52425002D03*
X51105175Y-46985002D03*
X145442675Y-38575002D03*
X142305175Y-49275002D03*
X128800000Y-59700000D03*
X134255175Y-55425002D03*
X52000000Y-68900000D03*
X76400000Y-88925002D03*
X98548303Y-33175002D03*
X41105175Y-35625002D03*
X147250000Y-66900000D03*
X89730176Y-29150001D03*
X140705175Y-41425002D03*
X48000000Y-68900000D03*
X126900000Y-30600000D03*
X87905175Y-51125002D03*
X105455175Y-29475002D03*
X149270000Y-68530000D03*
X59755175Y-52925002D03*
X99667675Y-52975000D03*
X58355175Y-55725002D03*
X124480176Y-51950001D03*
X56205176Y-40050001D03*
X156750000Y-86100000D03*
X146500000Y-71900000D03*
X127880174Y-29150001D03*
X46255175Y-56425002D03*
X70505175Y-81925002D03*
X138555175Y-30775002D03*
X58355175Y-54325002D03*
X94705175Y-41725002D03*
X153642675Y-50525002D03*
X61505175Y-70387502D03*
X138505175Y-49075002D03*
X119167675Y-30225002D03*
X177000000Y-76700000D03*
X138067675Y-45325002D03*
X57100000Y-84600000D03*
X149260000Y-65310000D03*
X80917675Y-52975002D03*
X145342675Y-28825002D03*
X116400000Y-26800000D03*
X151040000Y-68540000D03*
X151955175Y-47975002D03*
X108055175Y-51675002D03*
X97505175Y-43425002D03*
X111892675Y-65925002D03*
X138067675Y-43225002D03*
X63505175Y-70387502D03*
X139562500Y-68642677D03*
X138555175Y-28875002D03*
X107795178Y-30984999D03*
X56955175Y-55725002D03*
X56717675Y-32675002D03*
X143855175Y-66925002D03*
X48978000Y-77105000D03*
X161600000Y-66400000D03*
X148200000Y-60300000D03*
X139655175Y-60000002D03*
X59505175Y-36750002D03*
X46255175Y-58425002D03*
X134005175Y-45487502D03*
X147700000Y-73000000D03*
X63600000Y-84600000D03*
X139094729Y-53154687D03*
X165000000Y-69000000D03*
X168400000Y-66400000D03*
X45200175Y-23875002D03*
X154605175Y-48462502D03*
X69700000Y-40000000D03*
X48505175Y-43225002D03*
X120815175Y-70075002D03*
X151040000Y-65320000D03*
X46067675Y-50125002D03*
X127305175Y-51675002D03*
X108305175Y-29175002D03*
X141505175Y-66700002D03*
X158400000Y-60300000D03*
X44480174Y-38965087D03*
X63255175Y-31925002D03*
X146020000Y-66900000D03*
X59755175Y-55725002D03*
X150155175Y-66925002D03*
X85605173Y-39687502D03*
X168200000Y-74300000D03*
X117580174Y-54150001D03*
X124625175Y-70075002D03*
X152800000Y-60300000D03*
X105230176Y-51950001D03*
X46255175Y-60425002D03*
X143755175Y-60012502D03*
X68605175Y-46985002D03*
X89305175Y-51075002D03*
X142755175Y-49775002D03*
X142405175Y-39525002D03*
X138555175Y-36275002D03*
X80805175Y-40125002D03*
X150555175Y-46875002D03*
X63604175Y-76375002D03*
X54140175Y-64745002D03*
X81167675Y-29725002D03*
X144142675Y-45325002D03*
X109880174Y-65887502D03*
X99105175Y-38875002D03*
X56955175Y-52925002D03*
X141705175Y-60000002D03*
X141505175Y-54125002D03*
X70255175Y-38025002D03*
X138555175Y-34375002D03*
X138655175Y-38625002D03*
X62400000Y-31175002D03*
X136650000Y-59700000D03*
X136105175Y-43287502D03*
X97805175Y-51525002D03*
X76505175Y-55300000D03*
X99917675Y-29725002D03*
X107100000Y-69100000D03*
X76700000Y-77600000D03*
X138705175Y-49975002D03*
X164150000Y-86100000D03*
X132700000Y-61100000D03*
X46255175Y-62425002D03*
X71000000Y-77600000D03*
X138655175Y-40525002D03*
X132700000Y-59700000D03*
X48205175Y-66325002D03*
X161455175Y-48675002D03*
X138305175Y-54675002D03*
X150958545Y-51459132D03*
X50350175Y-23875002D03*
X167200000Y-59200000D03*
X45520000Y-34750000D03*
X177005175Y-69425002D03*
X59755175Y-54325002D03*
X67505175Y-36675002D03*
X171705175Y-77825002D03*
X143255175Y-49275002D03*
%TO.N,+3V3*%
X140730175Y-49900002D03*
X86655175Y-44225002D03*
X143367675Y-38575002D03*
X154700000Y-82350000D03*
X83242675Y-29725002D03*
X48205175Y-48012502D03*
X101992675Y-29725002D03*
X143267675Y-28825002D03*
X86831128Y-52925002D03*
X131300000Y-72200000D03*
X134205175Y-47600000D03*
X73355175Y-63475002D03*
X139655175Y-52325002D03*
X77195000Y-90705000D03*
X46005175Y-48012502D03*
X141255175Y-49375002D03*
X140400000Y-70500000D03*
X120992675Y-52975002D03*
X138200000Y-75180000D03*
X85521989Y-41725002D03*
X141700000Y-68700000D03*
X48005175Y-54275002D03*
X143267675Y-34325002D03*
X145155175Y-23525002D03*
X125000000Y-52600000D03*
X142900000Y-75180000D03*
X53200000Y-49200000D03*
X138700000Y-72200000D03*
X101205175Y-41887502D03*
X101780174Y-53250001D03*
X140205175Y-43225002D03*
X148342797Y-51999880D03*
X147005175Y-32625002D03*
X140700000Y-75180000D03*
X140155175Y-49325002D03*
X138505175Y-53725002D03*
X44120000Y-31990000D03*
X145400000Y-75180000D03*
X54000000Y-86375002D03*
X156200000Y-66400000D03*
X121125395Y-30107723D03*
X157455175Y-46184999D03*
%TO.N,/XS3*%
X89305175Y-42325002D03*
X124714795Y-28500003D03*
%TO.N,/12VIN*%
X44800000Y-73400000D03*
X103250000Y-91300000D03*
X51600000Y-73300000D03*
X152400000Y-67800000D03*
X50000000Y-68900000D03*
X144800000Y-77800000D03*
X68500000Y-82600000D03*
X66060000Y-86375002D03*
X69400000Y-70900000D03*
X76850000Y-85450000D03*
%TO.N,/USB_VBUSF*%
X69605173Y-29226474D03*
X69605175Y-33175002D03*
X74405175Y-29255000D03*
%TO.N,/USB_DP*%
X67505175Y-35725002D03*
X71755175Y-27925002D03*
%TO.N,/USB_DN*%
X67505175Y-37625002D03*
X72255175Y-30600000D03*
%TO.N,Net-(3V1-A)*%
X54000000Y-84475002D03*
X57100000Y-86600000D03*
%TO.N,+5V*%
X136500000Y-64625002D03*
X75505175Y-37725002D03*
X67400000Y-72400000D03*
X63505175Y-72462502D03*
X68800000Y-67500000D03*
X66000000Y-72400000D03*
X141505175Y-64625002D03*
X65900000Y-70400000D03*
X61505175Y-72462502D03*
X138700000Y-64625002D03*
X132100000Y-64625002D03*
X60005175Y-86375002D03*
X66900000Y-67500000D03*
X134300000Y-64625002D03*
%TO.N,/FAN_VOUT*%
X104662500Y-71300000D03*
X107550000Y-91300000D03*
%TO.N,/RXA3D*%
X166700000Y-53200000D03*
X119205175Y-28225002D03*
X164500000Y-55400000D03*
%TO.N,/D4*%
X105100000Y-54800000D03*
X120630175Y-56800001D03*
%TO.N,Net-(Q2-G)*%
X132700000Y-68500000D03*
X106537500Y-72250000D03*
%TO.N,/TXB6D*%
X80200000Y-64700000D03*
X131605175Y-54725002D03*
%TO.N,/XTAL*%
X80755175Y-41750002D03*
X95805175Y-44725002D03*
%TO.N,/RXA4D*%
X80955175Y-50675002D03*
%TO.N,/TXA4D*%
X80955175Y-48975002D03*
%TO.N,/RXB6D*%
X132955175Y-49475002D03*
X105700000Y-59700000D03*
X91500000Y-62200000D03*
X107802588Y-57502588D03*
%TO.N,/RXA5D*%
X99705175Y-50975002D03*
X147205175Y-60925002D03*
X97505175Y-54100000D03*
X158005175Y-56525002D03*
%TO.N,/IO12*%
X51105175Y-63495002D03*
X48205175Y-64325002D03*
%TO.N,/TXB1D*%
X95205175Y-29075002D03*
X91105175Y-23425002D03*
%TO.N,/RTS*%
X54300000Y-29500000D03*
X64455175Y-28400000D03*
%TO.N,/SO*%
X138555175Y-29825002D03*
X106603459Y-32726716D03*
X148305175Y-39825002D03*
X127105175Y-31808932D03*
X131705175Y-31125002D03*
X124905181Y-54274996D03*
X87205178Y-32375002D03*
X125155181Y-31824996D03*
X140795178Y-27184999D03*
%TO.N,/ESP_A0*%
X53245175Y-58415002D03*
X115735175Y-70075002D03*
%TO.N,/SCLK*%
X86721346Y-33073866D03*
X105445176Y-33055001D03*
X86505178Y-55474999D03*
X119250824Y-54827390D03*
X127005175Y-55425002D03*
X145405175Y-40775002D03*
X124705178Y-32974999D03*
X144005175Y-49925002D03*
X105355175Y-56425002D03*
X128355175Y-36275002D03*
%TO.N,/ESP_SCLK*%
X90429437Y-38600740D03*
X128800000Y-44900000D03*
X68605175Y-57145002D03*
X74300000Y-52800000D03*
X74205175Y-40925002D03*
X113140087Y-62759913D03*
X87205175Y-37725002D03*
X166000000Y-82300000D03*
X78005175Y-59825002D03*
%TO.N,/1IN+*%
X45400000Y-85900000D03*
X67600000Y-70900000D03*
X46500000Y-79200000D03*
X48978000Y-75835000D03*
%TO.N,/TXA1D*%
X81205175Y-25725002D03*
%TO.N,/RXA1D*%
X81205175Y-27725002D03*
%TO.N,/TXA2D*%
X99955175Y-25725002D03*
X166000000Y-55400000D03*
X168200000Y-53200000D03*
%TO.N,/RXA2D*%
X112705175Y-24225002D03*
X99955175Y-27725002D03*
%TO.N,/TXA3D*%
X119205175Y-26225002D03*
%TO.N,/TXA5D*%
X145100000Y-56700000D03*
X136816465Y-56683535D03*
%TO.N,/TXA6D*%
X160700000Y-38000000D03*
X132539077Y-39512393D03*
X118955175Y-48975002D03*
%TO.N,/RXA6D*%
X133500000Y-39400000D03*
X149405175Y-30725002D03*
X131955175Y-35875002D03*
X118955175Y-50975002D03*
%TO.N,/ESP_A2*%
X118275175Y-70075002D03*
X53255175Y-55925002D03*
%TO.N,/USB_VBUS*%
X75505175Y-33425002D03*
X72905175Y-33175002D03*
X65005175Y-36675002D03*
%TO.N,/XS4*%
X86480176Y-50700001D03*
X89305175Y-44325002D03*
%TO.N,/ESP_IRQ*%
X118355175Y-57075002D03*
X93500000Y-54100000D03*
X154780174Y-53350001D03*
X158600000Y-82400000D03*
X104800000Y-38900000D03*
X135405175Y-34125002D03*
X132205175Y-33700002D03*
X112005175Y-34625002D03*
X131455175Y-47775002D03*
X111605175Y-56825002D03*
X135620555Y-47109622D03*
X145605175Y-46925002D03*
X94505175Y-57425002D03*
X67100000Y-60900000D03*
X79105175Y-54725002D03*
X148355175Y-46275002D03*
X127605175Y-48238861D03*
X85205175Y-57825002D03*
X168573971Y-68226029D03*
%TO.N,/2IN+*%
X56500000Y-77300000D03*
X100600000Y-73600000D03*
X64000000Y-73600000D03*
X152400000Y-66000000D03*
X120700000Y-74800000D03*
%TO.N,/2OUT*%
X54400000Y-79100000D03*
X54400000Y-74565000D03*
X52400000Y-79200000D03*
X56600000Y-71350000D03*
%TO.N,/XS1*%
X97505175Y-34025002D03*
X86705175Y-28225002D03*
X105205175Y-43025002D03*
%TO.N,/TXB5D*%
X60805175Y-62225002D03*
X98100000Y-62225002D03*
X114105175Y-56925002D03*
%TO.N,/ESP_E3*%
X122085175Y-70075002D03*
X53255175Y-57175002D03*
%TO.N,/WTXP*%
X160505175Y-48675002D03*
X145755175Y-47773531D03*
X135755175Y-48175002D03*
%TO.N,/WTXN*%
X162405175Y-48675002D03*
X135467991Y-48921681D03*
%TO.N,/TXN*%
X162405175Y-46175002D03*
%TO.N,/TXP*%
X160505175Y-46175002D03*
%TO.N,/ESP_A1*%
X53245175Y-59685002D03*
X117005175Y-70075002D03*
%TO.N,/ESP_USRST*%
X86605175Y-49325002D03*
X65600000Y-53200000D03*
X51105175Y-53335002D03*
X105303075Y-49300003D03*
X128117275Y-46478026D03*
X84100000Y-45500000D03*
X73600000Y-53200000D03*
%TO.N,/XS6*%
X124477503Y-50634721D03*
X89305175Y-40325002D03*
%TO.N,/D5*%
X125680175Y-59712802D03*
X126455175Y-53875002D03*
%TO.N,/SI*%
X101580174Y-33050001D03*
X83305172Y-32325005D03*
X83055175Y-54775002D03*
X101805175Y-54775002D03*
X150480174Y-38750001D03*
X145355175Y-36475002D03*
X153000000Y-36200000D03*
X120997117Y-54550001D03*
X121255175Y-32375002D03*
%TO.N,/CD_DP*%
X60255175Y-30925002D03*
X65005175Y-35725002D03*
%TO.N,/CD_DN*%
X65005175Y-37625002D03*
X60005175Y-31925002D03*
%TO.N,/1V20*%
X143805175Y-57906252D03*
X155000000Y-72500000D03*
%TO.N,/WRXP*%
X156505175Y-48675002D03*
X134505175Y-49925002D03*
%TO.N,/WRXN*%
X158405175Y-48675002D03*
X135243175Y-51425002D03*
%TO.N,/LINKLED*%
X147236175Y-54425002D03*
%TO.N,/ACTLED*%
X147255175Y-53425002D03*
%TO.N,/ESP_SCSN*%
X76623435Y-58425002D03*
X74300000Y-55000000D03*
X143505175Y-50925002D03*
X70200000Y-58425002D03*
%TO.N,/RSTB*%
X62005175Y-37675002D03*
X63564795Y-34865382D03*
%TO.N,/ESP_RX0*%
X68605175Y-52065002D03*
X63465822Y-27534179D03*
%TO.N,/ESP_TX0*%
X63022831Y-28770494D03*
X68605175Y-50795002D03*
%TO.N,/XS2*%
X97255175Y-35475002D03*
X95205175Y-46225002D03*
X105455175Y-28225002D03*
%TO.N,/TXB4D*%
X94955175Y-51725002D03*
%TO.N,/RXN*%
X158405175Y-46175002D03*
%TO.N,/RXP*%
X156505175Y-46175002D03*
%TO.N,/TXB3D*%
X133205175Y-29225002D03*
%TO.N,/RXB1D*%
X95205175Y-27225002D03*
%TO.N,/TXB2D*%
X113955175Y-28675002D03*
%TO.N,/RXB2D*%
X113955175Y-27225002D03*
%TO.N,/RXB3D*%
X133205175Y-27225002D03*
%TO.N,/RXB4D*%
X94933520Y-49852417D03*
%TO.N,/RXB5D*%
X69100000Y-64807461D03*
X113705175Y-49725002D03*
X59100000Y-67225002D03*
X78005175Y-56025002D03*
%TO.N,Net-(5VDC1-A)*%
X63600000Y-86600000D03*
X60005175Y-84475002D03*
%TO.N,/D3*%
X87744051Y-53625002D03*
X121180175Y-59712802D03*
%TO.N,/XS5*%
X105230176Y-50700001D03*
X101205175Y-38125002D03*
%TO.N,/D2*%
X118930175Y-59712802D03*
X125802173Y-31354459D03*
%TO.N,/ESP_MOSI*%
X138555175Y-35325002D03*
X68605175Y-48255002D03*
%TO.N,/ESP_MISO*%
X73305175Y-42325002D03*
X68605175Y-55875002D03*
X145355175Y-31125002D03*
%TD*%
%TO.N,GND*%
D23*
X157925002Y-59825002D02*
X156005175Y-59825002D01*
X142405175Y-39525002D02*
X142405175Y-39725002D01*
X97505175Y-40475002D02*
X99105175Y-38875002D01*
X156005175Y-59825002D02*
X155630177Y-60200000D01*
X85167673Y-40125002D02*
X80805175Y-40125002D01*
X85605173Y-39687502D02*
X85167673Y-40125002D01*
X90355175Y-29725002D02*
X99917675Y-29725002D01*
D24*
X177005175Y-69425002D02*
X177005175Y-76694825D01*
D23*
X142405175Y-39725002D02*
X140705175Y-41425002D01*
X89730176Y-29150001D02*
X89780174Y-29150001D01*
D24*
X177005175Y-76694825D02*
X177000000Y-76700000D01*
D23*
X89780174Y-29150001D02*
X90355175Y-29725002D01*
X97505175Y-43425002D02*
X97505175Y-40475002D01*
X155630177Y-60200000D02*
X152900000Y-60200000D01*
X152900000Y-60200000D02*
X152800000Y-60300000D01*
D24*
X71000000Y-77600000D02*
X76700000Y-77600000D01*
D23*
X152800000Y-60300000D02*
X148200000Y-60300000D01*
X158400000Y-60300000D02*
X157925002Y-59825002D01*
%TO.N,+3V3*%
D24*
X58329998Y-90705000D02*
X54000000Y-86375002D01*
X77195000Y-90705000D02*
X58329998Y-90705000D01*
%TO.N,/12VIN*%
X104050000Y-86350000D02*
X77750000Y-86350000D01*
D23*
X51600000Y-73300000D02*
X51500000Y-73400000D01*
D24*
X152400000Y-70200000D02*
X152400000Y-67800000D01*
X76850000Y-85450000D02*
X69400000Y-78000000D01*
X77750000Y-86350000D02*
X76850000Y-85450000D01*
X50000000Y-71700000D02*
X51600000Y-73300000D01*
X69400000Y-78000000D02*
X69400000Y-70900000D01*
X51500000Y-73400000D02*
X44800000Y-73400000D01*
X144800000Y-77800000D02*
X152400000Y-70200000D01*
X50000000Y-68900000D02*
X50000000Y-71700000D01*
%TO.N,/USB_DP*%
D23*
X71755175Y-27925002D02*
X67505175Y-32175002D01*
X67505175Y-32175002D02*
X67505175Y-35725002D01*
%TO.N,/USB_DN*%
X72255175Y-32875002D02*
X67505175Y-37625002D01*
X72255175Y-30600000D02*
X72255175Y-32875002D01*
%TO.N,/FAN_VOUT*%
D24*
X106550000Y-90300000D02*
X107550000Y-91300000D01*
X106550000Y-86350000D02*
X106550000Y-90300000D01*
%TO.N,/D4*%
D23*
X106025002Y-55425002D02*
X118929197Y-55425002D01*
X119780175Y-55950001D02*
X120630175Y-56800001D01*
X118929197Y-55425002D02*
X119454196Y-55950001D01*
X119454196Y-55950001D02*
X119780175Y-55950001D01*
X105100000Y-54800000D02*
X105400000Y-54800000D01*
X105400000Y-54800000D02*
X106025002Y-55425002D01*
%TO.N,/XTAL*%
X94405175Y-43325002D02*
X82330175Y-43325002D01*
X82330175Y-43325002D02*
X80755175Y-41750002D01*
X95805175Y-44725002D02*
X94405175Y-43325002D01*
%TO.N,/RXA5D*%
X97505175Y-54100000D02*
X97505175Y-53175002D01*
X97505175Y-53175002D02*
X99705175Y-50975002D01*
%TO.N,/IO12*%
X51105175Y-63495002D02*
X49035175Y-63495002D01*
X49035175Y-63495002D02*
X48205175Y-64325002D01*
%TO.N,/RTS*%
X64455175Y-27355175D02*
X64025002Y-26925002D01*
X54300000Y-27880177D02*
X54300000Y-29500000D01*
X64025002Y-26925002D02*
X55255175Y-26925002D01*
X55255175Y-26925002D02*
X54300000Y-27880177D01*
X64455175Y-28400000D02*
X64455175Y-27355175D01*
%TO.N,/SO*%
X125155181Y-31152922D02*
X125553644Y-30754459D01*
X106603459Y-32726716D02*
X106901745Y-33025002D01*
X123205175Y-31824996D02*
X125155181Y-31824996D01*
X127105175Y-46093631D02*
X126305175Y-46893631D01*
X106251745Y-32375002D02*
X106603459Y-32726716D01*
X125155181Y-31824996D02*
X125155181Y-31152922D01*
X87205178Y-32375002D02*
X106251745Y-32375002D01*
X122005169Y-33025002D02*
X123205175Y-31824996D01*
X106901745Y-33025002D02*
X122005169Y-33025002D01*
X127105175Y-31808932D02*
X127105175Y-46093631D01*
X126305175Y-48805541D02*
X126430177Y-48930543D01*
X126430177Y-52750000D02*
X124905181Y-54274996D01*
X126305175Y-46893631D02*
X126305175Y-48805541D01*
X125553644Y-30754459D02*
X126050702Y-30754459D01*
X126050702Y-30754459D02*
X127105175Y-31808932D01*
X126430177Y-48930543D02*
X126430177Y-52750000D01*
%TO.N,/ESP_A0*%
X114060173Y-68400000D02*
X63230173Y-68400000D01*
X63230173Y-68400000D02*
X53245175Y-58415002D01*
X115735175Y-70075002D02*
X114060173Y-68400000D01*
%TO.N,/SCLK*%
X127505175Y-36825002D02*
X128055175Y-36275002D01*
X126955175Y-46809316D02*
X127505175Y-46259316D01*
X127505175Y-46259316D02*
X127505175Y-36825002D01*
X141453704Y-51925002D02*
X140103704Y-51925002D01*
X130255175Y-52175002D02*
X126955175Y-48875002D01*
X86721346Y-33073866D02*
X97598638Y-33073866D01*
X126955175Y-48875002D02*
X126955175Y-46809316D01*
X98299774Y-33775002D02*
X104725175Y-33775002D01*
X130255175Y-52175002D02*
X127005175Y-55425002D01*
X138956646Y-52175002D02*
X130255175Y-52175002D01*
X105585180Y-33055001D02*
X105445176Y-33055001D01*
X124255175Y-33425002D02*
X105955181Y-33425002D01*
X139406646Y-51725002D02*
X138956646Y-52175002D01*
X140103704Y-51925002D02*
X139903704Y-51725002D01*
X139903704Y-51725002D02*
X139406646Y-51725002D01*
X143453704Y-49925002D02*
X141453704Y-51925002D01*
X105955181Y-33425002D02*
X105585180Y-33055001D01*
X104725175Y-33775002D02*
X105445176Y-33055001D01*
X97598638Y-33073866D02*
X98299774Y-33775002D01*
X144005175Y-49925002D02*
X143453704Y-49925002D01*
X128055175Y-36275002D02*
X128355175Y-36275002D01*
X124705178Y-32974999D02*
X124255175Y-33425002D01*
%TO.N,/ESP_SCLK*%
X127451644Y-78900000D02*
X161700000Y-78900000D01*
X161700000Y-78900000D02*
X166000000Y-83200000D01*
X166000000Y-83200000D02*
X166000000Y-82300000D01*
X118875175Y-68495002D02*
X118875175Y-70323531D01*
X87605175Y-38125002D02*
X87205175Y-37725002D01*
X89953699Y-38125002D02*
X87605175Y-38125002D01*
X90429437Y-38600740D02*
X89953699Y-38125002D01*
X118875175Y-70323531D02*
X127451644Y-78900000D01*
X113140087Y-62759913D02*
X118875175Y-68495002D01*
%TO.N,/1IN+*%
X58550000Y-70750000D02*
X55281371Y-70750000D01*
X59300000Y-71500000D02*
X58550000Y-70750000D01*
X50196371Y-75835000D02*
X48978000Y-75835000D01*
X67000000Y-71500000D02*
X59300000Y-71500000D01*
X67600000Y-70900000D02*
X67000000Y-71500000D01*
X55281371Y-70750000D02*
X50196371Y-75835000D01*
%TO.N,/RXA1D*%
X133905175Y-48705175D02*
X133905175Y-50173531D01*
X150424661Y-51144488D02*
X150358545Y-51210603D01*
X125034034Y-27634622D02*
X126055175Y-28655763D01*
X133905175Y-44468263D02*
X134655176Y-45218264D01*
X133200000Y-47211918D02*
X133200000Y-48000000D01*
X148955175Y-49675002D02*
X150424661Y-51144488D01*
X137605175Y-40425002D02*
X133905175Y-44125002D01*
X135569391Y-50525002D02*
X137670862Y-48423531D01*
X150710016Y-52059132D02*
X151207074Y-52059132D01*
X81205175Y-27725002D02*
X82425002Y-27725002D01*
X121606646Y-31725002D02*
X124114795Y-29216853D01*
X171632175Y-72352002D02*
X172635175Y-72352002D01*
X137670862Y-48423531D02*
X147003703Y-48423531D01*
X124114795Y-28015383D02*
X124495556Y-27634622D01*
X126055175Y-28655763D02*
X126055175Y-28875002D01*
X147003703Y-48423531D02*
X148255175Y-49675002D01*
X133200000Y-48000000D02*
X133905175Y-48705175D01*
X126055175Y-28875002D02*
X137605175Y-40425002D01*
X133905175Y-50173531D02*
X134256646Y-50525002D01*
X148255175Y-49675002D02*
X148955175Y-49675002D01*
X124114795Y-29216853D02*
X124114795Y-28015383D01*
X133905175Y-44125002D02*
X133905175Y-44468263D01*
X134655176Y-45756742D02*
X133200000Y-47211918D01*
X150358545Y-51210603D02*
X150358545Y-51707661D01*
X124495556Y-27634622D02*
X125034034Y-27634622D01*
X86425002Y-31725002D02*
X121606646Y-31725002D01*
X150358545Y-51707661D02*
X150710016Y-52059132D01*
X82425002Y-27725002D02*
X86425002Y-31725002D01*
X134655176Y-45218264D02*
X134655176Y-45756742D01*
X151207074Y-52059132D02*
X151273190Y-51993017D01*
X151273190Y-51993017D02*
X171632175Y-72352002D01*
X134256646Y-50525002D02*
X135569391Y-50525002D01*
%TO.N,/TXA2D*%
X166000000Y-55400000D02*
X166000000Y-62958827D01*
X166000000Y-62958827D02*
X172635175Y-69594002D01*
%TO.N,/RXA6D*%
X155156646Y-30725002D02*
X169203646Y-44772002D01*
X131705175Y-36125002D02*
X131955175Y-35875002D01*
X169203646Y-44772002D02*
X172635175Y-44772002D01*
X133500000Y-39400000D02*
X131705175Y-37605175D01*
X131705175Y-37605175D02*
X131705175Y-36125002D01*
X149405175Y-30725002D02*
X155156646Y-30725002D01*
%TO.N,/ESP_A2*%
X73603704Y-64075002D02*
X73106646Y-64075002D01*
X118275175Y-70075002D02*
X111800173Y-63600000D01*
X53503704Y-57775002D02*
X53006646Y-57775002D01*
X72755175Y-63723531D02*
X72755175Y-63600000D01*
X73106646Y-64075002D02*
X72755175Y-63723531D01*
X59328702Y-63600000D02*
X53503704Y-57775002D01*
X53006646Y-57775002D02*
X52655175Y-57423531D01*
X73955175Y-63723531D02*
X73603704Y-64075002D01*
X52655175Y-56525002D02*
X53255175Y-55925002D01*
X52655175Y-57423531D02*
X52655175Y-56525002D01*
X73955175Y-63600000D02*
X73955175Y-63723531D01*
X111800173Y-63600000D02*
X73955175Y-63600000D01*
X72755175Y-63600000D02*
X59328702Y-63600000D01*
%TO.N,/XS4*%
X89305175Y-47875002D02*
X86480176Y-50700001D01*
X89305175Y-44325002D02*
X89305175Y-47875002D01*
%TO.N,/ESP_IRQ*%
X112105175Y-56325002D02*
X117605175Y-56325002D01*
X127355175Y-47988861D02*
X127605175Y-48238861D01*
X147705175Y-46925002D02*
X148355175Y-46275002D01*
X117605175Y-56325002D02*
X118355175Y-57075002D01*
X145605175Y-46925002D02*
X147705175Y-46925002D01*
X154780174Y-54432232D02*
X154780174Y-53350001D01*
X111605175Y-56825002D02*
X112105175Y-56325002D01*
X127388018Y-46942159D02*
X127355175Y-46975002D01*
X168573971Y-68226029D02*
X154780174Y-54432232D01*
X130705175Y-48525002D02*
X128970861Y-48525002D01*
X128970861Y-48525002D02*
X127388018Y-46942159D01*
X127355175Y-46975002D02*
X127355175Y-47988861D01*
X131455175Y-47775002D02*
X130705175Y-48525002D01*
%TO.N,/2IN+*%
X119500000Y-73600000D02*
X120700000Y-74800000D01*
X100600000Y-73600000D02*
X119500000Y-73600000D01*
X60200000Y-73600000D02*
X56500000Y-77300000D01*
X64000000Y-73600000D02*
X60200000Y-73600000D01*
%TO.N,/2OUT*%
X56600000Y-71350000D02*
X56600000Y-72365000D01*
X54400000Y-79100000D02*
X52500000Y-79100000D01*
X56600000Y-72365000D02*
X54400000Y-74565000D01*
X52500000Y-79100000D02*
X52400000Y-79200000D01*
X54400000Y-74565000D02*
X54400000Y-79100000D01*
%TO.N,/XS1*%
X105205175Y-41276473D02*
X105205175Y-43025002D01*
X97505175Y-34025002D02*
X97953704Y-34025002D01*
X97953704Y-34025002D02*
X105205175Y-41276473D01*
%TO.N,/TXB5D*%
X93900000Y-62225002D02*
X93325002Y-62800000D01*
X61380173Y-62800000D02*
X60805175Y-62225002D01*
X93325002Y-62800000D02*
X61380173Y-62800000D01*
X98100000Y-62225002D02*
X93900000Y-62225002D01*
%TO.N,/ESP_E3*%
X111656646Y-60925002D02*
X110981648Y-61600000D01*
X78900000Y-61600000D02*
X76900000Y-59600000D01*
X53455175Y-57375002D02*
X53255175Y-57175002D01*
X112153704Y-60925002D02*
X111656646Y-60925002D01*
X121063704Y-69475002D02*
X121663704Y-70075002D01*
X122085175Y-70075002D02*
X121663704Y-70075002D01*
X121063704Y-69475002D02*
X120703704Y-69475002D01*
X53669390Y-57375002D02*
X53455175Y-57375002D01*
X76900000Y-59600000D02*
X55894388Y-59600000D01*
X110981648Y-61600000D02*
X78900000Y-61600000D01*
X55894388Y-59600000D02*
X53669390Y-57375002D01*
X120703704Y-69475002D02*
X112153704Y-60925002D01*
%TO.N,/WTXP*%
X160505175Y-48675002D02*
X159905175Y-49275002D01*
X148420861Y-49275002D02*
X147169389Y-48023531D01*
X145755175Y-48023531D02*
X145755175Y-47773531D01*
X159905175Y-49275002D02*
X148420861Y-49275002D01*
X147169389Y-48023531D02*
X145755175Y-48023531D01*
%TO.N,/WTXN*%
X141838019Y-43125002D02*
X152256646Y-43125002D01*
X157206646Y-48075002D02*
X161805175Y-48075002D01*
X152256646Y-43125002D02*
X157206646Y-48075002D01*
X136041340Y-48921681D02*
X141838019Y-43125002D01*
X135467991Y-48921681D02*
X136041340Y-48921681D01*
X161805175Y-48075002D02*
X162405175Y-48675002D01*
%TO.N,/TXN*%
X160970175Y-42325002D02*
X160970175Y-44740002D01*
X160970175Y-44740002D02*
X162405175Y-46175002D01*
%TO.N,/TXP*%
X159920175Y-41890077D02*
X159920175Y-45590002D01*
X159920175Y-45590002D02*
X160505175Y-46175002D01*
X162025250Y-39785002D02*
X159920175Y-41890077D01*
%TO.N,/ESP_A1*%
X53949489Y-59685002D02*
X53245175Y-59685002D01*
X117005175Y-70075002D02*
X116380177Y-70700000D01*
X107851471Y-70700000D02*
X105951471Y-68800000D01*
X105951471Y-68800000D02*
X63064487Y-68800000D01*
X116380177Y-70700000D02*
X107851471Y-70700000D01*
X63064487Y-68800000D02*
X53949489Y-59685002D01*
%TO.N,/D5*%
X126755175Y-54625002D02*
X125680175Y-55700002D01*
X126755175Y-54175002D02*
X126755175Y-54625002D01*
X126455175Y-53875002D02*
X126755175Y-54175002D01*
X125680175Y-55700002D02*
X125680175Y-59712802D01*
%TO.N,/CD_DP*%
X60255175Y-30925002D02*
X60755175Y-30925002D01*
X60755175Y-30925002D02*
X65005175Y-35175002D01*
X65005175Y-35175002D02*
X65005175Y-35725002D01*
%TO.N,/CD_DN*%
X64455175Y-37625002D02*
X65005175Y-37625002D01*
X60005175Y-33175002D02*
X64455175Y-37625002D01*
X60005175Y-31925002D02*
X60005175Y-33175002D01*
%TO.N,/1V20*%
X143805175Y-57906252D02*
X143805175Y-58425000D01*
X148980175Y-63600000D02*
X152000000Y-63600000D01*
X155000000Y-66600000D02*
X155000000Y-72500000D01*
X152000000Y-63600000D02*
X155000000Y-66600000D01*
X143805175Y-58425000D02*
X148980175Y-63600000D01*
%TO.N,/WRXP*%
X134605175Y-50025002D02*
X134505175Y-49925002D01*
X151355175Y-43525002D02*
X142003704Y-43525002D01*
X156505175Y-48675002D02*
X151355175Y-43525002D01*
X142003704Y-43525002D02*
X135503704Y-50025002D01*
X135503704Y-50025002D02*
X134605175Y-50025002D01*
%TO.N,/ESP_SCSN*%
X70200000Y-58425002D02*
X76623435Y-58425002D01*
X74300000Y-56101567D02*
X76623435Y-58425002D01*
X74300000Y-55000000D02*
X74300000Y-56101567D01*
%TO.N,/ESP_RX0*%
X62797469Y-27534179D02*
X59405175Y-30926473D01*
X65100000Y-38835513D02*
X65100000Y-48559827D01*
X65100000Y-48559827D02*
X68605175Y-52065002D01*
X59405175Y-33140688D02*
X65100000Y-38835513D01*
X63465822Y-27534179D02*
X62797469Y-27534179D01*
X59405175Y-30926473D02*
X59405175Y-33140688D01*
%TO.N,/ESP_TX0*%
X63022831Y-28770494D02*
X63022831Y-28805707D01*
X65605175Y-31388051D02*
X65605175Y-47795002D01*
X63022831Y-28805707D02*
X65605175Y-31388051D01*
X65605175Y-47795002D02*
X68605175Y-50795002D01*
%TO.N,/XS2*%
X97255175Y-35475002D02*
X96905175Y-35825002D01*
X96905175Y-44525002D02*
X95205175Y-46225002D01*
X96905175Y-35825002D02*
X96905175Y-44525002D01*
%TO.N,/TXB4D*%
X45074998Y-55325002D02*
X54073803Y-55325002D01*
X36100000Y-61600000D02*
X36900000Y-62400000D01*
X38000000Y-62400000D02*
X45074998Y-55325002D01*
X63303704Y-58525002D02*
X70103704Y-51725002D01*
X37395175Y-58405002D02*
X36100000Y-59700177D01*
X70103704Y-51725002D02*
X94955175Y-51725002D01*
X36100000Y-59700177D02*
X36100000Y-61600000D01*
X57273803Y-58525002D02*
X63303704Y-58525002D01*
X36900000Y-62400000D02*
X38000000Y-62400000D01*
X54073803Y-55325002D02*
X57273803Y-58525002D01*
%TO.N,/RXN*%
X158405175Y-44840002D02*
X158405175Y-46175002D01*
X155890175Y-42325002D02*
X158405175Y-44840002D01*
%TO.N,/RXP*%
X155805250Y-40925002D02*
X154755175Y-41975077D01*
X159690175Y-39785002D02*
X158550175Y-40925002D01*
X158550175Y-40925002D02*
X155805250Y-40925002D01*
X154755175Y-41975077D02*
X154755175Y-44425002D01*
X154755175Y-44425002D02*
X156505175Y-46175002D01*
%TO.N,/RXB4D*%
X66005175Y-47226473D02*
X70103704Y-51325002D01*
X65025002Y-26525002D02*
X66005175Y-27505175D01*
X54806646Y-26525002D02*
X65025002Y-26525002D01*
X70103704Y-51325002D02*
X86703704Y-51325002D01*
X88303704Y-49725002D02*
X94806105Y-49725002D01*
X38800000Y-59298177D02*
X38800000Y-42531648D01*
X86703704Y-51325002D02*
X88303704Y-49725002D01*
X38800000Y-42531648D02*
X54806646Y-26525002D01*
X94806105Y-49725002D02*
X94933520Y-49852417D01*
X37395175Y-60703002D02*
X38800000Y-59298177D01*
X66005175Y-27505175D02*
X66005175Y-47226473D01*
%TO.N,/D3*%
X89944051Y-55825002D02*
X87744051Y-53625002D01*
X112888661Y-60312802D02*
X108400861Y-55825002D01*
X120580175Y-60312802D02*
X112888661Y-60312802D01*
X108400861Y-55825002D02*
X89944051Y-55825002D01*
X121180175Y-59712802D02*
X120580175Y-60312802D01*
%TO.N,/XS5*%
X102305175Y-47775000D02*
X105230176Y-50700001D01*
X101205175Y-38125002D02*
X102305175Y-39225002D01*
X102305175Y-39225002D02*
X102305175Y-47775000D01*
%TO.N,/D2*%
X126030177Y-46602943D02*
X125905175Y-46727946D01*
X123855178Y-51726470D02*
X123855178Y-54787799D01*
X125802173Y-31354459D02*
X126030177Y-31582463D01*
X124231647Y-51350001D02*
X123855178Y-51726470D01*
X125905175Y-46727946D02*
X125905175Y-48971227D01*
X126030177Y-49096228D02*
X126030177Y-50048529D01*
X126030177Y-50048529D02*
X124728705Y-51350001D01*
X124728705Y-51350001D02*
X124231647Y-51350001D01*
X125905175Y-48971227D02*
X126030177Y-49096228D01*
X123855178Y-54787799D02*
X118930175Y-59712802D01*
X126030177Y-31582463D02*
X126030177Y-46602943D01*
%TO.N,/ESP_MOSI*%
X130555175Y-27625002D02*
X138255175Y-35325002D01*
X138255175Y-35325002D02*
X138555175Y-35325002D01*
X84706646Y-27125002D02*
X86456646Y-28875002D01*
X125199720Y-27234622D02*
X125590100Y-27625002D01*
X80605175Y-28205175D02*
X80605175Y-27476473D01*
X124329871Y-27234622D02*
X125199720Y-27234622D01*
X68605175Y-48255002D02*
X84339489Y-32520688D01*
X123714795Y-27849697D02*
X124329871Y-27234622D01*
X121056646Y-31025002D02*
X123714795Y-28366853D01*
X105206646Y-28875002D02*
X106985181Y-28875002D01*
X106985181Y-28875002D02*
X109135181Y-31025002D01*
X86456646Y-28875002D02*
X86953704Y-28875002D01*
X80605175Y-27476473D02*
X80956646Y-27125002D01*
X80956646Y-27125002D02*
X84706646Y-27125002D01*
X86953704Y-28875002D02*
X88703704Y-30625002D01*
X109135181Y-31025002D02*
X121056646Y-31025002D01*
X84339489Y-32520688D02*
X84339489Y-31939489D01*
X88703704Y-30625002D02*
X103456646Y-30625002D01*
X103456646Y-30625002D02*
X105206646Y-28875002D01*
X125590100Y-27625002D02*
X130555175Y-27625002D01*
X123714795Y-28366853D02*
X123714795Y-27849697D01*
X84339489Y-31939489D02*
X80605175Y-28205175D01*
%TO.N,/ESP_MISO*%
X86053704Y-26725002D02*
X80790960Y-26725002D01*
X124164186Y-26834622D02*
X123773806Y-27225002D01*
X145355175Y-31125002D02*
X142353704Y-34126473D01*
X118549554Y-27225002D02*
X117798083Y-27976473D01*
X73305175Y-34210787D02*
X73305175Y-42325002D01*
X105206646Y-27625002D02*
X104358117Y-28473531D01*
X80790960Y-26725002D02*
X73305175Y-34210787D01*
X117798083Y-27976473D02*
X106055175Y-27976473D01*
X87802233Y-28473531D02*
X86053704Y-26725002D01*
X125365405Y-26834622D02*
X124164186Y-26834622D01*
X105703704Y-27625002D02*
X105206646Y-27625002D01*
X132253704Y-27225002D02*
X125755786Y-27225002D01*
X104358117Y-28473531D02*
X87802233Y-28473531D01*
X125755786Y-27225002D02*
X125365405Y-26834622D01*
X70924998Y-55875002D02*
X68605175Y-55875002D01*
X123773806Y-27225002D02*
X118549554Y-27225002D01*
X142353704Y-34126473D02*
X139155175Y-34126473D01*
X106055175Y-27976473D02*
X105703704Y-27625002D01*
X139155175Y-34126473D02*
X132253704Y-27225002D01*
%TD*%
M02*
