%TF.GenerationSoftware,KiCad,Pcbnew,10.0.1*%
%TF.CreationDate,2026-05-09T20:51:14-07:00*%
%TF.ProjectId,DarkMagic,4461726b-4d61-4676-9963-2e6b69636164,rev?*%
%TF.SameCoordinates,Original*%
%TF.FileFunction,Copper,L3,Inr*%
%TF.FilePolarity,Positive*%
%FSLAX46Y46*%
G04 Gerber Fmt 4.6, Leading zero omitted, Abs format (unit mm)*
G04 Created by KiCad (PCBNEW 10.0.1) date 2026-05-09 20:51:14*
%MOMM*%
%LPD*%
G01*
G04 APERTURE LIST*
%TA.AperFunction,ComponentPad*%
%ADD10C,3.800000*%
%TD*%
%TA.AperFunction,ComponentPad*%
%ADD11C,1.800000*%
%TD*%
%TA.AperFunction,ComponentPad*%
%ADD12C,1.560000*%
%TD*%
%TA.AperFunction,ComponentPad*%
%ADD13C,1.500000*%
%TD*%
%TA.AperFunction,ViaPad*%
%ADD14C,0.600000*%
%TD*%
%TA.AperFunction,Conductor*%
%ADD15C,0.200000*%
%TD*%
%TA.AperFunction,Conductor*%
%ADD16C,1.000000*%
%TD*%
%TA.AperFunction,Conductor*%
%ADD17C,0.500000*%
%TD*%
%TA.AperFunction,Conductor*%
%ADD18C,0.750000*%
%TD*%
G04 APERTURE END LIST*
D10*
%TO.N,GND*%
%TO.C,H1*%
X172090000Y-91400000D03*
%TD*%
%TO.N,GND*%
%TO.C,H4*%
X105200000Y-78300000D03*
%TD*%
D11*
%TO.N,/FAN_VOUT*%
%TO.C,J7*%
X106550000Y-86350000D03*
%TD*%
D12*
%TO.N,/RXA3D*%
%TO.C,J6*%
X172635175Y-61320002D03*
%TO.N,+5V*%
X175475175Y-70973002D03*
X175475175Y-65457002D03*
X175475175Y-59941002D03*
X175475175Y-54425002D03*
X175475175Y-48909002D03*
X175475175Y-43393002D03*
%TD*%
D10*
%TO.N,GND*%
%TO.C,H5*%
X37980000Y-25500000D03*
%TD*%
%TO.N,GND*%
%TO.C,H3*%
X172100000Y-25600000D03*
%TD*%
%TO.N,GND*%
%TO.C,H6*%
X37990000Y-91340000D03*
%TD*%
D12*
%TO.N,/TXB2D*%
%TO.C,J3*%
X37395175Y-47373002D03*
%TO.N,+5V*%
X34555175Y-45994002D03*
X34555175Y-51510002D03*
X34555175Y-57026002D03*
X34555175Y-62542002D03*
X34555175Y-68058002D03*
X34555175Y-73574002D03*
%TD*%
D13*
%TO.N,/LINKLED*%
%TO.C,J2*%
X161875175Y-28525002D03*
%TO.N,/ACTLED*%
X153705175Y-28525002D03*
%TD*%
D14*
%TO.N,GND*%
X86705175Y-29475002D03*
X98548303Y-33175002D03*
X41105175Y-35625002D03*
X89730176Y-29150001D03*
X126900000Y-30600000D03*
X105455175Y-29475002D03*
X99667675Y-52975000D03*
X124480176Y-51950001D03*
X56205176Y-40050001D03*
X146500000Y-71900000D03*
X138505175Y-49075002D03*
X119167675Y-30225002D03*
X138067675Y-45325002D03*
X116400000Y-26800000D03*
X138067675Y-43225002D03*
X107795178Y-30984999D03*
X161600000Y-66400000D03*
X59505175Y-36750002D03*
X134005175Y-45487502D03*
X147700000Y-73000000D03*
X165000000Y-69000000D03*
X168400000Y-66400000D03*
X48505175Y-43225002D03*
X108305175Y-29175002D03*
X44480174Y-38965087D03*
X168200000Y-74300000D03*
X117580174Y-54150001D03*
X81167675Y-29725002D03*
X144142675Y-45325002D03*
X136105175Y-43287502D03*
X97805175Y-51525002D03*
X99917675Y-29725002D03*
X167200000Y-59200000D03*
X45520000Y-34750000D03*
X171705175Y-77825002D03*
%TO.N,+3V3*%
X140730175Y-49900002D03*
X86655175Y-44225002D03*
X143367675Y-38575002D03*
X154700000Y-82350000D03*
X48205175Y-48012502D03*
X131300000Y-72200000D03*
X134205175Y-47600000D03*
X73355175Y-63475002D03*
X139655175Y-52325002D03*
X46005175Y-48012502D03*
X141255175Y-49375002D03*
X140400000Y-70500000D03*
X138200000Y-75180000D03*
X141700000Y-68700000D03*
X48005175Y-54275002D03*
X143267675Y-34325002D03*
X125000000Y-52600000D03*
X142900000Y-75180000D03*
X53200000Y-49200000D03*
X138700000Y-72200000D03*
X101205175Y-41887502D03*
X140205175Y-43225002D03*
X148342797Y-51999880D03*
X147005175Y-32625002D03*
X140700000Y-75180000D03*
X140155175Y-49325002D03*
X138505175Y-53725002D03*
X44120000Y-31990000D03*
X145400000Y-75180000D03*
X156200000Y-66400000D03*
X157455175Y-46184999D03*
%TO.N,/12VIN*%
X69400000Y-70900000D03*
X76850000Y-85450000D03*
%TO.N,/USB_VBUSF*%
X69605173Y-29226474D03*
X69605175Y-33175002D03*
X74405175Y-29255000D03*
%TO.N,+5V*%
X136500000Y-64625002D03*
X75505175Y-37725002D03*
X67400000Y-72400000D03*
X63505175Y-72462502D03*
X68800000Y-67500000D03*
X66000000Y-72400000D03*
X141505175Y-64625002D03*
X65900000Y-70400000D03*
X61505175Y-72462502D03*
X138700000Y-64625002D03*
X132100000Y-64625002D03*
X60005175Y-86375002D03*
X66900000Y-67500000D03*
X134300000Y-64625002D03*
%TO.N,/FAN_VOUT*%
X104662500Y-71300000D03*
%TO.N,/RXA3D*%
X166700000Y-53200000D03*
X119205175Y-28225002D03*
X164500000Y-55400000D03*
%TO.N,Net-(Q2-G)*%
X132700000Y-68500000D03*
X106537500Y-72250000D03*
%TO.N,/TXB6D*%
X80200000Y-64700000D03*
X131605175Y-54725002D03*
%TO.N,/RXB6D*%
X132955175Y-49475002D03*
X105700000Y-59700000D03*
X91500000Y-62200000D03*
X107802588Y-57502588D03*
%TO.N,/RXA5D*%
X147205175Y-60925002D03*
X158005175Y-56525002D03*
%TO.N,/TXB1D*%
X95205175Y-29075002D03*
X91105175Y-23425002D03*
%TO.N,/RTS*%
X64455175Y-28400000D03*
%TO.N,/SO*%
X138555175Y-29825002D03*
X131705175Y-31125002D03*
%TO.N,/SCLK*%
X86505178Y-55474999D03*
X119250824Y-54827390D03*
X145405175Y-40775002D03*
X124705178Y-32974999D03*
X144005175Y-49925002D03*
X105355175Y-56425002D03*
X128355175Y-36275002D03*
%TO.N,/ESP_SCLK*%
X68605175Y-57145002D03*
X74300000Y-52800000D03*
X74205175Y-40925002D03*
%TO.N,/1IN+*%
X45400000Y-85900000D03*
X67600000Y-70900000D03*
X46500000Y-79200000D03*
%TO.N,/TXA2D*%
X99955175Y-25725002D03*
X166000000Y-55400000D03*
X168200000Y-53200000D03*
%TO.N,/RXA2D*%
X112705175Y-24225002D03*
X99955175Y-27725002D03*
%TO.N,/TXA5D*%
X145100000Y-56700000D03*
X136816465Y-56683535D03*
%TO.N,/RXA6D*%
X149405175Y-30725002D03*
X131955175Y-35875002D03*
%TO.N,/USB_VBUS*%
X75505175Y-33425002D03*
X72905175Y-33175002D03*
X65005175Y-36675002D03*
%TO.N,/ESP_IRQ*%
X158600000Y-82400000D03*
X131455175Y-47775002D03*
X135620555Y-47109622D03*
X94505175Y-57425002D03*
X67100000Y-60900000D03*
X85205175Y-57825002D03*
X168573971Y-68226029D03*
%TO.N,/2IN+*%
X100600000Y-73600000D03*
X64000000Y-73600000D03*
%TO.N,/XS1*%
X97505175Y-34025002D03*
X86705175Y-28225002D03*
%TO.N,/ESP_USRST*%
X65600000Y-53200000D03*
X73600000Y-53200000D03*
%TO.N,/SI*%
X101580174Y-33050001D03*
X83305172Y-32325005D03*
X83055175Y-54775002D03*
X101805175Y-54775002D03*
X150480174Y-38750001D03*
X145355175Y-36475002D03*
X153000000Y-36200000D03*
X120997117Y-54550001D03*
X121255175Y-32375002D03*
%TO.N,/1V20*%
X155000000Y-72500000D03*
%TO.N,/WRXN*%
X158405175Y-48675002D03*
X135243175Y-51425002D03*
%TO.N,/LINKLED*%
X147236175Y-54425002D03*
%TO.N,/ACTLED*%
X147255175Y-53425002D03*
%TO.N,/ESP_SCSN*%
X76623435Y-58425002D03*
X74300000Y-55000000D03*
X143505175Y-50925002D03*
%TO.N,/RSTB*%
X62005175Y-37675002D03*
X63564795Y-34865382D03*
%TO.N,/ESP_TX0*%
X63022831Y-28770494D03*
%TO.N,/XS2*%
X97255175Y-35475002D03*
X105455175Y-28225002D03*
%TO.N,/TXB2D*%
X113955175Y-28675002D03*
%TO.N,/RXB5D*%
X69100000Y-64807461D03*
X113705175Y-49725002D03*
X59100000Y-67225002D03*
X78005175Y-56025002D03*
%TO.N,Net-(5VDC1-A)*%
X63600000Y-86600000D03*
X60005175Y-84475002D03*
%TO.N,/ESP_MISO*%
X73305175Y-42325002D03*
X68605175Y-55875002D03*
%TD*%
%TO.N,GND*%
D15*
X120592674Y-55250001D02*
X121180176Y-55250001D01*
X97805175Y-51525002D02*
X99255173Y-52975000D01*
X89405175Y-29475002D02*
X86705175Y-29475002D01*
X82800000Y-30800000D02*
X85380177Y-30800000D01*
X99917675Y-31805630D02*
X98548303Y-33175002D01*
X85380177Y-30800000D02*
X86705175Y-29475002D01*
X138505175Y-49075002D02*
X134917675Y-45487502D01*
X89730176Y-29150001D02*
X89405175Y-29475002D01*
X121180176Y-55250001D02*
X124480176Y-51950001D01*
X136105175Y-43287502D02*
X136105176Y-43287503D01*
X99917675Y-29725002D02*
X99917675Y-31805630D01*
X134917675Y-45487502D02*
X134005175Y-45487502D01*
X119492674Y-54150001D02*
X120592674Y-55250001D01*
D16*
X41140089Y-35625002D02*
X41105175Y-35625002D01*
D15*
X81167675Y-29725002D02*
X81725002Y-29725002D01*
D16*
X44480174Y-38965087D02*
X44480174Y-39150001D01*
D15*
X171705175Y-77825002D02*
X171705175Y-77805175D01*
X108005175Y-29475002D02*
X108305175Y-29175002D01*
X136105176Y-43287503D02*
X136105176Y-44300001D01*
X108305175Y-29175002D02*
X107795178Y-29684999D01*
X107795178Y-29684999D02*
X107795178Y-30984999D01*
X136105176Y-44300001D02*
X134917675Y-45487502D01*
X81725002Y-29725002D02*
X82800000Y-30800000D01*
D16*
X44480174Y-38965087D02*
X41140089Y-35625002D01*
D17*
X56205176Y-40050001D02*
X59505175Y-36750002D01*
D15*
X99255173Y-52975000D02*
X99667675Y-52975000D01*
D16*
X44480174Y-39150001D02*
X48505175Y-43175002D01*
X48505175Y-43175002D02*
X48505175Y-43225002D01*
D15*
X117580174Y-54150001D02*
X119492674Y-54150001D01*
X105455175Y-29475002D02*
X108005175Y-29475002D01*
D16*
X171705175Y-77805175D02*
X168200000Y-74300000D01*
%TO.N,+3V3*%
D15*
X145955175Y-36226473D02*
X144053704Y-34325002D01*
X134205175Y-47600000D02*
X133430173Y-48375002D01*
X150710016Y-52059132D02*
X151207074Y-52059132D01*
X154203704Y-49062502D02*
X154853704Y-49062502D01*
X128903704Y-48375002D02*
X125000000Y-52278706D01*
X150650764Y-51999880D02*
X150710016Y-52059132D01*
X152570000Y-82350000D02*
X154700000Y-82350000D01*
X44120000Y-31990000D02*
X45070173Y-31990000D01*
X49305175Y-36225002D02*
X49305175Y-46912502D01*
X144053704Y-34325002D02*
X143267675Y-34325002D01*
X138494729Y-52906158D02*
X138494729Y-53714556D01*
X90153704Y-42325002D02*
X88253704Y-44225002D01*
D17*
X59080173Y-49200000D02*
X73355175Y-63475002D01*
D15*
X139655175Y-52325002D02*
X139075885Y-52325002D01*
X100767675Y-42325002D02*
X90153704Y-42325002D01*
X49305175Y-46912502D02*
X48205175Y-48012502D01*
X151207074Y-52059132D02*
X154203704Y-49062502D01*
X139075885Y-52325002D02*
X138494729Y-52906158D01*
X138494729Y-53714556D02*
X138505175Y-53725002D01*
X144005175Y-32625002D02*
X147005175Y-32625002D01*
X145955175Y-36723531D02*
X145955175Y-36226473D01*
X143267675Y-34325002D02*
X143267675Y-33362502D01*
X125000000Y-52278706D02*
X125000000Y-52600000D01*
X148342797Y-51999880D02*
X150650764Y-51999880D01*
X88253704Y-44225002D02*
X86655175Y-44225002D01*
X143367675Y-40062502D02*
X143367675Y-38575002D01*
X143267675Y-33362502D02*
X144005175Y-32625002D01*
X154853704Y-49062502D02*
X157455175Y-46461031D01*
D17*
X53200000Y-49200000D02*
X59080173Y-49200000D01*
D15*
X45070173Y-31990000D02*
X49305175Y-36225002D01*
X133430173Y-48375002D02*
X128903704Y-48375002D01*
X145400000Y-75180000D02*
X152570000Y-82350000D01*
X157455175Y-46461031D02*
X157455175Y-46184999D01*
X143367675Y-38575002D02*
X144103704Y-38575002D01*
X101205175Y-41887502D02*
X100767675Y-42325002D01*
X140205175Y-43225002D02*
X143367675Y-40062502D01*
X144103704Y-38575002D02*
X145955175Y-36723531D01*
%TO.N,+5V*%
D16*
X72021675Y-65807461D02*
X70492539Y-65807461D01*
X75505175Y-63675002D02*
X75505175Y-37725002D01*
X134300000Y-64625002D02*
X132100000Y-64625002D01*
X136500000Y-64625002D02*
X134300000Y-64625002D01*
X138700000Y-64625002D02*
X136500000Y-64625002D01*
D18*
X141505175Y-64625002D02*
X151705175Y-54425002D01*
D16*
X72021675Y-65807461D02*
X73372716Y-65807461D01*
X68800000Y-67500000D02*
X65900000Y-70400000D01*
X65000000Y-71300000D02*
X65000000Y-71800000D01*
D18*
X151705175Y-54425002D02*
X175475175Y-54425002D01*
D16*
X65900000Y-70400000D02*
X65000000Y-71300000D01*
X132100000Y-64625002D02*
X95274998Y-64625002D01*
X94200000Y-65700000D02*
X77530173Y-65700000D01*
X77530173Y-65700000D02*
X75505175Y-63675002D01*
X141505175Y-64625002D02*
X138700000Y-64625002D01*
X95274998Y-64625002D02*
X94200000Y-65700000D01*
D15*
X61406175Y-72561502D02*
X61505175Y-72462502D01*
D16*
X70492539Y-65807461D02*
X68800000Y-67500000D01*
D15*
X61305175Y-74425002D02*
X61406175Y-74324002D01*
D16*
X73372716Y-65807461D02*
X75505175Y-63675002D01*
%TO.N,/FAN_VOUT*%
D18*
X104662500Y-73737500D02*
X101500000Y-76900000D01*
X106550000Y-84450000D02*
X106550000Y-86350000D01*
X101500000Y-79400000D02*
X106550000Y-84450000D01*
X101500000Y-76900000D02*
X101500000Y-79400000D01*
X104662500Y-71300000D02*
X104662500Y-73737500D01*
%TO.N,/RXA3D*%
D15*
X143356649Y-31824999D02*
X129356643Y-31824999D01*
X126406646Y-28875002D02*
X126274414Y-28875002D01*
X162925175Y-28959927D02*
X162925175Y-28090077D01*
X169000000Y-50900000D02*
X169000000Y-35034752D01*
X169000000Y-35034752D02*
X162925175Y-28959927D01*
X124495556Y-27634622D02*
X123905176Y-28225002D01*
X126274414Y-28875002D02*
X125034034Y-27634622D01*
X125034034Y-27634622D02*
X124495556Y-27634622D01*
X123905176Y-28225002D02*
X119205175Y-28225002D01*
X147706646Y-27475002D02*
X143356649Y-31824999D01*
X162925175Y-28090077D02*
X162310100Y-27475002D01*
X162310100Y-27475002D02*
X147706646Y-27475002D01*
X129356643Y-31824999D02*
X126406646Y-28875002D01*
X164500000Y-58100000D02*
X167720002Y-61320002D01*
X167720002Y-61320002D02*
X172635175Y-61320002D01*
X164500000Y-55400000D02*
X164500000Y-58100000D01*
X166700000Y-53200000D02*
X169000000Y-50900000D01*
%TO.N,Net-(Q2-G)*%
D16*
X128950000Y-72250000D02*
X132700000Y-68500000D01*
X106537500Y-72250000D02*
X128950000Y-72250000D01*
%TO.N,/TXB6D*%
D15*
X80200000Y-64700000D02*
X81556368Y-63343632D01*
X122986545Y-63343632D02*
X131605175Y-54725002D01*
X81556368Y-63343632D02*
X122986545Y-63343632D01*
%TO.N,/RXB6D*%
X104300000Y-61100000D02*
X92600000Y-61100000D01*
X92600000Y-61100000D02*
X91500000Y-62200000D01*
X124305181Y-54394819D02*
X124305181Y-54026467D01*
X105700000Y-59700000D02*
X104300000Y-61100000D01*
X107802588Y-57502588D02*
X109205175Y-56100000D01*
X124305181Y-54026467D02*
X124656652Y-53674996D01*
X124656652Y-53674996D02*
X125025004Y-53674996D01*
X109205175Y-56100000D02*
X122600000Y-56100000D01*
X125025004Y-53674996D02*
X126705175Y-51994825D01*
X128656646Y-49475002D02*
X132955175Y-49475002D01*
X122600000Y-56100000D02*
X124305181Y-54394819D01*
X126705175Y-51426473D02*
X128656646Y-49475002D01*
X126705175Y-51994825D02*
X126705175Y-51426473D01*
%TO.N,/RXA5D*%
X153705175Y-56525002D02*
X158005175Y-56525002D01*
X147205175Y-60925002D02*
X149305175Y-60925002D01*
X149305175Y-60925002D02*
X153705175Y-56525002D01*
%TO.N,/TXB1D*%
X92205175Y-26225002D02*
X95055175Y-29075002D01*
X95055175Y-29075002D02*
X95205175Y-29075002D01*
X92205175Y-24525002D02*
X92205175Y-26225002D01*
X91105175Y-23425002D02*
X92205175Y-24525002D01*
%TO.N,/SO*%
X133005175Y-29825002D02*
X131705175Y-31125002D01*
X138555175Y-29825002D02*
X133005175Y-29825002D01*
%TO.N,/SCLK*%
X87455181Y-56425002D02*
X86505178Y-55474999D01*
X143462282Y-48775002D02*
X143755175Y-49067895D01*
X145405175Y-40775002D02*
X143200000Y-42980177D01*
X124705178Y-32974999D02*
X124755172Y-32974999D01*
X118403212Y-55675002D02*
X119250824Y-54827390D01*
X124755172Y-32974999D02*
X128055175Y-36275002D01*
X143755175Y-49482109D02*
X143658729Y-49578556D01*
X143200000Y-42980177D02*
X143200000Y-48775002D01*
X143200000Y-48775002D02*
X143462282Y-48775002D01*
X143658729Y-49578556D02*
X144005175Y-49925002D01*
X106105175Y-55675002D02*
X118403212Y-55675002D01*
X143755175Y-49067895D02*
X143755175Y-49482109D01*
X105355175Y-56425002D02*
X106105175Y-55675002D01*
X128055175Y-36275002D02*
X128355175Y-36275002D01*
X105355175Y-56425002D02*
X87455181Y-56425002D01*
%TO.N,/ESP_SCLK*%
X68654998Y-57145002D02*
X73200000Y-52600000D01*
X73200000Y-52600000D02*
X74205175Y-51594825D01*
X68605175Y-57145002D02*
X68654998Y-57145002D01*
X74205175Y-51594825D02*
X74205175Y-40925002D01*
X74100000Y-52600000D02*
X73200000Y-52600000D01*
X74300000Y-52800000D02*
X74100000Y-52600000D01*
%TO.N,/TXA2D*%
X125199720Y-27234622D02*
X125941571Y-27976473D01*
X164450100Y-27075002D02*
X165465175Y-28090077D01*
X165465175Y-28090077D02*
X165465175Y-30934241D01*
X123939490Y-27625002D02*
X124329871Y-27234622D01*
X117553704Y-25725002D02*
X119453704Y-27625002D01*
X99955175Y-25725002D02*
X117553704Y-25725002D01*
X125941571Y-27976473D02*
X146639489Y-27976473D01*
X165465175Y-30934241D02*
X169400000Y-34869066D01*
X124329871Y-27234622D02*
X125199720Y-27234622D01*
X169400000Y-52000000D02*
X168200000Y-53200000D01*
X147540961Y-27075002D02*
X164450100Y-27075002D01*
X169400000Y-34869066D02*
X169400000Y-52000000D01*
X119453704Y-27625002D02*
X123939490Y-27625002D01*
X146639489Y-27976473D02*
X147540961Y-27075002D01*
%TO.N,/RXA2D*%
X100606646Y-24225002D02*
X99355175Y-25476473D01*
X99355175Y-27125002D02*
X99955175Y-27725002D01*
X112705175Y-24225002D02*
X100606646Y-24225002D01*
X99355175Y-25476473D02*
X99355175Y-27125002D01*
%TO.N,/TXA5D*%
X136832930Y-56700000D02*
X136816465Y-56683535D01*
X145100000Y-56700000D02*
X136832930Y-56700000D01*
%TO.N,/RXA6D*%
X146556646Y-32225002D02*
X148056646Y-30725002D01*
X135605175Y-32225002D02*
X146556646Y-32225002D01*
X148056646Y-30725002D02*
X149405175Y-30725002D01*
X131955175Y-35875002D02*
X135605175Y-32225002D01*
%TO.N,/USB_VBUS*%
X65005175Y-36675002D02*
X65505175Y-36675002D01*
X72905175Y-33275002D02*
X72905175Y-33175002D01*
X68005175Y-34175002D02*
X72005175Y-34175002D01*
X65505175Y-36675002D02*
X68005175Y-34175002D01*
X72005175Y-34175002D02*
X72905175Y-33275002D01*
X72905175Y-33175002D02*
X75255175Y-33175002D01*
X75255175Y-33175002D02*
X75505175Y-33425002D01*
%TO.N,/ESP_IRQ*%
X85405175Y-58025002D02*
X85205175Y-57825002D01*
X168573971Y-68226029D02*
X168573971Y-70826029D01*
X93905174Y-58025002D02*
X85405175Y-58025002D01*
X94505175Y-57425002D02*
X93905174Y-58025002D01*
X168573971Y-70826029D02*
X158600000Y-80800000D01*
X131455175Y-47775002D02*
X132305175Y-46925002D01*
X135435935Y-46925002D02*
X135620555Y-47109622D01*
X132305175Y-46925002D02*
X135435935Y-46925002D01*
X158600000Y-80800000D02*
X158600000Y-82400000D01*
%TO.N,/2IN+*%
X100600000Y-73600000D02*
X64000000Y-73600000D01*
%TO.N,/XS1*%
X91705175Y-28225002D02*
X97505175Y-34025002D01*
X86705175Y-28225002D02*
X91705175Y-28225002D01*
%TO.N,/SI*%
X101580174Y-33050001D02*
X101600343Y-33029832D01*
X119980174Y-53533058D02*
X119980174Y-48000003D01*
X81980174Y-53700001D02*
X83055175Y-54775002D01*
X120997117Y-54550001D02*
X119980174Y-53533058D01*
X85770518Y-42325002D02*
X85305173Y-42325002D01*
X86121989Y-41973531D02*
X85770518Y-42325002D01*
X150480174Y-38719826D02*
X150480174Y-38750001D01*
X109255175Y-39475002D02*
X109005175Y-39475002D01*
X90505175Y-39475002D02*
X90455169Y-39475002D01*
X128455175Y-39475002D02*
X121355175Y-32375002D01*
X102504363Y-32724190D02*
X109255175Y-39475002D01*
X128505175Y-39475002D02*
X128455175Y-39475002D01*
X101600343Y-32985757D02*
X101861910Y-32724190D01*
X110855175Y-39475002D02*
X109005175Y-39475002D01*
X101805175Y-54775002D02*
X100980174Y-53950001D01*
X85305173Y-42325002D02*
X81980174Y-45650001D01*
X153000000Y-36200000D02*
X150480174Y-38719826D01*
X128505175Y-39475002D02*
X109255175Y-39475002D01*
X100980174Y-53950001D02*
X100980174Y-49350003D01*
X128455175Y-39475002D02*
X128555175Y-39475002D01*
X101861910Y-32724190D02*
X102504363Y-32724190D01*
X109005175Y-39475002D02*
X90505175Y-39475002D01*
X143905175Y-37925002D02*
X145355175Y-36475002D01*
X128555175Y-39475002D02*
X130105175Y-37925002D01*
X119980174Y-48000003D02*
X128505175Y-39475002D01*
X81980174Y-45650001D02*
X81980174Y-53700001D01*
X130105175Y-37925002D02*
X143905175Y-37925002D01*
X100980174Y-49350003D02*
X110855175Y-39475002D01*
X88155173Y-39475002D02*
X86121989Y-41508186D01*
X90455169Y-39475002D02*
X83305172Y-32325005D01*
X86121989Y-41508186D02*
X86121989Y-41973531D01*
X121355175Y-32375002D02*
X121255175Y-32375002D01*
X90505175Y-39475002D02*
X88155173Y-39475002D01*
X101600343Y-33029832D02*
X101600343Y-32985757D01*
%TO.N,/WRXN*%
X156655175Y-49275002D02*
X157805175Y-49275002D01*
X157805175Y-49275002D02*
X158405175Y-48675002D01*
X135343175Y-51525002D02*
X143605175Y-51525002D01*
X152305175Y-53625002D02*
X156655175Y-49275002D01*
X149973805Y-55025002D02*
X151373805Y-53625002D01*
X146987646Y-55025002D02*
X149973805Y-55025002D01*
X143605175Y-51525002D02*
X146636175Y-54556002D01*
X146636175Y-54673531D02*
X146987646Y-55025002D01*
X146636175Y-54556002D02*
X146636175Y-54673531D01*
X135243175Y-51425002D02*
X135343175Y-51525002D01*
X151373805Y-53625002D02*
X152305175Y-53625002D01*
%TO.N,/LINKLED*%
X147655175Y-52976473D02*
X147855175Y-53176473D01*
X147855175Y-53176473D02*
X147855175Y-53673531D01*
X147855175Y-53673531D02*
X147503704Y-54025002D01*
X147236175Y-54025002D02*
X147236175Y-54425002D01*
X147655175Y-42745002D02*
X147655175Y-52976473D01*
X161875175Y-28525002D02*
X147655175Y-42745002D01*
X147503704Y-54025002D02*
X147236175Y-54025002D01*
%TO.N,/ACTLED*%
X147255175Y-53425002D02*
X147255175Y-34975002D01*
X147255175Y-34975002D02*
X153705175Y-28525002D01*
%TO.N,/ESP_SCSN*%
X122478706Y-58700000D02*
X130378706Y-50800000D01*
X76623435Y-58425002D02*
X76898433Y-58700000D01*
X76898433Y-58700000D02*
X122478706Y-58700000D01*
X143380173Y-50800000D02*
X143505175Y-50925002D01*
X130378706Y-50800000D02*
X143380173Y-50800000D01*
%TO.N,/RSTB*%
X62005175Y-37675002D02*
X62005175Y-36425002D01*
X62005175Y-36425002D02*
X63564795Y-34865382D01*
%TO.N,/XS2*%
X104505175Y-28225002D02*
X105455175Y-28225002D01*
X97255175Y-35475002D02*
X104505175Y-28225002D01*
%TO.N,/TXB2D*%
X88753698Y-36925002D02*
X96653704Y-36925002D01*
X97855175Y-35440688D02*
X104470861Y-28825002D01*
X39094675Y-48612502D02*
X48453704Y-48612502D01*
X63723704Y-47655002D02*
X79653701Y-31725005D01*
X83553701Y-31725005D02*
X88753698Y-36925002D01*
X79653701Y-31725005D02*
X83553701Y-31725005D01*
X105703704Y-28825002D02*
X106055175Y-28473531D01*
X104470861Y-28825002D02*
X105703704Y-28825002D01*
X37395175Y-46913002D02*
X39094675Y-48612502D01*
X113203704Y-28473531D02*
X106055175Y-28473531D01*
X113203704Y-28473531D02*
X113405175Y-28675002D01*
X49411204Y-47655002D02*
X63723704Y-47655002D01*
X96653704Y-36925002D02*
X97855175Y-35723531D01*
X48453704Y-48612502D02*
X49411204Y-47655002D01*
X113405175Y-28675002D02*
X113955175Y-28675002D01*
X97855175Y-35723531D02*
X97855175Y-35440688D01*
%TO.N,/RXB5D*%
X65600000Y-67225002D02*
X59100000Y-67225002D01*
X105689489Y-55525002D02*
X97256646Y-55525002D01*
X68017541Y-64807461D02*
X65600000Y-67225002D01*
X85657767Y-52125002D02*
X85105940Y-52676829D01*
X86057767Y-51785182D02*
X85717947Y-52125002D01*
X85717947Y-52125002D02*
X85657767Y-52125002D01*
X85105940Y-53624237D02*
X82705175Y-56025002D01*
X69100000Y-64807461D02*
X68017541Y-64807461D01*
X111489489Y-49725002D02*
X105689489Y-55525002D01*
X86554825Y-51785182D02*
X86057767Y-51785182D01*
X82705175Y-56025002D02*
X78005175Y-56025002D01*
X97256646Y-55525002D02*
X93856646Y-52125002D01*
X86894645Y-52125002D02*
X86554825Y-51785182D01*
X113705175Y-49725002D02*
X111489489Y-49725002D01*
X93856646Y-52125002D02*
X86894645Y-52125002D01*
X85105940Y-52676829D02*
X85105940Y-53624237D01*
%TO.N,Net-(5VDC1-A)*%
X60005175Y-84475002D02*
X61475002Y-84475002D01*
X61475002Y-84475002D02*
X63600000Y-86600000D01*
%TO.N,/ESP_MISO*%
X69055175Y-55875002D02*
X68605175Y-55875002D01*
X73305175Y-51625002D02*
X69055175Y-55875002D01*
X73305175Y-42325002D02*
X73305175Y-51625002D01*
%TD*%
%TA.AperFunction,Conductor*%
%TO.N,+3V3*%
G36*
X53848215Y-48275187D02*
G01*
X53893970Y-48327991D01*
X53905176Y-48379502D01*
X53905176Y-55301002D01*
X53902625Y-55309687D01*
X53903914Y-55318649D01*
X53892935Y-55342689D01*
X53885491Y-55368041D01*
X53878650Y-55373968D01*
X53874889Y-55382205D01*
X53852654Y-55396494D01*
X53832687Y-55413796D01*
X53822172Y-55416083D01*
X53816111Y-55419979D01*
X53781176Y-55425002D01*
X53715356Y-55425002D01*
X53648317Y-55405317D01*
X53646465Y-55404104D01*
X53563308Y-55348540D01*
X53563299Y-55348535D01*
X53444919Y-55299501D01*
X53444913Y-55299499D01*
X53319246Y-55274502D01*
X53319244Y-55274502D01*
X53191106Y-55274502D01*
X53191104Y-55274502D01*
X53065436Y-55299499D01*
X53065430Y-55299501D01*
X52947050Y-55348535D01*
X52947041Y-55348540D01*
X52863885Y-55404104D01*
X52797207Y-55424982D01*
X52794994Y-55425002D01*
X44629175Y-55425002D01*
X44562136Y-55405317D01*
X44516381Y-55352513D01*
X44505175Y-55301002D01*
X44505175Y-53399073D01*
X50454674Y-53399073D01*
X50479672Y-53524740D01*
X50479674Y-53524746D01*
X50528708Y-53643126D01*
X50528713Y-53643135D01*
X50599898Y-53749670D01*
X50599901Y-53749674D01*
X50690502Y-53840275D01*
X50690506Y-53840278D01*
X50797041Y-53911463D01*
X50797047Y-53911466D01*
X50797048Y-53911467D01*
X50915431Y-53960503D01*
X50915435Y-53960503D01*
X50915436Y-53960504D01*
X51041103Y-53985502D01*
X51041106Y-53985502D01*
X51169246Y-53985502D01*
X51253790Y-53968684D01*
X51294919Y-53960503D01*
X51413302Y-53911467D01*
X51519844Y-53840278D01*
X51610451Y-53749671D01*
X51681640Y-53643129D01*
X51730676Y-53524746D01*
X51755675Y-53399071D01*
X51755675Y-53270933D01*
X51755675Y-53270930D01*
X51730677Y-53145263D01*
X51730676Y-53145262D01*
X51730676Y-53145258D01*
X51681640Y-53026875D01*
X51681639Y-53026874D01*
X51681636Y-53026868D01*
X51610451Y-52920333D01*
X51610448Y-52920329D01*
X51519847Y-52829728D01*
X51519843Y-52829725D01*
X51413308Y-52758540D01*
X51413299Y-52758535D01*
X51294919Y-52709501D01*
X51294913Y-52709499D01*
X51169246Y-52684502D01*
X51169244Y-52684502D01*
X51041106Y-52684502D01*
X51041104Y-52684502D01*
X50915436Y-52709499D01*
X50915430Y-52709501D01*
X50797050Y-52758535D01*
X50797041Y-52758540D01*
X50690506Y-52829725D01*
X50690502Y-52829728D01*
X50599901Y-52920329D01*
X50599898Y-52920333D01*
X50528713Y-53026868D01*
X50528708Y-53026877D01*
X50479674Y-53145257D01*
X50479672Y-53145263D01*
X50454675Y-53270930D01*
X50454675Y-53270933D01*
X50454675Y-53399071D01*
X50454675Y-53399073D01*
X50454674Y-53399073D01*
X44505175Y-53399073D01*
X44505175Y-50189073D01*
X45417174Y-50189073D01*
X45442172Y-50314740D01*
X45442174Y-50314746D01*
X45491208Y-50433126D01*
X45491213Y-50433135D01*
X45562398Y-50539670D01*
X45562401Y-50539674D01*
X45653002Y-50630275D01*
X45653006Y-50630278D01*
X45759541Y-50701463D01*
X45759547Y-50701466D01*
X45759548Y-50701467D01*
X45877931Y-50750503D01*
X45877935Y-50750503D01*
X45877936Y-50750504D01*
X46003603Y-50775502D01*
X46003606Y-50775502D01*
X46131746Y-50775502D01*
X46216290Y-50758684D01*
X46257419Y-50750503D01*
X46375802Y-50701467D01*
X46482344Y-50630278D01*
X46572951Y-50539671D01*
X46644140Y-50433129D01*
X46693176Y-50314746D01*
X46718175Y-50189071D01*
X46718175Y-50060933D01*
X46718175Y-50060930D01*
X46693177Y-49935263D01*
X46693176Y-49935262D01*
X46693176Y-49935258D01*
X46644140Y-49816875D01*
X46644139Y-49816874D01*
X46644136Y-49816868D01*
X46572951Y-49710333D01*
X46572948Y-49710329D01*
X46482347Y-49619728D01*
X46482343Y-49619725D01*
X46375808Y-49548540D01*
X46375799Y-49548535D01*
X46257419Y-49499501D01*
X46257413Y-49499499D01*
X46131746Y-49474502D01*
X46131744Y-49474502D01*
X46003606Y-49474502D01*
X46003604Y-49474502D01*
X45877936Y-49499499D01*
X45877930Y-49499501D01*
X45759550Y-49548535D01*
X45759541Y-49548540D01*
X45653006Y-49619725D01*
X45653002Y-49619728D01*
X45562401Y-49710329D01*
X45562398Y-49710333D01*
X45491213Y-49816868D01*
X45491208Y-49816877D01*
X45442174Y-49935257D01*
X45442172Y-49935263D01*
X45417175Y-50060930D01*
X45417175Y-50060933D01*
X45417175Y-50189071D01*
X45417175Y-50189073D01*
X45417174Y-50189073D01*
X44505175Y-50189073D01*
X44505175Y-49337002D01*
X44524860Y-49269963D01*
X44577664Y-49224208D01*
X44629175Y-49213002D01*
X48367035Y-49213002D01*
X48367051Y-49213003D01*
X48374647Y-49213003D01*
X48532758Y-49213003D01*
X48532761Y-49213003D01*
X48685489Y-49172079D01*
X48735608Y-49143141D01*
X48822420Y-49093022D01*
X48934224Y-48981218D01*
X48934224Y-48981216D01*
X48944432Y-48971009D01*
X48944433Y-48971006D01*
X49623620Y-48291821D01*
X49684943Y-48258336D01*
X49711301Y-48255502D01*
X53781176Y-48255502D01*
X53848215Y-48275187D01*
G37*
%TD.AperFunction*%
%TA.AperFunction,Conductor*%
G36*
X53848215Y-45319685D02*
G01*
X53893970Y-45372489D01*
X53905176Y-45424000D01*
X53905176Y-46930502D01*
X53885491Y-46997541D01*
X53832687Y-47043296D01*
X53781176Y-47054502D01*
X51879675Y-47054502D01*
X51812636Y-47034817D01*
X51766881Y-46982013D01*
X51755675Y-46930502D01*
X51755675Y-46920930D01*
X51730677Y-46795263D01*
X51730676Y-46795262D01*
X51730676Y-46795258D01*
X51681640Y-46676875D01*
X51681639Y-46676874D01*
X51681636Y-46676868D01*
X51610451Y-46570333D01*
X51610448Y-46570329D01*
X51519847Y-46479728D01*
X51519843Y-46479725D01*
X51413308Y-46408540D01*
X51413299Y-46408535D01*
X51294919Y-46359501D01*
X51294913Y-46359499D01*
X51169246Y-46334502D01*
X51169244Y-46334502D01*
X51041106Y-46334502D01*
X51041104Y-46334502D01*
X50915436Y-46359499D01*
X50915430Y-46359501D01*
X50797050Y-46408535D01*
X50797041Y-46408540D01*
X50690506Y-46479725D01*
X50690502Y-46479728D01*
X50599901Y-46570329D01*
X50599898Y-46570333D01*
X50528713Y-46676868D01*
X50528708Y-46676877D01*
X50479674Y-46795257D01*
X50479672Y-46795263D01*
X50454675Y-46920930D01*
X50454675Y-46930502D01*
X50434990Y-46997541D01*
X50382186Y-47043296D01*
X50330675Y-47054502D01*
X49332144Y-47054502D01*
X49291223Y-47065466D01*
X49291223Y-47065467D01*
X49253955Y-47075453D01*
X49179418Y-47095425D01*
X49179413Y-47095428D01*
X49042494Y-47174477D01*
X49042486Y-47174483D01*
X48930682Y-47286288D01*
X48241288Y-47975683D01*
X48179965Y-48009168D01*
X48153607Y-48012002D01*
X44629175Y-48012002D01*
X44562136Y-47992317D01*
X44516381Y-47939513D01*
X44505175Y-47888002D01*
X44505175Y-45424000D01*
X44524860Y-45356961D01*
X44577664Y-45311206D01*
X44629175Y-45300000D01*
X53781176Y-45300000D01*
X53848215Y-45319685D01*
G37*
%TD.AperFunction*%
%TD*%
%TA.AperFunction,Conductor*%
%TO.N,+5V*%
G36*
X47675904Y-66719685D02*
G01*
X47696546Y-66736319D01*
X47790502Y-66830275D01*
X47790506Y-66830278D01*
X47897041Y-66901463D01*
X47897047Y-66901466D01*
X47897048Y-66901467D01*
X48015431Y-66950503D01*
X48015435Y-66950503D01*
X48015436Y-66950504D01*
X48141103Y-66975502D01*
X48141106Y-66975502D01*
X48269246Y-66975502D01*
X48353790Y-66958684D01*
X48394919Y-66950503D01*
X48513302Y-66901467D01*
X48619844Y-66830278D01*
X48650313Y-66799809D01*
X48713804Y-66736319D01*
X48775127Y-66702834D01*
X48801485Y-66700000D01*
X58265429Y-66700000D01*
X58332468Y-66719685D01*
X58378223Y-66772489D01*
X58388167Y-66841647D01*
X58379990Y-66871452D01*
X58330264Y-66991500D01*
X58330261Y-66991512D01*
X58299500Y-67146155D01*
X58299500Y-67303848D01*
X58330261Y-67458491D01*
X58330264Y-67458503D01*
X58390602Y-67604174D01*
X58390609Y-67604187D01*
X58478210Y-67735290D01*
X58478213Y-67735294D01*
X58589707Y-67846788D01*
X58589711Y-67846791D01*
X58720814Y-67934392D01*
X58720827Y-67934399D01*
X58866498Y-67994737D01*
X58866503Y-67994739D01*
X59021153Y-68025501D01*
X59021156Y-68025502D01*
X59021158Y-68025502D01*
X59178844Y-68025502D01*
X59178845Y-68025501D01*
X59333497Y-67994739D01*
X59479179Y-67934396D01*
X59479185Y-67934392D01*
X59610875Y-67846400D01*
X59677553Y-67825522D01*
X59679766Y-67825502D01*
X65513331Y-67825502D01*
X65513347Y-67825503D01*
X65520943Y-67825503D01*
X65679054Y-67825503D01*
X65679057Y-67825503D01*
X65831785Y-67784579D01*
X65881904Y-67755641D01*
X65968716Y-67705522D01*
X66080520Y-67593718D01*
X66080520Y-67593716D01*
X66090728Y-67583509D01*
X66090729Y-67583506D01*
X66937917Y-66736318D01*
X66999240Y-66702834D01*
X67025598Y-66700000D01*
X69381175Y-66700000D01*
X69448214Y-66719685D01*
X69493969Y-66772489D01*
X69505175Y-66824000D01*
X69505175Y-69975500D01*
X69485490Y-70042539D01*
X69432686Y-70088294D01*
X69381175Y-70099500D01*
X69321155Y-70099500D01*
X69166510Y-70130261D01*
X69166498Y-70130264D01*
X69020827Y-70190602D01*
X69020814Y-70190609D01*
X68889711Y-70278210D01*
X68889707Y-70278213D01*
X68778213Y-70389707D01*
X68778210Y-70389711D01*
X68690609Y-70520814D01*
X68690602Y-70520827D01*
X68630264Y-70666498D01*
X68630261Y-70666508D01*
X68621617Y-70709967D01*
X68589232Y-70771878D01*
X68528516Y-70806452D01*
X68458747Y-70802712D01*
X68402075Y-70761845D01*
X68378383Y-70709967D01*
X68369738Y-70666508D01*
X68369737Y-70666507D01*
X68369737Y-70666503D01*
X68332766Y-70577246D01*
X68309397Y-70520827D01*
X68309390Y-70520814D01*
X68221789Y-70389711D01*
X68221786Y-70389707D01*
X68110292Y-70278213D01*
X68110288Y-70278210D01*
X67979185Y-70190609D01*
X67979172Y-70190602D01*
X67833501Y-70130264D01*
X67833489Y-70130261D01*
X67678845Y-70099500D01*
X67678842Y-70099500D01*
X67521158Y-70099500D01*
X67521155Y-70099500D01*
X67366510Y-70130261D01*
X67366498Y-70130264D01*
X67220827Y-70190602D01*
X67220814Y-70190609D01*
X67089711Y-70278210D01*
X67089707Y-70278213D01*
X66978213Y-70389707D01*
X66978210Y-70389711D01*
X66890609Y-70520814D01*
X66890602Y-70520827D01*
X66830264Y-70666498D01*
X66830261Y-70666510D01*
X66799500Y-70821153D01*
X66799500Y-70978846D01*
X66830261Y-71133489D01*
X66830264Y-71133501D01*
X66890602Y-71279172D01*
X66890609Y-71279185D01*
X66978210Y-71410288D01*
X66978213Y-71410292D01*
X67089707Y-71521786D01*
X67089711Y-71521789D01*
X67220814Y-71609390D01*
X67220827Y-71609397D01*
X67338488Y-71658133D01*
X67366503Y-71669737D01*
X67521153Y-71700499D01*
X67521156Y-71700500D01*
X67521158Y-71700500D01*
X67678844Y-71700500D01*
X67678845Y-71700499D01*
X67833497Y-71669737D01*
X67979179Y-71609394D01*
X68110289Y-71521789D01*
X68221789Y-71410289D01*
X68309394Y-71279179D01*
X68369737Y-71133497D01*
X68378383Y-71090033D01*
X68410768Y-71028122D01*
X68471483Y-70993548D01*
X68541253Y-70997287D01*
X68597925Y-71038154D01*
X68621617Y-71090033D01*
X68630261Y-71133489D01*
X68630264Y-71133501D01*
X68690602Y-71279172D01*
X68690609Y-71279185D01*
X68778210Y-71410288D01*
X68778213Y-71410292D01*
X68889707Y-71521786D01*
X68889711Y-71521789D01*
X69020814Y-71609390D01*
X69020827Y-71609397D01*
X69138488Y-71658133D01*
X69166503Y-71669737D01*
X69321153Y-71700499D01*
X69321156Y-71700500D01*
X69381175Y-71700500D01*
X69448214Y-71720185D01*
X69493969Y-71772989D01*
X69505175Y-71824500D01*
X69505175Y-72875500D01*
X69485490Y-72942539D01*
X69432686Y-72988294D01*
X69381175Y-72999500D01*
X64579766Y-72999500D01*
X64512727Y-72979815D01*
X64510875Y-72978602D01*
X64379185Y-72890609D01*
X64379172Y-72890602D01*
X64233501Y-72830264D01*
X64233489Y-72830261D01*
X64078845Y-72799500D01*
X64078842Y-72799500D01*
X63921158Y-72799500D01*
X63921155Y-72799500D01*
X63766510Y-72830261D01*
X63766498Y-72830264D01*
X63620827Y-72890602D01*
X63620814Y-72890609D01*
X63489711Y-72978210D01*
X63489707Y-72978213D01*
X63378213Y-73089707D01*
X63378210Y-73089711D01*
X63290609Y-73220814D01*
X63290602Y-73220827D01*
X63230264Y-73366498D01*
X63230261Y-73366510D01*
X63199500Y-73521153D01*
X63199500Y-73678846D01*
X63230261Y-73833489D01*
X63230264Y-73833501D01*
X63290602Y-73979172D01*
X63290609Y-73979185D01*
X63378210Y-74110288D01*
X63378213Y-74110292D01*
X63489707Y-74221786D01*
X63489711Y-74221789D01*
X63620814Y-74309390D01*
X63620827Y-74309397D01*
X63766498Y-74369735D01*
X63766503Y-74369737D01*
X63921153Y-74400499D01*
X63921156Y-74400500D01*
X63921158Y-74400500D01*
X64078844Y-74400500D01*
X64078845Y-74400499D01*
X64233497Y-74369737D01*
X64379179Y-74309394D01*
X64433663Y-74272989D01*
X64510875Y-74221398D01*
X64577553Y-74200520D01*
X64579766Y-74200500D01*
X69381175Y-74200500D01*
X69448214Y-74220185D01*
X69493969Y-74272989D01*
X69505175Y-74324500D01*
X69505175Y-91976000D01*
X69485490Y-92043039D01*
X69432686Y-92088794D01*
X69381175Y-92100000D01*
X40434259Y-92100000D01*
X40367220Y-92080315D01*
X40321465Y-92027511D01*
X40311521Y-91958353D01*
X40313368Y-91948408D01*
X40360311Y-91742735D01*
X40360312Y-91742732D01*
X40390500Y-91474809D01*
X40390500Y-91205191D01*
X40360312Y-90937268D01*
X40300316Y-90674409D01*
X40211267Y-90419921D01*
X40094284Y-90177003D01*
X39950838Y-89948711D01*
X39782734Y-89737915D01*
X39592085Y-89547266D01*
X39381289Y-89379162D01*
X39152997Y-89235716D01*
X39152994Y-89235714D01*
X38910082Y-89118734D01*
X38655602Y-89029687D01*
X38655594Y-89029684D01*
X38458446Y-88984687D01*
X38392732Y-88969688D01*
X38392728Y-88969687D01*
X38392719Y-88969686D01*
X38124813Y-88939500D01*
X38124809Y-88939500D01*
X37855191Y-88939500D01*
X37855186Y-88939500D01*
X37587280Y-88969686D01*
X37587268Y-88969688D01*
X37324405Y-89029684D01*
X37324397Y-89029687D01*
X37069917Y-89118734D01*
X36827005Y-89235714D01*
X36598712Y-89379161D01*
X36400000Y-89537627D01*
X36400000Y-85821153D01*
X44599500Y-85821153D01*
X44599500Y-85978846D01*
X44630261Y-86133489D01*
X44630264Y-86133501D01*
X44690602Y-86279172D01*
X44690609Y-86279185D01*
X44778210Y-86410288D01*
X44778213Y-86410292D01*
X44889707Y-86521786D01*
X44889711Y-86521789D01*
X45020814Y-86609390D01*
X45020827Y-86609397D01*
X45115799Y-86648735D01*
X45166503Y-86669737D01*
X45321153Y-86700499D01*
X45321156Y-86700500D01*
X45321158Y-86700500D01*
X45478844Y-86700500D01*
X45478845Y-86700499D01*
X45633497Y-86669737D01*
X45779179Y-86609394D01*
X45910289Y-86521789D01*
X45993005Y-86439073D01*
X53349499Y-86439073D01*
X53374497Y-86564740D01*
X53374499Y-86564746D01*
X53423533Y-86683126D01*
X53423538Y-86683135D01*
X53494723Y-86789670D01*
X53494726Y-86789674D01*
X53585327Y-86880275D01*
X53585331Y-86880278D01*
X53691866Y-86951463D01*
X53691872Y-86951466D01*
X53691873Y-86951467D01*
X53810256Y-87000503D01*
X53810260Y-87000503D01*
X53810261Y-87000504D01*
X53935928Y-87025502D01*
X53935931Y-87025502D01*
X54064071Y-87025502D01*
X54148615Y-87008684D01*
X54189744Y-87000503D01*
X54308127Y-86951467D01*
X54414669Y-86880278D01*
X54505276Y-86789671D01*
X54576465Y-86683129D01*
X54584359Y-86664071D01*
X56449499Y-86664071D01*
X56474497Y-86789738D01*
X56474499Y-86789744D01*
X56523533Y-86908124D01*
X56523538Y-86908133D01*
X56594723Y-87014668D01*
X56594726Y-87014672D01*
X56685327Y-87105273D01*
X56685331Y-87105276D01*
X56791866Y-87176461D01*
X56791872Y-87176464D01*
X56791873Y-87176465D01*
X56910256Y-87225501D01*
X56910260Y-87225501D01*
X56910261Y-87225502D01*
X57035928Y-87250500D01*
X57035931Y-87250500D01*
X57164071Y-87250500D01*
X57248615Y-87233682D01*
X57289744Y-87225501D01*
X57408127Y-87176465D01*
X57514669Y-87105276D01*
X57605276Y-87014669D01*
X57676465Y-86908127D01*
X57725501Y-86789744D01*
X57743253Y-86700500D01*
X57750500Y-86664071D01*
X57750500Y-86535928D01*
X57725502Y-86410261D01*
X57725501Y-86410260D01*
X57725501Y-86410256D01*
X57676465Y-86291873D01*
X57676464Y-86291872D01*
X57676461Y-86291866D01*
X57605276Y-86185331D01*
X57605273Y-86185327D01*
X57514672Y-86094726D01*
X57514668Y-86094723D01*
X57408133Y-86023538D01*
X57408124Y-86023533D01*
X57289744Y-85974499D01*
X57289738Y-85974497D01*
X57164071Y-85949500D01*
X57164069Y-85949500D01*
X57035931Y-85949500D01*
X57035929Y-85949500D01*
X56910261Y-85974497D01*
X56910255Y-85974499D01*
X56791875Y-86023533D01*
X56791866Y-86023538D01*
X56685331Y-86094723D01*
X56685327Y-86094726D01*
X56594726Y-86185327D01*
X56594723Y-86185331D01*
X56523538Y-86291866D01*
X56523533Y-86291875D01*
X56474499Y-86410255D01*
X56474497Y-86410261D01*
X56449500Y-86535928D01*
X56449500Y-86535931D01*
X56449500Y-86664069D01*
X56449500Y-86664071D01*
X56449499Y-86664071D01*
X54584359Y-86664071D01*
X54625501Y-86564746D01*
X54650500Y-86439071D01*
X54650500Y-86310933D01*
X54650500Y-86310930D01*
X54625502Y-86185263D01*
X54625501Y-86185262D01*
X54625501Y-86185258D01*
X54576465Y-86066875D01*
X54576464Y-86066874D01*
X54576461Y-86066868D01*
X54505276Y-85960333D01*
X54505273Y-85960329D01*
X54414672Y-85869728D01*
X54414668Y-85869725D01*
X54308133Y-85798540D01*
X54308124Y-85798535D01*
X54189744Y-85749501D01*
X54189738Y-85749499D01*
X54064071Y-85724502D01*
X54064069Y-85724502D01*
X53935931Y-85724502D01*
X53935929Y-85724502D01*
X53810261Y-85749499D01*
X53810255Y-85749501D01*
X53691875Y-85798535D01*
X53691866Y-85798540D01*
X53585331Y-85869725D01*
X53585327Y-85869728D01*
X53494726Y-85960329D01*
X53494723Y-85960333D01*
X53423538Y-86066868D01*
X53423533Y-86066877D01*
X53374499Y-86185257D01*
X53374497Y-86185263D01*
X53349500Y-86310930D01*
X53349500Y-86310933D01*
X53349500Y-86439071D01*
X53349500Y-86439073D01*
X53349499Y-86439073D01*
X45993005Y-86439073D01*
X46021789Y-86410289D01*
X46109394Y-86279179D01*
X46169737Y-86133497D01*
X46200500Y-85978842D01*
X46200500Y-85821158D01*
X46200500Y-85821155D01*
X46200499Y-85821153D01*
X46169738Y-85666510D01*
X46169737Y-85666503D01*
X46169735Y-85666498D01*
X46109397Y-85520827D01*
X46109390Y-85520814D01*
X46021789Y-85389711D01*
X46021786Y-85389707D01*
X45910292Y-85278213D01*
X45910288Y-85278210D01*
X45779185Y-85190609D01*
X45779172Y-85190602D01*
X45633501Y-85130264D01*
X45633489Y-85130261D01*
X45478845Y-85099500D01*
X45478842Y-85099500D01*
X45321158Y-85099500D01*
X45321155Y-85099500D01*
X45166510Y-85130261D01*
X45166498Y-85130264D01*
X45020827Y-85190602D01*
X45020814Y-85190609D01*
X44889711Y-85278210D01*
X44889707Y-85278213D01*
X44778213Y-85389707D01*
X44778210Y-85389711D01*
X44690609Y-85520814D01*
X44690602Y-85520827D01*
X44630264Y-85666498D01*
X44630261Y-85666510D01*
X44599500Y-85821153D01*
X36400000Y-85821153D01*
X36400000Y-84539073D01*
X53349499Y-84539073D01*
X53374497Y-84664740D01*
X53374499Y-84664746D01*
X53423533Y-84783126D01*
X53423538Y-84783135D01*
X53494723Y-84889670D01*
X53494726Y-84889674D01*
X53585327Y-84980275D01*
X53585331Y-84980278D01*
X53691866Y-85051463D01*
X53691872Y-85051466D01*
X53691873Y-85051467D01*
X53810256Y-85100503D01*
X53810260Y-85100503D01*
X53810261Y-85100504D01*
X53935928Y-85125502D01*
X53935931Y-85125502D01*
X54064071Y-85125502D01*
X54165764Y-85105273D01*
X54189744Y-85100503D01*
X54308127Y-85051467D01*
X54414669Y-84980278D01*
X54505276Y-84889671D01*
X54576465Y-84783129D01*
X54625501Y-84664746D01*
X54625635Y-84664071D01*
X56449499Y-84664071D01*
X56474497Y-84789738D01*
X56474499Y-84789744D01*
X56523533Y-84908124D01*
X56523538Y-84908133D01*
X56594723Y-85014668D01*
X56594726Y-85014672D01*
X56685327Y-85105273D01*
X56685331Y-85105276D01*
X56791866Y-85176461D01*
X56791872Y-85176464D01*
X56791873Y-85176465D01*
X56910256Y-85225501D01*
X56910260Y-85225501D01*
X56910261Y-85225502D01*
X57035928Y-85250500D01*
X57035931Y-85250500D01*
X57164071Y-85250500D01*
X57248615Y-85233682D01*
X57289744Y-85225501D01*
X57408127Y-85176465D01*
X57514669Y-85105276D01*
X57605276Y-85014669D01*
X57676465Y-84908127D01*
X57725501Y-84789744D01*
X57741664Y-84708491D01*
X57750500Y-84664071D01*
X57750500Y-84535928D01*
X57726298Y-84414260D01*
X57725922Y-84412372D01*
X57725501Y-84410256D01*
X57719660Y-84396155D01*
X59204675Y-84396155D01*
X59204675Y-84553848D01*
X59235436Y-84708491D01*
X59235439Y-84708503D01*
X59295777Y-84854174D01*
X59295784Y-84854187D01*
X59383385Y-84985290D01*
X59383388Y-84985294D01*
X59494882Y-85096788D01*
X59494886Y-85096791D01*
X59625989Y-85184392D01*
X59626002Y-85184399D01*
X59725235Y-85225502D01*
X59771678Y-85244739D01*
X59926328Y-85275501D01*
X59926331Y-85275502D01*
X59926333Y-85275502D01*
X60084019Y-85275502D01*
X60084020Y-85275501D01*
X60238672Y-85244739D01*
X60351341Y-85198069D01*
X60384347Y-85184399D01*
X60384347Y-85184398D01*
X60384354Y-85184396D01*
X60396230Y-85176461D01*
X60516050Y-85096400D01*
X60582728Y-85075522D01*
X60584941Y-85075502D01*
X61174905Y-85075502D01*
X61241944Y-85095187D01*
X61262586Y-85111821D01*
X62765425Y-86614660D01*
X62798910Y-86675983D01*
X62799361Y-86678149D01*
X62830261Y-86833491D01*
X62830264Y-86833501D01*
X62890602Y-86979172D01*
X62890609Y-86979185D01*
X62978210Y-87110288D01*
X62978213Y-87110292D01*
X63089707Y-87221786D01*
X63089711Y-87221789D01*
X63220814Y-87309390D01*
X63220827Y-87309397D01*
X63366498Y-87369735D01*
X63366503Y-87369737D01*
X63521153Y-87400499D01*
X63521156Y-87400500D01*
X63521158Y-87400500D01*
X63678844Y-87400500D01*
X63678845Y-87400499D01*
X63833497Y-87369737D01*
X63979179Y-87309394D01*
X64110289Y-87221789D01*
X64221789Y-87110289D01*
X64309394Y-86979179D01*
X64369737Y-86833497D01*
X64400500Y-86678842D01*
X64400500Y-86521158D01*
X64400500Y-86521155D01*
X64400499Y-86521153D01*
X64384172Y-86439073D01*
X65409499Y-86439073D01*
X65434497Y-86564740D01*
X65434499Y-86564746D01*
X65483533Y-86683126D01*
X65483538Y-86683135D01*
X65554723Y-86789670D01*
X65554726Y-86789674D01*
X65645327Y-86880275D01*
X65645331Y-86880278D01*
X65751866Y-86951463D01*
X65751872Y-86951466D01*
X65751873Y-86951467D01*
X65870256Y-87000503D01*
X65870260Y-87000503D01*
X65870261Y-87000504D01*
X65995928Y-87025502D01*
X65995931Y-87025502D01*
X66124071Y-87025502D01*
X66208615Y-87008684D01*
X66249744Y-87000503D01*
X66368127Y-86951467D01*
X66474669Y-86880278D01*
X66565276Y-86789671D01*
X66636465Y-86683129D01*
X66685501Y-86564746D01*
X66710500Y-86439071D01*
X66710500Y-86310933D01*
X66710500Y-86310930D01*
X66685502Y-86185263D01*
X66685501Y-86185262D01*
X66685501Y-86185258D01*
X66636465Y-86066875D01*
X66636464Y-86066874D01*
X66636461Y-86066868D01*
X66565276Y-85960333D01*
X66565273Y-85960329D01*
X66474672Y-85869728D01*
X66474668Y-85869725D01*
X66368133Y-85798540D01*
X66368124Y-85798535D01*
X66249744Y-85749501D01*
X66249738Y-85749499D01*
X66124071Y-85724502D01*
X66124069Y-85724502D01*
X65995931Y-85724502D01*
X65995929Y-85724502D01*
X65870261Y-85749499D01*
X65870255Y-85749501D01*
X65751875Y-85798535D01*
X65751866Y-85798540D01*
X65645331Y-85869725D01*
X65645327Y-85869728D01*
X65554726Y-85960329D01*
X65554723Y-85960333D01*
X65483538Y-86066868D01*
X65483533Y-86066877D01*
X65434499Y-86185257D01*
X65434497Y-86185263D01*
X65409500Y-86310930D01*
X65409500Y-86310933D01*
X65409500Y-86439071D01*
X65409500Y-86439073D01*
X65409499Y-86439073D01*
X64384172Y-86439073D01*
X64378447Y-86410292D01*
X64369737Y-86366503D01*
X64324540Y-86257386D01*
X64309397Y-86220827D01*
X64309390Y-86220814D01*
X64221789Y-86089711D01*
X64221786Y-86089707D01*
X64110292Y-85978213D01*
X64110288Y-85978210D01*
X63979185Y-85890609D01*
X63979172Y-85890602D01*
X63833501Y-85830264D01*
X63833491Y-85830261D01*
X63678149Y-85799361D01*
X63616238Y-85766976D01*
X63614660Y-85765425D01*
X63278290Y-85429055D01*
X63244805Y-85367732D01*
X63249789Y-85298040D01*
X63291661Y-85242107D01*
X63357125Y-85217690D01*
X63403959Y-85225280D01*
X63404429Y-85223733D01*
X63410251Y-85225499D01*
X63410256Y-85225501D01*
X63410260Y-85225501D01*
X63410261Y-85225502D01*
X63535928Y-85250500D01*
X63535931Y-85250500D01*
X63664071Y-85250500D01*
X63748615Y-85233682D01*
X63789744Y-85225501D01*
X63908127Y-85176465D01*
X64014669Y-85105276D01*
X64105276Y-85014669D01*
X64176465Y-84908127D01*
X64225501Y-84789744D01*
X64241664Y-84708491D01*
X64250500Y-84664071D01*
X64250500Y-84535928D01*
X64225502Y-84410261D01*
X64225501Y-84410260D01*
X64225501Y-84410256D01*
X64176465Y-84291873D01*
X64176464Y-84291872D01*
X64176461Y-84291866D01*
X64105276Y-84185331D01*
X64105273Y-84185327D01*
X64014672Y-84094726D01*
X64014668Y-84094723D01*
X63908133Y-84023538D01*
X63908124Y-84023533D01*
X63789744Y-83974499D01*
X63789738Y-83974497D01*
X63664071Y-83949500D01*
X63664069Y-83949500D01*
X63535931Y-83949500D01*
X63535929Y-83949500D01*
X63410261Y-83974497D01*
X63410255Y-83974499D01*
X63291875Y-84023533D01*
X63291866Y-84023538D01*
X63185331Y-84094723D01*
X63185327Y-84094726D01*
X63094726Y-84185327D01*
X63094723Y-84185331D01*
X63023538Y-84291866D01*
X63023533Y-84291875D01*
X62974499Y-84410255D01*
X62974497Y-84410261D01*
X62949500Y-84535928D01*
X62949500Y-84535931D01*
X62949500Y-84664069D01*
X62949500Y-84664071D01*
X62949499Y-84664071D01*
X62974497Y-84789738D01*
X62976267Y-84795571D01*
X62974224Y-84796190D01*
X62980651Y-84856068D01*
X62949364Y-84918541D01*
X62889268Y-84954182D01*
X62819443Y-84951675D01*
X62770944Y-84921709D01*
X61962592Y-84113357D01*
X61962590Y-84113354D01*
X61843719Y-83994483D01*
X61843718Y-83994482D01*
X61756906Y-83944362D01*
X61756906Y-83944361D01*
X61756902Y-83944360D01*
X61706787Y-83915425D01*
X61554059Y-83874501D01*
X61395945Y-83874501D01*
X61388349Y-83874501D01*
X61388333Y-83874502D01*
X60584941Y-83874502D01*
X60517902Y-83854817D01*
X60516050Y-83853604D01*
X60384360Y-83765611D01*
X60384347Y-83765604D01*
X60238676Y-83705266D01*
X60238664Y-83705263D01*
X60084020Y-83674502D01*
X60084017Y-83674502D01*
X59926333Y-83674502D01*
X59926330Y-83674502D01*
X59771685Y-83705263D01*
X59771673Y-83705266D01*
X59626002Y-83765604D01*
X59625989Y-83765611D01*
X59494886Y-83853212D01*
X59494882Y-83853215D01*
X59383388Y-83964709D01*
X59383385Y-83964713D01*
X59295784Y-84095816D01*
X59295777Y-84095829D01*
X59235439Y-84241500D01*
X59235436Y-84241512D01*
X59204675Y-84396155D01*
X57719660Y-84396155D01*
X57676465Y-84291873D01*
X57676464Y-84291872D01*
X57676461Y-84291866D01*
X57605276Y-84185331D01*
X57605273Y-84185327D01*
X57514672Y-84094726D01*
X57514668Y-84094723D01*
X57408133Y-84023538D01*
X57408124Y-84023533D01*
X57289744Y-83974499D01*
X57289738Y-83974497D01*
X57164071Y-83949500D01*
X57164069Y-83949500D01*
X57035931Y-83949500D01*
X57035929Y-83949500D01*
X56910261Y-83974497D01*
X56910255Y-83974499D01*
X56791875Y-84023533D01*
X56791866Y-84023538D01*
X56685331Y-84094723D01*
X56685327Y-84094726D01*
X56594726Y-84185327D01*
X56594723Y-84185331D01*
X56523538Y-84291866D01*
X56523533Y-84291875D01*
X56474499Y-84410255D01*
X56474497Y-84410261D01*
X56449500Y-84535928D01*
X56449500Y-84535931D01*
X56449500Y-84664069D01*
X56449500Y-84664071D01*
X56449499Y-84664071D01*
X54625635Y-84664071D01*
X54647561Y-84553848D01*
X54650500Y-84539073D01*
X54650500Y-84410930D01*
X54625502Y-84285263D01*
X54625501Y-84285262D01*
X54625501Y-84285258D01*
X54576465Y-84166875D01*
X54576464Y-84166874D01*
X54576461Y-84166868D01*
X54505276Y-84060333D01*
X54505273Y-84060329D01*
X54414672Y-83969728D01*
X54414668Y-83969725D01*
X54308133Y-83898540D01*
X54308124Y-83898535D01*
X54189744Y-83849501D01*
X54189738Y-83849499D01*
X54064071Y-83824502D01*
X54064069Y-83824502D01*
X53935931Y-83824502D01*
X53935929Y-83824502D01*
X53810261Y-83849499D01*
X53810255Y-83849501D01*
X53691875Y-83898535D01*
X53691866Y-83898540D01*
X53585331Y-83969725D01*
X53585327Y-83969728D01*
X53494726Y-84060329D01*
X53494723Y-84060333D01*
X53423538Y-84166868D01*
X53423533Y-84166877D01*
X53374499Y-84285257D01*
X53374497Y-84285263D01*
X53349500Y-84410930D01*
X53349500Y-84410933D01*
X53349500Y-84539071D01*
X53349500Y-84539073D01*
X53349499Y-84539073D01*
X36400000Y-84539073D01*
X36400000Y-84016825D01*
X36661471Y-83946765D01*
X36919493Y-83839889D01*
X37161357Y-83700249D01*
X37382925Y-83530233D01*
X37382929Y-83530228D01*
X37382934Y-83530225D01*
X37580398Y-83332761D01*
X37580401Y-83332756D01*
X37580406Y-83332752D01*
X37750422Y-83111184D01*
X37890062Y-82869320D01*
X37975079Y-82664071D01*
X67849499Y-82664071D01*
X67874497Y-82789738D01*
X67874499Y-82789744D01*
X67923533Y-82908124D01*
X67923538Y-82908133D01*
X67994723Y-83014668D01*
X67994726Y-83014672D01*
X68085327Y-83105273D01*
X68085331Y-83105276D01*
X68191866Y-83176461D01*
X68191872Y-83176464D01*
X68191873Y-83176465D01*
X68310256Y-83225501D01*
X68310260Y-83225501D01*
X68310261Y-83225502D01*
X68435928Y-83250500D01*
X68435931Y-83250500D01*
X68564071Y-83250500D01*
X68648615Y-83233682D01*
X68689744Y-83225501D01*
X68808127Y-83176465D01*
X68914669Y-83105276D01*
X69005276Y-83014669D01*
X69076465Y-82908127D01*
X69125501Y-82789744D01*
X69150500Y-82664069D01*
X69150500Y-82535931D01*
X69150500Y-82535928D01*
X69125502Y-82410261D01*
X69125501Y-82410260D01*
X69125501Y-82410256D01*
X69076465Y-82291873D01*
X69076464Y-82291872D01*
X69076461Y-82291866D01*
X69005276Y-82185331D01*
X69005273Y-82185327D01*
X68914672Y-82094726D01*
X68914668Y-82094723D01*
X68808133Y-82023538D01*
X68808124Y-82023533D01*
X68689744Y-81974499D01*
X68689738Y-81974497D01*
X68564071Y-81949500D01*
X68564069Y-81949500D01*
X68435931Y-81949500D01*
X68435929Y-81949500D01*
X68310261Y-81974497D01*
X68310255Y-81974499D01*
X68191875Y-82023533D01*
X68191866Y-82023538D01*
X68085331Y-82094723D01*
X68085327Y-82094726D01*
X67994726Y-82185327D01*
X67994723Y-82185331D01*
X67923538Y-82291866D01*
X67923533Y-82291875D01*
X67874499Y-82410255D01*
X67874497Y-82410261D01*
X67849500Y-82535928D01*
X67849500Y-82535931D01*
X67849500Y-82664069D01*
X67849500Y-82664071D01*
X67849499Y-82664071D01*
X37975079Y-82664071D01*
X37996938Y-82611298D01*
X38069221Y-82341534D01*
X38105675Y-82064642D01*
X38105675Y-81785362D01*
X38069221Y-81508470D01*
X37996938Y-81238706D01*
X37909070Y-81026573D01*
X62854674Y-81026573D01*
X62879672Y-81152240D01*
X62879674Y-81152246D01*
X62928708Y-81270626D01*
X62928713Y-81270635D01*
X62999898Y-81377170D01*
X62999901Y-81377174D01*
X63090502Y-81467775D01*
X63090506Y-81467778D01*
X63197041Y-81538963D01*
X63197047Y-81538966D01*
X63197048Y-81538967D01*
X63315431Y-81588003D01*
X63315435Y-81588003D01*
X63315436Y-81588004D01*
X63441103Y-81613002D01*
X63441106Y-81613002D01*
X63569246Y-81613002D01*
X63653790Y-81596184D01*
X63694919Y-81588003D01*
X63813302Y-81538967D01*
X63919844Y-81467778D01*
X64010451Y-81377171D01*
X64081640Y-81270629D01*
X64130676Y-81152246D01*
X64155675Y-81026571D01*
X64155675Y-80898433D01*
X64155675Y-80898430D01*
X64130677Y-80772763D01*
X64130676Y-80772762D01*
X64130676Y-80772758D01*
X64081640Y-80654375D01*
X64081639Y-80654374D01*
X64081636Y-80654368D01*
X64010451Y-80547833D01*
X64010448Y-80547829D01*
X63919847Y-80457228D01*
X63919843Y-80457225D01*
X63813308Y-80386040D01*
X63813299Y-80386035D01*
X63694919Y-80337001D01*
X63694913Y-80336999D01*
X63569246Y-80312002D01*
X63569244Y-80312002D01*
X63441106Y-80312002D01*
X63441104Y-80312002D01*
X63315436Y-80336999D01*
X63315430Y-80337001D01*
X63197050Y-80386035D01*
X63197041Y-80386040D01*
X63090506Y-80457225D01*
X63090502Y-80457228D01*
X62999901Y-80547829D01*
X62999898Y-80547833D01*
X62928713Y-80654368D01*
X62928708Y-80654377D01*
X62879674Y-80772757D01*
X62879672Y-80772763D01*
X62854675Y-80898430D01*
X62854675Y-80898433D01*
X62854675Y-81026571D01*
X62854675Y-81026573D01*
X62854674Y-81026573D01*
X37909070Y-81026573D01*
X37890062Y-80980684D01*
X37750422Y-80738820D01*
X37750419Y-80738817D01*
X37750418Y-80738814D01*
X37580405Y-80517251D01*
X37580398Y-80517243D01*
X37382934Y-80319779D01*
X37382925Y-80319771D01*
X37161362Y-80149758D01*
X36919495Y-80010116D01*
X36919486Y-80010112D01*
X36661473Y-79903239D01*
X36526589Y-79867097D01*
X36400000Y-79833178D01*
X36400000Y-79121153D01*
X45699500Y-79121153D01*
X45699500Y-79278846D01*
X45730261Y-79433489D01*
X45730264Y-79433501D01*
X45790602Y-79579172D01*
X45790609Y-79579185D01*
X45878210Y-79710288D01*
X45878213Y-79710292D01*
X45989707Y-79821786D01*
X45989711Y-79821789D01*
X46120814Y-79909390D01*
X46120827Y-79909397D01*
X46266498Y-79969735D01*
X46266503Y-79969737D01*
X46421153Y-80000499D01*
X46421156Y-80000500D01*
X46421158Y-80000500D01*
X46578844Y-80000500D01*
X46578845Y-80000499D01*
X46733497Y-79969737D01*
X46879179Y-79909394D01*
X47010289Y-79821789D01*
X47121789Y-79710289D01*
X47209394Y-79579179D01*
X47269737Y-79433497D01*
X47300500Y-79278842D01*
X47300500Y-79264071D01*
X51749499Y-79264071D01*
X51774497Y-79389738D01*
X51774499Y-79389744D01*
X51823533Y-79508124D01*
X51823538Y-79508133D01*
X51894723Y-79614668D01*
X51894726Y-79614672D01*
X51985327Y-79705273D01*
X51985331Y-79705276D01*
X52091866Y-79776461D01*
X52091872Y-79776464D01*
X52091873Y-79776465D01*
X52210256Y-79825501D01*
X52210260Y-79825501D01*
X52210261Y-79825502D01*
X52335928Y-79850500D01*
X52335931Y-79850500D01*
X52464071Y-79850500D01*
X52548615Y-79833682D01*
X52589744Y-79825501D01*
X52708127Y-79776465D01*
X52814669Y-79705276D01*
X52905276Y-79614669D01*
X52976465Y-79508127D01*
X53025501Y-79389744D01*
X53047561Y-79278844D01*
X53050500Y-79264071D01*
X53050500Y-79164071D01*
X53749499Y-79164071D01*
X53774497Y-79289738D01*
X53774499Y-79289744D01*
X53823533Y-79408124D01*
X53823538Y-79408133D01*
X53894723Y-79514668D01*
X53894726Y-79514672D01*
X53985327Y-79605273D01*
X53985331Y-79605276D01*
X54091866Y-79676461D01*
X54091872Y-79676464D01*
X54091873Y-79676465D01*
X54210256Y-79725501D01*
X54210260Y-79725501D01*
X54210261Y-79725502D01*
X54335928Y-79750500D01*
X54335931Y-79750500D01*
X54464071Y-79750500D01*
X54548615Y-79733682D01*
X54589744Y-79725501D01*
X54708127Y-79676465D01*
X54814669Y-79605276D01*
X54905276Y-79514669D01*
X54976465Y-79408127D01*
X55025501Y-79289744D01*
X55050500Y-79164069D01*
X55050500Y-79035931D01*
X55050500Y-79035928D01*
X55025502Y-78910261D01*
X55025501Y-78910260D01*
X55025501Y-78910256D01*
X54976465Y-78791873D01*
X54976464Y-78791872D01*
X54976461Y-78791866D01*
X54905276Y-78685331D01*
X54905273Y-78685327D01*
X54814672Y-78594726D01*
X54814668Y-78594723D01*
X54708133Y-78523538D01*
X54708124Y-78523533D01*
X54589744Y-78474499D01*
X54589738Y-78474497D01*
X54464071Y-78449500D01*
X54464069Y-78449500D01*
X54335931Y-78449500D01*
X54335929Y-78449500D01*
X54210261Y-78474497D01*
X54210255Y-78474499D01*
X54091875Y-78523533D01*
X54091866Y-78523538D01*
X53985331Y-78594723D01*
X53985327Y-78594726D01*
X53894726Y-78685327D01*
X53894723Y-78685331D01*
X53823538Y-78791866D01*
X53823533Y-78791875D01*
X53774499Y-78910255D01*
X53774497Y-78910261D01*
X53749500Y-79035928D01*
X53749500Y-79035931D01*
X53749500Y-79164069D01*
X53749500Y-79164071D01*
X53749499Y-79164071D01*
X53050500Y-79164071D01*
X53050500Y-79135928D01*
X53034209Y-79054031D01*
X53025502Y-79010261D01*
X53025501Y-79010260D01*
X53025501Y-79010256D01*
X52976465Y-78891873D01*
X52976464Y-78891872D01*
X52976461Y-78891866D01*
X52905276Y-78785331D01*
X52905273Y-78785327D01*
X52814672Y-78694726D01*
X52814668Y-78694723D01*
X52708133Y-78623538D01*
X52708124Y-78623533D01*
X52589744Y-78574499D01*
X52589738Y-78574497D01*
X52464071Y-78549500D01*
X52464069Y-78549500D01*
X52335931Y-78549500D01*
X52335929Y-78549500D01*
X52210261Y-78574497D01*
X52210255Y-78574499D01*
X52091875Y-78623533D01*
X52091866Y-78623538D01*
X51985331Y-78694723D01*
X51985327Y-78694726D01*
X51894726Y-78785327D01*
X51894723Y-78785331D01*
X51823538Y-78891866D01*
X51823533Y-78891875D01*
X51774499Y-79010255D01*
X51774497Y-79010261D01*
X51749500Y-79135928D01*
X51749500Y-79135931D01*
X51749500Y-79264069D01*
X51749500Y-79264071D01*
X51749499Y-79264071D01*
X47300500Y-79264071D01*
X47300500Y-79121158D01*
X47300500Y-79121155D01*
X47300499Y-79121153D01*
X47269737Y-78966503D01*
X47246439Y-78910256D01*
X47209397Y-78820827D01*
X47209390Y-78820814D01*
X47121789Y-78689711D01*
X47121786Y-78689707D01*
X47010292Y-78578213D01*
X47010288Y-78578210D01*
X46879185Y-78490609D01*
X46879172Y-78490602D01*
X46733501Y-78430264D01*
X46733489Y-78430261D01*
X46578845Y-78399500D01*
X46578842Y-78399500D01*
X46421158Y-78399500D01*
X46421155Y-78399500D01*
X46266510Y-78430261D01*
X46266498Y-78430264D01*
X46120827Y-78490602D01*
X46120814Y-78490609D01*
X45989711Y-78578210D01*
X45989707Y-78578213D01*
X45878213Y-78689707D01*
X45878210Y-78689711D01*
X45790609Y-78820814D01*
X45790602Y-78820827D01*
X45730264Y-78966498D01*
X45730261Y-78966510D01*
X45699500Y-79121153D01*
X36400000Y-79121153D01*
X36400000Y-75180833D01*
X36413890Y-75250663D01*
X36413893Y-75250675D01*
X36490815Y-75436383D01*
X36490822Y-75436396D01*
X36602500Y-75603532D01*
X36602503Y-75603536D01*
X36744640Y-75745673D01*
X36744644Y-75745676D01*
X36911780Y-75857354D01*
X36911793Y-75857361D01*
X37097501Y-75934283D01*
X37097506Y-75934285D01*
X37228439Y-75960329D01*
X37294659Y-75973501D01*
X37294663Y-75973502D01*
X37294664Y-75973502D01*
X37495687Y-75973502D01*
X37495688Y-75973501D01*
X37692844Y-75934285D01*
X37777858Y-75899071D01*
X48327499Y-75899071D01*
X48352497Y-76024738D01*
X48352499Y-76024744D01*
X48401533Y-76143124D01*
X48401538Y-76143133D01*
X48472723Y-76249668D01*
X48472726Y-76249672D01*
X48563327Y-76340273D01*
X48563331Y-76340276D01*
X48603173Y-76366898D01*
X48647978Y-76420510D01*
X48656685Y-76489835D01*
X48626530Y-76552863D01*
X48603173Y-76573102D01*
X48563331Y-76599723D01*
X48563327Y-76599726D01*
X48472726Y-76690327D01*
X48472723Y-76690331D01*
X48401538Y-76796866D01*
X48401533Y-76796875D01*
X48352499Y-76915255D01*
X48352497Y-76915261D01*
X48327500Y-77040928D01*
X48327500Y-77040931D01*
X48327500Y-77169069D01*
X48327500Y-77169071D01*
X48327499Y-77169071D01*
X48352497Y-77294738D01*
X48352499Y-77294744D01*
X48401533Y-77413124D01*
X48401538Y-77413133D01*
X48472723Y-77519668D01*
X48472726Y-77519672D01*
X48563327Y-77610273D01*
X48563331Y-77610276D01*
X48669866Y-77681461D01*
X48669872Y-77681464D01*
X48669873Y-77681465D01*
X48788256Y-77730501D01*
X48788260Y-77730501D01*
X48788261Y-77730502D01*
X48913928Y-77755500D01*
X48913931Y-77755500D01*
X49042071Y-77755500D01*
X49126615Y-77738682D01*
X49167744Y-77730501D01*
X49286127Y-77681465D01*
X49392669Y-77610276D01*
X49483276Y-77519669D01*
X49554465Y-77413127D01*
X49574785Y-77364071D01*
X55849499Y-77364071D01*
X55874497Y-77489738D01*
X55874499Y-77489744D01*
X55923533Y-77608124D01*
X55923538Y-77608133D01*
X55994723Y-77714668D01*
X55994726Y-77714672D01*
X56085327Y-77805273D01*
X56085331Y-77805276D01*
X56191866Y-77876461D01*
X56191872Y-77876464D01*
X56191873Y-77876465D01*
X56310256Y-77925501D01*
X56310260Y-77925501D01*
X56310261Y-77925502D01*
X56435928Y-77950500D01*
X56435931Y-77950500D01*
X56564071Y-77950500D01*
X56648615Y-77933682D01*
X56689744Y-77925501D01*
X56808127Y-77876465D01*
X56914669Y-77805276D01*
X57005276Y-77714669D01*
X57076465Y-77608127D01*
X57125501Y-77489744D01*
X57140740Y-77413133D01*
X57150500Y-77364071D01*
X57150500Y-77235928D01*
X57125502Y-77110261D01*
X57125501Y-77110260D01*
X57125501Y-77110256D01*
X57076465Y-76991873D01*
X57076464Y-76991872D01*
X57076461Y-76991866D01*
X57005276Y-76885331D01*
X57005273Y-76885327D01*
X56914672Y-76794726D01*
X56914668Y-76794723D01*
X56808133Y-76723538D01*
X56808124Y-76723533D01*
X56689744Y-76674499D01*
X56689738Y-76674497D01*
X56564071Y-76649500D01*
X56564069Y-76649500D01*
X56435931Y-76649500D01*
X56435929Y-76649500D01*
X56310261Y-76674497D01*
X56310255Y-76674499D01*
X56191875Y-76723533D01*
X56191866Y-76723538D01*
X56085331Y-76794723D01*
X56085327Y-76794726D01*
X55994726Y-76885327D01*
X55994723Y-76885331D01*
X55923538Y-76991866D01*
X55923533Y-76991875D01*
X55874499Y-77110255D01*
X55874497Y-77110261D01*
X55849500Y-77235928D01*
X55849500Y-77235931D01*
X55849500Y-77364069D01*
X55849500Y-77364071D01*
X55849499Y-77364071D01*
X49574785Y-77364071D01*
X49603501Y-77294744D01*
X49628500Y-77169069D01*
X49628500Y-77040931D01*
X49628500Y-77040928D01*
X49603502Y-76915261D01*
X49603501Y-76915260D01*
X49603501Y-76915256D01*
X49554465Y-76796873D01*
X49554464Y-76796872D01*
X49554461Y-76796866D01*
X49483276Y-76690331D01*
X49483273Y-76690327D01*
X49392671Y-76599725D01*
X49377382Y-76589509D01*
X49352825Y-76573101D01*
X49308022Y-76519491D01*
X49299314Y-76450166D01*
X49304621Y-76439073D01*
X62953674Y-76439073D01*
X62978672Y-76564740D01*
X62978674Y-76564746D01*
X63027708Y-76683126D01*
X63027713Y-76683135D01*
X63098898Y-76789670D01*
X63098901Y-76789674D01*
X63189502Y-76880275D01*
X63189506Y-76880278D01*
X63296041Y-76951463D01*
X63296047Y-76951466D01*
X63296048Y-76951467D01*
X63414431Y-77000503D01*
X63414435Y-77000503D01*
X63414436Y-77000504D01*
X63540103Y-77025502D01*
X63540106Y-77025502D01*
X63668246Y-77025502D01*
X63752790Y-77008684D01*
X63793919Y-77000503D01*
X63912302Y-76951467D01*
X64018844Y-76880278D01*
X64109451Y-76789671D01*
X64180640Y-76683129D01*
X64229676Y-76564746D01*
X64254675Y-76439071D01*
X64254675Y-76310933D01*
X64254675Y-76310930D01*
X64229677Y-76185263D01*
X64229676Y-76185262D01*
X64229676Y-76185258D01*
X64180640Y-76066875D01*
X64180639Y-76066874D01*
X64180636Y-76066868D01*
X64109451Y-75960333D01*
X64109448Y-75960329D01*
X64018847Y-75869728D01*
X64018843Y-75869725D01*
X63912308Y-75798540D01*
X63912299Y-75798535D01*
X63793919Y-75749501D01*
X63793913Y-75749499D01*
X63668246Y-75724502D01*
X63668244Y-75724502D01*
X63540106Y-75724502D01*
X63540104Y-75724502D01*
X63414436Y-75749499D01*
X63414430Y-75749501D01*
X63296050Y-75798535D01*
X63296041Y-75798540D01*
X63189506Y-75869725D01*
X63189502Y-75869728D01*
X63098901Y-75960329D01*
X63098898Y-75960333D01*
X63027713Y-76066868D01*
X63027708Y-76066877D01*
X62978674Y-76185257D01*
X62978672Y-76185263D01*
X62953675Y-76310930D01*
X62953675Y-76310933D01*
X62953675Y-76439071D01*
X62953675Y-76439073D01*
X62953674Y-76439073D01*
X49304621Y-76439073D01*
X49329468Y-76387138D01*
X49336306Y-76380106D01*
X49344000Y-76372795D01*
X49392669Y-76340276D01*
X49483276Y-76249669D01*
X49554465Y-76143127D01*
X49603501Y-76024744D01*
X49613694Y-75973501D01*
X49628500Y-75899071D01*
X49628500Y-75770928D01*
X49603502Y-75645261D01*
X49603501Y-75645260D01*
X49603501Y-75645256D01*
X49554465Y-75526873D01*
X49554464Y-75526872D01*
X49554461Y-75526866D01*
X49483276Y-75420331D01*
X49483273Y-75420327D01*
X49392672Y-75329726D01*
X49392668Y-75329723D01*
X49286133Y-75258538D01*
X49286124Y-75258533D01*
X49167744Y-75209499D01*
X49167738Y-75209497D01*
X49042071Y-75184500D01*
X49042069Y-75184500D01*
X48913931Y-75184500D01*
X48913929Y-75184500D01*
X48788261Y-75209497D01*
X48788255Y-75209499D01*
X48669875Y-75258533D01*
X48669866Y-75258538D01*
X48563331Y-75329723D01*
X48563327Y-75329726D01*
X48472726Y-75420327D01*
X48472723Y-75420331D01*
X48401538Y-75526866D01*
X48401533Y-75526875D01*
X48352499Y-75645255D01*
X48352497Y-75645261D01*
X48327500Y-75770928D01*
X48327500Y-75770931D01*
X48327500Y-75899069D01*
X48327500Y-75899071D01*
X48327499Y-75899071D01*
X37777858Y-75899071D01*
X37878563Y-75857358D01*
X38045706Y-75745676D01*
X38066880Y-75724502D01*
X38114225Y-75677158D01*
X38187846Y-75603536D01*
X38187849Y-75603533D01*
X38299531Y-75436390D01*
X38306185Y-75420327D01*
X38373199Y-75258538D01*
X38376458Y-75250671D01*
X38415675Y-75053513D01*
X38415675Y-74852491D01*
X38376458Y-74655333D01*
X38365580Y-74629071D01*
X53749499Y-74629071D01*
X53774497Y-74754738D01*
X53774499Y-74754744D01*
X53823533Y-74873124D01*
X53823538Y-74873133D01*
X53894723Y-74979668D01*
X53894726Y-74979672D01*
X53985327Y-75070273D01*
X53985331Y-75070276D01*
X54091866Y-75141461D01*
X54091872Y-75141464D01*
X54091873Y-75141465D01*
X54210256Y-75190501D01*
X54210260Y-75190501D01*
X54210261Y-75190502D01*
X54335928Y-75215500D01*
X54335931Y-75215500D01*
X54464071Y-75215500D01*
X54548615Y-75198682D01*
X54589744Y-75190501D01*
X54708127Y-75141465D01*
X54814669Y-75070276D01*
X54905276Y-74979669D01*
X54976465Y-74873127D01*
X55025501Y-74754744D01*
X55033682Y-74713615D01*
X55050500Y-74629071D01*
X55050500Y-74500928D01*
X55025502Y-74375261D01*
X55025501Y-74375260D01*
X55025501Y-74375256D01*
X54987574Y-74283692D01*
X54976466Y-74256875D01*
X54976461Y-74256866D01*
X54905276Y-74150331D01*
X54905273Y-74150327D01*
X54814672Y-74059726D01*
X54814668Y-74059723D01*
X54708133Y-73988538D01*
X54708124Y-73988533D01*
X54589744Y-73939499D01*
X54589738Y-73939497D01*
X54464071Y-73914500D01*
X54464069Y-73914500D01*
X54335931Y-73914500D01*
X54335929Y-73914500D01*
X54210261Y-73939497D01*
X54210255Y-73939499D01*
X54091875Y-73988533D01*
X54091866Y-73988538D01*
X53985331Y-74059723D01*
X53985327Y-74059726D01*
X53894726Y-74150327D01*
X53894723Y-74150331D01*
X53823538Y-74256866D01*
X53823533Y-74256875D01*
X53774499Y-74375255D01*
X53774497Y-74375261D01*
X53749500Y-74500928D01*
X53749500Y-74500931D01*
X53749500Y-74629069D01*
X53749500Y-74629071D01*
X53749499Y-74629071D01*
X38365580Y-74629071D01*
X38312502Y-74500928D01*
X38299534Y-74469620D01*
X38299527Y-74469607D01*
X38187849Y-74302471D01*
X38187846Y-74302467D01*
X38045709Y-74160330D01*
X38045705Y-74160327D01*
X37878569Y-74048649D01*
X37878556Y-74048642D01*
X37692848Y-73971720D01*
X37692836Y-73971717D01*
X37495690Y-73932502D01*
X37495686Y-73932502D01*
X37294664Y-73932502D01*
X37294659Y-73932502D01*
X37097513Y-73971717D01*
X37097501Y-73971720D01*
X36911793Y-74048642D01*
X36911780Y-74048649D01*
X36744644Y-74160327D01*
X36744640Y-74160330D01*
X36602503Y-74302467D01*
X36602500Y-74302471D01*
X36490822Y-74469607D01*
X36490815Y-74469620D01*
X36413893Y-74655328D01*
X36413890Y-74655340D01*
X36400000Y-74725169D01*
X36400000Y-73464071D01*
X44149499Y-73464071D01*
X44174497Y-73589738D01*
X44174499Y-73589744D01*
X44223533Y-73708124D01*
X44223538Y-73708133D01*
X44294723Y-73814668D01*
X44294726Y-73814672D01*
X44385327Y-73905273D01*
X44385331Y-73905276D01*
X44491866Y-73976461D01*
X44491875Y-73976466D01*
X44518692Y-73987574D01*
X44610256Y-74025501D01*
X44610260Y-74025501D01*
X44610261Y-74025502D01*
X44735928Y-74050500D01*
X44735931Y-74050500D01*
X44864071Y-74050500D01*
X44948615Y-74033682D01*
X44989744Y-74025501D01*
X45108127Y-73976465D01*
X45214669Y-73905276D01*
X45305276Y-73814669D01*
X45376465Y-73708127D01*
X45425501Y-73589744D01*
X45450500Y-73464069D01*
X45450500Y-73364071D01*
X50949499Y-73364071D01*
X50974497Y-73489738D01*
X50974499Y-73489744D01*
X51023533Y-73608124D01*
X51023538Y-73608133D01*
X51094723Y-73714668D01*
X51094726Y-73714672D01*
X51185327Y-73805273D01*
X51185331Y-73805276D01*
X51291866Y-73876461D01*
X51291872Y-73876464D01*
X51291873Y-73876465D01*
X51410256Y-73925501D01*
X51410260Y-73925501D01*
X51410261Y-73925502D01*
X51535928Y-73950500D01*
X51535931Y-73950500D01*
X51664071Y-73950500D01*
X51748615Y-73933682D01*
X51789744Y-73925501D01*
X51908127Y-73876465D01*
X52014669Y-73805276D01*
X52105276Y-73714669D01*
X52176465Y-73608127D01*
X52225501Y-73489744D01*
X52249675Y-73368216D01*
X52250500Y-73364071D01*
X52250500Y-73235928D01*
X52225502Y-73110261D01*
X52225501Y-73110260D01*
X52225501Y-73110256D01*
X52176465Y-72991873D01*
X52176464Y-72991872D01*
X52176461Y-72991866D01*
X52105276Y-72885331D01*
X52105273Y-72885327D01*
X52014672Y-72794726D01*
X52014668Y-72794723D01*
X51908133Y-72723538D01*
X51908124Y-72723533D01*
X51789744Y-72674499D01*
X51789738Y-72674497D01*
X51664071Y-72649500D01*
X51664069Y-72649500D01*
X51535931Y-72649500D01*
X51535929Y-72649500D01*
X51410261Y-72674497D01*
X51410255Y-72674499D01*
X51291875Y-72723533D01*
X51291866Y-72723538D01*
X51185331Y-72794723D01*
X51185327Y-72794726D01*
X51094726Y-72885327D01*
X51094723Y-72885331D01*
X51023538Y-72991866D01*
X51023533Y-72991875D01*
X50974499Y-73110255D01*
X50974497Y-73110261D01*
X50949500Y-73235928D01*
X50949500Y-73235931D01*
X50949500Y-73364069D01*
X50949500Y-73364071D01*
X50949499Y-73364071D01*
X45450500Y-73364071D01*
X45450500Y-73335931D01*
X45450500Y-73335928D01*
X45434209Y-73254031D01*
X45425502Y-73210261D01*
X45425501Y-73210260D01*
X45425501Y-73210256D01*
X45379567Y-73099361D01*
X45376466Y-73091875D01*
X45376461Y-73091866D01*
X45305276Y-72985331D01*
X45305273Y-72985327D01*
X45214672Y-72894726D01*
X45214668Y-72894723D01*
X45108133Y-72823538D01*
X45108124Y-72823533D01*
X44989744Y-72774499D01*
X44989738Y-72774497D01*
X44864071Y-72749500D01*
X44864069Y-72749500D01*
X44735931Y-72749500D01*
X44735929Y-72749500D01*
X44610261Y-72774497D01*
X44610255Y-72774499D01*
X44491875Y-72823533D01*
X44491866Y-72823538D01*
X44385331Y-72894723D01*
X44385327Y-72894726D01*
X44294726Y-72985327D01*
X44294723Y-72985331D01*
X44223538Y-73091866D01*
X44223533Y-73091875D01*
X44174499Y-73210255D01*
X44174497Y-73210261D01*
X44149500Y-73335928D01*
X44149500Y-73335931D01*
X44149500Y-73464069D01*
X44149500Y-73464071D01*
X44149499Y-73464071D01*
X36400000Y-73464071D01*
X36400000Y-72422833D01*
X36413890Y-72492663D01*
X36413893Y-72492675D01*
X36490815Y-72678383D01*
X36490822Y-72678396D01*
X36602500Y-72845532D01*
X36602503Y-72845536D01*
X36744640Y-72987673D01*
X36744644Y-72987676D01*
X36911780Y-73099354D01*
X36911793Y-73099361D01*
X37097501Y-73176283D01*
X37097506Y-73176285D01*
X37268316Y-73210261D01*
X37294659Y-73215501D01*
X37294663Y-73215502D01*
X37294664Y-73215502D01*
X37495687Y-73215502D01*
X37495688Y-73215501D01*
X37505475Y-73213554D01*
X37532288Y-73208222D01*
X37610374Y-73192689D01*
X37692844Y-73176285D01*
X37878563Y-73099358D01*
X38045706Y-72987676D01*
X38187849Y-72845533D01*
X38299531Y-72678390D01*
X38376458Y-72492671D01*
X38415675Y-72295513D01*
X38415675Y-72094491D01*
X38376458Y-71897333D01*
X38376456Y-71897328D01*
X38299534Y-71711620D01*
X38299527Y-71711607D01*
X38187849Y-71544471D01*
X38187846Y-71544467D01*
X38057450Y-71414071D01*
X55949499Y-71414071D01*
X55974497Y-71539738D01*
X55974499Y-71539744D01*
X56023533Y-71658124D01*
X56023538Y-71658133D01*
X56094723Y-71764668D01*
X56094726Y-71764672D01*
X56185327Y-71855273D01*
X56185331Y-71855276D01*
X56291866Y-71926461D01*
X56291872Y-71926464D01*
X56291873Y-71926465D01*
X56410256Y-71975501D01*
X56410260Y-71975501D01*
X56410261Y-71975502D01*
X56535928Y-72000500D01*
X56535931Y-72000500D01*
X56664071Y-72000500D01*
X56748615Y-71983682D01*
X56789744Y-71975501D01*
X56908127Y-71926465D01*
X57014669Y-71855276D01*
X57105276Y-71764669D01*
X57176465Y-71658127D01*
X57225501Y-71539744D01*
X57250500Y-71414069D01*
X57250500Y-71285931D01*
X57250500Y-71285928D01*
X57225502Y-71160261D01*
X57225501Y-71160260D01*
X57225501Y-71160256D01*
X57176465Y-71041873D01*
X57176464Y-71041872D01*
X57176461Y-71041866D01*
X57105276Y-70935331D01*
X57105273Y-70935327D01*
X57014672Y-70844726D01*
X57014668Y-70844723D01*
X56908133Y-70773538D01*
X56908124Y-70773533D01*
X56789744Y-70724499D01*
X56789738Y-70724497D01*
X56664071Y-70699500D01*
X56664069Y-70699500D01*
X56535931Y-70699500D01*
X56535929Y-70699500D01*
X56410261Y-70724497D01*
X56410255Y-70724499D01*
X56291875Y-70773533D01*
X56291866Y-70773538D01*
X56185331Y-70844723D01*
X56185327Y-70844726D01*
X56094726Y-70935327D01*
X56094723Y-70935331D01*
X56023538Y-71041866D01*
X56023533Y-71041875D01*
X55974499Y-71160255D01*
X55974497Y-71160261D01*
X55949500Y-71285928D01*
X55949500Y-71285931D01*
X55949500Y-71414069D01*
X55949500Y-71414071D01*
X55949499Y-71414071D01*
X38057450Y-71414071D01*
X38045709Y-71402330D01*
X38045705Y-71402327D01*
X38016692Y-71382941D01*
X37878569Y-71290649D01*
X37878556Y-71290642D01*
X37692848Y-71213720D01*
X37692836Y-71213717D01*
X37495690Y-71174502D01*
X37495686Y-71174502D01*
X37294664Y-71174502D01*
X37294659Y-71174502D01*
X37097513Y-71213717D01*
X37097501Y-71213720D01*
X36911793Y-71290642D01*
X36911780Y-71290649D01*
X36744644Y-71402327D01*
X36744640Y-71402330D01*
X36602503Y-71544467D01*
X36602500Y-71544471D01*
X36490822Y-71711607D01*
X36490815Y-71711620D01*
X36413893Y-71897328D01*
X36413890Y-71897340D01*
X36400000Y-71967169D01*
X36400000Y-69664833D01*
X36413890Y-69734663D01*
X36413893Y-69734675D01*
X36490815Y-69920383D01*
X36490822Y-69920396D01*
X36602500Y-70087532D01*
X36602503Y-70087536D01*
X36744640Y-70229673D01*
X36744644Y-70229676D01*
X36911780Y-70341354D01*
X36911793Y-70341361D01*
X37097501Y-70418283D01*
X37097506Y-70418285D01*
X37264847Y-70451571D01*
X37294659Y-70457501D01*
X37294663Y-70457502D01*
X37294664Y-70457502D01*
X37495687Y-70457502D01*
X37495688Y-70457501D01*
X37525491Y-70451573D01*
X60854674Y-70451573D01*
X60879672Y-70577240D01*
X60879674Y-70577246D01*
X60928708Y-70695626D01*
X60928713Y-70695635D01*
X60999898Y-70802170D01*
X60999901Y-70802174D01*
X61090502Y-70892775D01*
X61090506Y-70892778D01*
X61197041Y-70963963D01*
X61197047Y-70963966D01*
X61197048Y-70963967D01*
X61315431Y-71013003D01*
X61315435Y-71013003D01*
X61315436Y-71013004D01*
X61441103Y-71038002D01*
X61441106Y-71038002D01*
X61569246Y-71038002D01*
X61653790Y-71021184D01*
X61694919Y-71013003D01*
X61813302Y-70963967D01*
X61919844Y-70892778D01*
X62010451Y-70802171D01*
X62081640Y-70695629D01*
X62130676Y-70577246D01*
X62142395Y-70518333D01*
X62155675Y-70451573D01*
X62854674Y-70451573D01*
X62879672Y-70577240D01*
X62879674Y-70577246D01*
X62928708Y-70695626D01*
X62928713Y-70695635D01*
X62999898Y-70802170D01*
X62999901Y-70802174D01*
X63090502Y-70892775D01*
X63090506Y-70892778D01*
X63197041Y-70963963D01*
X63197047Y-70963966D01*
X63197048Y-70963967D01*
X63315431Y-71013003D01*
X63315435Y-71013003D01*
X63315436Y-71013004D01*
X63441103Y-71038002D01*
X63441106Y-71038002D01*
X63569246Y-71038002D01*
X63653790Y-71021184D01*
X63694919Y-71013003D01*
X63813302Y-70963967D01*
X63919844Y-70892778D01*
X64010451Y-70802171D01*
X64081640Y-70695629D01*
X64130676Y-70577246D01*
X64142395Y-70518333D01*
X64155675Y-70451573D01*
X64155675Y-70323430D01*
X64130677Y-70197763D01*
X64130676Y-70197762D01*
X64130676Y-70197758D01*
X64085334Y-70088294D01*
X64081641Y-70079377D01*
X64081636Y-70079368D01*
X64010451Y-69972833D01*
X64010448Y-69972829D01*
X63919847Y-69882228D01*
X63919843Y-69882225D01*
X63813308Y-69811040D01*
X63813299Y-69811035D01*
X63694919Y-69762001D01*
X63694913Y-69761999D01*
X63569246Y-69737002D01*
X63569244Y-69737002D01*
X63441106Y-69737002D01*
X63441104Y-69737002D01*
X63315436Y-69761999D01*
X63315430Y-69762001D01*
X63197050Y-69811035D01*
X63197041Y-69811040D01*
X63090506Y-69882225D01*
X63090502Y-69882228D01*
X62999901Y-69972829D01*
X62999898Y-69972833D01*
X62928713Y-70079368D01*
X62928708Y-70079377D01*
X62879674Y-70197757D01*
X62879672Y-70197763D01*
X62854675Y-70323430D01*
X62854675Y-70323433D01*
X62854675Y-70451571D01*
X62854675Y-70451573D01*
X62854674Y-70451573D01*
X62155675Y-70451573D01*
X62155675Y-70323430D01*
X62130677Y-70197763D01*
X62130676Y-70197762D01*
X62130676Y-70197758D01*
X62085334Y-70088294D01*
X62081641Y-70079377D01*
X62081636Y-70079368D01*
X62010451Y-69972833D01*
X62010448Y-69972829D01*
X61919847Y-69882228D01*
X61919843Y-69882225D01*
X61813308Y-69811040D01*
X61813299Y-69811035D01*
X61694919Y-69762001D01*
X61694913Y-69761999D01*
X61569246Y-69737002D01*
X61569244Y-69737002D01*
X61441106Y-69737002D01*
X61441104Y-69737002D01*
X61315436Y-69761999D01*
X61315430Y-69762001D01*
X61197050Y-69811035D01*
X61197041Y-69811040D01*
X61090506Y-69882225D01*
X61090502Y-69882228D01*
X60999901Y-69972829D01*
X60999898Y-69972833D01*
X60928713Y-70079368D01*
X60928708Y-70079377D01*
X60879674Y-70197757D01*
X60879672Y-70197763D01*
X60854675Y-70323430D01*
X60854675Y-70323433D01*
X60854675Y-70451571D01*
X60854675Y-70451573D01*
X60854674Y-70451573D01*
X37525491Y-70451573D01*
X37692844Y-70418285D01*
X37878563Y-70341358D01*
X38045706Y-70229676D01*
X38045709Y-70229673D01*
X38045723Y-70229660D01*
X38187846Y-70087536D01*
X38187849Y-70087533D01*
X38299531Y-69920390D01*
X38376458Y-69734671D01*
X38415675Y-69537513D01*
X38415675Y-69336491D01*
X38376458Y-69139333D01*
X38355915Y-69089738D01*
X38303863Y-68964071D01*
X47349499Y-68964071D01*
X47374497Y-69089738D01*
X47374499Y-69089744D01*
X47423533Y-69208124D01*
X47423538Y-69208133D01*
X47494723Y-69314668D01*
X47494726Y-69314672D01*
X47585327Y-69405273D01*
X47585331Y-69405276D01*
X47691866Y-69476461D01*
X47691872Y-69476464D01*
X47691873Y-69476465D01*
X47810256Y-69525501D01*
X47810260Y-69525501D01*
X47810261Y-69525502D01*
X47935928Y-69550500D01*
X47935931Y-69550500D01*
X48064071Y-69550500D01*
X48148615Y-69533682D01*
X48189744Y-69525501D01*
X48308127Y-69476465D01*
X48414669Y-69405276D01*
X48505276Y-69314669D01*
X48576465Y-69208127D01*
X48625501Y-69089744D01*
X48650500Y-68964071D01*
X49349499Y-68964071D01*
X49374497Y-69089738D01*
X49374499Y-69089744D01*
X49423533Y-69208124D01*
X49423538Y-69208133D01*
X49494723Y-69314668D01*
X49494726Y-69314672D01*
X49585327Y-69405273D01*
X49585331Y-69405276D01*
X49691866Y-69476461D01*
X49691872Y-69476464D01*
X49691873Y-69476465D01*
X49810256Y-69525501D01*
X49810260Y-69525501D01*
X49810261Y-69525502D01*
X49935928Y-69550500D01*
X49935931Y-69550500D01*
X50064071Y-69550500D01*
X50148615Y-69533682D01*
X50189744Y-69525501D01*
X50308127Y-69476465D01*
X50414669Y-69405276D01*
X50505276Y-69314669D01*
X50576465Y-69208127D01*
X50625501Y-69089744D01*
X50650500Y-68964071D01*
X51349499Y-68964071D01*
X51374497Y-69089738D01*
X51374499Y-69089744D01*
X51423533Y-69208124D01*
X51423538Y-69208133D01*
X51494723Y-69314668D01*
X51494726Y-69314672D01*
X51585327Y-69405273D01*
X51585331Y-69405276D01*
X51691866Y-69476461D01*
X51691872Y-69476464D01*
X51691873Y-69476465D01*
X51810256Y-69525501D01*
X51810260Y-69525501D01*
X51810261Y-69525502D01*
X51935928Y-69550500D01*
X51935931Y-69550500D01*
X52064071Y-69550500D01*
X52148615Y-69533682D01*
X52189744Y-69525501D01*
X52308127Y-69476465D01*
X52414669Y-69405276D01*
X52505276Y-69314669D01*
X52576465Y-69208127D01*
X52625501Y-69089744D01*
X52650500Y-68964069D01*
X52650500Y-68835931D01*
X52650500Y-68835928D01*
X52625502Y-68710261D01*
X52625501Y-68710260D01*
X52625501Y-68710256D01*
X52576465Y-68591873D01*
X52576464Y-68591872D01*
X52576461Y-68591866D01*
X52505276Y-68485331D01*
X52505273Y-68485327D01*
X52414672Y-68394726D01*
X52414668Y-68394723D01*
X52308133Y-68323538D01*
X52308124Y-68323533D01*
X52189744Y-68274499D01*
X52189738Y-68274497D01*
X52064071Y-68249500D01*
X52064069Y-68249500D01*
X51935931Y-68249500D01*
X51935929Y-68249500D01*
X51810261Y-68274497D01*
X51810255Y-68274499D01*
X51691875Y-68323533D01*
X51691866Y-68323538D01*
X51585331Y-68394723D01*
X51585327Y-68394726D01*
X51494726Y-68485327D01*
X51494723Y-68485331D01*
X51423538Y-68591866D01*
X51423533Y-68591875D01*
X51374499Y-68710255D01*
X51374497Y-68710261D01*
X51349500Y-68835928D01*
X51349500Y-68835931D01*
X51349500Y-68964069D01*
X51349500Y-68964071D01*
X51349499Y-68964071D01*
X50650500Y-68964071D01*
X50650500Y-68964069D01*
X50650500Y-68835931D01*
X50650500Y-68835928D01*
X50625502Y-68710261D01*
X50625501Y-68710260D01*
X50625501Y-68710256D01*
X50576465Y-68591873D01*
X50576464Y-68591872D01*
X50576461Y-68591866D01*
X50505276Y-68485331D01*
X50505273Y-68485327D01*
X50414672Y-68394726D01*
X50414668Y-68394723D01*
X50308133Y-68323538D01*
X50308124Y-68323533D01*
X50189744Y-68274499D01*
X50189738Y-68274497D01*
X50064071Y-68249500D01*
X50064069Y-68249500D01*
X49935931Y-68249500D01*
X49935929Y-68249500D01*
X49810261Y-68274497D01*
X49810255Y-68274499D01*
X49691875Y-68323533D01*
X49691866Y-68323538D01*
X49585331Y-68394723D01*
X49585327Y-68394726D01*
X49494726Y-68485327D01*
X49494723Y-68485331D01*
X49423538Y-68591866D01*
X49423533Y-68591875D01*
X49374499Y-68710255D01*
X49374497Y-68710261D01*
X49349500Y-68835928D01*
X49349500Y-68835931D01*
X49349500Y-68964069D01*
X49349500Y-68964071D01*
X49349499Y-68964071D01*
X48650500Y-68964071D01*
X48650500Y-68964069D01*
X48650500Y-68835931D01*
X48650500Y-68835928D01*
X48625502Y-68710261D01*
X48625501Y-68710260D01*
X48625501Y-68710256D01*
X48576465Y-68591873D01*
X48576464Y-68591872D01*
X48576461Y-68591866D01*
X48505276Y-68485331D01*
X48505273Y-68485327D01*
X48414672Y-68394726D01*
X48414668Y-68394723D01*
X48308133Y-68323538D01*
X48308124Y-68323533D01*
X48189744Y-68274499D01*
X48189738Y-68274497D01*
X48064071Y-68249500D01*
X48064069Y-68249500D01*
X47935931Y-68249500D01*
X47935929Y-68249500D01*
X47810261Y-68274497D01*
X47810255Y-68274499D01*
X47691875Y-68323533D01*
X47691866Y-68323538D01*
X47585331Y-68394723D01*
X47585327Y-68394726D01*
X47494726Y-68485327D01*
X47494723Y-68485331D01*
X47423538Y-68591866D01*
X47423533Y-68591875D01*
X47374499Y-68710255D01*
X47374497Y-68710261D01*
X47349500Y-68835928D01*
X47349500Y-68835931D01*
X47349500Y-68964069D01*
X47349500Y-68964071D01*
X47349499Y-68964071D01*
X38303863Y-68964071D01*
X38299534Y-68953620D01*
X38299527Y-68953607D01*
X38262859Y-68898730D01*
X38187849Y-68786471D01*
X38187846Y-68786467D01*
X38045709Y-68644330D01*
X38045705Y-68644327D01*
X37878569Y-68532649D01*
X37878556Y-68532642D01*
X37692848Y-68455720D01*
X37692836Y-68455717D01*
X37495690Y-68416502D01*
X37495686Y-68416502D01*
X37294664Y-68416502D01*
X37294659Y-68416502D01*
X37097513Y-68455717D01*
X37097501Y-68455720D01*
X36911793Y-68532642D01*
X36911780Y-68532649D01*
X36744644Y-68644327D01*
X36744640Y-68644330D01*
X36602503Y-68786467D01*
X36602500Y-68786471D01*
X36490822Y-68953607D01*
X36490815Y-68953620D01*
X36413893Y-69139328D01*
X36413890Y-69139340D01*
X36400000Y-69209169D01*
X36400000Y-66906833D01*
X36413890Y-66976663D01*
X36413893Y-66976675D01*
X36490815Y-67162383D01*
X36490822Y-67162396D01*
X36602500Y-67329532D01*
X36602503Y-67329536D01*
X36744640Y-67471673D01*
X36744644Y-67471676D01*
X36911780Y-67583354D01*
X36911793Y-67583361D01*
X37097501Y-67660283D01*
X37097506Y-67660285D01*
X37294659Y-67699501D01*
X37294663Y-67699502D01*
X37294664Y-67699502D01*
X37495687Y-67699502D01*
X37495688Y-67699501D01*
X37692844Y-67660285D01*
X37853559Y-67593715D01*
X37878556Y-67583361D01*
X37878556Y-67583360D01*
X37878563Y-67583358D01*
X38045706Y-67471676D01*
X38187849Y-67329533D01*
X38299531Y-67162390D01*
X38376458Y-66976671D01*
X38411638Y-66799809D01*
X38444022Y-66737898D01*
X38504738Y-66703324D01*
X38533255Y-66700000D01*
X47608865Y-66700000D01*
X47675904Y-66719685D01*
G37*
%TD.AperFunction*%
%TD*%
%TA.AperFunction,Conductor*%
%TO.N,+5V*%
G36*
X182243039Y-23819685D02*
G01*
X182288794Y-23872489D01*
X182300000Y-23924000D01*
X182300000Y-92876000D01*
X182280315Y-92943039D01*
X182227511Y-92988794D01*
X182176000Y-93000000D01*
X174141885Y-93000000D01*
X174074846Y-92980315D01*
X174029091Y-92927511D01*
X174019147Y-92858353D01*
X174044939Y-92798686D01*
X174050838Y-92791289D01*
X174194284Y-92562997D01*
X174311267Y-92320079D01*
X174400316Y-92065591D01*
X174460312Y-91802732D01*
X174490500Y-91534809D01*
X174490500Y-91265191D01*
X174460312Y-90997268D01*
X174400316Y-90734409D01*
X174311267Y-90479921D01*
X174194284Y-90237003D01*
X174050838Y-90008711D01*
X173882734Y-89797915D01*
X173882228Y-89797280D01*
X173855819Y-89732593D01*
X173855175Y-89719967D01*
X173855175Y-84336502D01*
X173874860Y-84269463D01*
X173927664Y-84223708D01*
X173979175Y-84212502D01*
X174194808Y-84212502D01*
X174194815Y-84212502D01*
X174471707Y-84176048D01*
X174741471Y-84103765D01*
X174999493Y-83996889D01*
X175241357Y-83857249D01*
X175462925Y-83687233D01*
X175462929Y-83687228D01*
X175462934Y-83687225D01*
X175660398Y-83489761D01*
X175660401Y-83489756D01*
X175660406Y-83489752D01*
X175830422Y-83268184D01*
X175970062Y-83026320D01*
X176076938Y-82768298D01*
X176149221Y-82498534D01*
X176185675Y-82221642D01*
X176185675Y-81942362D01*
X176149221Y-81665470D01*
X176076938Y-81395706D01*
X175970062Y-81137684D01*
X175830422Y-80895820D01*
X175830419Y-80895817D01*
X175830418Y-80895814D01*
X175660405Y-80674251D01*
X175660398Y-80674243D01*
X175462934Y-80476779D01*
X175462925Y-80476771D01*
X175241362Y-80306758D01*
X174999495Y-80167116D01*
X174999486Y-80167112D01*
X174741473Y-80060239D01*
X174606589Y-80024097D01*
X174471707Y-79987956D01*
X174410175Y-79979855D01*
X174194822Y-79951502D01*
X174194815Y-79951502D01*
X173979175Y-79951502D01*
X173912136Y-79931817D01*
X173866381Y-79879013D01*
X173855175Y-79827502D01*
X173855175Y-76764071D01*
X176349499Y-76764071D01*
X176374497Y-76889738D01*
X176374499Y-76889744D01*
X176423533Y-77008124D01*
X176423538Y-77008133D01*
X176494723Y-77114668D01*
X176494726Y-77114672D01*
X176585327Y-77205273D01*
X176585331Y-77205276D01*
X176691866Y-77276461D01*
X176691872Y-77276464D01*
X176691873Y-77276465D01*
X176810256Y-77325501D01*
X176810260Y-77325501D01*
X176810261Y-77325502D01*
X176935928Y-77350500D01*
X176935931Y-77350500D01*
X177064071Y-77350500D01*
X177148615Y-77333682D01*
X177189744Y-77325501D01*
X177308127Y-77276465D01*
X177414669Y-77205276D01*
X177505276Y-77114669D01*
X177576465Y-77008127D01*
X177625501Y-76889744D01*
X177650500Y-76764069D01*
X177650500Y-76635931D01*
X177650500Y-76635928D01*
X177625502Y-76510261D01*
X177625501Y-76510260D01*
X177625501Y-76510256D01*
X177576465Y-76391873D01*
X177576464Y-76391872D01*
X177576461Y-76391866D01*
X177505276Y-76285331D01*
X177505273Y-76285327D01*
X177414672Y-76194726D01*
X177414668Y-76194723D01*
X177308133Y-76123538D01*
X177308124Y-76123533D01*
X177189744Y-76074499D01*
X177189738Y-76074497D01*
X177064071Y-76049500D01*
X177064069Y-76049500D01*
X176935931Y-76049500D01*
X176935929Y-76049500D01*
X176810261Y-76074497D01*
X176810255Y-76074499D01*
X176691875Y-76123533D01*
X176691866Y-76123538D01*
X176585331Y-76194723D01*
X176585327Y-76194726D01*
X176494726Y-76285327D01*
X176494723Y-76285331D01*
X176423538Y-76391866D01*
X176423533Y-76391875D01*
X176374499Y-76510255D01*
X176374497Y-76510261D01*
X176349500Y-76635928D01*
X176349500Y-76635931D01*
X176349500Y-76764069D01*
X176349500Y-76764071D01*
X176349499Y-76764071D01*
X173855175Y-76764071D01*
X173855175Y-73630486D01*
X174454675Y-73630486D01*
X174454675Y-73831517D01*
X174493890Y-74028663D01*
X174493893Y-74028675D01*
X174570815Y-74214383D01*
X174570822Y-74214396D01*
X174682500Y-74381532D01*
X174682503Y-74381536D01*
X174824640Y-74523673D01*
X174824644Y-74523676D01*
X174991780Y-74635354D01*
X174991793Y-74635361D01*
X175177501Y-74712283D01*
X175177506Y-74712285D01*
X175374659Y-74751501D01*
X175374663Y-74751502D01*
X175374664Y-74751502D01*
X175575687Y-74751502D01*
X175575688Y-74751501D01*
X175772844Y-74712285D01*
X175958563Y-74635358D01*
X176125706Y-74523676D01*
X176267849Y-74381533D01*
X176379531Y-74214390D01*
X176456458Y-74028671D01*
X176495675Y-73831513D01*
X176495675Y-73630491D01*
X176456458Y-73433333D01*
X176383153Y-73256358D01*
X176379534Y-73247620D01*
X176379527Y-73247607D01*
X176267849Y-73080471D01*
X176267846Y-73080467D01*
X176125709Y-72938330D01*
X176125705Y-72938327D01*
X175958569Y-72826649D01*
X175958556Y-72826642D01*
X175772848Y-72749720D01*
X175772836Y-72749717D01*
X175575690Y-72710502D01*
X175575686Y-72710502D01*
X175374664Y-72710502D01*
X175374659Y-72710502D01*
X175177513Y-72749717D01*
X175177501Y-72749720D01*
X174991793Y-72826642D01*
X174991780Y-72826649D01*
X174824644Y-72938327D01*
X174824640Y-72938330D01*
X174682503Y-73080467D01*
X174682500Y-73080471D01*
X174570822Y-73247607D01*
X174570815Y-73247620D01*
X174493893Y-73433328D01*
X174493890Y-73433340D01*
X174454675Y-73630486D01*
X173855175Y-73630486D01*
X173855175Y-70872264D01*
X174195175Y-70872264D01*
X174195175Y-71073739D01*
X174226693Y-71272737D01*
X174288950Y-71464348D01*
X174288951Y-71464351D01*
X174380423Y-71643871D01*
X174410017Y-71684604D01*
X174410018Y-71684605D01*
X174975882Y-71118741D01*
X174990612Y-71173714D01*
X175059071Y-71292289D01*
X175155888Y-71389106D01*
X175274463Y-71457565D01*
X175329434Y-71472294D01*
X174763570Y-72038157D01*
X174804308Y-72067755D01*
X174983825Y-72159225D01*
X174983828Y-72159226D01*
X175175439Y-72221483D01*
X175374438Y-72253002D01*
X175575912Y-72253002D01*
X175774910Y-72221483D01*
X175966521Y-72159226D01*
X175966524Y-72159225D01*
X176146041Y-72067755D01*
X176186777Y-72038158D01*
X176186777Y-72038157D01*
X175620914Y-71472294D01*
X175675887Y-71457565D01*
X175794462Y-71389106D01*
X175891279Y-71292289D01*
X175959738Y-71173714D01*
X175974467Y-71118741D01*
X176540330Y-71684604D01*
X176540331Y-71684604D01*
X176569928Y-71643868D01*
X176661398Y-71464351D01*
X176661399Y-71464348D01*
X176723656Y-71272737D01*
X176755175Y-71073739D01*
X176755175Y-70872264D01*
X176723656Y-70673266D01*
X176661399Y-70481655D01*
X176661398Y-70481652D01*
X176569928Y-70302135D01*
X176540330Y-70261398D01*
X176540330Y-70261397D01*
X175974467Y-70827261D01*
X175959738Y-70772290D01*
X175891279Y-70653715D01*
X175794462Y-70556898D01*
X175675887Y-70488439D01*
X175620913Y-70473709D01*
X176186778Y-69907845D01*
X176186777Y-69907844D01*
X176146044Y-69878250D01*
X175966524Y-69786778D01*
X175966521Y-69786777D01*
X175774910Y-69724520D01*
X175575912Y-69693002D01*
X175374438Y-69693002D01*
X175175439Y-69724520D01*
X174983828Y-69786777D01*
X174983825Y-69786778D01*
X174804310Y-69878247D01*
X174804308Y-69878248D01*
X174763571Y-69907844D01*
X174763571Y-69907845D01*
X175329435Y-70473709D01*
X175274463Y-70488439D01*
X175155888Y-70556898D01*
X175059071Y-70653715D01*
X174990612Y-70772290D01*
X174975882Y-70827262D01*
X174410018Y-70261398D01*
X174410017Y-70261398D01*
X174380421Y-70302135D01*
X174380420Y-70302137D01*
X174288951Y-70481652D01*
X174288950Y-70481655D01*
X174226693Y-70673266D01*
X174195175Y-70872264D01*
X173855175Y-70872264D01*
X173855175Y-69489073D01*
X176354674Y-69489073D01*
X176379672Y-69614740D01*
X176379674Y-69614746D01*
X176428708Y-69733126D01*
X176428713Y-69733135D01*
X176499898Y-69839670D01*
X176499901Y-69839674D01*
X176590502Y-69930275D01*
X176590506Y-69930278D01*
X176697041Y-70001463D01*
X176697047Y-70001466D01*
X176697048Y-70001467D01*
X176815431Y-70050503D01*
X176815435Y-70050503D01*
X176815436Y-70050504D01*
X176941103Y-70075502D01*
X176941106Y-70075502D01*
X177069246Y-70075502D01*
X177153790Y-70058684D01*
X177194919Y-70050503D01*
X177313302Y-70001467D01*
X177419844Y-69930278D01*
X177510451Y-69839671D01*
X177581640Y-69733129D01*
X177630676Y-69614746D01*
X177655675Y-69489071D01*
X177655675Y-69360933D01*
X177655675Y-69360930D01*
X177630677Y-69235263D01*
X177630676Y-69235262D01*
X177630676Y-69235258D01*
X177582670Y-69119361D01*
X177581641Y-69116877D01*
X177581636Y-69116868D01*
X177510451Y-69010333D01*
X177510448Y-69010329D01*
X177419847Y-68919728D01*
X177419843Y-68919725D01*
X177313308Y-68848540D01*
X177313299Y-68848535D01*
X177194919Y-68799501D01*
X177194913Y-68799499D01*
X177069246Y-68774502D01*
X177069244Y-68774502D01*
X176941106Y-68774502D01*
X176941104Y-68774502D01*
X176815436Y-68799499D01*
X176815430Y-68799501D01*
X176697050Y-68848535D01*
X176697041Y-68848540D01*
X176590506Y-68919725D01*
X176590502Y-68919728D01*
X176499901Y-69010329D01*
X176499898Y-69010333D01*
X176428713Y-69116868D01*
X176428708Y-69116877D01*
X176379674Y-69235257D01*
X176379672Y-69235263D01*
X176354675Y-69360930D01*
X176354675Y-69360933D01*
X176354675Y-69489071D01*
X176354675Y-69489073D01*
X176354674Y-69489073D01*
X173855175Y-69489073D01*
X173855175Y-68114486D01*
X174454675Y-68114486D01*
X174454675Y-68315517D01*
X174493890Y-68512663D01*
X174493893Y-68512675D01*
X174570815Y-68698383D01*
X174570822Y-68698396D01*
X174682500Y-68865532D01*
X174682503Y-68865536D01*
X174824640Y-69007673D01*
X174824644Y-69007676D01*
X174991780Y-69119354D01*
X174991793Y-69119361D01*
X175177501Y-69196283D01*
X175177506Y-69196285D01*
X175363212Y-69233224D01*
X175374659Y-69235501D01*
X175374663Y-69235502D01*
X175374664Y-69235502D01*
X175575687Y-69235502D01*
X175575688Y-69235501D01*
X175578869Y-69234868D01*
X175587141Y-69233224D01*
X175675053Y-69215736D01*
X175772844Y-69196285D01*
X175958563Y-69119358D01*
X176125706Y-69007676D01*
X176267849Y-68865533D01*
X176379531Y-68698390D01*
X176456458Y-68512671D01*
X176495675Y-68315513D01*
X176495675Y-68114491D01*
X176456458Y-67917333D01*
X176383153Y-67740358D01*
X176379534Y-67731620D01*
X176379527Y-67731607D01*
X176267849Y-67564471D01*
X176267846Y-67564467D01*
X176125709Y-67422330D01*
X176125705Y-67422327D01*
X175958569Y-67310649D01*
X175958556Y-67310642D01*
X175772848Y-67233720D01*
X175772836Y-67233717D01*
X175575690Y-67194502D01*
X175575686Y-67194502D01*
X175374664Y-67194502D01*
X175374659Y-67194502D01*
X175177513Y-67233717D01*
X175177501Y-67233720D01*
X174991793Y-67310642D01*
X174991780Y-67310649D01*
X174824644Y-67422327D01*
X174824640Y-67422330D01*
X174682503Y-67564467D01*
X174682500Y-67564471D01*
X174570822Y-67731607D01*
X174570815Y-67731620D01*
X174493893Y-67917328D01*
X174493890Y-67917340D01*
X174454675Y-68114486D01*
X173855175Y-68114486D01*
X173855175Y-65356264D01*
X174195175Y-65356264D01*
X174195175Y-65557739D01*
X174226693Y-65756737D01*
X174288950Y-65948348D01*
X174288951Y-65948351D01*
X174380423Y-66127871D01*
X174410017Y-66168604D01*
X174410018Y-66168605D01*
X174975882Y-65602741D01*
X174990612Y-65657714D01*
X175059071Y-65776289D01*
X175155888Y-65873106D01*
X175274463Y-65941565D01*
X175329434Y-65956294D01*
X174763570Y-66522157D01*
X174804308Y-66551755D01*
X174983825Y-66643225D01*
X174983828Y-66643226D01*
X175175439Y-66705483D01*
X175374438Y-66737002D01*
X175575912Y-66737002D01*
X175774910Y-66705483D01*
X175966521Y-66643226D01*
X175966524Y-66643225D01*
X176146041Y-66551755D01*
X176186777Y-66522158D01*
X176186777Y-66522157D01*
X175620914Y-65956294D01*
X175675887Y-65941565D01*
X175794462Y-65873106D01*
X175891279Y-65776289D01*
X175959738Y-65657714D01*
X175974467Y-65602741D01*
X176540330Y-66168604D01*
X176540331Y-66168604D01*
X176569928Y-66127868D01*
X176661398Y-65948351D01*
X176661399Y-65948348D01*
X176723656Y-65756737D01*
X176755175Y-65557739D01*
X176755175Y-65356264D01*
X176723656Y-65157266D01*
X176661399Y-64965655D01*
X176661398Y-64965652D01*
X176569928Y-64786135D01*
X176540330Y-64745398D01*
X176540330Y-64745397D01*
X175974467Y-65311261D01*
X175959738Y-65256290D01*
X175891279Y-65137715D01*
X175794462Y-65040898D01*
X175675887Y-64972439D01*
X175620913Y-64957709D01*
X176186778Y-64391845D01*
X176186777Y-64391844D01*
X176146044Y-64362250D01*
X175966524Y-64270778D01*
X175966521Y-64270777D01*
X175774910Y-64208520D01*
X175575912Y-64177002D01*
X175374438Y-64177002D01*
X175175439Y-64208520D01*
X174983828Y-64270777D01*
X174983825Y-64270778D01*
X174804310Y-64362247D01*
X174804308Y-64362248D01*
X174763571Y-64391844D01*
X174763571Y-64391845D01*
X175329435Y-64957709D01*
X175274463Y-64972439D01*
X175155888Y-65040898D01*
X175059071Y-65137715D01*
X174990612Y-65256290D01*
X174975882Y-65311262D01*
X174410018Y-64745398D01*
X174410017Y-64745398D01*
X174380421Y-64786135D01*
X174380420Y-64786137D01*
X174288951Y-64965652D01*
X174288950Y-64965655D01*
X174226693Y-65157266D01*
X174195175Y-65356264D01*
X173855175Y-65356264D01*
X173855175Y-62598486D01*
X174454675Y-62598486D01*
X174454675Y-62799517D01*
X174493890Y-62996663D01*
X174493893Y-62996675D01*
X174570815Y-63182383D01*
X174570822Y-63182396D01*
X174682500Y-63349532D01*
X174682503Y-63349536D01*
X174824640Y-63491673D01*
X174824644Y-63491676D01*
X174991780Y-63603354D01*
X174991793Y-63603361D01*
X175177501Y-63680283D01*
X175177506Y-63680285D01*
X175374659Y-63719501D01*
X175374663Y-63719502D01*
X175374664Y-63719502D01*
X175575687Y-63719502D01*
X175575688Y-63719501D01*
X175772844Y-63680285D01*
X175958563Y-63603358D01*
X176125706Y-63491676D01*
X176267849Y-63349533D01*
X176379531Y-63182390D01*
X176456458Y-62996671D01*
X176495675Y-62799513D01*
X176495675Y-62598491D01*
X176456458Y-62401333D01*
X176413123Y-62296713D01*
X176379534Y-62215620D01*
X176379527Y-62215607D01*
X176267849Y-62048471D01*
X176267846Y-62048467D01*
X176125709Y-61906330D01*
X176125705Y-61906327D01*
X175958569Y-61794649D01*
X175958556Y-61794642D01*
X175772848Y-61717720D01*
X175772836Y-61717717D01*
X175575690Y-61678502D01*
X175575686Y-61678502D01*
X175374664Y-61678502D01*
X175374659Y-61678502D01*
X175177513Y-61717717D01*
X175177501Y-61717720D01*
X174991793Y-61794642D01*
X174991780Y-61794649D01*
X174824644Y-61906327D01*
X174824640Y-61906330D01*
X174682503Y-62048467D01*
X174682500Y-62048471D01*
X174570822Y-62215607D01*
X174570815Y-62215620D01*
X174493893Y-62401328D01*
X174493890Y-62401340D01*
X174454675Y-62598486D01*
X173855175Y-62598486D01*
X173855175Y-61728652D01*
X173861244Y-61690334D01*
X173884145Y-61619853D01*
X173898158Y-61531376D01*
X173915675Y-61420785D01*
X173915675Y-61219218D01*
X173884145Y-61020152D01*
X173876693Y-60997217D01*
X173876693Y-60997215D01*
X173861244Y-60949667D01*
X173855175Y-60911350D01*
X173855175Y-59840264D01*
X174195175Y-59840264D01*
X174195175Y-60041739D01*
X174226693Y-60240737D01*
X174288950Y-60432348D01*
X174288951Y-60432351D01*
X174380423Y-60611871D01*
X174410017Y-60652604D01*
X174410018Y-60652605D01*
X174975882Y-60086741D01*
X174990612Y-60141714D01*
X175059071Y-60260289D01*
X175155888Y-60357106D01*
X175274463Y-60425565D01*
X175329434Y-60440294D01*
X174763570Y-61006157D01*
X174804308Y-61035755D01*
X174983825Y-61127225D01*
X174983828Y-61127226D01*
X175175439Y-61189483D01*
X175374438Y-61221002D01*
X175575912Y-61221002D01*
X175774910Y-61189483D01*
X175966521Y-61127226D01*
X175966524Y-61127225D01*
X176146041Y-61035755D01*
X176186777Y-61006158D01*
X176186777Y-61006157D01*
X175620914Y-60440294D01*
X175675887Y-60425565D01*
X175794462Y-60357106D01*
X175891279Y-60260289D01*
X175959738Y-60141714D01*
X175974467Y-60086741D01*
X176540330Y-60652604D01*
X176540331Y-60652604D01*
X176569928Y-60611868D01*
X176661398Y-60432351D01*
X176661399Y-60432348D01*
X176723656Y-60240737D01*
X176755175Y-60041739D01*
X176755175Y-59840264D01*
X176723656Y-59641266D01*
X176661399Y-59449655D01*
X176661398Y-59449652D01*
X176569928Y-59270135D01*
X176540330Y-59229398D01*
X176540330Y-59229397D01*
X175974467Y-59795261D01*
X175959738Y-59740290D01*
X175891279Y-59621715D01*
X175794462Y-59524898D01*
X175675887Y-59456439D01*
X175620913Y-59441709D01*
X176186778Y-58875845D01*
X176186777Y-58875844D01*
X176146044Y-58846250D01*
X175966524Y-58754778D01*
X175966521Y-58754777D01*
X175774910Y-58692520D01*
X175575912Y-58661002D01*
X175374438Y-58661002D01*
X175175439Y-58692520D01*
X174983828Y-58754777D01*
X174983825Y-58754778D01*
X174804310Y-58846247D01*
X174804308Y-58846248D01*
X174763571Y-58875844D01*
X174763571Y-58875845D01*
X175329435Y-59441709D01*
X175274463Y-59456439D01*
X175155888Y-59524898D01*
X175059071Y-59621715D01*
X174990612Y-59740290D01*
X174975882Y-59795262D01*
X174410018Y-59229398D01*
X174410017Y-59229398D01*
X174380421Y-59270135D01*
X174380420Y-59270137D01*
X174288951Y-59449652D01*
X174288950Y-59449655D01*
X174226693Y-59641266D01*
X174195175Y-59840264D01*
X173855175Y-59840264D01*
X173855175Y-57082486D01*
X174454675Y-57082486D01*
X174454675Y-57283517D01*
X174493890Y-57480663D01*
X174493893Y-57480675D01*
X174570815Y-57666383D01*
X174570822Y-57666396D01*
X174682500Y-57833532D01*
X174682503Y-57833536D01*
X174824640Y-57975673D01*
X174824644Y-57975676D01*
X174991780Y-58087354D01*
X174991793Y-58087361D01*
X175177501Y-58164283D01*
X175177506Y-58164285D01*
X175374659Y-58203501D01*
X175374663Y-58203502D01*
X175374664Y-58203502D01*
X175575687Y-58203502D01*
X175575688Y-58203501D01*
X175772844Y-58164285D01*
X175958563Y-58087358D01*
X176125706Y-57975676D01*
X176267849Y-57833533D01*
X176379531Y-57666390D01*
X176456458Y-57480671D01*
X176495675Y-57283513D01*
X176495675Y-57082491D01*
X176456458Y-56885333D01*
X176383153Y-56708358D01*
X176379534Y-56699620D01*
X176379527Y-56699607D01*
X176267849Y-56532471D01*
X176267846Y-56532467D01*
X176125709Y-56390330D01*
X176125705Y-56390327D01*
X175958569Y-56278649D01*
X175958556Y-56278642D01*
X175772848Y-56201720D01*
X175772836Y-56201717D01*
X175575690Y-56162502D01*
X175575686Y-56162502D01*
X175374664Y-56162502D01*
X175374659Y-56162502D01*
X175177513Y-56201717D01*
X175177501Y-56201720D01*
X174991793Y-56278642D01*
X174991780Y-56278649D01*
X174824644Y-56390327D01*
X174824640Y-56390330D01*
X174682503Y-56532467D01*
X174682500Y-56532471D01*
X174570822Y-56699607D01*
X174570815Y-56699620D01*
X174493893Y-56885328D01*
X174493890Y-56885340D01*
X174454675Y-57082486D01*
X173855175Y-57082486D01*
X173855175Y-54324264D01*
X174195175Y-54324264D01*
X174195175Y-54525739D01*
X174226693Y-54724737D01*
X174288950Y-54916348D01*
X174288951Y-54916351D01*
X174380423Y-55095871D01*
X174410017Y-55136604D01*
X174410018Y-55136605D01*
X174975882Y-54570741D01*
X174990612Y-54625714D01*
X175059071Y-54744289D01*
X175155888Y-54841106D01*
X175274463Y-54909565D01*
X175329434Y-54924294D01*
X174763570Y-55490157D01*
X174804308Y-55519755D01*
X174983825Y-55611225D01*
X174983828Y-55611226D01*
X175175439Y-55673483D01*
X175374438Y-55705002D01*
X175575912Y-55705002D01*
X175774910Y-55673483D01*
X175966521Y-55611226D01*
X175966524Y-55611225D01*
X176146041Y-55519755D01*
X176186777Y-55490158D01*
X176186777Y-55490157D01*
X175620914Y-54924294D01*
X175675887Y-54909565D01*
X175794462Y-54841106D01*
X175891279Y-54744289D01*
X175959738Y-54625714D01*
X175974467Y-54570741D01*
X176540330Y-55136604D01*
X176540331Y-55136604D01*
X176569928Y-55095868D01*
X176661398Y-54916351D01*
X176661399Y-54916348D01*
X176723656Y-54724737D01*
X176755175Y-54525739D01*
X176755175Y-54324264D01*
X176723656Y-54125266D01*
X176661399Y-53933655D01*
X176661398Y-53933652D01*
X176569928Y-53754135D01*
X176540330Y-53713398D01*
X176540330Y-53713397D01*
X175974467Y-54279261D01*
X175959738Y-54224290D01*
X175891279Y-54105715D01*
X175794462Y-54008898D01*
X175675887Y-53940439D01*
X175620913Y-53925709D01*
X176186778Y-53359845D01*
X176186777Y-53359844D01*
X176146044Y-53330250D01*
X175966524Y-53238778D01*
X175966521Y-53238777D01*
X175774910Y-53176520D01*
X175575912Y-53145002D01*
X175374438Y-53145002D01*
X175175439Y-53176520D01*
X174983828Y-53238777D01*
X174983825Y-53238778D01*
X174804310Y-53330247D01*
X174804308Y-53330248D01*
X174763571Y-53359844D01*
X174763571Y-53359845D01*
X175329435Y-53925709D01*
X175274463Y-53940439D01*
X175155888Y-54008898D01*
X175059071Y-54105715D01*
X174990612Y-54224290D01*
X174975882Y-54279262D01*
X174410018Y-53713398D01*
X174410017Y-53713398D01*
X174380421Y-53754135D01*
X174380420Y-53754137D01*
X174288951Y-53933652D01*
X174288950Y-53933655D01*
X174226693Y-54125266D01*
X174195175Y-54324264D01*
X173855175Y-54324264D01*
X173855175Y-51566486D01*
X174454675Y-51566486D01*
X174454675Y-51767517D01*
X174493890Y-51964663D01*
X174493893Y-51964675D01*
X174570815Y-52150383D01*
X174570822Y-52150396D01*
X174682500Y-52317532D01*
X174682503Y-52317536D01*
X174824640Y-52459673D01*
X174824644Y-52459676D01*
X174991780Y-52571354D01*
X174991793Y-52571361D01*
X175177501Y-52648283D01*
X175177506Y-52648285D01*
X175374659Y-52687501D01*
X175374663Y-52687502D01*
X175374664Y-52687502D01*
X175575687Y-52687502D01*
X175575688Y-52687501D01*
X175772844Y-52648285D01*
X175958563Y-52571358D01*
X176125706Y-52459676D01*
X176267849Y-52317533D01*
X176379531Y-52150390D01*
X176456458Y-51964671D01*
X176495675Y-51767513D01*
X176495675Y-51566491D01*
X176456458Y-51369333D01*
X176383153Y-51192358D01*
X176379534Y-51183620D01*
X176379527Y-51183607D01*
X176267849Y-51016471D01*
X176267846Y-51016467D01*
X176125709Y-50874330D01*
X176125705Y-50874327D01*
X175958569Y-50762649D01*
X175958556Y-50762642D01*
X175772848Y-50685720D01*
X175772836Y-50685717D01*
X175575690Y-50646502D01*
X175575686Y-50646502D01*
X175374664Y-50646502D01*
X175374659Y-50646502D01*
X175177513Y-50685717D01*
X175177501Y-50685720D01*
X174991793Y-50762642D01*
X174991780Y-50762649D01*
X174824644Y-50874327D01*
X174824640Y-50874330D01*
X174682503Y-51016467D01*
X174682500Y-51016471D01*
X174570822Y-51183607D01*
X174570815Y-51183620D01*
X174493893Y-51369328D01*
X174493890Y-51369340D01*
X174454675Y-51566486D01*
X173855175Y-51566486D01*
X173855175Y-48808264D01*
X174195175Y-48808264D01*
X174195175Y-49009739D01*
X174226693Y-49208737D01*
X174288950Y-49400348D01*
X174288951Y-49400351D01*
X174380423Y-49579871D01*
X174410017Y-49620604D01*
X174410018Y-49620605D01*
X174975882Y-49054741D01*
X174990612Y-49109714D01*
X175059071Y-49228289D01*
X175155888Y-49325106D01*
X175274463Y-49393565D01*
X175329434Y-49408294D01*
X174763570Y-49974157D01*
X174804308Y-50003755D01*
X174983825Y-50095225D01*
X174983828Y-50095226D01*
X175175439Y-50157483D01*
X175374438Y-50189002D01*
X175575912Y-50189002D01*
X175774910Y-50157483D01*
X175966521Y-50095226D01*
X175966524Y-50095225D01*
X176146041Y-50003755D01*
X176186777Y-49974158D01*
X176186777Y-49974157D01*
X175620914Y-49408294D01*
X175675887Y-49393565D01*
X175794462Y-49325106D01*
X175891279Y-49228289D01*
X175959738Y-49109714D01*
X175974467Y-49054741D01*
X176540330Y-49620604D01*
X176540331Y-49620604D01*
X176569928Y-49579868D01*
X176661398Y-49400351D01*
X176661399Y-49400348D01*
X176723656Y-49208737D01*
X176755175Y-49009739D01*
X176755175Y-48808264D01*
X176723656Y-48609266D01*
X176661399Y-48417655D01*
X176661398Y-48417652D01*
X176569928Y-48238135D01*
X176540330Y-48197398D01*
X176540330Y-48197397D01*
X175974467Y-48763261D01*
X175959738Y-48708290D01*
X175891279Y-48589715D01*
X175794462Y-48492898D01*
X175675887Y-48424439D01*
X175620913Y-48409709D01*
X176186778Y-47843845D01*
X176186777Y-47843844D01*
X176146044Y-47814250D01*
X175966524Y-47722778D01*
X175966521Y-47722777D01*
X175774910Y-47660520D01*
X175575912Y-47629002D01*
X175374438Y-47629002D01*
X175175439Y-47660520D01*
X174983828Y-47722777D01*
X174983825Y-47722778D01*
X174804310Y-47814247D01*
X174804308Y-47814248D01*
X174763571Y-47843844D01*
X174763571Y-47843845D01*
X175329435Y-48409709D01*
X175274463Y-48424439D01*
X175155888Y-48492898D01*
X175059071Y-48589715D01*
X174990612Y-48708290D01*
X174975882Y-48763262D01*
X174410018Y-48197398D01*
X174410017Y-48197398D01*
X174380421Y-48238135D01*
X174380420Y-48238137D01*
X174288951Y-48417652D01*
X174288950Y-48417655D01*
X174226693Y-48609266D01*
X174195175Y-48808264D01*
X173855175Y-48808264D01*
X173855175Y-46050486D01*
X174454675Y-46050486D01*
X174454675Y-46251517D01*
X174493890Y-46448663D01*
X174493893Y-46448675D01*
X174570815Y-46634383D01*
X174570822Y-46634396D01*
X174682500Y-46801532D01*
X174682503Y-46801536D01*
X174824640Y-46943673D01*
X174824644Y-46943676D01*
X174991780Y-47055354D01*
X174991793Y-47055361D01*
X175177501Y-47132283D01*
X175177506Y-47132285D01*
X175374659Y-47171501D01*
X175374663Y-47171502D01*
X175374664Y-47171502D01*
X175575687Y-47171502D01*
X175575688Y-47171501D01*
X175772844Y-47132285D01*
X175958563Y-47055358D01*
X176125706Y-46943676D01*
X176267849Y-46801533D01*
X176379531Y-46634390D01*
X176456458Y-46448671D01*
X176495675Y-46251513D01*
X176495675Y-46050491D01*
X176456458Y-45853333D01*
X176383153Y-45676358D01*
X176379534Y-45667620D01*
X176379527Y-45667607D01*
X176267849Y-45500471D01*
X176267846Y-45500467D01*
X176125709Y-45358330D01*
X176125705Y-45358327D01*
X175958569Y-45246649D01*
X175958556Y-45246642D01*
X175772848Y-45169720D01*
X175772836Y-45169717D01*
X175575690Y-45130502D01*
X175575686Y-45130502D01*
X175374664Y-45130502D01*
X175374659Y-45130502D01*
X175177513Y-45169717D01*
X175177501Y-45169720D01*
X174991793Y-45246642D01*
X174991780Y-45246649D01*
X174824644Y-45358327D01*
X174824640Y-45358330D01*
X174682503Y-45500467D01*
X174682500Y-45500471D01*
X174570822Y-45667607D01*
X174570815Y-45667620D01*
X174493893Y-45853328D01*
X174493890Y-45853340D01*
X174454675Y-46050486D01*
X173855175Y-46050486D01*
X173855175Y-43292264D01*
X174195175Y-43292264D01*
X174195175Y-43493739D01*
X174226693Y-43692737D01*
X174288950Y-43884348D01*
X174288951Y-43884351D01*
X174380423Y-44063871D01*
X174410017Y-44104604D01*
X174410018Y-44104605D01*
X174975882Y-43538741D01*
X174990612Y-43593714D01*
X175059071Y-43712289D01*
X175155888Y-43809106D01*
X175274463Y-43877565D01*
X175329434Y-43892294D01*
X174763570Y-44458157D01*
X174804308Y-44487755D01*
X174983825Y-44579225D01*
X174983828Y-44579226D01*
X175175439Y-44641483D01*
X175374438Y-44673002D01*
X175575912Y-44673002D01*
X175774910Y-44641483D01*
X175966521Y-44579226D01*
X175966524Y-44579225D01*
X176146041Y-44487755D01*
X176186777Y-44458158D01*
X176186777Y-44458157D01*
X175620914Y-43892294D01*
X175675887Y-43877565D01*
X175794462Y-43809106D01*
X175891279Y-43712289D01*
X175959738Y-43593714D01*
X175974467Y-43538741D01*
X176540330Y-44104604D01*
X176540331Y-44104604D01*
X176569928Y-44063868D01*
X176661398Y-43884351D01*
X176661399Y-43884348D01*
X176723656Y-43692737D01*
X176755175Y-43493739D01*
X176755175Y-43292264D01*
X176723656Y-43093266D01*
X176661399Y-42901655D01*
X176661398Y-42901652D01*
X176569928Y-42722135D01*
X176540330Y-42681398D01*
X176540330Y-42681397D01*
X175974467Y-43247261D01*
X175959738Y-43192290D01*
X175891279Y-43073715D01*
X175794462Y-42976898D01*
X175675887Y-42908439D01*
X175620913Y-42893709D01*
X176186778Y-42327845D01*
X176186777Y-42327844D01*
X176146044Y-42298250D01*
X175966524Y-42206778D01*
X175966521Y-42206777D01*
X175774910Y-42144520D01*
X175575912Y-42113002D01*
X175374438Y-42113002D01*
X175175439Y-42144520D01*
X174983828Y-42206777D01*
X174983825Y-42206778D01*
X174804310Y-42298247D01*
X174804308Y-42298248D01*
X174763571Y-42327844D01*
X174763571Y-42327845D01*
X175329435Y-42893709D01*
X175274463Y-42908439D01*
X175155888Y-42976898D01*
X175059071Y-43073715D01*
X174990612Y-43192290D01*
X174975882Y-43247262D01*
X174410018Y-42681398D01*
X174410017Y-42681398D01*
X174380421Y-42722135D01*
X174380420Y-42722137D01*
X174288951Y-42901652D01*
X174288950Y-42901655D01*
X174226693Y-43093266D01*
X174195175Y-43292264D01*
X173855175Y-43292264D01*
X173855175Y-37296502D01*
X173874860Y-37229463D01*
X173927664Y-37183708D01*
X173979175Y-37172502D01*
X174194808Y-37172502D01*
X174194815Y-37172502D01*
X174471707Y-37136048D01*
X174741471Y-37063765D01*
X174999493Y-36956889D01*
X175241357Y-36817249D01*
X175462925Y-36647233D01*
X175462929Y-36647228D01*
X175462934Y-36647225D01*
X175660398Y-36449761D01*
X175660401Y-36449756D01*
X175660406Y-36449752D01*
X175830422Y-36228184D01*
X175970062Y-35986320D01*
X176076938Y-35728298D01*
X176149221Y-35458534D01*
X176185675Y-35181642D01*
X176185675Y-34902362D01*
X176149221Y-34625470D01*
X176076938Y-34355706D01*
X175970062Y-34097684D01*
X175830422Y-33855820D01*
X175830419Y-33855817D01*
X175830418Y-33855814D01*
X175660405Y-33634251D01*
X175660398Y-33634243D01*
X175462934Y-33436779D01*
X175462925Y-33436771D01*
X175241362Y-33266758D01*
X174999495Y-33127116D01*
X174999486Y-33127112D01*
X174741473Y-33020239D01*
X174606589Y-32984097D01*
X174471707Y-32947956D01*
X174410175Y-32939855D01*
X174194822Y-32911502D01*
X174194815Y-32911502D01*
X173979175Y-32911502D01*
X173912136Y-32891817D01*
X173866381Y-32839013D01*
X173855175Y-32787502D01*
X173855175Y-27291006D01*
X173874860Y-27223967D01*
X173891494Y-27203325D01*
X173892734Y-27202085D01*
X174060838Y-26991289D01*
X174204284Y-26762997D01*
X174321267Y-26520079D01*
X174410316Y-26265591D01*
X174470312Y-26002732D01*
X174500500Y-25734809D01*
X174500500Y-25465191D01*
X174470312Y-25197268D01*
X174410316Y-24934409D01*
X174321267Y-24679921D01*
X174204284Y-24437003D01*
X174060838Y-24208711D01*
X173895444Y-24001313D01*
X173869035Y-23936626D01*
X173881792Y-23867931D01*
X173929662Y-23817037D01*
X173992391Y-23800000D01*
X182176000Y-23800000D01*
X182243039Y-23819685D01*
G37*
%TD.AperFunction*%
%TD*%
%TA.AperFunction,Conductor*%
%TO.N,+3V3*%
G36*
X140476653Y-42034441D02*
G01*
X140515426Y-42050501D01*
X140515431Y-42050503D01*
X140515435Y-42050503D01*
X140515436Y-42050504D01*
X140641103Y-42075502D01*
X140641106Y-42075502D01*
X140769246Y-42075502D01*
X140853790Y-42058684D01*
X140894919Y-42050503D01*
X140912253Y-42043322D01*
X140933697Y-42034441D01*
X140981149Y-42025002D01*
X142681175Y-42025002D01*
X142748214Y-42044687D01*
X142793969Y-42097491D01*
X142805175Y-42149002D01*
X142805175Y-42474404D01*
X142785490Y-42541443D01*
X142781022Y-42547933D01*
X142775473Y-42555467D01*
X142719480Y-42611461D01*
X142669360Y-42698272D01*
X142665912Y-42704243D01*
X142665909Y-42704248D01*
X142640425Y-42748386D01*
X142640424Y-42748387D01*
X142640423Y-42748392D01*
X142599499Y-42901120D01*
X142599499Y-42901122D01*
X142599499Y-43069223D01*
X142599500Y-43069236D01*
X142599500Y-46201002D01*
X142579815Y-46268041D01*
X142527011Y-46313796D01*
X142475500Y-46325002D01*
X141800000Y-46325002D01*
X141800000Y-48822566D01*
X141780315Y-48889605D01*
X141779102Y-48891457D01*
X141728713Y-48966868D01*
X141728708Y-48966877D01*
X141679674Y-49085257D01*
X141679672Y-49085263D01*
X141654675Y-49210930D01*
X141654675Y-49210933D01*
X141654675Y-49339071D01*
X141654675Y-49339073D01*
X141654674Y-49339073D01*
X141679672Y-49464740D01*
X141679674Y-49464746D01*
X141728708Y-49583126D01*
X141728713Y-49583134D01*
X141779102Y-49658546D01*
X141799980Y-49725223D01*
X141800000Y-49727437D01*
X141800000Y-50075500D01*
X141780315Y-50142539D01*
X141727511Y-50188294D01*
X141676000Y-50199500D01*
X139474858Y-50199500D01*
X139407819Y-50179815D01*
X139362064Y-50127011D01*
X139352120Y-50057853D01*
X139353241Y-50051306D01*
X139355675Y-50039070D01*
X139355675Y-49910930D01*
X139330677Y-49785263D01*
X139330676Y-49785262D01*
X139330676Y-49785258D01*
X139281640Y-49666875D01*
X139281639Y-49666874D01*
X139281636Y-49666868D01*
X139222508Y-49578377D01*
X139201630Y-49511699D01*
X139213966Y-49460525D01*
X139212238Y-49459810D01*
X139274910Y-49308503D01*
X139274912Y-49308499D01*
X139305675Y-49153844D01*
X139305675Y-48996160D01*
X139305675Y-48996157D01*
X139305674Y-48996155D01*
X139284848Y-48891457D01*
X139274912Y-48841505D01*
X139267067Y-48822566D01*
X139214572Y-48695829D01*
X139214565Y-48695816D01*
X139123580Y-48559648D01*
X139124981Y-48558711D01*
X139100832Y-48501825D01*
X139100000Y-48487488D01*
X139100000Y-46481539D01*
X139105175Y-46463915D01*
X139105175Y-42149002D01*
X139124860Y-42081963D01*
X139177664Y-42036208D01*
X139229175Y-42025002D01*
X140429201Y-42025002D01*
X140476653Y-42034441D01*
G37*
%TD.AperFunction*%
%TD*%
%TA.AperFunction,Conductor*%
%TO.N,+3V3*%
G36*
X166991444Y-61444687D02*
G01*
X167012086Y-61461321D01*
X167235141Y-61684376D01*
X167235151Y-61684387D01*
X167239481Y-61688717D01*
X167239482Y-61688718D01*
X167351286Y-61800522D01*
X167351288Y-61800523D01*
X167351292Y-61800526D01*
X167488211Y-61879575D01*
X167488218Y-61879579D01*
X167600021Y-61909536D01*
X167640944Y-61920502D01*
X167640945Y-61920502D01*
X167640946Y-61920502D01*
X168881175Y-61920502D01*
X168948214Y-61940187D01*
X168993969Y-61992991D01*
X169005175Y-62044502D01*
X169005175Y-65609623D01*
X168985490Y-65676662D01*
X168932686Y-65722417D01*
X168863528Y-65732361D01*
X168812285Y-65712726D01*
X168779183Y-65690608D01*
X168779172Y-65690602D01*
X168633501Y-65630264D01*
X168633489Y-65630261D01*
X168478845Y-65599500D01*
X168478842Y-65599500D01*
X168321158Y-65599500D01*
X168321155Y-65599500D01*
X168166510Y-65630261D01*
X168166498Y-65630264D01*
X168020827Y-65690602D01*
X168020814Y-65690609D01*
X167889711Y-65778210D01*
X167889707Y-65778213D01*
X167778213Y-65889707D01*
X167778210Y-65889711D01*
X167690609Y-66020814D01*
X167690602Y-66020827D01*
X167630264Y-66166498D01*
X167630261Y-66166510D01*
X167599500Y-66321153D01*
X167599500Y-66478846D01*
X167630261Y-66633489D01*
X167630264Y-66633501D01*
X167690602Y-66779172D01*
X167690609Y-66779185D01*
X167778210Y-66910288D01*
X167778213Y-66910292D01*
X167889707Y-67021786D01*
X167889711Y-67021789D01*
X168020814Y-67109390D01*
X168020827Y-67109397D01*
X168087125Y-67136858D01*
X168166503Y-67169737D01*
X168270262Y-67190376D01*
X168321153Y-67200499D01*
X168321156Y-67200500D01*
X168321158Y-67200500D01*
X168361487Y-67200500D01*
X168478842Y-67200500D01*
X168588471Y-67178693D01*
X168588474Y-67178693D01*
X168603890Y-67175626D01*
X168633497Y-67169737D01*
X168746166Y-67123067D01*
X168779172Y-67109397D01*
X168779172Y-67109396D01*
X168779179Y-67109394D01*
X168779184Y-67109390D01*
X168779187Y-67109389D01*
X168812283Y-67087275D01*
X168878960Y-67066396D01*
X168946341Y-67084880D01*
X168993031Y-67136858D01*
X169005175Y-67190376D01*
X169005175Y-67352605D01*
X168985490Y-67419644D01*
X168932686Y-67465399D01*
X168863528Y-67475343D01*
X168833725Y-67467167D01*
X168807472Y-67456293D01*
X168807460Y-67456290D01*
X168652816Y-67425529D01*
X168652813Y-67425529D01*
X168495129Y-67425529D01*
X168385510Y-67447333D01*
X168385496Y-67447335D01*
X168340481Y-67456290D01*
X168340469Y-67456293D01*
X168194798Y-67516631D01*
X168194785Y-67516638D01*
X168063682Y-67604239D01*
X168063678Y-67604242D01*
X167952184Y-67715736D01*
X167952181Y-67715740D01*
X167864580Y-67846843D01*
X167864573Y-67846856D01*
X167804235Y-67992527D01*
X167804232Y-67992539D01*
X167773471Y-68147182D01*
X167773471Y-68304875D01*
X167804232Y-68459518D01*
X167804235Y-68459530D01*
X167864573Y-68605201D01*
X167864580Y-68605214D01*
X167952573Y-68736903D01*
X167973451Y-68803580D01*
X167973471Y-68805794D01*
X167973471Y-70525932D01*
X167953786Y-70592971D01*
X167937152Y-70613613D01*
X160087084Y-78463681D01*
X160025761Y-78497166D01*
X159999403Y-78500000D01*
X145319308Y-78500000D01*
X145252269Y-78480315D01*
X145206514Y-78427511D01*
X145196570Y-78358353D01*
X145225595Y-78294797D01*
X145231627Y-78288319D01*
X145305273Y-78214672D01*
X145305276Y-78214669D01*
X145376465Y-78108127D01*
X145425501Y-77989744D01*
X145450500Y-77864069D01*
X145450500Y-77735931D01*
X145450500Y-77735928D01*
X145425502Y-77610261D01*
X145425501Y-77610260D01*
X145425501Y-77610256D01*
X145376465Y-77491873D01*
X145376464Y-77491872D01*
X145376461Y-77491866D01*
X145305276Y-77385331D01*
X145305273Y-77385327D01*
X145214672Y-77294726D01*
X145214668Y-77294723D01*
X145108133Y-77223538D01*
X145108124Y-77223533D01*
X144989744Y-77174499D01*
X144989738Y-77174497D01*
X144864071Y-77149500D01*
X144864069Y-77149500D01*
X144735931Y-77149500D01*
X144735929Y-77149500D01*
X144610261Y-77174497D01*
X144610255Y-77174499D01*
X144491875Y-77223533D01*
X144491866Y-77223538D01*
X144385331Y-77294723D01*
X144385327Y-77294726D01*
X144294726Y-77385327D01*
X144294723Y-77385331D01*
X144223538Y-77491866D01*
X144223533Y-77491875D01*
X144174499Y-77610255D01*
X144174497Y-77610261D01*
X144149500Y-77735928D01*
X144149500Y-77735931D01*
X144149500Y-77864069D01*
X144149500Y-77864071D01*
X144149499Y-77864071D01*
X144174497Y-77989738D01*
X144174499Y-77989744D01*
X144223533Y-78108124D01*
X144223538Y-78108133D01*
X144294723Y-78214668D01*
X144294726Y-78214672D01*
X144368373Y-78288319D01*
X144401858Y-78349642D01*
X144396874Y-78419334D01*
X144355002Y-78475267D01*
X144289538Y-78499684D01*
X144280692Y-78500000D01*
X129724000Y-78500000D01*
X129656961Y-78480315D01*
X129611206Y-78427511D01*
X129600000Y-78376000D01*
X129600000Y-73066283D01*
X129608644Y-73036843D01*
X129615167Y-73006858D01*
X129618922Y-73001841D01*
X129619685Y-72999244D01*
X129636312Y-72978608D01*
X129727139Y-72887782D01*
X129727141Y-72887778D01*
X130793766Y-71821153D01*
X145699500Y-71821153D01*
X145699500Y-71978846D01*
X145730261Y-72133489D01*
X145730264Y-72133501D01*
X145790602Y-72279172D01*
X145790609Y-72279185D01*
X145878210Y-72410288D01*
X145878213Y-72410292D01*
X145989707Y-72521786D01*
X145989711Y-72521789D01*
X146120814Y-72609390D01*
X146120827Y-72609397D01*
X146227390Y-72653536D01*
X146266503Y-72669737D01*
X146421153Y-72700499D01*
X146421156Y-72700500D01*
X146421158Y-72700500D01*
X146578844Y-72700500D01*
X146578845Y-72700499D01*
X146733497Y-72669737D01*
X146754578Y-72661004D01*
X146824046Y-72653536D01*
X146886525Y-72684811D01*
X146922178Y-72744899D01*
X146923647Y-72799757D01*
X146899500Y-72921153D01*
X146899500Y-73078846D01*
X146930261Y-73233489D01*
X146930264Y-73233501D01*
X146990602Y-73379172D01*
X146990609Y-73379185D01*
X147078210Y-73510288D01*
X147078213Y-73510292D01*
X147189707Y-73621786D01*
X147189711Y-73621789D01*
X147320814Y-73709390D01*
X147320827Y-73709397D01*
X147466498Y-73769735D01*
X147466503Y-73769737D01*
X147621153Y-73800499D01*
X147621156Y-73800500D01*
X147621158Y-73800500D01*
X147778844Y-73800500D01*
X147778845Y-73800499D01*
X147933497Y-73769737D01*
X148079179Y-73709394D01*
X148210289Y-73621789D01*
X148321789Y-73510289D01*
X148409394Y-73379179D01*
X148469737Y-73233497D01*
X148500500Y-73078842D01*
X148500500Y-72921158D01*
X148500500Y-72921155D01*
X148500499Y-72921153D01*
X148492148Y-72879172D01*
X148469737Y-72766503D01*
X148469735Y-72766498D01*
X148409397Y-72620827D01*
X148409390Y-72620814D01*
X148321790Y-72489712D01*
X148321784Y-72489705D01*
X148253232Y-72421153D01*
X154199500Y-72421153D01*
X154199500Y-72578846D01*
X154230261Y-72733489D01*
X154230264Y-72733501D01*
X154290602Y-72879172D01*
X154290609Y-72879185D01*
X154378210Y-73010288D01*
X154378213Y-73010292D01*
X154489707Y-73121786D01*
X154489711Y-73121789D01*
X154620814Y-73209390D01*
X154620827Y-73209397D01*
X154720060Y-73250500D01*
X154766503Y-73269737D01*
X154916131Y-73299500D01*
X154921153Y-73300499D01*
X154921156Y-73300500D01*
X154921158Y-73300500D01*
X155078844Y-73300500D01*
X155078845Y-73300499D01*
X155233497Y-73269737D01*
X155346166Y-73223067D01*
X155379172Y-73209397D01*
X155379172Y-73209396D01*
X155379179Y-73209394D01*
X155510289Y-73121789D01*
X155621789Y-73010289D01*
X155709394Y-72879179D01*
X155769737Y-72733497D01*
X155800500Y-72578842D01*
X155800500Y-72421158D01*
X155800500Y-72421155D01*
X155800499Y-72421153D01*
X155774531Y-72290606D01*
X155769737Y-72266503D01*
X155758343Y-72238996D01*
X155709397Y-72120827D01*
X155709390Y-72120814D01*
X155621789Y-71989711D01*
X155621786Y-71989707D01*
X155510292Y-71878213D01*
X155510288Y-71878210D01*
X155379185Y-71790609D01*
X155379172Y-71790602D01*
X155233501Y-71730264D01*
X155233489Y-71730261D01*
X155078845Y-71699500D01*
X155078842Y-71699500D01*
X154921158Y-71699500D01*
X154921155Y-71699500D01*
X154766510Y-71730261D01*
X154766498Y-71730264D01*
X154620827Y-71790602D01*
X154620814Y-71790609D01*
X154489711Y-71878210D01*
X154489707Y-71878213D01*
X154378213Y-71989707D01*
X154378210Y-71989711D01*
X154290609Y-72120814D01*
X154290602Y-72120827D01*
X154230264Y-72266498D01*
X154230261Y-72266510D01*
X154199500Y-72421153D01*
X148253232Y-72421153D01*
X148210292Y-72378213D01*
X148210288Y-72378210D01*
X148079185Y-72290609D01*
X148079172Y-72290602D01*
X147933501Y-72230264D01*
X147933489Y-72230261D01*
X147778845Y-72199500D01*
X147778842Y-72199500D01*
X147621158Y-72199500D01*
X147621155Y-72199500D01*
X147466510Y-72230261D01*
X147466499Y-72230264D01*
X147445417Y-72238996D01*
X147375948Y-72246462D01*
X147313470Y-72215185D01*
X147277820Y-72155094D01*
X147276352Y-72100241D01*
X147300500Y-71978844D01*
X147300500Y-71821155D01*
X147300499Y-71821153D01*
X147294422Y-71790602D01*
X147269737Y-71666503D01*
X147247252Y-71612218D01*
X147209397Y-71520827D01*
X147209390Y-71520814D01*
X147121789Y-71389711D01*
X147121786Y-71389707D01*
X147010292Y-71278213D01*
X147010288Y-71278210D01*
X146879185Y-71190609D01*
X146879172Y-71190602D01*
X146733501Y-71130264D01*
X146733489Y-71130261D01*
X146578845Y-71099500D01*
X146578842Y-71099500D01*
X146421158Y-71099500D01*
X146421155Y-71099500D01*
X146266510Y-71130261D01*
X146266498Y-71130264D01*
X146120827Y-71190602D01*
X146120814Y-71190609D01*
X145989711Y-71278210D01*
X145989707Y-71278213D01*
X145878213Y-71389707D01*
X145878210Y-71389711D01*
X145790609Y-71520814D01*
X145790602Y-71520827D01*
X145730264Y-71666498D01*
X145730261Y-71666510D01*
X145699500Y-71821153D01*
X130793766Y-71821153D01*
X133477139Y-69137781D01*
X133586631Y-68973914D01*
X133662051Y-68791836D01*
X133700500Y-68598540D01*
X133700500Y-68401460D01*
X133700500Y-68401457D01*
X133700499Y-68401455D01*
X133688326Y-68340256D01*
X133662051Y-68208164D01*
X133586631Y-68026086D01*
X133586628Y-68026081D01*
X133564451Y-67992890D01*
X133543574Y-67926212D01*
X133562059Y-67858832D01*
X133614039Y-67812143D01*
X133667554Y-67800000D01*
X139273675Y-67800000D01*
X139340714Y-67819685D01*
X139386469Y-67872489D01*
X139396413Y-67941647D01*
X139367388Y-68005203D01*
X139321128Y-68038561D01*
X139254375Y-68066210D01*
X139254366Y-68066215D01*
X139147831Y-68137400D01*
X139147827Y-68137403D01*
X139057226Y-68228004D01*
X139057223Y-68228008D01*
X138986038Y-68334543D01*
X138986033Y-68334552D01*
X138936999Y-68452932D01*
X138936997Y-68452938D01*
X138912000Y-68578605D01*
X138912000Y-68578608D01*
X138912000Y-68706746D01*
X138912000Y-68706748D01*
X138911999Y-68706748D01*
X138936997Y-68832415D01*
X138936999Y-68832421D01*
X138986033Y-68950801D01*
X138986038Y-68950810D01*
X139057223Y-69057345D01*
X139057226Y-69057349D01*
X139147827Y-69147950D01*
X139147831Y-69147953D01*
X139254366Y-69219138D01*
X139254372Y-69219141D01*
X139254373Y-69219142D01*
X139372756Y-69268178D01*
X139372760Y-69268178D01*
X139372761Y-69268179D01*
X139498428Y-69293177D01*
X139498431Y-69293177D01*
X139626571Y-69293177D01*
X139711115Y-69276359D01*
X139752244Y-69268178D01*
X139870627Y-69219142D01*
X139977169Y-69147953D01*
X140067776Y-69057346D01*
X140138965Y-68950804D01*
X140188001Y-68832421D01*
X140207118Y-68736318D01*
X140213000Y-68706748D01*
X140213000Y-68594071D01*
X148619499Y-68594071D01*
X148644497Y-68719738D01*
X148644499Y-68719744D01*
X148693533Y-68838124D01*
X148693538Y-68838133D01*
X148764723Y-68944668D01*
X148764726Y-68944672D01*
X148855327Y-69035273D01*
X148855331Y-69035276D01*
X148961866Y-69106461D01*
X148961872Y-69106464D01*
X148961873Y-69106465D01*
X149080256Y-69155501D01*
X149080260Y-69155501D01*
X149080261Y-69155502D01*
X149205928Y-69180500D01*
X149205931Y-69180500D01*
X149334071Y-69180500D01*
X149418615Y-69163682D01*
X149459744Y-69155501D01*
X149578127Y-69106465D01*
X149684669Y-69035276D01*
X149775276Y-68944669D01*
X149846465Y-68838127D01*
X149895501Y-68719744D01*
X149903682Y-68678615D01*
X149918511Y-68604071D01*
X150389499Y-68604071D01*
X150414497Y-68729738D01*
X150414499Y-68729744D01*
X150463533Y-68848124D01*
X150463538Y-68848133D01*
X150534723Y-68954668D01*
X150534726Y-68954672D01*
X150625327Y-69045273D01*
X150625331Y-69045276D01*
X150731866Y-69116461D01*
X150731872Y-69116464D01*
X150731873Y-69116465D01*
X150850256Y-69165501D01*
X150850260Y-69165501D01*
X150850261Y-69165502D01*
X150975928Y-69190500D01*
X150975931Y-69190500D01*
X151104071Y-69190500D01*
X151188615Y-69173682D01*
X151229744Y-69165501D01*
X151348127Y-69116465D01*
X151454669Y-69045276D01*
X151545276Y-68954669D01*
X151567671Y-68921153D01*
X164199500Y-68921153D01*
X164199500Y-69078846D01*
X164230261Y-69233489D01*
X164230264Y-69233501D01*
X164290602Y-69379172D01*
X164290609Y-69379185D01*
X164378210Y-69510288D01*
X164378213Y-69510292D01*
X164489707Y-69621786D01*
X164489711Y-69621789D01*
X164620814Y-69709390D01*
X164620827Y-69709397D01*
X164766498Y-69769735D01*
X164766503Y-69769737D01*
X164921153Y-69800499D01*
X164921156Y-69800500D01*
X164921158Y-69800500D01*
X165078844Y-69800500D01*
X165078845Y-69800499D01*
X165233497Y-69769737D01*
X165379179Y-69709394D01*
X165510289Y-69621789D01*
X165621789Y-69510289D01*
X165709394Y-69379179D01*
X165769737Y-69233497D01*
X165800500Y-69078842D01*
X165800500Y-68921158D01*
X165800500Y-68921155D01*
X165800499Y-68921153D01*
X165785973Y-68848127D01*
X165769737Y-68766503D01*
X165766052Y-68757607D01*
X165709397Y-68620827D01*
X165709390Y-68620814D01*
X165621789Y-68489711D01*
X165621786Y-68489707D01*
X165510292Y-68378213D01*
X165510288Y-68378210D01*
X165379185Y-68290609D01*
X165379172Y-68290602D01*
X165233501Y-68230264D01*
X165233489Y-68230261D01*
X165078845Y-68199500D01*
X165078842Y-68199500D01*
X164921158Y-68199500D01*
X164921155Y-68199500D01*
X164766510Y-68230261D01*
X164766498Y-68230264D01*
X164620827Y-68290602D01*
X164620814Y-68290609D01*
X164489711Y-68378210D01*
X164489707Y-68378213D01*
X164378213Y-68489707D01*
X164378210Y-68489711D01*
X164290609Y-68620814D01*
X164290602Y-68620827D01*
X164230264Y-68766498D01*
X164230261Y-68766510D01*
X164199500Y-68921153D01*
X151567671Y-68921153D01*
X151616465Y-68848127D01*
X151665501Y-68729744D01*
X151687169Y-68620814D01*
X151690500Y-68604071D01*
X151690500Y-68475928D01*
X151665502Y-68350261D01*
X151665501Y-68350260D01*
X151665501Y-68350256D01*
X151616465Y-68231873D01*
X151545276Y-68125331D01*
X151545273Y-68125327D01*
X151454672Y-68034726D01*
X151454668Y-68034723D01*
X151348133Y-67963538D01*
X151348124Y-67963533D01*
X151229744Y-67914499D01*
X151229738Y-67914497D01*
X151104071Y-67889500D01*
X151104069Y-67889500D01*
X150975931Y-67889500D01*
X150975929Y-67889500D01*
X150850261Y-67914497D01*
X150850255Y-67914499D01*
X150731875Y-67963533D01*
X150731866Y-67963538D01*
X150625331Y-68034723D01*
X150625327Y-68034726D01*
X150534726Y-68125327D01*
X150534723Y-68125331D01*
X150463538Y-68231866D01*
X150463533Y-68231875D01*
X150414499Y-68350255D01*
X150414497Y-68350261D01*
X150389500Y-68475928D01*
X150389500Y-68475931D01*
X150389500Y-68604069D01*
X150389500Y-68604071D01*
X150389499Y-68604071D01*
X149918511Y-68604071D01*
X149920500Y-68594071D01*
X149920500Y-68465928D01*
X149895502Y-68340261D01*
X149895501Y-68340260D01*
X149895501Y-68340256D01*
X149849940Y-68230263D01*
X149846466Y-68221875D01*
X149846461Y-68221866D01*
X149775276Y-68115331D01*
X149775273Y-68115327D01*
X149684672Y-68024726D01*
X149684668Y-68024723D01*
X149578133Y-67953538D01*
X149578124Y-67953533D01*
X149459744Y-67904499D01*
X149459738Y-67904497D01*
X149334071Y-67879500D01*
X149334069Y-67879500D01*
X149205931Y-67879500D01*
X149205929Y-67879500D01*
X149080261Y-67904497D01*
X149080255Y-67904499D01*
X148961875Y-67953533D01*
X148961866Y-67953538D01*
X148855331Y-68024723D01*
X148855327Y-68024726D01*
X148764726Y-68115327D01*
X148764723Y-68115331D01*
X148693538Y-68221866D01*
X148693533Y-68221875D01*
X148644499Y-68340255D01*
X148644497Y-68340261D01*
X148619500Y-68465928D01*
X148619500Y-68465931D01*
X148619500Y-68594069D01*
X148619500Y-68594071D01*
X148619499Y-68594071D01*
X140213000Y-68594071D01*
X140213000Y-68578605D01*
X140194187Y-68484031D01*
X140194187Y-68484030D01*
X140191769Y-68471877D01*
X140188001Y-68452933D01*
X140138965Y-68334550D01*
X140138964Y-68334549D01*
X140138961Y-68334543D01*
X140067776Y-68228008D01*
X140067773Y-68228004D01*
X139977172Y-68137403D01*
X139977168Y-68137400D01*
X139870633Y-68066215D01*
X139870624Y-68066210D01*
X139803872Y-68038561D01*
X139749469Y-67994720D01*
X139727404Y-67928426D01*
X139743830Y-67864071D01*
X151749499Y-67864071D01*
X151774497Y-67989738D01*
X151774500Y-67989748D01*
X151811669Y-68079483D01*
X151811673Y-68079491D01*
X151823535Y-68108127D01*
X151846249Y-68142121D01*
X151846253Y-68142128D01*
X151894723Y-68214668D01*
X151894726Y-68214672D01*
X151985327Y-68305273D01*
X151985331Y-68305276D01*
X152091866Y-68376461D01*
X152091875Y-68376466D01*
X152096088Y-68378211D01*
X152210256Y-68425501D01*
X152210260Y-68425501D01*
X152210261Y-68425502D01*
X152335928Y-68450500D01*
X152335931Y-68450500D01*
X152464071Y-68450500D01*
X152548615Y-68433682D01*
X152589744Y-68425501D01*
X152708127Y-68376465D01*
X152814669Y-68305276D01*
X152905276Y-68214669D01*
X152976465Y-68108127D01*
X153025501Y-67989744D01*
X153042458Y-67904497D01*
X153050500Y-67864071D01*
X153050500Y-67735928D01*
X153025502Y-67610261D01*
X153025501Y-67610260D01*
X153025501Y-67610256D01*
X152986720Y-67516631D01*
X152976466Y-67491875D01*
X152976461Y-67491866D01*
X152905276Y-67385331D01*
X152905273Y-67385327D01*
X152814672Y-67294726D01*
X152814668Y-67294723D01*
X152708133Y-67223538D01*
X152708124Y-67223533D01*
X152589744Y-67174499D01*
X152589738Y-67174497D01*
X152464071Y-67149500D01*
X152464069Y-67149500D01*
X152335931Y-67149500D01*
X152335929Y-67149500D01*
X152210261Y-67174497D01*
X152210255Y-67174499D01*
X152091875Y-67223533D01*
X152091866Y-67223538D01*
X151985331Y-67294723D01*
X151985327Y-67294726D01*
X151894726Y-67385327D01*
X151894723Y-67385331D01*
X151823538Y-67491866D01*
X151823533Y-67491875D01*
X151774499Y-67610255D01*
X151774497Y-67610261D01*
X151749500Y-67735928D01*
X151749500Y-67735931D01*
X151749500Y-67864069D01*
X151749500Y-67864071D01*
X151749499Y-67864071D01*
X139743830Y-67864071D01*
X139744683Y-67860727D01*
X139795820Y-67813116D01*
X139851325Y-67800000D01*
X148005175Y-67800000D01*
X148005175Y-67597137D01*
X148024860Y-67530098D01*
X148077664Y-67484343D01*
X148146822Y-67474399D01*
X148176622Y-67482574D01*
X148280256Y-67525501D01*
X148280260Y-67525501D01*
X148280261Y-67525502D01*
X148405928Y-67550500D01*
X148405931Y-67550500D01*
X148534071Y-67550500D01*
X148636634Y-67530098D01*
X148659744Y-67525501D01*
X148778127Y-67476465D01*
X148884669Y-67405276D01*
X148975276Y-67314669D01*
X149046465Y-67208127D01*
X149095501Y-67089744D01*
X149103682Y-67048615D01*
X149115526Y-66989073D01*
X149504674Y-66989073D01*
X149529672Y-67114740D01*
X149529674Y-67114746D01*
X149578708Y-67233126D01*
X149578713Y-67233135D01*
X149649898Y-67339670D01*
X149649901Y-67339674D01*
X149740502Y-67430275D01*
X149740506Y-67430278D01*
X149847041Y-67501463D01*
X149847047Y-67501466D01*
X149847048Y-67501467D01*
X149965431Y-67550503D01*
X149965435Y-67550503D01*
X149965436Y-67550504D01*
X150091103Y-67575502D01*
X150091106Y-67575502D01*
X150219246Y-67575502D01*
X150303790Y-67558684D01*
X150344919Y-67550503D01*
X150463302Y-67501467D01*
X150569844Y-67430278D01*
X150660451Y-67339671D01*
X150731640Y-67233129D01*
X150780676Y-67114746D01*
X150799167Y-67021789D01*
X150805675Y-66989073D01*
X150805675Y-66860930D01*
X150780677Y-66735263D01*
X150780676Y-66735262D01*
X150780676Y-66735258D01*
X150738522Y-66633489D01*
X150731641Y-66616877D01*
X150731636Y-66616868D01*
X150660451Y-66510333D01*
X150660448Y-66510329D01*
X150569847Y-66419728D01*
X150569843Y-66419725D01*
X150463308Y-66348540D01*
X150463299Y-66348535D01*
X150344919Y-66299501D01*
X150344913Y-66299499D01*
X150219246Y-66274502D01*
X150219244Y-66274502D01*
X150091106Y-66274502D01*
X150091104Y-66274502D01*
X149965436Y-66299499D01*
X149965430Y-66299501D01*
X149847050Y-66348535D01*
X149847041Y-66348540D01*
X149740506Y-66419725D01*
X149740502Y-66419728D01*
X149649901Y-66510329D01*
X149649898Y-66510333D01*
X149578713Y-66616868D01*
X149578708Y-66616877D01*
X149529674Y-66735257D01*
X149529672Y-66735263D01*
X149504675Y-66860930D01*
X149504675Y-66860933D01*
X149504675Y-66989071D01*
X149504675Y-66989073D01*
X149504674Y-66989073D01*
X149115526Y-66989073D01*
X149120500Y-66964071D01*
X149120500Y-66835928D01*
X149095502Y-66710261D01*
X149095501Y-66710260D01*
X149095501Y-66710256D01*
X149046465Y-66591873D01*
X149046464Y-66591872D01*
X149046461Y-66591866D01*
X148975276Y-66485331D01*
X148975273Y-66485327D01*
X148884672Y-66394726D01*
X148884668Y-66394723D01*
X148778133Y-66323538D01*
X148778124Y-66323533D01*
X148659744Y-66274499D01*
X148659738Y-66274497D01*
X148534071Y-66249500D01*
X148534069Y-66249500D01*
X148405931Y-66249500D01*
X148405929Y-66249500D01*
X148280261Y-66274497D01*
X148280251Y-66274500D01*
X148176627Y-66317423D01*
X148107158Y-66324892D01*
X148044679Y-66293617D01*
X148009027Y-66233528D01*
X148005175Y-66202862D01*
X148005175Y-65374071D01*
X148609499Y-65374071D01*
X148634497Y-65499738D01*
X148634499Y-65499744D01*
X148683533Y-65618124D01*
X148683538Y-65618133D01*
X148754723Y-65724668D01*
X148754726Y-65724672D01*
X148845327Y-65815273D01*
X148845331Y-65815276D01*
X148951866Y-65886461D01*
X148951875Y-65886466D01*
X148976005Y-65896461D01*
X149070256Y-65935501D01*
X149070260Y-65935501D01*
X149070261Y-65935502D01*
X149195928Y-65960500D01*
X149195931Y-65960500D01*
X149324071Y-65960500D01*
X149408615Y-65943682D01*
X149449744Y-65935501D01*
X149568127Y-65886465D01*
X149674669Y-65815276D01*
X149765276Y-65724669D01*
X149836465Y-65618127D01*
X149885501Y-65499744D01*
X149904916Y-65402141D01*
X149908511Y-65384071D01*
X150389499Y-65384071D01*
X150414497Y-65509738D01*
X150414499Y-65509744D01*
X150463533Y-65628124D01*
X150463538Y-65628133D01*
X150534723Y-65734668D01*
X150534726Y-65734672D01*
X150625327Y-65825273D01*
X150625331Y-65825276D01*
X150731866Y-65896461D01*
X150731872Y-65896464D01*
X150731873Y-65896465D01*
X150850256Y-65945501D01*
X150850260Y-65945501D01*
X150850261Y-65945502D01*
X150975928Y-65970500D01*
X150975931Y-65970500D01*
X151104071Y-65970500D01*
X151188615Y-65953682D01*
X151229744Y-65945501D01*
X151348127Y-65896465D01*
X151454669Y-65825276D01*
X151545276Y-65734669D01*
X151546729Y-65732493D01*
X151547786Y-65731609D01*
X151549140Y-65729961D01*
X151549452Y-65730217D01*
X151600338Y-65687686D01*
X151669663Y-65678974D01*
X151732692Y-65709125D01*
X151769415Y-65768566D01*
X151771452Y-65825571D01*
X151749500Y-65935928D01*
X151749500Y-65935931D01*
X151749500Y-66064069D01*
X151749500Y-66064071D01*
X151749499Y-66064071D01*
X151774497Y-66189738D01*
X151774499Y-66189744D01*
X151823533Y-66308124D01*
X151823538Y-66308133D01*
X151894723Y-66414668D01*
X151894726Y-66414672D01*
X151985327Y-66505273D01*
X151985331Y-66505276D01*
X152091866Y-66576461D01*
X152091872Y-66576464D01*
X152091873Y-66576465D01*
X152210256Y-66625501D01*
X152210260Y-66625501D01*
X152210261Y-66625502D01*
X152335928Y-66650500D01*
X152335931Y-66650500D01*
X152464071Y-66650500D01*
X152549526Y-66633501D01*
X152589744Y-66625501D01*
X152708127Y-66576465D01*
X152814669Y-66505276D01*
X152905276Y-66414669D01*
X152967761Y-66321153D01*
X160799500Y-66321153D01*
X160799500Y-66478846D01*
X160830261Y-66633489D01*
X160830264Y-66633501D01*
X160890602Y-66779172D01*
X160890609Y-66779185D01*
X160978210Y-66910288D01*
X160978213Y-66910292D01*
X161089707Y-67021786D01*
X161089711Y-67021789D01*
X161220814Y-67109390D01*
X161220827Y-67109397D01*
X161287125Y-67136858D01*
X161366503Y-67169737D01*
X161470262Y-67190376D01*
X161521153Y-67200499D01*
X161521156Y-67200500D01*
X161521158Y-67200500D01*
X161678844Y-67200500D01*
X161678845Y-67200499D01*
X161833497Y-67169737D01*
X161946166Y-67123067D01*
X161979172Y-67109397D01*
X161979172Y-67109396D01*
X161979179Y-67109394D01*
X162110289Y-67021789D01*
X162221789Y-66910289D01*
X162309394Y-66779179D01*
X162369737Y-66633497D01*
X162400500Y-66478842D01*
X162400500Y-66321158D01*
X162400500Y-66321155D01*
X162400499Y-66321153D01*
X162375351Y-66194726D01*
X162369737Y-66166503D01*
X162321274Y-66049502D01*
X162309397Y-66020827D01*
X162309390Y-66020814D01*
X162221789Y-65889711D01*
X162221786Y-65889707D01*
X162110292Y-65778213D01*
X162110288Y-65778210D01*
X161979185Y-65690609D01*
X161979172Y-65690602D01*
X161833501Y-65630264D01*
X161833489Y-65630261D01*
X161678845Y-65599500D01*
X161678842Y-65599500D01*
X161521158Y-65599500D01*
X161521155Y-65599500D01*
X161366510Y-65630261D01*
X161366498Y-65630264D01*
X161220827Y-65690602D01*
X161220814Y-65690609D01*
X161089711Y-65778210D01*
X161089707Y-65778213D01*
X160978213Y-65889707D01*
X160978210Y-65889711D01*
X160890609Y-66020814D01*
X160890602Y-66020827D01*
X160830264Y-66166498D01*
X160830261Y-66166510D01*
X160799500Y-66321153D01*
X152967761Y-66321153D01*
X152976465Y-66308127D01*
X153025501Y-66189744D01*
X153050500Y-66064069D01*
X153050500Y-65935931D01*
X153050500Y-65935928D01*
X153025502Y-65810261D01*
X153025501Y-65810260D01*
X153025501Y-65810256D01*
X152976465Y-65691873D01*
X152976464Y-65691872D01*
X152976461Y-65691866D01*
X152905276Y-65585331D01*
X152905273Y-65585327D01*
X152814672Y-65494726D01*
X152814668Y-65494723D01*
X152708133Y-65423538D01*
X152708124Y-65423533D01*
X152589744Y-65374499D01*
X152589738Y-65374497D01*
X152464071Y-65349500D01*
X152464069Y-65349500D01*
X152335931Y-65349500D01*
X152335929Y-65349500D01*
X152210261Y-65374497D01*
X152210255Y-65374499D01*
X152091875Y-65423533D01*
X152091866Y-65423538D01*
X151985331Y-65494723D01*
X151985327Y-65494726D01*
X151894726Y-65585327D01*
X151894718Y-65585337D01*
X151893259Y-65587521D01*
X151892200Y-65588405D01*
X151890860Y-65590039D01*
X151890549Y-65589784D01*
X151839643Y-65632321D01*
X151770317Y-65641021D01*
X151707292Y-65610860D01*
X151670579Y-65551414D01*
X151668547Y-65494430D01*
X151690500Y-65384069D01*
X151690500Y-65255931D01*
X151690500Y-65255928D01*
X151665502Y-65130261D01*
X151665501Y-65130260D01*
X151665501Y-65130256D01*
X151616465Y-65011873D01*
X151616464Y-65011872D01*
X151616461Y-65011866D01*
X151545276Y-64905331D01*
X151545273Y-64905327D01*
X151454672Y-64814726D01*
X151454668Y-64814723D01*
X151348133Y-64743538D01*
X151348124Y-64743533D01*
X151229744Y-64694499D01*
X151229738Y-64694497D01*
X151104071Y-64669500D01*
X151104069Y-64669500D01*
X150975931Y-64669500D01*
X150975929Y-64669500D01*
X150850261Y-64694497D01*
X150850255Y-64694499D01*
X150731875Y-64743533D01*
X150731866Y-64743538D01*
X150625331Y-64814723D01*
X150625327Y-64814726D01*
X150534726Y-64905327D01*
X150534723Y-64905331D01*
X150463538Y-65011866D01*
X150463533Y-65011875D01*
X150414499Y-65130255D01*
X150414497Y-65130261D01*
X150389500Y-65255928D01*
X150389500Y-65255931D01*
X150389500Y-65384069D01*
X150389500Y-65384071D01*
X150389499Y-65384071D01*
X149908511Y-65384071D01*
X149910500Y-65374071D01*
X149910500Y-65245928D01*
X149885502Y-65120261D01*
X149885501Y-65120260D01*
X149885501Y-65120256D01*
X149836465Y-65001873D01*
X149836464Y-65001872D01*
X149836461Y-65001866D01*
X149765276Y-64895331D01*
X149765273Y-64895327D01*
X149674672Y-64804726D01*
X149674668Y-64804723D01*
X149568133Y-64733538D01*
X149568124Y-64733533D01*
X149449744Y-64684499D01*
X149449738Y-64684497D01*
X149324071Y-64659500D01*
X149324069Y-64659500D01*
X149195931Y-64659500D01*
X149195929Y-64659500D01*
X149070261Y-64684497D01*
X149070255Y-64684499D01*
X148951875Y-64733533D01*
X148951866Y-64733538D01*
X148845331Y-64804723D01*
X148845327Y-64804726D01*
X148754726Y-64895327D01*
X148754723Y-64895331D01*
X148683538Y-65001866D01*
X148683533Y-65001875D01*
X148634499Y-65120255D01*
X148634497Y-65120261D01*
X148609500Y-65245928D01*
X148609500Y-65245931D01*
X148609500Y-65374069D01*
X148609500Y-65374071D01*
X148609499Y-65374071D01*
X148005175Y-65374071D01*
X148005175Y-61649502D01*
X148024860Y-61582463D01*
X148077664Y-61536708D01*
X148129175Y-61525502D01*
X149218506Y-61525502D01*
X149218522Y-61525503D01*
X149226118Y-61525503D01*
X149384229Y-61525503D01*
X149384232Y-61525503D01*
X149536960Y-61484579D01*
X149587079Y-61455641D01*
X149611381Y-61441610D01*
X149611445Y-61441595D01*
X149673374Y-61425002D01*
X166924405Y-61425002D01*
X166991444Y-61444687D01*
G37*
%TD.AperFunction*%
%TD*%
%TA.AperFunction,Conductor*%
%TO.N,+5V*%
G36*
X35930147Y-24019685D02*
G01*
X35975902Y-24072489D01*
X35985846Y-24141647D01*
X35968102Y-24189972D01*
X35875714Y-24337005D01*
X35758734Y-24579917D01*
X35669687Y-24834397D01*
X35669684Y-24834405D01*
X35609688Y-25097268D01*
X35609686Y-25097280D01*
X35579500Y-25365186D01*
X35579500Y-25634813D01*
X35609686Y-25902719D01*
X35609688Y-25902731D01*
X35669684Y-26165594D01*
X35669687Y-26165602D01*
X35758734Y-26420082D01*
X35875714Y-26662994D01*
X35875716Y-26662997D01*
X36019162Y-26891289D01*
X36144573Y-27048549D01*
X36187265Y-27102084D01*
X36363681Y-27278500D01*
X36397166Y-27339823D01*
X36400000Y-27366181D01*
X36400000Y-32650652D01*
X36380315Y-32717691D01*
X36327511Y-32763446D01*
X36259815Y-32773591D01*
X36114825Y-32754503D01*
X36114820Y-32754502D01*
X36114815Y-32754502D01*
X35835535Y-32754502D01*
X35835527Y-32754502D01*
X35589408Y-32786905D01*
X35558643Y-32790956D01*
X35491202Y-32809026D01*
X35288876Y-32863239D01*
X35030863Y-32970112D01*
X35030854Y-32970116D01*
X34788987Y-33109758D01*
X34567424Y-33279771D01*
X34369944Y-33477251D01*
X34199931Y-33698814D01*
X34060289Y-33940681D01*
X34060285Y-33940690D01*
X33953412Y-34198703D01*
X33881129Y-34468471D01*
X33844675Y-34745354D01*
X33844675Y-35024649D01*
X33873028Y-35240002D01*
X33881129Y-35301534D01*
X33917270Y-35436416D01*
X33953412Y-35571300D01*
X34060285Y-35829313D01*
X34060289Y-35829322D01*
X34199931Y-36071189D01*
X34369944Y-36292752D01*
X34369952Y-36292761D01*
X34567416Y-36490225D01*
X34567424Y-36490232D01*
X34788987Y-36660245D01*
X34788990Y-36660246D01*
X34788993Y-36660249D01*
X35030857Y-36799889D01*
X35202871Y-36871139D01*
X35288876Y-36906764D01*
X35288877Y-36906764D01*
X35288879Y-36906765D01*
X35558643Y-36979048D01*
X35835535Y-37015502D01*
X35835542Y-37015502D01*
X36114808Y-37015502D01*
X36114815Y-37015502D01*
X36259814Y-36996412D01*
X36328850Y-37007177D01*
X36381106Y-37053557D01*
X36400000Y-37119351D01*
X36400000Y-41616961D01*
X36397617Y-41641152D01*
X36374675Y-41756487D01*
X36374675Y-41756491D01*
X36374675Y-41957513D01*
X36374675Y-41957515D01*
X36374674Y-41957515D01*
X36397617Y-42072849D01*
X36400000Y-42097041D01*
X36400000Y-44374961D01*
X36397617Y-44399152D01*
X36374675Y-44514487D01*
X36374675Y-44514491D01*
X36374675Y-44715513D01*
X36374675Y-44715515D01*
X36374674Y-44715515D01*
X36397617Y-44830849D01*
X36400000Y-44855041D01*
X36400000Y-46523935D01*
X36380315Y-46590974D01*
X36376318Y-46596821D01*
X36299993Y-46701872D01*
X36208487Y-46881462D01*
X36146205Y-47073149D01*
X36114675Y-47272218D01*
X36114675Y-47473785D01*
X36146205Y-47672854D01*
X36208487Y-47864541D01*
X36208489Y-47864544D01*
X36299993Y-48044131D01*
X36376318Y-48149184D01*
X36399798Y-48214988D01*
X36400000Y-48222068D01*
X36400000Y-49890961D01*
X36397617Y-49915152D01*
X36374675Y-50030487D01*
X36374675Y-50030491D01*
X36374675Y-50231513D01*
X36374675Y-50231515D01*
X36374674Y-50231515D01*
X36397617Y-50346849D01*
X36400000Y-50371041D01*
X36400000Y-52648961D01*
X36397617Y-52673152D01*
X36374675Y-52788487D01*
X36374675Y-52788491D01*
X36374675Y-52989513D01*
X36374675Y-52989515D01*
X36374674Y-52989515D01*
X36397617Y-53104849D01*
X36400000Y-53129041D01*
X36400000Y-55406961D01*
X36397617Y-55431152D01*
X36374675Y-55546487D01*
X36374675Y-55546491D01*
X36374675Y-55747513D01*
X36374675Y-55747515D01*
X36374674Y-55747515D01*
X36397617Y-55862849D01*
X36400000Y-55887041D01*
X36400000Y-58164961D01*
X36397617Y-58189152D01*
X36374675Y-58304487D01*
X36374675Y-58304491D01*
X36374675Y-58505513D01*
X36374675Y-58505515D01*
X36374674Y-58505515D01*
X36397617Y-58620849D01*
X36400000Y-58645041D01*
X36400000Y-60922961D01*
X36397617Y-60947152D01*
X36374675Y-61062487D01*
X36374675Y-61062491D01*
X36374675Y-61263513D01*
X36374675Y-61263515D01*
X36374674Y-61263515D01*
X36397617Y-61378849D01*
X36400000Y-61403041D01*
X36400000Y-63680961D01*
X36397617Y-63705152D01*
X36374675Y-63820487D01*
X36374675Y-63820491D01*
X36374675Y-64021513D01*
X36374675Y-64021515D01*
X36374674Y-64021515D01*
X36397617Y-64136849D01*
X36400000Y-64161041D01*
X36400000Y-66438961D01*
X36397617Y-66463152D01*
X36374675Y-66578487D01*
X36374675Y-66779517D01*
X36400000Y-66906833D01*
X36400000Y-69209169D01*
X36374675Y-69336486D01*
X36374675Y-69537517D01*
X36400000Y-69664833D01*
X36400000Y-71967169D01*
X36374675Y-72094486D01*
X36374675Y-72295517D01*
X36400000Y-72422833D01*
X36400000Y-74725169D01*
X36374675Y-74852486D01*
X36374675Y-75053517D01*
X36400000Y-75180833D01*
X36400000Y-79833178D01*
X36391707Y-79830956D01*
X36345432Y-79824863D01*
X36114822Y-79794502D01*
X36114815Y-79794502D01*
X35835535Y-79794502D01*
X35835527Y-79794502D01*
X35589408Y-79826905D01*
X35558643Y-79830956D01*
X35491202Y-79849026D01*
X35288876Y-79903239D01*
X35030863Y-80010112D01*
X35030854Y-80010116D01*
X34788987Y-80149758D01*
X34567424Y-80319771D01*
X34369944Y-80517251D01*
X34199931Y-80738814D01*
X34060289Y-80980681D01*
X34060285Y-80980690D01*
X33953412Y-81238703D01*
X33881129Y-81508471D01*
X33844675Y-81785354D01*
X33844675Y-82064649D01*
X33873028Y-82280002D01*
X33881129Y-82341534D01*
X33917270Y-82476416D01*
X33953412Y-82611300D01*
X34060285Y-82869313D01*
X34060289Y-82869322D01*
X34199931Y-83111189D01*
X34369944Y-83332752D01*
X34369952Y-83332761D01*
X34567416Y-83530225D01*
X34567424Y-83530232D01*
X34788987Y-83700245D01*
X34788990Y-83700246D01*
X34788993Y-83700249D01*
X35030857Y-83839889D01*
X35202871Y-83911139D01*
X35288876Y-83946764D01*
X35288877Y-83946764D01*
X35288879Y-83946765D01*
X35558643Y-84019048D01*
X35835535Y-84055502D01*
X35835542Y-84055502D01*
X36114808Y-84055502D01*
X36114815Y-84055502D01*
X36391707Y-84019048D01*
X36400000Y-84016825D01*
X36400000Y-89537627D01*
X36387915Y-89547265D01*
X36197265Y-89737915D01*
X36029161Y-89948712D01*
X35885714Y-90177005D01*
X35768734Y-90419917D01*
X35679687Y-90674397D01*
X35679684Y-90674405D01*
X35619688Y-90937268D01*
X35619686Y-90937280D01*
X35589500Y-91205186D01*
X35589500Y-91474813D01*
X35619686Y-91742719D01*
X35619688Y-91742735D01*
X35666632Y-91948408D01*
X35662359Y-92018146D01*
X35621060Y-92074504D01*
X35555848Y-92099587D01*
X35545741Y-92100000D01*
X27824000Y-92100000D01*
X27756961Y-92080315D01*
X27711206Y-92027511D01*
X27700000Y-91976000D01*
X27700000Y-73473264D01*
X33275175Y-73473264D01*
X33275175Y-73674739D01*
X33306693Y-73873737D01*
X33368950Y-74065348D01*
X33368951Y-74065351D01*
X33460423Y-74244871D01*
X33490017Y-74285604D01*
X33490018Y-74285605D01*
X34055882Y-73719741D01*
X34070612Y-73774714D01*
X34139071Y-73893289D01*
X34235888Y-73990106D01*
X34354463Y-74058565D01*
X34409434Y-74073294D01*
X33843570Y-74639157D01*
X33884308Y-74668755D01*
X34063825Y-74760225D01*
X34063828Y-74760226D01*
X34255439Y-74822483D01*
X34454438Y-74854002D01*
X34655912Y-74854002D01*
X34854910Y-74822483D01*
X35046521Y-74760226D01*
X35046524Y-74760225D01*
X35226041Y-74668755D01*
X35266777Y-74639158D01*
X35266777Y-74639157D01*
X34700914Y-74073294D01*
X34755887Y-74058565D01*
X34874462Y-73990106D01*
X34971279Y-73893289D01*
X35039738Y-73774714D01*
X35054467Y-73719741D01*
X35620330Y-74285604D01*
X35620331Y-74285604D01*
X35649928Y-74244868D01*
X35741398Y-74065351D01*
X35741399Y-74065348D01*
X35803656Y-73873737D01*
X35835175Y-73674739D01*
X35835175Y-73473264D01*
X35803656Y-73274266D01*
X35741399Y-73082655D01*
X35741398Y-73082652D01*
X35649928Y-72903135D01*
X35620330Y-72862398D01*
X35620330Y-72862397D01*
X35054467Y-73428261D01*
X35039738Y-73373290D01*
X34971279Y-73254715D01*
X34874462Y-73157898D01*
X34755887Y-73089439D01*
X34700913Y-73074709D01*
X35266778Y-72508845D01*
X35266777Y-72508844D01*
X35226044Y-72479250D01*
X35046524Y-72387778D01*
X35046521Y-72387777D01*
X34854910Y-72325520D01*
X34655912Y-72294002D01*
X34454438Y-72294002D01*
X34255439Y-72325520D01*
X34063828Y-72387777D01*
X34063825Y-72387778D01*
X33884310Y-72479247D01*
X33884308Y-72479248D01*
X33843571Y-72508844D01*
X33843571Y-72508845D01*
X34409435Y-73074709D01*
X34354463Y-73089439D01*
X34235888Y-73157898D01*
X34139071Y-73254715D01*
X34070612Y-73373290D01*
X34055882Y-73428262D01*
X33490018Y-72862398D01*
X33490017Y-72862398D01*
X33460421Y-72903135D01*
X33460420Y-72903137D01*
X33368951Y-73082652D01*
X33368950Y-73082655D01*
X33306693Y-73274266D01*
X33275175Y-73473264D01*
X27700000Y-73473264D01*
X27700000Y-70715486D01*
X33534675Y-70715486D01*
X33534675Y-70916517D01*
X33573890Y-71113663D01*
X33573893Y-71113675D01*
X33650815Y-71299383D01*
X33650822Y-71299396D01*
X33762500Y-71466532D01*
X33762503Y-71466536D01*
X33904640Y-71608673D01*
X33904644Y-71608676D01*
X34071780Y-71720354D01*
X34071793Y-71720361D01*
X34257501Y-71797283D01*
X34257506Y-71797285D01*
X34454659Y-71836501D01*
X34454663Y-71836502D01*
X34454664Y-71836502D01*
X34655687Y-71836502D01*
X34655688Y-71836501D01*
X34852844Y-71797285D01*
X35038563Y-71720358D01*
X35205706Y-71608676D01*
X35347849Y-71466533D01*
X35459531Y-71299390D01*
X35536458Y-71113671D01*
X35575675Y-70916513D01*
X35575675Y-70715491D01*
X35536458Y-70518333D01*
X35463153Y-70341358D01*
X35459534Y-70332620D01*
X35459527Y-70332607D01*
X35347849Y-70165471D01*
X35347846Y-70165467D01*
X35205709Y-70023330D01*
X35205705Y-70023327D01*
X35038569Y-69911649D01*
X35038556Y-69911642D01*
X34852848Y-69834720D01*
X34852836Y-69834717D01*
X34655690Y-69795502D01*
X34655686Y-69795502D01*
X34454664Y-69795502D01*
X34454659Y-69795502D01*
X34257513Y-69834717D01*
X34257501Y-69834720D01*
X34071793Y-69911642D01*
X34071780Y-69911649D01*
X33904644Y-70023327D01*
X33904640Y-70023330D01*
X33762503Y-70165467D01*
X33762500Y-70165471D01*
X33650822Y-70332607D01*
X33650815Y-70332620D01*
X33573893Y-70518328D01*
X33573890Y-70518340D01*
X33534675Y-70715486D01*
X27700000Y-70715486D01*
X27700000Y-67957264D01*
X33275175Y-67957264D01*
X33275175Y-68158739D01*
X33306693Y-68357737D01*
X33368950Y-68549348D01*
X33368951Y-68549351D01*
X33460423Y-68728871D01*
X33490017Y-68769604D01*
X33490018Y-68769605D01*
X34055882Y-68203741D01*
X34070612Y-68258714D01*
X34139071Y-68377289D01*
X34235888Y-68474106D01*
X34354463Y-68542565D01*
X34409434Y-68557294D01*
X33843570Y-69123157D01*
X33884308Y-69152755D01*
X34063825Y-69244225D01*
X34063828Y-69244226D01*
X34255439Y-69306483D01*
X34454438Y-69338002D01*
X34655912Y-69338002D01*
X34854910Y-69306483D01*
X35046521Y-69244226D01*
X35046524Y-69244225D01*
X35226041Y-69152755D01*
X35266777Y-69123158D01*
X35266777Y-69123157D01*
X34700914Y-68557294D01*
X34755887Y-68542565D01*
X34874462Y-68474106D01*
X34971279Y-68377289D01*
X35039738Y-68258714D01*
X35054467Y-68203741D01*
X35620330Y-68769604D01*
X35620331Y-68769604D01*
X35649928Y-68728868D01*
X35741398Y-68549351D01*
X35741399Y-68549348D01*
X35803656Y-68357737D01*
X35835175Y-68158739D01*
X35835175Y-67957264D01*
X35803656Y-67758266D01*
X35741399Y-67566655D01*
X35741398Y-67566652D01*
X35649928Y-67387135D01*
X35620330Y-67346398D01*
X35620330Y-67346397D01*
X35054467Y-67912261D01*
X35039738Y-67857290D01*
X34971279Y-67738715D01*
X34874462Y-67641898D01*
X34755887Y-67573439D01*
X34700913Y-67558709D01*
X35266778Y-66992845D01*
X35266777Y-66992844D01*
X35226044Y-66963250D01*
X35046524Y-66871778D01*
X35046521Y-66871777D01*
X34854910Y-66809520D01*
X34655912Y-66778002D01*
X34454438Y-66778002D01*
X34255439Y-66809520D01*
X34063828Y-66871777D01*
X34063825Y-66871778D01*
X33884310Y-66963247D01*
X33884308Y-66963248D01*
X33843571Y-66992844D01*
X33843571Y-66992845D01*
X34409435Y-67558709D01*
X34354463Y-67573439D01*
X34235888Y-67641898D01*
X34139071Y-67738715D01*
X34070612Y-67857290D01*
X34055882Y-67912262D01*
X33490018Y-67346398D01*
X33490017Y-67346398D01*
X33460421Y-67387135D01*
X33460420Y-67387137D01*
X33368951Y-67566652D01*
X33368950Y-67566655D01*
X33306693Y-67758266D01*
X33275175Y-67957264D01*
X27700000Y-67957264D01*
X27700000Y-65199486D01*
X33534675Y-65199486D01*
X33534675Y-65400517D01*
X33573890Y-65597663D01*
X33573893Y-65597675D01*
X33650815Y-65783383D01*
X33650822Y-65783396D01*
X33762500Y-65950532D01*
X33762503Y-65950536D01*
X33904640Y-66092673D01*
X33904644Y-66092676D01*
X34071780Y-66204354D01*
X34071793Y-66204361D01*
X34257501Y-66281283D01*
X34257506Y-66281285D01*
X34454659Y-66320501D01*
X34454663Y-66320502D01*
X34454664Y-66320502D01*
X34655687Y-66320502D01*
X34655688Y-66320501D01*
X34852844Y-66281285D01*
X35038563Y-66204358D01*
X35205706Y-66092676D01*
X35347849Y-65950533D01*
X35459531Y-65783390D01*
X35536458Y-65597671D01*
X35575675Y-65400513D01*
X35575675Y-65199491D01*
X35536458Y-65002333D01*
X35463153Y-64825358D01*
X35459534Y-64816620D01*
X35459527Y-64816607D01*
X35347849Y-64649471D01*
X35347846Y-64649467D01*
X35205709Y-64507330D01*
X35205705Y-64507327D01*
X35038569Y-64395649D01*
X35038556Y-64395642D01*
X34852848Y-64318720D01*
X34852836Y-64318717D01*
X34655690Y-64279502D01*
X34655686Y-64279502D01*
X34454664Y-64279502D01*
X34454659Y-64279502D01*
X34257513Y-64318717D01*
X34257501Y-64318720D01*
X34071793Y-64395642D01*
X34071780Y-64395649D01*
X33904644Y-64507327D01*
X33904640Y-64507330D01*
X33762503Y-64649467D01*
X33762500Y-64649471D01*
X33650822Y-64816607D01*
X33650815Y-64816620D01*
X33573893Y-65002328D01*
X33573890Y-65002340D01*
X33534675Y-65199486D01*
X27700000Y-65199486D01*
X27700000Y-62441264D01*
X33275175Y-62441264D01*
X33275175Y-62642739D01*
X33306693Y-62841737D01*
X33368950Y-63033348D01*
X33368951Y-63033351D01*
X33460423Y-63212871D01*
X33490017Y-63253604D01*
X33490018Y-63253605D01*
X34055882Y-62687741D01*
X34070612Y-62742714D01*
X34139071Y-62861289D01*
X34235888Y-62958106D01*
X34354463Y-63026565D01*
X34409434Y-63041294D01*
X33843570Y-63607157D01*
X33884308Y-63636755D01*
X34063825Y-63728225D01*
X34063828Y-63728226D01*
X34255439Y-63790483D01*
X34454438Y-63822002D01*
X34655912Y-63822002D01*
X34854910Y-63790483D01*
X35046521Y-63728226D01*
X35046524Y-63728225D01*
X35226041Y-63636755D01*
X35266777Y-63607158D01*
X35266777Y-63607157D01*
X34700914Y-63041294D01*
X34755887Y-63026565D01*
X34874462Y-62958106D01*
X34971279Y-62861289D01*
X35039738Y-62742714D01*
X35054467Y-62687741D01*
X35620330Y-63253604D01*
X35620331Y-63253604D01*
X35649928Y-63212868D01*
X35741398Y-63033351D01*
X35741399Y-63033348D01*
X35803656Y-62841737D01*
X35835175Y-62642739D01*
X35835175Y-62441264D01*
X35803656Y-62242266D01*
X35741399Y-62050655D01*
X35741398Y-62050652D01*
X35649928Y-61871135D01*
X35620330Y-61830398D01*
X35620330Y-61830397D01*
X35054467Y-62396261D01*
X35039738Y-62341290D01*
X34971279Y-62222715D01*
X34874462Y-62125898D01*
X34755887Y-62057439D01*
X34700913Y-62042709D01*
X35266778Y-61476845D01*
X35266777Y-61476844D01*
X35226044Y-61447250D01*
X35046524Y-61355778D01*
X35046521Y-61355777D01*
X34854910Y-61293520D01*
X34655912Y-61262002D01*
X34454438Y-61262002D01*
X34255439Y-61293520D01*
X34063828Y-61355777D01*
X34063825Y-61355778D01*
X33884310Y-61447247D01*
X33884308Y-61447248D01*
X33843571Y-61476844D01*
X33843571Y-61476845D01*
X34409435Y-62042709D01*
X34354463Y-62057439D01*
X34235888Y-62125898D01*
X34139071Y-62222715D01*
X34070612Y-62341290D01*
X34055882Y-62396262D01*
X33490018Y-61830398D01*
X33490017Y-61830398D01*
X33460421Y-61871135D01*
X33460420Y-61871137D01*
X33368951Y-62050652D01*
X33368950Y-62050655D01*
X33306693Y-62242266D01*
X33275175Y-62441264D01*
X27700000Y-62441264D01*
X27700000Y-59683486D01*
X33534675Y-59683486D01*
X33534675Y-59884517D01*
X33573890Y-60081663D01*
X33573893Y-60081675D01*
X33650815Y-60267383D01*
X33650822Y-60267396D01*
X33762500Y-60434532D01*
X33762503Y-60434536D01*
X33904640Y-60576673D01*
X33904644Y-60576676D01*
X34071780Y-60688354D01*
X34071793Y-60688361D01*
X34257501Y-60765283D01*
X34257506Y-60765285D01*
X34454659Y-60804501D01*
X34454663Y-60804502D01*
X34454664Y-60804502D01*
X34655687Y-60804502D01*
X34655688Y-60804501D01*
X34852844Y-60765285D01*
X35038563Y-60688358D01*
X35205706Y-60576676D01*
X35347849Y-60434533D01*
X35459531Y-60267390D01*
X35536458Y-60081671D01*
X35575675Y-59884513D01*
X35575675Y-59683491D01*
X35536458Y-59486333D01*
X35463153Y-59309358D01*
X35459534Y-59300620D01*
X35459527Y-59300607D01*
X35347849Y-59133471D01*
X35347846Y-59133467D01*
X35205709Y-58991330D01*
X35205705Y-58991327D01*
X35038569Y-58879649D01*
X35038556Y-58879642D01*
X34852848Y-58802720D01*
X34852836Y-58802717D01*
X34655690Y-58763502D01*
X34655686Y-58763502D01*
X34454664Y-58763502D01*
X34454659Y-58763502D01*
X34257513Y-58802717D01*
X34257501Y-58802720D01*
X34071793Y-58879642D01*
X34071780Y-58879649D01*
X33904644Y-58991327D01*
X33904640Y-58991330D01*
X33762503Y-59133467D01*
X33762500Y-59133471D01*
X33650822Y-59300607D01*
X33650815Y-59300620D01*
X33573893Y-59486328D01*
X33573890Y-59486340D01*
X33534675Y-59683486D01*
X27700000Y-59683486D01*
X27700000Y-56925264D01*
X33275175Y-56925264D01*
X33275175Y-57126739D01*
X33306693Y-57325737D01*
X33368950Y-57517348D01*
X33368951Y-57517351D01*
X33460423Y-57696871D01*
X33490017Y-57737604D01*
X33490018Y-57737605D01*
X34055882Y-57171741D01*
X34070612Y-57226714D01*
X34139071Y-57345289D01*
X34235888Y-57442106D01*
X34354463Y-57510565D01*
X34409434Y-57525294D01*
X33843570Y-58091157D01*
X33884308Y-58120755D01*
X34063825Y-58212225D01*
X34063828Y-58212226D01*
X34255439Y-58274483D01*
X34454438Y-58306002D01*
X34655912Y-58306002D01*
X34854910Y-58274483D01*
X35046521Y-58212226D01*
X35046524Y-58212225D01*
X35226041Y-58120755D01*
X35266777Y-58091158D01*
X35266777Y-58091157D01*
X34700914Y-57525294D01*
X34755887Y-57510565D01*
X34874462Y-57442106D01*
X34971279Y-57345289D01*
X35039738Y-57226714D01*
X35054467Y-57171741D01*
X35620330Y-57737604D01*
X35620331Y-57737604D01*
X35649928Y-57696868D01*
X35741398Y-57517351D01*
X35741399Y-57517348D01*
X35803656Y-57325737D01*
X35835175Y-57126739D01*
X35835175Y-56925264D01*
X35803656Y-56726266D01*
X35741399Y-56534655D01*
X35741398Y-56534652D01*
X35649928Y-56355135D01*
X35620330Y-56314398D01*
X35620330Y-56314397D01*
X35054467Y-56880261D01*
X35039738Y-56825290D01*
X34971279Y-56706715D01*
X34874462Y-56609898D01*
X34755887Y-56541439D01*
X34700913Y-56526709D01*
X35266778Y-55960845D01*
X35266777Y-55960844D01*
X35226044Y-55931250D01*
X35046524Y-55839778D01*
X35046521Y-55839777D01*
X34854910Y-55777520D01*
X34655912Y-55746002D01*
X34454438Y-55746002D01*
X34255439Y-55777520D01*
X34063828Y-55839777D01*
X34063825Y-55839778D01*
X33884310Y-55931247D01*
X33884308Y-55931248D01*
X33843571Y-55960844D01*
X33843571Y-55960845D01*
X34409435Y-56526709D01*
X34354463Y-56541439D01*
X34235888Y-56609898D01*
X34139071Y-56706715D01*
X34070612Y-56825290D01*
X34055882Y-56880262D01*
X33490018Y-56314398D01*
X33490017Y-56314398D01*
X33460421Y-56355135D01*
X33460420Y-56355137D01*
X33368951Y-56534652D01*
X33368950Y-56534655D01*
X33306693Y-56726266D01*
X33275175Y-56925264D01*
X27700000Y-56925264D01*
X27700000Y-54167486D01*
X33534675Y-54167486D01*
X33534675Y-54368517D01*
X33573890Y-54565663D01*
X33573893Y-54565675D01*
X33650815Y-54751383D01*
X33650822Y-54751396D01*
X33762500Y-54918532D01*
X33762503Y-54918536D01*
X33904640Y-55060673D01*
X33904644Y-55060676D01*
X34071780Y-55172354D01*
X34071793Y-55172361D01*
X34257501Y-55249283D01*
X34257506Y-55249285D01*
X34454659Y-55288501D01*
X34454663Y-55288502D01*
X34454664Y-55288502D01*
X34655687Y-55288502D01*
X34655688Y-55288501D01*
X34852844Y-55249285D01*
X35038563Y-55172358D01*
X35205706Y-55060676D01*
X35347849Y-54918533D01*
X35459531Y-54751390D01*
X35536458Y-54565671D01*
X35575675Y-54368513D01*
X35575675Y-54167491D01*
X35536458Y-53970333D01*
X35463153Y-53793358D01*
X35459534Y-53784620D01*
X35459527Y-53784607D01*
X35347849Y-53617471D01*
X35347846Y-53617467D01*
X35205709Y-53475330D01*
X35205705Y-53475327D01*
X35038569Y-53363649D01*
X35038556Y-53363642D01*
X34852848Y-53286720D01*
X34852836Y-53286717D01*
X34655690Y-53247502D01*
X34655686Y-53247502D01*
X34454664Y-53247502D01*
X34454659Y-53247502D01*
X34257513Y-53286717D01*
X34257501Y-53286720D01*
X34071793Y-53363642D01*
X34071780Y-53363649D01*
X33904644Y-53475327D01*
X33904640Y-53475330D01*
X33762503Y-53617467D01*
X33762500Y-53617471D01*
X33650822Y-53784607D01*
X33650815Y-53784620D01*
X33573893Y-53970328D01*
X33573890Y-53970340D01*
X33534675Y-54167486D01*
X27700000Y-54167486D01*
X27700000Y-51409264D01*
X33275175Y-51409264D01*
X33275175Y-51610739D01*
X33306693Y-51809737D01*
X33368950Y-52001348D01*
X33368951Y-52001351D01*
X33460423Y-52180871D01*
X33490017Y-52221604D01*
X33490018Y-52221605D01*
X34055882Y-51655741D01*
X34070612Y-51710714D01*
X34139071Y-51829289D01*
X34235888Y-51926106D01*
X34354463Y-51994565D01*
X34409434Y-52009294D01*
X33843570Y-52575157D01*
X33884308Y-52604755D01*
X34063825Y-52696225D01*
X34063828Y-52696226D01*
X34255439Y-52758483D01*
X34454438Y-52790002D01*
X34655912Y-52790002D01*
X34854910Y-52758483D01*
X35046521Y-52696226D01*
X35046524Y-52696225D01*
X35226041Y-52604755D01*
X35266777Y-52575158D01*
X35266777Y-52575157D01*
X34700914Y-52009294D01*
X34755887Y-51994565D01*
X34874462Y-51926106D01*
X34971279Y-51829289D01*
X35039738Y-51710714D01*
X35054467Y-51655741D01*
X35620330Y-52221604D01*
X35620331Y-52221604D01*
X35649928Y-52180868D01*
X35741398Y-52001351D01*
X35741399Y-52001348D01*
X35803656Y-51809737D01*
X35835175Y-51610739D01*
X35835175Y-51409264D01*
X35803656Y-51210266D01*
X35741399Y-51018655D01*
X35741398Y-51018652D01*
X35649928Y-50839135D01*
X35620330Y-50798398D01*
X35620330Y-50798397D01*
X35054467Y-51364261D01*
X35039738Y-51309290D01*
X34971279Y-51190715D01*
X34874462Y-51093898D01*
X34755887Y-51025439D01*
X34700913Y-51010709D01*
X35266778Y-50444845D01*
X35266777Y-50444844D01*
X35226044Y-50415250D01*
X35046524Y-50323778D01*
X35046521Y-50323777D01*
X34854910Y-50261520D01*
X34655912Y-50230002D01*
X34454438Y-50230002D01*
X34255439Y-50261520D01*
X34063828Y-50323777D01*
X34063825Y-50323778D01*
X33884310Y-50415247D01*
X33884308Y-50415248D01*
X33843571Y-50444844D01*
X33843571Y-50444845D01*
X34409435Y-51010709D01*
X34354463Y-51025439D01*
X34235888Y-51093898D01*
X34139071Y-51190715D01*
X34070612Y-51309290D01*
X34055882Y-51364262D01*
X33490018Y-50798398D01*
X33490017Y-50798398D01*
X33460421Y-50839135D01*
X33460420Y-50839137D01*
X33368951Y-51018652D01*
X33368950Y-51018655D01*
X33306693Y-51210266D01*
X33275175Y-51409264D01*
X27700000Y-51409264D01*
X27700000Y-48651486D01*
X33534675Y-48651486D01*
X33534675Y-48852517D01*
X33573890Y-49049663D01*
X33573893Y-49049675D01*
X33650815Y-49235383D01*
X33650822Y-49235396D01*
X33762500Y-49402532D01*
X33762503Y-49402536D01*
X33904640Y-49544673D01*
X33904644Y-49544676D01*
X34071780Y-49656354D01*
X34071793Y-49656361D01*
X34257501Y-49733283D01*
X34257506Y-49733285D01*
X34454659Y-49772501D01*
X34454663Y-49772502D01*
X34454664Y-49772502D01*
X34655687Y-49772502D01*
X34655688Y-49772501D01*
X34852844Y-49733285D01*
X35038563Y-49656358D01*
X35205706Y-49544676D01*
X35347849Y-49402533D01*
X35459531Y-49235390D01*
X35536458Y-49049671D01*
X35575675Y-48852513D01*
X35575675Y-48651491D01*
X35536458Y-48454333D01*
X35536126Y-48453532D01*
X35459534Y-48268620D01*
X35459527Y-48268607D01*
X35347849Y-48101471D01*
X35347846Y-48101467D01*
X35205709Y-47959330D01*
X35205705Y-47959327D01*
X35038569Y-47847649D01*
X35038556Y-47847642D01*
X34852848Y-47770720D01*
X34852836Y-47770717D01*
X34655690Y-47731502D01*
X34655686Y-47731502D01*
X34454664Y-47731502D01*
X34454659Y-47731502D01*
X34257513Y-47770717D01*
X34257501Y-47770720D01*
X34071793Y-47847642D01*
X34071780Y-47847649D01*
X33904644Y-47959327D01*
X33904640Y-47959330D01*
X33762503Y-48101467D01*
X33762500Y-48101471D01*
X33650822Y-48268607D01*
X33650815Y-48268620D01*
X33573893Y-48454328D01*
X33573890Y-48454340D01*
X33534675Y-48651486D01*
X27700000Y-48651486D01*
X27700000Y-45893264D01*
X33275175Y-45893264D01*
X33275175Y-46094739D01*
X33306693Y-46293737D01*
X33368950Y-46485348D01*
X33368951Y-46485351D01*
X33460423Y-46664871D01*
X33490017Y-46705604D01*
X33490018Y-46705605D01*
X34055882Y-46139741D01*
X34070612Y-46194714D01*
X34139071Y-46313289D01*
X34235888Y-46410106D01*
X34354463Y-46478565D01*
X34409434Y-46493294D01*
X33843570Y-47059157D01*
X33884308Y-47088755D01*
X34063825Y-47180225D01*
X34063828Y-47180226D01*
X34255439Y-47242483D01*
X34454438Y-47274002D01*
X34655912Y-47274002D01*
X34854910Y-47242483D01*
X35046521Y-47180226D01*
X35046524Y-47180225D01*
X35226041Y-47088755D01*
X35266777Y-47059158D01*
X35266777Y-47059157D01*
X34700914Y-46493294D01*
X34755887Y-46478565D01*
X34874462Y-46410106D01*
X34971279Y-46313289D01*
X35039738Y-46194714D01*
X35054467Y-46139741D01*
X35620330Y-46705604D01*
X35620331Y-46705604D01*
X35649928Y-46664868D01*
X35741398Y-46485351D01*
X35741399Y-46485348D01*
X35803656Y-46293737D01*
X35835175Y-46094739D01*
X35835175Y-45893264D01*
X35803656Y-45694266D01*
X35741399Y-45502655D01*
X35741398Y-45502652D01*
X35649928Y-45323135D01*
X35620330Y-45282398D01*
X35620330Y-45282397D01*
X35054467Y-45848261D01*
X35039738Y-45793290D01*
X34971279Y-45674715D01*
X34874462Y-45577898D01*
X34755887Y-45509439D01*
X34700913Y-45494709D01*
X35266778Y-44928845D01*
X35266777Y-44928844D01*
X35226044Y-44899250D01*
X35046524Y-44807778D01*
X35046521Y-44807777D01*
X34854910Y-44745520D01*
X34655912Y-44714002D01*
X34454438Y-44714002D01*
X34255439Y-44745520D01*
X34063828Y-44807777D01*
X34063825Y-44807778D01*
X33884310Y-44899247D01*
X33884308Y-44899248D01*
X33843571Y-44928844D01*
X33843571Y-44928845D01*
X34409435Y-45494709D01*
X34354463Y-45509439D01*
X34235888Y-45577898D01*
X34139071Y-45674715D01*
X34070612Y-45793290D01*
X34055882Y-45848262D01*
X33490018Y-45282398D01*
X33490017Y-45282398D01*
X33460421Y-45323135D01*
X33460420Y-45323137D01*
X33368951Y-45502652D01*
X33368950Y-45502655D01*
X33306693Y-45694266D01*
X33275175Y-45893264D01*
X27700000Y-45893264D01*
X27700000Y-43135486D01*
X33534675Y-43135486D01*
X33534675Y-43336517D01*
X33573890Y-43533663D01*
X33573893Y-43533675D01*
X33650815Y-43719383D01*
X33650822Y-43719396D01*
X33762500Y-43886532D01*
X33762503Y-43886536D01*
X33904640Y-44028673D01*
X33904644Y-44028676D01*
X34071780Y-44140354D01*
X34071793Y-44140361D01*
X34257501Y-44217283D01*
X34257506Y-44217285D01*
X34454659Y-44256501D01*
X34454663Y-44256502D01*
X34454664Y-44256502D01*
X34655687Y-44256502D01*
X34655688Y-44256501D01*
X34852844Y-44217285D01*
X35038563Y-44140358D01*
X35205706Y-44028676D01*
X35347849Y-43886533D01*
X35459531Y-43719390D01*
X35536458Y-43533671D01*
X35575675Y-43336513D01*
X35575675Y-43135491D01*
X35536458Y-42938333D01*
X35463153Y-42761358D01*
X35459534Y-42752620D01*
X35459527Y-42752607D01*
X35347849Y-42585471D01*
X35347846Y-42585467D01*
X35205709Y-42443330D01*
X35205705Y-42443327D01*
X35038569Y-42331649D01*
X35038556Y-42331642D01*
X34852848Y-42254720D01*
X34852836Y-42254717D01*
X34655690Y-42215502D01*
X34655686Y-42215502D01*
X34454664Y-42215502D01*
X34454659Y-42215502D01*
X34257513Y-42254717D01*
X34257501Y-42254720D01*
X34071793Y-42331642D01*
X34071780Y-42331649D01*
X33904644Y-42443327D01*
X33904640Y-42443330D01*
X33762503Y-42585467D01*
X33762500Y-42585471D01*
X33650822Y-42752607D01*
X33650815Y-42752620D01*
X33573893Y-42938328D01*
X33573890Y-42938340D01*
X33534675Y-43135486D01*
X27700000Y-43135486D01*
X27700000Y-24124000D01*
X27719685Y-24056961D01*
X27772489Y-24011206D01*
X27824000Y-24000000D01*
X35863108Y-24000000D01*
X35930147Y-24019685D01*
G37*
%TD.AperFunction*%
%TD*%
%TA.AperFunction,Conductor*%
%TO.N,+5V*%
G36*
X75582999Y-63019514D02*
G01*
X75627057Y-63047726D01*
X78577871Y-65979168D01*
X78611558Y-66040381D01*
X78606803Y-66110089D01*
X78565116Y-66166160D01*
X78499732Y-66190792D01*
X78490887Y-66191137D01*
X72589195Y-66210573D01*
X72522091Y-66191110D01*
X72476163Y-66138457D01*
X72465992Y-66069331D01*
X72494807Y-66005680D01*
X72501093Y-65998906D01*
X75451986Y-63048013D01*
X75513307Y-63014530D01*
X75582999Y-63019514D01*
G37*
%TD.AperFunction*%
%TD*%
%TA.AperFunction,Conductor*%
%TO.N,/USB_VBUSF*%
G36*
X71097912Y-28202236D02*
G01*
X71105749Y-28200967D01*
X71130958Y-28211940D01*
X71157334Y-28219685D01*
X71164164Y-28226394D01*
X71169813Y-28228853D01*
X71193394Y-28255106D01*
X71217984Y-28291907D01*
X71249900Y-28339673D01*
X71340502Y-28430275D01*
X71340506Y-28430278D01*
X71447041Y-28501463D01*
X71447047Y-28501466D01*
X71447048Y-28501467D01*
X71565431Y-28550503D01*
X71565435Y-28550503D01*
X71565436Y-28550504D01*
X71691103Y-28575502D01*
X71691106Y-28575502D01*
X71819246Y-28575502D01*
X71903790Y-28558684D01*
X71944919Y-28550503D01*
X72063302Y-28501467D01*
X72169844Y-28430278D01*
X72260451Y-28339671D01*
X72316953Y-28255108D01*
X72370564Y-28210304D01*
X72420055Y-28200000D01*
X74209584Y-28200000D01*
X74276623Y-28219685D01*
X74322378Y-28272489D01*
X74329359Y-28291907D01*
X74358894Y-28402136D01*
X74375142Y-28430278D01*
X74434660Y-28533365D01*
X74541810Y-28640515D01*
X74673040Y-28716281D01*
X74819409Y-28755500D01*
X74819411Y-28755500D01*
X74970939Y-28755500D01*
X74970941Y-28755500D01*
X75117310Y-28716281D01*
X75248540Y-28640515D01*
X75312994Y-28576061D01*
X75374317Y-28542576D01*
X75444009Y-28547560D01*
X75499942Y-28589432D01*
X75524359Y-28654896D01*
X75524675Y-28663742D01*
X75524675Y-29308846D01*
X75555436Y-29463489D01*
X75555438Y-29463497D01*
X75590561Y-29548291D01*
X75600000Y-29595744D01*
X75600000Y-32484114D01*
X75580315Y-32551153D01*
X75527511Y-32596908D01*
X75458353Y-32606852D01*
X75443913Y-32603890D01*
X75334232Y-32574501D01*
X75176118Y-32574501D01*
X75168522Y-32574501D01*
X75168506Y-32574502D01*
X73484941Y-32574502D01*
X73417902Y-32554817D01*
X73416050Y-32553604D01*
X73284360Y-32465611D01*
X73284347Y-32465604D01*
X73138676Y-32405266D01*
X73138664Y-32405263D01*
X72984020Y-32374502D01*
X72984017Y-32374502D01*
X72826333Y-32374502D01*
X72826330Y-32374502D01*
X72671685Y-32405263D01*
X72671673Y-32405266D01*
X72526002Y-32465604D01*
X72525989Y-32465611D01*
X72394886Y-32553212D01*
X72394882Y-32553215D01*
X72283388Y-32664709D01*
X72283385Y-32664713D01*
X72195784Y-32795816D01*
X72195777Y-32795829D01*
X72135439Y-32941500D01*
X72135436Y-32941512D01*
X72104675Y-33096155D01*
X72104675Y-33174905D01*
X72084990Y-33241944D01*
X72068356Y-33262586D01*
X71792759Y-33538183D01*
X71731436Y-33571668D01*
X71705078Y-33574502D01*
X68824000Y-33574502D01*
X68756961Y-33554817D01*
X68711206Y-33502013D01*
X68700000Y-33450502D01*
X68700000Y-30664071D01*
X71604674Y-30664071D01*
X71629672Y-30789738D01*
X71629674Y-30789744D01*
X71678708Y-30908124D01*
X71678713Y-30908133D01*
X71749898Y-31014668D01*
X71749901Y-31014672D01*
X71840502Y-31105273D01*
X71840506Y-31105276D01*
X71947041Y-31176461D01*
X71947047Y-31176464D01*
X71947048Y-31176465D01*
X72065431Y-31225501D01*
X72065435Y-31225501D01*
X72065436Y-31225502D01*
X72191103Y-31250500D01*
X72191106Y-31250500D01*
X72319246Y-31250500D01*
X72403790Y-31233682D01*
X72444919Y-31225501D01*
X72563302Y-31176465D01*
X72669844Y-31105276D01*
X72760451Y-31014669D01*
X72831640Y-30908127D01*
X72880676Y-30789744D01*
X72905675Y-30664069D01*
X72905675Y-30535931D01*
X72905675Y-30535928D01*
X72880677Y-30410261D01*
X72880676Y-30410260D01*
X72880676Y-30410256D01*
X72831640Y-30291873D01*
X72831639Y-30291872D01*
X72831636Y-30291866D01*
X72760451Y-30185331D01*
X72760448Y-30185327D01*
X72669847Y-30094726D01*
X72669843Y-30094723D01*
X72563308Y-30023538D01*
X72563299Y-30023533D01*
X72444919Y-29974499D01*
X72444913Y-29974497D01*
X72319246Y-29949500D01*
X72319244Y-29949500D01*
X72191106Y-29949500D01*
X72191104Y-29949500D01*
X72065436Y-29974497D01*
X72065430Y-29974499D01*
X71947050Y-30023533D01*
X71947041Y-30023538D01*
X71840506Y-30094723D01*
X71840502Y-30094726D01*
X71749901Y-30185327D01*
X71749898Y-30185331D01*
X71678713Y-30291866D01*
X71678708Y-30291875D01*
X71629674Y-30410255D01*
X71629672Y-30410261D01*
X71604675Y-30535928D01*
X71604675Y-30535931D01*
X71604675Y-30664069D01*
X71604675Y-30664071D01*
X71604674Y-30664071D01*
X68700000Y-30664071D01*
X68700000Y-28819603D01*
X68719685Y-28752564D01*
X68772489Y-28706809D01*
X68841647Y-28696865D01*
X68886002Y-28712217D01*
X68893040Y-28716281D01*
X69039409Y-28755500D01*
X69039411Y-28755500D01*
X69190939Y-28755500D01*
X69190941Y-28755500D01*
X69337310Y-28716281D01*
X69468540Y-28640515D01*
X69575690Y-28533365D01*
X69651456Y-28402135D01*
X69680991Y-28291906D01*
X69717356Y-28232246D01*
X69780203Y-28201717D01*
X69800766Y-28200000D01*
X71090295Y-28200000D01*
X71097912Y-28202236D01*
G37*
%TD.AperFunction*%
%TD*%
M02*
