%TF.GenerationSoftware,KiCad,Pcbnew,10.0.1*%
%TF.CreationDate,2026-05-16T10:44:46-07:00*%
%TF.ProjectId,DarkMagic,4461726b-4d61-4676-9963-2e6b69636164,rev?*%
%TF.SameCoordinates,Original*%
%TF.FileFunction,Soldermask,Bot*%
%TF.FilePolarity,Negative*%
%FSLAX46Y46*%
G04 Gerber Fmt 4.6, Leading zero omitted, Abs format (unit mm)*
G04 Created by KiCad (PCBNEW 10.0.1) date 2026-05-16 10:44:46*
%MOMM*%
%LPD*%
G01*
G04 APERTURE LIST*
G04 Aperture macros list*
%AMRoundRect*
0 Rectangle with rounded corners*
0 $1 Rounding radius*
0 $2 $3 $4 $5 $6 $7 $8 $9 X,Y pos of 4 corners*
0 Add a 4 corners polygon primitive as box body*
4,1,4,$2,$3,$4,$5,$6,$7,$8,$9,$2,$3,0*
0 Add four circle primitives for the rounded corners*
1,1,$1+$1,$2,$3*
1,1,$1+$1,$4,$5*
1,1,$1+$1,$6,$7*
1,1,$1+$1,$8,$9*
0 Add four rect primitives between the rounded corners*
20,1,$1+$1,$2,$3,$4,$5,0*
20,1,$1+$1,$4,$5,$6,$7,0*
20,1,$1+$1,$6,$7,$8,$9,0*
20,1,$1+$1,$8,$9,$2,$3,0*%
G04 Aperture macros list end*
%ADD10C,3.800000*%
%ADD11C,0.650000*%
%ADD12O,1.000000X2.100000*%
%ADD13O,1.000000X1.800000*%
%ADD14R,3.300000X6.600000*%
%ADD15O,3.300000X6.600000*%
%ADD16R,1.800000X1.800000*%
%ADD17C,1.800000*%
%ADD18C,1.560000*%
%ADD19C,4.890000*%
%ADD20C,3.250000*%
%ADD21C,1.500000*%
%ADD22RoundRect,0.250500X0.499500X0.499500X-0.499500X0.499500X-0.499500X-0.499500X0.499500X-0.499500X0*%
%ADD23C,2.500000*%
G04 APERTURE END LIST*
D10*
%TO.C,H1*%
X172090000Y-91400000D03*
%TD*%
D11*
%TO.C,J1*%
X74895000Y-28205000D03*
X69115000Y-28205000D03*
D12*
X76325000Y-28705000D03*
D13*
X76325000Y-24525000D03*
D12*
X67685000Y-28705000D03*
D13*
X67685000Y-24525000D03*
%TD*%
D14*
%TO.C,J4*%
X84475175Y-81425002D03*
D15*
X94475175Y-81425002D03*
%TD*%
D10*
%TO.C,H4*%
X105200000Y-78300000D03*
%TD*%
D16*
%TO.C,J7*%
X104050000Y-86350000D03*
D17*
X106550000Y-86350000D03*
%TD*%
D18*
%TO.C,J6*%
X172635175Y-75110002D03*
X172635175Y-72352002D03*
X172635175Y-69594002D03*
X172635175Y-66836002D03*
X172635175Y-64078002D03*
X172635175Y-61320002D03*
X172635175Y-58562002D03*
X172635175Y-55804002D03*
X172635175Y-53046002D03*
X172635175Y-50288002D03*
X172635175Y-47530002D03*
X172635175Y-44772002D03*
X172635175Y-42014002D03*
X175475175Y-73731002D03*
X175475175Y-70973002D03*
X175475175Y-68215002D03*
X175475175Y-65457002D03*
X175475175Y-62699002D03*
X175475175Y-59941002D03*
X175475175Y-57183002D03*
X175475175Y-54425002D03*
X175475175Y-51667002D03*
X175475175Y-48909002D03*
X175475175Y-46151002D03*
X175475175Y-43393002D03*
D19*
X174055175Y-35042002D03*
X174055175Y-82082002D03*
%TD*%
D10*
%TO.C,H5*%
X37980000Y-25500000D03*
%TD*%
%TO.C,H3*%
X172100000Y-25600000D03*
%TD*%
%TO.C,H6*%
X37990000Y-91340000D03*
%TD*%
D18*
%TO.C,J3*%
X37395175Y-41857002D03*
X37395175Y-44615002D03*
X37395175Y-47373002D03*
X37395175Y-50131002D03*
X37395175Y-52889002D03*
X37395175Y-55647002D03*
X37395175Y-58405002D03*
X37395175Y-61163002D03*
X37395175Y-63921002D03*
X37395175Y-66679002D03*
X37395175Y-69437002D03*
X37395175Y-72195002D03*
X37395175Y-74953002D03*
X34555175Y-43236002D03*
X34555175Y-45994002D03*
X34555175Y-48752002D03*
X34555175Y-51510002D03*
X34555175Y-54268002D03*
X34555175Y-57026002D03*
X34555175Y-59784002D03*
X34555175Y-62542002D03*
X34555175Y-65300002D03*
X34555175Y-68058002D03*
X34555175Y-70816002D03*
X34555175Y-73574002D03*
D19*
X35975175Y-81925002D03*
X35975175Y-34885002D03*
%TD*%
D20*
%TO.C,J2*%
X163505175Y-33425002D03*
D21*
X154610175Y-39785002D03*
D20*
X152075175Y-33425002D03*
D22*
X162230175Y-39785002D03*
D21*
X160970175Y-42325002D03*
X159690175Y-39785002D03*
X158430175Y-42325002D03*
X157150175Y-39785002D03*
X155890175Y-42325002D03*
X153350175Y-42325002D03*
X164415175Y-28525002D03*
X161875175Y-28525002D03*
X153705175Y-28525002D03*
X151165175Y-28525002D03*
D23*
X165535175Y-36475002D03*
X150045175Y-36475002D03*
%TD*%
D14*
%TO.C,J5*%
X115475175Y-81425002D03*
D15*
X125475175Y-81425002D03*
%TD*%
M02*
