%TF.GenerationSoftware,KiCad,Pcbnew,10.0.1*%
%TF.CreationDate,2026-05-16T10:44:45-07:00*%
%TF.ProjectId,DarkMagic,4461726b-4d61-4676-9963-2e6b69636164,rev?*%
%TF.SameCoordinates,Original*%
%TF.FileFunction,Copper,L1,Top*%
%TF.FilePolarity,Positive*%
%FSLAX46Y46*%
G04 Gerber Fmt 4.6, Leading zero omitted, Abs format (unit mm)*
G04 Created by KiCad (PCBNEW 10.0.1) date 2026-05-16 10:44:45*
%MOMM*%
%LPD*%
G01*
G04 APERTURE LIST*
G04 Aperture macros list*
%AMRoundRect*
0 Rectangle with rounded corners*
0 $1 Rounding radius*
0 $2 $3 $4 $5 $6 $7 $8 $9 X,Y pos of 4 corners*
0 Add a 4 corners polygon primitive as box body*
4,1,4,$2,$3,$4,$5,$6,$7,$8,$9,$2,$3,0*
0 Add four circle primitives for the rounded corners*
1,1,$1+$1,$2,$3*
1,1,$1+$1,$4,$5*
1,1,$1+$1,$6,$7*
1,1,$1+$1,$8,$9*
0 Add four rect primitives between the rounded corners*
20,1,$1+$1,$2,$3,$4,$5,0*
20,1,$1+$1,$4,$5,$6,$7,0*
20,1,$1+$1,$6,$7,$8,$9,0*
20,1,$1+$1,$8,$9,$2,$3,0*%
G04 Aperture macros list end*
%TA.AperFunction,SMDPad,CuDef*%
%ADD10RoundRect,0.250000X0.350000X0.450000X-0.350000X0.450000X-0.350000X-0.450000X0.350000X-0.450000X0*%
%TD*%
%TA.AperFunction,SMDPad,CuDef*%
%ADD11RoundRect,0.250000X-0.337500X-0.475000X0.337500X-0.475000X0.337500X0.475000X-0.337500X0.475000X0*%
%TD*%
%TA.AperFunction,SMDPad,CuDef*%
%ADD12RoundRect,0.250000X-0.350000X-0.450000X0.350000X-0.450000X0.350000X0.450000X-0.350000X0.450000X0*%
%TD*%
%TA.AperFunction,SMDPad,CuDef*%
%ADD13RoundRect,0.250000X0.450000X-0.350000X0.450000X0.350000X-0.450000X0.350000X-0.450000X-0.350000X0*%
%TD*%
%TA.AperFunction,SMDPad,CuDef*%
%ADD14RoundRect,0.250000X-0.475000X0.337500X-0.475000X-0.337500X0.475000X-0.337500X0.475000X0.337500X0*%
%TD*%
%TA.AperFunction,SMDPad,CuDef*%
%ADD15R,2.100000X2.150000*%
%TD*%
%TA.AperFunction,ComponentPad*%
%ADD16C,3.800000*%
%TD*%
%TA.AperFunction,SMDPad,CuDef*%
%ADD17RoundRect,0.150000X0.150000X0.425000X-0.150000X0.425000X-0.150000X-0.425000X0.150000X-0.425000X0*%
%TD*%
%TA.AperFunction,SMDPad,CuDef*%
%ADD18RoundRect,0.075000X0.075000X0.500000X-0.075000X0.500000X-0.075000X-0.500000X0.075000X-0.500000X0*%
%TD*%
%TA.AperFunction,ComponentPad*%
%ADD19O,1.000000X2.100000*%
%TD*%
%TA.AperFunction,ComponentPad*%
%ADD20O,1.000000X1.800000*%
%TD*%
%TA.AperFunction,SMDPad,CuDef*%
%ADD21R,1.400000X0.950000*%
%TD*%
%TA.AperFunction,ComponentPad*%
%ADD22R,3.300000X6.600000*%
%TD*%
%TA.AperFunction,ComponentPad*%
%ADD23O,3.300000X6.600000*%
%TD*%
%TA.AperFunction,SMDPad,CuDef*%
%ADD24R,2.350000X1.550000*%
%TD*%
%TA.AperFunction,SMDPad,CuDef*%
%ADD25RoundRect,0.250000X-0.450000X0.350000X-0.450000X-0.350000X0.450000X-0.350000X0.450000X0.350000X0*%
%TD*%
%TA.AperFunction,SMDPad,CuDef*%
%ADD26C,3.000000*%
%TD*%
%TA.AperFunction,SMDPad,CuDef*%
%ADD27R,1.100000X1.300000*%
%TD*%
%TA.AperFunction,SMDPad,CuDef*%
%ADD28R,1.700000X0.800000*%
%TD*%
%TA.AperFunction,SMDPad,CuDef*%
%ADD29RoundRect,0.250001X-2.049999X-0.799999X2.049999X-0.799999X2.049999X0.799999X-2.049999X0.799999X0*%
%TD*%
%TA.AperFunction,SMDPad,CuDef*%
%ADD30RoundRect,0.250000X0.337500X0.475000X-0.337500X0.475000X-0.337500X-0.475000X0.337500X-0.475000X0*%
%TD*%
%TA.AperFunction,ComponentPad*%
%ADD31R,1.800000X1.800000*%
%TD*%
%TA.AperFunction,ComponentPad*%
%ADD32C,1.800000*%
%TD*%
%TA.AperFunction,SMDPad,CuDef*%
%ADD33R,0.700000X1.000000*%
%TD*%
%TA.AperFunction,SMDPad,CuDef*%
%ADD34R,1.200000X0.600000*%
%TD*%
%TA.AperFunction,SMDPad,CuDef*%
%ADD35RoundRect,0.250000X-0.650000X1.000000X-0.650000X-1.000000X0.650000X-1.000000X0.650000X1.000000X0*%
%TD*%
%TA.AperFunction,SMDPad,CuDef*%
%ADD36RoundRect,0.250000X0.475000X-0.337500X0.475000X0.337500X-0.475000X0.337500X-0.475000X-0.337500X0*%
%TD*%
%TA.AperFunction,SMDPad,CuDef*%
%ADD37R,1.450000X1.150000*%
%TD*%
%TA.AperFunction,ComponentPad*%
%ADD38C,1.560000*%
%TD*%
%TA.AperFunction,ComponentPad*%
%ADD39C,4.890000*%
%TD*%
%TA.AperFunction,SMDPad,CuDef*%
%ADD40R,1.550000X2.350000*%
%TD*%
%TA.AperFunction,SMDPad,CuDef*%
%ADD41RoundRect,0.225000X-0.375000X0.225000X-0.375000X-0.225000X0.375000X-0.225000X0.375000X0.225000X0*%
%TD*%
%TA.AperFunction,SMDPad,CuDef*%
%ADD42R,1.528000X0.650000*%
%TD*%
%TA.AperFunction,SMDPad,CuDef*%
%ADD43R,0.600000X1.300000*%
%TD*%
%TA.AperFunction,SMDPad,CuDef*%
%ADD44R,0.600000X1.200000*%
%TD*%
%TA.AperFunction,SMDPad,CuDef*%
%ADD45R,1.160000X1.810000*%
%TD*%
%TA.AperFunction,SMDPad,CuDef*%
%ADD46R,1.409700X0.355600*%
%TD*%
%TA.AperFunction,SMDPad,CuDef*%
%ADD47RoundRect,0.250001X0.799999X-2.049999X0.799999X2.049999X-0.799999X2.049999X-0.799999X-2.049999X0*%
%TD*%
%TA.AperFunction,SMDPad,CuDef*%
%ADD48R,0.300000X1.475000*%
%TD*%
%TA.AperFunction,SMDPad,CuDef*%
%ADD49R,1.475000X0.300000*%
%TD*%
%TA.AperFunction,SMDPad,CuDef*%
%ADD50R,0.850000X0.300000*%
%TD*%
%TA.AperFunction,SMDPad,CuDef*%
%ADD51R,0.300000X0.850000*%
%TD*%
%TA.AperFunction,SMDPad,CuDef*%
%ADD52R,2.550000X2.550000*%
%TD*%
%TA.AperFunction,SMDPad,CuDef*%
%ADD53R,0.890000X3.430000*%
%TD*%
%TA.AperFunction,SMDPad,CuDef*%
%ADD54R,0.558800X2.184400*%
%TD*%
%TA.AperFunction,ComponentPad*%
%ADD55C,1.500000*%
%TD*%
%TA.AperFunction,ComponentPad*%
%ADD56RoundRect,0.250500X0.499500X0.499500X-0.499500X0.499500X-0.499500X-0.499500X0.499500X-0.499500X0*%
%TD*%
%TA.AperFunction,ComponentPad*%
%ADD57C,2.500000*%
%TD*%
%TA.AperFunction,SMDPad,CuDef*%
%ADD58R,1.750000X0.950000*%
%TD*%
%TA.AperFunction,SMDPad,CuDef*%
%ADD59R,1.750000X3.200000*%
%TD*%
%TA.AperFunction,SMDPad,CuDef*%
%ADD60R,1.500000X0.900000*%
%TD*%
%TA.AperFunction,SMDPad,CuDef*%
%ADD61R,0.900000X1.500000*%
%TD*%
%TA.AperFunction,SMDPad,CuDef*%
%ADD62R,0.900000X0.900000*%
%TD*%
%TA.AperFunction,SMDPad,CuDef*%
%ADD63RoundRect,0.150000X0.587500X0.150000X-0.587500X0.150000X-0.587500X-0.150000X0.587500X-0.150000X0*%
%TD*%
%TA.AperFunction,SMDPad,CuDef*%
%ADD64R,0.450000X1.475000*%
%TD*%
%TA.AperFunction,SMDPad,CuDef*%
%ADD65R,1.000000X0.700000*%
%TD*%
%TA.AperFunction,SMDPad,CuDef*%
%ADD66R,1.300000X1.100000*%
%TD*%
%TA.AperFunction,ViaPad*%
%ADD67C,0.600000*%
%TD*%
%TA.AperFunction,Conductor*%
%ADD68C,0.200000*%
%TD*%
%TA.AperFunction,Conductor*%
%ADD69C,0.750000*%
%TD*%
%TA.AperFunction,Conductor*%
%ADD70C,0.500000*%
%TD*%
%TA.AperFunction,Conductor*%
%ADD71C,1.000000*%
%TD*%
%TA.AperFunction,Conductor*%
%ADD72C,1.250000*%
%TD*%
G04 APERTURE END LIST*
D10*
%TO.P,R38,2*%
%TO.N,/OUT_SCLK*%
X141080000Y-48250000D03*
%TO.P,R38,1*%
%TO.N,/SCLK*%
X143080000Y-48250000D03*
%TD*%
D11*
%TO.P,C28,1*%
%TO.N,GND*%
X119052500Y-52230000D03*
%TO.P,C28,2*%
%TO.N,+3V3*%
X121127500Y-52230000D03*
%TD*%
D12*
%TO.P,R77,1*%
%TO.N,/SOT*%
X159390000Y-61560000D03*
%TO.P,R77,2*%
%TO.N,/SO*%
X161390000Y-61560000D03*
%TD*%
D13*
%TO.P,R10,1*%
%TO.N,/XS3T*%
X99204825Y-34334998D03*
%TO.P,R10,2*%
%TO.N,/XS3*%
X99204825Y-32334998D03*
%TD*%
D14*
%TO.P,C12,1*%
%TO.N,+3V3*%
X165300000Y-56100000D03*
%TO.P,C12,2*%
%TO.N,GND*%
X165300000Y-58175000D03*
%TD*%
%TO.P,C36,1*%
%TO.N,/12VIN*%
X63505175Y-78887502D03*
%TO.P,C36,2*%
%TO.N,GND*%
X63505175Y-80962502D03*
%TD*%
D15*
%TO.P,L1,1,1_1*%
%TO.N,/SW*%
X69800000Y-75950000D03*
%TO.P,L1,2,2_2*%
%TO.N,+5V*%
X69800000Y-71150000D03*
%TD*%
D11*
%TO.P,C22,1*%
%TO.N,GND*%
X99917675Y-29725002D03*
%TO.P,C22,2*%
%TO.N,+3V3*%
X101992675Y-29725002D03*
%TD*%
D13*
%TO.P,R19,1*%
%TO.N,/DTR*%
X60505175Y-27425002D03*
%TO.P,R19,2*%
%TO.N,Net-(IC10-B)*%
X60505175Y-25425002D03*
%TD*%
D16*
%TO.P,H1,1,1_1*%
%TO.N,GND*%
X172090000Y-91400000D03*
%TD*%
D17*
%TO.P,J1,A1,GND_A1*%
%TO.N,GND*%
X75205000Y-29280000D03*
%TO.P,J1,A4,VBUS_A4*%
%TO.N,/USB_VBUSF*%
X74405000Y-29280000D03*
D18*
%TO.P,J1,A5,CC1_A5*%
%TO.N,/CC1*%
X73255000Y-29280000D03*
%TO.P,J1,A6,D+_A6*%
%TO.N,/USB_DP*%
X72255000Y-29280000D03*
%TO.P,J1,A7,D-_A7*%
%TO.N,/USB_DN*%
X71755000Y-29280000D03*
%TO.P,J1,A8,SBU1_A8*%
%TO.N,unconnected-(J1-SBU1-PadA8)*%
X70755000Y-29280000D03*
D17*
%TO.P,J1,A9,VBUS_A9*%
%TO.N,/USB_VBUSF*%
X69605000Y-29280000D03*
%TO.P,J1,A12,GND_A12*%
%TO.N,GND*%
X68805000Y-29280000D03*
%TO.P,J1,B1,GND_B1*%
X68805000Y-29280000D03*
%TO.P,J1,B4,VBUS_B4*%
%TO.N,/USB_VBUSF*%
X69605000Y-29280000D03*
D18*
%TO.P,J1,B5,CC2_B5*%
%TO.N,/CC2*%
X70255000Y-29280000D03*
%TO.P,J1,B6,D+_B6*%
%TO.N,/USB_DP*%
X71255000Y-29280000D03*
%TO.P,J1,B7,D-_B7*%
%TO.N,/USB_DN*%
X72755000Y-29280000D03*
%TO.P,J1,B8,SBU2_B8*%
%TO.N,unconnected-(J1-SBU2-PadB8)*%
X73755000Y-29280000D03*
D17*
%TO.P,J1,B9,VBUS_B9*%
%TO.N,/USB_VBUSF*%
X74405000Y-29280000D03*
%TO.P,J1,B12,GND_B12*%
%TO.N,GND*%
X75205000Y-29280000D03*
D19*
%TO.P,J1,SH,SHIELD_SH*%
X76325000Y-28705000D03*
D20*
X76325000Y-24525000D03*
D19*
X67685000Y-28705000D03*
D20*
X67685000Y-24525000D03*
%TD*%
D21*
%TO.P,3V1,1,K_1*%
%TO.N,+3V3*%
X54000000Y-86375002D03*
%TO.P,3V1,2,A_2*%
%TO.N,Net-(3V1-A)*%
X54000000Y-84475002D03*
%TD*%
D22*
%TO.P,J4,1,Pin_1_1*%
%TO.N,Net-(J4-Pin_1)*%
X84475175Y-81425002D03*
D23*
%TO.P,J4,2,Pin_2_2*%
X94475175Y-81425002D03*
%TD*%
D24*
%TO.P,D5,1,K_1*%
%TO.N,/12VIN*%
X103200000Y-91450000D03*
%TO.P,D5,2,A_2*%
%TO.N,/FAN_VOUT*%
X107500000Y-91450000D03*
%TD*%
D12*
%TO.P,R58,1*%
%TO.N,/RXA3D*%
X119205175Y-28150000D03*
%TO.P,R58,2*%
%TO.N,/RXA3*%
X121205175Y-28150000D03*
%TD*%
D25*
%TO.P,R34,1*%
%TO.N,/D4*%
X121470000Y-60980000D03*
%TO.P,R34,2*%
%TO.N,/Y4*%
X121470000Y-62980000D03*
%TD*%
%TO.P,R71,1*%
%TO.N,Net-(D3-K)*%
X54000000Y-68900000D03*
%TO.P,R71,2*%
%TO.N,Net-(Q2-G)*%
X54000000Y-70900000D03*
%TD*%
D11*
%TO.P,C35,1*%
%TO.N,GND*%
X139562500Y-68700000D03*
%TO.P,C35,2*%
%TO.N,+3V3*%
X141637500Y-68700000D03*
%TD*%
D10*
%TO.P,R49,1*%
%TO.N,/TXB6D*%
X132955175Y-51475002D03*
%TO.P,R49,2*%
%TO.N,/TXB6*%
X130955175Y-51475002D03*
%TD*%
D11*
%TO.P,C21,1*%
%TO.N,GND*%
X111892675Y-65925002D03*
%TO.P,C21,2*%
%TO.N,+3V3*%
X113967675Y-65925002D03*
%TD*%
D26*
%TO.P,TP3,1,1_1*%
%TO.N,/12VIN*%
X66000000Y-91405002D03*
%TD*%
D27*
%TO.P,Y2,1,TRI-STATE_(STBY)_1*%
%TO.N,+3V3*%
X103380000Y-40060000D03*
%TO.P,Y2,2,GND/CASE_2*%
%TO.N,GND*%
X103380000Y-37960000D03*
%TO.P,Y2,3,OUTPUT_3*%
%TO.N,/XTAL*%
X101730000Y-37960000D03*
%TO.P,Y2,4,VDD_4*%
%TO.N,+3V3*%
X101730000Y-40060000D03*
%TD*%
D25*
%TO.P,R73,1*%
%TO.N,/12VIN*%
X50000000Y-68900000D03*
%TO.P,R73,2*%
%TO.N,/1OUT*%
X50000000Y-70900000D03*
%TD*%
D28*
%TO.P,S2,1,1_1*%
%TO.N,/ESP_IO0*%
X50350175Y-27275002D03*
%TO.P,S2,2,2_2*%
%TO.N,GND*%
X50350175Y-23875002D03*
%TD*%
D12*
%TO.P,R64,1*%
%TO.N,/RXA4D*%
X80955175Y-50975002D03*
%TO.P,R64,2*%
%TO.N,/RXA4*%
X82955175Y-50975002D03*
%TD*%
%TO.P,R63,1*%
%TO.N,/TXA4D*%
X80955175Y-48975002D03*
%TO.P,R63,2*%
%TO.N,/TXA4*%
X82955175Y-48975002D03*
%TD*%
D11*
%TO.P,C29,1*%
%TO.N,+3V3*%
X140937325Y-37224998D03*
%TO.P,C29,2*%
%TO.N,GND*%
X143012325Y-37224998D03*
%TD*%
D10*
%TO.P,R50,1*%
%TO.N,/RXB6D*%
X132955175Y-49475002D03*
%TO.P,R50,2*%
%TO.N,/RXB6*%
X130955175Y-49475002D03*
%TD*%
D29*
%TO.P,C33,1*%
%TO.N,+3V3*%
X155690000Y-73200000D03*
%TO.P,C33,2*%
%TO.N,GND*%
X164490000Y-73200000D03*
%TD*%
D12*
%TO.P,R60,1*%
%TO.N,/RXA5D*%
X99830000Y-50140000D03*
%TO.P,R60,2*%
%TO.N,/RXA5*%
X101830000Y-50140000D03*
%TD*%
D16*
%TO.P,H4,1,1_1*%
%TO.N,GND*%
X105200000Y-78300000D03*
%TD*%
D13*
%TO.P,R5,1*%
%TO.N,GND*%
X48205175Y-66325002D03*
%TO.P,R5,2*%
%TO.N,/IO12*%
X48205175Y-64325002D03*
%TD*%
D25*
%TO.P,R21,1*%
%TO.N,+3V3*%
X145470000Y-25190000D03*
%TO.P,R21,2*%
%TO.N,Net-(J2-Pad9)*%
X145470000Y-27190000D03*
%TD*%
D30*
%TO.P,C9,1*%
%TO.N,/VBG*%
X150337500Y-52550000D03*
%TO.P,C9,2*%
%TO.N,GND*%
X148262500Y-52550000D03*
%TD*%
D31*
%TO.P,J7,1,1_1*%
%TO.N,/12VIN*%
X104050000Y-86350000D03*
D32*
%TO.P,J7,2,2_2*%
%TO.N,/FAN_VOUT*%
X106550000Y-86350000D03*
%TD*%
D26*
%TO.P,TP7,1,1_1*%
%TO.N,/SOT*%
X160980000Y-64840000D03*
%TD*%
D12*
%TO.P,R3,1*%
%TO.N,Net-(STATUS1-A)*%
X74275000Y-56550000D03*
%TO.P,R3,2*%
%TO.N,GND*%
X76275000Y-56550000D03*
%TD*%
D10*
%TO.P,R39,1*%
%TO.N,/TXB1D*%
X95205175Y-29225002D03*
%TO.P,R39,2*%
%TO.N,/TXB1*%
X93205175Y-29225002D03*
%TD*%
D25*
%TO.P,R15,1*%
%TO.N,/CC1*%
X72505175Y-36025002D03*
%TO.P,R15,2*%
%TO.N,GND*%
X72505175Y-38025002D03*
%TD*%
D33*
%TO.P,IC3,1,B_1*%
%TO.N,Net-(IC3-B)*%
X166050000Y-86100000D03*
%TO.P,IC3,2,E_2*%
%TO.N,GND*%
X164150000Y-86100000D03*
%TO.P,IC3,3,C_3*%
%TO.N,/SCLK_STAT*%
X165100000Y-88500000D03*
%TD*%
D26*
%TO.P,TP5,1,1_1*%
%TO.N,/ESP_SCLKT*%
X55175000Y-42525000D03*
%TD*%
D13*
%TO.P,R20,1*%
%TO.N,/RTS*%
X54255175Y-27425002D03*
%TO.P,R20,2*%
%TO.N,Net-(IC11-B)*%
X54255175Y-25425002D03*
%TD*%
D25*
%TO.P,R16,1*%
%TO.N,/CC2*%
X70255175Y-36025002D03*
%TO.P,R16,2*%
%TO.N,GND*%
X70255175Y-38025002D03*
%TD*%
%TO.P,R80,1*%
%TO.N,/ESP_MOSIT*%
X74375000Y-48500000D03*
%TO.P,R80,2*%
%TO.N,/ESP_MOSI*%
X74375000Y-50500000D03*
%TD*%
D11*
%TO.P,C18,1*%
%TO.N,+3V3*%
X163362500Y-54150000D03*
%TO.P,C18,2*%
%TO.N,GND*%
X165437500Y-54150000D03*
%TD*%
D13*
%TO.P,R24,1*%
%TO.N,+3V3*%
X49320000Y-31990000D03*
%TO.P,R24,2*%
%TO.N,/ESP_IO0*%
X49320000Y-29990000D03*
%TD*%
D25*
%TO.P,R51,1*%
%TO.N,GND*%
X70600000Y-78800000D03*
%TO.P,R51,2*%
%TO.N,Net-(Q1-G)*%
X70600000Y-80800000D03*
%TD*%
D34*
%TO.P,IC12,1,~{OE}_1*%
%TO.N,GND*%
X136224825Y-37274998D03*
%TO.P,IC12,2,A_2*%
%TO.N,/SO*%
X136224825Y-38224998D03*
%TO.P,IC12,3,GND_3*%
%TO.N,GND*%
X136224825Y-39174998D03*
%TO.P,IC12,4,Y_4*%
%TO.N,/OUT_MISO*%
X138724825Y-39174998D03*
%TO.P,IC12,5,VCC_5*%
%TO.N,+3V3*%
X138724825Y-37274998D03*
%TD*%
D35*
%TO.P,D2,1,A1_1*%
%TO.N,/12VIN*%
X72800000Y-87500000D03*
%TO.P,D2,2,A2_2*%
%TO.N,GND*%
X72800000Y-91500000D03*
%TD*%
D13*
%TO.P,R1,1*%
%TO.N,/SCLK_STAT*%
X162025000Y-88400000D03*
%TO.P,R1,2*%
%TO.N,Net-(SCLK1-A)*%
X162025000Y-86400000D03*
%TD*%
D10*
%TO.P,R25,1*%
%TO.N,/ESP_A0*%
X48255175Y-60425002D03*
%TO.P,R25,2*%
%TO.N,GND*%
X46255175Y-60425002D03*
%TD*%
D36*
%TO.P,C26,1*%
%TO.N,+3V3*%
X124030000Y-60727500D03*
%TO.P,C26,2*%
%TO.N,GND*%
X124030000Y-58652500D03*
%TD*%
D12*
%TO.P,R30,1*%
%TO.N,/D1*%
X113710000Y-59000000D03*
%TO.P,R30,2*%
%TO.N,/Y1*%
X115710000Y-59000000D03*
%TD*%
D25*
%TO.P,R6,1*%
%TO.N,/ESP_SCLK*%
X166000000Y-82300000D03*
%TO.P,R6,2*%
%TO.N,Net-(IC3-B)*%
X166000000Y-84300000D03*
%TD*%
D14*
%TO.P,C19,1*%
%TO.N,+3V3*%
X146940000Y-48612500D03*
%TO.P,C19,2*%
%TO.N,GND*%
X146940000Y-50687500D03*
%TD*%
D12*
%TO.P,R79,1*%
%TO.N,/ESP_USRSTT*%
X65550000Y-67525000D03*
%TO.P,R79,2*%
%TO.N,/ESP_USRST*%
X67550000Y-67525000D03*
%TD*%
D13*
%TO.P,R52,1*%
%TO.N,Net-(3V1-A)*%
X57600000Y-86600000D03*
%TO.P,R52,2*%
%TO.N,GND*%
X57600000Y-84600000D03*
%TD*%
D21*
%TO.P,STATUS1,1,K_1*%
%TO.N,/IO21*%
X71700000Y-54650000D03*
%TO.P,STATUS1,2,A_2*%
%TO.N,Net-(STATUS1-A)*%
X71700000Y-56550000D03*
%TD*%
D37*
%TO.P,RT1,1,1_1*%
%TO.N,/12VIN*%
X65650000Y-70725000D03*
%TO.P,RT1,2,2_2*%
%TO.N,/1IN+*%
X65650000Y-72525000D03*
%TD*%
D36*
%TO.P,C13,1*%
%TO.N,+3V3*%
X165300000Y-52150000D03*
%TO.P,C13,2*%
%TO.N,GND*%
X165300000Y-50075000D03*
%TD*%
D13*
%TO.P,R70,1*%
%TO.N,/1IN-*%
X48000000Y-70900000D03*
%TO.P,R70,2*%
%TO.N,GND*%
X48000000Y-68900000D03*
%TD*%
D38*
%TO.P,J6,1,1_1*%
%TO.N,/RXA4D*%
X172635175Y-75110002D03*
%TO.P,J6,2,2_2*%
%TO.N,/TXA4D*%
X172635175Y-72352002D03*
%TO.P,J6,3,3_3*%
%TO.N,/RXA5D*%
X172635175Y-69594002D03*
%TO.P,J6,4,4_4*%
%TO.N,/TXA5D*%
X172635175Y-66836002D03*
%TO.P,J6,5,5_5*%
%TO.N,/RXA6D*%
X172635175Y-64078002D03*
%TO.P,J6,6,6_6*%
%TO.N,/TXA6D*%
X172635175Y-61320002D03*
%TO.P,J6,7,7_7*%
%TO.N,/RXA1D*%
X172635175Y-58562002D03*
%TO.P,J6,8,8_8*%
%TO.N,/TXA1D*%
X172635175Y-55804002D03*
%TO.P,J6,9,9_9*%
%TO.N,/RXA2D*%
X172635175Y-53046002D03*
%TO.P,J6,10,10_10*%
%TO.N,/TXA2D*%
X172635175Y-50288002D03*
%TO.P,J6,11,11_11*%
%TO.N,/RXA3D*%
X172635175Y-47530002D03*
%TO.P,J6,12,12_12*%
%TO.N,/TXA3D*%
X172635175Y-44772002D03*
%TO.P,J6,13,13_13*%
%TO.N,GND*%
X172635175Y-42014002D03*
%TO.P,J6,14,14_14*%
X175475175Y-73731002D03*
%TO.P,J6,15,15_15*%
%TO.N,+5V*%
X175475175Y-70973002D03*
%TO.P,J6,16,16_16*%
%TO.N,GND*%
X175475175Y-68215002D03*
%TO.P,J6,17,17_17*%
%TO.N,+5V*%
X175475175Y-65457002D03*
%TO.P,J6,18,18_18*%
%TO.N,GND*%
X175475175Y-62699002D03*
%TO.P,J6,19,19_19*%
%TO.N,+5V*%
X175475175Y-59941002D03*
%TO.P,J6,20,20_20*%
%TO.N,GND*%
X175475175Y-57183002D03*
%TO.P,J6,21,21_21*%
%TO.N,+5V*%
X175475175Y-54425002D03*
%TO.P,J6,22,22_22*%
%TO.N,GND*%
X175475175Y-51667002D03*
%TO.P,J6,23,23_23*%
%TO.N,+5V*%
X175475175Y-48909002D03*
%TO.P,J6,24,24_24*%
%TO.N,GND*%
X175475175Y-46151002D03*
%TO.P,J6,25,25_25*%
%TO.N,+5V*%
X175475175Y-43393002D03*
D39*
%TO.P,J6,MH1,MH1_MH1*%
%TO.N,GND*%
X174055175Y-35042002D03*
%TO.P,J6,MH2,MH2_MH2*%
X174055175Y-82082002D03*
%TD*%
D10*
%TO.P,R27,1*%
%TO.N,/ESP_A2*%
X48255175Y-56425002D03*
%TO.P,R27,2*%
%TO.N,GND*%
X46255175Y-56425002D03*
%TD*%
D40*
%TO.P,D1,1,K_1*%
%TO.N,+5V*%
X75505175Y-37725002D03*
%TO.P,D1,2,A_2*%
%TO.N,/USB_VBUS*%
X75505175Y-33425002D03*
%TD*%
D36*
%TO.P,C42,1*%
%TO.N,+3V3*%
X148950000Y-48677500D03*
%TO.P,C42,2*%
%TO.N,GND*%
X148950000Y-46602500D03*
%TD*%
D34*
%TO.P,IC15,1,~{OE}_1*%
%TO.N,GND*%
X136330000Y-46100000D03*
%TO.P,IC15,2,A_2*%
%TO.N,/ESP_SCLK*%
X136330000Y-47050000D03*
%TO.P,IC15,3,GND_3*%
%TO.N,GND*%
X136330000Y-48000000D03*
%TO.P,IC15,4,Y_4*%
%TO.N,/OUT_SCLK*%
X138830000Y-48000000D03*
%TO.P,IC15,5,VCC_5*%
%TO.N,+3V3*%
X138830000Y-46100000D03*
%TD*%
D25*
%TO.P,R11,1*%
%TO.N,/XS4T*%
X95370000Y-44020000D03*
%TO.P,R11,2*%
%TO.N,/XS4*%
X95370000Y-46020000D03*
%TD*%
D41*
%TO.P,D4,1,K_1*%
%TO.N,Net-(D3-K)*%
X45411000Y-68350000D03*
%TO.P,D4,2,A_2*%
%TO.N,/1OUT*%
X45411000Y-71650000D03*
%TD*%
D25*
%TO.P,R7,1*%
%TO.N,/ESP_IRQ*%
X158600000Y-82400000D03*
%TO.P,R7,2*%
%TO.N,Net-(IC4-B)*%
X158600000Y-84400000D03*
%TD*%
D42*
%TO.P,IC17,1,1OUT_1*%
%TO.N,/1OUT*%
X48978000Y-73295000D03*
%TO.P,IC17,2,1IN-_2*%
%TO.N,/1IN-*%
X48978000Y-74565000D03*
%TO.P,IC17,3,1IN+_3*%
%TO.N,/1IN+*%
X48978000Y-75835000D03*
%TO.P,IC17,4,GND_4*%
%TO.N,GND*%
X48978000Y-77105000D03*
%TO.P,IC17,5,2IN+_5*%
%TO.N,/2IN+*%
X54400000Y-77105000D03*
%TO.P,IC17,6,2IN-_6*%
%TO.N,/1IN-*%
X54400000Y-75835000D03*
%TO.P,IC17,7,2OUT_7*%
%TO.N,/2OUT*%
X54400000Y-74565000D03*
%TO.P,IC17,8,VCC_8*%
%TO.N,/12VIN*%
X54400000Y-73295000D03*
%TD*%
D30*
%TO.P,C16,1*%
%TO.N,+3V3*%
X152937500Y-48350000D03*
%TO.P,C16,2*%
%TO.N,GND*%
X150862500Y-48350000D03*
%TD*%
D13*
%TO.P,R8,1*%
%TO.N,/XS1T*%
X95304825Y-34334998D03*
%TO.P,R8,2*%
%TO.N,/XS1*%
X95304825Y-32334998D03*
%TD*%
D10*
%TO.P,R43,1*%
%TO.N,/TXB5D*%
X113705175Y-51725002D03*
%TO.P,R43,2*%
%TO.N,/TXB5*%
X111705175Y-51725002D03*
%TD*%
D25*
%TO.P,R67,1*%
%TO.N,/1IN+*%
X45400000Y-85900000D03*
%TO.P,R67,2*%
%TO.N,GND*%
X45400000Y-87900000D03*
%TD*%
D14*
%TO.P,C14,1*%
%TO.N,GND*%
X163300000Y-50075000D03*
%TO.P,C14,2*%
%TO.N,+3V3*%
X163300000Y-52150000D03*
%TD*%
D11*
%TO.P,C6,1*%
%TO.N,GND*%
X56717675Y-32675002D03*
%TO.P,C6,2*%
%TO.N,/CP_VDD*%
X58792675Y-32675002D03*
%TD*%
D16*
%TO.P,H5,1,1_1*%
%TO.N,GND*%
X37980000Y-25500000D03*
%TD*%
D12*
%TO.P,R28,1*%
%TO.N,GND*%
X46255175Y-58425002D03*
%TO.P,R28,2*%
%TO.N,/ESP_E3*%
X48255175Y-58425002D03*
%TD*%
D21*
%TO.P,12V1,1,K_1*%
%TO.N,/12VIN*%
X66060000Y-86375002D03*
%TO.P,12V1,2,A_2*%
%TO.N,Net-(12V1-A)*%
X66060000Y-84475002D03*
%TD*%
D43*
%TO.P,Q1,1,G_1*%
%TO.N,Net-(Q1-G)*%
X71850000Y-84850000D03*
%TO.P,Q1,2,S_2*%
%TO.N,/12VIN*%
X73750000Y-84850000D03*
%TO.P,Q1,3,D_3*%
%TO.N,+12V*%
X72800000Y-82750000D03*
%TD*%
D12*
%TO.P,R78,1*%
%TO.N,/ESP_SCLKT*%
X74250000Y-54000000D03*
%TO.P,R78,2*%
%TO.N,/ESP_SCLK*%
X76250000Y-54000000D03*
%TD*%
D30*
%TO.P,C11,1*%
%TO.N,/TOCAP*%
X150337500Y-54550000D03*
%TO.P,C11,2*%
%TO.N,GND*%
X148262500Y-54550000D03*
%TD*%
D13*
%TO.P,R54,1*%
%TO.N,Net-(12V1-A)*%
X69700000Y-86600000D03*
%TO.P,R54,2*%
%TO.N,GND*%
X69700000Y-84600000D03*
%TD*%
D44*
%TO.P,IC8,1,I/O1_1_1*%
%TO.N,/WTXN*%
X158700000Y-48000000D03*
%TO.P,IC8,2,GND_2*%
%TO.N,GND*%
X159650000Y-48000000D03*
%TO.P,IC8,3,I/O2_1_3*%
%TO.N,/WTXP*%
X160600000Y-48000000D03*
%TO.P,IC8,4,I/O2_2_4*%
%TO.N,/TXP*%
X160600000Y-45500000D03*
%TO.P,IC8,5,VBUS_5*%
%TO.N,+3V3*%
X159650000Y-45500000D03*
%TO.P,IC8,6,I/O1_2_6*%
%TO.N,/TXN*%
X158700000Y-45500000D03*
%TD*%
D25*
%TO.P,R72,1*%
%TO.N,GND*%
X52000000Y-68900000D03*
%TO.P,R72,2*%
%TO.N,Net-(Q2-G)*%
X52000000Y-70900000D03*
%TD*%
D45*
%TO.P,F1,1,1_1*%
%TO.N,/USB_VBUSF*%
X69730000Y-33155000D03*
%TO.P,F1,2,2_2*%
%TO.N,/USB_VBUS*%
X72680000Y-33155000D03*
%TD*%
D12*
%TO.P,R76,1*%
%TO.N,/2IN+*%
X56500000Y-77200000D03*
%TO.P,R76,2*%
%TO.N,/2OUT*%
X58500000Y-77200000D03*
%TD*%
D10*
%TO.P,R31,1*%
%TO.N,+3V3*%
X73405175Y-61425002D03*
%TO.P,R31,2*%
%TO.N,/ESP_IRQ*%
X71405175Y-61425002D03*
%TD*%
D21*
%TO.P,SCLK1,1,K_1*%
%TO.N,+3V3*%
X162000000Y-82350000D03*
%TO.P,SCLK1,2,A_2*%
%TO.N,Net-(SCLK1-A)*%
X162000000Y-84250000D03*
%TD*%
D10*
%TO.P,R26,1*%
%TO.N,/ESP_A1*%
X48255175Y-62425002D03*
%TO.P,R26,2*%
%TO.N,GND*%
X46255175Y-62425002D03*
%TD*%
D12*
%TO.P,R61,1*%
%TO.N,/TXA2D*%
X99955175Y-25725002D03*
%TO.P,R61,2*%
%TO.N,/TXA2*%
X101955175Y-25725002D03*
%TD*%
D46*
%TO.P,U7,1,\u002ARTSA_1*%
%TO.N,unconnected-(U7-\u002ARTSA-Pad1)*%
X123002425Y-47750002D03*
%TO.P,U7,2,\u002ACTSA_2*%
%TO.N,unconnected-(U7-\u002ACTSA-Pad2)*%
X123002425Y-48400003D03*
%TO.P,U7,3,TXA_3*%
%TO.N,/TXA6*%
X123002425Y-49050002D03*
%TO.P,U7,4,RXA_4*%
%TO.N,/RXA6*%
X123002425Y-49700003D03*
%TO.P,U7,5,\u002ARESET_5*%
%TO.N,/ESP_USRST*%
X123002425Y-50350001D03*
%TO.P,U7,6,XTAL1_6*%
%TO.N,/XS6*%
X123002425Y-51000003D03*
%TO.P,U7,7,XTAL2_7*%
%TO.N,GND*%
X123002425Y-51650001D03*
%TO.P,U7,8,VDD_8*%
%TO.N,+3V3*%
X123002425Y-52300000D03*
%TO.P,U7,9,I2C/\u002ASPI_9*%
%TO.N,GND*%
X123002425Y-52950001D03*
%TO.P,U7,10,\u002ACS/A0_10*%
%TO.N,/D5*%
X123002425Y-53600000D03*
%TO.P,U7,11,SI/A1_11*%
%TO.N,/SI*%
X123002425Y-54250001D03*
%TO.P,U7,12,SO_12*%
%TO.N,/SO*%
X123002425Y-54900000D03*
%TO.P,U7,13,SCL/SCLK_13*%
%TO.N,/SCLK*%
X123002425Y-55550001D03*
%TO.P,U7,14,SDA_14*%
%TO.N,unconnected-(U7-SDA-Pad14)*%
X123002425Y-56200000D03*
%TO.P,U7,15,\u002AIRQ_15*%
%TO.N,/ESP_IRQ*%
X128907925Y-56200002D03*
%TO.P,U7,16,\u002ACTSB_16*%
%TO.N,unconnected-(U7-\u002ACTSB-Pad16)*%
X128907925Y-55550001D03*
%TO.P,U7,17,\u002ARTSB_17*%
%TO.N,unconnected-(U7-\u002ARTSB-Pad17)*%
X128907925Y-54900002D03*
%TO.P,U7,18,GPIO0/\u002ADSRB_18*%
%TO.N,unconnected-(U7-GPIO0{slash}\u002ADSRB-Pad18)*%
X128907925Y-54250001D03*
%TO.P,U7,19,GPIO1/\u002ADTRB_19*%
%TO.N,unconnected-(U7-GPIO1{slash}\u002ADTRB-Pad19)*%
X128907925Y-53600003D03*
%TO.P,U7,20,GPIO2/\u002ACDB_20*%
%TO.N,unconnected-(U7-GPIO2{slash}\u002ACDB-Pad20)*%
X128907925Y-52950001D03*
%TO.P,U7,21,GPIO3/\u002ARIB_21*%
%TO.N,unconnected-(U7-GPIO3{slash}\u002ARIB-Pad21)*%
X128907925Y-52300003D03*
%TO.P,U7,22,VSS_22*%
%TO.N,GND*%
X128907925Y-51650001D03*
%TO.P,U7,23,TXB_23*%
%TO.N,/TXB6*%
X128907925Y-51000003D03*
%TO.P,U7,24,RXB_24*%
%TO.N,/RXB6*%
X128907925Y-50350001D03*
%TO.P,U7,25,GPIO4/\u002ADSRA_25*%
%TO.N,unconnected-(U7-GPIO4{slash}\u002ADSRA-Pad25)*%
X128907925Y-49700003D03*
%TO.P,U7,26,GPIO5/\u002ADTRA_26*%
%TO.N,unconnected-(U7-GPIO5{slash}\u002ADTRA-Pad26)*%
X128907925Y-49050002D03*
%TO.P,U7,27,GPIO6/\u002ACDA_27*%
%TO.N,unconnected-(U7-GPIO6{slash}\u002ACDA-Pad27)*%
X128907925Y-48400003D03*
%TO.P,U7,28,GPIO7/\u002ARIA_28*%
%TO.N,unconnected-(U7-GPIO7{slash}\u002ARIA-Pad28)*%
X128907925Y-47750002D03*
%TD*%
D14*
%TO.P,C37,1*%
%TO.N,/BST*%
X65505175Y-74387502D03*
%TO.P,C37,2*%
%TO.N,/SW*%
X65505175Y-76462502D03*
%TD*%
D34*
%TO.P,IC7,1,I/O1_1_1*%
%TO.N,/USB_DN*%
X67505175Y-37625002D03*
%TO.P,IC7,2,GND_2*%
%TO.N,GND*%
X67505175Y-36675002D03*
%TO.P,IC7,3,I/O2_1_3*%
%TO.N,/USB_DP*%
X67505175Y-35725002D03*
%TO.P,IC7,4,I/O2_2_4*%
%TO.N,/CD_DP*%
X65005175Y-35725002D03*
%TO.P,IC7,5,VBUS_5*%
%TO.N,/USB_VBUS*%
X65005175Y-36675002D03*
%TO.P,IC7,6,I/O1_2_6*%
%TO.N,/CD_DN*%
X65005175Y-37625002D03*
%TD*%
D25*
%TO.P,R4,1*%
%TO.N,/ESP_EN*%
X48005175Y-52275002D03*
%TO.P,R4,2*%
%TO.N,+3V3*%
X48005175Y-54275002D03*
%TD*%
D12*
%TO.P,R57,1*%
%TO.N,/TXA3D*%
X119205175Y-26225002D03*
%TO.P,R57,2*%
%TO.N,/TXA3*%
X121205175Y-26225002D03*
%TD*%
%TO.P,R65,1*%
%TO.N,/TXA6D*%
X119090000Y-48230000D03*
%TO.P,R65,2*%
%TO.N,/TXA6*%
X121090000Y-48230000D03*
%TD*%
%TO.P,R55,1*%
%TO.N,/TXA1D*%
X81205175Y-25725002D03*
%TO.P,R55,2*%
%TO.N,/TXA1*%
X83205175Y-25725002D03*
%TD*%
D25*
%TO.P,R13,1*%
%TO.N,/XS6T*%
X99280000Y-43980000D03*
%TO.P,R13,2*%
%TO.N,/XS6*%
X99280000Y-45980000D03*
%TD*%
D37*
%TO.P,RT2,1,1_1*%
%TO.N,/12VIN*%
X152610000Y-67790000D03*
%TO.P,RT2,2,2_2*%
%TO.N,/2IN+*%
X152610000Y-65990000D03*
%TD*%
D28*
%TO.P,S1,1,1_1*%
%TO.N,/ESP_EN*%
X45200175Y-27275002D03*
%TO.P,S1,2,2_2*%
%TO.N,GND*%
X45200175Y-23875002D03*
%TD*%
D25*
%TO.P,R68,1*%
%TO.N,/2IN+*%
X49400000Y-85900000D03*
%TO.P,R68,2*%
%TO.N,GND*%
X49400000Y-87900000D03*
%TD*%
D47*
%TO.P,C41,1*%
%TO.N,Net-(Q2-G)*%
X132780000Y-67900000D03*
%TO.P,C41,2*%
%TO.N,GND*%
X132780000Y-59100000D03*
%TD*%
D26*
%TO.P,TP4,1,1_1*%
%TO.N,/1V20*%
X140445000Y-59040000D03*
%TD*%
D16*
%TO.P,H3,1,1_1*%
%TO.N,GND*%
X172100000Y-25600000D03*
%TD*%
D26*
%TO.P,TP6,1,1_1*%
%TO.N,/SI*%
X55150000Y-37775000D03*
%TD*%
D12*
%TO.P,R56,1*%
%TO.N,/RXA1D*%
X81205175Y-27725002D03*
%TO.P,R56,2*%
%TO.N,/RXA1*%
X83205175Y-27725002D03*
%TD*%
D36*
%TO.P,C43,1*%
%TO.N,GND*%
X56600000Y-75337500D03*
%TO.P,C43,2*%
%TO.N,/12VIN*%
X56600000Y-73262500D03*
%TD*%
D48*
%TO.P,IC5,1,TXN_1*%
%TO.N,/WTXP*%
X159762000Y-50362000D03*
%TO.P,IC5,2,TXP_2*%
%TO.N,/WTXN*%
X159262000Y-50362000D03*
%TO.P,IC5,3,AGND_1_3*%
%TO.N,GND*%
X158762000Y-50362000D03*
%TO.P,IC5,4,AVDD_1_4*%
%TO.N,+3V3*%
X158262000Y-50362000D03*
%TO.P,IC5,5,RXN_5*%
%TO.N,/WRXP*%
X157762000Y-50362000D03*
%TO.P,IC5,6,RXP_6*%
%TO.N,/WRXN*%
X157262000Y-50362000D03*
%TO.P,IC5,7,DNC_7*%
%TO.N,unconnected-(IC5-DNC-Pad7)*%
X156762000Y-50362000D03*
%TO.P,IC5,8,AVDD_2_8*%
%TO.N,+3V3*%
X156262000Y-50362000D03*
%TO.P,IC5,9,AGND_2_9*%
%TO.N,GND*%
X155762000Y-50362000D03*
%TO.P,IC5,10,EXRES1_10*%
%TO.N,/EXRES1*%
X155262000Y-50362000D03*
%TO.P,IC5,11,AVDD_3_11*%
%TO.N,+3V3*%
X154762000Y-50362000D03*
%TO.P,IC5,12,NC_1_12*%
%TO.N,unconnected-(IC5-NC_1-Pad12)*%
X154262000Y-50362000D03*
D49*
%TO.P,IC5,13,NC_2_13*%
%TO.N,unconnected-(IC5-NC_2-Pad13)*%
X152774000Y-51850000D03*
%TO.P,IC5,14,AGND_3_14*%
%TO.N,GND*%
X152774000Y-52350000D03*
%TO.P,IC5,15,AVDD_4_15*%
%TO.N,+3V3*%
X152774000Y-52850000D03*
%TO.P,IC5,16,AGND_4_16*%
%TO.N,GND*%
X152774000Y-53350000D03*
%TO.P,IC5,17,AVDD_5_17*%
%TO.N,+3V3*%
X152774000Y-53850000D03*
%TO.P,IC5,18,VBG_18*%
%TO.N,/VBG*%
X152774000Y-54350000D03*
%TO.P,IC5,19,AGND_5_19*%
%TO.N,GND*%
X152774000Y-54850000D03*
%TO.P,IC5,20,TOCAP_20*%
%TO.N,/TOCAP*%
X152774000Y-55350000D03*
%TO.P,IC5,21,AVDD_6_21*%
%TO.N,+3V3*%
X152774000Y-55850000D03*
%TO.P,IC5,22,1V2O_22*%
%TO.N,/1V20*%
X152774000Y-56350000D03*
%TO.P,IC5,23,RSVD_1_23*%
%TO.N,unconnected-(IC5-RSVD_1-Pad23)*%
X152774000Y-56850000D03*
%TO.P,IC5,24,SPDLED_24*%
%TO.N,unconnected-(IC5-SPDLED-Pad24)*%
X152774000Y-57350000D03*
D48*
%TO.P,IC5,25,LINKLED_25*%
%TO.N,/LINKLED*%
X154262000Y-58838000D03*
%TO.P,IC5,26,DUPLED_26*%
%TO.N,unconnected-(IC5-DUPLED-Pad26)*%
X154762000Y-58838000D03*
%TO.P,IC5,27,ACTLED_27*%
%TO.N,/ACTLED*%
X155262000Y-58838000D03*
%TO.P,IC5,28,VDD_28*%
%TO.N,+3V3*%
X155762000Y-58838000D03*
%TO.P,IC5,29,GND_29*%
%TO.N,GND*%
X156262000Y-58838000D03*
%TO.P,IC5,30,XI/CLKIN_30*%
%TO.N,/W_XI*%
X156762000Y-58838000D03*
%TO.P,IC5,31,XO_31*%
%TO.N,unconnected-(IC5-XO-Pad31)*%
X157262000Y-58838000D03*
%TO.P,IC5,32,SCSN_32*%
%TO.N,/ESP_SCSN*%
X157762000Y-58838000D03*
%TO.P,IC5,33,SCLK_33*%
%TO.N,/SCLK*%
X158262000Y-58838000D03*
%TO.P,IC5,34,MISO_34*%
%TO.N,/SOT*%
X158762000Y-58838000D03*
%TO.P,IC5,35,MOSI_35*%
%TO.N,/SI*%
X159262000Y-58838000D03*
%TO.P,IC5,36,INTN_36*%
%TO.N,/ESP_IRQ*%
X159762000Y-58838000D03*
D49*
%TO.P,IC5,37,RSTN_37*%
%TO.N,/ESP_USRST*%
X161250000Y-57350000D03*
%TO.P,IC5,38,RSVD_2_38*%
%TO.N,GND*%
X161250000Y-56850000D03*
%TO.P,IC5,39,RSVD_3_39*%
X161250000Y-56350000D03*
%TO.P,IC5,40,RSVD_4_40*%
X161250000Y-55850000D03*
%TO.P,IC5,41,RSVD_5_41*%
X161250000Y-55350000D03*
%TO.P,IC5,42,RSVD_6_42*%
%TO.N,+3V3*%
X161250000Y-54850000D03*
%TO.P,IC5,43,PMODE2_43*%
X161250000Y-54350000D03*
%TO.P,IC5,44,PMODE1_44*%
X161250000Y-53850000D03*
%TO.P,IC5,45,PMODE0_45*%
X161250000Y-53350000D03*
%TO.P,IC5,46,NC_3_46*%
%TO.N,unconnected-(IC5-NC_3-Pad46)*%
X161250000Y-52850000D03*
%TO.P,IC5,47,NC_4_47*%
%TO.N,unconnected-(IC5-NC_4-Pad47)*%
X161250000Y-52350000D03*
%TO.P,IC5,48,AGND_6_48*%
%TO.N,GND*%
X161250000Y-51850000D03*
%TD*%
D36*
%TO.P,C5,1*%
%TO.N,GND*%
X59505175Y-36750002D03*
%TO.P,C5,2*%
%TO.N,/CP_VDD*%
X59505175Y-34675002D03*
%TD*%
D10*
%TO.P,R35,1*%
%TO.N,/D5*%
X125310000Y-62900000D03*
%TO.P,R35,2*%
%TO.N,/Y5*%
X123310000Y-62900000D03*
%TD*%
D30*
%TO.P,C8,1*%
%TO.N,/1V20*%
X150350000Y-56550000D03*
%TO.P,C8,2*%
%TO.N,GND*%
X148275000Y-56550000D03*
%TD*%
D13*
%TO.P,R23,1*%
%TO.N,+3V3*%
X44120000Y-31990000D03*
%TO.P,R23,2*%
%TO.N,/ESP_EN*%
X44120000Y-29990000D03*
%TD*%
D26*
%TO.P,TP1,1,1_1*%
%TO.N,+3V3*%
X54000000Y-91425002D03*
%TD*%
D50*
%TO.P,IC6,1,RI_/_CLK_1*%
%TO.N,unconnected-(IC6-RI_{slash}_CLK-Pad1)*%
X61305175Y-30675002D03*
%TO.P,IC6,2,GND_1_2*%
%TO.N,GND*%
X61305175Y-31175002D03*
%TO.P,IC6,3,D+_3*%
%TO.N,/CD_DP*%
X61305175Y-31675002D03*
%TO.P,IC6,4,D-_4*%
%TO.N,/CD_DN*%
X61305175Y-32175002D03*
%TO.P,IC6,5,VIO_5*%
%TO.N,/CP_VDD*%
X61305175Y-32675002D03*
%TO.P,IC6,6,VDD_6*%
X61305175Y-33175002D03*
D51*
%TO.P,IC6,7,VREGIN_7*%
%TO.N,/USB_VBUS*%
X62005175Y-33875002D03*
%TO.P,IC6,8,VBUS_8*%
X62505175Y-33875002D03*
%TO.P,IC6,9,RSTB_9*%
%TO.N,/RSTB*%
X63005175Y-33875002D03*
%TO.P,IC6,10,NC_1_10*%
%TO.N,unconnected-(IC6-NC_1-Pad10)*%
X63505175Y-33875002D03*
%TO.P,IC6,11,GPIO.3_/_WAKEUP_11*%
%TO.N,unconnected-(IC6-GPIO.3_{slash}_WAKEUP-Pad11)*%
X64005175Y-33875002D03*
%TO.P,IC6,12,GPIO.2_/_RS485_12*%
%TO.N,unconnected-(IC6-GPIO.2_{slash}_RS485-Pad12)*%
X64505175Y-33875002D03*
D50*
%TO.P,IC6,13,GPIO.1_/_RXT_13*%
%TO.N,unconnected-(IC6-GPIO.1_{slash}_RXT-Pad13)*%
X65205175Y-33175002D03*
%TO.P,IC6,14,GPIO.0_/_TXT_14*%
%TO.N,unconnected-(IC6-GPIO.0_{slash}_TXT-Pad14)*%
X65205175Y-32675002D03*
%TO.P,IC6,15,SUSPENDB_15*%
%TO.N,unconnected-(IC6-SUSPENDB-Pad15)*%
X65205175Y-32175002D03*
%TO.P,IC6,16,NC_2_16*%
%TO.N,unconnected-(IC6-NC_2-Pad16)*%
X65205175Y-31675002D03*
%TO.P,IC6,17,SUSPEND_17*%
%TO.N,unconnected-(IC6-SUSPEND-Pad17)*%
X65205175Y-31175002D03*
%TO.P,IC6,18,CTS_18*%
%TO.N,unconnected-(IC6-CTS-Pad18)*%
X65205175Y-30675002D03*
D51*
%TO.P,IC6,19,RTS_19*%
%TO.N,/RTS*%
X64505175Y-29975002D03*
%TO.P,IC6,20,RXD_20*%
%TO.N,/ESP_RX0*%
X64005175Y-29975002D03*
%TO.P,IC6,21,TXD_21*%
%TO.N,/ESP_TX0*%
X63505175Y-29975002D03*
%TO.P,IC6,22,DSR_22*%
%TO.N,unconnected-(IC6-DSR-Pad22)*%
X63005175Y-29975002D03*
%TO.P,IC6,23,DTR_23*%
%TO.N,/DTR*%
X62505175Y-29975002D03*
%TO.P,IC6,24,DCD_24*%
%TO.N,unconnected-(IC6-DCD-Pad24)*%
X62005175Y-29975002D03*
D52*
%TO.P,IC6,25,GND_2_25*%
%TO.N,GND*%
X63255175Y-31925002D03*
%TD*%
D11*
%TO.P,C24,1*%
%TO.N,GND*%
X119167675Y-30225002D03*
%TO.P,C24,2*%
%TO.N,+3V3*%
X121242675Y-30225002D03*
%TD*%
D10*
%TO.P,R75,1*%
%TO.N,/1IN+*%
X46800000Y-75500000D03*
%TO.P,R75,2*%
%TO.N,/1OUT*%
X44800000Y-75500000D03*
%TD*%
D12*
%TO.P,R62,1*%
%TO.N,/RXA2D*%
X99955175Y-27650000D03*
%TO.P,R62,2*%
%TO.N,/RXA2*%
X101955175Y-27650000D03*
%TD*%
D13*
%TO.P,R9,1*%
%TO.N,/XS2T*%
X97254825Y-34334998D03*
%TO.P,R9,2*%
%TO.N,/XS2*%
X97254825Y-32334998D03*
%TD*%
D10*
%TO.P,R47,1*%
%TO.N,/TXB4D*%
X94955175Y-51725002D03*
%TO.P,R47,2*%
%TO.N,/TXB4*%
X92955175Y-51725002D03*
%TD*%
D44*
%TO.P,IC9,1,I/O1_1_1*%
%TO.N,/WRXN*%
X155100000Y-48000000D03*
%TO.P,IC9,2,GND_2*%
%TO.N,GND*%
X156050000Y-48000000D03*
%TO.P,IC9,3,I/O2_1_3*%
%TO.N,/WRXP*%
X157000000Y-48000000D03*
%TO.P,IC9,4,I/O2_2_4*%
%TO.N,/RXP*%
X157000000Y-45500000D03*
%TO.P,IC9,5,VBUS_5*%
%TO.N,+3V3*%
X156050000Y-45500000D03*
%TO.P,IC9,6,I/O1_2_6*%
%TO.N,/RXN*%
X155100000Y-45500000D03*
%TD*%
D16*
%TO.P,H6,1,1_1*%
%TO.N,GND*%
X37990000Y-91340000D03*
%TD*%
D10*
%TO.P,R41,1*%
%TO.N,/TXB3D*%
X133205175Y-29225002D03*
%TO.P,R41,2*%
%TO.N,/TXB3*%
X131205175Y-29225002D03*
%TD*%
D12*
%TO.P,R29,1*%
%TO.N,/D0*%
X113710000Y-60950000D03*
%TO.P,R29,2*%
%TO.N,/Y0*%
X115710000Y-60950000D03*
%TD*%
D53*
%TO.P,F2,1,1_1*%
%TO.N,Net-(J4-Pin_1)*%
X77125000Y-79700000D03*
%TO.P,F2,2,2_2*%
%TO.N,+12V*%
X72475000Y-79700000D03*
%TD*%
D38*
%TO.P,J3,1,1_1*%
%TO.N,/RXB1D*%
X37395175Y-41857002D03*
%TO.P,J3,2,2_2*%
%TO.N,/TXB1D*%
X37395175Y-44615002D03*
%TO.P,J3,3,3_3*%
%TO.N,/RXB2D*%
X37395175Y-47373002D03*
%TO.P,J3,4,4_4*%
%TO.N,/TXB2D*%
X37395175Y-50131002D03*
%TO.P,J3,5,5_5*%
%TO.N,/RXB3D*%
X37395175Y-52889002D03*
%TO.P,J3,6,6_6*%
%TO.N,/TXB3D*%
X37395175Y-55647002D03*
%TO.P,J3,7,7_7*%
%TO.N,/RXB4D*%
X37395175Y-58405002D03*
%TO.P,J3,8,8_8*%
%TO.N,/TXB4D*%
X37395175Y-61163002D03*
%TO.P,J3,9,9_9*%
%TO.N,/RXB5D*%
X37395175Y-63921002D03*
%TO.P,J3,10,10_10*%
%TO.N,/TXB5D*%
X37395175Y-66679002D03*
%TO.P,J3,11,11_11*%
%TO.N,/RXB6D*%
X37395175Y-69437002D03*
%TO.P,J3,12,12_12*%
%TO.N,/TXB6D*%
X37395175Y-72195002D03*
%TO.P,J3,13,13_13*%
%TO.N,GND*%
X37395175Y-74953002D03*
%TO.P,J3,14,14_14*%
X34555175Y-43236002D03*
%TO.P,J3,15,15_15*%
%TO.N,+5V*%
X34555175Y-45994002D03*
%TO.P,J3,16,16_16*%
%TO.N,GND*%
X34555175Y-48752002D03*
%TO.P,J3,17,17_17*%
%TO.N,+5V*%
X34555175Y-51510002D03*
%TO.P,J3,18,18_18*%
%TO.N,GND*%
X34555175Y-54268002D03*
%TO.P,J3,19,19_19*%
%TO.N,+5V*%
X34555175Y-57026002D03*
%TO.P,J3,20,20_20*%
%TO.N,GND*%
X34555175Y-59784002D03*
%TO.P,J3,21,21_21*%
%TO.N,+5V*%
X34555175Y-62542002D03*
%TO.P,J3,22,22_22*%
%TO.N,GND*%
X34555175Y-65300002D03*
%TO.P,J3,23,23_23*%
%TO.N,+5V*%
X34555175Y-68058002D03*
%TO.P,J3,24,24_24*%
%TO.N,GND*%
X34555175Y-70816002D03*
%TO.P,J3,25,25_25*%
%TO.N,+5V*%
X34555175Y-73574002D03*
D39*
%TO.P,J3,MH1,MH1_MH1*%
%TO.N,GND*%
X35975175Y-81925002D03*
%TO.P,J3,MH2,MH2_MH2*%
X35975175Y-34885002D03*
%TD*%
D25*
%TO.P,R74,1*%
%TO.N,/12VIN*%
X58600000Y-73300000D03*
%TO.P,R74,2*%
%TO.N,/2OUT*%
X58600000Y-75300000D03*
%TD*%
D46*
%TO.P,U4,1,\u002ARTSA_1*%
%TO.N,unconnected-(U4-\u002ARTSA-Pad1)*%
X104002425Y-25250002D03*
%TO.P,U4,2,\u002ACTSA_2*%
%TO.N,unconnected-(U4-\u002ACTSA-Pad2)*%
X104002425Y-25900003D03*
%TO.P,U4,3,TXA_3*%
%TO.N,/TXA2*%
X104002425Y-26550002D03*
%TO.P,U4,4,RXA_4*%
%TO.N,/RXA2*%
X104002425Y-27200003D03*
%TO.P,U4,5,\u002ARESET_5*%
%TO.N,/ESP_USRST*%
X104002425Y-27850001D03*
%TO.P,U4,6,XTAL1_6*%
%TO.N,/XS2*%
X104002425Y-28500003D03*
%TO.P,U4,7,XTAL2_7*%
%TO.N,GND*%
X104002425Y-29150001D03*
%TO.P,U4,8,VDD_8*%
%TO.N,+3V3*%
X104002425Y-29800000D03*
%TO.P,U4,9,I2C/\u002ASPI_9*%
%TO.N,GND*%
X104002425Y-30450001D03*
%TO.P,U4,10,\u002ACS/A0_10*%
%TO.N,/D1*%
X104002425Y-31100000D03*
%TO.P,U4,11,SI/A1_11*%
%TO.N,/SI*%
X104002425Y-31750001D03*
%TO.P,U4,12,SO_12*%
%TO.N,/SO*%
X104002425Y-32400000D03*
%TO.P,U4,13,SCL/SCLK_13*%
%TO.N,/SCLK*%
X104002425Y-33050001D03*
%TO.P,U4,14,SDA_14*%
%TO.N,unconnected-(U4-SDA-Pad14)*%
X104002425Y-33700000D03*
%TO.P,U4,15,\u002AIRQ_15*%
%TO.N,/ESP_IRQ*%
X109907925Y-33700002D03*
%TO.P,U4,16,\u002ACTSB_16*%
%TO.N,unconnected-(U4-\u002ACTSB-Pad16)*%
X109907925Y-33050001D03*
%TO.P,U4,17,\u002ARTSB_17*%
%TO.N,unconnected-(U4-\u002ARTSB-Pad17)*%
X109907925Y-32400002D03*
%TO.P,U4,18,GPIO0/\u002ADSRB_18*%
%TO.N,unconnected-(U4-GPIO0{slash}\u002ADSRB-Pad18)*%
X109907925Y-31750001D03*
%TO.P,U4,19,GPIO1/\u002ADTRB_19*%
%TO.N,unconnected-(U4-GPIO1{slash}\u002ADTRB-Pad19)*%
X109907925Y-31100003D03*
%TO.P,U4,20,GPIO2/\u002ACDB_20*%
%TO.N,unconnected-(U4-GPIO2{slash}\u002ACDB-Pad20)*%
X109907925Y-30450001D03*
%TO.P,U4,21,GPIO3/\u002ARIB_21*%
%TO.N,unconnected-(U4-GPIO3{slash}\u002ARIB-Pad21)*%
X109907925Y-29800003D03*
%TO.P,U4,22,VSS_22*%
%TO.N,GND*%
X109907925Y-29150001D03*
%TO.P,U4,23,TXB_23*%
%TO.N,/TXB2*%
X109907925Y-28500003D03*
%TO.P,U4,24,RXB_24*%
%TO.N,/RXB2*%
X109907925Y-27850001D03*
%TO.P,U4,25,GPIO4/\u002ADSRA_25*%
%TO.N,unconnected-(U4-GPIO4{slash}\u002ADSRA-Pad25)*%
X109907925Y-27200003D03*
%TO.P,U4,26,GPIO5/\u002ADTRA_26*%
%TO.N,unconnected-(U4-GPIO5{slash}\u002ADTRA-Pad26)*%
X109907925Y-26550002D03*
%TO.P,U4,27,GPIO6/\u002ACDA_27*%
%TO.N,unconnected-(U4-GPIO6{slash}\u002ACDA-Pad27)*%
X109907925Y-25900003D03*
%TO.P,U4,28,GPIO7/\u002ARIA_28*%
%TO.N,unconnected-(U4-GPIO7{slash}\u002ARIA-Pad28)*%
X109907925Y-25250002D03*
%TD*%
D13*
%TO.P,R53,1*%
%TO.N,Net-(5V1-A)*%
X63600000Y-86600000D03*
%TO.P,R53,2*%
%TO.N,GND*%
X63600000Y-84600000D03*
%TD*%
D11*
%TO.P,C27,1*%
%TO.N,GND*%
X99815000Y-52130000D03*
%TO.P,C27,2*%
%TO.N,+3V3*%
X101890000Y-52130000D03*
%TD*%
D14*
%TO.P,C40,1*%
%TO.N,GND*%
X61505175Y-70387502D03*
%TO.P,C40,2*%
%TO.N,+5V*%
X61505175Y-72462502D03*
%TD*%
D10*
%TO.P,R44,1*%
%TO.N,/RXB5D*%
X113705175Y-49725002D03*
%TO.P,R44,2*%
%TO.N,/RXB5*%
X111705175Y-49725002D03*
%TD*%
D33*
%TO.P,IC11,1,B_1*%
%TO.N,Net-(IC11-B)*%
X56305175Y-27625002D03*
%TO.P,IC11,2,E_2*%
%TO.N,/DTR*%
X58205175Y-27625002D03*
%TO.P,IC11,3,C_3*%
%TO.N,/ESP_IO0*%
X57255175Y-25225002D03*
%TD*%
D13*
%TO.P,R17,1*%
%TO.N,/CP_VDD*%
X63000000Y-37600000D03*
%TO.P,R17,2*%
%TO.N,/RSTB*%
X63000000Y-35600000D03*
%TD*%
D10*
%TO.P,R45,1*%
%TO.N,/TXB2D*%
X113955175Y-29225002D03*
%TO.P,R45,2*%
%TO.N,/TXB2*%
X111955175Y-29225002D03*
%TD*%
D12*
%TO.P,R59,1*%
%TO.N,/TXA5D*%
X99830000Y-48220000D03*
%TO.P,R59,2*%
%TO.N,/TXA5*%
X101830000Y-48220000D03*
%TD*%
%TO.P,R33,1*%
%TO.N,/D3*%
X113720000Y-62910000D03*
%TO.P,R33,2*%
%TO.N,/Y3*%
X115720000Y-62910000D03*
%TD*%
D21*
%TO.P,IRQ1,1,K_1*%
%TO.N,+3V3*%
X154700000Y-82350000D03*
%TO.P,IRQ1,2,A_2*%
%TO.N,Net-(IRQ1-A)*%
X154700000Y-84250000D03*
%TD*%
D14*
%TO.P,C2,1*%
%TO.N,GND*%
X45955175Y-45937500D03*
%TO.P,C2,2*%
%TO.N,+3V3*%
X45955175Y-48012500D03*
%TD*%
D54*
%TO.P,U3,1,A0_1*%
%TO.N,/ESP_A0*%
X115735175Y-70075002D03*
%TO.P,U3,2,A1_2*%
%TO.N,/ESP_A1*%
X117005175Y-70075002D03*
%TO.P,U3,3,A2_3*%
%TO.N,/ESP_A2*%
X118275175Y-70075002D03*
%TO.P,U3,4,\u002AE1_4*%
%TO.N,GND*%
X119545175Y-70075002D03*
%TO.P,U3,5,\u002AE2_5*%
X120815175Y-70075002D03*
%TO.P,U3,6,E3_6*%
%TO.N,/ESP_E3*%
X122085175Y-70075002D03*
%TO.P,U3,7,Y7_7*%
%TO.N,unconnected-(U3-Y7-Pad7)*%
X123355175Y-70075002D03*
%TO.P,U3,8,GND_8*%
%TO.N,GND*%
X124625175Y-70075002D03*
%TO.P,U3,9,Y6_9*%
%TO.N,unconnected-(U3-Y6-Pad9)*%
X124625175Y-65350602D03*
%TO.P,U3,10,Y5_10*%
%TO.N,/Y5*%
X123355175Y-65350602D03*
%TO.P,U3,11,Y4_11*%
%TO.N,/Y4*%
X122085175Y-65350602D03*
%TO.P,U3,12,Y3_12*%
%TO.N,/Y3*%
X120815175Y-65350602D03*
%TO.P,U3,13,Y2_13*%
%TO.N,/Y2*%
X119545175Y-65350602D03*
%TO.P,U3,14,Y1_14*%
%TO.N,/Y1*%
X118275175Y-65350602D03*
%TO.P,U3,15,Y0_15*%
%TO.N,/Y0*%
X117005175Y-65350602D03*
%TO.P,U3,16,VCC_16*%
%TO.N,+3V3*%
X115735175Y-65350602D03*
%TD*%
D10*
%TO.P,R46,1*%
%TO.N,/RXB2D*%
X113955175Y-27225002D03*
%TO.P,R46,2*%
%TO.N,/RXB2*%
X111955175Y-27225002D03*
%TD*%
D14*
%TO.P,C17,1*%
%TO.N,+3V3*%
X163300000Y-56100000D03*
%TO.P,C17,2*%
%TO.N,GND*%
X163300000Y-58175000D03*
%TD*%
D55*
%TO.P,J2,*%
%TO.N,*%
X154610175Y-39785002D03*
D56*
%TO.P,J2,1*%
%TO.N,/TXP*%
X162230175Y-39785002D03*
D55*
%TO.P,J2,2*%
%TO.N,/TXN*%
X160970175Y-42325002D03*
%TO.P,J2,3*%
%TO.N,/RXP*%
X159690175Y-39785002D03*
%TO.P,J2,4*%
%TO.N,+3V3*%
X158430175Y-42325002D03*
%TO.P,J2,5*%
X157150175Y-39785002D03*
%TO.P,J2,6*%
%TO.N,/RXN*%
X155890175Y-42325002D03*
%TO.P,J2,8*%
%TO.N,GND*%
X153350175Y-42325002D03*
%TO.P,J2,9*%
%TO.N,Net-(J2-Pad9)*%
X164415175Y-28525002D03*
%TO.P,J2,10*%
%TO.N,/LINKLED*%
X161875175Y-28525002D03*
%TO.P,J2,11*%
%TO.N,/ACTLED*%
X153705175Y-28525002D03*
%TO.P,J2,12*%
%TO.N,Net-(J2-Pad12)*%
X151165175Y-28525002D03*
D57*
%TO.P,J2,15,SHIELD_15*%
%TO.N,GND*%
X165535175Y-36475002D03*
%TO.P,J2,16,SHIELD_16*%
X150045175Y-36475002D03*
%TD*%
D12*
%TO.P,R14,1*%
%TO.N,/ESP_IO0*%
X72140000Y-63430000D03*
%TO.P,R14,2*%
%TO.N,+3V3*%
X74140000Y-63430000D03*
%TD*%
%TO.P,R81,1*%
%TO.N,/ESP_SCSNT*%
X71425000Y-59050000D03*
%TO.P,R81,2*%
%TO.N,/ESP_SCSN*%
X73425000Y-59050000D03*
%TD*%
D10*
%TO.P,R48,1*%
%TO.N,/RXB4D*%
X94955175Y-49725002D03*
%TO.P,R48,2*%
%TO.N,/RXB4*%
X92955175Y-49725002D03*
%TD*%
D11*
%TO.P,C31,1*%
%TO.N,+3V3*%
X141042500Y-46050000D03*
%TO.P,C31,2*%
%TO.N,GND*%
X143117500Y-46050000D03*
%TD*%
D14*
%TO.P,C4,1*%
%TO.N,GND*%
X48205175Y-45937502D03*
%TO.P,C4,2*%
%TO.N,+3V3*%
X48205175Y-48012502D03*
%TD*%
D41*
%TO.P,D3,1,K_1*%
%TO.N,Net-(D3-K)*%
X56600000Y-68050000D03*
%TO.P,D3,2,A_2*%
%TO.N,/2OUT*%
X56600000Y-71350000D03*
%TD*%
D25*
%TO.P,R12,1*%
%TO.N,/XS5T*%
X97320000Y-44020000D03*
%TO.P,R12,2*%
%TO.N,/XS5*%
X97320000Y-46020000D03*
%TD*%
D14*
%TO.P,C38,1*%
%TO.N,/12VIN*%
X61505175Y-78887502D03*
%TO.P,C38,2*%
%TO.N,GND*%
X61505175Y-80962502D03*
%TD*%
D12*
%TO.P,R18,1*%
%TO.N,GND*%
X151200000Y-46000000D03*
%TO.P,R18,2*%
%TO.N,/EXRES1*%
X153200000Y-46000000D03*
%TD*%
D46*
%TO.P,U6,1,\u002ARTSA_1*%
%TO.N,unconnected-(U6-\u002ARTSA-Pad1)*%
X123252425Y-25250002D03*
%TO.P,U6,2,\u002ACTSA_2*%
%TO.N,unconnected-(U6-\u002ACTSA-Pad2)*%
X123252425Y-25900003D03*
%TO.P,U6,3,TXA_3*%
%TO.N,/TXA3*%
X123252425Y-26550002D03*
%TO.P,U6,4,RXA_4*%
%TO.N,/RXA3*%
X123252425Y-27200003D03*
%TO.P,U6,5,\u002ARESET_5*%
%TO.N,/ESP_USRST*%
X123252425Y-27850001D03*
%TO.P,U6,6,XTAL1_6*%
%TO.N,/XS3*%
X123252425Y-28500003D03*
%TO.P,U6,7,XTAL2_7*%
%TO.N,GND*%
X123252425Y-29150001D03*
%TO.P,U6,8,VDD_8*%
%TO.N,+3V3*%
X123252425Y-29800000D03*
%TO.P,U6,9,I2C/\u002ASPI_9*%
%TO.N,GND*%
X123252425Y-30450001D03*
%TO.P,U6,10,\u002ACS/A0_10*%
%TO.N,/D2*%
X123252425Y-31100000D03*
%TO.P,U6,11,SI/A1_11*%
%TO.N,/SI*%
X123252425Y-31750001D03*
%TO.P,U6,12,SO_12*%
%TO.N,/SO*%
X123252425Y-32400000D03*
%TO.P,U6,13,SCL/SCLK_13*%
%TO.N,/SCLK*%
X123252425Y-33050001D03*
%TO.P,U6,14,SDA_14*%
%TO.N,unconnected-(U6-SDA-Pad14)*%
X123252425Y-33700000D03*
%TO.P,U6,15,\u002AIRQ_15*%
%TO.N,/ESP_IRQ*%
X129157925Y-33700002D03*
%TO.P,U6,16,\u002ACTSB_16*%
%TO.N,unconnected-(U6-\u002ACTSB-Pad16)*%
X129157925Y-33050001D03*
%TO.P,U6,17,\u002ARTSB_17*%
%TO.N,unconnected-(U6-\u002ARTSB-Pad17)*%
X129157925Y-32400002D03*
%TO.P,U6,18,GPIO0/\u002ADSRB_18*%
%TO.N,unconnected-(U6-GPIO0{slash}\u002ADSRB-Pad18)*%
X129157925Y-31750001D03*
%TO.P,U6,19,GPIO1/\u002ADTRB_19*%
%TO.N,unconnected-(U6-GPIO1{slash}\u002ADTRB-Pad19)*%
X129157925Y-31100003D03*
%TO.P,U6,20,GPIO2/\u002ACDB_20*%
%TO.N,unconnected-(U6-GPIO2{slash}\u002ACDB-Pad20)*%
X129157925Y-30450001D03*
%TO.P,U6,21,GPIO3/\u002ARIB_21*%
%TO.N,unconnected-(U6-GPIO3{slash}\u002ARIB-Pad21)*%
X129157925Y-29800003D03*
%TO.P,U6,22,VSS_22*%
%TO.N,GND*%
X129157925Y-29150001D03*
%TO.P,U6,23,TXB_23*%
%TO.N,/TXB3*%
X129157925Y-28500003D03*
%TO.P,U6,24,RXB_24*%
%TO.N,/RXB3*%
X129157925Y-27850001D03*
%TO.P,U6,25,GPIO4/\u002ADSRA_25*%
%TO.N,unconnected-(U6-GPIO4{slash}\u002ADSRA-Pad25)*%
X129157925Y-27200003D03*
%TO.P,U6,26,GPIO5/\u002ADTRA_26*%
%TO.N,unconnected-(U6-GPIO5{slash}\u002ADTRA-Pad26)*%
X129157925Y-26550002D03*
%TO.P,U6,27,GPIO6/\u002ACDA_27*%
%TO.N,unconnected-(U6-GPIO6{slash}\u002ACDA-Pad27)*%
X129157925Y-25900003D03*
%TO.P,U6,28,GPIO7/\u002ARIA_28*%
%TO.N,unconnected-(U6-GPIO7{slash}\u002ARIA-Pad28)*%
X129157925Y-25250002D03*
%TD*%
D13*
%TO.P,R2,1*%
%TO.N,/IRQ_STAT*%
X154700000Y-88400000D03*
%TO.P,R2,2*%
%TO.N,Net-(IRQ1-A)*%
X154700000Y-86400000D03*
%TD*%
D58*
%TO.P,IC14,1,IN_1*%
%TO.N,+5V*%
X143855175Y-64625002D03*
%TO.P,IC14,2,GND_1_2*%
%TO.N,GND*%
X143855175Y-66925002D03*
%TO.P,IC14,3,OUT_3*%
%TO.N,+3V3*%
X143855175Y-69225002D03*
D59*
%TO.P,IC14,4,GND_2_4*%
%TO.N,GND*%
X150155175Y-66925002D03*
%TD*%
D11*
%TO.P,C23,1*%
%TO.N,GND*%
X81167675Y-29725002D03*
%TO.P,C23,2*%
%TO.N,+3V3*%
X83242675Y-29725002D03*
%TD*%
D34*
%TO.P,IC13,1,~{OE}_1*%
%TO.N,GND*%
X136230000Y-41850000D03*
%TO.P,IC13,2,A_2*%
%TO.N,/ESP_MOSI*%
X136230000Y-42800000D03*
%TO.P,IC13,3,GND_3*%
%TO.N,GND*%
X136230000Y-43750000D03*
%TO.P,IC13,4,Y_4*%
%TO.N,/OUT_MOSI*%
X138730000Y-43750000D03*
%TO.P,IC13,5,VCC_5*%
%TO.N,+3V3*%
X138730000Y-41850000D03*
%TD*%
D33*
%TO.P,IC4,1,B_1*%
%TO.N,Net-(IC4-B)*%
X158650000Y-86100000D03*
%TO.P,IC4,2,E_2*%
%TO.N,GND*%
X156750000Y-86100000D03*
%TO.P,IC4,3,C_3*%
%TO.N,/IRQ_STAT*%
X157700000Y-88500000D03*
%TD*%
D36*
%TO.P,C32,1*%
%TO.N,GND*%
X141505175Y-66700002D03*
%TO.P,C32,2*%
%TO.N,+5V*%
X141505175Y-64625002D03*
%TD*%
D46*
%TO.P,U2,1,\u002ARTSA_1*%
%TO.N,unconnected-(U2-\u002ARTSA-Pad1)*%
X85002425Y-47750002D03*
%TO.P,U2,2,\u002ACTSA_2*%
%TO.N,unconnected-(U2-\u002ACTSA-Pad2)*%
X85002425Y-48400003D03*
%TO.P,U2,3,TXA_3*%
%TO.N,/TXA4*%
X85002425Y-49050002D03*
%TO.P,U2,4,RXA_4*%
%TO.N,/RXA4*%
X85002425Y-49700003D03*
%TO.P,U2,5,\u002ARESET_5*%
%TO.N,/ESP_USRST*%
X85002425Y-50350001D03*
%TO.P,U2,6,XTAL1_6*%
%TO.N,/XS4*%
X85002425Y-51000003D03*
%TO.P,U2,7,XTAL2_7*%
%TO.N,GND*%
X85002425Y-51650001D03*
%TO.P,U2,8,VDD_8*%
%TO.N,+3V3*%
X85002425Y-52300000D03*
%TO.P,U2,9,I2C/\u002ASPI_9*%
%TO.N,GND*%
X85002425Y-52950001D03*
%TO.P,U2,10,\u002ACS/A0_10*%
%TO.N,/D3*%
X85002425Y-53600000D03*
%TO.P,U2,11,SI/A1_11*%
%TO.N,/SI*%
X85002425Y-54250001D03*
%TO.P,U2,12,SO_12*%
%TO.N,/SO*%
X85002425Y-54900000D03*
%TO.P,U2,13,SCL/SCLK_13*%
%TO.N,/SCLK*%
X85002425Y-55550001D03*
%TO.P,U2,14,SDA_14*%
%TO.N,unconnected-(U2-SDA-Pad14)*%
X85002425Y-56200000D03*
%TO.P,U2,15,\u002AIRQ_15*%
%TO.N,/ESP_IRQ*%
X90907925Y-56200002D03*
%TO.P,U2,16,\u002ACTSB_16*%
%TO.N,unconnected-(U2-\u002ACTSB-Pad16)*%
X90907925Y-55550001D03*
%TO.P,U2,17,\u002ARTSB_17*%
%TO.N,unconnected-(U2-\u002ARTSB-Pad17)*%
X90907925Y-54900002D03*
%TO.P,U2,18,GPIO0/\u002ADSRB_18*%
%TO.N,unconnected-(U2-GPIO0{slash}\u002ADSRB-Pad18)*%
X90907925Y-54250001D03*
%TO.P,U2,19,GPIO1/\u002ADTRB_19*%
%TO.N,unconnected-(U2-GPIO1{slash}\u002ADTRB-Pad19)*%
X90907925Y-53600003D03*
%TO.P,U2,20,GPIO2/\u002ACDB_20*%
%TO.N,unconnected-(U2-GPIO2{slash}\u002ACDB-Pad20)*%
X90907925Y-52950001D03*
%TO.P,U2,21,GPIO3/\u002ARIB_21*%
%TO.N,unconnected-(U2-GPIO3{slash}\u002ARIB-Pad21)*%
X90907925Y-52300003D03*
%TO.P,U2,22,VSS_22*%
%TO.N,GND*%
X90907925Y-51650001D03*
%TO.P,U2,23,TXB_23*%
%TO.N,/TXB4*%
X90907925Y-51000003D03*
%TO.P,U2,24,RXB_24*%
%TO.N,/RXB4*%
X90907925Y-50350001D03*
%TO.P,U2,25,GPIO4/\u002ADSRA_25*%
%TO.N,unconnected-(U2-GPIO4{slash}\u002ADSRA-Pad25)*%
X90907925Y-49700003D03*
%TO.P,U2,26,GPIO5/\u002ADTRA_26*%
%TO.N,unconnected-(U2-GPIO5{slash}\u002ADTRA-Pad26)*%
X90907925Y-49050002D03*
%TO.P,U2,27,GPIO6/\u002ACDA_27*%
%TO.N,unconnected-(U2-GPIO6{slash}\u002ACDA-Pad27)*%
X90907925Y-48400003D03*
%TO.P,U2,28,GPIO7/\u002ARIA_28*%
%TO.N,unconnected-(U2-GPIO7{slash}\u002ARIA-Pad28)*%
X90907925Y-47750002D03*
%TD*%
D33*
%TO.P,IC10,1,B_1*%
%TO.N,Net-(IC10-B)*%
X62555175Y-27600000D03*
%TO.P,IC10,2,E_2*%
%TO.N,/RTS*%
X64455175Y-27600000D03*
%TO.P,IC10,3,C_3*%
%TO.N,/ESP_EN*%
X63505175Y-25200000D03*
%TD*%
D30*
%TO.P,C15,1*%
%TO.N,+3V3*%
X150900000Y-50550000D03*
%TO.P,C15,2*%
%TO.N,GND*%
X148825000Y-50550000D03*
%TD*%
D60*
%TO.P,IC2,1,GND_1_1*%
%TO.N,GND*%
X51105175Y-46985002D03*
%TO.P,IC2,2,3V3_2*%
%TO.N,+3V3*%
X51105175Y-48255002D03*
%TO.P,IC2,3,EN_3*%
%TO.N,/ESP_EN*%
X51105175Y-49525002D03*
%TO.P,IC2,4,SENSOR_VP_4*%
%TO.N,unconnected-(IC2-SENSOR_VP-Pad4)*%
X51105175Y-50795002D03*
%TO.P,IC2,5,SENSOR_VN_5*%
%TO.N,unconnected-(IC2-SENSOR_VN-Pad5)*%
X51105175Y-52065002D03*
%TO.P,IC2,6,IO34_6*%
%TO.N,/IO34*%
X51105175Y-53335002D03*
%TO.P,IC2,7,IO35_7*%
%TO.N,/IO35*%
X51105175Y-54605002D03*
%TO.P,IC2,8,IO32_8*%
%TO.N,/ESP_A2*%
X51105175Y-55875002D03*
%TO.P,IC2,9,IO33_9*%
%TO.N,/ESP_E3*%
X51105175Y-57145002D03*
%TO.P,IC2,10,IO25_10*%
%TO.N,/ESP_A0*%
X51105175Y-58415002D03*
%TO.P,IC2,11,IO26_11*%
%TO.N,/ESP_A1*%
X51105175Y-59685002D03*
%TO.P,IC2,12,IO27_12*%
%TO.N,/IO27*%
X51105175Y-60955002D03*
%TO.P,IC2,13,IO14_13*%
%TO.N,/IO14*%
X51105175Y-62225002D03*
%TO.P,IC2,14,IO12_14*%
%TO.N,/IO12*%
X51105175Y-63495002D03*
D61*
%TO.P,IC2,15,GND_2_15*%
%TO.N,GND*%
X54140175Y-64745002D03*
%TO.P,IC2,16,IO13_16*%
%TO.N,/IO13*%
X55410175Y-64745002D03*
%TO.P,IC2,17,NC_1_17*%
%TO.N,unconnected-(IC2-NC_1-Pad17)*%
X56680175Y-64745002D03*
%TO.P,IC2,18,NC_2_18*%
%TO.N,unconnected-(IC2-NC_2-Pad18)*%
X57950175Y-64745002D03*
%TO.P,IC2,19,NC_3_19*%
%TO.N,unconnected-(IC2-NC_3-Pad19)*%
X59220175Y-64745002D03*
%TO.P,IC2,20,NC_4_20*%
%TO.N,unconnected-(IC2-NC_4-Pad20)*%
X60490175Y-64745002D03*
%TO.P,IC2,21,NC_5_21*%
%TO.N,unconnected-(IC2-NC_5-Pad21)*%
X61760175Y-64745002D03*
%TO.P,IC2,22,NC_6_22*%
%TO.N,unconnected-(IC2-NC_6-Pad22)*%
X63030175Y-64745002D03*
%TO.P,IC2,23,IO15_23*%
%TO.N,/IO15*%
X64300175Y-64745002D03*
%TO.P,IC2,24,IO2_24*%
%TO.N,/ESP_USRSTT*%
X65570175Y-64745002D03*
D60*
%TO.P,IC2,25,IO0_25*%
%TO.N,/ESP_IO0*%
X68605175Y-63495002D03*
%TO.P,IC2,26,IO4_26*%
%TO.N,/ESP_IRQ*%
X68605175Y-62225002D03*
%TO.P,IC2,27,IO16_27*%
%TO.N,/IO16*%
X68605175Y-60955002D03*
%TO.P,IC2,28,IO17_28*%
%TO.N,/IO17*%
X68605175Y-59685002D03*
%TO.P,IC2,29,IO5_29*%
%TO.N,/ESP_SCSNT*%
X68605175Y-58415002D03*
%TO.P,IC2,30,IO18_30*%
%TO.N,/ESP_SCLKT*%
X68605175Y-57145002D03*
%TO.P,IC2,31,IO19_31*%
%TO.N,/ESP_MISO*%
X68605175Y-55875002D03*
%TO.P,IC2,32,NC_7_32*%
%TO.N,unconnected-(IC2-NC_7-Pad32)*%
X68605175Y-54605002D03*
%TO.P,IC2,33,IO21_33*%
%TO.N,/IO21*%
X68605175Y-53335002D03*
%TO.P,IC2,34,RXD0_34*%
%TO.N,/ESP_RX0*%
X68605175Y-52065002D03*
%TO.P,IC2,35,TXD0_35*%
%TO.N,/ESP_TX0*%
X68605175Y-50795002D03*
%TO.P,IC2,36,IO22_36*%
%TO.N,/IO22*%
X68605175Y-49525002D03*
%TO.P,IC2,37,IO23_37*%
%TO.N,/ESP_MOSIT*%
X68605175Y-48255002D03*
%TO.P,IC2,38,GND_3_38*%
%TO.N,GND*%
X68605175Y-46985002D03*
D62*
%TO.P,IC2,39,GND_4_39*%
X58355175Y-54325002D03*
%TO.P,IC2,40,GND_5_40*%
X58355175Y-55725002D03*
%TO.P,IC2,41,GND_6_41*%
X59755175Y-55725002D03*
%TO.P,IC2,42,GND_7_42*%
X59755175Y-54325002D03*
%TO.P,IC2,43,GND_8_43*%
X59755175Y-52925002D03*
%TO.P,IC2,44,GND_9_44*%
X58355175Y-52925002D03*
%TO.P,IC2,45,GND_10_45*%
X56955175Y-52925002D03*
%TO.P,IC2,46,GND_11_46*%
X56955175Y-54325002D03*
%TO.P,IC2,47,GND_12_47*%
X56955175Y-55725002D03*
%TD*%
D10*
%TO.P,R37,1*%
%TO.N,/SI*%
X143030000Y-43950000D03*
%TO.P,R37,2*%
%TO.N,/OUT_MOSI*%
X141030000Y-43950000D03*
%TD*%
D63*
%TO.P,Q2,1,G_1*%
%TO.N,Net-(Q2-G)*%
X106537500Y-72250000D03*
%TO.P,Q2,2,S_2*%
%TO.N,GND*%
X106537500Y-70350000D03*
%TO.P,Q2,3,D_3*%
%TO.N,/FAN_VOUT*%
X104662500Y-71300000D03*
%TD*%
D30*
%TO.P,C30,1*%
%TO.N,+3V3*%
X103597500Y-42750000D03*
%TO.P,C30,2*%
%TO.N,GND*%
X101522500Y-42750000D03*
%TD*%
D11*
%TO.P,C34,1*%
%TO.N,+3V3*%
X140942500Y-41800000D03*
%TO.P,C34,2*%
%TO.N,GND*%
X143017500Y-41800000D03*
%TD*%
D46*
%TO.P,U1,1,\u002ARTSA_1*%
%TO.N,unconnected-(U1-\u002ARTSA-Pad1)*%
X85299675Y-25275001D03*
%TO.P,U1,2,\u002ACTSA_2*%
%TO.N,unconnected-(U1-\u002ACTSA-Pad2)*%
X85299675Y-25925002D03*
%TO.P,U1,3,TXA_3*%
%TO.N,/TXA1*%
X85299675Y-26575001D03*
%TO.P,U1,4,RXA_4*%
%TO.N,/RXA1*%
X85299675Y-27225002D03*
%TO.P,U1,5,\u002ARESET_5*%
%TO.N,/ESP_USRST*%
X85299675Y-27875000D03*
%TO.P,U1,6,XTAL1_6*%
%TO.N,/XS1*%
X85299675Y-28525002D03*
%TO.P,U1,7,XTAL2_7*%
%TO.N,GND*%
X85299675Y-29175000D03*
%TO.P,U1,8,VDD_8*%
%TO.N,+3V3*%
X85299675Y-29824999D03*
%TO.P,U1,9,I2C/\u002ASPI_9*%
%TO.N,GND*%
X85299675Y-30475000D03*
%TO.P,U1,10,\u002ACS/A0_10*%
%TO.N,/D0*%
X85299675Y-31124999D03*
%TO.P,U1,11,SI/A1_11*%
%TO.N,/SI*%
X85299675Y-31775000D03*
%TO.P,U1,12,SO_12*%
%TO.N,/SO*%
X85299675Y-32424999D03*
%TO.P,U1,13,SCL/SCLK_13*%
%TO.N,/SCLK*%
X85299675Y-33075000D03*
%TO.P,U1,14,SDA_14*%
%TO.N,unconnected-(U1-SDA-Pad14)*%
X85299675Y-33724999D03*
%TO.P,U1,15,\u002AIRQ_15*%
%TO.N,/ESP_IRQ*%
X91205175Y-33725001D03*
%TO.P,U1,16,\u002ACTSB_16*%
%TO.N,unconnected-(U1-\u002ACTSB-Pad16)*%
X91205175Y-33075000D03*
%TO.P,U1,17,\u002ARTSB_17*%
%TO.N,unconnected-(U1-\u002ARTSB-Pad17)*%
X91205175Y-32425001D03*
%TO.P,U1,18,GPIO0/\u002ADSRB_18*%
%TO.N,unconnected-(U1-GPIO0{slash}\u002ADSRB-Pad18)*%
X91205175Y-31775000D03*
%TO.P,U1,19,GPIO1/\u002ADTRB_19*%
%TO.N,unconnected-(U1-GPIO1{slash}\u002ADTRB-Pad19)*%
X91205175Y-31125002D03*
%TO.P,U1,20,GPIO2/\u002ACDB_20*%
%TO.N,unconnected-(U1-GPIO2{slash}\u002ACDB-Pad20)*%
X91205175Y-30475000D03*
%TO.P,U1,21,GPIO3/\u002ARIB_21*%
%TO.N,unconnected-(U1-GPIO3{slash}\u002ARIB-Pad21)*%
X91205175Y-29825002D03*
%TO.P,U1,22,VSS_22*%
%TO.N,GND*%
X91205175Y-29175000D03*
%TO.P,U1,23,TXB_23*%
%TO.N,/TXB1*%
X91205175Y-28525002D03*
%TO.P,U1,24,RXB_24*%
%TO.N,/RXB1*%
X91205175Y-27875000D03*
%TO.P,U1,25,GPIO4/\u002ADSRA_25*%
%TO.N,unconnected-(U1-GPIO4{slash}\u002ADSRA-Pad25)*%
X91205175Y-27225002D03*
%TO.P,U1,26,GPIO5/\u002ADTRA_26*%
%TO.N,unconnected-(U1-GPIO5{slash}\u002ADTRA-Pad26)*%
X91205175Y-26575001D03*
%TO.P,U1,27,GPIO6/\u002ACDA_27*%
%TO.N,unconnected-(U1-GPIO6{slash}\u002ACDA-Pad27)*%
X91205175Y-25925002D03*
%TO.P,U1,28,GPIO7/\u002ARIA_28*%
%TO.N,unconnected-(U1-GPIO7{slash}\u002ARIA-Pad28)*%
X91205175Y-25275001D03*
%TD*%
D14*
%TO.P,C20,1*%
%TO.N,/ESP_IO0*%
X46720000Y-29952500D03*
%TO.P,C20,2*%
%TO.N,GND*%
X46720000Y-32027500D03*
%TD*%
D25*
%TO.P,R22,1*%
%TO.N,+3V3*%
X141860000Y-25220000D03*
%TO.P,R22,2*%
%TO.N,Net-(J2-Pad12)*%
X141860000Y-27220000D03*
%TD*%
D21*
%TO.P,5V1,1,K_1*%
%TO.N,+5V*%
X60005175Y-86375002D03*
%TO.P,5V1,2,A_2*%
%TO.N,Net-(5V1-A)*%
X60005175Y-84475002D03*
%TD*%
D14*
%TO.P,C1,1*%
%TO.N,GND*%
X93440000Y-38142500D03*
%TO.P,C1,2*%
%TO.N,+3V3*%
X93440000Y-40217500D03*
%TD*%
D25*
%TO.P,R32,1*%
%TO.N,/D2*%
X119510000Y-60980000D03*
%TO.P,R32,2*%
%TO.N,/Y2*%
X119510000Y-62980000D03*
%TD*%
D10*
%TO.P,R40,1*%
%TO.N,/RXB1D*%
X95205175Y-27225002D03*
%TO.P,R40,2*%
%TO.N,/RXB1*%
X93205175Y-27225002D03*
%TD*%
D26*
%TO.P,TP2,1,1_1*%
%TO.N,+5V*%
X60005175Y-91425002D03*
%TD*%
D46*
%TO.P,U5,1,\u002ARTSA_1*%
%TO.N,unconnected-(U5-\u002ARTSA-Pad1)*%
X103752425Y-47750002D03*
%TO.P,U5,2,\u002ACTSA_2*%
%TO.N,unconnected-(U5-\u002ACTSA-Pad2)*%
X103752425Y-48400003D03*
%TO.P,U5,3,TXA_3*%
%TO.N,/TXA5*%
X103752425Y-49050002D03*
%TO.P,U5,4,RXA_4*%
%TO.N,/RXA5*%
X103752425Y-49700003D03*
%TO.P,U5,5,\u002ARESET_5*%
%TO.N,/ESP_USRST*%
X103752425Y-50350001D03*
%TO.P,U5,6,XTAL1_6*%
%TO.N,/XS5*%
X103752425Y-51000003D03*
%TO.P,U5,7,XTAL2_7*%
%TO.N,GND*%
X103752425Y-51650001D03*
%TO.P,U5,8,VDD_8*%
%TO.N,+3V3*%
X103752425Y-52300000D03*
%TO.P,U5,9,I2C/\u002ASPI_9*%
%TO.N,GND*%
X103752425Y-52950001D03*
%TO.P,U5,10,\u002ACS/A0_10*%
%TO.N,/D4*%
X103752425Y-53600000D03*
%TO.P,U5,11,SI/A1_11*%
%TO.N,/SI*%
X103752425Y-54250001D03*
%TO.P,U5,12,SO_12*%
%TO.N,/SO*%
X103752425Y-54900000D03*
%TO.P,U5,13,SCL/SCLK_13*%
%TO.N,/SCLK*%
X103752425Y-55550001D03*
%TO.P,U5,14,SDA_14*%
%TO.N,unconnected-(U5-SDA-Pad14)*%
X103752425Y-56200000D03*
%TO.P,U5,15,\u002AIRQ_15*%
%TO.N,/ESP_IRQ*%
X109657925Y-56200002D03*
%TO.P,U5,16,\u002ACTSB_16*%
%TO.N,unconnected-(U5-\u002ACTSB-Pad16)*%
X109657925Y-55550001D03*
%TO.P,U5,17,\u002ARTSB_17*%
%TO.N,unconnected-(U5-\u002ARTSB-Pad17)*%
X109657925Y-54900002D03*
%TO.P,U5,18,GPIO0/\u002ADSRB_18*%
%TO.N,unconnected-(U5-GPIO0{slash}\u002ADSRB-Pad18)*%
X109657925Y-54250001D03*
%TO.P,U5,19,GPIO1/\u002ADTRB_19*%
%TO.N,unconnected-(U5-GPIO1{slash}\u002ADTRB-Pad19)*%
X109657925Y-53600003D03*
%TO.P,U5,20,GPIO2/\u002ACDB_20*%
%TO.N,unconnected-(U5-GPIO2{slash}\u002ACDB-Pad20)*%
X109657925Y-52950001D03*
%TO.P,U5,21,GPIO3/\u002ARIB_21*%
%TO.N,unconnected-(U5-GPIO3{slash}\u002ARIB-Pad21)*%
X109657925Y-52300003D03*
%TO.P,U5,22,VSS_22*%
%TO.N,GND*%
X109657925Y-51650001D03*
%TO.P,U5,23,TXB_23*%
%TO.N,/TXB5*%
X109657925Y-51000003D03*
%TO.P,U5,24,RXB_24*%
%TO.N,/RXB5*%
X109657925Y-50350001D03*
%TO.P,U5,25,GPIO4/\u002ADSRA_25*%
%TO.N,unconnected-(U5-GPIO4{slash}\u002ADSRA-Pad25)*%
X109657925Y-49700003D03*
%TO.P,U5,26,GPIO5/\u002ADTRA_26*%
%TO.N,unconnected-(U5-GPIO5{slash}\u002ADTRA-Pad26)*%
X109657925Y-49050002D03*
%TO.P,U5,27,GPIO6/\u002ACDA_27*%
%TO.N,unconnected-(U5-GPIO6{slash}\u002ACDA-Pad27)*%
X109657925Y-48400003D03*
%TO.P,U5,28,GPIO7/\u002ARIA_28*%
%TO.N,unconnected-(U5-GPIO7{slash}\u002ARIA-Pad28)*%
X109657925Y-47750002D03*
%TD*%
D14*
%TO.P,C39,1*%
%TO.N,GND*%
X63505175Y-70387502D03*
%TO.P,C39,2*%
%TO.N,+5V*%
X63505175Y-72462502D03*
%TD*%
D64*
%TO.P,IC1,1,CLKIN_1*%
%TO.N,/XTAL*%
X99230000Y-36242000D03*
%TO.P,IC1,2,1G_2*%
%TO.N,GND*%
X98580000Y-36242000D03*
%TO.P,IC1,3,Y0_3*%
%TO.N,/XS2T*%
X97930000Y-36242000D03*
%TO.P,IC1,4,GND_1_4*%
%TO.N,GND*%
X97280000Y-36242000D03*
%TO.P,IC1,5,VDD_1_5*%
%TO.N,+3V3*%
X96630000Y-36242000D03*
%TO.P,IC1,6,Y4_6*%
%TO.N,/XS1T*%
X95980000Y-36242000D03*
%TO.P,IC1,7,GND_2_7*%
%TO.N,GND*%
X95330000Y-36242000D03*
%TO.P,IC1,8,VDD_2_8*%
%TO.N,+3V3*%
X95330000Y-42118000D03*
%TO.P,IC1,9,Y5_9*%
%TO.N,/XS4T*%
X95980000Y-42118000D03*
%TO.P,IC1,10,GND_3_10*%
%TO.N,GND*%
X96630000Y-42118000D03*
%TO.P,IC1,11,Y2_11*%
%TO.N,/XS5T*%
X97280000Y-42118000D03*
%TO.P,IC1,12,VDD_3_12*%
%TO.N,+3V3*%
X97930000Y-42118000D03*
%TO.P,IC1,13,Y3_13*%
%TO.N,/XS6T*%
X98580000Y-42118000D03*
%TO.P,IC1,14,Y1_14*%
%TO.N,/XS3T*%
X99230000Y-42118000D03*
%TD*%
D12*
%TO.P,R69,1*%
%TO.N,/12VIN*%
X44800000Y-73400000D03*
%TO.P,R69,2*%
%TO.N,/1IN-*%
X46800000Y-73400000D03*
%TD*%
D11*
%TO.P,C25,1*%
%TO.N,GND*%
X80917675Y-53125002D03*
%TO.P,C25,2*%
%TO.N,+3V3*%
X82992675Y-53125002D03*
%TD*%
D12*
%TO.P,R66,1*%
%TO.N,/RXA6D*%
X119090000Y-50230000D03*
%TO.P,R66,2*%
%TO.N,/RXA6*%
X121090000Y-50230000D03*
%TD*%
D10*
%TO.P,R42,1*%
%TO.N,/RXB3D*%
X133205175Y-27225002D03*
%TO.P,R42,2*%
%TO.N,/RXB3*%
X131205175Y-27225002D03*
%TD*%
D30*
%TO.P,C3,1*%
%TO.N,/ESP_EN*%
X48142675Y-50125002D03*
%TO.P,C3,2*%
%TO.N,GND*%
X46067675Y-50125002D03*
%TD*%
D22*
%TO.P,J5,1,Pin_1_1*%
%TO.N,GND*%
X115475175Y-81425002D03*
D23*
%TO.P,J5,2,Pin_2_2*%
X125475175Y-81425002D03*
%TD*%
D10*
%TO.P,R36,1*%
%TO.N,/ESP_MISO*%
X143024825Y-39524998D03*
%TO.P,R36,2*%
%TO.N,/OUT_MISO*%
X141024825Y-39524998D03*
%TD*%
D65*
%TO.P,IC16,1,FB_1*%
%TO.N,+5V*%
X61305175Y-74475002D03*
%TO.P,IC16,2,EN_2*%
%TO.N,/12VIN*%
X61305175Y-75425002D03*
%TO.P,IC16,3,VIN_3*%
X61305175Y-76375002D03*
%TO.P,IC16,4,GND_4*%
%TO.N,GND*%
X63503175Y-76375002D03*
%TO.P,IC16,5,SW_5*%
%TO.N,/SW*%
X63503175Y-75425002D03*
%TO.P,IC16,6,BST_6*%
%TO.N,/BST*%
X63503175Y-74475002D03*
%TD*%
D66*
%TO.P,Y3,1,TRI-STATE_(STBY)_1*%
%TO.N,+3V3*%
X154700000Y-63050000D03*
%TO.P,Y3,2,GND/CASE_2*%
%TO.N,GND*%
X156800000Y-63050000D03*
%TO.P,Y3,3,OUTPUT_3*%
%TO.N,/W_XI*%
X156800000Y-61400000D03*
%TO.P,Y3,4,VDD_4*%
%TO.N,+3V3*%
X154700000Y-61400000D03*
%TD*%
D67*
%TO.N,/RXA6D*%
X171170000Y-59360000D03*
%TO.N,GND*%
X166580000Y-74500000D03*
X165710000Y-74500000D03*
X162570000Y-74500000D03*
X163540000Y-74500000D03*
X133940000Y-61070000D03*
X131610000Y-61070000D03*
X131650000Y-57380000D03*
X133970000Y-57410000D03*
X150180000Y-68700000D03*
X149250000Y-66930000D03*
X151110000Y-66940000D03*
%TO.N,/ACTLED*%
X155500000Y-33680000D03*
X155500000Y-36140000D03*
X154540000Y-41360000D03*
%TO.N,/RXB3D*%
X39447088Y-50837088D03*
X39519353Y-43339353D03*
%TO.N,/12VIN*%
X45590000Y-70020000D03*
%TO.N,/RXB1D*%
X40700000Y-38500000D03*
%TO.N,/TXB1D*%
X41600000Y-40400000D03*
%TO.N,+3V3*%
X46700000Y-33640000D03*
%TO.N,GND*%
X143117500Y-46050000D03*
%TO.N,+3V3*%
X74780000Y-64720000D03*
%TO.N,/ESP_IO0*%
X71100000Y-63470000D03*
%TO.N,+3V3*%
X143690000Y-25120000D03*
%TO.N,GND*%
X44770000Y-62440000D03*
X44770000Y-60440000D03*
X44700000Y-58470000D03*
X44620000Y-56400000D03*
X63255175Y-31000000D03*
X136230000Y-41850000D03*
X56955175Y-55725002D03*
X63503175Y-76375002D03*
X58355175Y-55725002D03*
X160000000Y-51850000D03*
X146940000Y-50687500D03*
X148825000Y-50550000D03*
X124625175Y-70075002D03*
X58355175Y-54325002D03*
X163300000Y-58175000D03*
X132800000Y-62100000D03*
X44470000Y-69330000D03*
X96630000Y-41060000D03*
X45955175Y-45937500D03*
X160000000Y-56850000D03*
X146590000Y-54730000D03*
X150155175Y-66925002D03*
X50350175Y-23875002D03*
X56600000Y-75337500D03*
X108790000Y-29160000D03*
X68605175Y-45800000D03*
X136330000Y-46100000D03*
X165437500Y-54150000D03*
X61505175Y-80962502D03*
X154200000Y-53350000D03*
X163300000Y-50075000D03*
X103380000Y-37960000D03*
X63505175Y-80962502D03*
X143012325Y-37224998D03*
X143855175Y-66925002D03*
X156050000Y-48000000D03*
X165300000Y-50075000D03*
X59755175Y-54325002D03*
X156750000Y-86100000D03*
X72800000Y-91500000D03*
X164600000Y-74500000D03*
X86410000Y-29180000D03*
X111892675Y-65925002D03*
X56810000Y-30010000D03*
X159650000Y-48000000D03*
X61505175Y-69005175D03*
X99815000Y-52000000D03*
X54140175Y-64745002D03*
X81167675Y-29725002D03*
X76275000Y-56550000D03*
X101522500Y-42750000D03*
X47440000Y-87910000D03*
X143017500Y-41800000D03*
X57800000Y-35900000D03*
X155800000Y-51650000D03*
X124390000Y-29150000D03*
X120815175Y-70075002D03*
X46720000Y-32027500D03*
X56955175Y-52925002D03*
X119167675Y-30225002D03*
X86150000Y-51690000D03*
X55900000Y-84650000D03*
X59755175Y-52925002D03*
X80917675Y-53125002D03*
X165300000Y-58175000D03*
X90060000Y-29180000D03*
X124030000Y-58652500D03*
X63500000Y-69000000D03*
X89800000Y-51690000D03*
X153950000Y-54850000D03*
X105140000Y-29160000D03*
X117007178Y-51600000D03*
X164150000Y-86100000D03*
X128040000Y-29150000D03*
X51100000Y-45900000D03*
X48978000Y-77105000D03*
X70600000Y-78800000D03*
X119545175Y-70075002D03*
X156250000Y-57600000D03*
X99917675Y-29725002D03*
X134800000Y-38200000D03*
X148950000Y-46602500D03*
X93440000Y-38142500D03*
X46067675Y-50125002D03*
X97300000Y-37360000D03*
X56955175Y-54325002D03*
X104900000Y-51670000D03*
X141505175Y-66700002D03*
X106537500Y-70350000D03*
X136330000Y-48000000D03*
X68600000Y-36700000D03*
X45200175Y-23875002D03*
X48205175Y-45937502D03*
X59755175Y-55725002D03*
X160000000Y-55850000D03*
X58355175Y-52925002D03*
X108550000Y-51670000D03*
X151404732Y-51899236D03*
X156800000Y-63050000D03*
X124150000Y-51680000D03*
X136230000Y-43750000D03*
%TO.N,+3V3*%
X150935000Y-50585000D03*
X93200000Y-56300000D03*
X151300000Y-43000000D03*
X91500000Y-45000000D03*
X156050000Y-45500000D03*
X154700000Y-61400000D03*
X113967675Y-65925002D03*
X126300000Y-61700000D03*
X140942500Y-41800000D03*
X165300000Y-56100000D03*
X155690000Y-75300000D03*
X83400000Y-45000000D03*
X140937325Y-37224998D03*
X165900000Y-70100000D03*
X54000000Y-86375002D03*
X159650000Y-45500000D03*
X154700000Y-82350000D03*
X148000000Y-49350000D03*
X141637500Y-68700000D03*
X101992675Y-29725002D03*
X100500000Y-56300000D03*
X154700000Y-63050000D03*
X45955175Y-48012500D03*
X48205175Y-48012502D03*
X165900000Y-64700000D03*
X121242675Y-30225002D03*
X146000000Y-49350000D03*
X79000000Y-41600000D03*
X46530000Y-54310000D03*
X87100000Y-41600000D03*
X82992675Y-53125002D03*
X144250000Y-70700000D03*
X93440000Y-40228000D03*
X163300000Y-51400000D03*
X103597500Y-42750000D03*
X141042500Y-46050000D03*
X101890000Y-52000000D03*
X117700000Y-52000000D03*
X163300000Y-56100000D03*
X83242675Y-29725002D03*
X165300000Y-51400000D03*
X162000000Y-82350000D03*
%TO.N,/SO*%
X125300000Y-54775000D03*
X87100000Y-54775000D03*
X136224825Y-38224998D03*
X164330000Y-38160000D03*
X136200000Y-32400000D03*
X105700000Y-54775000D03*
X124500000Y-32400000D03*
X135600000Y-54900000D03*
X105300000Y-32400000D03*
X87100000Y-32400000D03*
X164330000Y-61540000D03*
%TO.N,/XS3T*%
X100700000Y-41000000D03*
X100700000Y-34300000D03*
%TO.N,/XS3*%
X100960000Y-24190000D03*
X100960000Y-30800000D03*
%TO.N,/12VIN*%
X63505175Y-78887502D03*
X56600000Y-73262500D03*
X66060000Y-86375002D03*
X145770000Y-75840000D03*
X61505175Y-78887502D03*
X61305175Y-76375002D03*
X65600000Y-70900000D03*
X61305175Y-75425002D03*
X73800000Y-84900000D03*
X72900000Y-87800000D03*
%TO.N,+5V*%
X69800000Y-71150000D03*
X75505175Y-37725002D03*
X143855175Y-64625002D03*
X141505175Y-64625002D03*
X61505175Y-72462502D03*
X63505175Y-72462502D03*
X60005175Y-86375002D03*
%TO.N,/USB_DP*%
X71755000Y-28172590D03*
X66500000Y-28100000D03*
%TO.N,/USB_DN*%
X72255000Y-30387410D03*
X67512590Y-30387410D03*
X67505175Y-37625002D03*
%TO.N,Net-(J4-Pin_1)*%
X77125000Y-79700000D03*
%TO.N,/FAN_VOUT*%
X104662500Y-71300000D03*
%TO.N,/RXA3D*%
X116900000Y-47400000D03*
X117100000Y-28400000D03*
%TO.N,/D4*%
X121200000Y-56300000D03*
X102200000Y-56300000D03*
X121200000Y-59300000D03*
%TO.N,Net-(Q2-G)*%
X55500000Y-69900000D03*
X102100000Y-69900000D03*
%TO.N,/TXB6D*%
X134560000Y-74700000D03*
X134600000Y-51900000D03*
%TO.N,/1OUT*%
X45411000Y-71650000D03*
%TO.N,/ESP_IO0*%
X71115470Y-26684530D03*
X50362588Y-27262588D03*
%TO.N,/RXA4D*%
X79200000Y-51600000D03*
X78900000Y-73900000D03*
%TO.N,/TXA4D*%
X78100000Y-72800000D03*
X78100000Y-49000000D03*
%TO.N,/RXB6D*%
X136600000Y-68300000D03*
X136600000Y-51200000D03*
%TO.N,/RXA5D*%
X97900000Y-51600000D03*
X98000000Y-71900000D03*
%TO.N,/TXB1D*%
X41500000Y-23310000D03*
X97400000Y-23700000D03*
%TO.N,/ESP_SCLKT*%
X67000000Y-56500000D03*
X53700000Y-44500000D03*
X53600000Y-56500000D03*
%TO.N,/RTS*%
X52660000Y-27590000D03*
X64455175Y-27600000D03*
%TO.N,/ESP_MOSI*%
X134800000Y-42800000D03*
X75600000Y-51000000D03*
X134800000Y-51000000D03*
%TO.N,/ESP_A0*%
X117400000Y-59100000D03*
X117400000Y-67600000D03*
X49200088Y-59480088D03*
%TO.N,/SCLK*%
X142400000Y-55690000D03*
X142400000Y-48000000D03*
X142400000Y-33200000D03*
X104910000Y-55375000D03*
X86330000Y-55440000D03*
X105300000Y-33200000D03*
X157530000Y-55690000D03*
X124700000Y-33200000D03*
X86600000Y-33200000D03*
X124340000Y-55375000D03*
%TO.N,/D1*%
X111300000Y-61400000D03*
X111300000Y-36500000D03*
%TO.N,/ESP_SCLK*%
X168440000Y-53550000D03*
X168420000Y-78170000D03*
X137700000Y-46600000D03*
X77400000Y-54000000D03*
X137700000Y-54000000D03*
%TO.N,/ESP_USRST*%
X67600000Y-66200000D03*
X105300000Y-27800000D03*
X124500000Y-49950000D03*
X161200000Y-50000000D03*
X124600000Y-27800000D03*
X161200000Y-57900000D03*
X67350000Y-50195002D03*
X139500000Y-49950000D03*
X86500000Y-49950000D03*
X86400000Y-27800000D03*
X105200000Y-49950000D03*
X139400000Y-27800000D03*
%TO.N,/1IN+*%
X50100000Y-75800000D03*
X65650000Y-72525000D03*
X50100000Y-72100000D03*
%TO.N,/TXA5D*%
X97100000Y-47800000D03*
X97000000Y-69300000D03*
%TO.N,/RXA6D*%
X117500000Y-49300000D03*
X126600000Y-49300000D03*
X126600000Y-59300000D03*
%TO.N,/TXA6D*%
X164100000Y-65325002D03*
X166000000Y-61320002D03*
X113000000Y-47900000D03*
X113000000Y-64880000D03*
%TO.N,/RXA1D*%
X177500000Y-28200000D03*
X166000000Y-28200000D03*
X79700000Y-26300000D03*
X177500000Y-58562002D03*
X164100000Y-26300000D03*
%TO.N,/TXA1D*%
X82800000Y-23100000D03*
X169100000Y-55700000D03*
X169100000Y-23200000D03*
%TO.N,/RXA2D*%
X98700000Y-26900000D03*
X98700000Y-52555000D03*
%TO.N,/TXA2D*%
X98300000Y-25700000D03*
X97900000Y-48700000D03*
%TO.N,/TXA3D*%
X118025002Y-27200000D03*
X118000000Y-44800000D03*
%TO.N,/ESP_A2*%
X118300000Y-57200000D03*
X118275175Y-70075002D03*
X48255175Y-56425002D03*
%TO.N,/USB_VBUS*%
X75505175Y-33425002D03*
X65005175Y-36675002D03*
X62005175Y-33875002D03*
%TO.N,/ESP_IRQ*%
X92100000Y-34934998D03*
X130900000Y-58200000D03*
X160900000Y-81100000D03*
X70000000Y-60600000D03*
X130965002Y-34934998D03*
X160780000Y-58720000D03*
X111000000Y-34934998D03*
X70000000Y-34925002D03*
%TO.N,/2IN+*%
X154200000Y-66000000D03*
X54400000Y-77105000D03*
X154100000Y-76000000D03*
%TO.N,/TXB5D*%
X116000000Y-67200000D03*
X115900000Y-51700000D03*
%TO.N,/ESP_E3*%
X122085175Y-70075002D03*
X49275988Y-58384936D03*
X122085175Y-58385175D03*
%TO.N,/ESP_A1*%
X109795782Y-62431568D03*
X49440000Y-62425002D03*
%TO.N,/D5*%
X127700000Y-62900000D03*
X127700000Y-56100000D03*
%TO.N,/SI*%
X86800000Y-31500000D03*
X105900000Y-31500000D03*
X145400000Y-53200000D03*
X106700000Y-53200000D03*
X55130000Y-31850000D03*
X158560000Y-56680000D03*
X145400000Y-31600000D03*
X145400000Y-44000000D03*
X158560000Y-43950000D03*
X125000000Y-31500000D03*
X126000000Y-53200000D03*
X87900000Y-53200000D03*
%TO.N,/CD_DP*%
X65600000Y-29900000D03*
X65005175Y-35725002D03*
X60200000Y-30400000D03*
%TO.N,/CD_DN*%
X59500000Y-38400000D03*
X59490000Y-30790000D03*
%TO.N,/ESP_EN*%
X47605175Y-49405175D03*
X47700000Y-28200000D03*
%TO.N,/LINKLED*%
X152100000Y-58800000D03*
X152100000Y-36600000D03*
%TO.N,/ACTLED*%
X155300000Y-57400000D03*
%TO.N,/ESP_SCSN*%
X74550000Y-60250000D03*
X157750000Y-60250000D03*
%TO.N,/ESP_RX0*%
X64410000Y-28600002D03*
X64400000Y-52100000D03*
%TO.N,/ESP_TX0*%
X62700000Y-50700000D03*
X62660000Y-28600002D03*
%TO.N,/TXB4D*%
X96200000Y-61200000D03*
X96200000Y-51800000D03*
%TO.N,/TXB3D*%
X42500000Y-39175000D03*
X133900000Y-38700000D03*
X134600000Y-29200000D03*
%TO.N,/D0*%
X81660000Y-63420000D03*
X112000000Y-63400000D03*
X81750000Y-31110000D03*
%TO.N,/RXB1D*%
X96600000Y-25700000D03*
X40700000Y-25700000D03*
%TO.N,/RXB2D*%
X114200000Y-25400000D03*
X114200000Y-47200000D03*
%TO.N,/TXB2D*%
X41000000Y-46537502D03*
X115200000Y-46500000D03*
X115300000Y-29200000D03*
%TO.N,/RXB3D*%
X133200000Y-25500000D03*
X133100000Y-43350000D03*
%TO.N,/RXB4D*%
X94400000Y-65500000D03*
X94400000Y-47973002D03*
X36445000Y-65355000D03*
%TO.N,/RXB5D*%
X115100000Y-67700000D03*
X115200000Y-49300000D03*
X38680000Y-67700000D03*
%TO.N,/D3*%
X80500000Y-54900000D03*
X113720000Y-64280000D03*
X80500000Y-64300000D03*
%TO.N,/D2*%
X119510000Y-59310000D03*
X119700000Y-33900000D03*
%TO.N,/ESP_MISO*%
X65800000Y-55600000D03*
X65800000Y-39500000D03*
X144700000Y-39500000D03*
%TO.N,/1OUT*%
X49005000Y-71895000D03*
%TD*%
%TO.N,Net-(Q2-G)*%
D68*
X103800000Y-72250000D02*
X106537500Y-72250000D01*
X102110000Y-70560000D02*
X103800000Y-72250000D01*
X102110000Y-69910000D02*
X102110000Y-70560000D01*
X102100000Y-69900000D02*
X102110000Y-69910000D01*
%TO.N,/RXB5D*%
X115200000Y-49400000D02*
X115200000Y-49300000D01*
X114874998Y-49725002D02*
X115200000Y-49400000D01*
X113705175Y-49725002D02*
X114874998Y-49725002D01*
%TO.N,/RXB1D*%
X40700000Y-38552177D02*
X37395175Y-41857002D01*
X40700000Y-38500000D02*
X40700000Y-38552177D01*
%TO.N,/ESP_SCSN*%
X157762000Y-60238000D02*
X157750000Y-60250000D01*
X157762000Y-58838000D02*
X157762000Y-60238000D01*
%TO.N,+5V*%
D69*
X61305175Y-72662502D02*
X61505175Y-72462502D01*
X61305175Y-74475002D02*
X61305175Y-72662502D01*
%TO.N,+3V3*%
D68*
X140887325Y-37274998D02*
X140937325Y-37224998D01*
X138724825Y-37274998D02*
X140887325Y-37274998D01*
X140992500Y-46100000D02*
X141042500Y-46050000D01*
X138830000Y-46100000D02*
X140992500Y-46100000D01*
X83342672Y-29824999D02*
X83242675Y-29725002D01*
X85299675Y-29824999D02*
X83342672Y-29824999D01*
X148950000Y-48677500D02*
X150857500Y-50585000D01*
X150857500Y-50585000D02*
X150935000Y-50585000D01*
X140892500Y-41850000D02*
X140942500Y-41800000D01*
X138730000Y-41850000D02*
X140892500Y-41850000D01*
X163300000Y-55962500D02*
X163300000Y-56100000D01*
X162187500Y-54850000D02*
X163300000Y-55962500D01*
X161250000Y-54850000D02*
X162187500Y-54850000D01*
X102067673Y-29800000D02*
X101992675Y-29725002D01*
X104002425Y-29800000D02*
X102067673Y-29800000D01*
%TO.N,+5V*%
D69*
X63505175Y-72462502D02*
X63492673Y-72450000D01*
X63492673Y-72450000D02*
X61623750Y-72450000D01*
%TO.N,/TXB1D*%
D68*
X40970000Y-40400000D02*
X37395175Y-43974825D01*
X41600000Y-40400000D02*
X40970000Y-40400000D01*
%TO.N,/ESP_SCLK*%
X168420000Y-79880000D02*
X168420000Y-78170000D01*
X166000000Y-82300000D02*
X168420000Y-79880000D01*
%TO.N,/RXA6D*%
X171170000Y-59360000D02*
X171170000Y-62570000D01*
X171170000Y-62570000D02*
X172635175Y-64035175D01*
%TO.N,GND*%
D70*
X166580000Y-74500000D02*
X166580000Y-73410000D01*
X162570000Y-74500000D02*
X162570000Y-73200000D01*
X163540000Y-74500000D02*
X163540000Y-73200000D01*
X164600000Y-74500000D02*
X164600000Y-73310000D01*
X165710000Y-74500000D02*
X165710000Y-73200000D01*
%TO.N,/2IN+*%
D68*
X56390000Y-77090000D02*
X54605000Y-77090000D01*
%TO.N,/12VIN*%
D71*
X152610000Y-70890000D02*
X152610000Y-67790000D01*
X147660000Y-75840000D02*
X152610000Y-70890000D01*
X145770000Y-75840000D02*
X147660000Y-75840000D01*
%TO.N,/RXB4D*%
D68*
X36000000Y-59800177D02*
X37395175Y-58405002D01*
X36445000Y-65355000D02*
X36000000Y-64910000D01*
X36000000Y-64910000D02*
X36000000Y-59800177D01*
%TO.N,/ACTLED*%
X155670000Y-36310000D02*
X155500000Y-36140000D01*
X154540000Y-41360000D02*
X155670000Y-40230000D01*
X155670000Y-40230000D02*
X155670000Y-36310000D01*
%TO.N,/SI*%
X158560000Y-56680000D02*
X159262000Y-57382000D01*
X159262000Y-57382000D02*
X159262000Y-58838000D01*
%TO.N,/RXB6D*%
X136115002Y-49475002D02*
X132955175Y-49475002D01*
X136600000Y-49960000D02*
X136115002Y-49475002D01*
X136600000Y-51200000D02*
X136600000Y-49960000D01*
%TO.N,/Y1*%
X116800000Y-61280000D02*
X117050000Y-61530000D01*
X117950000Y-61830350D02*
X117950000Y-65025427D01*
X116700000Y-59000000D02*
X116800000Y-59100000D01*
X116800000Y-59100000D02*
X116800000Y-61280000D01*
X117649650Y-61530000D02*
X117950000Y-61830350D01*
X117950000Y-65025427D02*
X118275175Y-65350602D01*
X115710000Y-59000000D02*
X116700000Y-59000000D01*
X117050000Y-61530000D02*
X117649650Y-61530000D01*
%TO.N,/D5*%
X127240000Y-52600000D02*
X127700000Y-53060000D01*
X127700000Y-53060000D02*
X127700000Y-56100000D01*
X125751471Y-52600000D02*
X127240000Y-52600000D01*
X124751471Y-53600000D02*
X125751471Y-52600000D01*
X123002425Y-53600000D02*
X124751471Y-53600000D01*
%TO.N,/XS5*%
X105900000Y-50500000D02*
X105399997Y-51000003D01*
X105900000Y-48414927D02*
X105900000Y-50500000D01*
X97540000Y-47220000D02*
X104705073Y-47220000D01*
X104705073Y-47220000D02*
X105900000Y-48414927D01*
X105399997Y-51000003D02*
X103752425Y-51000003D01*
X97320000Y-46020000D02*
X97320000Y-47000000D01*
X97320000Y-47000000D02*
X97540000Y-47220000D01*
%TO.N,/XS2*%
X103852428Y-28650000D02*
X104002425Y-28500003D01*
X97600000Y-28650000D02*
X103852428Y-28650000D01*
X97254825Y-28995175D02*
X97600000Y-28650000D01*
X97254825Y-32334998D02*
X97254825Y-28995175D01*
%TO.N,/ESP_SCLKT*%
X72560000Y-55690000D02*
X74250000Y-54000000D01*
X70700000Y-55690000D02*
X72560000Y-55690000D01*
X70444998Y-57145002D02*
X70700000Y-56890000D01*
X68605175Y-57145002D02*
X70444998Y-57145002D01*
X70700000Y-56890000D02*
X70700000Y-55690000D01*
X67135002Y-57145002D02*
X68605175Y-57145002D01*
X67000000Y-57010000D02*
X67135002Y-57145002D01*
X67000000Y-56500000D02*
X67000000Y-57010000D01*
%TO.N,/CD_DN*%
X65005175Y-38294825D02*
X65005175Y-37625002D01*
X64800000Y-38500000D02*
X65005175Y-38294825D01*
X59600000Y-38500000D02*
X64800000Y-38500000D01*
X59500000Y-38400000D02*
X59600000Y-38500000D01*
%TO.N,/DTR*%
X62505175Y-29385175D02*
X60580175Y-27460175D01*
X62505175Y-29975002D02*
X62505175Y-29385175D01*
%TO.N,+3V3*%
X48060000Y-33640000D02*
X46700000Y-33640000D01*
X49320000Y-32380000D02*
X48060000Y-33640000D01*
%TO.N,/TXB2D*%
X38700000Y-48826177D02*
X37395175Y-50131002D01*
X38700000Y-46850000D02*
X38700000Y-48826177D01*
X39012498Y-46537502D02*
X41000000Y-46537502D01*
X38700000Y-46850000D02*
X39012498Y-46537502D01*
%TO.N,/RXB3D*%
X39447088Y-50837088D02*
X37395175Y-52889002D01*
%TO.N,GND*%
X45222547Y-69100000D02*
X47800000Y-69100000D01*
X44470000Y-69330000D02*
X44992547Y-69330000D01*
X44992547Y-69330000D02*
X45222547Y-69100000D01*
%TO.N,/1OUT*%
X50000000Y-70900000D02*
X49005000Y-71895000D01*
%TO.N,GND*%
X48900000Y-68000000D02*
X48000000Y-68900000D01*
X51100000Y-68000000D02*
X48900000Y-68000000D01*
X52000000Y-68900000D02*
X51100000Y-68000000D01*
%TO.N,Net-(D3-K)*%
X54000000Y-67300000D02*
X54700000Y-68000000D01*
X46461000Y-67300000D02*
X54000000Y-67300000D01*
X45761000Y-68000000D02*
X46461000Y-67300000D01*
%TO.N,/12VIN*%
X48900000Y-70000000D02*
X45610000Y-70000000D01*
X45610000Y-70000000D02*
X45590000Y-70020000D01*
X50000000Y-68900000D02*
X48900000Y-70000000D01*
X44511000Y-71099000D02*
X44511000Y-73111000D01*
X45590000Y-70020000D02*
X44511000Y-71099000D01*
%TO.N,/1OUT*%
X48978000Y-71922000D02*
X48978000Y-73295000D01*
X49005000Y-71895000D02*
X48978000Y-71922000D01*
%TO.N,/TXA1D*%
X82800000Y-23100000D02*
X81205175Y-24694825D01*
X81205175Y-24694825D02*
X81205175Y-25725002D01*
%TO.N,+3V3*%
X45770000Y-33640000D02*
X46700000Y-33640000D01*
X44120000Y-31990000D02*
X45770000Y-33640000D01*
%TO.N,/RTS*%
X52824998Y-27425002D02*
X52660000Y-27590000D01*
X54255175Y-27425002D02*
X52824998Y-27425002D01*
%TO.N,+3V3*%
X143690000Y-25120000D02*
X145400000Y-25120000D01*
X143690000Y-25120000D02*
X141960000Y-25120000D01*
%TO.N,GND*%
X151200000Y-46000000D02*
X149552500Y-46000000D01*
X149552500Y-46000000D02*
X148950000Y-46602500D01*
X146590000Y-55570000D02*
X146590000Y-54730000D01*
X147570000Y-56550000D02*
X146590000Y-55570000D01*
X148275000Y-56550000D02*
X147570000Y-56550000D01*
X146770000Y-54550000D02*
X146590000Y-54730000D01*
X148262500Y-54550000D02*
X146770000Y-54550000D01*
X47260000Y-87900000D02*
X45400000Y-87900000D01*
X47270000Y-87910000D02*
X47260000Y-87900000D01*
X47440000Y-87910000D02*
X47270000Y-87910000D01*
X47440000Y-87910000D02*
X49390000Y-87910000D01*
X63600000Y-84600000D02*
X63600000Y-81057327D01*
X66062502Y-80962502D02*
X63505175Y-80962502D01*
X69700000Y-84600000D02*
X66062502Y-80962502D01*
X55950000Y-84600000D02*
X55900000Y-84650000D01*
X57600000Y-84600000D02*
X55950000Y-84600000D01*
%TO.N,/ESP_IO0*%
X72140000Y-63430000D02*
X71140000Y-63430000D01*
X71140000Y-63430000D02*
X71100000Y-63470000D01*
%TO.N,+3V3*%
X73405175Y-62695175D02*
X74140000Y-63430000D01*
X73405175Y-61425002D02*
X73405175Y-62695175D01*
X74780000Y-64070000D02*
X74185002Y-63475002D01*
X74780000Y-64720000D02*
X74780000Y-64070000D01*
%TO.N,/ESP_IO0*%
X69980000Y-63475002D02*
X68625175Y-63475002D01*
X69985002Y-63470000D02*
X69980000Y-63475002D01*
X71100000Y-63470000D02*
X69985002Y-63470000D01*
%TO.N,+3V3*%
X46564998Y-54275002D02*
X46530000Y-54310000D01*
X48005175Y-54275002D02*
X46564998Y-54275002D01*
%TO.N,/ESP_A0*%
X50265174Y-58415002D02*
X51105175Y-58415002D01*
X49200088Y-59480088D02*
X50265174Y-58415002D01*
X48255175Y-60425002D02*
X49200088Y-59480088D01*
%TO.N,GND*%
X44770000Y-64440000D02*
X44770000Y-62440000D01*
X46655002Y-66325002D02*
X44770000Y-64440000D01*
X48205175Y-66325002D02*
X46655002Y-66325002D01*
%TO.N,/ESP_A1*%
X49440000Y-62425002D02*
X48255175Y-62425002D01*
X49155175Y-61105002D02*
X50575175Y-59685002D01*
X49155175Y-61109746D02*
X49155175Y-61105002D01*
X48255175Y-62009746D02*
X49155175Y-61109746D01*
%TO.N,/ESP_E3*%
X51105175Y-57145002D02*
X49535175Y-57145002D01*
X49535175Y-57145002D02*
X48255175Y-58425002D01*
X49275988Y-58384936D02*
X48295241Y-58384936D01*
%TO.N,GND*%
X124390000Y-30217276D02*
X124390000Y-29150000D01*
X124157275Y-30450001D02*
X124390000Y-30217276D01*
X123252425Y-30450001D02*
X124157275Y-30450001D01*
X105140000Y-30217276D02*
X105140000Y-29160000D01*
X104907275Y-30450001D02*
X105140000Y-30217276D01*
X104002425Y-30450001D02*
X104907275Y-30450001D01*
X86410000Y-30269525D02*
X86410000Y-29180000D01*
X86204525Y-30475000D02*
X86410000Y-30269525D01*
X85299675Y-30475000D02*
X86204525Y-30475000D01*
%TO.N,+3V3*%
X83817677Y-52300000D02*
X82992675Y-53125002D01*
X85002425Y-52300000D02*
X83817677Y-52300000D01*
%TO.N,GND*%
X86150000Y-52707276D02*
X86150000Y-51690000D01*
X85907275Y-52950001D02*
X86150000Y-52707276D01*
X85002425Y-52950001D02*
X85907275Y-52950001D01*
X124150000Y-52707276D02*
X124150000Y-51680000D01*
X123002425Y-52950001D02*
X123907275Y-52950001D01*
X123907275Y-52950001D02*
X124150000Y-52707276D01*
X104900000Y-52707276D02*
X104900000Y-51670000D01*
X104657275Y-52950001D02*
X104900000Y-52707276D01*
X103752425Y-52950001D02*
X104657275Y-52950001D01*
%TO.N,Net-(J2-Pad9)*%
X163080173Y-27190000D02*
X145470000Y-27190000D01*
X164415175Y-28525002D02*
X163080173Y-27190000D01*
%TO.N,Net-(J2-Pad12)*%
X141860000Y-27220000D02*
X143150000Y-28510000D01*
X143150000Y-28510000D02*
X151150173Y-28510000D01*
%TO.N,/D0*%
X81764999Y-31124999D02*
X85299675Y-31124999D01*
X81750000Y-31110000D02*
X81764999Y-31124999D01*
%TO.N,GND*%
X44784998Y-62425002D02*
X44770000Y-62440000D01*
X46255175Y-62425002D02*
X44784998Y-62425002D01*
X44784998Y-60425002D02*
X44770000Y-60440000D01*
X46255175Y-60425002D02*
X44784998Y-60425002D01*
X44744998Y-58425002D02*
X44700000Y-58470000D01*
X46255175Y-58425002D02*
X44744998Y-58425002D01*
X44645002Y-56425002D02*
X44620000Y-56400000D01*
X46255175Y-56425002D02*
X44645002Y-56425002D01*
%TO.N,/ESP_A2*%
X48805175Y-55875002D02*
X51105175Y-55875002D01*
X48255175Y-56425002D02*
X48805175Y-55875002D01*
%TO.N,/SI*%
X55150000Y-31870000D02*
X55150000Y-37775000D01*
X55130000Y-31850000D02*
X55150000Y-31870000D01*
%TO.N,GND*%
X56810000Y-30010000D02*
X56800000Y-30020000D01*
X56800000Y-30020000D02*
X56800000Y-32592677D01*
%TO.N,/CD_DN*%
X60275002Y-32175002D02*
X61305175Y-32175002D01*
X59490000Y-31390000D02*
X60275002Y-32175002D01*
X59490000Y-30790000D02*
X59490000Y-31390000D01*
%TO.N,/ESP_RX0*%
X64410000Y-28790000D02*
X64005175Y-29194825D01*
X64410000Y-28600002D02*
X64410000Y-28790000D01*
X64005175Y-29194825D02*
X64005175Y-29975002D01*
%TO.N,/ESP_TX0*%
X63505175Y-29305175D02*
X63505175Y-29975002D01*
X62800002Y-28600002D02*
X63505175Y-29305175D01*
X62660000Y-28600002D02*
X62800002Y-28600002D01*
%TO.N,/1V20*%
X147840000Y-59060000D02*
X140465000Y-59060000D01*
X150350000Y-56550000D02*
X147840000Y-59060000D01*
%TO.N,/ESP_A1*%
X114097202Y-71467202D02*
X116425775Y-71467202D01*
X110400000Y-67770000D02*
X114097202Y-71467202D01*
X110400000Y-63035786D02*
X110400000Y-67770000D01*
X116425775Y-71467202D02*
X117005175Y-70887802D01*
X109795782Y-62431568D02*
X110400000Y-63035786D01*
%TO.N,+3V3*%
X154661500Y-51450000D02*
X154100000Y-51450000D01*
X154762000Y-51349500D02*
X154661500Y-51450000D01*
X154762000Y-50362000D02*
X154762000Y-51349500D01*
X153860000Y-51690000D02*
X153981250Y-51568750D01*
X153860000Y-52591471D02*
X153860000Y-51690000D01*
X152774000Y-52850000D02*
X153601471Y-52850000D01*
X153601471Y-52850000D02*
X153860000Y-52591471D01*
X153951471Y-53950000D02*
X154448529Y-53950000D01*
X154448529Y-53950000D02*
X154784265Y-53614265D01*
X153851471Y-53850000D02*
X153951471Y-53950000D01*
X152774000Y-53850000D02*
X153851471Y-53850000D01*
X156520000Y-51917500D02*
X156050000Y-52387500D01*
X156520000Y-51440000D02*
X156520000Y-51917500D01*
X156262000Y-51182000D02*
X156520000Y-51440000D01*
X156262000Y-50362000D02*
X156262000Y-51182000D01*
X154800000Y-55170000D02*
X154800000Y-52387500D01*
X154120000Y-55850000D02*
X154800000Y-55170000D01*
X152774000Y-55850000D02*
X154120000Y-55850000D01*
%TO.N,/ESP_IRQ*%
X70000000Y-60600000D02*
X70700000Y-60600000D01*
X70700000Y-60600000D02*
X71380173Y-61280173D01*
%TO.N,GND*%
X104880001Y-51650001D02*
X104900000Y-51670000D01*
X98580000Y-37179500D02*
X98399500Y-37360000D01*
X51105175Y-45905175D02*
X51100000Y-45900000D01*
X67685000Y-28705000D02*
X68230000Y-28705000D01*
X109657925Y-51650001D02*
X108569999Y-51650001D01*
X155800000Y-51650000D02*
X155800000Y-50400000D01*
X158812000Y-51399500D02*
X158812000Y-50662000D01*
X61305175Y-31175002D02*
X62505175Y-31175002D01*
X108569999Y-51650001D02*
X108550000Y-51670000D01*
X124150000Y-51680000D02*
X123032424Y-51680000D01*
X154200000Y-53350000D02*
X152774000Y-53350000D01*
X152774000Y-54850000D02*
X153950000Y-54850000D01*
X63505175Y-70387502D02*
X63505175Y-69005175D01*
X63505175Y-69005175D02*
X63500000Y-69000000D01*
X160000000Y-55850000D02*
X161250000Y-55850000D01*
X105130001Y-29150001D02*
X105140000Y-29160000D01*
X68230000Y-28705000D02*
X68805000Y-29280000D01*
X132780000Y-62080000D02*
X132800000Y-62100000D01*
X148262500Y-52010000D02*
X146940000Y-50687500D01*
X97280000Y-37340000D02*
X97300000Y-37360000D01*
X104002425Y-29150001D02*
X105130001Y-29150001D01*
X156262000Y-58838000D02*
X156262000Y-57612000D01*
X58650002Y-36750002D02*
X59505175Y-36750002D01*
X108790000Y-29160000D02*
X109897926Y-29160000D01*
X86405000Y-29175000D02*
X86410000Y-29180000D01*
X61505175Y-70387502D02*
X61505175Y-69005175D01*
X128040000Y-29150000D02*
X129157925Y-29150001D01*
X123252425Y-29150001D02*
X124390000Y-29150000D01*
X57800000Y-35900000D02*
X58650002Y-36750002D01*
X161250000Y-56850000D02*
X161250000Y-56350000D01*
X117007178Y-51600000D02*
X117207178Y-51400000D01*
X118222500Y-51400000D02*
X119052500Y-52230000D01*
X124179999Y-51650001D02*
X128907925Y-51650001D01*
X68600000Y-36700000D02*
X67530173Y-36700000D01*
X91205175Y-29175000D02*
X90065000Y-29175000D01*
X98580000Y-36242000D02*
X98580000Y-37179500D01*
X156262000Y-57612000D02*
X156250000Y-57600000D01*
X135725002Y-37274998D02*
X134800000Y-38200000D01*
X160000000Y-51850000D02*
X161250000Y-51850000D01*
X68930173Y-36700000D02*
X70255175Y-38025002D01*
X90065000Y-29175000D02*
X90060000Y-29180000D01*
X89839999Y-51650001D02*
X89800000Y-51690000D01*
X161250000Y-55350000D02*
X161250000Y-55850000D01*
X160000000Y-51850000D02*
X159549500Y-51399500D01*
X85002425Y-51650001D02*
X86110001Y-51650001D01*
X117207178Y-51400000D02*
X118222500Y-51400000D01*
X86110001Y-51650001D02*
X86150000Y-51690000D01*
X70255175Y-38025002D02*
X72505175Y-38025002D01*
X90907925Y-51650001D02*
X89839999Y-51650001D01*
X132780000Y-59100000D02*
X132780000Y-62080000D01*
X160000000Y-56850000D02*
X161250000Y-56850000D01*
X159549500Y-51399500D02*
X158812000Y-51399500D01*
X150862500Y-48350000D02*
X150862500Y-46337500D01*
X135774998Y-39174998D02*
X134800000Y-38200000D01*
X68605175Y-46985002D02*
X68605175Y-45800000D01*
X161250000Y-55850000D02*
X161250000Y-56350000D01*
X75750000Y-29280000D02*
X76325000Y-28705000D01*
X98399500Y-37360000D02*
X97300000Y-37360000D01*
X103752425Y-51650001D02*
X104880001Y-51650001D01*
X85299675Y-29175000D02*
X86405000Y-29175000D01*
X151855496Y-52350000D02*
X151404732Y-51899236D01*
X139562500Y-68642677D02*
X141505175Y-66700002D01*
X97280000Y-36242000D02*
X97280000Y-37340000D01*
X68600000Y-36700000D02*
X68930173Y-36700000D01*
X96630000Y-42118000D02*
X96630000Y-41060000D01*
X75205000Y-29280000D02*
X75750000Y-29280000D01*
X124150000Y-51680000D02*
X124179999Y-51650001D01*
X95330000Y-36252500D02*
X93440000Y-38142500D01*
X152774000Y-52350000D02*
X151855496Y-52350000D01*
X51105175Y-46985002D02*
X51105175Y-45905175D01*
%TO.N,+3V3*%
X163550000Y-54350000D02*
X165300000Y-56100000D01*
D71*
X144250000Y-69619827D02*
X143330173Y-68700000D01*
X87100000Y-41600000D02*
X79000000Y-41600000D01*
D68*
X147005000Y-48677500D02*
X146332500Y-49350000D01*
X152937500Y-50525000D02*
X153276250Y-50863750D01*
X153270000Y-50870000D02*
X151220000Y-50870000D01*
X121127500Y-52230000D02*
X120102500Y-53255000D01*
X146332500Y-49350000D02*
X146000000Y-49350000D01*
X115735175Y-65350602D02*
X114542075Y-65350602D01*
D72*
X165900000Y-70100000D02*
X165900000Y-64700000D01*
D68*
X163600000Y-53850000D02*
X161250000Y-53850000D01*
X156050000Y-52387500D02*
X154800000Y-52387500D01*
X152100000Y-47512500D02*
X152100000Y-43800000D01*
X158262000Y-51239471D02*
X157113971Y-52387500D01*
X101730000Y-40060000D02*
X103597500Y-41927500D01*
X123002425Y-52300000D02*
X121197500Y-52300000D01*
X117700000Y-52474744D02*
X117700000Y-52000000D01*
X125327500Y-60727500D02*
X126300000Y-61700000D01*
X51105175Y-48255002D02*
X48447675Y-48255002D01*
X153981250Y-51568750D02*
X153276250Y-50863750D01*
X152100000Y-43800000D02*
X151300000Y-43000000D01*
X103380000Y-41710000D02*
X103380000Y-40060000D01*
X124030000Y-60727500D02*
X125327500Y-60727500D01*
X103597500Y-41927500D02*
X103597500Y-42750000D01*
X154700000Y-61400000D02*
X155762000Y-60338000D01*
X148000000Y-49350000D02*
X147327500Y-48677500D01*
X153276250Y-50863750D02*
X153270000Y-50870000D01*
X102060000Y-52300000D02*
X103752425Y-52300000D01*
X96630000Y-39277500D02*
X96630000Y-36242000D01*
D71*
X144250000Y-70700000D02*
X144250000Y-69619827D01*
D68*
X93440000Y-40217500D02*
X95690000Y-40217500D01*
D71*
X100500000Y-56300000D02*
X93200000Y-56300000D01*
D68*
X158262000Y-50362000D02*
X158262000Y-51239471D01*
X165300000Y-51400000D02*
X165300000Y-52150000D01*
X54000000Y-86375002D02*
X54000000Y-91425002D01*
X148000000Y-49350000D02*
X148672500Y-48677500D01*
X114542075Y-65350602D02*
X113967675Y-65925002D01*
X95690000Y-40217500D02*
X96630000Y-39277500D01*
X118480256Y-53255000D02*
X117700000Y-52474744D01*
X95330000Y-42118000D02*
X93440000Y-40228000D01*
X152937500Y-48350000D02*
X152100000Y-47512500D01*
X162100000Y-53350000D02*
X161250000Y-53350000D01*
D71*
X143330173Y-68700000D02*
X141637500Y-68700000D01*
D68*
X155762000Y-60338000D02*
X155762000Y-58838000D01*
D71*
X91500000Y-45000000D02*
X83400000Y-45000000D01*
D68*
X155690000Y-73200000D02*
X155690000Y-75300000D01*
X103597500Y-41927500D02*
X103380000Y-41710000D01*
X95690000Y-40217500D02*
X96967000Y-40217500D01*
X157113971Y-52387500D02*
X156050000Y-52387500D01*
X152937500Y-48350000D02*
X152937500Y-50525000D01*
X97930000Y-41180500D02*
X97930000Y-42118000D01*
X154800000Y-52387500D02*
X153981250Y-51568750D01*
X163300000Y-51400000D02*
X163300000Y-52150000D01*
X161250000Y-54350000D02*
X163550000Y-54350000D01*
X96967000Y-40217500D02*
X97930000Y-41180500D01*
X163300000Y-52150000D02*
X162100000Y-53350000D01*
X120102500Y-53255000D02*
X118480256Y-53255000D01*
X165300000Y-52150000D02*
X163600000Y-53850000D01*
X123252425Y-29800000D02*
X121667677Y-29800000D01*
%TO.N,/SOT*%
X160980000Y-64840000D02*
X159390000Y-63250000D01*
X158870000Y-61560000D02*
X159390000Y-61560000D01*
X158762000Y-61452000D02*
X158870000Y-61560000D01*
X158762000Y-58838000D02*
X158762000Y-61452000D01*
X159390000Y-63250000D02*
X159390000Y-61560000D01*
%TO.N,/SO*%
X164310000Y-61560000D02*
X164330000Y-61540000D01*
X161390000Y-61560000D02*
X164310000Y-61560000D01*
X85127425Y-54775000D02*
X87100000Y-54775000D01*
X123127425Y-54775000D02*
X125300000Y-54775000D01*
X124500000Y-32400000D02*
X123252425Y-32400000D01*
X105300000Y-32400000D02*
X104002425Y-32400000D01*
X85002425Y-54900000D02*
X85127425Y-54775000D01*
X103877425Y-54775000D02*
X105700000Y-54775000D01*
X103752425Y-54900000D02*
X103877425Y-54775000D01*
X123002425Y-54900000D02*
X123127425Y-54775000D01*
X87100000Y-32400000D02*
X85324674Y-32400000D01*
%TO.N,/XS3T*%
X99204825Y-34334998D02*
X100665002Y-34334998D01*
X100665002Y-34334998D02*
X100700000Y-34300000D01*
X99230000Y-42118000D02*
X99582000Y-42118000D01*
X99582000Y-42118000D02*
X100700000Y-41000000D01*
%TO.N,/XS3*%
X100960000Y-31400000D02*
X100025002Y-32334998D01*
X126000000Y-28000000D02*
X125499997Y-28500003D01*
X126000000Y-24900000D02*
X126000000Y-28000000D01*
X100960000Y-30800000D02*
X100960000Y-31400000D01*
X125499997Y-28500003D02*
X123252425Y-28500003D01*
X125290000Y-24190000D02*
X126000000Y-24900000D01*
X100960000Y-24190000D02*
X125290000Y-24190000D01*
X100025002Y-32334998D02*
X99204825Y-32334998D01*
%TO.N,/12VIN*%
D71*
X56600000Y-73262500D02*
X58562500Y-73262500D01*
D68*
X66060000Y-86375002D02*
X66060000Y-91345002D01*
D71*
X54400000Y-73295000D02*
X56567500Y-73295000D01*
D70*
X60725002Y-75425002D02*
X61305175Y-75425002D01*
D71*
X104050000Y-90600000D02*
X103200000Y-91450000D01*
D70*
X58600000Y-73300000D02*
X60725002Y-75425002D01*
D71*
X104050000Y-86350000D02*
X104050000Y-90600000D01*
%TO.N,/SW*%
D68*
X64467675Y-75425002D02*
X65505175Y-76462502D01*
X65505175Y-76462502D02*
X69287498Y-76462502D01*
X63503175Y-75425002D02*
X64467675Y-75425002D01*
%TO.N,+5V*%
X60005175Y-86375002D02*
X60005175Y-91425002D01*
%TO.N,/DTR*%
X58205175Y-27625002D02*
X60305175Y-27625002D01*
%TO.N,Net-(IC10-B)*%
X62555175Y-27475002D02*
X60505175Y-25425002D01*
%TO.N,/USB_VBUSF*%
X73099999Y-27400000D02*
X74405000Y-28705001D01*
D70*
X69605000Y-29280000D02*
X69605000Y-33030000D01*
D68*
X70910001Y-27400000D02*
X73099999Y-27400000D01*
X69605000Y-28705001D02*
X70910001Y-27400000D01*
X69605000Y-29280000D02*
X69605000Y-28705001D01*
X74405000Y-28705001D02*
X74405000Y-29280000D01*
%TO.N,/CC1*%
X72505175Y-36025002D02*
X71800000Y-35319827D01*
X73255000Y-30645000D02*
X73255000Y-29280000D01*
X71800000Y-32100000D02*
X73255000Y-30645000D01*
X71800000Y-35319827D02*
X71800000Y-32100000D01*
%TO.N,/USB_DP*%
X72255000Y-28672590D02*
X72255000Y-29280000D01*
X66800000Y-35019827D02*
X67505175Y-35725002D01*
X71755000Y-28172590D02*
X72255000Y-28672590D01*
X66500000Y-28100000D02*
X66800000Y-28400000D01*
X71255000Y-29280000D02*
X71255000Y-28672590D01*
X66800000Y-28400000D02*
X66800000Y-35019827D01*
X71255000Y-28672590D02*
X71755000Y-28172590D01*
%TO.N,/USB_DN*%
X72755000Y-29280000D02*
X72755000Y-29887410D01*
X72255000Y-30387410D02*
X71755000Y-29887410D01*
X71755000Y-29887410D02*
X71755000Y-29280000D01*
X72755000Y-29887410D02*
X72255000Y-30387410D01*
%TO.N,/CC2*%
X70255000Y-29280000D02*
X70255000Y-30055000D01*
X70255000Y-30055000D02*
X70610000Y-30410000D01*
X70610000Y-30410000D02*
X70610000Y-35670177D01*
%TO.N,Net-(3V1-A)*%
X56124998Y-86600000D02*
X54000000Y-84475002D01*
X57600000Y-86600000D02*
X56124998Y-86600000D01*
%TO.N,/FAN_VOUT*%
D71*
X106550000Y-90500000D02*
X107475000Y-91425000D01*
X106550000Y-86350000D02*
X106550000Y-90500000D01*
%TO.N,/RXA3D*%
D68*
X117350000Y-28150000D02*
X119205175Y-28150000D01*
X117100000Y-28400000D02*
X117350000Y-28150000D01*
%TO.N,/RXA3*%
X122155172Y-27200003D02*
X121205175Y-28150000D01*
X123252425Y-27200003D02*
X122155172Y-27200003D01*
%TO.N,/D4*%
X121470000Y-59570000D02*
X121200000Y-59300000D01*
X102200000Y-54247575D02*
X102847575Y-53600000D01*
X102200000Y-56300000D02*
X102200000Y-54247575D01*
X102847575Y-53600000D02*
X103752425Y-53600000D01*
X121470000Y-60980000D02*
X121470000Y-59570000D01*
%TO.N,/Y4*%
X121470000Y-64735427D02*
X122085175Y-65350602D01*
X121470000Y-62980000D02*
X121470000Y-64735427D01*
%TO.N,Net-(D3-K)*%
X54700000Y-68200000D02*
X54000000Y-68900000D01*
X54700000Y-68000000D02*
X54700000Y-68200000D01*
X54700000Y-68000000D02*
X56550000Y-68000000D01*
%TO.N,Net-(Q2-G)*%
D71*
X107087500Y-72800000D02*
X106537500Y-72250000D01*
D68*
X52000000Y-70900000D02*
X54500000Y-70900000D01*
X54500000Y-70900000D02*
X55500000Y-69900000D01*
D71*
X127880000Y-72800000D02*
X107087500Y-72800000D01*
X132780000Y-67900000D02*
X127880000Y-72800000D01*
%TO.N,/TXB6D*%
D68*
X134175002Y-51475002D02*
X134600000Y-51900000D01*
X132955175Y-51475002D02*
X134175002Y-51475002D01*
%TO.N,/TXB6*%
X128907925Y-51000003D02*
X130480176Y-51000003D01*
%TO.N,/XTAL*%
X100112000Y-36242000D02*
X99230000Y-36242000D01*
X101730000Y-37860000D02*
X100112000Y-36242000D01*
%TO.N,/1OUT*%
X45700000Y-74600000D02*
X45700000Y-71939000D01*
X44800000Y-75500000D02*
X45700000Y-74600000D01*
%TO.N,/ESP_IO0*%
X49320000Y-28305177D02*
X50350175Y-27275002D01*
X46720000Y-29952500D02*
X49282500Y-29952500D01*
X56555175Y-24525002D02*
X57255175Y-25225002D01*
X49320000Y-29990000D02*
X49320000Y-28305177D01*
X53100175Y-24525002D02*
X56555175Y-24525002D01*
X50362588Y-27262588D02*
X53100175Y-24525002D01*
%TO.N,/RXA4D*%
X80955175Y-50975002D02*
X79824998Y-50975002D01*
X79824998Y-50975002D02*
X79200000Y-51600000D01*
%TO.N,/RXA4*%
X85002425Y-49700003D02*
X84230174Y-49700003D01*
X84230174Y-49700003D02*
X82955175Y-50975002D01*
%TO.N,/TXA4D*%
X78124998Y-48975002D02*
X78100000Y-49000000D01*
X80955175Y-48975002D02*
X78124998Y-48975002D01*
%TO.N,/TXA4*%
X85002425Y-49050002D02*
X83030175Y-49050002D01*
%TO.N,/RXB6*%
X130080176Y-50350001D02*
X130955175Y-49475002D01*
X128907925Y-50350001D02*
X130080176Y-50350001D01*
%TO.N,/RXA5D*%
X99830000Y-50140000D02*
X98260000Y-50140000D01*
X98260000Y-50140000D02*
X97900000Y-50500000D01*
X97900000Y-50500000D02*
X97900000Y-51600000D01*
%TO.N,/RXA5*%
X103752425Y-49700003D02*
X102269997Y-49700003D01*
%TO.N,/IO12*%
X49035175Y-63495002D02*
X48205175Y-64325002D01*
X51105175Y-63495002D02*
X49035175Y-63495002D01*
%TO.N,/VBG*%
X151786500Y-54350000D02*
X150337500Y-52901000D01*
X152774000Y-54350000D02*
X151786500Y-54350000D01*
%TO.N,Net-(STATUS1-A)*%
X71700000Y-56550000D02*
X74275000Y-56550000D01*
%TO.N,/TXB1D*%
X95205175Y-29225002D02*
X96374998Y-29225002D01*
X96374998Y-29225002D02*
X97400000Y-28200000D01*
X97400000Y-28200000D02*
X97400000Y-23700000D01*
%TO.N,/TXB1*%
X93205175Y-29225002D02*
X92505175Y-28525002D01*
X92505175Y-28525002D02*
X91205175Y-28525002D01*
%TO.N,Net-(IC3-B)*%
X166000000Y-84300000D02*
X166000000Y-86050000D01*
%TO.N,/SCLK_STAT*%
X162025000Y-88400000D02*
X165000000Y-88400000D01*
%TO.N,/ESP_SCLKT*%
X53700000Y-44500000D02*
X55175000Y-43025000D01*
%TO.N,/RTS*%
X65300000Y-28444825D02*
X64455175Y-27600000D01*
X65300000Y-29180177D02*
X65300000Y-28444825D01*
X64505175Y-29975002D02*
X65300000Y-29180177D01*
%TO.N,Net-(IC11-B)*%
X56305175Y-27475002D02*
X54255175Y-25425002D01*
%TO.N,/ESP_MOSIT*%
X74375000Y-48500000D02*
X68850173Y-48500000D01*
%TO.N,/ESP_MOSI*%
X136230000Y-42800000D02*
X134800000Y-42800000D01*
X74375000Y-50500000D02*
X75100000Y-50500000D01*
X75100000Y-50500000D02*
X75600000Y-51000000D01*
%TO.N,Net-(Q1-G)*%
X70600000Y-83600000D02*
X71850000Y-84850000D01*
X70600000Y-80800000D02*
X70600000Y-83600000D01*
%TO.N,/OUT_MISO*%
X138724825Y-39174998D02*
X140674825Y-39174998D01*
%TO.N,Net-(SCLK1-A)*%
X162000000Y-84250000D02*
X162000000Y-86375000D01*
%TO.N,/ESP_A0*%
X115735175Y-69264825D02*
X117400000Y-67600000D01*
%TO.N,/SCLK*%
X157530000Y-56910000D02*
X158262000Y-57642000D01*
X105150001Y-33050001D02*
X105300000Y-33200000D01*
X86475000Y-33075000D02*
X86600000Y-33200000D01*
X124164999Y-55550001D02*
X123002425Y-55550001D01*
X104002425Y-33050001D02*
X105150001Y-33050001D01*
X142400000Y-48000000D02*
X142830000Y-48000000D01*
X123252425Y-33050001D02*
X124550001Y-33050001D01*
X104734999Y-55550001D02*
X103752425Y-55550001D01*
X157530000Y-55690000D02*
X157530000Y-56910000D01*
X124340000Y-55375000D02*
X124164999Y-55550001D01*
X158262000Y-57642000D02*
X158262000Y-58838000D01*
X86219999Y-55550001D02*
X86330000Y-55440000D01*
X124550001Y-33050001D02*
X124700000Y-33200000D01*
X85002425Y-55550001D02*
X86219999Y-55550001D01*
X85299675Y-33075000D02*
X86475000Y-33075000D01*
X104910000Y-55375000D02*
X104734999Y-55550001D01*
%TO.N,/OUT_SCLK*%
X138830000Y-48000000D02*
X140830000Y-48000000D01*
%TO.N,/D1*%
X105451471Y-31100000D02*
X104002425Y-31100000D01*
X108800000Y-34000000D02*
X108800000Y-32200000D01*
X111300000Y-61400000D02*
X113700000Y-59000000D01*
X111300000Y-36500000D02*
X108800000Y-34000000D01*
X108800000Y-32200000D02*
X107500000Y-30900000D01*
X105651471Y-30900000D02*
X105451471Y-31100000D01*
X107500000Y-30900000D02*
X105651471Y-30900000D01*
%TO.N,/ESP_SCLK*%
X137700000Y-46800000D02*
X137450000Y-47050000D01*
X137450000Y-47050000D02*
X136330000Y-47050000D01*
X76250000Y-54000000D02*
X77400000Y-54000000D01*
X137700000Y-46600000D02*
X137700000Y-46800000D01*
%TO.N,/ESP_USRSTT*%
X65570175Y-64745002D02*
X65570175Y-67504825D01*
%TO.N,/ESP_USRST*%
X86099999Y-50350001D02*
X85002425Y-50350001D01*
X124600000Y-27800000D02*
X123302426Y-27800000D01*
X86500000Y-49950000D02*
X86099999Y-50350001D01*
X105200000Y-49950000D02*
X104799999Y-50350001D01*
X67550000Y-67525000D02*
X67550000Y-66250000D01*
X124099999Y-50350001D02*
X123002425Y-50350001D01*
X161250000Y-57850000D02*
X161200000Y-57900000D01*
X105300000Y-27800000D02*
X104052426Y-27800000D01*
X86400000Y-27800000D02*
X85374675Y-27800000D01*
X161250000Y-57350000D02*
X161250000Y-57850000D01*
X67550000Y-66250000D02*
X67600000Y-66200000D01*
X104799999Y-50350001D02*
X103752425Y-50350001D01*
X124500000Y-49950000D02*
X124099999Y-50350001D01*
%TO.N,/IO21*%
X70385002Y-53335002D02*
X68605175Y-53335002D01*
X71700000Y-54650000D02*
X70385002Y-53335002D01*
%TO.N,/1IN+*%
X50100000Y-75800000D02*
X50065000Y-75835000D01*
X46800000Y-84500000D02*
X45400000Y-85900000D01*
X46800000Y-75500000D02*
X46800000Y-84500000D01*
X50065000Y-75835000D02*
X47135000Y-75835000D01*
%TO.N,/1IN-*%
X46800000Y-73400000D02*
X46800000Y-72100000D01*
X46800000Y-72100000D02*
X48000000Y-70900000D01*
X52000000Y-74500000D02*
X53335000Y-75835000D01*
X47965000Y-74565000D02*
X46800000Y-73400000D01*
X53335000Y-75835000D02*
X54400000Y-75835000D01*
X49482000Y-74500000D02*
X52000000Y-74500000D01*
X48978000Y-74565000D02*
X47965000Y-74565000D01*
%TO.N,/TXA5D*%
X99410000Y-47800000D02*
X97100000Y-47800000D01*
%TO.N,/RXA6D*%
X119090000Y-50230000D02*
X118430000Y-50230000D01*
X118430000Y-50230000D02*
X117500000Y-49300000D01*
%TO.N,/TXA6D*%
X164100000Y-63220002D02*
X164100000Y-65325002D01*
X113330000Y-48230000D02*
X113000000Y-47900000D01*
X119090000Y-48230000D02*
X113330000Y-48230000D01*
X166000000Y-61320002D02*
X164100000Y-63220002D01*
%TO.N,/RXA1D*%
X79700000Y-27400000D02*
X79700000Y-26300000D01*
X81205175Y-27725002D02*
X80025002Y-27725002D01*
X80025002Y-27725002D02*
X79700000Y-27400000D01*
X166000000Y-28200000D02*
X164100000Y-26300000D01*
%TO.N,/RXA2D*%
X99955175Y-27650000D02*
X99450000Y-27650000D01*
X99450000Y-27650000D02*
X98700000Y-26900000D01*
%TO.N,/TXA2D*%
X98300000Y-25700000D02*
X98325002Y-25725002D01*
X98325002Y-25725002D02*
X99955175Y-25725002D01*
%TO.N,/TXA3D*%
X119000000Y-26225002D02*
X118025002Y-27200000D01*
%TO.N,/USB_VBUS*%
D70*
X72680000Y-33155000D02*
X75235173Y-33155000D01*
D68*
X62005175Y-33875002D02*
X62505175Y-33875002D01*
%TO.N,/XS4T*%
X95980000Y-42118000D02*
X95980000Y-43410000D01*
X95980000Y-43410000D02*
X95370000Y-44020000D01*
%TO.N,/XS4*%
X89903075Y-47196925D02*
X89903075Y-48496925D01*
X87399997Y-51000003D02*
X85192198Y-51000003D01*
X91080000Y-46020000D02*
X89903075Y-47196925D01*
X89903075Y-48496925D02*
X87399997Y-51000003D01*
X95370000Y-46020000D02*
X91080000Y-46020000D01*
%TO.N,/ESP_IRQ*%
X92507923Y-57800000D02*
X90907925Y-56200002D01*
X130965002Y-34934998D02*
X130392921Y-34934998D01*
X160780000Y-58720000D02*
X160662000Y-58838000D01*
X121648529Y-56700000D02*
X120548529Y-57800000D01*
X68605175Y-62225002D02*
X70605175Y-62225002D01*
X111000000Y-34792077D02*
X109907925Y-33700002D01*
X70605175Y-62225002D02*
X71405175Y-61425002D01*
X129100000Y-56700000D02*
X121648529Y-56700000D01*
X128907925Y-56507925D02*
X129100000Y-56700000D01*
X130900000Y-58200000D02*
X130600000Y-58200000D01*
X130600000Y-58200000D02*
X129100000Y-56700000D01*
X160662000Y-58838000D02*
X159762000Y-58838000D01*
X120548529Y-57800000D02*
X113400000Y-57800000D01*
X128907925Y-56200002D02*
X128907925Y-56507925D01*
X109657925Y-56200002D02*
X111800002Y-56200002D01*
X111000000Y-34934998D02*
X111000000Y-34792077D01*
X159600000Y-82400000D02*
X158600000Y-82400000D01*
X130392921Y-34934998D02*
X129157925Y-33700002D01*
X111800002Y-56200002D02*
X113400000Y-57800000D01*
X160900000Y-81100000D02*
X159600000Y-82400000D01*
X92100000Y-34619826D02*
X91205175Y-33725001D01*
X113400000Y-57800000D02*
X92507923Y-57800000D01*
X92100000Y-34934998D02*
X92100000Y-34619826D01*
%TO.N,Net-(IC4-B)*%
X158600000Y-84400000D02*
X158600000Y-86050000D01*
%TO.N,/2IN+*%
X54400000Y-77105000D02*
X54400000Y-80900000D01*
X54400000Y-80900000D02*
X49400000Y-85900000D01*
X153835002Y-65990000D02*
X152610000Y-65990000D01*
X153845002Y-66000000D02*
X153835002Y-65990000D01*
X154200000Y-66000000D02*
X153845002Y-66000000D01*
%TO.N,/2OUT*%
X57750000Y-74450000D02*
X58600000Y-75300000D01*
X52700000Y-74000000D02*
X53265000Y-74565000D01*
X54800000Y-72100000D02*
X53200000Y-72100000D01*
X56600000Y-71350000D02*
X55550000Y-71350000D01*
X52700000Y-72600000D02*
X52700000Y-74000000D01*
X53265000Y-74565000D02*
X54400000Y-74565000D01*
X58600000Y-75300000D02*
X58600000Y-77100000D01*
X55550000Y-71350000D02*
X54800000Y-72100000D01*
X54515000Y-74450000D02*
X57750000Y-74450000D01*
X53200000Y-72100000D02*
X52700000Y-72600000D01*
%TO.N,/XS1T*%
X95980000Y-35010173D02*
X95980000Y-36242000D01*
X95304825Y-34334998D02*
X95980000Y-35010173D01*
%TO.N,/XS1*%
X94200000Y-31230173D02*
X94200000Y-25700000D01*
X94200000Y-25700000D02*
X93297201Y-24797201D01*
X90200325Y-25499675D02*
X87174998Y-28525002D01*
X95304825Y-32334998D02*
X94200000Y-31230173D01*
X87174998Y-28525002D02*
X85299675Y-28525002D01*
X90200325Y-24797201D02*
X90200325Y-25499675D01*
X90200325Y-24797201D02*
X93297201Y-24797201D01*
%TO.N,/TXB5D*%
X115125002Y-51725002D02*
X113705175Y-51725002D01*
X115150004Y-51700000D02*
X115125002Y-51725002D01*
X115900000Y-51700000D02*
X115150004Y-51700000D01*
%TO.N,/TXB5*%
X110980176Y-51000003D02*
X109657925Y-51000003D01*
X111705175Y-51725002D02*
X110980176Y-51000003D01*
%TO.N,/CP_VDD*%
X61005175Y-33175002D02*
X59505175Y-34675002D01*
X61305175Y-33175002D02*
X61305175Y-32675002D01*
X61305175Y-32675002D02*
X58792675Y-32675002D01*
X59505175Y-34675002D02*
X59505175Y-33387502D01*
X60075002Y-34675002D02*
X63000000Y-37600000D01*
X59505175Y-33387502D02*
X58792675Y-32675002D01*
%TO.N,Net-(12V1-A)*%
X69700000Y-86600000D02*
X68184998Y-86600000D01*
X68184998Y-86600000D02*
X66060000Y-84475002D01*
%TO.N,+12V*%
D71*
X72475000Y-82425000D02*
X72800000Y-82750000D01*
X72475000Y-79700000D02*
X72475000Y-82425000D01*
%TO.N,/TOCAP*%
D68*
X151850000Y-55350000D02*
X151050000Y-54550000D01*
X152774000Y-55350000D02*
X151850000Y-55350000D01*
X151050000Y-54550000D02*
X150337500Y-54550000D01*
%TO.N,/WTXN*%
X158400000Y-48700000D02*
X158700000Y-48400000D01*
X159262000Y-50362000D02*
X159262000Y-49162000D01*
X158400000Y-49100000D02*
X158400000Y-48700000D01*
X159262000Y-49162000D02*
X159200000Y-49100000D01*
X159200000Y-49100000D02*
X158400000Y-49100000D01*
%TO.N,/WTXP*%
X159800000Y-50324000D02*
X159800000Y-49100000D01*
X160700000Y-49100000D02*
X160700000Y-48500000D01*
X159800000Y-49100000D02*
X160700000Y-49100000D01*
%TO.N,/TXP*%
X160600000Y-45900000D02*
X162510000Y-43990000D01*
X162230175Y-41770175D02*
X162230175Y-39785002D01*
X162510000Y-43990000D02*
X162510000Y-42050000D01*
X162510000Y-42050000D02*
X162230175Y-41770175D01*
%TO.N,/TXA2*%
X101955175Y-25725002D02*
X102780175Y-26550002D01*
X102780175Y-26550002D02*
X104002425Y-26550002D01*
%TO.N,/TXA6*%
X121090000Y-48230000D02*
X121910002Y-49050002D01*
X121910002Y-49050002D02*
X123002425Y-49050002D01*
%TO.N,/RXA6*%
X123002425Y-49700003D02*
X121619997Y-49700003D01*
X121619997Y-49700003D02*
X121090000Y-50230000D01*
%TO.N,/XS6*%
X124799997Y-51000003D02*
X123002425Y-51000003D01*
X99460000Y-45800000D02*
X122535073Y-45800000D01*
X122535073Y-45800000D02*
X125300000Y-48564927D01*
X125300000Y-50500000D02*
X124799997Y-51000003D01*
X125300000Y-48564927D02*
X125300000Y-50500000D01*
%TO.N,/D5*%
X125310000Y-62900000D02*
X127700000Y-62900000D01*
%TO.N,/SI*%
X124749999Y-31750001D02*
X123252425Y-31750001D01*
X86957276Y-53200000D02*
X85907275Y-54250001D01*
X105649999Y-31750001D02*
X104002425Y-31750001D01*
X87900000Y-53200000D02*
X86957276Y-53200000D01*
X85907275Y-54250001D02*
X85002425Y-54250001D01*
X86525000Y-31775000D02*
X85299675Y-31775000D01*
X145350000Y-43950000D02*
X145400000Y-44000000D01*
X105900000Y-31500000D02*
X105649999Y-31750001D01*
X86800000Y-31500000D02*
X86525000Y-31775000D01*
X106426471Y-53200000D02*
X105376470Y-54250001D01*
X143030000Y-43950000D02*
X145350000Y-43950000D01*
X124949999Y-54250001D02*
X123002425Y-54250001D01*
X126000000Y-53200000D02*
X124949999Y-54250001D01*
X106700000Y-53200000D02*
X106426471Y-53200000D01*
X105376470Y-54250001D02*
X103752425Y-54250001D01*
X125000000Y-31500000D02*
X124749999Y-31750001D01*
%TO.N,/BST*%
X63503175Y-74475002D02*
X65417675Y-74475002D01*
%TO.N,/CD_DP*%
X60630175Y-31675002D02*
X60200000Y-31244827D01*
X60200000Y-31244827D02*
X60200000Y-30400000D01*
X61305175Y-31675002D02*
X60630175Y-31675002D01*
%TO.N,/ESP_EN*%
X48142675Y-51957502D02*
X48142675Y-50125002D01*
X47605175Y-49587502D02*
X47605175Y-49405175D01*
X48742675Y-49525002D02*
X51105175Y-49525002D01*
X44120000Y-28355177D02*
X45200175Y-27275002D01*
X44120000Y-29990000D02*
X44120000Y-28355177D01*
X47634919Y-24840258D02*
X51359742Y-24840258D01*
X47700000Y-28200000D02*
X46775002Y-27275002D01*
X48622848Y-49405175D02*
X48742675Y-49525002D01*
X48142675Y-50125002D02*
X47605175Y-49587502D01*
X51359742Y-24840258D02*
X52200000Y-24000000D01*
X52200000Y-24000000D02*
X62305175Y-24000000D01*
X46775002Y-27275002D02*
X45200175Y-27275002D01*
X47605175Y-49405175D02*
X48622848Y-49405175D01*
X62305175Y-24000000D02*
X63505175Y-25200000D01*
X45200175Y-27275002D02*
X47634919Y-24840258D01*
%TO.N,/TXA3*%
X123252425Y-26550002D02*
X121530175Y-26550002D01*
%TO.N,/TXA1*%
X84055174Y-26575001D02*
X85299675Y-26575001D01*
X83205175Y-25725002D02*
X84055174Y-26575001D01*
%TO.N,/XS6T*%
X98580000Y-43280000D02*
X99280000Y-43980000D01*
X98580000Y-42118000D02*
X98580000Y-43280000D01*
%TO.N,/1V20*%
X152774000Y-56350000D02*
X150550000Y-56350000D01*
%TO.N,/RXA1*%
X83670177Y-27260000D02*
X85042800Y-27260000D01*
%TO.N,/WRXP*%
X157762000Y-50362000D02*
X157762000Y-47612000D01*
X157400000Y-47250000D02*
X157000000Y-47650000D01*
X157762000Y-47612000D02*
X157400000Y-47250000D01*
%TO.N,/WRXN*%
X156845000Y-48950000D02*
X155350000Y-48950000D01*
X157262000Y-50362000D02*
X157262000Y-49367000D01*
X157262000Y-49367000D02*
X156845000Y-48950000D01*
X155100000Y-48700000D02*
X155100000Y-48000000D01*
X155350000Y-48950000D02*
X155100000Y-48700000D01*
%TO.N,/EXRES1*%
X155212000Y-49412000D02*
X155262000Y-49462000D01*
X153200000Y-46000000D02*
X154100000Y-46900000D01*
X155158814Y-49324500D02*
X155184315Y-49350000D01*
X154624500Y-49324500D02*
X155158814Y-49324500D01*
X155262000Y-49462000D02*
X155262000Y-50362000D01*
X155184315Y-49350000D02*
X155212000Y-49350000D01*
X154100000Y-46900000D02*
X154100000Y-48800000D01*
X155212000Y-49350000D02*
X155212000Y-49412000D01*
X154100000Y-48800000D02*
X154624500Y-49324500D01*
%TO.N,/LINKLED*%
X153800177Y-36600000D02*
X161875175Y-28525002D01*
X152100000Y-58800000D02*
X154224000Y-58800000D01*
X152100000Y-36600000D02*
X153800177Y-36600000D01*
%TO.N,/ACTLED*%
X155500000Y-33680000D02*
X155500000Y-30319827D01*
X155500000Y-30319827D02*
X153705175Y-28525002D01*
X155262000Y-57438000D02*
X155300000Y-57400000D01*
X155262000Y-58838000D02*
X155262000Y-57438000D01*
%TO.N,/W_XI*%
X156762000Y-58838000D02*
X156762000Y-61362000D01*
%TO.N,/ESP_SCSN*%
X73425000Y-59125000D02*
X74550000Y-60250000D01*
%TO.N,/Y5*%
X123310000Y-62900000D02*
X123310000Y-65305427D01*
%TO.N,/RSTB*%
X63000000Y-35600000D02*
X63000000Y-33880177D01*
%TO.N,/ESP_RX0*%
X64434998Y-52065002D02*
X68605175Y-52065002D01*
X64400000Y-52100000D02*
X64434998Y-52065002D01*
%TO.N,/ESP_TX0*%
X68605175Y-50795002D02*
X62795002Y-50795002D01*
X62795002Y-50795002D02*
X62700000Y-50700000D01*
%TO.N,/RXA2*%
X102405172Y-27200003D02*
X104002425Y-27200003D01*
%TO.N,/XS2T*%
X97254825Y-34334998D02*
X97930000Y-35010173D01*
X97930000Y-35010173D02*
X97930000Y-36242000D01*
%TO.N,/TXB4D*%
X94955175Y-51725002D02*
X96125002Y-51725002D01*
X96125002Y-51725002D02*
X96200000Y-51800000D01*
%TO.N,/TXB4*%
X92230176Y-51000003D02*
X92955175Y-51725002D01*
X90907925Y-51000003D02*
X92230176Y-51000003D01*
%TO.N,/RXP*%
X157000000Y-45900000D02*
X157000000Y-41950000D01*
X157000000Y-41950000D02*
X159164998Y-39785002D01*
%TO.N,/RXN*%
X154100000Y-44240000D02*
X155550000Y-44240000D01*
X155100000Y-45900000D02*
X155100000Y-44800000D01*
X153940000Y-44080000D02*
X153940000Y-44000000D01*
X155260000Y-44640000D02*
X155550000Y-44640000D01*
X155710000Y-44480000D02*
X155710000Y-44400000D01*
X155100000Y-43680000D02*
X155100000Y-43115177D01*
X154100000Y-43840000D02*
X154940000Y-43840000D01*
X155100000Y-43115177D02*
X155890175Y-42325002D01*
X154100000Y-44240000D02*
G75*
G02*
X153940000Y-44080000I0J160000D01*
G01*
X155710000Y-44400000D02*
G75*
G03*
X155550000Y-44240000I-160000J0D01*
G01*
X155100000Y-44800000D02*
G75*
G02*
X155260000Y-44640000I160000J0D01*
G01*
X155550000Y-44640000D02*
G75*
G03*
X155710000Y-44480000I0J160000D01*
G01*
X153940000Y-44000000D02*
G75*
G02*
X154100000Y-43840000I160000J0D01*
G01*
X154940000Y-43840000D02*
G75*
G03*
X155100000Y-43680000I0J160000D01*
G01*
%TO.N,/TXB3D*%
X133205175Y-29225002D02*
X134574998Y-29225002D01*
X134574998Y-29225002D02*
X134600000Y-29200000D01*
X42500000Y-39175000D02*
X42500000Y-50542177D01*
X42500000Y-50542177D02*
X37395175Y-55647002D01*
%TO.N,/TXB3*%
X129157925Y-28500003D02*
X130480176Y-28500003D01*
X130480176Y-28500003D02*
X131205175Y-29225002D01*
%TO.N,/D0*%
X112000000Y-62500000D02*
X113550000Y-60950000D01*
X112000000Y-63400000D02*
X112000000Y-62500000D01*
%TO.N,/Y0*%
X117005175Y-62245175D02*
X117005175Y-65350602D01*
X115710000Y-60950000D02*
X117005175Y-62245175D01*
%TO.N,/RXB1D*%
X96600000Y-25800000D02*
X95900000Y-26500000D01*
X95900000Y-26530177D02*
X95205175Y-27225002D01*
X95900000Y-26500000D02*
X95900000Y-26530177D01*
X96600000Y-25700000D02*
X96600000Y-25800000D01*
%TO.N,/RXB2D*%
X114200000Y-27200000D02*
X114200000Y-25400000D01*
%TO.N,/TXB2D*%
X115274998Y-29225002D02*
X115300000Y-29200000D01*
X113955175Y-29225002D02*
X115274998Y-29225002D01*
%TO.N,/RXB3D*%
X133200000Y-25500000D02*
X133200000Y-27219827D01*
%TO.N,/RXB4D*%
X94955175Y-48528177D02*
X94400000Y-47973002D01*
X94955175Y-49725002D02*
X94955175Y-48528177D01*
%TO.N,/TXB2*%
X111230176Y-28500003D02*
X109907925Y-28500003D01*
X111955175Y-29225002D02*
X111230176Y-28500003D01*
%TO.N,/RXB2*%
X111955175Y-27225002D02*
X111330176Y-27850001D01*
X111330176Y-27850001D02*
X109907925Y-27850001D01*
%TO.N,Net-(5V1-A)*%
X62130173Y-86600000D02*
X60005175Y-84475002D01*
X63600000Y-86600000D02*
X62130173Y-86600000D01*
%TO.N,/RXB5*%
X111080176Y-50350001D02*
X109657925Y-50350001D01*
X111705175Y-49725002D02*
X111080176Y-50350001D01*
%TO.N,/TXA5*%
X102660002Y-49050002D02*
X101830000Y-48220000D01*
X103752425Y-49050002D02*
X102660002Y-49050002D01*
%TO.N,/D3*%
X82869776Y-54900000D02*
X84169776Y-53600000D01*
X113720000Y-62910000D02*
X113720000Y-64280000D01*
X84169776Y-53600000D02*
X85002425Y-53600000D01*
X80500000Y-54900000D02*
X82869776Y-54900000D01*
%TO.N,/Y3*%
X115720000Y-62910000D02*
X116425775Y-63615775D01*
X116425775Y-63615775D02*
X116425775Y-66742802D01*
X116425775Y-66742802D02*
X120197198Y-66742802D01*
X120197198Y-66742802D02*
X120815175Y-66124825D01*
%TO.N,Net-(IRQ1-A)*%
X154700000Y-84250000D02*
X154700000Y-86400000D01*
%TO.N,/Y2*%
X119510000Y-62980000D02*
X119510000Y-65315427D01*
%TO.N,/ESP_SCSNT*%
X68605175Y-58415002D02*
X70790002Y-58415002D01*
X70790002Y-58415002D02*
X71425000Y-59050000D01*
%TO.N,/RXB4*%
X92330176Y-50350001D02*
X92955175Y-49725002D01*
X90907925Y-50350001D02*
X92330176Y-50350001D01*
%TO.N,/XS5T*%
X97280000Y-42118000D02*
X97280000Y-43980000D01*
%TO.N,/D2*%
X119510000Y-60980000D02*
X119510000Y-59310000D01*
X122500000Y-31100000D02*
X119700000Y-33900000D01*
X123252425Y-31100000D02*
X122500000Y-31100000D01*
%TO.N,/RXB3*%
X130580176Y-27850001D02*
X129157925Y-27850001D01*
X131205175Y-27225002D02*
X130580176Y-27850001D01*
%TO.N,/IRQ_STAT*%
X154700000Y-88400000D02*
X157600000Y-88400000D01*
%TO.N,/OUT_MOSI*%
X138730000Y-43750000D02*
X140830000Y-43750000D01*
%TO.N,/ESP_MISO*%
X68605175Y-55875002D02*
X66075002Y-55875002D01*
X66075002Y-55875002D02*
X65800000Y-55600000D01*
X143024825Y-39524998D02*
X144675002Y-39524998D01*
X144675002Y-39524998D02*
X144700000Y-39500000D01*
%TO.N,/RXB1*%
X92555177Y-27875000D02*
X91205175Y-27875000D01*
X93205175Y-27225002D02*
X92555177Y-27875000D01*
%TO.N,/TXN*%
X159730000Y-41510000D02*
X159730000Y-44078529D01*
X160810000Y-41130000D02*
X160110000Y-41130000D01*
X161110000Y-41430000D02*
X160810000Y-41130000D01*
X160110000Y-41130000D02*
X159730000Y-41510000D01*
X161110000Y-42185177D02*
X161110000Y-41430000D01*
X159730000Y-44078529D02*
X158700000Y-45108529D01*
%TD*%
%TA.AperFunction,Conductor*%
%TO.N,GND*%
G36*
X153343039Y-59889685D02*
G01*
X153388794Y-59942489D01*
X153400000Y-59994000D01*
X153400000Y-64790500D01*
X153380315Y-64857539D01*
X153327511Y-64903294D01*
X153276000Y-64914500D01*
X151837129Y-64914500D01*
X151837123Y-64914501D01*
X151777516Y-64920908D01*
X151642671Y-64971202D01*
X151642664Y-64971206D01*
X151527455Y-65057452D01*
X151527452Y-65057455D01*
X151441206Y-65172664D01*
X151441202Y-65172671D01*
X151390908Y-65307517D01*
X151384501Y-65367116D01*
X151384500Y-65367135D01*
X151384500Y-66612870D01*
X151384501Y-66612876D01*
X151390908Y-66672483D01*
X151441202Y-66807328D01*
X151441207Y-66807337D01*
X151447462Y-66815693D01*
X151471877Y-66881158D01*
X151457023Y-66949430D01*
X151447462Y-66964307D01*
X151441207Y-66972662D01*
X151441202Y-66972671D01*
X151390908Y-67107517D01*
X151384501Y-67167116D01*
X151384500Y-67167135D01*
X151384500Y-68412870D01*
X151384501Y-68412876D01*
X151390908Y-68472483D01*
X151441202Y-68607328D01*
X151441203Y-68607329D01*
X151441204Y-68607331D01*
X151527452Y-68722543D01*
X151527451Y-68722543D01*
X151527452Y-68722544D01*
X151527454Y-68722546D01*
X151559812Y-68746769D01*
X151601681Y-68802700D01*
X151609500Y-68846034D01*
X151609500Y-70424218D01*
X151600855Y-70453658D01*
X151594332Y-70483645D01*
X151590577Y-70488660D01*
X151589815Y-70491257D01*
X151573181Y-70511899D01*
X151541399Y-70543681D01*
X151480076Y-70577166D01*
X151453718Y-70580000D01*
X145724000Y-70580000D01*
X145656961Y-70560315D01*
X145611206Y-70507511D01*
X145600000Y-70456000D01*
X145600000Y-59994000D01*
X145619685Y-59926961D01*
X145672489Y-59881206D01*
X145724000Y-59870000D01*
X153276000Y-59870000D01*
X153343039Y-59889685D01*
G37*
%TD.AperFunction*%
%TD*%
%TA.AperFunction,Conductor*%
%TO.N,GND*%
G36*
X61843039Y-50919685D02*
G01*
X61888794Y-50972489D01*
X61900000Y-51024000D01*
X61900000Y-57676000D01*
X61880315Y-57743039D01*
X61827511Y-57788794D01*
X61776000Y-57800000D01*
X54924000Y-57800000D01*
X54856961Y-57780315D01*
X54811206Y-57727511D01*
X54800000Y-57676000D01*
X54800000Y-51024000D01*
X54819685Y-50956961D01*
X54872489Y-50911206D01*
X54924000Y-50900000D01*
X61776000Y-50900000D01*
X61843039Y-50919685D01*
G37*
%TD.AperFunction*%
%TD*%
%TA.AperFunction,Conductor*%
%TO.N,+5V*%
G36*
X64813621Y-68618461D02*
G01*
X64880659Y-68659810D01*
X64880660Y-68659810D01*
X64880666Y-68659814D01*
X65047203Y-68714999D01*
X65149991Y-68725500D01*
X65950008Y-68725499D01*
X65950016Y-68725498D01*
X65950019Y-68725498D01*
X66006302Y-68719748D01*
X66052797Y-68714999D01*
X66219334Y-68659814D01*
X66246419Y-68643107D01*
X66286379Y-68618461D01*
X66351475Y-68600000D01*
X66748525Y-68600000D01*
X66813621Y-68618461D01*
X66880659Y-68659810D01*
X66880660Y-68659810D01*
X66880666Y-68659814D01*
X67047203Y-68714999D01*
X67149991Y-68725500D01*
X67950008Y-68725499D01*
X67950016Y-68725498D01*
X67950019Y-68725498D01*
X68006302Y-68719748D01*
X68052797Y-68714999D01*
X68219334Y-68659814D01*
X68246419Y-68643107D01*
X68286379Y-68618461D01*
X68351475Y-68600000D01*
X75876000Y-68600000D01*
X75943039Y-68619685D01*
X75988794Y-68672489D01*
X76000000Y-68724000D01*
X76000000Y-77076000D01*
X75980315Y-77143039D01*
X75927511Y-77188794D01*
X75876000Y-77200000D01*
X71474500Y-77200000D01*
X71407461Y-77180315D01*
X71361706Y-77127511D01*
X71350500Y-77076000D01*
X71350499Y-74827129D01*
X71350498Y-74827123D01*
X71350497Y-74827116D01*
X71344091Y-74767517D01*
X71293796Y-74632669D01*
X71293795Y-74632668D01*
X71293793Y-74632664D01*
X71207547Y-74517455D01*
X71207544Y-74517452D01*
X71092335Y-74431206D01*
X71092328Y-74431202D01*
X70957482Y-74380908D01*
X70957483Y-74380908D01*
X70897883Y-74374501D01*
X70897881Y-74374500D01*
X70897873Y-74374500D01*
X70897864Y-74374500D01*
X68702129Y-74374500D01*
X68702123Y-74374501D01*
X68642516Y-74380908D01*
X68507671Y-74431202D01*
X68507664Y-74431206D01*
X68392455Y-74517452D01*
X68392452Y-74517455D01*
X68306206Y-74632664D01*
X68306202Y-74632671D01*
X68255908Y-74767517D01*
X68249501Y-74827116D01*
X68249501Y-74827123D01*
X68249500Y-74827135D01*
X68249500Y-75738002D01*
X68229815Y-75805041D01*
X68177011Y-75850796D01*
X68125500Y-75862002D01*
X66768943Y-75862002D01*
X66701904Y-75842317D01*
X66663404Y-75803099D01*
X66572887Y-75656346D01*
X66448831Y-75532290D01*
X66445994Y-75530540D01*
X66444458Y-75528832D01*
X66443164Y-75527809D01*
X66443338Y-75527587D01*
X66399271Y-75478596D01*
X66388047Y-75409634D01*
X66415888Y-75345551D01*
X66445992Y-75319464D01*
X66448831Y-75317714D01*
X66572887Y-75193658D01*
X66664989Y-75044336D01*
X66720174Y-74877799D01*
X66730675Y-74775011D01*
X66730674Y-73999994D01*
X66720174Y-73897205D01*
X66664989Y-73730668D01*
X66630571Y-73674867D01*
X66612132Y-73607477D01*
X66633055Y-73540814D01*
X66661798Y-73510507D01*
X66732546Y-73457546D01*
X66818796Y-73342331D01*
X66869091Y-73207483D01*
X66875500Y-73147873D01*
X66875499Y-71902128D01*
X66869091Y-71842517D01*
X66818796Y-71707669D01*
X66812539Y-71699312D01*
X66788121Y-71633851D01*
X66802970Y-71565578D01*
X66812534Y-71550695D01*
X66818796Y-71542331D01*
X66869091Y-71407483D01*
X66875500Y-71347873D01*
X66875499Y-70102128D01*
X66869091Y-70042517D01*
X66818796Y-69907669D01*
X66818795Y-69907668D01*
X66818793Y-69907664D01*
X66732547Y-69792455D01*
X66732544Y-69792452D01*
X66617335Y-69706206D01*
X66617328Y-69706202D01*
X66482482Y-69655908D01*
X66482483Y-69655908D01*
X66422883Y-69649501D01*
X66422881Y-69649500D01*
X66422873Y-69649500D01*
X66422864Y-69649500D01*
X64877129Y-69649500D01*
X64877123Y-69649501D01*
X64817514Y-69655909D01*
X64751439Y-69680553D01*
X64726416Y-69682342D01*
X64702025Y-69688222D01*
X64692162Y-69684792D01*
X64681747Y-69685537D01*
X64659727Y-69673513D01*
X64636032Y-69665273D01*
X64627062Y-69655676D01*
X64620424Y-69652051D01*
X64610524Y-69640880D01*
X64606226Y-69635398D01*
X64572887Y-69581346D01*
X64531027Y-69539486D01*
X64526417Y-69533606D01*
X64516135Y-69507815D01*
X64502834Y-69483455D01*
X64501507Y-69471120D01*
X64500544Y-69468703D01*
X64500997Y-69466370D01*
X64500000Y-69457097D01*
X64500000Y-68724000D01*
X64519685Y-68656961D01*
X64572489Y-68611206D01*
X64624000Y-68600000D01*
X64748525Y-68600000D01*
X64813621Y-68618461D01*
G37*
%TD.AperFunction*%
%TD*%
M02*
