%TF.GenerationSoftware,KiCad,Pcbnew,10.0.1*%
%TF.CreationDate,2026-05-16T10:44:46-07:00*%
%TF.ProjectId,DarkMagic,4461726b-4d61-4676-9963-2e6b69636164,rev?*%
%TF.SameCoordinates,Original*%
%TF.FileFunction,Copper,L6,Bot*%
%TF.FilePolarity,Positive*%
%FSLAX46Y46*%
G04 Gerber Fmt 4.6, Leading zero omitted, Abs format (unit mm)*
G04 Created by KiCad (PCBNEW 10.0.1) date 2026-05-16 10:44:46*
%MOMM*%
%LPD*%
G01*
G04 APERTURE LIST*
G04 Aperture macros list*
%AMRoundRect*
0 Rectangle with rounded corners*
0 $1 Rounding radius*
0 $2 $3 $4 $5 $6 $7 $8 $9 X,Y pos of 4 corners*
0 Add a 4 corners polygon primitive as box body*
4,1,4,$2,$3,$4,$5,$6,$7,$8,$9,$2,$3,0*
0 Add four circle primitives for the rounded corners*
1,1,$1+$1,$2,$3*
1,1,$1+$1,$4,$5*
1,1,$1+$1,$6,$7*
1,1,$1+$1,$8,$9*
0 Add four rect primitives between the rounded corners*
20,1,$1+$1,$2,$3,$4,$5,0*
20,1,$1+$1,$4,$5,$6,$7,0*
20,1,$1+$1,$6,$7,$8,$9,0*
20,1,$1+$1,$8,$9,$2,$3,0*%
G04 Aperture macros list end*
%TA.AperFunction,ComponentPad*%
%ADD10C,3.800000*%
%TD*%
%TA.AperFunction,ComponentPad*%
%ADD11O,1.000000X2.100000*%
%TD*%
%TA.AperFunction,ComponentPad*%
%ADD12O,1.000000X1.800000*%
%TD*%
%TA.AperFunction,ComponentPad*%
%ADD13R,3.300000X6.600000*%
%TD*%
%TA.AperFunction,ComponentPad*%
%ADD14O,3.300000X6.600000*%
%TD*%
%TA.AperFunction,ComponentPad*%
%ADD15R,1.800000X1.800000*%
%TD*%
%TA.AperFunction,ComponentPad*%
%ADD16C,1.800000*%
%TD*%
%TA.AperFunction,ComponentPad*%
%ADD17C,1.560000*%
%TD*%
%TA.AperFunction,ComponentPad*%
%ADD18C,4.890000*%
%TD*%
%TA.AperFunction,ComponentPad*%
%ADD19C,1.500000*%
%TD*%
%TA.AperFunction,ComponentPad*%
%ADD20RoundRect,0.250500X0.499500X0.499500X-0.499500X0.499500X-0.499500X-0.499500X0.499500X-0.499500X0*%
%TD*%
%TA.AperFunction,ComponentPad*%
%ADD21C,2.500000*%
%TD*%
%TA.AperFunction,ViaPad*%
%ADD22C,0.600000*%
%TD*%
%TA.AperFunction,Conductor*%
%ADD23C,0.200000*%
%TD*%
G04 APERTURE END LIST*
D10*
%TO.P,H1,1,1_1*%
%TO.N,GND*%
X172090000Y-91400000D03*
%TD*%
D11*
%TO.P,J1,SH,SHIELD_SH*%
%TO.N,GND*%
X76325000Y-28705000D03*
D12*
X76325000Y-24525000D03*
D11*
X67685000Y-28705000D03*
D12*
X67685000Y-24525000D03*
%TD*%
D13*
%TO.P,J4,1,Pin_1_1*%
%TO.N,Net-(J4-Pin_1)*%
X84475175Y-81425002D03*
D14*
%TO.P,J4,2,Pin_2_2*%
X94475175Y-81425002D03*
%TD*%
D10*
%TO.P,H4,1,1_1*%
%TO.N,GND*%
X105200000Y-78300000D03*
%TD*%
D15*
%TO.P,J7,1,1_1*%
%TO.N,/12VIN*%
X104050000Y-86350000D03*
D16*
%TO.P,J7,2,2_2*%
%TO.N,/FAN_VOUT*%
X106550000Y-86350000D03*
%TD*%
D17*
%TO.P,J6,1,1_1*%
%TO.N,/RXA4D*%
X172635175Y-75110002D03*
%TO.P,J6,2,2_2*%
%TO.N,/TXA4D*%
X172635175Y-72352002D03*
%TO.P,J6,3,3_3*%
%TO.N,/RXA5D*%
X172635175Y-69594002D03*
%TO.P,J6,4,4_4*%
%TO.N,/TXA5D*%
X172635175Y-66836002D03*
%TO.P,J6,5,5_5*%
%TO.N,/RXA6D*%
X172635175Y-64078002D03*
%TO.P,J6,6,6_6*%
%TO.N,/TXA6D*%
X172635175Y-61320002D03*
%TO.P,J6,7,7_7*%
%TO.N,/RXA1D*%
X172635175Y-58562002D03*
%TO.P,J6,8,8_8*%
%TO.N,/TXA1D*%
X172635175Y-55804002D03*
%TO.P,J6,9,9_9*%
%TO.N,/RXA2D*%
X172635175Y-53046002D03*
%TO.P,J6,10,10_10*%
%TO.N,/TXA2D*%
X172635175Y-50288002D03*
%TO.P,J6,11,11_11*%
%TO.N,/RXA3D*%
X172635175Y-47530002D03*
%TO.P,J6,12,12_12*%
%TO.N,/TXA3D*%
X172635175Y-44772002D03*
%TO.P,J6,13,13_13*%
%TO.N,GND*%
X172635175Y-42014002D03*
%TO.P,J6,14,14_14*%
X175475175Y-73731002D03*
%TO.P,J6,15,15_15*%
%TO.N,+5V*%
X175475175Y-70973002D03*
%TO.P,J6,16,16_16*%
%TO.N,GND*%
X175475175Y-68215002D03*
%TO.P,J6,17,17_17*%
%TO.N,+5V*%
X175475175Y-65457002D03*
%TO.P,J6,18,18_18*%
%TO.N,GND*%
X175475175Y-62699002D03*
%TO.P,J6,19,19_19*%
%TO.N,+5V*%
X175475175Y-59941002D03*
%TO.P,J6,20,20_20*%
%TO.N,GND*%
X175475175Y-57183002D03*
%TO.P,J6,21,21_21*%
%TO.N,+5V*%
X175475175Y-54425002D03*
%TO.P,J6,22,22_22*%
%TO.N,GND*%
X175475175Y-51667002D03*
%TO.P,J6,23,23_23*%
%TO.N,+5V*%
X175475175Y-48909002D03*
%TO.P,J6,24,24_24*%
%TO.N,GND*%
X175475175Y-46151002D03*
%TO.P,J6,25,25_25*%
%TO.N,+5V*%
X175475175Y-43393002D03*
D18*
%TO.P,J6,MH1,MH1_MH1*%
%TO.N,GND*%
X174055175Y-35042002D03*
%TO.P,J6,MH2,MH2_MH2*%
X174055175Y-82082002D03*
%TD*%
D10*
%TO.P,H5,1,1_1*%
%TO.N,GND*%
X37980000Y-25500000D03*
%TD*%
%TO.P,H3,1,1_1*%
%TO.N,GND*%
X172100000Y-25600000D03*
%TD*%
%TO.P,H6,1,1_1*%
%TO.N,GND*%
X37990000Y-91340000D03*
%TD*%
D17*
%TO.P,J3,1,1_1*%
%TO.N,/RXB1D*%
X37395175Y-41857002D03*
%TO.P,J3,2,2_2*%
%TO.N,/TXB1D*%
X37395175Y-44615002D03*
%TO.P,J3,3,3_3*%
%TO.N,/RXB2D*%
X37395175Y-47373002D03*
%TO.P,J3,4,4_4*%
%TO.N,/TXB2D*%
X37395175Y-50131002D03*
%TO.P,J3,5,5_5*%
%TO.N,/RXB3D*%
X37395175Y-52889002D03*
%TO.P,J3,6,6_6*%
%TO.N,/TXB3D*%
X37395175Y-55647002D03*
%TO.P,J3,7,7_7*%
%TO.N,/RXB4D*%
X37395175Y-58405002D03*
%TO.P,J3,8,8_8*%
%TO.N,/TXB4D*%
X37395175Y-61163002D03*
%TO.P,J3,9,9_9*%
%TO.N,/RXB5D*%
X37395175Y-63921002D03*
%TO.P,J3,10,10_10*%
%TO.N,/TXB5D*%
X37395175Y-66679002D03*
%TO.P,J3,11,11_11*%
%TO.N,/RXB6D*%
X37395175Y-69437002D03*
%TO.P,J3,12,12_12*%
%TO.N,/TXB6D*%
X37395175Y-72195002D03*
%TO.P,J3,13,13_13*%
%TO.N,GND*%
X37395175Y-74953002D03*
%TO.P,J3,14,14_14*%
X34555175Y-43236002D03*
%TO.P,J3,15,15_15*%
%TO.N,+5V*%
X34555175Y-45994002D03*
%TO.P,J3,16,16_16*%
%TO.N,GND*%
X34555175Y-48752002D03*
%TO.P,J3,17,17_17*%
%TO.N,+5V*%
X34555175Y-51510002D03*
%TO.P,J3,18,18_18*%
%TO.N,GND*%
X34555175Y-54268002D03*
%TO.P,J3,19,19_19*%
%TO.N,+5V*%
X34555175Y-57026002D03*
%TO.P,J3,20,20_20*%
%TO.N,GND*%
X34555175Y-59784002D03*
%TO.P,J3,21,21_21*%
%TO.N,+5V*%
X34555175Y-62542002D03*
%TO.P,J3,22,22_22*%
%TO.N,GND*%
X34555175Y-65300002D03*
%TO.P,J3,23,23_23*%
%TO.N,+5V*%
X34555175Y-68058002D03*
%TO.P,J3,24,24_24*%
%TO.N,GND*%
X34555175Y-70816002D03*
%TO.P,J3,25,25_25*%
%TO.N,+5V*%
X34555175Y-73574002D03*
D18*
%TO.P,J3,MH1,MH1_MH1*%
%TO.N,GND*%
X35975175Y-81925002D03*
%TO.P,J3,MH2,MH2_MH2*%
X35975175Y-34885002D03*
%TD*%
D19*
%TO.P,J2,*%
%TO.N,*%
X154610175Y-39785002D03*
D20*
%TO.P,J2,1*%
%TO.N,/TXP*%
X162230175Y-39785002D03*
D19*
%TO.P,J2,2*%
%TO.N,/TXN*%
X160970175Y-42325002D03*
%TO.P,J2,3*%
%TO.N,/RXP*%
X159690175Y-39785002D03*
%TO.P,J2,4*%
%TO.N,+3V3*%
X158430175Y-42325002D03*
%TO.P,J2,5*%
X157150175Y-39785002D03*
%TO.P,J2,6*%
%TO.N,/RXN*%
X155890175Y-42325002D03*
%TO.P,J2,8*%
%TO.N,GND*%
X153350175Y-42325002D03*
%TO.P,J2,9*%
%TO.N,Net-(J2-Pad9)*%
X164415175Y-28525002D03*
%TO.P,J2,10*%
%TO.N,/LINKLED*%
X161875175Y-28525002D03*
%TO.P,J2,11*%
%TO.N,/ACTLED*%
X153705175Y-28525002D03*
%TO.P,J2,12*%
%TO.N,Net-(J2-Pad12)*%
X151165175Y-28525002D03*
D21*
%TO.P,J2,15,SHIELD_15*%
%TO.N,GND*%
X165535175Y-36475002D03*
%TO.P,J2,16,SHIELD_16*%
X150045175Y-36475002D03*
%TD*%
D13*
%TO.P,J5,1,Pin_1_1*%
%TO.N,GND*%
X115475175Y-81425002D03*
D14*
%TO.P,J5,2,Pin_2_2*%
X125475175Y-81425002D03*
%TD*%
D22*
%TO.N,/RXA6D*%
X171170000Y-59360000D03*
%TO.N,GND*%
X166580000Y-74500000D03*
X165710000Y-74500000D03*
X162570000Y-74500000D03*
X163540000Y-74500000D03*
X133940000Y-61070000D03*
X131610000Y-61070000D03*
X131650000Y-57380000D03*
X133970000Y-57410000D03*
X150180000Y-68700000D03*
X149250000Y-66930000D03*
X151110000Y-66940000D03*
%TO.N,/ACTLED*%
X155500000Y-33680000D03*
X155500000Y-36140000D03*
X154540000Y-41360000D03*
%TO.N,/RXB3D*%
X39447088Y-50837088D03*
X39519353Y-43339353D03*
%TO.N,/12VIN*%
X45590000Y-70020000D03*
%TO.N,/RXB1D*%
X40700000Y-38500000D03*
%TO.N,/TXB1D*%
X41600000Y-40400000D03*
%TO.N,+3V3*%
X46700000Y-33640000D03*
%TO.N,GND*%
X143117500Y-46050000D03*
%TO.N,+3V3*%
X74780000Y-64720000D03*
%TO.N,/ESP_IO0*%
X71100000Y-63470000D03*
%TO.N,+3V3*%
X143690000Y-25120000D03*
%TO.N,GND*%
X44770000Y-62440000D03*
X44770000Y-60440000D03*
X44700000Y-58470000D03*
X44620000Y-56400000D03*
X63255175Y-31000000D03*
X136230000Y-41850000D03*
X56955175Y-55725002D03*
X63503175Y-76375002D03*
X58355175Y-55725002D03*
X160000000Y-51850000D03*
X146940000Y-50687500D03*
X148825000Y-50550000D03*
X124625175Y-70075002D03*
X58355175Y-54325002D03*
X163300000Y-58175000D03*
X132800000Y-62100000D03*
X44470000Y-69330000D03*
X96630000Y-41060000D03*
X45955175Y-45937500D03*
X160000000Y-56850000D03*
X146590000Y-54730000D03*
X150155175Y-66925002D03*
X50350175Y-23875002D03*
X56600000Y-75337500D03*
X108790000Y-29160000D03*
X68605175Y-45800000D03*
X136330000Y-46100000D03*
X165437500Y-54150000D03*
X61505175Y-80962502D03*
X154200000Y-53350000D03*
X163300000Y-50075000D03*
X103380000Y-37960000D03*
X63505175Y-80962502D03*
X143012325Y-37224998D03*
X143855175Y-66925002D03*
X156050000Y-48000000D03*
X165300000Y-50075000D03*
X59755175Y-54325002D03*
X156750000Y-86100000D03*
X72800000Y-91500000D03*
X164600000Y-74500000D03*
X86410000Y-29180000D03*
X111892675Y-65925002D03*
X56810000Y-30010000D03*
X159650000Y-48000000D03*
X61505175Y-69005175D03*
X99815000Y-52000000D03*
X54140175Y-64745002D03*
X81167675Y-29725002D03*
X76275000Y-56550000D03*
X101522500Y-42750000D03*
X47440000Y-87910000D03*
X143017500Y-41800000D03*
X57800000Y-35900000D03*
X155800000Y-51650000D03*
X124390000Y-29150000D03*
X120815175Y-70075002D03*
X46720000Y-32027500D03*
X56955175Y-52925002D03*
X119167675Y-30225002D03*
X86150000Y-51690000D03*
X55900000Y-84650000D03*
X59755175Y-52925002D03*
X80917675Y-53125002D03*
X165300000Y-58175000D03*
X90060000Y-29180000D03*
X124030000Y-58652500D03*
X63500000Y-69000000D03*
X89800000Y-51690000D03*
X153950000Y-54850000D03*
X105140000Y-29160000D03*
X117007178Y-51600000D03*
X164150000Y-86100000D03*
X128040000Y-29150000D03*
X51100000Y-45900000D03*
X48978000Y-77105000D03*
X70600000Y-78800000D03*
X119545175Y-70075002D03*
X156250000Y-57600000D03*
X99917675Y-29725002D03*
X134800000Y-38200000D03*
X148950000Y-46602500D03*
X93440000Y-38142500D03*
X46067675Y-50125002D03*
X97300000Y-37360000D03*
X56955175Y-54325002D03*
X104900000Y-51670000D03*
X141505175Y-66700002D03*
X106537500Y-70350000D03*
X136330000Y-48000000D03*
X68600000Y-36700000D03*
X45200175Y-23875002D03*
X48205175Y-45937502D03*
X59755175Y-55725002D03*
X160000000Y-55850000D03*
X58355175Y-52925002D03*
X108550000Y-51670000D03*
X151404732Y-51899236D03*
X156800000Y-63050000D03*
X124150000Y-51680000D03*
X136230000Y-43750000D03*
%TO.N,+3V3*%
X150935000Y-50585000D03*
X93200000Y-56300000D03*
X151300000Y-43000000D03*
X91500000Y-45000000D03*
X156050000Y-45500000D03*
X154700000Y-61400000D03*
X113967675Y-65925002D03*
X126300000Y-61700000D03*
X140942500Y-41800000D03*
X165300000Y-56100000D03*
X155690000Y-75300000D03*
X83400000Y-45000000D03*
X140937325Y-37224998D03*
X165900000Y-70100000D03*
X54000000Y-86375002D03*
X159650000Y-45500000D03*
X154700000Y-82350000D03*
X148000000Y-49350000D03*
X141637500Y-68700000D03*
X101992675Y-29725002D03*
X100500000Y-56300000D03*
X154700000Y-63050000D03*
X45955175Y-48012500D03*
X48205175Y-48012502D03*
X165900000Y-64700000D03*
X121242675Y-30225002D03*
X146000000Y-49350000D03*
X79000000Y-41600000D03*
X46530000Y-54310000D03*
X87100000Y-41600000D03*
X82992675Y-53125002D03*
X144250000Y-70700000D03*
X93440000Y-40228000D03*
X163300000Y-51400000D03*
X103597500Y-42750000D03*
X141042500Y-46050000D03*
X101890000Y-52000000D03*
X117700000Y-52000000D03*
X163300000Y-56100000D03*
X83242675Y-29725002D03*
X165300000Y-51400000D03*
X162000000Y-82350000D03*
%TO.N,/SO*%
X125300000Y-54775000D03*
X87100000Y-54775000D03*
X136224825Y-38224998D03*
X164330000Y-38160000D03*
X136200000Y-32400000D03*
X105700000Y-54775000D03*
X124500000Y-32400000D03*
X135600000Y-54900000D03*
X105300000Y-32400000D03*
X87100000Y-32400000D03*
X164330000Y-61540000D03*
%TO.N,/XS3T*%
X100700000Y-41000000D03*
X100700000Y-34300000D03*
%TO.N,/XS3*%
X100960000Y-24190000D03*
X100960000Y-30800000D03*
%TO.N,/12VIN*%
X63505175Y-78887502D03*
X56600000Y-73262500D03*
X66060000Y-86375002D03*
X145770000Y-75840000D03*
X61505175Y-78887502D03*
X61305175Y-76375002D03*
X65600000Y-70900000D03*
X61305175Y-75425002D03*
X73800000Y-84900000D03*
X72900000Y-87800000D03*
%TO.N,+5V*%
X69800000Y-71150000D03*
X75505175Y-37725002D03*
X143855175Y-64625002D03*
X141505175Y-64625002D03*
X61505175Y-72462502D03*
X63505175Y-72462502D03*
X60005175Y-86375002D03*
%TO.N,/USB_DP*%
X71755000Y-28172590D03*
X66500000Y-28100000D03*
%TO.N,/USB_DN*%
X72255000Y-30387410D03*
X67512590Y-30387410D03*
X67505175Y-37625002D03*
%TO.N,Net-(J4-Pin_1)*%
X77125000Y-79700000D03*
%TO.N,/FAN_VOUT*%
X104662500Y-71300000D03*
%TO.N,/RXA3D*%
X116900000Y-47400000D03*
X117100000Y-28400000D03*
%TO.N,/D4*%
X121200000Y-56300000D03*
X102200000Y-56300000D03*
X121200000Y-59300000D03*
%TO.N,Net-(Q2-G)*%
X55500000Y-69900000D03*
X102100000Y-69900000D03*
%TO.N,/TXB6D*%
X134560000Y-74700000D03*
X134600000Y-51900000D03*
%TO.N,/1OUT*%
X45411000Y-71650000D03*
%TO.N,/ESP_IO0*%
X71115470Y-26684530D03*
X50362588Y-27262588D03*
%TO.N,/RXA4D*%
X79200000Y-51600000D03*
X78900000Y-73900000D03*
%TO.N,/TXA4D*%
X78100000Y-72800000D03*
X78100000Y-49000000D03*
%TO.N,/RXB6D*%
X136600000Y-68300000D03*
X136600000Y-51200000D03*
%TO.N,/RXA5D*%
X97900000Y-51600000D03*
X98000000Y-71900000D03*
%TO.N,/TXB1D*%
X41500000Y-23310000D03*
X97400000Y-23700000D03*
%TO.N,/ESP_SCLKT*%
X67000000Y-56500000D03*
X53700000Y-44500000D03*
X53600000Y-56500000D03*
%TO.N,/RTS*%
X52660000Y-27590000D03*
X64455175Y-27600000D03*
%TO.N,/ESP_MOSI*%
X134800000Y-42800000D03*
X75600000Y-51000000D03*
X134800000Y-51000000D03*
%TO.N,/ESP_A0*%
X117400000Y-59100000D03*
X117400000Y-67600000D03*
X49200088Y-59480088D03*
%TO.N,/SCLK*%
X142400000Y-55690000D03*
X142400000Y-48000000D03*
X142400000Y-33200000D03*
X104910000Y-55375000D03*
X86330000Y-55440000D03*
X105300000Y-33200000D03*
X157530000Y-55690000D03*
X124700000Y-33200000D03*
X86600000Y-33200000D03*
X124340000Y-55375000D03*
%TO.N,/D1*%
X111300000Y-61400000D03*
X111300000Y-36500000D03*
%TO.N,/ESP_SCLK*%
X168440000Y-53550000D03*
X168420000Y-78170000D03*
X137700000Y-46600000D03*
X77400000Y-54000000D03*
X137700000Y-54000000D03*
%TO.N,/ESP_USRST*%
X67600000Y-66200000D03*
X105300000Y-27800000D03*
X124500000Y-49950000D03*
X161200000Y-50000000D03*
X124600000Y-27800000D03*
X161200000Y-57900000D03*
X67350000Y-50195002D03*
X139500000Y-49950000D03*
X86500000Y-49950000D03*
X86400000Y-27800000D03*
X105200000Y-49950000D03*
X139400000Y-27800000D03*
%TO.N,/1IN+*%
X50100000Y-75800000D03*
X65650000Y-72525000D03*
X50100000Y-72100000D03*
%TO.N,/TXA5D*%
X97100000Y-47800000D03*
X97000000Y-69300000D03*
%TO.N,/RXA6D*%
X117500000Y-49300000D03*
X126600000Y-49300000D03*
X126600000Y-59300000D03*
%TO.N,/TXA6D*%
X164100000Y-65325002D03*
X166000000Y-61320002D03*
X113000000Y-47900000D03*
X113000000Y-64880000D03*
%TO.N,/RXA1D*%
X177500000Y-28200000D03*
X166000000Y-28200000D03*
X79700000Y-26300000D03*
X177500000Y-58562002D03*
X164100000Y-26300000D03*
%TO.N,/TXA1D*%
X82800000Y-23100000D03*
X169100000Y-55700000D03*
X169100000Y-23200000D03*
%TO.N,/RXA2D*%
X98700000Y-26900000D03*
X98700000Y-52555000D03*
%TO.N,/TXA2D*%
X98300000Y-25700000D03*
X97900000Y-48700000D03*
%TO.N,/TXA3D*%
X118025002Y-27200000D03*
X118000000Y-44800000D03*
%TO.N,/ESP_A2*%
X118300000Y-57200000D03*
X118275175Y-70075002D03*
X48255175Y-56425002D03*
%TO.N,/USB_VBUS*%
X75505175Y-33425002D03*
X65005175Y-36675002D03*
X62005175Y-33875002D03*
%TO.N,/ESP_IRQ*%
X92100000Y-34934998D03*
X130900000Y-58200000D03*
X160900000Y-81100000D03*
X70000000Y-60600000D03*
X130965002Y-34934998D03*
X160780000Y-58720000D03*
X111000000Y-34934998D03*
X70000000Y-34925002D03*
%TO.N,/2IN+*%
X154200000Y-66000000D03*
X54400000Y-77105000D03*
X154100000Y-76000000D03*
%TO.N,/TXB5D*%
X116000000Y-67200000D03*
X115900000Y-51700000D03*
%TO.N,/ESP_E3*%
X122085175Y-70075002D03*
X49275988Y-58384936D03*
X122085175Y-58385175D03*
%TO.N,/ESP_A1*%
X109795782Y-62431568D03*
X49440000Y-62425002D03*
%TO.N,/D5*%
X127700000Y-62900000D03*
X127700000Y-56100000D03*
%TO.N,/SI*%
X86800000Y-31500000D03*
X105900000Y-31500000D03*
X145400000Y-53200000D03*
X106700000Y-53200000D03*
X55130000Y-31850000D03*
X158560000Y-56680000D03*
X145400000Y-31600000D03*
X145400000Y-44000000D03*
X158560000Y-43950000D03*
X125000000Y-31500000D03*
X126000000Y-53200000D03*
X87900000Y-53200000D03*
%TO.N,/CD_DP*%
X65600000Y-29900000D03*
X65005175Y-35725002D03*
X60200000Y-30400000D03*
%TO.N,/CD_DN*%
X59500000Y-38400000D03*
X59490000Y-30790000D03*
%TO.N,/ESP_EN*%
X47605175Y-49405175D03*
X47700000Y-28200000D03*
%TO.N,/LINKLED*%
X152100000Y-58800000D03*
X152100000Y-36600000D03*
%TO.N,/ACTLED*%
X155300000Y-57400000D03*
%TO.N,/ESP_SCSN*%
X74550000Y-60250000D03*
X157750000Y-60250000D03*
%TO.N,/ESP_RX0*%
X64410000Y-28600002D03*
X64400000Y-52100000D03*
%TO.N,/ESP_TX0*%
X62700000Y-50700000D03*
X62660000Y-28600002D03*
%TO.N,/TXB4D*%
X96200000Y-61200000D03*
X96200000Y-51800000D03*
%TO.N,/TXB3D*%
X42500000Y-39175000D03*
X133900000Y-38700000D03*
X134600000Y-29200000D03*
%TO.N,/D0*%
X81660000Y-63420000D03*
X112000000Y-63400000D03*
X81750000Y-31110000D03*
%TO.N,/RXB1D*%
X96600000Y-25700000D03*
X40700000Y-25700000D03*
%TO.N,/RXB2D*%
X114200000Y-25400000D03*
X114200000Y-47200000D03*
%TO.N,/TXB2D*%
X41000000Y-46537502D03*
X115200000Y-46500000D03*
X115300000Y-29200000D03*
%TO.N,/RXB3D*%
X133200000Y-25500000D03*
X133100000Y-43350000D03*
%TO.N,/RXB4D*%
X94400000Y-65500000D03*
X94400000Y-47973002D03*
X36445000Y-65355000D03*
%TO.N,/RXB5D*%
X115100000Y-67700000D03*
X115200000Y-49300000D03*
X38680000Y-67700000D03*
%TO.N,/D3*%
X80500000Y-54900000D03*
X113720000Y-64280000D03*
X80500000Y-64300000D03*
%TO.N,/D2*%
X119510000Y-59310000D03*
X119700000Y-33900000D03*
%TO.N,/ESP_MISO*%
X65800000Y-55600000D03*
X65800000Y-39500000D03*
X144700000Y-39500000D03*
%TO.N,/1OUT*%
X49005000Y-71895000D03*
%TD*%
%TO.N,Net-(Q2-G)*%
D23*
X102100000Y-69900000D02*
X55500000Y-69900000D01*
%TO.N,/ESP_SCSN*%
X74700000Y-60400000D02*
X74550000Y-60250000D01*
X157600000Y-60400000D02*
X74700000Y-60400000D01*
X157750000Y-60250000D02*
X157600000Y-60400000D01*
%TO.N,/ESP_SCLK*%
X137750000Y-53950000D02*
X137700000Y-54000000D01*
X154448529Y-53950000D02*
X137750000Y-53950000D01*
X168440000Y-53550000D02*
X154848529Y-53550000D01*
X154848529Y-53550000D02*
X154448529Y-53950000D01*
%TO.N,/RXA6D*%
X171170000Y-59360000D02*
X171130000Y-59400000D01*
X171130000Y-59400000D02*
X126700000Y-59400000D01*
X126700000Y-59400000D02*
X126600000Y-59300000D01*
%TO.N,/TXA5D*%
X97000000Y-69300000D02*
X151048529Y-69300000D01*
%TO.N,/TXB6D*%
X39900173Y-74700000D02*
X37395175Y-72195002D01*
X134560000Y-74700000D02*
X39900173Y-74700000D01*
%TO.N,/2IN+*%
X102635000Y-77105000D02*
X54400000Y-77105000D01*
X106500000Y-75900000D02*
X103840000Y-75900000D01*
X107705000Y-77105000D02*
X106500000Y-75900000D01*
X154100000Y-76010000D02*
X153005000Y-77105000D01*
X154100000Y-76000000D02*
X154100000Y-76010000D01*
X153005000Y-77105000D02*
X107705000Y-77105000D01*
X103840000Y-75900000D02*
X102635000Y-77105000D01*
%TO.N,/RXB4D*%
X94270000Y-65370000D02*
X94400000Y-65500000D01*
X36460000Y-65370000D02*
X94270000Y-65370000D01*
X36445000Y-65355000D02*
X36460000Y-65370000D01*
%TO.N,/RXB5D*%
X38680000Y-67700000D02*
X115100000Y-67700000D01*
%TO.N,/SI*%
X158560000Y-43950000D02*
X145450000Y-43950000D01*
X145450000Y-43950000D02*
X145400000Y-44000000D01*
%TO.N,/RXB3D*%
X133100000Y-43350000D02*
X39530000Y-43350000D01*
X39530000Y-43350000D02*
X39519353Y-43339353D01*
%TO.N,/1OUT*%
X48760000Y-71650000D02*
X45411000Y-71650000D01*
X49005000Y-71895000D02*
X48760000Y-71650000D01*
%TO.N,/TXA1D*%
X82800000Y-23100000D02*
X169000000Y-23100000D01*
X169000000Y-23100000D02*
X169100000Y-23200000D01*
%TO.N,/TXB1D*%
X82551471Y-23700000D02*
X97400000Y-23700000D01*
X82126473Y-23275002D02*
X82551471Y-23700000D01*
X41534998Y-23275002D02*
X82126473Y-23275002D01*
X41500000Y-23310000D02*
X41534998Y-23275002D01*
%TO.N,/RTS*%
X54420173Y-27590000D02*
X54430173Y-27600000D01*
X52660000Y-27590000D02*
X54420173Y-27590000D01*
X54430173Y-27600000D02*
X64455175Y-27600000D01*
%TO.N,/ESP_A0*%
X117359912Y-59140088D02*
X117400000Y-59100000D01*
X49200088Y-59480088D02*
X49540088Y-59140088D01*
X49540088Y-59140088D02*
X117359912Y-59140088D01*
%TO.N,/ESP_A1*%
X109789216Y-62425002D02*
X109795782Y-62431568D01*
X49440000Y-62425002D02*
X109789216Y-62425002D01*
%TO.N,/ESP_E3*%
X121914825Y-58385175D02*
X122085175Y-58385175D01*
X121874998Y-58425002D02*
X121914825Y-58385175D01*
X49275988Y-58384936D02*
X49316054Y-58425002D01*
X49316054Y-58425002D02*
X121874998Y-58425002D01*
%TO.N,/D0*%
X81680000Y-63400000D02*
X81660000Y-63420000D01*
X112000000Y-63400000D02*
X81680000Y-63400000D01*
%TO.N,/ESP_A2*%
X49020000Y-57200000D02*
X118300000Y-57200000D01*
X48255175Y-56435175D02*
X49020000Y-57200000D01*
X48255175Y-56425002D02*
X48255175Y-56435175D01*
%TO.N,/SI*%
X86450000Y-31850000D02*
X86800000Y-31500000D01*
X55130000Y-31850000D02*
X86450000Y-31850000D01*
%TO.N,/SO*%
X136200000Y-32400000D02*
X124500000Y-32400000D01*
X164330000Y-38160000D02*
X164265002Y-38224998D01*
X87100000Y-54775000D02*
X105700000Y-54775000D01*
X135475000Y-54775000D02*
X135600000Y-54900000D01*
X124500000Y-32400000D02*
X105300000Y-32400000D01*
X164265002Y-38224998D02*
X136224825Y-38224998D01*
X105700000Y-54775000D02*
X125300000Y-54775000D01*
X125300000Y-54775000D02*
X135475000Y-54775000D01*
X105300000Y-32400000D02*
X87100000Y-32400000D01*
%TO.N,/USB_DP*%
X70882410Y-27300000D02*
X71755000Y-28172590D01*
X66500000Y-28100000D02*
X67300000Y-27300000D01*
X67300000Y-27300000D02*
X70882410Y-27300000D01*
%TO.N,/USB_DN*%
X72255000Y-30387410D02*
X67512590Y-30387410D01*
%TO.N,/RXA3D*%
X116900000Y-47400000D02*
X172505173Y-47400000D01*
%TO.N,/D4*%
X121200000Y-56300000D02*
X102200000Y-56300000D01*
%TO.N,/ESP_IO0*%
X51025176Y-26600000D02*
X50362588Y-27262588D01*
X71030940Y-26600000D02*
X51025176Y-26600000D01*
X71115470Y-26684530D02*
X71030940Y-26600000D01*
%TO.N,/RXA4D*%
X172635175Y-75110002D02*
X171425173Y-73900000D01*
X171425173Y-73900000D02*
X78900000Y-73900000D01*
%TO.N,/TXA4D*%
X78100000Y-72800000D02*
X172187177Y-72800000D01*
%TO.N,/RXB6D*%
X136600000Y-68300000D02*
X38532177Y-68300000D01*
X38532177Y-68300000D02*
X37395175Y-69437002D01*
%TO.N,/RXA5D*%
X98000000Y-71900000D02*
X170329177Y-71900000D01*
X170329177Y-71900000D02*
X172635175Y-69594002D01*
%TO.N,/ESP_SCLKT*%
X67000000Y-56500000D02*
X53600000Y-56500000D01*
%TO.N,/ESP_MOSI*%
X75600000Y-51000000D02*
X134800000Y-51000000D01*
%TO.N,/SCLK*%
X142400000Y-33200000D02*
X124700000Y-33200000D01*
X124700000Y-33200000D02*
X105300000Y-33200000D01*
X157530000Y-55690000D02*
X142400000Y-55690000D01*
X142400000Y-55690000D02*
X142210000Y-55500000D01*
X104910000Y-55375000D02*
X86395000Y-55375000D01*
X124430000Y-55500000D02*
X124340000Y-55410000D01*
X105300000Y-33200000D02*
X86600000Y-33200000D01*
X142210000Y-55500000D02*
X124430000Y-55500000D01*
X124340000Y-55375000D02*
X104910000Y-55375000D01*
X124340000Y-55410000D02*
X124340000Y-55375000D01*
X86395000Y-55375000D02*
X86330000Y-55440000D01*
%TO.N,/ESP_SCLK*%
X77400000Y-54000000D02*
X137700000Y-54000000D01*
%TO.N,/ESP_USRST*%
X105300000Y-27800000D02*
X86400000Y-27800000D01*
X86500000Y-49950000D02*
X105200000Y-49950000D01*
X124600000Y-27800000D02*
X105300000Y-27800000D01*
X124500000Y-49950000D02*
X139500000Y-49950000D01*
X105200000Y-49950000D02*
X124500000Y-49950000D01*
X67545002Y-50000000D02*
X86450000Y-50000000D01*
X139500000Y-49950000D02*
X161150000Y-49950000D01*
X86450000Y-50000000D02*
X86500000Y-49950000D01*
X161150000Y-49950000D02*
X161200000Y-50000000D01*
X139400000Y-27800000D02*
X124600000Y-27800000D01*
X67350000Y-50195002D02*
X67545002Y-50000000D01*
X86450000Y-49950000D02*
X86500000Y-49950000D01*
%TO.N,/1IN+*%
X64987502Y-71862502D02*
X65650000Y-72525000D01*
X50100000Y-72100000D02*
X50337498Y-71862502D01*
X50337498Y-71862502D02*
X64987502Y-71862502D01*
%TO.N,/TXA5D*%
X170146177Y-69325000D02*
X172635175Y-66836002D01*
X151048529Y-69300000D02*
X151073529Y-69325000D01*
X151073529Y-69325000D02*
X170146177Y-69325000D01*
%TO.N,/RXA6D*%
X126600000Y-49300000D02*
X117500000Y-49300000D01*
%TO.N,/TXA6D*%
X166000000Y-61320002D02*
X172635175Y-61320002D01*
X113000000Y-64880000D02*
X113445002Y-65325002D01*
X113445002Y-65325002D02*
X164100000Y-65325002D01*
%TO.N,/RXA1D*%
X164100000Y-26300000D02*
X79700000Y-26300000D01*
X172635175Y-58562002D02*
X177500000Y-58562002D01*
X177500000Y-28200000D02*
X166000000Y-28200000D01*
%TO.N,/TXA1D*%
X169204002Y-55804002D02*
X172635175Y-55804002D01*
X169100000Y-55700000D02*
X169204002Y-55804002D01*
%TO.N,/RXA2D*%
X98700000Y-52555000D02*
X98745000Y-52600000D01*
X98745000Y-52600000D02*
X172189173Y-52600000D01*
%TO.N,/TXA2D*%
X171047173Y-48700000D02*
X172635175Y-50288002D01*
X97900000Y-48700000D02*
X171047173Y-48700000D01*
%TO.N,/TXA3D*%
X118027998Y-44772002D02*
X118000000Y-44800000D01*
X172635175Y-44772002D02*
X118027998Y-44772002D01*
%TO.N,/ESP_IRQ*%
X70000000Y-34925002D02*
X70009996Y-34934998D01*
X111000000Y-34934998D02*
X92100000Y-34934998D01*
X130965002Y-34934998D02*
X111000000Y-34934998D01*
X160260000Y-58200000D02*
X130900000Y-58200000D01*
X160780000Y-58720000D02*
X160260000Y-58200000D01*
X70009996Y-34934998D02*
X92100000Y-34934998D01*
%TO.N,/TXB5D*%
X48453704Y-66925002D02*
X48578706Y-66800000D01*
X47831644Y-66800000D02*
X47956646Y-66925002D01*
X115600000Y-66800000D02*
X116000000Y-67200000D01*
X47956646Y-66925002D02*
X48453704Y-66925002D01*
X48578706Y-66800000D02*
X115600000Y-66800000D01*
X37516173Y-66800000D02*
X47831644Y-66800000D01*
%TO.N,/SI*%
X106700000Y-53200000D02*
X126000000Y-53200000D01*
X87900000Y-53200000D02*
X106700000Y-53200000D01*
X105900000Y-31500000D02*
X125000000Y-31500000D01*
X126000000Y-53200000D02*
X145400000Y-53200000D01*
X145300000Y-31500000D02*
X145400000Y-31600000D01*
X86800000Y-31500000D02*
X105900000Y-31500000D01*
X125000000Y-31500000D02*
X145300000Y-31500000D01*
%TO.N,/CD_DP*%
X60200000Y-30400000D02*
X65100000Y-30400000D01*
X65100000Y-30400000D02*
X65600000Y-29900000D01*
%TO.N,/TXB4D*%
X69425467Y-61200000D02*
X96200000Y-61200000D01*
X37395175Y-61163002D02*
X69388469Y-61163002D01*
X69388469Y-61163002D02*
X69425467Y-61200000D01*
%TO.N,/TXB3D*%
X42500000Y-39175000D02*
X42576471Y-39251471D01*
X65200000Y-39251471D02*
X65708971Y-38742500D01*
X65708971Y-38742500D02*
X133857500Y-38742500D01*
X42576471Y-39251471D02*
X65200000Y-39251471D01*
X133857500Y-38742500D02*
X133900000Y-38700000D01*
%TO.N,/RXB1D*%
X68016371Y-25725000D02*
X67353629Y-25725000D01*
X68041371Y-25700000D02*
X68016371Y-25725000D01*
X96600000Y-25700000D02*
X76681371Y-25700000D01*
X67328629Y-25700000D02*
X40700000Y-25700000D01*
X76656371Y-25725000D02*
X75993629Y-25725000D01*
X76681371Y-25700000D02*
X76656371Y-25725000D01*
X67353629Y-25725000D02*
X67328629Y-25700000D01*
X75993629Y-25725000D02*
X75968629Y-25700000D01*
X75968629Y-25700000D02*
X68041371Y-25700000D01*
%TO.N,/RXB2D*%
X96678469Y-47373002D02*
X96851471Y-47200000D01*
X96851471Y-47200000D02*
X114200000Y-47200000D01*
X37395175Y-47373002D02*
X96678469Y-47373002D01*
%TO.N,/TXB2D*%
X113900000Y-46500000D02*
X115200000Y-46500000D01*
X113862498Y-46537502D02*
X113900000Y-46500000D01*
X41000000Y-46537502D02*
X113862498Y-46537502D01*
%TO.N,/D3*%
X113720000Y-64280000D02*
X80520000Y-64280000D01*
X80520000Y-64280000D02*
X80500000Y-64300000D01*
%TO.N,/ESP_MISO*%
X144700000Y-39500000D02*
X65800000Y-39500000D01*
%TD*%
M02*
