%TF.GenerationSoftware,KiCad,Pcbnew,10.0.1*%
%TF.CreationDate,2026-06-30T19:37:10-07:00*%
%TF.ProjectId,DarkMagic,4461726b-4d61-4676-9963-2e6b69636164,rev?*%
%TF.SameCoordinates,Original*%
%TF.FileFunction,Paste,Bot*%
%TF.FilePolarity,Positive*%
%FSLAX46Y46*%
G04 Gerber Fmt 4.6, Leading zero omitted, Abs format (unit mm)*
G04 Created by KiCad (PCBNEW 10.0.1) date 2026-06-30 19:37:10*
%MOMM*%
%LPD*%
G01*
G04 APERTURE LIST*
G04 Aperture macros list*
%AMRoundRect*
0 Rectangle with rounded corners*
0 $1 Rounding radius*
0 $2 $3 $4 $5 $6 $7 $8 $9 X,Y pos of 4 corners*
0 Add a 4 corners polygon primitive as box body*
4,1,4,$2,$3,$4,$5,$6,$7,$8,$9,$2,$3,0*
0 Add four circle primitives for the rounded corners*
1,1,$1+$1,$2,$3*
1,1,$1+$1,$4,$5*
1,1,$1+$1,$6,$7*
1,1,$1+$1,$8,$9*
0 Add four rect primitives between the rounded corners*
20,1,$1+$1,$2,$3,$4,$5,0*
20,1,$1+$1,$4,$5,$6,$7,0*
20,1,$1+$1,$6,$7,$8,$9,0*
20,1,$1+$1,$8,$9,$2,$3,0*%
G04 Aperture macros list end*
%ADD10RoundRect,0.250000X0.337500X0.475000X-0.337500X0.475000X-0.337500X-0.475000X0.337500X-0.475000X0*%
%ADD11RoundRect,0.250000X-0.337500X-0.475000X0.337500X-0.475000X0.337500X0.475000X-0.337500X0.475000X0*%
%ADD12RoundRect,0.250000X0.450000X-0.350000X0.450000X0.350000X-0.450000X0.350000X-0.450000X-0.350000X0*%
%ADD13RoundRect,0.250000X-0.350000X-0.450000X0.350000X-0.450000X0.350000X0.450000X-0.350000X0.450000X0*%
%ADD14RoundRect,0.250000X-0.475000X0.337500X-0.475000X-0.337500X0.475000X-0.337500X0.475000X0.337500X0*%
%ADD15RoundRect,0.250000X0.475000X-0.337500X0.475000X0.337500X-0.475000X0.337500X-0.475000X-0.337500X0*%
%ADD16RoundRect,0.250000X0.350000X0.450000X-0.350000X0.450000X-0.350000X-0.450000X0.350000X-0.450000X0*%
%ADD17R,5.400000X2.900000*%
%ADD18RoundRect,0.250000X-0.450000X0.350000X-0.450000X-0.350000X0.450000X-0.350000X0.450000X0.350000X0*%
G04 APERTURE END LIST*
D10*
%TO.C,C50*%
X150750000Y-37840000D03*
X148675000Y-37840000D03*
%TD*%
D11*
%TO.C,C51*%
X108512500Y-75870000D03*
X110587500Y-75870000D03*
%TD*%
D12*
%TO.C,R15*%
X122610000Y-26720000D03*
X122610000Y-24720000D03*
%TD*%
%TO.C,R16*%
X120560000Y-26720000D03*
X120560000Y-24720000D03*
%TD*%
D13*
%TO.C,R90*%
X198660000Y-41660000D03*
X200660000Y-41660000D03*
%TD*%
D14*
%TO.C,C19*%
X209130000Y-34992500D03*
X209130000Y-37067500D03*
%TD*%
D15*
%TO.C,C53*%
X109510000Y-79877500D03*
X109510000Y-77802500D03*
%TD*%
%TO.C,C48*%
X120350000Y-79607500D03*
X120350000Y-77532500D03*
%TD*%
D16*
%TO.C,R89*%
X214430000Y-41690000D03*
X212430000Y-41690000D03*
%TD*%
D11*
%TO.C,C47*%
X142575000Y-40260000D03*
X144650000Y-40260000D03*
%TD*%
D12*
%TO.C,R86*%
X116860000Y-77500000D03*
X116860000Y-75500000D03*
%TD*%
D11*
%TO.C,C44*%
X205269882Y-43693232D03*
X207344882Y-43693232D03*
%TD*%
%TO.C,C46*%
X143320000Y-37840000D03*
X145395000Y-37840000D03*
%TD*%
D17*
%TO.C,L1*%
X117610000Y-72680000D03*
X117610000Y-62780000D03*
%TD*%
D15*
%TO.C,C49*%
X111700000Y-79857500D03*
X111700000Y-77782500D03*
%TD*%
D16*
%TO.C,R87*%
X117250000Y-80030000D03*
X115250000Y-80030000D03*
%TD*%
%TO.C,R92*%
X215560000Y-39280000D03*
X213560000Y-39280000D03*
%TD*%
D18*
%TO.C,R91*%
X204070000Y-34970000D03*
X204070000Y-36970000D03*
%TD*%
D15*
%TO.C,C30*%
X152670000Y-40030000D03*
X152670000Y-37955000D03*
%TD*%
D11*
%TO.C,C1*%
X146750000Y-40270000D03*
X148825000Y-40270000D03*
%TD*%
D14*
%TO.C,C7*%
X106720000Y-34522500D03*
X106720000Y-36597500D03*
%TD*%
D15*
%TO.C,C54*%
X124710000Y-79607500D03*
X124710000Y-77532500D03*
%TD*%
%TO.C,C52*%
X107370000Y-79867500D03*
X107370000Y-77792500D03*
%TD*%
D12*
%TO.C,R85*%
X122520000Y-79570000D03*
X122520000Y-77570000D03*
%TD*%
D13*
%TO.C,R88*%
X119150000Y-81510000D03*
X121150000Y-81510000D03*
%TD*%
D14*
%TO.C,C10*%
X108820000Y-34522500D03*
X108820000Y-36597500D03*
%TD*%
M02*
