M48
; DRILL file KiCad 10.0.1 date 2026-05-16T10:44:46
; FORMAT={-:-/ absolute / inch / decimal}
; #@! TF.CreationDate,2026-05-16T10:44:46-07:00
; #@! TF.GenerationSoftware,Kicad,Pcbnew,10.0.1
; #@! TF.FileFunction,Plated,1,6,PTH
FMAT,2
INCH
; #@! TA.AperFunction,Plated,PTH,ViaDrill
T1C0.0118
; #@! TA.AperFunction,Plated,PTH,ComponentDrill
T2C0.0236
; #@! TA.AperFunction,Plated,PTH,ComponentDrill
T3C0.0350
; #@! TA.AperFunction,Plated,PTH,ComponentDrill
T4C0.0402
; #@! TA.AperFunction,Plated,PTH,ComponentDrill
T5C0.0409
; #@! TA.AperFunction,Plated,PTH,ComponentDrill
T6C0.0472
; #@! TA.AperFunction,Plated,PTH,ComponentDrill
T7C0.0642
; #@! TA.AperFunction,Plated,PTH,ComponentDrill
T8C0.0866
; #@! TA.AperFunction,Plated,PTH,ComponentDrill
T9C0.1283
%
G90
G05
T1
X1.4348Y-2.573
X1.5228Y-2.6654
X1.553Y-2.0015
X1.5559Y-1.7063
X1.6024Y-1.0118
X1.6024Y-1.5157
X1.6142Y-1.8322
X1.6339Y-0.9177
X1.6378Y-1.5906
X1.6732Y-1.5423
X1.7508Y-2.7295
X1.7567Y-2.2205
X1.7598Y-2.302
X1.7626Y-2.3795
X1.7626Y-2.4583
X1.7795Y-0.94
X1.7878Y-2.8209
X1.7949Y-2.7567
X1.8093Y-1.8086
X1.8093Y-1.8903
X1.8137Y-1.9734
X1.8319Y-2.1382
X1.8386Y-1.3244
X1.8394Y-1.2609
X1.8677Y-3.461
X1.8742Y-1.9451
X1.878Y-1.1102
X1.8978Y-1.8086
X1.8978Y-1.8903
X1.8998Y-2.2215
X1.9283Y-3.0356
X1.9293Y-2.8305
X1.937Y-2.3417
X1.94Y-2.2986
X1.9465Y-2.4577
X1.9724Y-2.8386
X1.9724Y-2.9843
X1.9823Y-0.94
X1.9828Y-1.0733
X2.0118Y-1.8071
X2.0732Y-1.0862
X2.1102Y-2.2244
X2.1142Y-1.752
X2.126Y-3.4006
X2.1315Y-2.549
X2.1417Y-3.0356
X2.1705Y-1.2539
X2.185Y-2.752
X2.2008Y-3.3327
X2.2283Y-2.8844
X2.2283Y-2.966
X2.2366Y-1.1815
X2.2423Y-2.0837
X2.2423Y-2.1388
X2.2423Y-2.1939
X2.2756Y-1.4134
X2.2974Y-2.0837
X2.2974Y-2.1388
X2.2974Y-2.1939
X2.3421Y-1.2122
X2.3425Y-1.5118
X2.3526Y-2.0837
X2.3526Y-2.1388
X2.3526Y-2.1939
X2.3624Y-3.4006
X2.3701Y-1.1969
X2.4136Y-2.9695
X2.4136Y-3.0069
X2.4215Y-2.7167
X2.4215Y-2.8529
X2.4215Y-3.1058
X2.4215Y-3.1875
X2.4411Y-1.3337
X2.4669Y-1.126
X2.4685Y-1.9961
X2.4904Y-1.2205
X2.5Y-2.7165
X2.5001Y-3.0069
X2.5002Y-2.8529
X2.5002Y-3.1058
X2.5002Y-3.1875
X2.5354Y-2.0512
X2.5358Y-1.126
X2.5376Y-1.0866
X2.5593Y-1.4065
X2.5593Y-1.4439
X2.5827Y-1.1772
X2.5827Y-2.7913
X2.5846Y-2.8553
X2.5906Y-1.5551
X2.5906Y-2.189
X2.6008Y-3.4006
X2.6181Y-1.1063
X2.6378Y-2.2244
X2.6516Y-1.9762
X2.6577Y-1.4813
X2.658Y-1.1964
X2.6614Y-2.6063
X2.7008Y-1.4449
X2.701Y-1.8031
X2.748Y-2.8012
X2.7559Y-1.375
X2.7559Y-2.3858
X2.7795Y-3.1024
X2.7992Y-2.4988
X2.7998Y-1.0506
X2.825Y-1.1092
X2.8447Y-1.1964
X2.8661Y-3.6024
X2.8701Y-3.4567
X2.9055Y-3.3425
X2.935Y-2.372
X2.9441Y-2.548
X2.9726Y-1.3159
X2.9726Y-1.4852
X2.9764Y-2.0079
X3.003Y-2.2264
X3.0364Y-3.1378
X3.0472Y-2.126
X3.0748Y-1.9291
X3.0748Y-2.8661
X3.1063Y-2.9094
X3.1102Y-1.6378
X3.1181Y-2.0315
X3.1378Y-1.0354
X3.1693Y-2.1614
X3.1693Y-2.5315
X3.1857Y-2.0915
X3.1956Y-1.1703
X3.215Y-2.4969
X3.2185Y-1.2248
X3.2598Y-0.9094
X3.2674Y-2.0915
X3.2773Y-1.1703
X3.2835Y-1.7717
X3.3917Y-2.035
X3.3988Y-2.1827
X3.4016Y-1.0945
X3.402Y-1.1488
X3.4055Y-1.9665
X3.4094Y-1.3071
X3.4173Y-1.2402
X3.4291Y-1.2756
X3.4291Y-1.6378
X3.4291Y-2.1565
X3.4606Y-2.0945
X3.5354Y-2.035
X3.5457Y-1.1488
X3.6024Y-1.7717
X3.626Y-1.3754
X3.6693Y-2.2165
X3.6787Y-1.5017
X3.6787Y-1.5838
X3.7165Y-1.8887
X3.7165Y-2.5787
X3.7874Y-2.0394
X3.7874Y-2.4094
X3.8031Y-1.0118
X3.8043Y-1.6165
X3.8189Y-2.7283
X3.8228Y-1.8819
X3.8307Y-1.4709
X3.8346Y-0.9331
X3.8543Y-1.9173
X3.8543Y-2.0315
X3.8583Y-2.8307
X3.8701Y-1.0118
X3.8858Y-1.0591
X3.8858Y-2.0691
X3.9297Y-2.0472
X3.9338Y-1.1703
X3.9567Y-2.2165
X3.9646Y-1.3504
X3.9646Y-1.6142
X3.9748Y-0.9524
X3.9748Y-1.2126
X3.9969Y-1.6831
X4.0114Y-2.0472
X4.0155Y-1.1703
X4.0197Y-2.752
X4.0236Y-2.2165
X4.0701Y-1.4945
X4.0786Y-1.6831
X4.1206Y-2.8071
X4.1299Y-2.0343
X4.1303Y-2.1801
X4.1394Y-1.148
X4.1417Y-1.9665
X4.1457Y-1.0945
X4.1457Y-1.2756
X4.1457Y-1.3071
X4.1614Y-2.1565
X4.1693Y-1.2402
X4.1944Y-2.7697
X4.2008Y-2.0945
X4.2736Y-2.0343
X4.2831Y-1.148
X4.3227Y-2.4579
X4.3701Y-1.3754
X4.3819Y-1.437
X4.3819Y-2.4173
X4.4052Y-2.5955
X4.4094Y-2.4961
X4.4488Y-1.8858
X4.4488Y-2.5543
X4.4772Y-2.5307
X4.4869Y-2.5955
X4.4961Y-1.0
X4.4961Y-1.8583
X4.5315Y-2.6654
X4.5354Y-1.8307
X4.5354Y-1.9409
X4.5394Y-1.1496
X4.563Y-2.0354
X4.5669Y-2.6457
X4.6024Y-1.8661
X4.6066Y-2.0315
X4.6102Y-1.1181
X4.622Y-2.3268
X4.622Y-2.6614
X4.626Y-1.9409
X4.6339Y-2.0472
X4.6457Y-1.7638
X4.6467Y-1.0709
X4.6565Y-2.7589
X4.6575Y-2.252
X4.6916Y-1.19
X4.7051Y-2.335
X4.7065Y-2.7589
X4.7126Y-1.3346
X4.7565Y-2.7589
X4.7717Y-2.2165
X4.7717Y-2.3346
X4.7733Y-1.19
X4.8065Y-2.2986
X4.8065Y-2.7589
X4.8831Y-2.3092
X4.8878Y-2.0346
X4.8953Y-2.1801
X4.8972Y-1.1476
X4.9016Y-1.2756
X4.9016Y-1.9665
X4.9055Y-1.0945
X4.9065Y-2.7589
X4.9094Y-1.3071
X4.9213Y-1.2402
X4.9331Y-2.1565
X4.9606Y-2.0945
X4.9724Y-2.4291
X4.9843Y-1.9409
X4.9843Y-2.3346
X5.0276Y-2.2087
X5.0276Y-2.4764
X5.0409Y-1.1476
X5.1535Y-2.2913
X5.1561Y-1.3754
X5.1815Y-2.4043
X5.1831Y-2.2591
X5.2283Y-2.4449
X5.2402Y-1.7067
X5.2441Y-1.0039
X5.2717Y-1.5236
X5.2732Y-2.4043
X5.2744Y-2.2602
X5.2976Y-2.9409
X5.2992Y-1.1496
X5.2992Y-2.0433
X5.3071Y-1.5039
X5.3071Y-1.685
X5.3071Y-2.0079
X5.3386Y-2.1614
X5.3622Y-1.2756
X5.3632Y-1.5049
X5.3634Y-1.6476
X5.3634Y-1.7224
X5.3673Y-1.815
X5.3673Y-1.8898
X5.378Y-2.0157
X5.378Y-2.689
X5.4213Y-1.8346
X5.4213Y-2.126
X5.4882Y-1.0945
X5.4921Y-1.9665
X5.5487Y-1.4656
X5.5489Y-1.6457
X5.5529Y-1.813
X5.5711Y-2.5443
X5.5711Y-2.626
X5.5763Y-2.7047
X5.6063Y-1.3071
X5.6063Y-1.8898
X5.6063Y-2.1925
X5.6304Y-1.4656
X5.6306Y-1.6457
X5.6345Y-1.813
X5.6571Y-0.989
X5.6636Y-2.5443
X5.6636Y-2.6348
X5.6791Y-2.7835
X5.6969Y-1.5551
X5.7244Y-1.2441
X5.7244Y-1.7323
X5.7244Y-2.0945
X5.739Y-2.9858
X5.748Y-1.9429
X5.7713Y-2.1547
X5.785Y-1.9956
X5.8268Y-1.9429
X5.8593Y-1.9902
X5.8642Y-1.8347
X5.876Y-2.635
X5.9116Y-2.6348
X5.9126Y-2.7047
X5.9423Y-1.9915
X5.9492Y-2.6354
X5.9567Y-1.6929
X5.9608Y-2.0433
X5.9882Y-1.4409
X5.9882Y-2.315
X6.061Y-2.1594
X6.0669Y-2.9921
X6.0709Y-2.1004
X6.0709Y-2.5984
X6.0843Y-1.6283
X6.0906Y-2.4173
X6.0906Y-2.4823
X6.0906Y-3.2421
X6.1142Y-2.2598
X6.122Y-1.326
X6.122Y-1.4228
X6.1295Y-2.9646
X6.1339Y-2.0335
X6.1437Y-1.7913
X6.1437Y-1.8898
X6.1516Y-2.2677
X6.1713Y-3.3898
X6.1732Y-2.4823
X6.202Y-2.1925
X6.2106Y-2.372
X6.2425Y-1.7303
X6.2425Y-2.2315
X6.2854Y-1.7913
X6.2854Y-1.8898
X6.2992Y-2.0413
X6.2992Y-2.1988
X6.2992Y-2.2382
X6.3299Y-2.3118
X6.3346Y-3.1929
X6.3465Y-1.9685
X6.3465Y-2.2795
X6.378Y-3.2421
X6.4004Y-2.9331
X6.4291Y-1.9715
X6.4291Y-2.0236
X6.4291Y-2.2087
X6.4291Y-2.2904
X6.4386Y-2.9331
X6.4606Y-1.0354
X6.4606Y-2.5719
X6.4626Y-3.3898
X6.4697Y-1.5024
X6.4697Y-2.4228
X6.4803Y-2.9331
X6.5079Y-1.9715
X6.5079Y-2.0236
X6.5079Y-2.2087
X6.5079Y-2.2904
X6.5133Y-2.1319
X6.524Y-2.9331
X6.5315Y-2.5472
X6.5315Y-2.7598
X6.5354Y-1.1102
X6.5354Y-2.4142
X6.5583Y-2.9331
X6.6307Y-3.0776
X6.6315Y-2.1083
X6.6575Y-0.9134
X6.6575Y-2.1929
X6.739Y-2.337
X6.9882Y-1.1102
X6.9882Y-2.3056
T3
X6.0374Y-1.6663
X6.087Y-1.5663
X6.1374Y-1.6663
X6.187Y-1.5663
X6.2374Y-1.6663
X6.287Y-1.5663
X6.3374Y-1.6663
X6.387Y-1.5663
T4
X5.9514Y-1.123
X6.0514Y-1.123
X6.373Y-1.123
X6.473Y-1.123
T5
X1.3604Y-1.7022
X1.3604Y-1.8108
X1.3604Y-1.9194
X1.3604Y-2.028
X1.3604Y-2.1365
X1.3604Y-2.2451
X1.3604Y-2.3537
X1.3604Y-2.4623
X1.3604Y-2.5709
X1.3604Y-2.6794
X1.3604Y-2.788
X1.3604Y-2.8966
X1.4723Y-1.6479
X1.4723Y-1.7565
X1.4723Y-1.8651
X1.4723Y-1.9737
X1.4723Y-2.0822
X1.4723Y-2.1908
X1.4723Y-2.2994
X1.4723Y-2.408
X1.4723Y-2.5166
X1.4723Y-2.6252
X1.4723Y-2.7337
X1.4723Y-2.8423
X1.4723Y-2.9509
X6.7967Y-1.6541
X6.7967Y-1.7627
X6.7967Y-1.8713
X6.7967Y-1.9798
X6.7967Y-2.0884
X6.7967Y-2.197
X6.7967Y-2.3056
X6.7967Y-2.4142
X6.7967Y-2.5228
X6.7967Y-2.6313
X6.7967Y-2.7399
X6.7967Y-2.8485
X6.7967Y-2.9571
X6.9085Y-1.7084
X6.9085Y-1.817
X6.9085Y-1.9256
X6.9085Y-2.0341
X6.9085Y-2.1427
X6.9085Y-2.2513
X6.9085Y-2.3599
X6.9085Y-2.4685
X6.9085Y-2.577
X6.9085Y-2.6856
X6.9085Y-2.7942
X6.9085Y-2.9028
T6
X4.0965Y-3.3996
X4.1949Y-3.3996
T7
X5.9073Y-1.436
X6.5171Y-1.436
T8
X1.4953Y-1.0039
X1.4957Y-3.5961
X3.3258Y-3.2057
X3.7195Y-3.2057
X4.1417Y-3.0827
X4.5463Y-3.2057
X4.94Y-3.2057
X6.7752Y-3.5984
X6.7756Y-1.0079
T9
X1.4163Y-1.3734
X1.4163Y-3.2254
X6.8526Y-1.3796
X6.8526Y-3.2316
T2
G00X2.6648Y-0.9813
M15
G01X2.6648Y-0.9498
M16
G05
G00X2.6648Y-1.1518
M15
G01X2.6648Y-1.1085
M16
G05
G00X3.0049Y-0.9813
M15
G01X3.0049Y-0.9498
M16
G05
G00X3.0049Y-1.1518
M15
G01X3.0049Y-1.1085
M16
G05
M30
