%TF.GenerationSoftware,KiCad,Pcbnew,10.0.1*%
%TF.CreationDate,2026-05-16T10:44:45-07:00*%
%TF.ProjectId,DarkMagic,4461726b-4d61-4676-9963-2e6b69636164,rev?*%
%TF.SameCoordinates,Original*%
%TF.FileFunction,Copper,L3,Inr*%
%TF.FilePolarity,Positive*%
%FSLAX46Y46*%
G04 Gerber Fmt 4.6, Leading zero omitted, Abs format (unit mm)*
G04 Created by KiCad (PCBNEW 10.0.1) date 2026-05-16 10:44:45*
%MOMM*%
%LPD*%
G01*
G04 APERTURE LIST*
%TA.AperFunction,ComponentPad*%
%ADD10C,3.800000*%
%TD*%
%TA.AperFunction,ComponentPad*%
%ADD11C,1.560000*%
%TD*%
%TA.AperFunction,ViaPad*%
%ADD12C,0.600000*%
%TD*%
%TA.AperFunction,Conductor*%
%ADD13C,0.200000*%
%TD*%
G04 APERTURE END LIST*
D10*
%TO.N,GND*%
%TO.C,H1*%
X172090000Y-91400000D03*
%TD*%
%TO.N,GND*%
%TO.C,H4*%
X105200000Y-78300000D03*
%TD*%
%TO.N,GND*%
%TO.C,H5*%
X37980000Y-25500000D03*
%TD*%
%TO.N,GND*%
%TO.C,H3*%
X172100000Y-25600000D03*
%TD*%
%TO.N,GND*%
%TO.C,H6*%
X37990000Y-91340000D03*
%TD*%
D11*
%TO.N,/RXB5D*%
%TO.C,J3*%
X37395175Y-63921002D03*
%TD*%
D12*
%TO.N,/RXA6D*%
X171170000Y-59360000D03*
%TO.N,GND*%
X166580000Y-74500000D03*
X165710000Y-74500000D03*
X162570000Y-74500000D03*
X163540000Y-74500000D03*
X133940000Y-61070000D03*
X131610000Y-61070000D03*
X131650000Y-57380000D03*
X133970000Y-57410000D03*
X150180000Y-68700000D03*
X149250000Y-66930000D03*
X151110000Y-66940000D03*
%TO.N,/ACTLED*%
X155500000Y-33680000D03*
X155500000Y-36140000D03*
X154540000Y-41360000D03*
%TO.N,/RXB3D*%
X39447088Y-50837088D03*
X39519353Y-43339353D03*
%TO.N,/12VIN*%
X45590000Y-70020000D03*
%TO.N,/RXB1D*%
X40700000Y-38500000D03*
%TO.N,/TXB1D*%
X41600000Y-40400000D03*
%TO.N,+3V3*%
X46700000Y-33640000D03*
%TO.N,GND*%
X143117500Y-46050000D03*
%TO.N,+3V3*%
X74780000Y-64720000D03*
%TO.N,/ESP_IO0*%
X71100000Y-63470000D03*
%TO.N,+3V3*%
X143690000Y-25120000D03*
%TO.N,GND*%
X44770000Y-62440000D03*
X44770000Y-60440000D03*
X44700000Y-58470000D03*
X44620000Y-56400000D03*
X63255175Y-31000000D03*
X136230000Y-41850000D03*
X56955175Y-55725002D03*
X63503175Y-76375002D03*
X58355175Y-55725002D03*
X160000000Y-51850000D03*
X146940000Y-50687500D03*
X148825000Y-50550000D03*
X124625175Y-70075002D03*
X58355175Y-54325002D03*
X163300000Y-58175000D03*
X132800000Y-62100000D03*
X44470000Y-69330000D03*
X96630000Y-41060000D03*
X45955175Y-45937500D03*
X160000000Y-56850000D03*
X146590000Y-54730000D03*
X150155175Y-66925002D03*
X50350175Y-23875002D03*
X56600000Y-75337500D03*
X108790000Y-29160000D03*
X68605175Y-45800000D03*
X136330000Y-46100000D03*
X165437500Y-54150000D03*
X61505175Y-80962502D03*
X154200000Y-53350000D03*
X163300000Y-50075000D03*
X103380000Y-37960000D03*
X63505175Y-80962502D03*
X143012325Y-37224998D03*
X143855175Y-66925002D03*
X156050000Y-48000000D03*
X165300000Y-50075000D03*
X59755175Y-54325002D03*
X156750000Y-86100000D03*
X72800000Y-91500000D03*
X164600000Y-74500000D03*
X86410000Y-29180000D03*
X111892675Y-65925002D03*
X56810000Y-30010000D03*
X159650000Y-48000000D03*
X61505175Y-69005175D03*
X99815000Y-52000000D03*
X54140175Y-64745002D03*
X81167675Y-29725002D03*
X76275000Y-56550000D03*
X101522500Y-42750000D03*
X47440000Y-87910000D03*
X143017500Y-41800000D03*
X57800000Y-35900000D03*
X155800000Y-51650000D03*
X124390000Y-29150000D03*
X120815175Y-70075002D03*
X46720000Y-32027500D03*
X56955175Y-52925002D03*
X119167675Y-30225002D03*
X86150000Y-51690000D03*
X55900000Y-84650000D03*
X59755175Y-52925002D03*
X80917675Y-53125002D03*
X165300000Y-58175000D03*
X90060000Y-29180000D03*
X124030000Y-58652500D03*
X63500000Y-69000000D03*
X89800000Y-51690000D03*
X153950000Y-54850000D03*
X105140000Y-29160000D03*
X117007178Y-51600000D03*
X164150000Y-86100000D03*
X128040000Y-29150000D03*
X51100000Y-45900000D03*
X48978000Y-77105000D03*
X70600000Y-78800000D03*
X119545175Y-70075002D03*
X156250000Y-57600000D03*
X99917675Y-29725002D03*
X134800000Y-38200000D03*
X148950000Y-46602500D03*
X93440000Y-38142500D03*
X46067675Y-50125002D03*
X97300000Y-37360000D03*
X56955175Y-54325002D03*
X104900000Y-51670000D03*
X141505175Y-66700002D03*
X106537500Y-70350000D03*
X136330000Y-48000000D03*
X68600000Y-36700000D03*
X45200175Y-23875002D03*
X48205175Y-45937502D03*
X59755175Y-55725002D03*
X160000000Y-55850000D03*
X58355175Y-52925002D03*
X108550000Y-51670000D03*
X151404732Y-51899236D03*
X156800000Y-63050000D03*
X124150000Y-51680000D03*
X136230000Y-43750000D03*
%TO.N,+3V3*%
X150935000Y-50585000D03*
X93200000Y-56300000D03*
X151300000Y-43000000D03*
X91500000Y-45000000D03*
X156050000Y-45500000D03*
X154700000Y-61400000D03*
X113967675Y-65925002D03*
X126300000Y-61700000D03*
X140942500Y-41800000D03*
X165300000Y-56100000D03*
X155690000Y-75300000D03*
X83400000Y-45000000D03*
X140937325Y-37224998D03*
X165900000Y-70100000D03*
X54000000Y-86375002D03*
X159650000Y-45500000D03*
X154700000Y-82350000D03*
X148000000Y-49350000D03*
X141637500Y-68700000D03*
X101992675Y-29725002D03*
X100500000Y-56300000D03*
X154700000Y-63050000D03*
X45955175Y-48012500D03*
X48205175Y-48012502D03*
X165900000Y-64700000D03*
X121242675Y-30225002D03*
X146000000Y-49350000D03*
X79000000Y-41600000D03*
X46530000Y-54310000D03*
X87100000Y-41600000D03*
X82992675Y-53125002D03*
X144250000Y-70700000D03*
X93440000Y-40228000D03*
X163300000Y-51400000D03*
X103597500Y-42750000D03*
X141042500Y-46050000D03*
X101890000Y-52000000D03*
X117700000Y-52000000D03*
X163300000Y-56100000D03*
X83242675Y-29725002D03*
X165300000Y-51400000D03*
X162000000Y-82350000D03*
%TO.N,/SO*%
X125300000Y-54775000D03*
X87100000Y-54775000D03*
X136224825Y-38224998D03*
X164330000Y-38160000D03*
X136200000Y-32400000D03*
X105700000Y-54775000D03*
X124500000Y-32400000D03*
X135600000Y-54900000D03*
X105300000Y-32400000D03*
X87100000Y-32400000D03*
X164330000Y-61540000D03*
%TO.N,/XS3T*%
X100700000Y-41000000D03*
X100700000Y-34300000D03*
%TO.N,/XS3*%
X100960000Y-24190000D03*
X100960000Y-30800000D03*
%TO.N,/12VIN*%
X63505175Y-78887502D03*
X56600000Y-73262500D03*
X66060000Y-86375002D03*
X145770000Y-75840000D03*
X61505175Y-78887502D03*
X61305175Y-76375002D03*
X65600000Y-70900000D03*
X61305175Y-75425002D03*
X73800000Y-84900000D03*
X72900000Y-87800000D03*
%TO.N,+5V*%
X69800000Y-71150000D03*
X75505175Y-37725002D03*
X143855175Y-64625002D03*
X141505175Y-64625002D03*
X61505175Y-72462502D03*
X63505175Y-72462502D03*
X60005175Y-86375002D03*
%TO.N,/USB_DP*%
X71755000Y-28172590D03*
X66500000Y-28100000D03*
%TO.N,/USB_DN*%
X72255000Y-30387410D03*
X67512590Y-30387410D03*
X67505175Y-37625002D03*
%TO.N,Net-(J4-Pin_1)*%
X77125000Y-79700000D03*
%TO.N,/FAN_VOUT*%
X104662500Y-71300000D03*
%TO.N,/RXA3D*%
X116900000Y-47400000D03*
X117100000Y-28400000D03*
%TO.N,/D4*%
X121200000Y-56300000D03*
X102200000Y-56300000D03*
X121200000Y-59300000D03*
%TO.N,Net-(Q2-G)*%
X55500000Y-69900000D03*
X102100000Y-69900000D03*
%TO.N,/TXB6D*%
X134560000Y-74700000D03*
X134600000Y-51900000D03*
%TO.N,/1OUT*%
X45411000Y-71650000D03*
%TO.N,/ESP_IO0*%
X71115470Y-26684530D03*
X50362588Y-27262588D03*
%TO.N,/RXA4D*%
X79200000Y-51600000D03*
X78900000Y-73900000D03*
%TO.N,/TXA4D*%
X78100000Y-72800000D03*
X78100000Y-49000000D03*
%TO.N,/RXB6D*%
X136600000Y-68300000D03*
X136600000Y-51200000D03*
%TO.N,/RXA5D*%
X97900000Y-51600000D03*
X98000000Y-71900000D03*
%TO.N,/TXB1D*%
X41500000Y-23310000D03*
X97400000Y-23700000D03*
%TO.N,/ESP_SCLKT*%
X67000000Y-56500000D03*
X53700000Y-44500000D03*
X53600000Y-56500000D03*
%TO.N,/RTS*%
X52660000Y-27590000D03*
X64455175Y-27600000D03*
%TO.N,/ESP_MOSI*%
X134800000Y-42800000D03*
X75600000Y-51000000D03*
X134800000Y-51000000D03*
%TO.N,/ESP_A0*%
X117400000Y-59100000D03*
X117400000Y-67600000D03*
X49200088Y-59480088D03*
%TO.N,/SCLK*%
X142400000Y-55690000D03*
X142400000Y-48000000D03*
X142400000Y-33200000D03*
X104910000Y-55375000D03*
X86330000Y-55440000D03*
X105300000Y-33200000D03*
X157530000Y-55690000D03*
X124700000Y-33200000D03*
X86600000Y-33200000D03*
X124340000Y-55375000D03*
%TO.N,/D1*%
X111300000Y-61400000D03*
X111300000Y-36500000D03*
%TO.N,/ESP_SCLK*%
X168440000Y-53550000D03*
X168420000Y-78170000D03*
X137700000Y-46600000D03*
X77400000Y-54000000D03*
X137700000Y-54000000D03*
%TO.N,/ESP_USRST*%
X67600000Y-66200000D03*
X105300000Y-27800000D03*
X124500000Y-49950000D03*
X161200000Y-50000000D03*
X124600000Y-27800000D03*
X161200000Y-57900000D03*
X67350000Y-50195002D03*
X139500000Y-49950000D03*
X86500000Y-49950000D03*
X86400000Y-27800000D03*
X105200000Y-49950000D03*
X139400000Y-27800000D03*
%TO.N,/1IN+*%
X50100000Y-75800000D03*
X65650000Y-72525000D03*
X50100000Y-72100000D03*
%TO.N,/TXA5D*%
X97100000Y-47800000D03*
X97000000Y-69300000D03*
%TO.N,/RXA6D*%
X117500000Y-49300000D03*
X126600000Y-49300000D03*
X126600000Y-59300000D03*
%TO.N,/TXA6D*%
X164100000Y-65325002D03*
X166000000Y-61320002D03*
X113000000Y-47900000D03*
X113000000Y-64880000D03*
%TO.N,/RXA1D*%
X177500000Y-28200000D03*
X166000000Y-28200000D03*
X79700000Y-26300000D03*
X177500000Y-58562002D03*
X164100000Y-26300000D03*
%TO.N,/TXA1D*%
X82800000Y-23100000D03*
X169100000Y-55700000D03*
X169100000Y-23200000D03*
%TO.N,/RXA2D*%
X98700000Y-26900000D03*
X98700000Y-52555000D03*
%TO.N,/TXA2D*%
X98300000Y-25700000D03*
X97900000Y-48700000D03*
%TO.N,/TXA3D*%
X118025002Y-27200000D03*
X118000000Y-44800000D03*
%TO.N,/ESP_A2*%
X118300000Y-57200000D03*
X118275175Y-70075002D03*
X48255175Y-56425002D03*
%TO.N,/USB_VBUS*%
X75505175Y-33425002D03*
X65005175Y-36675002D03*
X62005175Y-33875002D03*
%TO.N,/ESP_IRQ*%
X92100000Y-34934998D03*
X130900000Y-58200000D03*
X160900000Y-81100000D03*
X70000000Y-60600000D03*
X130965002Y-34934998D03*
X160780000Y-58720000D03*
X111000000Y-34934998D03*
X70000000Y-34925002D03*
%TO.N,/2IN+*%
X154200000Y-66000000D03*
X54400000Y-77105000D03*
X154100000Y-76000000D03*
%TO.N,/TXB5D*%
X116000000Y-67200000D03*
X115900000Y-51700000D03*
%TO.N,/ESP_E3*%
X122085175Y-70075002D03*
X49275988Y-58384936D03*
X122085175Y-58385175D03*
%TO.N,/ESP_A1*%
X109795782Y-62431568D03*
X49440000Y-62425002D03*
%TO.N,/D5*%
X127700000Y-62900000D03*
X127700000Y-56100000D03*
%TO.N,/SI*%
X86800000Y-31500000D03*
X105900000Y-31500000D03*
X145400000Y-53200000D03*
X106700000Y-53200000D03*
X55130000Y-31850000D03*
X158560000Y-56680000D03*
X145400000Y-31600000D03*
X145400000Y-44000000D03*
X158560000Y-43950000D03*
X125000000Y-31500000D03*
X126000000Y-53200000D03*
X87900000Y-53200000D03*
%TO.N,/CD_DP*%
X65600000Y-29900000D03*
X65005175Y-35725002D03*
X60200000Y-30400000D03*
%TO.N,/CD_DN*%
X59500000Y-38400000D03*
X59490000Y-30790000D03*
%TO.N,/ESP_EN*%
X47605175Y-49405175D03*
X47700000Y-28200000D03*
%TO.N,/LINKLED*%
X152100000Y-58800000D03*
X152100000Y-36600000D03*
%TO.N,/ACTLED*%
X155300000Y-57400000D03*
%TO.N,/ESP_SCSN*%
X74550000Y-60250000D03*
X157750000Y-60250000D03*
%TO.N,/ESP_RX0*%
X64410000Y-28600002D03*
X64400000Y-52100000D03*
%TO.N,/ESP_TX0*%
X62700000Y-50700000D03*
X62660000Y-28600002D03*
%TO.N,/TXB4D*%
X96200000Y-61200000D03*
X96200000Y-51800000D03*
%TO.N,/TXB3D*%
X42500000Y-39175000D03*
X133900000Y-38700000D03*
X134600000Y-29200000D03*
%TO.N,/D0*%
X81660000Y-63420000D03*
X112000000Y-63400000D03*
X81750000Y-31110000D03*
%TO.N,/RXB1D*%
X96600000Y-25700000D03*
X40700000Y-25700000D03*
%TO.N,/RXB2D*%
X114200000Y-25400000D03*
X114200000Y-47200000D03*
%TO.N,/TXB2D*%
X41000000Y-46537502D03*
X115200000Y-46500000D03*
X115300000Y-29200000D03*
%TO.N,/RXB3D*%
X133200000Y-25500000D03*
X133100000Y-43350000D03*
%TO.N,/RXB4D*%
X94400000Y-65500000D03*
X94400000Y-47973002D03*
X36445000Y-65355000D03*
%TO.N,/RXB5D*%
X115100000Y-67700000D03*
X115200000Y-49300000D03*
X38680000Y-67700000D03*
%TO.N,/D3*%
X80500000Y-54900000D03*
X113720000Y-64280000D03*
X80500000Y-64300000D03*
%TO.N,/D2*%
X119510000Y-59310000D03*
X119700000Y-33900000D03*
%TO.N,/ESP_MISO*%
X65800000Y-55600000D03*
X65800000Y-39500000D03*
X144700000Y-39500000D03*
%TO.N,/1OUT*%
X49005000Y-71895000D03*
%TD*%
%TO.N,/RXB4D*%
D13*
X94400000Y-65500000D02*
X94400000Y-47973002D01*
%TO.N,/ESP_SCLK*%
X168440000Y-55300000D02*
X168440000Y-53550000D01*
X168420000Y-55320000D02*
X168440000Y-55300000D01*
X168420000Y-78170000D02*
X168420000Y-55320000D01*
%TO.N,/TXB6D*%
X134560000Y-74640000D02*
X134600000Y-74600000D01*
X134600000Y-74600000D02*
X134600000Y-51900000D01*
X134560000Y-74700000D02*
X134560000Y-74640000D01*
%TO.N,/RXB5D*%
X38248998Y-63921002D02*
X37395175Y-63921002D01*
X38660000Y-64332004D02*
X38248998Y-63921002D01*
X38660000Y-67680000D02*
X38660000Y-64332004D01*
X38680000Y-67700000D02*
X38660000Y-67680000D01*
%TO.N,/ACTLED*%
X155290000Y-52010000D02*
X155290000Y-57390000D01*
X154540000Y-51260000D02*
X155290000Y-52010000D01*
X155290000Y-57390000D02*
X155300000Y-57400000D01*
X154540000Y-41360000D02*
X154540000Y-51260000D01*
X155500000Y-36140000D02*
X155500000Y-33680000D01*
%TO.N,/SI*%
X158560000Y-43950000D02*
X158560000Y-56680000D01*
%TO.N,/RXB3D*%
X39519353Y-50764823D02*
X39519353Y-43339353D01*
X39447088Y-50837088D02*
X39519353Y-50764823D01*
%TO.N,/TXB1D*%
X41600000Y-23410000D02*
X41600000Y-40400000D01*
X41500000Y-23310000D02*
X41600000Y-23410000D01*
%TO.N,/ESP_IO0*%
X71100000Y-63470000D02*
X71100000Y-26700000D01*
X71100000Y-26700000D02*
X71115470Y-26684530D01*
%TO.N,/D0*%
X81660000Y-31200000D02*
X81750000Y-31110000D01*
X81660000Y-63420000D02*
X81660000Y-31200000D01*
%TO.N,/CD_DN*%
X59500000Y-30800000D02*
X59500000Y-38400000D01*
X59490000Y-30790000D02*
X59500000Y-30800000D01*
%TO.N,/ESP_TX0*%
X62610000Y-50610000D02*
X62700000Y-50700000D01*
X62610000Y-28650002D02*
X62610000Y-50610000D01*
X62660000Y-28600002D02*
X62610000Y-28650002D01*
%TO.N,/ESP_IRQ*%
X70000000Y-34925002D02*
X70000000Y-60600000D01*
%TO.N,/SO*%
X134864825Y-34135612D02*
X138734825Y-34135612D01*
X135984825Y-32935612D02*
X134864825Y-32935612D01*
X138974825Y-36175612D02*
X138974825Y-36295612D01*
X134060000Y-40517534D02*
X137140000Y-40517534D01*
X136224825Y-38224998D02*
X135600000Y-38849823D01*
X135600000Y-38849823D02*
X135600000Y-39677534D01*
X134864825Y-35935612D02*
X138734825Y-35935612D01*
X134864825Y-34735612D02*
X138734825Y-34735612D01*
X134060000Y-41717534D02*
X135360000Y-41717534D01*
X136224825Y-37844477D02*
X136224825Y-38224998D01*
X136200000Y-32400000D02*
X136224825Y-32424825D01*
X134624825Y-34375612D02*
X134624825Y-34495612D01*
X138974825Y-33775612D02*
X138974825Y-33895612D01*
X138974825Y-34975612D02*
X138974825Y-35095612D01*
X134060000Y-41117534D02*
X137140000Y-41117534D01*
X134864825Y-33535612D02*
X138734825Y-33535612D01*
X135360000Y-39917534D02*
X134060000Y-39917534D01*
X134624825Y-36775612D02*
X134624825Y-36895612D01*
X134624825Y-33175612D02*
X134624825Y-33295612D01*
X136224825Y-32424825D02*
X136224825Y-32695612D01*
X134864825Y-35335612D02*
X138734825Y-35335612D01*
X137380000Y-40757534D02*
X137380000Y-40877534D01*
X134624825Y-35575612D02*
X134624825Y-35695612D01*
X164330000Y-61540000D02*
X164330000Y-38160000D01*
X135600000Y-41957534D02*
X135600000Y-54900000D01*
X134864825Y-36535612D02*
X138734825Y-36535612D01*
X133820000Y-41357534D02*
X133820000Y-41477534D01*
X134864825Y-37135612D02*
X135984825Y-37135612D01*
X136224825Y-37375612D02*
X136224825Y-37844477D01*
X133820000Y-40157534D02*
X133820000Y-40277534D01*
X137380000Y-40877534D02*
G75*
G02*
X137140000Y-41117500I-240000J34D01*
G01*
X138974825Y-33895612D02*
G75*
G02*
X138734825Y-34135625I-240025J12D01*
G01*
X134624825Y-34495612D02*
G75*
G03*
X134864825Y-34735575I239975J12D01*
G01*
X135600000Y-39677534D02*
G75*
G02*
X135360000Y-39917500I-240000J34D01*
G01*
X135984825Y-37135612D02*
G75*
G02*
X136224788Y-37375612I-25J-239988D01*
G01*
X136224825Y-32695612D02*
G75*
G02*
X135984825Y-32935625I-240025J12D01*
G01*
X134864825Y-36535612D02*
G75*
G03*
X134624812Y-36775612I-25J-239988D01*
G01*
X133820000Y-40277534D02*
G75*
G03*
X134060000Y-40517500I240000J34D01*
G01*
X138974825Y-36295612D02*
G75*
G02*
X138734825Y-36535625I-240025J12D01*
G01*
X134864825Y-34135612D02*
G75*
G03*
X134624812Y-34375612I-25J-239988D01*
G01*
X138974825Y-35095612D02*
G75*
G02*
X138734825Y-35335625I-240025J12D01*
G01*
X134864825Y-32935612D02*
G75*
G03*
X134624812Y-33175612I-25J-239988D01*
G01*
X134624825Y-33295612D02*
G75*
G03*
X134864825Y-33535575I239975J12D01*
G01*
X134624825Y-36895612D02*
G75*
G03*
X134864825Y-37135575I239975J12D01*
G01*
X137140000Y-40517534D02*
G75*
G02*
X137379966Y-40757534I0J-239966D01*
G01*
X134060000Y-41117534D02*
G75*
G03*
X133820034Y-41357534I0J-239966D01*
G01*
X138734825Y-34735612D02*
G75*
G02*
X138974788Y-34975612I-25J-239988D01*
G01*
X138734825Y-33535612D02*
G75*
G02*
X138974788Y-33775612I-25J-239988D01*
G01*
X138734825Y-35935612D02*
G75*
G02*
X138974788Y-36175612I-25J-239988D01*
G01*
X135360000Y-41717534D02*
G75*
G02*
X135599966Y-41957534I0J-239966D01*
G01*
X134060000Y-39917534D02*
G75*
G03*
X133820034Y-40157534I0J-239966D01*
G01*
X134864825Y-35335612D02*
G75*
G03*
X134624812Y-35575612I-25J-239988D01*
G01*
X134624825Y-35695612D02*
G75*
G03*
X134864825Y-35935575I239975J12D01*
G01*
X133820000Y-41477534D02*
G75*
G03*
X134060000Y-41717500I240000J34D01*
G01*
%TO.N,/XS3T*%
X100700000Y-34300000D02*
X100700000Y-41000000D01*
%TO.N,/XS3*%
X100960000Y-30800000D02*
X100960000Y-24190000D01*
%TO.N,/USB_DN*%
X67512590Y-30387410D02*
X67505175Y-30394825D01*
X67505175Y-30394825D02*
X67505175Y-37625002D01*
%TO.N,/RXA3D*%
X116900000Y-47400000D02*
X116900000Y-28600000D01*
X116900000Y-28600000D02*
X117100000Y-28400000D01*
%TO.N,/D4*%
X121200000Y-59300000D02*
X121200000Y-56300000D01*
%TO.N,/RXA4D*%
X78900000Y-51900000D02*
X78900000Y-73900000D01*
X79200000Y-51600000D02*
X78900000Y-51900000D01*
%TO.N,/TXA4D*%
X78100000Y-72800000D02*
X78100000Y-49000000D01*
%TO.N,/RXB6D*%
X136600000Y-68300000D02*
X136600000Y-51200000D01*
%TO.N,/RXA5D*%
X98000000Y-71800000D02*
X97900000Y-71700000D01*
X98000000Y-71900000D02*
X98000000Y-71800000D01*
X97900000Y-71700000D02*
X97900000Y-51600000D01*
%TO.N,/ESP_SCLKT*%
X53600000Y-44600000D02*
X53700000Y-44500000D01*
X53600000Y-56500000D02*
X53600000Y-44600000D01*
%TO.N,/ESP_MOSI*%
X134800000Y-42800000D02*
X134800000Y-51000000D01*
%TO.N,/ESP_A0*%
X117400000Y-59100000D02*
X117400000Y-67600000D01*
%TO.N,/SCLK*%
X142400000Y-35834488D02*
X142400000Y-48000000D01*
X140260000Y-53977919D02*
X140260000Y-53897919D01*
X140420000Y-52937919D02*
X144380000Y-52937919D01*
X140420000Y-51737919D02*
X144380000Y-51737919D01*
X140280000Y-34394488D02*
X144520000Y-34394488D01*
X140420000Y-49737919D02*
X142240000Y-49737919D01*
X140260000Y-53177919D02*
X140260000Y-53097919D01*
X144540000Y-50377919D02*
X144540000Y-50297919D01*
X140420000Y-50537919D02*
X144380000Y-50537919D01*
X140420000Y-50137919D02*
X144380000Y-50137919D01*
X140420000Y-52137919D02*
X144380000Y-52137919D01*
X144540000Y-52777919D02*
X144540000Y-52697919D01*
X142240000Y-54937919D02*
X140420000Y-54937919D01*
X140260000Y-54777919D02*
X140260000Y-54697919D01*
X140420000Y-53337919D02*
X144380000Y-53337919D01*
X140420000Y-54537919D02*
X144380000Y-54537919D01*
X140260000Y-50777919D02*
X140260000Y-50697919D01*
X140280000Y-34994488D02*
X144520000Y-34994488D01*
X140260000Y-52377919D02*
X140260000Y-52297919D01*
X140040000Y-35234488D02*
X140040000Y-35354488D01*
X140420000Y-53737919D02*
X144380000Y-53737919D01*
X140040000Y-34034488D02*
X140040000Y-34154488D01*
X142400000Y-49577919D02*
X142400000Y-48000000D01*
X144540000Y-51977919D02*
X144540000Y-51897919D01*
X140420000Y-50937919D02*
X144380000Y-50937919D01*
X142160000Y-33794488D02*
X140280000Y-33794488D01*
X140420000Y-52537919D02*
X144380000Y-52537919D01*
X140420000Y-54137919D02*
X144380000Y-54137919D01*
X142400000Y-33200000D02*
X142400000Y-33554488D01*
X140420000Y-51337919D02*
X144380000Y-51337919D01*
X144540000Y-54377919D02*
X144540000Y-54297919D01*
X140260000Y-51577919D02*
X140260000Y-51497919D01*
X144540000Y-51177919D02*
X144540000Y-51097919D01*
X140260000Y-49977919D02*
X140260000Y-49897919D01*
X142400000Y-55690000D02*
X142400000Y-55097919D01*
X144760000Y-34634488D02*
X144760000Y-34754488D01*
X144540000Y-53577919D02*
X144540000Y-53497919D01*
X140280000Y-35594488D02*
X142160000Y-35594488D01*
X140040000Y-35354488D02*
G75*
G03*
X140280000Y-35594500I240000J-12D01*
G01*
X144380000Y-52137919D02*
G75*
G03*
X144540019Y-51977919I0J160019D01*
G01*
X142400000Y-33554488D02*
G75*
G02*
X142160000Y-33794500I-240000J-12D01*
G01*
X140260000Y-52297919D02*
G75*
G02*
X140420000Y-52137900I160000J19D01*
G01*
X144540000Y-53497919D02*
G75*
G03*
X144380000Y-53337900I-160000J19D01*
G01*
X140260000Y-50697919D02*
G75*
G02*
X140420000Y-50537900I160000J19D01*
G01*
X144380000Y-54537919D02*
G75*
G03*
X144540019Y-54377919I0J160019D01*
G01*
X140040000Y-34154488D02*
G75*
G03*
X140280000Y-34394500I240000J-12D01*
G01*
X140280000Y-33794488D02*
G75*
G03*
X140039988Y-34034488I0J-240012D01*
G01*
X144540000Y-50297919D02*
G75*
G03*
X144380000Y-50137900I-160000J19D01*
G01*
X140420000Y-54937919D02*
G75*
G02*
X140259981Y-54777919I0J160019D01*
G01*
X144380000Y-53737919D02*
G75*
G03*
X144540019Y-53577919I0J160019D01*
G01*
X140420000Y-53337919D02*
G75*
G02*
X140259981Y-53177919I0J160019D01*
G01*
X140260000Y-51497919D02*
G75*
G02*
X140420000Y-51337900I160000J19D01*
G01*
X144540000Y-52697919D02*
G75*
G03*
X144380000Y-52537900I-160000J19D01*
G01*
X142160000Y-35594488D02*
G75*
G02*
X142400012Y-35834488I0J-240012D01*
G01*
X140420000Y-51737919D02*
G75*
G02*
X140259981Y-51577919I0J160019D01*
G01*
X144540000Y-51097919D02*
G75*
G03*
X144380000Y-50937900I-160000J19D01*
G01*
X140260000Y-53897919D02*
G75*
G02*
X140420000Y-53737900I160000J19D01*
G01*
X144540000Y-54297919D02*
G75*
G03*
X144380000Y-54137900I-160000J19D01*
G01*
X142240000Y-49737919D02*
G75*
G03*
X142400019Y-49577919I0J160019D01*
G01*
X140260000Y-53097919D02*
G75*
G02*
X140420000Y-52937900I160000J19D01*
G01*
X140420000Y-52537919D02*
G75*
G02*
X140259981Y-52377919I0J160019D01*
G01*
X144760000Y-34754488D02*
G75*
G02*
X144520000Y-34994500I-240000J-12D01*
G01*
X140420000Y-50937919D02*
G75*
G02*
X140259981Y-50777919I0J160019D01*
G01*
X140420000Y-50137919D02*
G75*
G02*
X140259981Y-49977919I0J160019D01*
G01*
X140280000Y-34994488D02*
G75*
G03*
X140039988Y-35234488I0J-240012D01*
G01*
X144380000Y-52937919D02*
G75*
G03*
X144540019Y-52777919I0J160019D01*
G01*
X144380000Y-51337919D02*
G75*
G03*
X144540019Y-51177919I0J160019D01*
G01*
X142400000Y-55097919D02*
G75*
G03*
X142240000Y-54937900I-160000J19D01*
G01*
X144380000Y-50537919D02*
G75*
G03*
X144540019Y-50377919I0J160019D01*
G01*
X140260000Y-54697919D02*
G75*
G02*
X140420000Y-54537900I160000J19D01*
G01*
X144520000Y-34394488D02*
G75*
G02*
X144760012Y-34634488I0J-240012D01*
G01*
X140260000Y-49897919D02*
G75*
G02*
X140420000Y-49737900I160000J19D01*
G01*
X140420000Y-54137919D02*
G75*
G02*
X140259981Y-53977919I0J160019D01*
G01*
X144540000Y-51897919D02*
G75*
G03*
X144380000Y-51737900I-160000J19D01*
G01*
%TO.N,/D1*%
X111300000Y-61400000D02*
X111300000Y-36500000D01*
%TO.N,/ESP_SCLK*%
X137700000Y-46600000D02*
X137700000Y-54000000D01*
%TO.N,/ESP_USRST*%
X67350000Y-50195002D02*
X67350000Y-50250000D01*
X67600000Y-50500000D02*
X67600000Y-66200000D01*
X139400000Y-49850000D02*
X139500000Y-49950000D01*
X139400000Y-27800000D02*
X139400000Y-49850000D01*
X67350000Y-50250000D02*
X67600000Y-50500000D01*
X161200000Y-57900000D02*
X161200000Y-50000000D01*
%TO.N,/1IN+*%
X50100000Y-72100000D02*
X50100000Y-75800000D01*
%TO.N,/TXA5D*%
X97000000Y-69300000D02*
X97100000Y-69200000D01*
X97100000Y-69200000D02*
X97100000Y-47800000D01*
%TO.N,/RXA6D*%
X126600000Y-59300000D02*
X126600000Y-49300000D01*
%TO.N,/TXA6D*%
X113000000Y-64880000D02*
X113000000Y-47900000D01*
%TO.N,/RXA1D*%
X177500000Y-58562002D02*
X177500000Y-28200000D01*
%TO.N,/TXA1D*%
X169100000Y-55700000D02*
X169100000Y-23200000D01*
%TO.N,/RXA2D*%
X98700000Y-52555000D02*
X98700000Y-26900000D01*
%TO.N,/TXA2D*%
X97900000Y-26100000D02*
X98300000Y-25700000D01*
X97900000Y-48700000D02*
X97900000Y-26100000D01*
%TO.N,/TXA3D*%
X118025002Y-27200000D02*
X118025002Y-44774998D01*
X118025002Y-44774998D02*
X118000000Y-44800000D01*
%TO.N,/ESP_A2*%
X118300000Y-57200000D02*
X118275175Y-57224825D01*
X118275175Y-57224825D02*
X118275175Y-70075002D01*
%TO.N,/ESP_IRQ*%
X130965002Y-58134998D02*
X130965002Y-34934998D01*
X160890000Y-58830000D02*
X160890000Y-80110000D01*
X160890000Y-80110000D02*
X160900000Y-80120000D01*
X160780000Y-58720000D02*
X160890000Y-58830000D01*
X160900000Y-80120000D02*
X160900000Y-81100000D01*
X130900000Y-58200000D02*
X130965002Y-58134998D01*
%TO.N,/2IN+*%
X154100000Y-76000000D02*
X154200000Y-75900000D01*
X154200000Y-75900000D02*
X154200000Y-66000000D01*
%TO.N,/TXB5D*%
X116000000Y-52100000D02*
X116000000Y-67200000D01*
X115900000Y-51700000D02*
X115900000Y-52000000D01*
X115900000Y-52000000D02*
X116000000Y-52100000D01*
%TO.N,/ESP_E3*%
X122085175Y-58385175D02*
X122085175Y-70075002D01*
%TO.N,/D5*%
X127700000Y-62900000D02*
X127700000Y-56100000D01*
%TO.N,/SI*%
X145400000Y-31600000D02*
X145400000Y-44000000D01*
X145400000Y-53200000D02*
X145400000Y-44000000D01*
%TO.N,/CD_DP*%
X65600000Y-29900000D02*
X65600000Y-35130177D01*
X65600000Y-35130177D02*
X65005175Y-35725002D01*
%TO.N,/ESP_EN*%
X47605175Y-49405175D02*
X47605175Y-28294825D01*
X47605175Y-28294825D02*
X47700000Y-28200000D01*
%TO.N,/LINKLED*%
X152100000Y-58800000D02*
X152100000Y-36600000D01*
%TO.N,/TXB4D*%
X96200000Y-61200000D02*
X96200000Y-51800000D01*
%TO.N,/TXB3D*%
X134200000Y-38400000D02*
X133900000Y-38700000D01*
X134200000Y-29600000D02*
X134200000Y-38400000D01*
X134600000Y-29200000D02*
X134200000Y-29600000D01*
%TO.N,/RXB1D*%
X40700000Y-25700000D02*
X40700000Y-38500000D01*
%TO.N,/RXB2D*%
X114200000Y-47200000D02*
X114200000Y-25400000D01*
%TO.N,/TXB2D*%
X115200000Y-46500000D02*
X115200000Y-29300000D01*
X115200000Y-29300000D02*
X115300000Y-29200000D01*
%TO.N,/RXB3D*%
X133200000Y-43250000D02*
X133200000Y-25500000D01*
X133100000Y-43350000D02*
X133200000Y-43250000D01*
%TO.N,/RXB5D*%
X115100000Y-49450000D02*
X115100000Y-67700000D01*
X115200000Y-49350000D02*
X115100000Y-49450000D01*
X115200000Y-49300000D02*
X115200000Y-49350000D01*
%TO.N,/D3*%
X80500000Y-64300000D02*
X80500000Y-54900000D01*
%TO.N,/D2*%
X119510000Y-59310000D02*
X119700000Y-59120000D01*
X119700000Y-59120000D02*
X119700000Y-33900000D01*
%TO.N,/ESP_MISO*%
X65800000Y-39500000D02*
X65800000Y-55600000D01*
%TO.N,/ESP_RX0*%
X64400000Y-28610002D02*
X64400000Y-52100000D01*
X64410000Y-28600002D02*
X64400000Y-28610002D01*
%TD*%
M02*
