%TF.GenerationSoftware,KiCad,Pcbnew,10.0.1*%
%TF.CreationDate,2026-05-16T10:44:45-07:00*%
%TF.ProjectId,DarkMagic,4461726b-4d61-4676-9963-2e6b69636164,rev?*%
%TF.SameCoordinates,Original*%
%TF.FileFunction,Soldermask,Top*%
%TF.FilePolarity,Negative*%
%FSLAX46Y46*%
G04 Gerber Fmt 4.6, Leading zero omitted, Abs format (unit mm)*
G04 Created by KiCad (PCBNEW 10.0.1) date 2026-05-16 10:44:45*
%MOMM*%
%LPD*%
G01*
G04 APERTURE LIST*
G04 Aperture macros list*
%AMRoundRect*
0 Rectangle with rounded corners*
0 $1 Rounding radius*
0 $2 $3 $4 $5 $6 $7 $8 $9 X,Y pos of 4 corners*
0 Add a 4 corners polygon primitive as box body*
4,1,4,$2,$3,$4,$5,$6,$7,$8,$9,$2,$3,0*
0 Add four circle primitives for the rounded corners*
1,1,$1+$1,$2,$3*
1,1,$1+$1,$4,$5*
1,1,$1+$1,$6,$7*
1,1,$1+$1,$8,$9*
0 Add four rect primitives between the rounded corners*
20,1,$1+$1,$2,$3,$4,$5,0*
20,1,$1+$1,$4,$5,$6,$7,0*
20,1,$1+$1,$6,$7,$8,$9,0*
20,1,$1+$1,$8,$9,$2,$3,0*%
G04 Aperture macros list end*
%ADD10RoundRect,0.250000X0.350000X0.450000X-0.350000X0.450000X-0.350000X-0.450000X0.350000X-0.450000X0*%
%ADD11RoundRect,0.250000X-0.337500X-0.475000X0.337500X-0.475000X0.337500X0.475000X-0.337500X0.475000X0*%
%ADD12RoundRect,0.250000X-0.350000X-0.450000X0.350000X-0.450000X0.350000X0.450000X-0.350000X0.450000X0*%
%ADD13RoundRect,0.250000X0.450000X-0.350000X0.450000X0.350000X-0.450000X0.350000X-0.450000X-0.350000X0*%
%ADD14RoundRect,0.250000X-0.475000X0.337500X-0.475000X-0.337500X0.475000X-0.337500X0.475000X0.337500X0*%
%ADD15R,2.100000X2.150000*%
%ADD16C,3.800000*%
%ADD17RoundRect,0.150000X0.150000X0.425000X-0.150000X0.425000X-0.150000X-0.425000X0.150000X-0.425000X0*%
%ADD18RoundRect,0.075000X0.075000X0.500000X-0.075000X0.500000X-0.075000X-0.500000X0.075000X-0.500000X0*%
%ADD19O,1.000000X2.100000*%
%ADD20O,1.000000X1.800000*%
%ADD21R,1.400000X0.950000*%
%ADD22R,3.300000X6.600000*%
%ADD23O,3.300000X6.600000*%
%ADD24R,2.350000X1.550000*%
%ADD25RoundRect,0.250000X-0.450000X0.350000X-0.450000X-0.350000X0.450000X-0.350000X0.450000X0.350000X0*%
%ADD26C,3.000000*%
%ADD27R,1.100000X1.300000*%
%ADD28R,1.700000X0.800000*%
%ADD29RoundRect,0.250001X-2.049999X-0.799999X2.049999X-0.799999X2.049999X0.799999X-2.049999X0.799999X0*%
%ADD30RoundRect,0.250000X0.337500X0.475000X-0.337500X0.475000X-0.337500X-0.475000X0.337500X-0.475000X0*%
%ADD31R,1.800000X1.800000*%
%ADD32C,1.800000*%
%ADD33R,0.700000X1.000000*%
%ADD34R,1.200000X0.600000*%
%ADD35RoundRect,0.250000X-0.650000X1.000000X-0.650000X-1.000000X0.650000X-1.000000X0.650000X1.000000X0*%
%ADD36RoundRect,0.250000X0.475000X-0.337500X0.475000X0.337500X-0.475000X0.337500X-0.475000X-0.337500X0*%
%ADD37R,1.450000X1.150000*%
%ADD38C,1.560000*%
%ADD39C,4.890000*%
%ADD40R,1.550000X2.350000*%
%ADD41RoundRect,0.225000X-0.375000X0.225000X-0.375000X-0.225000X0.375000X-0.225000X0.375000X0.225000X0*%
%ADD42R,1.528000X0.650000*%
%ADD43R,0.600000X1.300000*%
%ADD44R,0.600000X1.200000*%
%ADD45R,1.160000X1.810000*%
%ADD46R,1.409700X0.355600*%
%ADD47RoundRect,0.250001X0.799999X-2.049999X0.799999X2.049999X-0.799999X2.049999X-0.799999X-2.049999X0*%
%ADD48R,0.300000X1.475000*%
%ADD49R,1.475000X0.300000*%
%ADD50R,0.850000X0.300000*%
%ADD51R,0.300000X0.850000*%
%ADD52R,2.550000X2.550000*%
%ADD53R,0.890000X3.430000*%
%ADD54R,0.558800X2.184400*%
%ADD55C,1.500000*%
%ADD56RoundRect,0.250500X0.499500X0.499500X-0.499500X0.499500X-0.499500X-0.499500X0.499500X-0.499500X0*%
%ADD57C,2.500000*%
%ADD58R,1.750000X0.950000*%
%ADD59R,1.750000X3.200000*%
%ADD60R,1.500000X0.900000*%
%ADD61R,0.900000X1.500000*%
%ADD62R,0.900000X0.900000*%
%ADD63RoundRect,0.150000X0.587500X0.150000X-0.587500X0.150000X-0.587500X-0.150000X0.587500X-0.150000X0*%
%ADD64R,0.450000X1.475000*%
%ADD65R,1.000000X0.700000*%
%ADD66R,1.300000X1.100000*%
G04 APERTURE END LIST*
D10*
%TO.C,R38*%
X141080000Y-48250000D03*
X143080000Y-48250000D03*
%TD*%
D11*
%TO.C,C28*%
X119052500Y-52230000D03*
X121127500Y-52230000D03*
%TD*%
D12*
%TO.C,R77*%
X159390000Y-61560000D03*
X161390000Y-61560000D03*
%TD*%
D13*
%TO.C,R10*%
X99204825Y-34334998D03*
X99204825Y-32334998D03*
%TD*%
D14*
%TO.C,C12*%
X165300000Y-56100000D03*
X165300000Y-58175000D03*
%TD*%
%TO.C,C36*%
X63505175Y-78887502D03*
X63505175Y-80962502D03*
%TD*%
D15*
%TO.C,L1*%
X69800000Y-75950000D03*
X69800000Y-71150000D03*
%TD*%
D11*
%TO.C,C22*%
X99917675Y-29725002D03*
X101992675Y-29725002D03*
%TD*%
D13*
%TO.C,R19*%
X60505175Y-27425002D03*
X60505175Y-25425002D03*
%TD*%
D16*
%TO.C,H1*%
X172090000Y-91400000D03*
%TD*%
D17*
%TO.C,J1*%
X75205000Y-29280000D03*
X74405000Y-29280000D03*
D18*
X73255000Y-29280000D03*
X72255000Y-29280000D03*
X71755000Y-29280000D03*
X70755000Y-29280000D03*
D17*
X69605000Y-29280000D03*
X68805000Y-29280000D03*
X68805000Y-29280000D03*
X69605000Y-29280000D03*
D18*
X70255000Y-29280000D03*
X71255000Y-29280000D03*
X72755000Y-29280000D03*
X73755000Y-29280000D03*
D17*
X74405000Y-29280000D03*
X75205000Y-29280000D03*
D19*
X76325000Y-28705000D03*
D20*
X76325000Y-24525000D03*
D19*
X67685000Y-28705000D03*
D20*
X67685000Y-24525000D03*
%TD*%
D21*
%TO.C,3V1*%
X54000000Y-86375002D03*
X54000000Y-84475002D03*
%TD*%
D22*
%TO.C,J4*%
X84475175Y-81425002D03*
D23*
X94475175Y-81425002D03*
%TD*%
D24*
%TO.C,D5*%
X103200000Y-91450000D03*
X107500000Y-91450000D03*
%TD*%
D12*
%TO.C,R58*%
X119205175Y-28150000D03*
X121205175Y-28150000D03*
%TD*%
D25*
%TO.C,R34*%
X121470000Y-60980000D03*
X121470000Y-62980000D03*
%TD*%
%TO.C,R71*%
X54000000Y-68900000D03*
X54000000Y-70900000D03*
%TD*%
D11*
%TO.C,C35*%
X139562500Y-68700000D03*
X141637500Y-68700000D03*
%TD*%
D10*
%TO.C,R49*%
X132955175Y-51475002D03*
X130955175Y-51475002D03*
%TD*%
D11*
%TO.C,C21*%
X111892675Y-65925002D03*
X113967675Y-65925002D03*
%TD*%
D26*
%TO.C,TP3*%
X66000000Y-91405002D03*
%TD*%
D27*
%TO.C,Y2*%
X103380000Y-40060000D03*
X103380000Y-37960000D03*
X101730000Y-37960000D03*
X101730000Y-40060000D03*
%TD*%
D25*
%TO.C,R73*%
X50000000Y-68900000D03*
X50000000Y-70900000D03*
%TD*%
D28*
%TO.C,S2*%
X50350175Y-27275002D03*
X50350175Y-23875002D03*
%TD*%
D12*
%TO.C,R64*%
X80955175Y-50975002D03*
X82955175Y-50975002D03*
%TD*%
%TO.C,R63*%
X80955175Y-48975002D03*
X82955175Y-48975002D03*
%TD*%
D11*
%TO.C,C29*%
X140937325Y-37224998D03*
X143012325Y-37224998D03*
%TD*%
D10*
%TO.C,R50*%
X132955175Y-49475002D03*
X130955175Y-49475002D03*
%TD*%
D29*
%TO.C,C33*%
X155690000Y-73200000D03*
X164490000Y-73200000D03*
%TD*%
D12*
%TO.C,R60*%
X99830000Y-50140000D03*
X101830000Y-50140000D03*
%TD*%
D16*
%TO.C,H4*%
X105200000Y-78300000D03*
%TD*%
D13*
%TO.C,R5*%
X48205175Y-66325002D03*
X48205175Y-64325002D03*
%TD*%
D25*
%TO.C,R21*%
X145470000Y-25190000D03*
X145470000Y-27190000D03*
%TD*%
D30*
%TO.C,C9*%
X150337500Y-52550000D03*
X148262500Y-52550000D03*
%TD*%
D31*
%TO.C,J7*%
X104050000Y-86350000D03*
D32*
X106550000Y-86350000D03*
%TD*%
D26*
%TO.C,TP7*%
X160980000Y-64840000D03*
%TD*%
D12*
%TO.C,R3*%
X74275000Y-56550000D03*
X76275000Y-56550000D03*
%TD*%
D10*
%TO.C,R39*%
X95205175Y-29225002D03*
X93205175Y-29225002D03*
%TD*%
D25*
%TO.C,R15*%
X72505175Y-36025002D03*
X72505175Y-38025002D03*
%TD*%
D33*
%TO.C,IC3*%
X166050000Y-86100000D03*
X164150000Y-86100000D03*
X165100000Y-88500000D03*
%TD*%
D26*
%TO.C,TP5*%
X55175000Y-42525000D03*
%TD*%
D13*
%TO.C,R20*%
X54255175Y-27425002D03*
X54255175Y-25425002D03*
%TD*%
D25*
%TO.C,R16*%
X70255175Y-36025002D03*
X70255175Y-38025002D03*
%TD*%
%TO.C,R80*%
X74375000Y-48500000D03*
X74375000Y-50500000D03*
%TD*%
D11*
%TO.C,C18*%
X163362500Y-54150000D03*
X165437500Y-54150000D03*
%TD*%
D13*
%TO.C,R24*%
X49320000Y-31990000D03*
X49320000Y-29990000D03*
%TD*%
D25*
%TO.C,R51*%
X70600000Y-78800000D03*
X70600000Y-80800000D03*
%TD*%
D34*
%TO.C,IC12*%
X136224825Y-37274998D03*
X136224825Y-38224998D03*
X136224825Y-39174998D03*
X138724825Y-39174998D03*
X138724825Y-37274998D03*
%TD*%
D35*
%TO.C,D2*%
X72800000Y-87500000D03*
X72800000Y-91500000D03*
%TD*%
D13*
%TO.C,R1*%
X162025000Y-88400000D03*
X162025000Y-86400000D03*
%TD*%
D10*
%TO.C,R25*%
X48255175Y-60425002D03*
X46255175Y-60425002D03*
%TD*%
D36*
%TO.C,C26*%
X124030000Y-60727500D03*
X124030000Y-58652500D03*
%TD*%
D12*
%TO.C,R30*%
X113710000Y-59000000D03*
X115710000Y-59000000D03*
%TD*%
D25*
%TO.C,R6*%
X166000000Y-82300000D03*
X166000000Y-84300000D03*
%TD*%
D14*
%TO.C,C19*%
X146940000Y-48612500D03*
X146940000Y-50687500D03*
%TD*%
D12*
%TO.C,R79*%
X65550000Y-67525000D03*
X67550000Y-67525000D03*
%TD*%
D13*
%TO.C,R52*%
X57600000Y-86600000D03*
X57600000Y-84600000D03*
%TD*%
D21*
%TO.C,STATUS1*%
X71700000Y-54650000D03*
X71700000Y-56550000D03*
%TD*%
D37*
%TO.C,RT1*%
X65650000Y-70725000D03*
X65650000Y-72525000D03*
%TD*%
D36*
%TO.C,C13*%
X165300000Y-52150000D03*
X165300000Y-50075000D03*
%TD*%
D13*
%TO.C,R70*%
X48000000Y-70900000D03*
X48000000Y-68900000D03*
%TD*%
D38*
%TO.C,J6*%
X172635175Y-75110002D03*
X172635175Y-72352002D03*
X172635175Y-69594002D03*
X172635175Y-66836002D03*
X172635175Y-64078002D03*
X172635175Y-61320002D03*
X172635175Y-58562002D03*
X172635175Y-55804002D03*
X172635175Y-53046002D03*
X172635175Y-50288002D03*
X172635175Y-47530002D03*
X172635175Y-44772002D03*
X172635175Y-42014002D03*
X175475175Y-73731002D03*
X175475175Y-70973002D03*
X175475175Y-68215002D03*
X175475175Y-65457002D03*
X175475175Y-62699002D03*
X175475175Y-59941002D03*
X175475175Y-57183002D03*
X175475175Y-54425002D03*
X175475175Y-51667002D03*
X175475175Y-48909002D03*
X175475175Y-46151002D03*
X175475175Y-43393002D03*
D39*
X174055175Y-35042002D03*
X174055175Y-82082002D03*
%TD*%
D10*
%TO.C,R27*%
X48255175Y-56425002D03*
X46255175Y-56425002D03*
%TD*%
D40*
%TO.C,D1*%
X75505175Y-37725002D03*
X75505175Y-33425002D03*
%TD*%
D36*
%TO.C,C42*%
X148950000Y-48677500D03*
X148950000Y-46602500D03*
%TD*%
D34*
%TO.C,IC15*%
X136330000Y-46100000D03*
X136330000Y-47050000D03*
X136330000Y-48000000D03*
X138830000Y-48000000D03*
X138830000Y-46100000D03*
%TD*%
D25*
%TO.C,R11*%
X95370000Y-44020000D03*
X95370000Y-46020000D03*
%TD*%
D41*
%TO.C,D4*%
X45411000Y-68350000D03*
X45411000Y-71650000D03*
%TD*%
D25*
%TO.C,R7*%
X158600000Y-82400000D03*
X158600000Y-84400000D03*
%TD*%
D42*
%TO.C,IC17*%
X48978000Y-73295000D03*
X48978000Y-74565000D03*
X48978000Y-75835000D03*
X48978000Y-77105000D03*
X54400000Y-77105000D03*
X54400000Y-75835000D03*
X54400000Y-74565000D03*
X54400000Y-73295000D03*
%TD*%
D30*
%TO.C,C16*%
X152937500Y-48350000D03*
X150862500Y-48350000D03*
%TD*%
D13*
%TO.C,R8*%
X95304825Y-34334998D03*
X95304825Y-32334998D03*
%TD*%
D10*
%TO.C,R43*%
X113705175Y-51725002D03*
X111705175Y-51725002D03*
%TD*%
D25*
%TO.C,R67*%
X45400000Y-85900000D03*
X45400000Y-87900000D03*
%TD*%
D14*
%TO.C,C14*%
X163300000Y-50075000D03*
X163300000Y-52150000D03*
%TD*%
D11*
%TO.C,C6*%
X56717675Y-32675002D03*
X58792675Y-32675002D03*
%TD*%
D16*
%TO.C,H5*%
X37980000Y-25500000D03*
%TD*%
D12*
%TO.C,R28*%
X46255175Y-58425002D03*
X48255175Y-58425002D03*
%TD*%
D21*
%TO.C,12V1*%
X66060000Y-86375002D03*
X66060000Y-84475002D03*
%TD*%
D43*
%TO.C,Q1*%
X71850000Y-84850000D03*
X73750000Y-84850000D03*
X72800000Y-82750000D03*
%TD*%
D12*
%TO.C,R78*%
X74250000Y-54000000D03*
X76250000Y-54000000D03*
%TD*%
D30*
%TO.C,C11*%
X150337500Y-54550000D03*
X148262500Y-54550000D03*
%TD*%
D13*
%TO.C,R54*%
X69700000Y-86600000D03*
X69700000Y-84600000D03*
%TD*%
D44*
%TO.C,IC8*%
X158700000Y-48000000D03*
X159650000Y-48000000D03*
X160600000Y-48000000D03*
X160600000Y-45500000D03*
X159650000Y-45500000D03*
X158700000Y-45500000D03*
%TD*%
D25*
%TO.C,R72*%
X52000000Y-68900000D03*
X52000000Y-70900000D03*
%TD*%
D45*
%TO.C,F1*%
X69730000Y-33155000D03*
X72680000Y-33155000D03*
%TD*%
D12*
%TO.C,R76*%
X56500000Y-77200000D03*
X58500000Y-77200000D03*
%TD*%
D10*
%TO.C,R31*%
X73405175Y-61425002D03*
X71405175Y-61425002D03*
%TD*%
D21*
%TO.C,SCLK1*%
X162000000Y-82350000D03*
X162000000Y-84250000D03*
%TD*%
D10*
%TO.C,R26*%
X48255175Y-62425002D03*
X46255175Y-62425002D03*
%TD*%
D12*
%TO.C,R61*%
X99955175Y-25725002D03*
X101955175Y-25725002D03*
%TD*%
D46*
%TO.C,U7*%
X123002425Y-47750002D03*
X123002425Y-48400003D03*
X123002425Y-49050002D03*
X123002425Y-49700003D03*
X123002425Y-50350001D03*
X123002425Y-51000003D03*
X123002425Y-51650001D03*
X123002425Y-52300000D03*
X123002425Y-52950001D03*
X123002425Y-53600000D03*
X123002425Y-54250001D03*
X123002425Y-54900000D03*
X123002425Y-55550001D03*
X123002425Y-56200000D03*
X128907925Y-56200002D03*
X128907925Y-55550001D03*
X128907925Y-54900002D03*
X128907925Y-54250001D03*
X128907925Y-53600003D03*
X128907925Y-52950001D03*
X128907925Y-52300003D03*
X128907925Y-51650001D03*
X128907925Y-51000003D03*
X128907925Y-50350001D03*
X128907925Y-49700003D03*
X128907925Y-49050002D03*
X128907925Y-48400003D03*
X128907925Y-47750002D03*
%TD*%
D14*
%TO.C,C37*%
X65505175Y-74387502D03*
X65505175Y-76462502D03*
%TD*%
D34*
%TO.C,IC7*%
X67505175Y-37625002D03*
X67505175Y-36675002D03*
X67505175Y-35725002D03*
X65005175Y-35725002D03*
X65005175Y-36675002D03*
X65005175Y-37625002D03*
%TD*%
D25*
%TO.C,R4*%
X48005175Y-52275002D03*
X48005175Y-54275002D03*
%TD*%
D12*
%TO.C,R57*%
X119205175Y-26225002D03*
X121205175Y-26225002D03*
%TD*%
%TO.C,R65*%
X119090000Y-48230000D03*
X121090000Y-48230000D03*
%TD*%
%TO.C,R55*%
X81205175Y-25725002D03*
X83205175Y-25725002D03*
%TD*%
D25*
%TO.C,R13*%
X99280000Y-43980000D03*
X99280000Y-45980000D03*
%TD*%
D37*
%TO.C,RT2*%
X152610000Y-67790000D03*
X152610000Y-65990000D03*
%TD*%
D28*
%TO.C,S1*%
X45200175Y-27275002D03*
X45200175Y-23875002D03*
%TD*%
D25*
%TO.C,R68*%
X49400000Y-85900000D03*
X49400000Y-87900000D03*
%TD*%
D47*
%TO.C,C41*%
X132780000Y-67900000D03*
X132780000Y-59100000D03*
%TD*%
D26*
%TO.C,TP4*%
X140445000Y-59040000D03*
%TD*%
D16*
%TO.C,H3*%
X172100000Y-25600000D03*
%TD*%
D26*
%TO.C,TP6*%
X55150000Y-37775000D03*
%TD*%
D12*
%TO.C,R56*%
X81205175Y-27725002D03*
X83205175Y-27725002D03*
%TD*%
D36*
%TO.C,C43*%
X56600000Y-75337500D03*
X56600000Y-73262500D03*
%TD*%
D48*
%TO.C,IC5*%
X159762000Y-50362000D03*
X159262000Y-50362000D03*
X158762000Y-50362000D03*
X158262000Y-50362000D03*
X157762000Y-50362000D03*
X157262000Y-50362000D03*
X156762000Y-50362000D03*
X156262000Y-50362000D03*
X155762000Y-50362000D03*
X155262000Y-50362000D03*
X154762000Y-50362000D03*
X154262000Y-50362000D03*
D49*
X152774000Y-51850000D03*
X152774000Y-52350000D03*
X152774000Y-52850000D03*
X152774000Y-53350000D03*
X152774000Y-53850000D03*
X152774000Y-54350000D03*
X152774000Y-54850000D03*
X152774000Y-55350000D03*
X152774000Y-55850000D03*
X152774000Y-56350000D03*
X152774000Y-56850000D03*
X152774000Y-57350000D03*
D48*
X154262000Y-58838000D03*
X154762000Y-58838000D03*
X155262000Y-58838000D03*
X155762000Y-58838000D03*
X156262000Y-58838000D03*
X156762000Y-58838000D03*
X157262000Y-58838000D03*
X157762000Y-58838000D03*
X158262000Y-58838000D03*
X158762000Y-58838000D03*
X159262000Y-58838000D03*
X159762000Y-58838000D03*
D49*
X161250000Y-57350000D03*
X161250000Y-56850000D03*
X161250000Y-56350000D03*
X161250000Y-55850000D03*
X161250000Y-55350000D03*
X161250000Y-54850000D03*
X161250000Y-54350000D03*
X161250000Y-53850000D03*
X161250000Y-53350000D03*
X161250000Y-52850000D03*
X161250000Y-52350000D03*
X161250000Y-51850000D03*
%TD*%
D36*
%TO.C,C5*%
X59505175Y-36750002D03*
X59505175Y-34675002D03*
%TD*%
D10*
%TO.C,R35*%
X125310000Y-62900000D03*
X123310000Y-62900000D03*
%TD*%
D30*
%TO.C,C8*%
X150350000Y-56550000D03*
X148275000Y-56550000D03*
%TD*%
D13*
%TO.C,R23*%
X44120000Y-31990000D03*
X44120000Y-29990000D03*
%TD*%
D26*
%TO.C,TP1*%
X54000000Y-91425002D03*
%TD*%
D50*
%TO.C,IC6*%
X61305175Y-30675002D03*
X61305175Y-31175002D03*
X61305175Y-31675002D03*
X61305175Y-32175002D03*
X61305175Y-32675002D03*
X61305175Y-33175002D03*
D51*
X62005175Y-33875002D03*
X62505175Y-33875002D03*
X63005175Y-33875002D03*
X63505175Y-33875002D03*
X64005175Y-33875002D03*
X64505175Y-33875002D03*
D50*
X65205175Y-33175002D03*
X65205175Y-32675002D03*
X65205175Y-32175002D03*
X65205175Y-31675002D03*
X65205175Y-31175002D03*
X65205175Y-30675002D03*
D51*
X64505175Y-29975002D03*
X64005175Y-29975002D03*
X63505175Y-29975002D03*
X63005175Y-29975002D03*
X62505175Y-29975002D03*
X62005175Y-29975002D03*
D52*
X63255175Y-31925002D03*
%TD*%
D11*
%TO.C,C24*%
X119167675Y-30225002D03*
X121242675Y-30225002D03*
%TD*%
D10*
%TO.C,R75*%
X46800000Y-75500000D03*
X44800000Y-75500000D03*
%TD*%
D12*
%TO.C,R62*%
X99955175Y-27650000D03*
X101955175Y-27650000D03*
%TD*%
D13*
%TO.C,R9*%
X97254825Y-34334998D03*
X97254825Y-32334998D03*
%TD*%
D10*
%TO.C,R47*%
X94955175Y-51725002D03*
X92955175Y-51725002D03*
%TD*%
D44*
%TO.C,IC9*%
X155100000Y-48000000D03*
X156050000Y-48000000D03*
X157000000Y-48000000D03*
X157000000Y-45500000D03*
X156050000Y-45500000D03*
X155100000Y-45500000D03*
%TD*%
D16*
%TO.C,H6*%
X37990000Y-91340000D03*
%TD*%
D10*
%TO.C,R41*%
X133205175Y-29225002D03*
X131205175Y-29225002D03*
%TD*%
D12*
%TO.C,R29*%
X113710000Y-60950000D03*
X115710000Y-60950000D03*
%TD*%
D53*
%TO.C,F2*%
X77125000Y-79700000D03*
X72475000Y-79700000D03*
%TD*%
D38*
%TO.C,J3*%
X37395175Y-41857002D03*
X37395175Y-44615002D03*
X37395175Y-47373002D03*
X37395175Y-50131002D03*
X37395175Y-52889002D03*
X37395175Y-55647002D03*
X37395175Y-58405002D03*
X37395175Y-61163002D03*
X37395175Y-63921002D03*
X37395175Y-66679002D03*
X37395175Y-69437002D03*
X37395175Y-72195002D03*
X37395175Y-74953002D03*
X34555175Y-43236002D03*
X34555175Y-45994002D03*
X34555175Y-48752002D03*
X34555175Y-51510002D03*
X34555175Y-54268002D03*
X34555175Y-57026002D03*
X34555175Y-59784002D03*
X34555175Y-62542002D03*
X34555175Y-65300002D03*
X34555175Y-68058002D03*
X34555175Y-70816002D03*
X34555175Y-73574002D03*
D39*
X35975175Y-81925002D03*
X35975175Y-34885002D03*
%TD*%
D25*
%TO.C,R74*%
X58600000Y-73300000D03*
X58600000Y-75300000D03*
%TD*%
D46*
%TO.C,U4*%
X104002425Y-25250002D03*
X104002425Y-25900003D03*
X104002425Y-26550002D03*
X104002425Y-27200003D03*
X104002425Y-27850001D03*
X104002425Y-28500003D03*
X104002425Y-29150001D03*
X104002425Y-29800000D03*
X104002425Y-30450001D03*
X104002425Y-31100000D03*
X104002425Y-31750001D03*
X104002425Y-32400000D03*
X104002425Y-33050001D03*
X104002425Y-33700000D03*
X109907925Y-33700002D03*
X109907925Y-33050001D03*
X109907925Y-32400002D03*
X109907925Y-31750001D03*
X109907925Y-31100003D03*
X109907925Y-30450001D03*
X109907925Y-29800003D03*
X109907925Y-29150001D03*
X109907925Y-28500003D03*
X109907925Y-27850001D03*
X109907925Y-27200003D03*
X109907925Y-26550002D03*
X109907925Y-25900003D03*
X109907925Y-25250002D03*
%TD*%
D13*
%TO.C,R53*%
X63600000Y-86600000D03*
X63600000Y-84600000D03*
%TD*%
D11*
%TO.C,C27*%
X99815000Y-52130000D03*
X101890000Y-52130000D03*
%TD*%
D14*
%TO.C,C40*%
X61505175Y-70387502D03*
X61505175Y-72462502D03*
%TD*%
D10*
%TO.C,R44*%
X113705175Y-49725002D03*
X111705175Y-49725002D03*
%TD*%
D33*
%TO.C,IC11*%
X56305175Y-27625002D03*
X58205175Y-27625002D03*
X57255175Y-25225002D03*
%TD*%
D13*
%TO.C,R17*%
X63000000Y-37600000D03*
X63000000Y-35600000D03*
%TD*%
D10*
%TO.C,R45*%
X113955175Y-29225002D03*
X111955175Y-29225002D03*
%TD*%
D12*
%TO.C,R59*%
X99830000Y-48220000D03*
X101830000Y-48220000D03*
%TD*%
%TO.C,R33*%
X113720000Y-62910000D03*
X115720000Y-62910000D03*
%TD*%
D21*
%TO.C,IRQ1*%
X154700000Y-82350000D03*
X154700000Y-84250000D03*
%TD*%
D14*
%TO.C,C2*%
X45955175Y-45937500D03*
X45955175Y-48012500D03*
%TD*%
D54*
%TO.C,U3*%
X115735175Y-70075002D03*
X117005175Y-70075002D03*
X118275175Y-70075002D03*
X119545175Y-70075002D03*
X120815175Y-70075002D03*
X122085175Y-70075002D03*
X123355175Y-70075002D03*
X124625175Y-70075002D03*
X124625175Y-65350602D03*
X123355175Y-65350602D03*
X122085175Y-65350602D03*
X120815175Y-65350602D03*
X119545175Y-65350602D03*
X118275175Y-65350602D03*
X117005175Y-65350602D03*
X115735175Y-65350602D03*
%TD*%
D10*
%TO.C,R46*%
X113955175Y-27225002D03*
X111955175Y-27225002D03*
%TD*%
D14*
%TO.C,C17*%
X163300000Y-56100000D03*
X163300000Y-58175000D03*
%TD*%
D55*
%TO.C,J2*%
X154610175Y-39785002D03*
D56*
X162230175Y-39785002D03*
D55*
X160970175Y-42325002D03*
X159690175Y-39785002D03*
X158430175Y-42325002D03*
X157150175Y-39785002D03*
X155890175Y-42325002D03*
X153350175Y-42325002D03*
X164415175Y-28525002D03*
X161875175Y-28525002D03*
X153705175Y-28525002D03*
X151165175Y-28525002D03*
D57*
X165535175Y-36475002D03*
X150045175Y-36475002D03*
%TD*%
D12*
%TO.C,R14*%
X72140000Y-63430000D03*
X74140000Y-63430000D03*
%TD*%
%TO.C,R81*%
X71425000Y-59050000D03*
X73425000Y-59050000D03*
%TD*%
D10*
%TO.C,R48*%
X94955175Y-49725002D03*
X92955175Y-49725002D03*
%TD*%
D11*
%TO.C,C31*%
X141042500Y-46050000D03*
X143117500Y-46050000D03*
%TD*%
D14*
%TO.C,C4*%
X48205175Y-45937502D03*
X48205175Y-48012502D03*
%TD*%
D41*
%TO.C,D3*%
X56600000Y-68050000D03*
X56600000Y-71350000D03*
%TD*%
D25*
%TO.C,R12*%
X97320000Y-44020000D03*
X97320000Y-46020000D03*
%TD*%
D14*
%TO.C,C38*%
X61505175Y-78887502D03*
X61505175Y-80962502D03*
%TD*%
D12*
%TO.C,R18*%
X151200000Y-46000000D03*
X153200000Y-46000000D03*
%TD*%
D46*
%TO.C,U6*%
X123252425Y-25250002D03*
X123252425Y-25900003D03*
X123252425Y-26550002D03*
X123252425Y-27200003D03*
X123252425Y-27850001D03*
X123252425Y-28500003D03*
X123252425Y-29150001D03*
X123252425Y-29800000D03*
X123252425Y-30450001D03*
X123252425Y-31100000D03*
X123252425Y-31750001D03*
X123252425Y-32400000D03*
X123252425Y-33050001D03*
X123252425Y-33700000D03*
X129157925Y-33700002D03*
X129157925Y-33050001D03*
X129157925Y-32400002D03*
X129157925Y-31750001D03*
X129157925Y-31100003D03*
X129157925Y-30450001D03*
X129157925Y-29800003D03*
X129157925Y-29150001D03*
X129157925Y-28500003D03*
X129157925Y-27850001D03*
X129157925Y-27200003D03*
X129157925Y-26550002D03*
X129157925Y-25900003D03*
X129157925Y-25250002D03*
%TD*%
D13*
%TO.C,R2*%
X154700000Y-88400000D03*
X154700000Y-86400000D03*
%TD*%
D58*
%TO.C,IC14*%
X143855175Y-64625002D03*
X143855175Y-66925002D03*
X143855175Y-69225002D03*
D59*
X150155175Y-66925002D03*
%TD*%
D11*
%TO.C,C23*%
X81167675Y-29725002D03*
X83242675Y-29725002D03*
%TD*%
D34*
%TO.C,IC13*%
X136230000Y-41850000D03*
X136230000Y-42800000D03*
X136230000Y-43750000D03*
X138730000Y-43750000D03*
X138730000Y-41850000D03*
%TD*%
D33*
%TO.C,IC4*%
X158650000Y-86100000D03*
X156750000Y-86100000D03*
X157700000Y-88500000D03*
%TD*%
D36*
%TO.C,C32*%
X141505175Y-66700002D03*
X141505175Y-64625002D03*
%TD*%
D46*
%TO.C,U2*%
X85002425Y-47750002D03*
X85002425Y-48400003D03*
X85002425Y-49050002D03*
X85002425Y-49700003D03*
X85002425Y-50350001D03*
X85002425Y-51000003D03*
X85002425Y-51650001D03*
X85002425Y-52300000D03*
X85002425Y-52950001D03*
X85002425Y-53600000D03*
X85002425Y-54250001D03*
X85002425Y-54900000D03*
X85002425Y-55550001D03*
X85002425Y-56200000D03*
X90907925Y-56200002D03*
X90907925Y-55550001D03*
X90907925Y-54900002D03*
X90907925Y-54250001D03*
X90907925Y-53600003D03*
X90907925Y-52950001D03*
X90907925Y-52300003D03*
X90907925Y-51650001D03*
X90907925Y-51000003D03*
X90907925Y-50350001D03*
X90907925Y-49700003D03*
X90907925Y-49050002D03*
X90907925Y-48400003D03*
X90907925Y-47750002D03*
%TD*%
D33*
%TO.C,IC10*%
X62555175Y-27600000D03*
X64455175Y-27600000D03*
X63505175Y-25200000D03*
%TD*%
D30*
%TO.C,C15*%
X150900000Y-50550000D03*
X148825000Y-50550000D03*
%TD*%
D60*
%TO.C,IC2*%
X51105175Y-46985002D03*
X51105175Y-48255002D03*
X51105175Y-49525002D03*
X51105175Y-50795002D03*
X51105175Y-52065002D03*
X51105175Y-53335002D03*
X51105175Y-54605002D03*
X51105175Y-55875002D03*
X51105175Y-57145002D03*
X51105175Y-58415002D03*
X51105175Y-59685002D03*
X51105175Y-60955002D03*
X51105175Y-62225002D03*
X51105175Y-63495002D03*
D61*
X54140175Y-64745002D03*
X55410175Y-64745002D03*
X56680175Y-64745002D03*
X57950175Y-64745002D03*
X59220175Y-64745002D03*
X60490175Y-64745002D03*
X61760175Y-64745002D03*
X63030175Y-64745002D03*
X64300175Y-64745002D03*
X65570175Y-64745002D03*
D60*
X68605175Y-63495002D03*
X68605175Y-62225002D03*
X68605175Y-60955002D03*
X68605175Y-59685002D03*
X68605175Y-58415002D03*
X68605175Y-57145002D03*
X68605175Y-55875002D03*
X68605175Y-54605002D03*
X68605175Y-53335002D03*
X68605175Y-52065002D03*
X68605175Y-50795002D03*
X68605175Y-49525002D03*
X68605175Y-48255002D03*
X68605175Y-46985002D03*
D62*
X58355175Y-54325002D03*
X58355175Y-55725002D03*
X59755175Y-55725002D03*
X59755175Y-54325002D03*
X59755175Y-52925002D03*
X58355175Y-52925002D03*
X56955175Y-52925002D03*
X56955175Y-54325002D03*
X56955175Y-55725002D03*
%TD*%
D10*
%TO.C,R37*%
X143030000Y-43950000D03*
X141030000Y-43950000D03*
%TD*%
D63*
%TO.C,Q2*%
X106537500Y-72250000D03*
X106537500Y-70350000D03*
X104662500Y-71300000D03*
%TD*%
D30*
%TO.C,C30*%
X103597500Y-42750000D03*
X101522500Y-42750000D03*
%TD*%
D11*
%TO.C,C34*%
X140942500Y-41800000D03*
X143017500Y-41800000D03*
%TD*%
D46*
%TO.C,U1*%
X85299675Y-25275001D03*
X85299675Y-25925002D03*
X85299675Y-26575001D03*
X85299675Y-27225002D03*
X85299675Y-27875000D03*
X85299675Y-28525002D03*
X85299675Y-29175000D03*
X85299675Y-29824999D03*
X85299675Y-30475000D03*
X85299675Y-31124999D03*
X85299675Y-31775000D03*
X85299675Y-32424999D03*
X85299675Y-33075000D03*
X85299675Y-33724999D03*
X91205175Y-33725001D03*
X91205175Y-33075000D03*
X91205175Y-32425001D03*
X91205175Y-31775000D03*
X91205175Y-31125002D03*
X91205175Y-30475000D03*
X91205175Y-29825002D03*
X91205175Y-29175000D03*
X91205175Y-28525002D03*
X91205175Y-27875000D03*
X91205175Y-27225002D03*
X91205175Y-26575001D03*
X91205175Y-25925002D03*
X91205175Y-25275001D03*
%TD*%
D14*
%TO.C,C20*%
X46720000Y-29952500D03*
X46720000Y-32027500D03*
%TD*%
D25*
%TO.C,R22*%
X141860000Y-25220000D03*
X141860000Y-27220000D03*
%TD*%
D21*
%TO.C,5V1*%
X60005175Y-86375002D03*
X60005175Y-84475002D03*
%TD*%
D14*
%TO.C,C1*%
X93440000Y-38142500D03*
X93440000Y-40217500D03*
%TD*%
D25*
%TO.C,R32*%
X119510000Y-60980000D03*
X119510000Y-62980000D03*
%TD*%
D10*
%TO.C,R40*%
X95205175Y-27225002D03*
X93205175Y-27225002D03*
%TD*%
D26*
%TO.C,TP2*%
X60005175Y-91425002D03*
%TD*%
D46*
%TO.C,U5*%
X103752425Y-47750002D03*
X103752425Y-48400003D03*
X103752425Y-49050002D03*
X103752425Y-49700003D03*
X103752425Y-50350001D03*
X103752425Y-51000003D03*
X103752425Y-51650001D03*
X103752425Y-52300000D03*
X103752425Y-52950001D03*
X103752425Y-53600000D03*
X103752425Y-54250001D03*
X103752425Y-54900000D03*
X103752425Y-55550001D03*
X103752425Y-56200000D03*
X109657925Y-56200002D03*
X109657925Y-55550001D03*
X109657925Y-54900002D03*
X109657925Y-54250001D03*
X109657925Y-53600003D03*
X109657925Y-52950001D03*
X109657925Y-52300003D03*
X109657925Y-51650001D03*
X109657925Y-51000003D03*
X109657925Y-50350001D03*
X109657925Y-49700003D03*
X109657925Y-49050002D03*
X109657925Y-48400003D03*
X109657925Y-47750002D03*
%TD*%
D14*
%TO.C,C39*%
X63505175Y-70387502D03*
X63505175Y-72462502D03*
%TD*%
D64*
%TO.C,IC1*%
X99230000Y-36242000D03*
X98580000Y-36242000D03*
X97930000Y-36242000D03*
X97280000Y-36242000D03*
X96630000Y-36242000D03*
X95980000Y-36242000D03*
X95330000Y-36242000D03*
X95330000Y-42118000D03*
X95980000Y-42118000D03*
X96630000Y-42118000D03*
X97280000Y-42118000D03*
X97930000Y-42118000D03*
X98580000Y-42118000D03*
X99230000Y-42118000D03*
%TD*%
D12*
%TO.C,R69*%
X44800000Y-73400000D03*
X46800000Y-73400000D03*
%TD*%
D11*
%TO.C,C25*%
X80917675Y-53125002D03*
X82992675Y-53125002D03*
%TD*%
D12*
%TO.C,R66*%
X119090000Y-50230000D03*
X121090000Y-50230000D03*
%TD*%
D10*
%TO.C,R42*%
X133205175Y-27225002D03*
X131205175Y-27225002D03*
%TD*%
D30*
%TO.C,C3*%
X48142675Y-50125002D03*
X46067675Y-50125002D03*
%TD*%
D22*
%TO.C,J5*%
X115475175Y-81425002D03*
D23*
X125475175Y-81425002D03*
%TD*%
D10*
%TO.C,R36*%
X143024825Y-39524998D03*
X141024825Y-39524998D03*
%TD*%
D65*
%TO.C,IC16*%
X61305175Y-74475002D03*
X61305175Y-75425002D03*
X61305175Y-76375002D03*
X63503175Y-76375002D03*
X63503175Y-75425002D03*
X63503175Y-74475002D03*
%TD*%
D66*
%TO.C,Y3*%
X154700000Y-63050000D03*
X156800000Y-63050000D03*
X156800000Y-61400000D03*
X154700000Y-61400000D03*
%TD*%
G36*
X152656922Y-60490780D02*
G01*
X152803004Y-60507239D01*
X152830075Y-60513417D01*
X152962225Y-60559658D01*
X152987243Y-60571706D01*
X153105788Y-60646193D01*
X153127497Y-60663506D01*
X153226493Y-60762502D01*
X153243806Y-60784211D01*
X153318293Y-60902756D01*
X153330341Y-60927774D01*
X153376582Y-61059924D01*
X153382760Y-61086994D01*
X153399220Y-61233077D01*
X153400000Y-61246961D01*
X153400000Y-69823038D01*
X153399220Y-69836922D01*
X153382760Y-69983005D01*
X153376582Y-70010075D01*
X153330341Y-70142225D01*
X153318293Y-70167243D01*
X153243806Y-70285788D01*
X153226493Y-70307497D01*
X153127497Y-70406493D01*
X153105788Y-70423806D01*
X152987243Y-70498293D01*
X152962225Y-70510341D01*
X152830075Y-70556582D01*
X152803005Y-70562760D01*
X152656923Y-70579220D01*
X152643039Y-70580000D01*
X146381961Y-70580000D01*
X146368077Y-70579220D01*
X146221994Y-70562760D01*
X146194924Y-70556582D01*
X146062774Y-70510341D01*
X146037756Y-70498293D01*
X145919211Y-70423806D01*
X145897502Y-70406493D01*
X145798506Y-70307497D01*
X145781193Y-70285788D01*
X145706706Y-70167243D01*
X145694658Y-70142225D01*
X145648417Y-70010075D01*
X145642239Y-69983004D01*
X145625780Y-69836921D01*
X145625000Y-69823038D01*
X145625000Y-61246961D01*
X145625780Y-61233078D01*
X145642239Y-61086995D01*
X145648417Y-61059924D01*
X145694658Y-60927774D01*
X145706706Y-60902756D01*
X145781193Y-60784211D01*
X145798506Y-60762502D01*
X145897502Y-60663506D01*
X145919211Y-60646193D01*
X146037756Y-60571706D01*
X146062774Y-60559658D01*
X146194924Y-60513417D01*
X146221995Y-60507239D01*
X146368078Y-60490780D01*
X146381961Y-60490000D01*
X152643039Y-60490000D01*
X152656922Y-60490780D01*
G37*
G36*
X61843039Y-50919685D02*
G01*
X61888794Y-50972489D01*
X61900000Y-51024000D01*
X61900000Y-57676000D01*
X61880315Y-57743039D01*
X61827511Y-57788794D01*
X61776000Y-57800000D01*
X54924000Y-57800000D01*
X54856961Y-57780315D01*
X54811206Y-57727511D01*
X54800000Y-57676000D01*
X54800000Y-51024000D01*
X54819685Y-50956961D01*
X54872489Y-50911206D01*
X54924000Y-50900000D01*
X61776000Y-50900000D01*
X61843039Y-50919685D01*
G37*
G36*
X75256922Y-68600780D02*
G01*
X75403004Y-68617239D01*
X75430075Y-68623417D01*
X75562225Y-68669658D01*
X75587243Y-68681706D01*
X75705788Y-68756193D01*
X75727497Y-68773506D01*
X75826493Y-68872502D01*
X75843806Y-68894211D01*
X75918293Y-69012756D01*
X75930341Y-69037774D01*
X75976582Y-69169924D01*
X75982760Y-69196994D01*
X75999220Y-69343077D01*
X76000000Y-69356961D01*
X76000000Y-76443038D01*
X75999220Y-76456922D01*
X75982760Y-76603005D01*
X75976582Y-76630075D01*
X75930341Y-76762225D01*
X75918293Y-76787243D01*
X75843806Y-76905788D01*
X75826493Y-76927497D01*
X75727497Y-77026493D01*
X75705788Y-77043806D01*
X75587243Y-77118293D01*
X75562225Y-77130341D01*
X75430075Y-77176582D01*
X75403005Y-77182760D01*
X75256923Y-77199220D01*
X75243039Y-77200000D01*
X65256961Y-77200000D01*
X65243077Y-77199220D01*
X65096994Y-77182760D01*
X65069924Y-77176582D01*
X64937774Y-77130341D01*
X64912756Y-77118293D01*
X64794211Y-77043806D01*
X64772502Y-77026493D01*
X64673506Y-76927497D01*
X64656193Y-76905788D01*
X64581706Y-76787243D01*
X64569658Y-76762225D01*
X64523417Y-76630075D01*
X64517239Y-76603004D01*
X64500780Y-76456921D01*
X64500000Y-76443038D01*
X64500000Y-69356961D01*
X64500780Y-69343078D01*
X64517239Y-69196995D01*
X64523417Y-69169924D01*
X64569658Y-69037774D01*
X64581706Y-69012756D01*
X64656193Y-68894211D01*
X64673506Y-68872502D01*
X64772502Y-68773506D01*
X64794211Y-68756193D01*
X64912756Y-68681706D01*
X64937774Y-68669658D01*
X65069924Y-68623417D01*
X65096995Y-68617239D01*
X65243078Y-68600780D01*
X65256961Y-68600000D01*
X75243039Y-68600000D01*
X75256922Y-68600780D01*
G37*
G36*
X60911980Y-51552383D02*
G01*
X60971480Y-51564218D01*
X61016179Y-51582732D01*
X61056268Y-51609518D01*
X61090481Y-51643731D01*
X61117267Y-51683820D01*
X61135781Y-51728517D01*
X61147617Y-51788017D01*
X61150000Y-51812210D01*
X61150000Y-56887789D01*
X61147617Y-56911982D01*
X61135781Y-56971482D01*
X61117267Y-57016179D01*
X61090481Y-57056268D01*
X61056268Y-57090481D01*
X61016179Y-57117267D01*
X60971482Y-57135781D01*
X60911982Y-57147617D01*
X60887789Y-57150000D01*
X55812211Y-57150000D01*
X55788019Y-57147617D01*
X55728518Y-57135781D01*
X55683820Y-57117267D01*
X55643731Y-57090481D01*
X55609518Y-57056268D01*
X55582732Y-57016179D01*
X55564218Y-56971480D01*
X55552383Y-56911980D01*
X55550000Y-56887789D01*
X55550000Y-51812210D01*
X55552383Y-51788019D01*
X55564218Y-51728519D01*
X55582732Y-51683820D01*
X55609518Y-51643731D01*
X55643731Y-51609518D01*
X55683820Y-51582732D01*
X55728520Y-51564217D01*
X55788021Y-51552382D01*
X55812211Y-51550000D01*
X60887789Y-51550000D01*
X60911980Y-51552383D01*
G37*
M02*
